<svg id="Layer_1" data-name="Layer 1" xmlns="http://www.w3.org/2000/svg" viewBox="0 0 48.81 44.8"><title>Pisum Sativum</title><path d="M6,21.1c7,9.77,22.25.63,13.29-9.86C12.83,3.68-1.33,10.93,6,21.1Z" transform="translate(-3.94 -8.11)"/><path d="M8.53,9a1.46,1.46,0,0,0-1.88-.46,2.43,2.43,0,0,0-1.16,1.6.69.69,0,0,0-.14.35,1.71,1.71,0,0,0-.12.8.68.68,0,0,0,.48.64,1.85,1.85,0,0,0,2-.57,1.36,1.36,0,0,0,.12-.25,1.62,1.62,0,0,0,.33-.23A1.52,1.52,0,0,0,8.53,9Z" transform="translate(-3.94 -8.11)"/><path d="M44.78,50.18c18.36-11.83,1.65-37.53-16.2-26.34C10.36,35.26,27.43,61.36,44.78,50.18Z" transform="translate(-3.94 -8.11)"/><path d="M21.66,36.52a1.1,1.1,0,0,0-.7-.27,1,1,0,0,0-1-.17,1,1,0,0,0-1.06.45c-.88,1.74-1.52,4.35.83,5.24l.07,0a2,2,0,0,0,1.68.64A2.59,2.59,0,0,0,23.63,40C23.7,38.54,22.65,37.42,21.66,36.52Z" transform="translate(-3.94 -8.11)"/></svg>