<?xml version="1.0" encoding="utf-8"?>
<!-- Generator: Adobe Illustrator 21.1.0, SVG Export Plug-In . SVG Version: 6.00 Build 0)  -->
<svg version="1.1" id="Layer_1" xmlns="http://www.w3.org/2000/svg" xmlns:xlink="http://www.w3.org/1999/xlink" x="0px" y="0px"
	 viewBox="0 0 56.7 56.7" style="enable-background:new 0 0 56.7 56.7;" xml:space="preserve">
<title>Ingredients Icons</title>
<path d="M53.6,14.3c-0.4-4-1.3-7.8-2.6-11.6c-0.1-0.3-1.4-2.7-1.2-3C47,4.6,41.3,7.2,36.8,10.2c-6.9,4.5-11.2,11.4-10,19.9
	c0.2,1.9,0.8,3.8,1.7,5.5c0.5,0.6,1,1.3,1.4,2C33.1,25.3,43,18.3,43,18.3c-2.3,2.7-4.3,5.7-5.8,8.9c-1.8,3.6-3.4,7.2-4.7,10.9
	c-1.2,3.2-2.3,6.4-3.3,9.6c-0.2,0.7-0.4,1.4-0.6,2c-0.1,0.4-0.2,0.8-0.3,1.2c-0.3,0.7-1-0.5-1.1-0.8c-0.4-0.7-0.7-1.5-0.9-2.3
	c-1.9-7.4-4.8-14.3-9.5-20.3c-1-1.3-2-2.5-3.1-3.6c5.6,4,9.8,9.6,12.2,16c1.3-6.4-1.2-13.3-5.7-18.1S9.5,14.3,3,13.1
	C3.8,19.5,5.4,26,8.7,31.5s8.7,10.1,15.1,11.2c0.3,2.9,0.8,5.8,1.6,8.7c0.2,1.3,1.1,2.4,2.4,2.8c0.5,0.2,1.1,0,1.5-0.4
	c0.2-0.3,0.3-0.6,0.4-0.9c0.6-2.5,1.3-5.1,1.9-7.6c0.1-0.6,1-5.1,1.7-5.2c0.5,0,1.1-0.1,1.6-0.1c3.9-0.3,7.5-1.9,10.4-4.4
	C51.4,30.3,54.5,22.4,53.6,14.3L53.6,14.3z"/>
</svg>
