<?xml version="1.0" encoding="utf-8"?>
<!-- Generator: Adobe Illustrator 21.1.0, SVG Export Plug-In . SVG Version: 6.00 Build 0)  -->
<svg version="1.1" id="Layer_1" xmlns="http://www.w3.org/2000/svg" xmlns:xlink="http://www.w3.org/1999/xlink" x="0px" y="0px"
	 viewBox="0 0 56.7 56.7" style="enable-background:new 0 0 56.7 56.7;" xml:space="preserve">
<title>Ingredients Icons</title>
<path d="M28.5,31.4c0.4-0.2,0.9-0.4,1.4-0.6c-1.4-4.9-2-10-1.7-15.2c0-0.7,0.1-1.5,0.2-2.2c-2.4,0.9-4.5,2.4-6.1,4.4
	c3.6,4,3.3,10.2-0.7,13.8c-3.6,3.2-8.9,3.3-12.6,0.4c-0.9,1.2-0.5,2.1,0.9,2.9c-0.9,0.5-2,0.3-2.5-0.6C7,34,6.9,33.7,6.9,33.4
	c-0.5,0.3-1.2,0.2-1.7-0.2c-0.4-0.5-0.4-1.2-0.1-1.7c-1-0.1-1.7-1.1-1.6-2.1c0-0.3,0.2-0.6,0.3-0.8c0.6,1.4,1.5,1.9,2.8,1.1
	c-3-4.5-1.9-10.6,2.6-13.6c3.6-2.5,8.4-2.2,11.8,0.6c1.9-2.3,4.5-4,7.3-4.9c0.6-4.1,1.8-8.1,3.6-11.8l1.4,0.2
	c0,6.4,2.5,12.6,6.9,17.2c3.5-2.7,8.4-2,11.1,1.5c2.2,2.9,2.2,6.9-0.1,9.8c0.9,0.7,1.7,0.4,2.3-0.7c0.4,0.7,0.2,1.6-0.5,2
	c-0.2,0.1-0.5,0.2-0.7,0.2c0.3,0.5,0.2,1.1-0.2,1.4c-0.4,0.3-0.9,0.2-1.3-0.1c-0.1,0.8-0.9,1.4-1.7,1.2c-0.2,0-0.5-0.1-0.7-0.3
	c1.2-0.5,1.5-1.2,0.9-2.2c-3.6,2.4-8.5,1.5-11-2.1c-2.1-3-1.7-7.1,0.8-9.8c-4-4.2-6.5-9.5-7.1-15.3c-1.6,4-2.5,8.3-2.8,12.6
	c-0.3,5,0.3,10,1.6,14.7c5.3-1,10.4,2.5,11.4,7.8c0.7,3.7-0.8,7.5-3.8,9.7c0.9,1.1,1.9,1,3-0.1c0.3,1-0.2,2-1.2,2.3
	c-0.3,0.1-0.6,0.1-0.9,0c0.2,0.7-0.1,1.4-0.8,1.6c-0.5,0.2-1.1,0-1.5-0.5c-0.4,0.9-1.5,1.4-2.4,1c-0.3-0.1-0.5-0.3-0.7-0.6
	c1.5-0.2,2.2-1,1.8-2.4c-5.1,1.7-10.7-1-12.4-6.1C22.1,38.6,24.2,33.6,28.5,31.4L28.5,31.4z"/>
</svg>
