<svg id="Layer_1" data-name="Layer 1" xmlns="http://www.w3.org/2000/svg" viewBox="0 0 56.69 56.69"><title>мащерка-black</title><path d="M9.16,56.69c1.15-1.55,7.9-10.31,9-11.91a16,16,0,0,0,6.16.66A18.19,18.19,0,0,0,30.4,44l.12-.06A5.37,5.37,0,0,0,30.88,49a.35.35,0,0,0,.59,0,9.34,9.34,0,0,0,1.41-3.22,6,6,0,0,0,4.53,1.7.42.42,0,0,0,.35-.69,13.74,13.74,0,0,0-3.47-3.15,19.2,19.2,0,0,0,8.13-1.27.36.36,0,0,0,.21-.31c-.08-1.26-1.63-1.35-2.6-1.44a15.62,15.62,0,0,0-4.55.28l-.6.14a15.05,15.05,0,0,0,2.88-3.53,3.28,3.28,0,0,0,.73.62,5.09,5.09,0,0,0,2.42.54,8.59,8.59,0,0,0,5.2-.86.36.36,0,0,0,0-.62A6.73,6.73,0,0,0,41.49,36a19.56,19.56,0,0,0,5.72-4.66c.22-.26-.1-.58-.38-.53-.6.1-1.23.23-1.86.38A9.06,9.06,0,0,0,46,28.22c0-.2-.2-.36-.38-.31A6.85,6.85,0,0,0,43,29.28a14.43,14.43,0,0,0,.3-1.87A.34.34,0,0,0,43,27,6.58,6.58,0,0,0,43,25.49a.32.32,0,0,0-.47-.21,8.43,8.43,0,0,0-2.91,3.06q0-.54,0-1.08A.39.39,0,0,0,39,27c-2.08,2.47-3.37,6.54-1.82,9.59.06.12.13.24.2.35A22.63,22.63,0,0,1,34,40.22c.29-.58.54-1.17.75-1.72A16.82,16.82,0,0,0,35.9,32.4a.4.4,0,0,0-.73-.23,16,16,0,0,0-3.6,7.16c-.06-.28-.13-.56-.22-.83a2.2,2.2,0,0,0-1.53-1.7.42.42,0,0,0-.53.35,7.54,7.54,0,0,0,.61,4.38,2,2,0,0,0,.75.81l-.82.38A16.66,16.66,0,0,1,24.4,44,19.6,19.6,0,0,1,19,43.47l1-1.52A9,9,0,0,0,25,41.57a8.81,8.81,0,0,0,2.26-1.23c.46-.34,1.48-1.07.91-1.73-.43-.5-1.59-.4-2.18-.37a8.59,8.59,0,0,0-1.63.23A7.33,7.33,0,0,0,26,35.94a.37.37,0,0,0-.34-.48,4.9,4.9,0,0,0-1.86.45l.92-1.57c.75,1,2.35,1.45,3.62,1.64.34.05.5-.33.4-.59A4.58,4.58,0,0,0,27,33.28a13,13,0,0,0,8.21-4.36.36.36,0,0,0,0-.45,3.31,3.31,0,0,0-3.57-.36c-.21.08-.41.17-.61.27q.64-1.44,1.14-2.93a.31.31,0,0,0-.36-.39,10.36,10.36,0,0,0-3,1.56l.33-.66a54,54,0,0,0,2.27-5l.15.15a3.73,3.73,0,0,0,1.58.78,10,10,0,0,0,3.83,0,5,5,0,0,0,3.32-1.75.37.37,0,0,0,0-.45c-.88-1.18-2.47-1.4-3.85-1.34a11,11,0,0,0-2.79.48l.09-.1,0,0a8.76,8.76,0,0,0,1-1.36q.53-.74,1.09-1.47c.58-.76,1.18-1.51,1.7-2.31a5.6,5.6,0,0,0,4.25,1.37,14.86,14.86,0,0,0,2.85-.41,2,2,0,0,0,1.4-.93h.13A6.79,6.79,0,0,0,49.16,12a.32.32,0,0,0,0-.51,6.66,6.66,0,0,0-4-.63,16.78,16.78,0,0,0,4.63-6.78.31.31,0,0,0-.29-.41,10.27,10.27,0,0,0-6.08,2.42,20.46,20.46,0,0,0,1.09-3c.16-.58.25-1.55-.55-1.68s-1.65.85-2.16,1.3a14.13,14.13,0,0,0-1.58,1.66,3.87,3.87,0,0,0-1-2.8.36.36,0,0,0-.59.13C36.89,5.27,35.18,9.46,37,13.32a15.05,15.05,0,0,0-1.07,1.19,9.47,9.47,0,0,0,.26-2.7.36.36,0,0,0-.53-.33,6.35,6.35,0,0,0-1.48.87A7.5,7.5,0,0,0,32,7a.37.37,0,0,0-.6.13,15.19,15.19,0,0,0-1,9.34,8.17,8.17,0,0,0-2.23-1.68.39.39,0,0,0-.59.29,6.32,6.32,0,0,0,1.18,4.15h-.07a8.07,8.07,0,0,0-3.95,1.77.38.38,0,0,0,0,.55,4.75,4.75,0,0,0,5.68.16c-.57,1-1.1,2.08-1.66,3.11-.81,1.49-1.61,3-2.45,4.46A10.67,10.67,0,0,0,24.86,23c-.14-.24-.59-.26-.67.06A17.19,17.19,0,0,0,24,30l-.27-.21c-.46-.32-1.31-.72-1.72-.09s.16,1.48.49,1.93a3.49,3.49,0,0,0,1.8,1.27h0l-.81,1.36a4,4,0,0,0-.39-1.32.35.35,0,0,0-.58,0q-.53.7-1,1.44a4.56,4.56,0,0,0-4.26,0,15.28,15.28,0,0,0,2.09-7.65.38.38,0,0,0-.63-.28,11.89,11.89,0,0,0-2.83,3.25l.07-.31q.21-.86.45-1.71.33-1.16.71-2.3a7.77,7.77,0,0,0,.77-.2,9.75,9.75,0,0,0,4-2.13c.61-.54,2.45-2.23,1-2.87a2.44,2.44,0,0,0-1.75.13,7.83,7.83,0,0,0-1.84.91,8.17,8.17,0,0,0-.79.6l.38-.86c.43-1,.95-1.92,1.33-2.91a1.41,1.41,0,0,0,.72.25,5.25,5.25,0,0,0,1.4-.23l1.3-.29A14.25,14.25,0,0,0,26,17.14a1.2,1.2,0,0,0,.87-1.26.39.39,0,0,0-.26-.29,6.09,6.09,0,0,0-1.29-.35,7,7,0,0,0,1.3-2.11A8.17,8.17,0,0,0,27.31,10a.34.34,0,0,0-.41-.34,6.41,6.41,0,0,0-2.56.79,7,7,0,0,0,.17-1.19c0-.91-.68-1-1.32-.56a7.41,7.41,0,0,0-1.28,1.26,2.89,2.89,0,0,0-1-1.74.45.45,0,0,0-.69.06,9.23,9.23,0,0,0-.78,8.93,2.7,2.7,0,0,0,.24.38l.1.15a16.49,16.49,0,0,0-1.62,2.78l-.09.19A17.05,17.05,0,0,0,17,12.6c-.13-.33-.6-.21-.71.06A17,17,0,0,0,15,18.51a5.32,5.32,0,0,0-3.34-2.67.36.36,0,0,0-.47.31A11.67,11.67,0,0,0,12.37,22a7.44,7.44,0,0,0,1.54,2A4.19,4.19,0,0,0,16,25.16a.28.28,0,0,0,.22-.07l0,0,0,.05c-.25.73-.49,1.46-.7,2.2a16.28,16.28,0,0,0-.82,3.54.39.39,0,0,0,0,.12,10,10,0,0,0-.35,1.68c-.74-3.3-2.45-6.43-5.6-7.91a.38.38,0,0,0-.56.38,15.72,15.72,0,0,0,4.6,9.94A10.49,10.49,0,0,0,9.68,35c-.55.06-1.52.08-1.85.61s.19,1,.55,1.35a4.94,4.94,0,0,0,6.21.19,32.33,32.33,0,0,0,.83,3.49l.46,1.57a6.1,6.1,0,0,0,.73,2.55q-4,5.78-8.52,11.23m9.6-12.78a3.94,3.94,0,0,0-.51-.88v0c-.17-.56-.35-1.12-.54-1.67-.38-1.15-.79-2.29-1.12-3.45-.05-.18-.1-.36-.14-.55a6.59,6.59,0,0,0,2.74.27,8.64,8.64,0,0,0,.56,4.89Z"/></svg>