<?xml version="1.0" encoding="UTF-8" standalone="no"?>
<!-- Created with Inkscape (http://www.inkscape.org/) -->

<svg
   width="380"
   height="208"
   viewBox="0 0 100.54166 55.033335"
   version="1.1"
   id="svg24"
   sodipodi:docname="21dayfullbodydetox.svg"
   inkscape:version="1.1.2 (b8e25be833, 2022-02-05)"
   xmlns:inkscape="http://www.inkscape.org/namespaces/inkscape"
   xmlns:sodipodi="http://sodipodi.sourceforge.net/DTD/sodipodi-0.dtd"
   xmlns="http://www.w3.org/2000/svg"
   xmlns:svg="http://www.w3.org/2000/svg">
  <sodipodi:namedview
     id="namedview9"
     pagecolor="#ffffff"
     bordercolor="#666666"
     borderopacity="1.0"
     inkscape:pageshadow="2"
     inkscape:pageopacity="0.0"
     inkscape:pagecheckerboard="0"
     showgrid="false"
     inkscape:zoom="2.8684211"
     inkscape:cx="189.82569"
     inkscape:cy="116.44037"
     inkscape:window-width="1920"
     inkscape:window-height="1009"
     inkscape:window-x="1912"
     inkscape:window-y="-741"
     inkscape:window-maximized="1"
     inkscape:current-layer="text1966" />
  <defs
     id="defs21" />
  <g
     aria-label="21-Day Plan forFULL BODYDETOX"
     transform="scale(0.99770916,1.0022961)"
     id="text1966"
     style="font-size:13.8039px;line-height:0;stroke-width:0.345099">
    <path
       d="M 1.1862726,3.5453371 H 0.23590648 Q 0.27634759,2.0759766 1.2132334,1.1323507 2.1568593,0.18872472 3.5385973,0.18872472 q 1.3682577,0 2.2107809,0.88296428 0.8492633,0.8829643 0.8492633,2.0827173 0,0.8425232 -0.4044111,1.5839436 Q 5.7898193,5.4730301 4.6237672,6.7334448 L 2.1568593,9.395818 h 4.5765859 v 0.957106 H 0 L 3.7879842,6.2616318 Q 4.9405559,5.0281779 5.2843054,4.4350415 5.634795,3.835165 5.634795,3.1746269 q 0,-0.835783 -0.6268372,-1.4356595 -0.6200971,-0.6066167 -1.5232819,-0.6066167 -0.9503662,0 -1.5839436,0.6335774 -0.6268373,0.6335774 -0.7144597,1.779409 z"
       style="line-height:1.25;font-family:'Century Gothic';-inkscape-font-specification:'Century Gothic'"
       id="path11" />
    <path
       d="M 9.7934892,0.43811158 H 11.741403 V 10.352924 H 10.757336 V 1.4086983 H 9.2003529 Z"
       style="line-height:1.25;font-family:'Century Gothic';-inkscape-font-specification:'Century Gothic'"
       id="path13" />
    <path
       d="m 15.327181,6.2144505 h 3.707102 v 0.8223026 h -3.707102 z"
       style="line-height:1.25;font-family:'Century Gothic';-inkscape-font-specification:'Century Gothic'"
       id="path15" />
    <path
       d="M 20.678889,10.352924 V 0.43811158 h 2.055756 q 2.224261,0 3.228549,0.35722982 1.4424,0.5055139 2.251222,1.7524482 0.815562,1.2469343 0.815562,2.9724218 0,1.489581 -0.647057,2.6219321 -0.640318,1.1323512 -1.671566,1.671566 -1.024509,0.5392145 -2.87806,0.5392145 z m 0.950366,-0.9368854 h 1.145831 q 2.055757,0 2.851099,-0.2561271 1.118871,-0.36397 1.759188,-1.3075959 0.640318,-0.9503662 0.640318,-2.3186238 0,-1.4356595 -0.694239,-2.4534275 Q 26.637213,2.0624963 25.397019,1.6850459 24.466873,1.4019581 22.330234,1.4019581 h -0.700979 z"
       style="line-height:1.25;font-family:'Century Gothic';-inkscape-font-specification:'Century Gothic'"
       id="path17" />
    <path
       d="M 38.102267,3.0196026 V 10.352924 H 37.172121 V 9.0925097 q -0.593136,0.7211998 -1.334557,1.0851703 -0.73468,0.36397 -1.610904,0.36397 -1.556983,0 -2.662373,-1.1256114 -1.09865,-1.1323512 -1.09865,-2.7499957 0,-1.5839436 1.11213,-2.7095545 1.112131,-1.125611 2.675854,-1.125611 0.903185,0 1.631125,0.3841906 0.73468,0.3841905 1.287375,1.1525717 V 3.0196026 Z m -3.774504,0.7211998 q -0.788602,0 -1.45588,0.3909308 -0.667278,0.3841906 -1.064949,1.0851698 -0.390931,0.7009793 -0.390931,1.4828408 0,0.7751214 0.397671,1.4828408 0.397671,0.7077195 1.064949,1.1053904 0.674019,0.3909308 1.4424,0.3909308 0.775121,0 1.46936,-0.3909308 0.694239,-0.3909307 1.064949,-1.0582091 0.377451,-0.6672783 0.377451,-1.5030613 0,-1.2738951 -0.842523,-2.1298986 -0.835783,-0.8560036 -2.062497,-0.8560036 z"
       style="line-height:1.25;font-family:'Century Gothic';-inkscape-font-specification:'Century Gothic'"
       id="path19" />
    <path
       d="m 39.436826,3.0196026 h 0.997547 L 42.955202,8.667878 45.40189,3.0196026 h 1.004287 L 42.031797,13.035518 H 41.03425 l 1.415439,-3.2352889 z"
       style="line-height:1.25;font-family:'Century Gothic';-inkscape-font-specification:'Century Gothic'"
       id="path21" />
    <path
       d="m 51.59612,0.43811158 h 1.974874 q 1.698527,0 2.291663,0.14828408 0.849263,0.20894574 1.388478,0.86274374 0.539215,0.6470578 0.539215,1.6311249 0,0.9908072 -0.525734,1.637865 -0.525735,0.6403176 -1.44914,0.8627438 -0.674019,0.1617644 -2.52083,0.1617644 H 52.586927 V 10.352924 H 51.59612 Z m 0.990807,0.96384652 v 3.3700927 l 1.678306,0.020221 q 1.017768,0 1.489581,-0.181985 0.471813,-0.1887252 0.741421,-0.5998765 0.269607,-0.4178915 0.269607,-0.9301456 0,-0.4987738 -0.269607,-0.9099251 -0.269608,-0.4178915 -0.71446,-0.5931363 -0.438112,-0.1752448 -1.4424,-0.1752448 z"
       style="line-height:1.25;font-family:'Century Gothic';-inkscape-font-specification:'Century Gothic'"
       id="path23" />
    <path
       d="m 59.475393,0.18872472 h 0.943626 V 10.352924 h -0.943626 z"
       style="line-height:1.25;font-family:'Century Gothic';-inkscape-font-specification:'Century Gothic'"
       id="path25" />
    <path
       d="M 69.686776,3.0196026 V 10.352924 H 68.75663 V 9.0925097 q -0.593136,0.7211998 -1.334557,1.0851703 -0.73468,0.36397 -1.610904,0.36397 -1.556983,0 -2.662373,-1.1256114 -1.09865,-1.1323512 -1.09865,-2.7499957 0,-1.5839436 1.11213,-2.7095545 1.112131,-1.125611 2.675854,-1.125611 0.903185,0 1.631125,0.3841906 0.73468,0.3841905 1.287375,1.1525717 V 3.0196026 Z m -3.774504,0.7211998 q -0.788602,0 -1.45588,0.3909308 -0.667279,0.3841906 -1.06495,1.0851698 -0.39093,0.7009793 -0.39093,1.4828408 0,0.7751214 0.397671,1.4828408 0.397671,0.7077195 1.064949,1.1053904 0.674018,0.3909308 1.4424,0.3909308 0.775121,0 1.46936,-0.3909308 0.694239,-0.3909307 1.064949,-1.0582091 0.377451,-0.6672783 0.377451,-1.5030613 0,-1.2738951 -0.842523,-2.1298986 -0.835783,-0.8560036 -2.062497,-0.8560036 z"
       style="line-height:1.25;font-family:'Century Gothic';-inkscape-font-specification:'Century Gothic'"
       id="path27" />
    <path
       d="m 71.809934,3.0196026 h 0.943626 v 1.3143362 q 0.566176,-0.7549008 1.253675,-1.125611 0.687499,-0.3774504 1.496321,-0.3774504 0.822303,0 1.45588,0.4178915 0.640318,0.4178915 0.943626,1.125611 0.303308,0.7077194 0.303308,2.2040406 V 10.352924 H 77.269485 V 6.8547681 q 0,-1.2671549 -0.107843,-1.6917865 -0.168505,-0.7279401 -0.633578,-1.0919101 -0.465073,-0.3707102 -1.213233,-0.3707102 -0.856004,0 -1.536763,0.5661756 -0.674018,0.5661756 -0.889704,1.4019586 -0.134804,0.545955 -0.134804,1.9950949 v 2.6893336 h -0.943626 z"
       style="line-height:1.25;font-family:'Century Gothic';-inkscape-font-specification:'Century Gothic'"
       id="path29" />
    <path
       d="M 87.069711,0.18872472 V 1.1121301 Q 86.550716,0.889704 86.180006,0.889704 q -0.276347,0 -0.458332,0.1145832 -0.181985,0.1078429 -0.229167,0.256127 -0.04718,0.1415439 -0.04718,0.7683811 v 0.9908073 h 1.530022 V 3.8284248 H 85.438586 V 10.352924 H 84.49496 V 3.8284248 H 83.531113 V 3.0196026 H 84.49496 V 1.8737711 q 0,-0.7886017 0.141544,-1.12561099 Q 84.784788,0.41115083 85.128537,0.20894527 85.479027,-4.7683716e-7 85.97106,-4.7683716e-7 q 0.458333,0 1.098651,0.18872519683716 z"
       style="line-height:1.25;font-family:'Century Gothic';-inkscape-font-specification:'Century Gothic'"
       id="path31" />
    <path
       d="m 91.855249,2.8308774 q 1.691787,0 2.803918,1.2267138 1.011027,1.1188707 1.011027,2.6488928 0,1.5367623 -1.071689,2.689334 -1.064949,1.145832 -2.743256,1.145832 -1.685046,0 -2.756735,-1.145832 -1.06495,-1.1525717 -1.06495,-2.689334 0,-1.5232819 1.011028,-2.6421527 1.112131,-1.2334539 2.810657,-1.2334539 z m 0,0.9234054 q -1.172792,0 -2.015315,0.8694839 -0.842523,0.869484 -0.842523,2.1029379 0,0.7953419 0.38419,1.4828408 0.384191,0.6874989 1.037989,1.0649493 0.653798,0.3707102 1.435659,0.3707102 0.781862,0 1.43566,-0.3707102 0.653798,-0.3774504 1.037988,-1.0649493 0.384191,-0.6874989 0.384191,-1.4828408 0,-1.2334539 -0.849263,-2.1029379 -0.842524,-0.8694839 -2.008576,-0.8694839 z"
       style="line-height:1.25;font-family:'Century Gothic';-inkscape-font-specification:'Century Gothic'"
       id="path33" />
    <path
       d="m 97.065406,3.0196026 h 0.963846 v 1.0716895 q 0.431372,-0.6335775 0.909925,-0.943626 0.478554,-0.3167887 0.997548,-0.3167887 0.390935,0 0.835785,0.2493869 l -0.49204,0.7953418 q -0.296564,-0.1280635 -0.498769,-0.1280635 -0.471813,0 -0.909925,0.3909308 -0.438112,0.3841905 -0.667279,1.199753 -0.175245,0.6268372 -0.175245,2.5343097 v 2.4803879 h -0.963846 z"
       style="line-height:1.25;font-family:'Century Gothic';-inkscape-font-specification:'Century Gothic'"
       id="path35" />
    <path
       d="M 1.3181566,13.880794 H 8.4382677 V 15.28163 H 2.7286535 v 4.444031 h 5.7096142 v 1.400836 H 2.7286535 v 6.965536 H 1.3181566 Z"
       style="font-size:19.7856px;line-height:0.75;font-family:'Century Gothic';-inkscape-font-specification:'Century Gothic'"
       id="path37" />
    <path
       d="m 10.959773,13.880794 h 1.420157 v 8.578913 q 0,1.526428 0.05797,1.903204 0.10627,0.840502 0.492708,1.410497 0.386437,0.560335 1.188295,0.946772 0.801858,0.376777 1.613377,0.376777 0.705248,0 1.352531,-0.299489 0.647283,-0.299489 1.082025,-0.830841 0.434742,-0.531352 0.637622,-1.284905 0.144914,-0.541012 0.144914,-2.222015 v -8.578913 h 1.420158 v 8.578913 q 0,1.903204 -0.376777,3.081839 -0.367115,1.168973 -1.487784,2.038458 -1.111008,0.869484 -2.695402,0.869484 -1.719647,0 -2.946586,-0.82118 -1.226939,-0.821179 -1.642359,-2.173711 -0.260845,-0.83084 -0.260845,-2.99489 z"
       style="font-size:19.7856px;line-height:0.75;font-family:'Century Gothic';-inkscape-font-specification:'Century Gothic'"
       id="path39" />
    <path
       d="m 23.866786,13.880794 h 1.429819 V 26.72018 h 5.45843 v 1.371853 h -6.888249 z"
       style="font-size:19.7856px;line-height:0.75;font-family:'Century Gothic';-inkscape-font-specification:'Century Gothic'"
       id="path41" />
    <path
       d="m 33.006032,13.880794 h 1.429819 V 26.72018 h 5.45843 v 1.371853 h -6.888249 z"
       style="font-size:19.7856px;line-height:0.75;font-family:'Century Gothic';-inkscape-font-specification:'Century Gothic'"
       id="path43" />
    <path
       d="m 47.661675,13.880794 h 2.801672 q 1.690664,0 2.598792,0.405759 0.908128,0.396099 1.429819,1.226939 0.531351,0.830841 0.531351,1.845239 0,0.946772 -0.463725,1.729308 -0.463725,0.772875 -1.362192,1.255922 1.111008,0.376777 1.709986,0.888807 0.598978,0.502368 0.92745,1.226939 0.338133,0.714909 0.338133,1.555411 0,1.709986 -1.255922,2.898281 -1.246261,1.178634 -3.352345,1.178634 h -3.903019 z m 1.391175,1.391175 v 4.550302 h 0.811519 q 1.478123,0 2.173711,-0.270507 0.695587,-0.280167 1.101346,-0.869484 0.40576,-0.598978 0.40576,-1.323549 0,-0.975754 -0.685927,-1.526428 -0.676265,-0.560334 -2.16405,-0.560334 z m 0,5.98012 v 5.448769 h 1.75829 q 1.555411,0 2.279982,-0.299489 0.72457,-0.30915 1.159312,-0.956433 0.444403,-0.647282 0.444403,-1.400836 0,-0.946771 -0.6183,-1.65202 -0.6183,-0.705248 -1.700325,-0.966094 -0.72457,-0.173897 -2.521504,-0.173897 z"
       style="font-size:19.7856px;line-height:0.75;font-family:'Century Gothic';-inkscape-font-specification:'Century Gothic'"
       id="path45" />
    <path
       d="m 65.756612,13.523339 q 3.226753,0 5.400464,2.154389 2.173711,2.154389 2.173711,5.303855 0,3.120483 -2.173711,5.294194 -2.16405,2.173711 -5.284533,2.173711 -3.159127,0 -5.332838,-2.16405 -2.173711,-2.16405 -2.173711,-5.236228 0,-2.048119 0.985416,-3.796749 0.995076,-1.74863 2.705062,-2.734045 1.709986,-0.995077 3.70014,-0.995077 z m 0.06763,1.391175 q -1.574733,0 -2.98523,0.82118 -1.410496,0.82118 -2.202693,2.212355 -0.792197,1.391175 -0.792197,3.101161 0,2.531165 1.748629,4.279795 1.758291,1.738969 4.231491,1.738969 1.652021,0 3.052857,-0.801858 1.410496,-0.801858 2.193032,-2.193033 0.792197,-1.391175 0.792197,-3.0915 0,-1.690664 -0.792197,-3.052856 -0.782536,-1.371853 -2.212354,-2.193033 -1.429819,-0.82118 -3.033535,-0.82118 z"
       style="font-size:19.7856px;line-height:0.75;font-family:'Century Gothic';-inkscape-font-specification:'Century Gothic'"
       id="path47" />
    <path
       d="M 76.180766,28.092033 V 13.880794 h 2.946586 q 3.18811,0 4.62759,0.51203 2.06744,0.72457 3.226753,2.511843 1.168973,1.787274 1.168973,4.260474 0,2.135067 -0.92745,3.758105 -0.917789,1.623037 -2.395912,2.395912 -1.468463,0.772875 -4.125221,0.772875 z m 1.362193,-1.34287 h 1.642359 q 2.946586,0 4.086577,-0.367116 1.603715,-0.52169 2.521505,-1.874222 0.917789,-1.362192 0.917789,-3.323362 0,-2.05778 -0.995077,-3.516582 -0.995077,-1.458801 -2.772689,-1.999814 -1.33321,-0.405759 -4.395727,-0.405759 h -1.004737 z"
       style="font-size:19.7856px;line-height:0.75;font-family:'Century Gothic';-inkscape-font-specification:'Century Gothic'"
       id="path49" />
    <path
       d="m 89.783364,13.880794 h 1.64236 l 3.632512,5.854528 3.574547,-5.854528 h 1.642357 l -4.501994,7.4196 v 6.791639 H 94.37231 v -6.791639 z"
       style="font-size:19.7856px;line-height:0.75;font-family:'Century Gothic';-inkscape-font-specification:'Century Gothic'"
       id="path51" />
    <path
       d="m 2.2467369,31.190688 h 5.2214136 q 5.0484145,0 7.5018505,1.258172 2.453435,1.242445 4.041877,4.057605 1.588442,2.81516 1.588442,6.573948 0,2.673616 -0.896447,4.922598 -0.880721,2.233255 -2.453436,3.711607 -1.556987,1.478352 -3.381337,2.04453 -1.824349,0.566177 -6.3223138,0.566177 H 2.2467369 Z m 4.3878747,4.246331 V 50.016086 H 8.679141 q 3.019613,0 4.372148,-0.691994 1.368261,-0.691995 2.233255,-2.327619 0.864993,-1.635623 0.864993,-4.02615 0,-3.680153 -2.060257,-5.708955 -1.855803,-1.824349 -5.9605892,-1.824349 z"
       style="font-weight:bold;font-size:32.2092px;line-height:0.95;font-family:'Century Gothic';-inkscape-font-specification:'Century Gothic Bold'"
       id="path53" />
    <path
       d="M 24.799469,31.190688 H 37.42837 v 4.309239 h -8.256753 v 4.183422 h 8.256753 v 4.230603 h -8.256753 v 6.086407 h 8.256753 v 4.324966 H 24.799469 Z"
       style="font-weight:bold;font-size:32.2092px;line-height:0.95;font-family:'Century Gothic';-inkscape-font-specification:'Century Gothic Bold'"
       id="path55" />
    <path
       d="m 39.25272,31.190688 h 12.786172 v 4.340694 h -4.214876 v 18.793943 h -4.46651 V 35.531382 H 39.25272 Z"
       style="font-weight:bold;font-size:32.2092px;line-height:0.95;font-family:'Century Gothic';-inkscape-font-specification:'Century Gothic Bold'"
       id="path57" />
    <path
       d="m 65.988874,30.608784 q 4.906871,0 8.429752,3.554336 3.538609,3.554335 3.538609,8.665659 0,5.064142 -3.491427,8.571296 -3.4757,3.507155 -8.44548,3.507155 -5.205686,0 -8.649932,-3.601518 -3.444245,-3.601517 -3.444245,-8.555569 0,-3.318428 1.604169,-6.102134 1.604169,-2.783705 4.403602,-4.403602 2.815159,-1.635623 6.054952,-1.635623 z m -0.04718,4.309239 q -3.208339,0 -5.394413,2.233255 -2.186073,2.233255 -2.186073,5.677501 0,3.837424 2.752251,6.070679 2.138892,1.745714 4.90687,1.745714 3.129703,0 5.331504,-2.264709 2.201801,-2.26471 2.201801,-5.583138 0,-3.302702 -2.217528,-5.583138 -2.217528,-2.296164 -5.394412,-2.296164 z"
       style="font-weight:bold;font-size:32.2092px;line-height:0.95;font-family:'Century Gothic';-inkscape-font-specification:'Century Gothic Bold'"
       id="path59" />
    <path
       d="m 80.599393,31.190688 h 4.954052 l 4.843962,7.407488 4.891143,-7.407488 h 4.95405 l -7.360304,11.197731 7.816394,11.936906 h -4.954053 l -5.34723,-8.130936 -5.30005,8.130936 h -4.985506 l 7.816393,-11.936906 z"
       style="font-weight:bold;font-size:32.2092px;line-height:0.95;font-family:'Century Gothic';-inkscape-font-specification:'Century Gothic Bold'"
       id="path61" />
  </g>
</svg>
