<?xml version="1.0" encoding="utf-8"?>
<!-- Generator: Adobe Illustrator 21.1.0, SVG Export Plug-In . SVG Version: 6.00 Build 0)  -->
<svg version="1.1" id="Layer_1" xmlns="http://www.w3.org/2000/svg" xmlns:xlink="http://www.w3.org/1999/xlink" x="0px" y="0px"
	 viewBox="0 0 51.8 52" style="enable-background:new 0 0 51.8 52;" xml:space="preserve">
<style type="text/css">
	.st0{fill:#FFD635;}
	.st1{fill:#F7B523;}
	.st2{fill:#FFEF57;}
	.st3{fill:#943436;}
	.st4{fill:#F74F5C;}
	.st5{fill:#D82A3F;}
	.st6{fill:#FCC504;}
	.st7{fill:#FFFFFF;}
</style>
<title>journey-day-15</title>
<path class="st0" d="M51.8,25.8c0.1,3.4-0.4,6.8-1.6,10c-1.3,3.2-3.7,5.7-6.1,8.1c-2.4,2.3-5.2,4.2-8.3,5.4c-3,1.3-6.2,2.7-9.8,2.7
	c-3.4-0.1-6.8-1-9.9-2.4c-3.1-1.4-5.8-3.3-8.1-5.8c-2.4-2.3-4.3-5.1-5.7-8.2c-1.4-3.1-2.2-6.4-2.3-9.8c0-3.4,0.7-6.8,2-10
	c1.4-3.1,3.4-5.8,5.9-8.1c2.3-2.4,5.1-4.4,8.2-5.7C19.3,0.7,22.6,0,26,0c3.4,0.1,6.7,0.8,9.8,2.2C39,3.5,42.1,5,44.5,7.3
	s3.7,5.6,5,8.8C50.9,19.1,51.7,22.4,51.8,25.8z"/>
<path class="st1" d="M31.6,48.6c-3.2-0.1-6.4-0.9-9.3-2.3c-2.9-1.3-5.5-3.1-7.7-5.5c-2.3-2.2-4.1-4.8-5.3-7.8
	c-1.4-2.9-2.1-6-2.2-9.3c0-3.2,0.6-6.4,1.9-9.4c1.3-2.9,3.2-5.5,5.6-7.7c2.2-2.3,4.9-4.1,7.8-5.4C23.8,0.8,25.4,0.3,27,0h-1
	c-3.4,0-6.7,0.6-9.9,1.9C13,3.3,10.2,5.2,7.9,7.7C5.4,10,3.4,12.8,2,15.8c-1.3,3.2-2,6.6-2,10c0.1,3.4,0.9,6.7,2.3,9.8
	c1.3,3.1,3.2,5.9,5.7,8.2c2.3,2.4,5.1,4.4,8.2,5.8c3.1,1.4,6.4,2.2,9.8,2.4c3.5,0,6.7-1.5,9.7-2.7c2.5-1,4.8-2.3,6.8-4
	c-0.6,0.3-1.2,0.6-1.8,0.8C37.9,47.3,34.9,48.6,31.6,48.6z"/>
<path class="st2" d="M21.9,5.4c0,0,0.2-0.1,0.5-0.4c0.5-0.3,0.9-0.6,1.5-0.8c0.7-0.4,1.5-0.6,2.3-0.9C27,3.1,28,2.9,28.9,2.9h0.7
	h0.7L31,3l0.7,0.1c0.4,0.1,0.8,0.2,1.2,0.4C33.3,3.6,33.6,3.8,34,4c0.5,0.3,1,0.7,1.4,1.1c0.1,0.1,0.2,0.3,0.3,0.4l0.1,0.2
	c0,0-0.3,0-0.7,0.1h-0.8c-0.3,0-0.6,0-0.9,0s-0.7,0-1-0.1l-1.1-0.1l-0.6-0.1l-0.7,0l-0.6-0.1l-0.3-0.1h-0.3c-1.5-0.2-3.1-0.2-4.6,0
	l-1.6,0.1H22L21.9,5.4z"/>
<path class="st3" d="M29.7,41.1c1,0,2-0.2,2.9-0.5c0.9-0.3,1.8-0.8,2.6-1.4c1.3-0.7,2.4-1.7,3.2-2.8c0.6-0.7,1.1-1.5,1.4-2.4
	c0.1-0.3,0-0.7-0.2-1c-0.1-0.1-0.5-0.2-1,0s-1.3,0.6-2.2,0.9c-1,0.4-2.1,0.6-3.2,0.8C32,34.9,30.8,35,29.5,35
	c-1.3,0.1-2.5,0.2-3.8,0.1c-1.1-0.1-2.2-0.3-3.2-0.5c-0.7-0.3-1.5-0.6-2.2-0.9c-0.3-0.2-0.7-0.1-0.9,0.1c-0.1,0.1-0.3,0.3-0.1,0.9
	c0.3,0.9,0.8,1.7,1.4,2.4c0.9,1.1,2.1,2,3.4,2.7c0.9,0.4,1.8,0.7,2.8,0.8C27.7,40.9,28.7,41.1,29.7,41.1z"/>
<path class="st4" d="M17.9,22.2c1.6,0.8,3,1.5,3,1.5c1.3-1.1,2.5-2.4,3.6-3.6c0.4-0.5,1.8-1.9,2.6-3l0,0c0.3-0.9,0.3-1.8,0.2-2.7
	c-0.3-0.9-0.9-1.6-1.7-2.1c-0.6-0.6-1.5-1-2.3-1c-0.9,0.1-1.7,0.5-2.4,1c-0.8,0.4-1.4,1-1.9,1.7c-0.7-0.5-1.5-0.9-2.3-1
	c-0.8-0.2-1.7-0.2-2.5,0.1c-0.8,0.2-1.6,0.6-2.2,1.3c-0.4,0.6-0.5,1.2-0.6,1.9c0.6,1.2,1.3,2.3,2.2,3.3
	C14.9,20.6,16.3,21.5,17.9,22.2z"/>
<path class="st5" d="M24.5,20.1c-1.1,1.3-2.3,2.5-3.6,3.6c0,0-1.4-0.7-3-1.5c-1.6-0.6-3-1.5-4.3-2.6c-0.9-1-1.6-2.1-2.1-3.3
	c0,0.3,0,0.5,0,0.8c0.1,0.9,0.4,1.8,0.9,2.5c0.5,0.8,1.1,1.4,1.8,2c0.6,0.7,1.3,1.3,2,1.9c0.8,0.6,1.7,1,2.4,1.4
	c1.1,0.6,2,1.2,2.5,1.4c0.4-0.4,1-1.2,1.9-2.2c0.5-0.6,1.1-1.4,1.7-2.2c0.6-0.7,1.1-1.5,1.6-2.3c0.4-0.8,0.8-1.7,1-2.6
	C26.3,18.1,24.9,19.5,24.5,20.1z"/>
<path class="st4" d="M36.1,21.8c1.2,1.2,2.3,2.4,2.3,2.4c1.5-0.7,3.1-1.4,4.5-2.2c0.5-0.4,2.3-1.2,3.4-2l0,0c0.5-0.7,0.9-1.6,1-2.5
	c0-0.9-0.4-1.8-0.9-2.5c-0.4-0.8-1.1-1.3-1.9-1.7c-0.8-0.2-1.7-0.1-2.5,0.1c-0.8,0.2-1.6,0.5-2.3,1.1c-0.5-0.7-1.1-1.3-1.8-1.7
	c-0.7-0.4-1.5-0.7-2.3-0.7c-0.9-0.1-1.7,0.1-2.5,0.5c-0.5,0.4-0.9,1-1.1,1.6c0.1,1.3,0.5,2.6,1,3.8C33.8,19.3,34.8,20.7,36.1,21.8z"
	/>
<path class="st5" d="M42.9,21.9c-1.5,0.8-3,1.6-4.5,2.2c0,0-1.1-1.1-2.3-2.4c-1.3-1.1-2.4-2.4-3.2-3.9c-0.5-1.2-0.9-2.5-1-3.8
	c-0.1,0.2-0.2,0.5-0.2,0.7c-0.2,0.9-0.2,1.8,0.1,2.6c0.2,0.9,0.6,1.7,1,2.5c0.4,0.8,0.8,1.6,1.3,2.4c0.6,0.8,1.3,1.4,1.8,2
	c0.8,0.9,1.5,1.7,1.9,2.1c0.5-0.2,1.3-0.8,2.4-1.4c0.7-0.4,1.5-1,2.3-1.5c0.8-0.5,1.5-1,2.2-1.6c0.7-0.6,1.2-1.3,1.7-2.1
	C45.2,20.6,43.4,21.5,42.9,21.9z"/>
<path class="st0" d="M51.8,25.8c0.1,3.4-0.4,6.8-1.6,10c-1.3,3.2-3.7,5.7-6.1,8.1c-2.4,2.3-5.2,4.2-8.3,5.4c-3,1.3-6.2,2.7-9.8,2.7
	c-3.4-0.1-6.8-1-9.9-2.4c-3.1-1.4-5.8-3.3-8.1-5.8c-2.4-2.3-4.3-5.1-5.7-8.2c-1.4-3.1-2.2-6.4-2.3-9.8c0-3.4,0.7-6.8,2-10
	c1.4-3.1,3.4-5.8,5.9-8.1c2.3-2.4,5.1-4.4,8.2-5.7C19.3,0.7,22.6,0,26,0c3.4,0.1,6.7,0.8,9.8,2.2C39,3.5,42.1,5,44.5,7.3
	s3.7,5.6,5,8.8C50.9,19.1,51.7,22.4,51.8,25.8z"/>
<path class="st1" d="M31.6,48.6c-3.2-0.1-6.4-0.9-9.3-2.3c-2.9-1.3-5.5-3.1-7.7-5.5c-2.3-2.2-4.1-4.8-5.3-7.8
	c-1.4-2.9-2.1-6-2.2-9.3c0-3.2,0.6-6.4,1.9-9.4c1.3-2.9,3.2-5.5,5.6-7.7c2.2-2.3,4.9-4.1,7.8-5.4C23.8,0.8,25.4,0.3,27,0h-1
	c-3.4,0-6.7,0.7-9.9,1.9C13,3.3,10.2,5.2,7.9,7.7C5.4,10,3.4,12.8,2,15.8c-1.3,3.2-2,6.6-2,10c0.1,3.4,0.9,6.7,2.3,9.8
	c1.3,3.1,3.2,5.9,5.7,8.2c2.3,2.4,5.1,4.4,8.2,5.8c3.1,1.4,6.4,2.2,9.8,2.4c3.5,0,6.7-1.5,9.7-2.7c2.5-1,4.8-2.3,6.8-4
	c-0.6,0.3-1.2,0.6-1.8,0.8C37.9,47.3,34.9,48.6,31.6,48.6z"/>
<path class="st2" d="M21.9,6.7c0,0,0.2-0.1,0.5-0.4c0.5-0.3,0.9-0.6,1.5-0.8c0.7-0.4,1.5-0.6,2.3-0.9C27,4.4,28,4.3,28.9,4.2h0.7
	h0.7L31,4.3l0.7,0.1c0.4,0.1,0.8,0.2,1.2,0.4c0.3,0.1,0.7,0.3,1,0.5c0.5,0.3,1,0.7,1.4,1.1c0.1,0.1,0.2,0.3,0.3,0.4L35.8,7
	c0,0-0.3,0-0.7,0.1h-0.8c-0.3,0-0.6,0-0.9,0s-0.7,0-1-0.1l-1.1-0.1l-0.6-0.1L30,6.7l-0.6-0.1l-0.3-0.1h-0.3c-1.5-0.2-3.1-0.2-4.6,0
	l-1.6,0.1H22L21.9,6.7z"/>
<path class="st1" d="M10.2,19l0.3-0.3c0.1-0.1,0.2-0.3,0.4-0.4s0.3-0.3,0.5-0.5s0.4-0.3,0.6-0.5s0.5-0.4,0.8-0.5s0.6-0.3,0.8-0.5
	s0.6-0.3,0.9-0.4c0.3-0.1,0.6-0.3,0.9-0.4s0.6-0.2,0.9-0.3S17,15,17.2,15s0.6-0.1,0.8-0.1l0.7-0.1h0.5h0.5c0.6,0,1.1,0.4,1.2,1
	c0,0.6-0.4,1.1-1,1.2h-1.6c-0.2,0-0.5,0-0.7,0S17,17,16.7,17.1s-0.6,0.1-0.8,0.2s-0.6,0.1-0.9,0.2s-0.6,0.2-0.8,0.3
	s-0.5,0.2-0.8,0.4s-0.5,0.3-0.7,0.4s-0.4,0.3-0.6,0.4s-0.4,0.3-0.5,0.4l-0.4,0.3l-0.3,0.3l0,0c-0.2,0.2-0.6,0.1-0.7-0.1
	C10,19.6,10,19.3,10.2,19L10.2,19z"/>
<path class="st1" d="M47.5,19.8l-0.3-0.3l-0.4-0.3c-0.2-0.1-0.3-0.2-0.5-0.4s-0.4-0.3-0.6-0.4S45.2,18.1,45,18s-0.5-0.2-0.8-0.4
	s-0.5-0.2-0.8-0.3s-0.6-0.2-0.9-0.2S41.9,17,41.7,17s-0.5-0.1-0.8-0.1s-0.5,0-0.7,0h-1.5c-0.6,0-1.1-0.5-1.1-1.1
	c0-0.6,0.5-1.1,1.1-1.1h0.1h0.5h0.5l0.7,0.1c0.3,0,0.5,0.1,0.8,0.1s0.6,0.1,0.9,0.2s0.6,0.2,0.9,0.3s0.6,0.2,0.9,0.4
	s0.6,0.3,0.9,0.4s0.6,0.3,0.8,0.5s0.5,0.4,0.8,0.5s0.4,0.4,0.6,0.5s0.4,0.3,0.5,0.5s0.3,0.3,0.4,0.4l0.3,0.3
	c0.2,0.2,0.1,0.6-0.1,0.7C47.9,19.9,47.7,19.9,47.5,19.8L47.5,19.8z"/>
<path class="st3" d="M23.7,26l-0.1-0.1c-0.1-0.1-0.1-0.1-0.3-0.3c-0.1-0.1-0.3-0.3-0.4-0.4c-0.2-0.1-0.4-0.3-0.6-0.4
	c-0.3-0.1-0.5-0.3-0.8-0.4c-0.3-0.1-0.7-0.2-1-0.3c-0.7-0.2-1.5-0.3-2.2-0.3h-0.5h-0.6c-0.4,0-0.7,0.1-1.1,0.2
	c-0.3,0.1-0.7,0.2-1,0.3c-0.3,0.1-0.6,0.2-0.8,0.4c-0.4,0.2-0.7,0.4-1,0.7L13,25.6l-0.1,0.1l-0.1,0.1c-0.3,0.3-0.7,0.4-1,0.1
	c-0.2-0.2-0.3-0.5-0.2-0.8l0.1-0.2c0.1-0.2,0.1-0.3,0.2-0.5c0.3-0.6,0.8-1.1,1.3-1.5c0.7-0.5,1.5-0.9,2.3-1.2
	c0.5-0.1,0.9-0.3,1.4-0.3c0.2,0,0.5-0.1,0.7-0.1H18h0.4c0.5,0,1,0.1,1.5,0.1c0.5,0.1,0.9,0.2,1.4,0.4c0.4,0.1,0.9,0.3,1.3,0.6
	c0.4,0.2,0.7,0.4,1,0.7c0.5,0.4,0.9,0.9,1.2,1.5c0.1,0.2,0.2,0.3,0.2,0.5l0,0.1c0.1,0.4-0.1,0.8-0.5,0.9
	C24.2,26.3,23.9,26.2,23.7,26L23.7,26z"/>
<path class="st3" d="M33.4,25.3l0-0.1c0.1-0.2,0.1-0.3,0.2-0.5c0.3-0.6,0.7-1.1,1.2-1.5c0.3-0.3,0.6-0.5,1-0.7
	c0.4-0.2,0.8-0.4,1.3-0.6c0.5-0.2,0.9-0.3,1.4-0.4c0.5-0.1,1-0.1,1.5-0.1h0.4h0.4c0.3,0,0.5,0,0.7,0.1c0.5,0.1,0.9,0.2,1.4,0.3
	c0.8,0.3,1.6,0.7,2.3,1.2c0.5,0.4,1,0.9,1.3,1.5c0.1,0.2,0.2,0.3,0.2,0.5l0.1,0.2c0.1,0.4-0.1,0.8-0.5,0.9c-0.3,0.1-0.6,0-0.8-0.2
	l-0.1-0.1l-0.1-0.1l-0.2-0.3c-0.3-0.3-0.6-0.5-1-0.7c-0.3-0.1-0.5-0.2-0.8-0.4c-0.3-0.1-0.7-0.2-1-0.3C42,24,41.6,24,41.3,23.9h-0.6
	h-0.6c-0.8,0-1.5,0.1-2.2,0.3c-0.3,0.1-0.7,0.2-1,0.3c-0.3,0.1-0.5,0.2-0.8,0.4c-0.2,0.1-0.4,0.3-0.6,0.4c-0.1,0.1-0.3,0.2-0.4,0.4
	c-0.1,0.1-0.2,0.2-0.3,0.3l-0.1,0.1c-0.3,0.3-0.8,0.3-1.1,0.1C33.4,25.9,33.3,25.6,33.4,25.3L33.4,25.3z"/>
<path class="st3" d="M37.1,40l0,0.2c-0.1,0.2-0.1,0.3-0.2,0.5c-0.3,0.6-0.7,1.1-1.2,1.5c-0.3,0.3-0.6,0.5-1,0.7
	c-0.4,0.2-0.8,0.4-1.3,0.6c-0.5,0.2-0.9,0.3-1.4,0.4c-0.5,0.1-1,0.1-1.5,0.1h-0.4h-0.4c-0.3,0-0.5,0-0.7-0.1
	c-0.5-0.1-0.9-0.2-1.4-0.3c-0.8-0.3-1.6-0.7-2.3-1.2c-0.5-0.4-1-0.9-1.3-1.5c-0.1-0.2-0.2-0.3-0.2-0.5l-0.1-0.2
	c-0.1-0.4,0.1-0.8,0.5-0.9c0.3-0.1,0.6,0,0.8,0.2l0.1,0.1l0.1,0.1l0.2,0.3c0.3,0.3,0.6,0.5,1,0.7c0.3,0.1,0.5,0.2,0.8,0.3
	c0.3,0.1,0.7,0.2,1,0.3c0.4,0.1,0.7,0.1,1.1,0.2h0.6h0.6c0.8,0,1.5-0.1,2.2-0.3c0.3-0.1,0.7-0.2,1-0.3c0.3-0.1,0.5-0.2,0.8-0.4
	c0.2-0.1,0.4-0.3,0.5-0.4c0.1-0.1,0.3-0.2,0.4-0.4c0.1-0.1,0.2-0.2,0.3-0.3l0.1-0.1c0.3-0.3,0.8-0.3,1.1-0.1
	C37.1,39.4,37.2,39.7,37.1,40L37.1,40z"/>
<path class="st0" d="M51.8,25.8c0.1,3.4-0.4,6.8-1.6,10c-1.3,3.2-3.7,5.7-6.1,8.1c-2.4,2.3-5.2,4.2-8.3,5.4c-3,1.3-6.2,2.7-9.8,2.7
	c-3.4-0.1-6.8-1-9.9-2.4c-3.1-1.4-5.8-3.3-8.1-5.8c-2.4-2.3-4.3-5.1-5.7-8.2c-1.4-3.1-2.2-6.4-2.3-9.8c0-3.4,0.7-6.8,2-10
	c1.4-3.1,3.4-5.8,5.9-8.1c2.3-2.4,5.1-4.4,8.2-5.7C19.3,0.7,22.6,0,26,0c3.4,0.1,6.7,0.8,9.8,2.2C39,3.5,42.1,5,44.5,7.3
	s3.7,5.6,5,8.8C50.9,19.1,51.7,22.4,51.8,25.8z"/>
<path class="st1" d="M31.6,48.6c-3.2-0.1-6.4-0.9-9.3-2.3c-2.9-1.3-5.5-3.1-7.7-5.5c-2.3-2.2-4.1-4.8-5.3-7.8
	c-1.4-2.9-2.1-6-2.2-9.3c0-3.2,0.6-6.4,1.9-9.4c1.3-2.9,3.2-5.5,5.6-7.7c2.2-2.3,4.9-4.1,7.8-5.4C23.8,0.8,25.4,0.3,27,0h-1
	c-3.4,0-6.7,0.6-9.9,1.9C13,3.3,10.2,5.2,7.9,7.7C5.4,10,3.4,12.8,2,15.8c-1.3,3.2-2,6.6-2,10c0.1,3.4,0.9,6.7,2.3,9.8
	c1.3,3.1,3.2,5.9,5.7,8.2c2.3,2.4,5.1,4.4,8.2,5.8c3.1,1.4,6.4,2.2,9.8,2.4c3.5,0,6.7-1.5,9.7-2.7c2.5-1,4.8-2.3,6.8-4
	c-0.6,0.3-1.2,0.6-1.8,0.8C37.9,47.3,34.9,48.6,31.6,48.6z"/>
<path class="st2" d="M21.9,6.7c0,0,0.2-0.1,0.5-0.4c0.5-0.3,0.9-0.6,1.5-0.8c0.7-0.4,1.5-0.6,2.3-0.9C27,4.4,28,4.3,28.9,4.2h0.7
	h0.7L31,4.3l0.7,0.1c0.4,0.1,0.8,0.2,1.2,0.4c0.3,0.1,0.7,0.3,1,0.5c0.5,0.3,1,0.7,1.4,1.1c0.1,0.1,0.2,0.3,0.3,0.4L35.8,7
	c0,0-0.3,0-0.7,0.1h-0.8c-0.3,0-0.6,0-0.9,0s-0.7,0-1-0.1l-1.1-0.1l-0.6-0.1L30,6.7l-0.6-0.1l-0.3-0.1h-0.3c-1.5-0.2-3.1-0.2-4.6,0
	l-1.6,0.1H22L21.9,6.7z"/>
<path class="st3" d="M43.2,33.5l-0.2,0.3c-0.2,0.3-0.3,0.5-0.5,0.8c-0.1,0.2-0.3,0.4-0.4,0.6l-0.5,0.6L41,36.4
	c-0.2,0.2-0.5,0.5-0.8,0.7c-0.6,0.5-1.2,1-1.9,1.4c-0.3,0.2-0.7,0.4-1.1,0.6c-0.2,0.1-0.4,0.2-0.6,0.3s-0.4,0.2-0.6,0.3L35.4,40
	l-0.7,0.2c-0.5,0.1-0.9,0.3-1.4,0.3c-0.5,0.1-1,0.2-1.4,0.2c-0.2,0-0.5,0-0.7,0h-0.8h-0.7h-0.3H29c-0.3,0-0.5,0-0.8-0.1l-0.7-0.1
	c-0.5-0.1-0.9-0.2-1.4-0.3L25.5,40l-0.6-0.3c-0.2-0.1-0.4-0.2-0.6-0.3s-0.4-0.2-0.6-0.3c-0.4-0.2-0.8-0.4-1.1-0.7
	c-0.7-0.4-1.3-0.9-1.9-1.4c-0.3-0.2-0.5-0.5-0.8-0.7l-0.6-0.7l-0.5-0.6c-0.2-0.2-0.3-0.4-0.4-0.6c-0.2-0.3-0.4-0.5-0.5-0.8l-0.2-0.3
	c-0.3-0.4-0.2-0.9,0.2-1.1c0.4-0.3,0.9-0.2,1.1,0.2l0,0l0,0l0.2,0.2c0.1,0.2,0.3,0.4,0.6,0.7s0.3,0.3,0.4,0.5l0.5,0.5l0.6,0.5
	l0.7,0.5c0.5,0.4,1.1,0.8,1.7,1.1c0.6,0.3,1.3,0.6,2,0.9c0.8,0.3,1.5,0.5,2.3,0.6l0.6,0.1c0.2,0,0.4,0,0.6,0h0.3h1H31
	c0.2,0,0.4,0,0.6,0c0.4,0,0.8-0.1,1.2-0.2c0.8-0.1,1.5-0.3,2.3-0.6c0.7-0.3,1.4-0.6,2-0.9c0.6-0.3,1.1-0.7,1.7-1.1l0.7-0.5l0.6-0.5
	l0.5-0.5c0.2-0.2,0.3-0.3,0.4-0.4s0.4-0.5,0.6-0.7l0.2-0.3c0.3-0.4,0.9-0.4,1.3-0.1C43.4,32.6,43.4,33.1,43.2,33.5L43.2,33.5z"/>
<path class="st3" d="M15.3,21.6l-0.1-0.2c0-0.1-0.1-0.3-0.1-0.5S15,20.4,15,20.1c0-0.4,0-0.8,0-1.1c0-0.2,0-0.4,0.1-0.7
	c0-0.2,0.1-0.5,0.1-0.7c0.1-0.5,0.3-1,0.6-1.5c0.3-0.5,0.7-1,1.1-1.4c0.5-0.4,1.1-0.7,1.7-0.9h0.3H19h0.5c0.2,0,0.3,0,0.5,0.1
	c0.2,0,0.3,0.1,0.5,0.1c0.6,0.2,1.1,0.4,1.6,0.8c0.4,0.3,0.8,0.7,1.1,1.1c0.1,0.2,0.3,0.4,0.4,0.6c0.1,0.2,0.2,0.4,0.3,0.6
	c0.2,0.3,0.3,0.6,0.4,1c0.1,0.3,0.2,0.6,0.2,0.8s0.1,0.4,0.1,0.5v0.2c0,0.3-0.2,0.6-0.5,0.7c-0.2,0-0.5-0.1-0.6-0.3v-0.1l-0.3-0.6
	c-0.1-0.2-0.2-0.4-0.4-0.6c-0.1-0.1-0.2-0.3-0.2-0.4c-0.1-0.1-0.2-0.3-0.3-0.4c-0.1-0.1-0.2-0.3-0.3-0.4l-0.2-0.2L21.7,17
	c-0.3-0.3-0.6-0.5-0.9-0.7c-0.3-0.2-0.6-0.3-1-0.4c-0.1,0-0.2,0-0.2,0h-0.4H19H19h-0.1h0.1c-0.3,0.1-0.6,0.2-0.8,0.4
	c-0.3,0.2-0.5,0.5-0.7,0.8c-0.2,0.3-0.4,0.7-0.5,1c0,0.1-0.1,0.2-0.1,0.3s0,0.2-0.1,0.3c-0.1,0.2-0.1,0.3-0.1,0.5
	c0,0.2,0,0.3-0.1,0.5c0,0.1,0,0.3-0.1,0.4c0,0.3,0,0.5-0.1,0.7s0,0.4,0,0.5v0.2c0,0.3-0.3,0.6-0.6,0.6
	C15.6,22.1,15.3,21.9,15.3,21.6L15.3,21.6z"/>
<path class="st3" d="M42.7,21.4v-0.2c0-0.1,0-0.3,0-0.5s0-0.4,0-0.7c0-0.1,0-0.3,0-0.5c0-0.2,0-0.3,0-0.5c0-0.2-0.1-0.3-0.1-0.5
	c0-0.2-0.1-0.4-0.2-0.5c-0.1-0.4-0.3-0.7-0.5-1.1c-0.2-0.3-0.4-0.6-0.7-0.9c-0.3-0.2-0.6-0.4-1-0.5l0,0h-0.1h-0.2c0,0-0.1,0-0.1,0
	h-0.1c-0.1,0-0.2,0-0.3,0c-0.1,0-0.2,0-0.3,0.1c-0.4,0.1-0.7,0.3-1,0.5c-0.3,0.2-0.6,0.5-0.9,0.8c-0.1,0.1-0.2,0.3-0.4,0.4
	c-0.1,0.1-0.2,0.3-0.3,0.4c-0.1,0.1-0.2,0.3-0.3,0.4c-0.1,0.1-0.2,0.3-0.2,0.4c-0.1,0.3-0.2,0.5-0.3,0.7l-0.2,0.6
	c-0.1,0.3-0.5,0.5-0.8,0.3c-0.2-0.1-0.4-0.3-0.4-0.6v-0.2c0-0.1,0-0.3,0-0.6c0-0.3,0.1-0.6,0.2-0.9c0.1-0.4,0.2-0.7,0.4-1.1
	c0.2-0.4,0.4-0.8,0.7-1.2c0.3-0.5,0.7-0.9,1.2-1.2c0.5-0.4,1.1-0.7,1.7-0.9c0.2-0.1,0.3-0.1,0.5-0.1h0.3h0.1h0.7h0.2h0.2h0.1
	c0.7,0.2,1.3,0.5,1.9,1c0.5,0.4,0.9,0.9,1.2,1.5c0.3,0.5,0.4,1,0.5,1.6c0.1,0.5,0.1,0.9,0.1,1.4c0,0.4,0,0.8-0.1,1.2
	c0,0.3-0.1,0.6-0.2,0.9c-0.1,0.2-0.1,0.4-0.2,0.5l-0.1,0.2v0c-0.1,0.3-0.5,0.5-0.8,0.4C42.8,22,42.6,21.7,42.7,21.4L42.7,21.4z"/>
<g>
	<path class="st6" d="M51.8,25.8c0.1,3.4-0.4,6.8-1.6,10c-1.3,3.2-3.7,5.7-6.1,8.1c-2.4,2.3-5.2,4.2-8.3,5.4c-3,1.3-6.2,2.7-9.8,2.7
		c-3.4-0.1-6.8-1-9.9-2.4c-3.1-1.4-5.8-3.3-8.1-5.8c-2.4-2.3-4.3-5.1-5.7-8.2c-1.4-3.1-2.2-6.4-2.3-9.8c0-3.4,0.7-6.8,2-10
		c1.4-3.1,3.4-5.8,5.9-8.1c2.3-2.4,5.1-4.4,8.2-5.7C19.3,0.7,22.6,0,26,0c3.4,0.1,6.7,0.8,9.8,2.2C39,3.5,42.1,5,44.5,7.3
		s3.7,5.6,5,8.8C50.9,19.1,51.7,22.4,51.8,25.8z"/>
	<path class="st7" d="M26,0C26,0,26,0,26,0c3.4,0.1,6.8,0.8,9.8,2.2C39,3.5,42.1,5,44.5,7.3c2.4,2.3,3.7,5.6,5,8.8
		c1.4,3,2.2,6.3,2.3,9.7c0.1,3.4-0.4,6.8-1.6,10c-1.3,3.1-3.7,5.7-6.1,8.1c-2.4,2.3-5.2,4.2-8.4,5.4c-3,1.3-6.2,2.7-9.8,2.7
		c-3.4-0.1-6.8-1-9.9-2.4c-3.1-1.4-5.8-3.3-8.1-5.8c-2.4-2.3-4.3-5.1-5.7-8.2c-1.4-3.1-2.2-6.4-2.3-9.8c0-3.4,0.7-6.8,2-10
		c1.4-3.1,3.4-5.8,5.9-8.1c2.3-2.4,5.1-4.4,8.2-5.7C19.3,0.7,22.6,0,26,0 M26-2L26-2c-3.6,0-7.2,0.7-10.6,2.1C12,1.6,9,3.6,6.5,6.2
		c-2.7,2.5-4.8,5.4-6.3,8.7l0,0l0,0C-1.3,18.5-2,22.1-2,25.8l0,0l0,0c0.1,3.7,1,7.2,2.5,10.5c1.4,3.3,3.5,6.3,6.1,8.8
		c2.5,2.6,5.4,4.7,8.7,6.2c3.3,1.5,6.9,2.4,10.6,2.6l0,0h0c3.7,0,7-1.4,9.9-2.6l0.6-0.3c3.3-1.3,6.4-3.3,9-5.8
		c2.5-2.5,5.1-5.3,6.5-8.7l0,0l0,0c1.3-3.5,1.8-7.1,1.7-10.8c-0.1-3.6-0.9-7.1-2.4-10.4l-0.2-0.5c-1.3-3.2-2.7-6.4-5.2-8.9
		c-2.7-2.6-6.2-4.2-9.3-5.5C33.3-1.1,29.7-1.9,26-2L26-2L26-2L26-2z"/>
</g>
<path class="st1" d="M31.6,48.6c-3.2-0.1-6.4-0.9-9.3-2.3c-2.9-1.3-5.5-3.1-7.7-5.5c-2.3-2.2-4.1-4.8-5.3-7.8
	c-1.4-2.9-2.1-6-2.2-9.3c0-3.2,0.6-6.4,1.9-9.4c1.3-2.9,3.2-5.5,5.6-7.7c2.2-2.3,4.9-4.1,7.8-5.4C23.8,0.8,25.4,0.3,27,0h-1
	c-3.4,0-6.7,0.6-9.9,1.9C13,3.3,10.2,5.2,7.9,7.7C5.4,10,3.4,12.8,2,15.8c-1.3,3.2-2,6.6-2,10c0.1,3.4,0.9,6.7,2.3,9.8
	c1.3,3.1,3.2,5.9,5.7,8.2c2.3,2.4,5.1,4.4,8.2,5.8c3.1,1.4,6.4,2.2,9.8,2.4c3.5,0,6.7-1.5,9.7-2.7c2.5-1,4.8-2.3,6.8-4
	c-0.6,0.3-1.2,0.6-1.8,0.8C37.9,47.3,34.9,48.6,31.6,48.6z"/>
<path class="st2" d="M21.9,6.7c0,0,0.2-0.1,0.5-0.4c0.5-0.3,0.9-0.6,1.5-0.8c0.7-0.4,1.5-0.6,2.3-0.9C27,4.4,28,4.3,28.9,4.2h0.7
	h0.7L31,4.3l0.7,0.1c0.4,0.1,0.8,0.2,1.2,0.4c0.3,0.1,0.7,0.3,1,0.5c0.5,0.3,1,0.7,1.4,1.1c0.1,0.1,0.2,0.3,0.3,0.4L35.8,7
	c0,0-0.3,0-0.7,0.1h-0.8c-0.3,0-0.6,0-0.9,0s-0.7,0-1-0.1l-1.1-0.1l-0.6-0.1L30,6.7l-0.6-0.1l-0.3-0.1h-0.3c-1.5-0.2-3.1-0.2-4.6,0
	l-1.6,0.1H22L21.9,6.7z"/>
<path class="st3" d="M26.8,22.3l-0.1-0.2c-0.1-0.1-0.2-0.3-0.4-0.5s-0.4-0.5-0.6-0.8s-0.5-0.7-0.8-1l-0.9-1.2
	c-0.3-0.4-0.7-0.8-1-1.3c-0.4-0.4-0.7-0.8-1.1-1.1c-0.2-0.1-0.3-0.3-0.5-0.3c-0.1-0.1-0.2,0-0.2,0l0,0c-0.1,0-0.1,0.1-0.1,0.1
	c-0.1,0.1-0.3,0.3-0.4,0.5c-0.1,0.2-0.3,0.4-0.4,0.7s-0.3,0.5-0.4,0.7c-0.2,0.5-0.4,1-0.6,1.5l-0.5,1.4c-0.1,0.5-0.3,0.9-0.4,1.2
	s-0.3,0.7-0.4,1s-0.2,0.5-0.2,0.6l-0.1,0.2c0,0.1-0.2,0.2-0.3,0.2c-0.1,0-0.1-0.1-0.2-0.2l0,0c0,0,0-0.1,0-0.2s-0.1-0.4-0.1-0.7
	s-0.1-0.6-0.1-1.1s0-0.9,0-1.4v-0.8c0-0.3,0.1-0.5,0.1-0.8c0.1-0.6,0.2-1.2,0.4-1.8c0.1-0.3,0.2-0.7,0.3-1c0.1-0.3,0.3-0.7,0.5-1
	c0.2-0.4,0.5-0.7,0.8-1.1c0.2-0.2,0.4-0.4,0.7-0.5l0.2-0.1h0.1l0.1-0.1h0.1h0.1h0.1h0.1h0.1c0.6-0.1,1.3,0,1.8,0.3
	c0.4,0.2,0.8,0.5,1.1,0.8c0.3,0.3,0.5,0.5,0.8,0.8c0.2,0.3,0.4,0.5,0.6,0.8c0.3,0.5,0.6,1.1,0.9,1.6c0.2,0.5,0.5,1,0.6,1.5
	c0.2,0.5,0.3,0.9,0.4,1.3s0.2,0.7,0.3,1s0.1,0.5,0.1,0.7s0,0.2,0,0.2l0,0c0,0.1-0.1,0.3-0.2,0.3c-0.1,0-0.2,0-0.2-0.1L26.8,22.3z"/>
<path class="st3" d="M33.1,22.1v-0.2c0-0.1,0.1-0.4,0.2-0.7s0.2-0.6,0.3-1s0.3-0.8,0.5-1.3c0.2-0.5,0.4-1,0.7-1.5
	c0.3-0.6,0.6-1.1,0.9-1.6c0.2-0.3,0.4-0.5,0.6-0.8c0.2-0.3,0.5-0.6,0.8-0.8c0.3-0.3,0.7-0.5,1.1-0.8c0.5-0.3,1.1-0.4,1.7-0.3h0.1
	h0.1l0,0h0.1H40h0.1l0.2,0.1l0.2,0.1c0.2,0.1,0.4,0.3,0.6,0.5c0.3,0.3,0.6,0.6,0.8,1c0.2,0.3,0.4,0.7,0.5,1c0.1,0.3,0.2,0.7,0.3,1
	c0.2,0.6,0.3,1.2,0.4,1.8c0.1,0.5,0.1,1.1,0.2,1.6c0,0.5,0,1,0,1.4s0,0.8,0,1s0,0.5-0.1,0.7v0.2c0,0.1-0.1,0.2-0.3,0.2
	c-0.1,0-0.2-0.1-0.2-0.1l0,0l-0.1-0.2c-0.1-0.1-0.2-0.4-0.3-0.6s-0.3-0.6-0.4-1s-0.3-0.8-0.5-1.2L41.4,20l-0.3-0.7
	c-0.2-0.5-0.4-1-0.6-1.5c-0.1-0.3-0.2-0.5-0.4-0.7s-0.3-0.5-0.4-0.6c-0.1-0.2-0.2-0.3-0.4-0.4l-0.1-0.1l0,0c0.1,0,0.1,0-0.1,0
	c-0.2,0.1-0.3,0.2-0.5,0.3c-0.4,0.3-0.8,0.7-1.1,1.1c-0.4,0.4-0.7,0.8-1.1,1.2s-0.7,0.8-1,1.2s-0.6,0.7-0.8,1s-0.5,0.6-0.7,0.8
	s-0.3,0.4-0.4,0.5l-0.2,0.2l0,0C33.4,22.3,33.2,22.3,33.1,22.1C33.1,22.2,33.1,22.2,33.1,22.1C33.1,22.2,33.1,22.1,33.1,22.1z"/>
<path class="st3" d="M30.5,31.1c-5.6,0.2-11.2-0.7-16.5-2.6c0.3,8.5,7.9,15.2,16.9,14.9s16.1-7.5,15.9-16
	C41.6,29.6,36.1,30.9,30.5,31.1z"/>
<path class="st7" d="M36.1,32c-1.8,0.3-3.7,0.4-5.5,0.5h-0.1c-1.8,0.1-3.7,0-5.5-0.1c-1.7-0.1-3.4-0.4-5.1-0.7
	c-0.8-0.2-1.6-0.4-2.4-0.6l0.1,0.3c0.2,0.5,0.3,1,0.6,1.5c7.9,3.8,17.2,3.5,24.9-0.8c0.2-0.5,0.3-1,0.5-1.5l0.1-0.4
	c-0.8,0.3-1.6,0.5-2.4,0.8C39.5,31.4,37.8,31.8,36.1,32z"/>
</svg>
