<svg id="Layer_1" data-name="Layer 1" xmlns="http://www.w3.org/2000/svg" viewBox="0 0 48.249 54.384"><defs><style>.cls-1{fill:#d51c59;opacity:0.38;}</style></defs><title>%</title><path class="cls-1" d="M10.86,0c7.958,0,11.026,3.648,11.026,12.85,0,9.285-3.233,13.513-11.026,13.513C2.9,26.363,0,22.3,0,12.85,0,3.813,3.067,0,10.86,0Zm.083,20.975c3.4,0,3.979-2.239,3.979-7.876,0-5.555-.912-7.793-4.145-7.793-3.067,0-3.813,2.321-3.813,7.793C6.964,18.9,7.627,20.975,10.943,20.975ZM33.658,0H38.8L14.425,54.384H9.368Zm3.4,28.021c8.041,0,11.192,3.731,11.192,12.85,0,9.367-3.317,13.513-11.192,13.513S26.28,50.321,26.28,40.953C26.28,31.834,29.347,28.021,37.057,28.021Zm.166,21.057c3.481,0,4.062-2.238,4.062-7.876s-.995-7.876-4.228-7.876c-2.985,0-3.814,2.321-3.814,7.793C33.243,46.923,33.989,49.078,37.223,49.078Z"/></svg>