<?xml version="1.0" encoding="utf-8"?>
<!-- Generator: Adobe Illustrator 23.0.3, SVG Export Plug-In . SVG Version: 6.00 Build 0)  -->
<svg version="1.1" id="Layer_1" xmlns="http://www.w3.org/2000/svg" xmlns:xlink="http://www.w3.org/1999/xlink" x="0px" y="0px"
	 viewBox="0 0 56.7 56.7" style="enable-background:new 0 0 56.7 56.7;" xml:space="preserve">
<title>Ingredients Icons</title>
<path d="M35.3,12.6c0-1.7-3-3.1-6.6-3.1S22,10.9,22,12.6c0,0.1,0,0.1,0,0.2c0,0.4,0.1,0.7,0.2,1.1l1.6,3.3l2.1,4.2l1.6,3.3
	c0.6,1.2,1.5,1.2,2.1,0l1.6-3.3c0.6-1.2,1.5-3.1,2.1-4.2l1.6-3.3c0.2-0.3,0.3-0.7,0.2-1.1C35.3,12.7,35.3,12.7,35.3,12.6z"/>
<path d="M35.2,42.8c0,1.7-3,3.1-6.6,3.1s-6.6-1.4-6.6-3.1c0-0.1,0-0.1,0-0.2c0-0.4,0.1-0.7,0.2-1.1l1.6-3.3c0.6-1.2,1.5-3.1,2.1-4.2
	l1.6-3.3c0.6-1.2,1.5-1.2,2.1,0l1.6,3.3c0.6,1.2,1.5,3.1,2.1,4.2l1.6,3.3c0.2,0.3,0.3,0.7,0.2,1.1C35.2,42.7,35.2,42.8,35.2,42.8z"
	/>
<path d="M12.4,30.1c-1.4,0.9-1,4.2,1,7.3s4.8,4.8,6.2,3.9c0,0,0.1-0.1,0.1-0.1c0.3-0.2,0.6-0.5,0.8-0.8l1.9-3.1
	c0.7-1.1,1.7-2.9,2.4-4.1l1.9-3.1c0.7-1.1,0.2-1.9-1.1-1.8l-3.6,0.4l-4.7,0.5l-3.6,0.4c-0.4,0-0.7,0.2-1,0.4
	C12.5,30,12.4,30.1,12.4,30.1z"/>
<path d="M38,14c1.5-0.9,4.2,0.9,6.1,4s2.3,6.4,0.8,7.3c0,0-0.1,0.1-0.1,0.1c-0.3,0.2-0.7,0.3-1,0.4l-3.6,0.3l-4.7,0.4l-3.6,0.3
	c-1.3,0.1-1.8-0.7-1.1-1.8l1.9-3.1c0.7-1.1,1.8-2.9,2.5-4l1.9-3.1c0.2-0.3,0.5-0.6,0.8-0.8C37.9,14,37.9,14,38,14z"/>
<path d="M18.3,14.7c-1.5-0.8-4.1,1.3-5.7,4.5s-1.7,6.6-0.2,7.3c0,0,0.1,0,0.1,0.1c0.3,0.2,0.7,0.3,1.1,0.3l3.7,0l4.7,0l3.6,0
	c1.3,0,1.7-0.8,0.9-1.9l-2.2-2.9c-0.8-1-2.1-2.7-2.8-3.8l-2.2-2.9c-0.2-0.3-0.5-0.5-0.9-0.7C18.4,14.7,18.3,14.7,18.3,14.7z"/>
<path d="M44.7,28.6c1.5,0.7,1.5,4-0.1,7.3s-4.1,5.4-5.7,4.6c0,0-0.1,0-0.1-0.1c-0.3-0.1-0.6-0.4-0.9-0.7l-2.2-2.9
	c-0.8-1-2.1-2.7-2.9-3.7l-2.2-2.9c-0.8-1-0.4-1.9,0.9-1.9l3.6,0l4.7,0l3.6,0c0.4,0,0.7,0.1,1.1,0.3C44.6,28.5,44.7,28.6,44.7,28.6z"
	/>
<path d="M28.5,53.7C14.4,53.7,3,42.3,3,28.2S14.4,2.6,28.5,2.6c14.1,0,25.5,11.4,25.5,25.5C54,42.2,42.6,53.7,28.5,53.7z M49.9,28.2
	c0-11.8-9.6-21.4-21.4-21.4c-11.8,0-21.4,9.6-21.4,21.4c0,11.8,9.6,21.4,21.4,21.4C40.4,49.5,49.9,40,49.9,28.2L49.9,28.2z"/>
</svg>
