<svg id="Layer_1" data-name="Layer 1" xmlns="http://www.w3.org/2000/svg" viewBox="0 0 91.57 91.56"><defs><style>.cls-1{fill:#fff;}.cls-2{fill:#e67a00;}</style></defs><title>free-shipping</title><polygon class="cls-1" points="90.07 45.78 85.58 52.09 87.91 59.47 81.68 64.07 81.61 71.81 74.27 74.27 71.81 81.61 64.07 81.68 59.47 87.91 52.09 85.57 45.78 90.06 39.48 85.57 32.09 87.91 27.49 81.68 19.75 81.61 17.3 74.27 9.96 71.81 9.88 64.07 3.66 59.47 5.99 52.09 1.5 45.78 5.99 39.48 3.66 32.09 9.88 27.49 9.96 19.75 17.3 17.3 19.75 9.96 27.49 9.88 32.09 3.66 39.48 5.99 45.78 1.5 52.09 5.99 59.47 3.66 64.07 9.88 71.81 9.96 74.27 17.3 81.61 19.75 81.68 27.49 87.91 32.09 85.58 39.48 90.07 45.78"/><path class="cls-2" d="M41.5,86.43a1.5,1.5,0,0,1-.87-.28l-5.7-4.06L28.26,84.2a1.5,1.5,0,0,1-1.66-.54L22.45,78l-7-.07a1.5,1.5,0,0,1-1.41-1l-2.22-6.63L5.2,68.1a1.5,1.5,0,0,1-1-1.41l-.07-7-5.62-4.16a1.5,1.5,0,0,1-.54-1.66L.05,47.21-4,41.51a1.5,1.5,0,0,1,0-1.74l4.06-5.7-2.11-6.67a1.5,1.5,0,0,1,.54-1.66l5.62-4.16.07-7a1.5,1.5,0,0,1,1-1.41L11.83,11,14,4.34a1.5,1.5,0,0,1,1.41-1l7-.07,4.16-5.62a1.5,1.5,0,0,1,1.66-.54L34.93-.8l5.7-4.06a1.5,1.5,0,0,1,1.74,0L48.07-.8l6.67-2.11a1.5,1.5,0,0,1,1.66.54l4.16,5.62,7,.07a1.5,1.5,0,0,1,1.41,1L71.17,11l6.63,2.22a1.5,1.5,0,0,1,1,1.41l.07,7,5.62,4.16a1.5,1.5,0,0,1,.54,1.66l-2.11,6.67L87,39.77a1.5,1.5,0,0,1,0,1.74l-4.06,5.7,2.11,6.67a1.5,1.5,0,0,1-.54,1.66L78.89,59.7l-.07,7a1.5,1.5,0,0,1-1,1.41l-6.63,2.22L69,76.95a1.5,1.5,0,0,1-1.41,1l-7,.07-4.16,5.62a1.5,1.5,0,0,1-1.66.54l-6.67-2.11-5.7,4.06A1.5,1.5,0,0,1,41.5,86.43Zm-6.31-7.49a1.5,1.5,0,0,1,.87.28l5.44,3.87,5.44-3.87A1.5,1.5,0,0,1,48.26,79l6.36,2,4-5.36A1.5,1.5,0,0,1,59.78,75L66.45,75l2.12-6.33a1.5,1.5,0,0,1,.95-.95l6.33-2.11.06-6.67a1.5,1.5,0,0,1,.61-1.19l5.36-4-2-6.36a1.5,1.5,0,0,1,.21-1.32l3.87-5.44-3.87-5.44a1.5,1.5,0,0,1-.21-1.32l2-6.36-5.36-4a1.5,1.5,0,0,1-.61-1.19l-.06-6.67-6.33-2.11a1.5,1.5,0,0,1-.95-.95L66.45,6.31l-6.67-.06a1.5,1.5,0,0,1-1.19-.61l-4-5.36-6.36,2a1.5,1.5,0,0,1-1.32-.21L41.5-1.8,36.06,2.07a1.5,1.5,0,0,1-1.32.21l-6.36-2-4,5.36a1.5,1.5,0,0,1-1.19.61l-6.67.06-2.11,6.33a1.5,1.5,0,0,1-.95.95L7.16,15.7,7.1,22.37a1.5,1.5,0,0,1-.61,1.19l-5.36,4,2,6.36a1.5,1.5,0,0,1-.21,1.32L-.94,40.64l3.87,5.44a1.5,1.5,0,0,1,.21,1.32l-2,6.36,5.36,4a1.5,1.5,0,0,1,.61,1.19l.06,6.67,6.33,2.11a1.5,1.5,0,0,1,.95.95L16.55,75l6.67.06a1.5,1.5,0,0,1,1.19.61l4,5.36,6.36-2A1.5,1.5,0,0,1,35.19,78.94Z" transform="translate(4.28 5.14)"/><path d="M73.59,32,68,21.24a1.32,1.32,0,0,0-1.15-.69h-10V16.26a1.29,1.29,0,0,0-1.3-1.3H28.43a1.29,1.29,0,0,0-1.3,1.3v1.07a12,12,0,0,0,0,23.88v.23a1.29,1.29,0,0,0,1.3,1.3H33.1v.38a5.36,5.36,0,0,0,10.72,0v-.38H55.52a.57.57,0,0,0,.38-.08c.08,0,.15.08.31.08h1.3v.38a5.36,5.36,0,0,0,10.72,0v-.38h4.21a1.29,1.29,0,0,0,1.3-1.3v-8.8A1.8,1.8,0,0,0,73.59,32ZM38.45,47.11a4,4,0,0,1,0-8,4,4,0,0,1,0,8Zm17-5.74H43.58a5.47,5.47,0,0,0-5.05-3.6,5.32,5.32,0,0,0-5.05,3.6h-5v-.84a.55.55,0,0,0-.23-.46c-.15-.15-.31-.15-.46-.23h-.08a10.6,10.6,0,0,1,0-21.2h.08a.55.55,0,0,0,.46-.23c.08-.15.23-.31.23-.46V16.34H55.45v25Zm7.42,5.74a4,4,0,0,1,0-8,4,4,0,0,1,4,4A4,4,0,0,1,62.87,47.11Zm5.05-5.74a5.39,5.39,0,0,0-5.05-3.6,5.32,5.32,0,0,0-5.05,3.6H56.9V21.92h9.87l5.05,9.8h-9V25.22a.69.69,0,0,0-.69-.69.63.63,0,0,0-.69.61v7.2a.69.69,0,0,0,.69.69H72.36v8.27l-4.44.08Z" transform="translate(4.28 5.14)"/><path d="M30.65,45.73H18.78a.69.69,0,0,0,0,1.38H30.72a.69.69,0,0,0,.69-.69A.81.81,0,0,0,30.65,45.73Z" transform="translate(4.28 5.14)"/><path d="M14.65,45.73H11.51a.69.69,0,0,0,0,1.38h3.14a.69.69,0,0,0,0-1.38Z" transform="translate(4.28 5.14)"/><path d="M21.31,43.59a.69.69,0,0,0,0-1.38H18.17a.69.69,0,0,0,0,1.38Z" transform="translate(4.28 5.14)"/><path d="M29,23.38l-.84,4h2.45l-.46,2.07H27.66l-1.15,5.51h-2l2.83-13.62h5.05l-.46,2.07Z" transform="translate(4.28 5.14)"/><path d="M30.72,34.94l2.83-13.62h2.91a5.33,5.33,0,0,1,1.22.15,1.53,1.53,0,0,1,.77.61,2.21,2.21,0,0,1,.31,1.07,6.29,6.29,0,0,1-.15,1.61l-.38,1.84A4.17,4.17,0,0,1,37.61,28a4.09,4.09,0,0,1-1,1,1.34,1.34,0,0,1,.31.38,1.09,1.09,0,0,1,.15.46,1.63,1.63,0,0,1,0,.61c0,.23-.08.54-.08.92l-.15,1.84a1.84,1.84,0,0,0,0,.92c.08.23.08.54.15.69H34.93v-.23a.83.83,0,0,0-.08-.38v-1l.31-1.91a3.43,3.43,0,0,0,.08-.84,1.11,1.11,0,0,0-.15-.54,1.06,1.06,0,0,0-.23-.31.46.46,0,0,0-.31-.08h-.69l-1.07,5.28-2.07.08Zm6-10.18a2.64,2.64,0,0,0,.08-.69,1,1,0,0,0-.08-.46l-.23-.23a.57.57,0,0,0-.38-.08h-.84l-.92,4.21h1a.57.57,0,0,0,.38-.08.6.6,0,0,0,.31-.31,2.55,2.55,0,0,0,.23-.46,4.88,4.88,0,0,0,.15-.54Z" transform="translate(4.28 5.14)"/><path d="M38,34.94l2.83-13.62h5.05l-.46,2.07H42.36L41.59,27h2.53L43.81,29H41.29l-.84,3.83h3.06L43,34.94Z" transform="translate(4.28 5.14)"/><path d="M44.35,34.94l2.83-13.62h5.05l-.46,2.07H48.71L47.95,27h2.53L50,29H47.49l-.84,3.83h3.06l-.46,2.07Z" transform="translate(4.28 5.14)"/><path d="M19.3,57.07,18.2,58.17A1.87,1.87,0,0,0,17,57.5a.77.77,0,0,0-.47.13.38.38,0,0,0-.17.32.39.39,0,0,0,.11.26,2,2,0,0,0,.53.33l.65.33a3.86,3.86,0,0,1,1.42,1,2.16,2.16,0,0,1-.31,2.83,2.67,2.67,0,0,1-1.87.63,3,3,0,0,1-2.49-1.22l1.1-1.2a2.54,2.54,0,0,0,.74.59,1.63,1.63,0,0,0,.75.23.89.89,0,0,0,.57-.17.49.49,0,0,0,.22-.39q0-.41-.78-.8l-.6-.3q-1.73-.87-1.73-2.18a1.89,1.89,0,0,1,.65-1.44,2.36,2.36,0,0,1,1.66-.6,2.89,2.89,0,0,1,2.34,1.18Z" transform="translate(4.28 5.14)"/><path d="M20.85,53.33h1.77v3.47a4.07,4.07,0,0,1,1.05-.68,2.71,2.71,0,0,1,1.07-.23,2.42,2.42,0,0,1,1.79.73,2.56,2.56,0,0,1,.62,1.86v4.7H25.39V60.07a7.68,7.68,0,0,0-.12-1.67,1.17,1.17,0,0,0-.4-.65,1.13,1.13,0,0,0-.7-.22,1.33,1.33,0,0,0-.93.36,1.91,1.91,0,0,0-.54,1,8.12,8.12,0,0,0-.08,1.46v2.86H20.85Z" transform="translate(4.28 5.14)"/><path d="M29.57,53.14a1.09,1.09,0,0,1,.81.34,1.13,1.13,0,0,1,.34.82,1.12,1.12,0,0,1-.33.81,1.08,1.08,0,0,1-.8.34,1.09,1.09,0,0,1-.81-.34,1.15,1.15,0,0,1-.34-.83,1.14,1.14,0,0,1,1.13-1.14Zm-.89,2.93h1.79v7.12H28.68Z" transform="translate(4.28 5.14)"/><path d="M33.86,56.07v.79a3.35,3.35,0,0,1,1-.73,3,3,0,0,1,1.2-.24,3.11,3.11,0,0,1,2.37,1.05,3.82,3.82,0,0,1,1,2.7,3.73,3.73,0,0,1-1,2.66,3.17,3.17,0,0,1-2.39,1.07,3,3,0,0,1-1.14-.22,3.48,3.48,0,0,1-1.05-.72v3.35H32.09V56.07Zm1.88,1.46a1.86,1.86,0,0,0-1.4.58,2.07,2.07,0,0,0-.56,1.5,2.13,2.13,0,0,0,.56,1.53,1.85,1.85,0,0,0,1.4.58,1.82,1.82,0,0,0,1.38-.59,2.13,2.13,0,0,0,.56-1.52,2.1,2.1,0,0,0-.55-1.5A1.82,1.82,0,0,0,35.74,57.54Z" transform="translate(4.28 5.14)"/><path d="M42.7,56.07v.79a3.35,3.35,0,0,1,1-.73,3,3,0,0,1,1.2-.24,3.11,3.11,0,0,1,2.37,1.05,3.82,3.82,0,0,1,1,2.7,3.73,3.73,0,0,1-1,2.66,3.17,3.17,0,0,1-2.39,1.07,3,3,0,0,1-1.14-.22,3.48,3.48,0,0,1-1.05-.72v3.35H40.93V56.07Zm1.88,1.46a1.86,1.86,0,0,0-1.4.58,2.07,2.07,0,0,0-.56,1.5,2.13,2.13,0,0,0,.56,1.53,1.85,1.85,0,0,0,1.4.58A1.82,1.82,0,0,0,46,61.14a2.13,2.13,0,0,0,.56-1.52,2.1,2.1,0,0,0-.55-1.5A1.82,1.82,0,0,0,44.58,57.54Z" transform="translate(4.28 5.14)"/><path d="M50.47,53.14a1.09,1.09,0,0,1,.81.34,1.13,1.13,0,0,1,.34.82,1.12,1.12,0,0,1-.33.81,1.08,1.08,0,0,1-.8.34,1.09,1.09,0,0,1-.81-.34,1.15,1.15,0,0,1-.34-.83,1.14,1.14,0,0,1,1.13-1.14Zm-.89,2.93h1.79v7.12H49.57Z" transform="translate(4.28 5.14)"/><path d="M53,56.07h1.79v.73a4.29,4.29,0,0,1,1.1-.71,2.65,2.65,0,0,1,1-.2,2.44,2.44,0,0,1,1.8.74,2.54,2.54,0,0,1,.62,1.86v4.7H57.52V60.07a7.88,7.88,0,0,0-.11-1.69,1.16,1.16,0,0,0-.4-.64,1.12,1.12,0,0,0-.7-.22,1.32,1.32,0,0,0-.93.36,1.94,1.94,0,0,0-.54,1,8.06,8.06,0,0,0-.08,1.44v2.85H53Z" transform="translate(4.28 5.14)"/><path d="M66.27,56.07h1.78v6.09a4,4,0,0,1-.73,2.66A3.63,3.63,0,0,1,64.39,66a5.16,5.16,0,0,1-1.76-.26,3.17,3.17,0,0,1-1.2-.77,3.14,3.14,0,0,1-.73-1.23h2a1.63,1.63,0,0,0,.67.45,2.79,2.79,0,0,0,1,.15,2.57,2.57,0,0,0,1.16-.22,1.34,1.34,0,0,0,.62-.58,2.93,2.93,0,0,0,.18-1.22,3,3,0,0,1-1,.68,3.13,3.13,0,0,1-1.17.21,3.22,3.22,0,0,1-2.42-1,4,4,0,0,1,.06-5.34A3.12,3.12,0,0,1,64,55.89a3,3,0,0,1,1.16.23,3.67,3.67,0,0,1,1.1.74Zm-1.85,1.48a1.86,1.86,0,0,0-1.39.57,2,2,0,0,0-.55,1.42A2,2,0,0,0,63,61a1.9,1.9,0,0,0,1.41.57A1.83,1.83,0,0,0,65.83,61a2,2,0,0,0,.54-1.46,2,2,0,0,0-.54-1.45A1.87,1.87,0,0,0,64.42,57.56Z" transform="translate(4.28 5.14)"/></svg>