<svg xmlns="http://www.w3.org/2000/svg" xmlns:xlink="http://www.w3.org/1999/xlink" viewBox="0 0 182.93 197.84"><defs><style>.cls-1{isolation:isolate;}.cls-2,.cls-28,.cls-3{mix-blend-mode:multiply;}.cls-3{opacity:0.32;}.cls-29,.cls-4{fill:#fff;}.cls-4{opacity:0;}.cls-5{fill:#f4f3f5;opacity:0.05;}.cls-6{fill:#eae7ea;opacity:0.1;}.cls-7{fill:#dfdbe0;opacity:0.14;}.cls-8{fill:#d4ced6;opacity:0.19;}.cls-9{fill:#c9c2cb;opacity:0.24;}.cls-10{fill:#bfb6c1;opacity:0.29;}.cls-11{fill:#b4aab7;opacity:0.33;}.cls-12{fill:#a99eac;opacity:0.38;}.cls-13{fill:#9f92a2;opacity:0.43;}.cls-14{fill:#948698;opacity:0.48;}.cls-15{fill:#89798d;opacity:0.52;}.cls-16{fill:#7e6d83;opacity:0.57;}.cls-17{fill:#746179;opacity:0.62;}.cls-18{fill:#69556e;opacity:0.67;}.cls-19{fill:#5e4964;opacity:0.71;}.cls-20{fill:#543d5a;opacity:0.76;}.cls-21{fill:#49314f;opacity:0.81;}.cls-22{fill:#3e2445;opacity:0.86;}.cls-23{fill:#33183b;opacity:0.9;}.cls-24{fill:#290c30;opacity:0.95;}.cls-25{fill:#1e0026;}.cls-26{fill:#33691e;}.cls-27{fill:url(#linear-gradient);}.cls-28{opacity:0.49;fill:url(#linear-gradient-2);}</style><linearGradient id="linear-gradient" x1="22.79" y1="22.79" x2="166.1" y2="166.1" gradientUnits="userSpaceOnUse"><stop offset="0" stop-color="#ff4059"/><stop offset="0.24" stop-color="#f93759"/><stop offset="0.63" stop-color="#e91d58"/><stop offset="1" stop-color="#d60057"/></linearGradient><linearGradient id="linear-gradient-2" x1="33.93" y1="26.22" x2="173.12" y2="165.41" gradientUnits="userSpaceOnUse"><stop offset="0" stop-color="#80a"/><stop offset="1" stop-color="#005d9f"/></linearGradient></defs><title>badge-LP-detox-SVG</title><g class="cls-1"><g id="Layer_1" data-name="Layer 1"><g class="cls-2"><g class="cls-3"><ellipse class="cls-4" cx="91.47" cy="195.87" rx="69.65" ry="1.97"/><ellipse class="cls-5" cx="91.47" cy="195.87" rx="66.79" ry="1.89"/><ellipse class="cls-6" cx="91.47" cy="195.87" rx="63.92" ry="1.81"/><ellipse class="cls-7" cx="91.47" cy="195.87" rx="61.06" ry="1.74"/><ellipse class="cls-8" cx="91.47" cy="195.87" rx="58.19" ry="1.66"/><ellipse class="cls-9" cx="91.47" cy="195.87" rx="55.32" ry="1.58"/><ellipse class="cls-10" cx="91.47" cy="195.87" rx="52.46" ry="1.5"/><ellipse class="cls-11" cx="91.47" cy="195.87" rx="49.59" ry="1.43"/><ellipse class="cls-12" cx="91.47" cy="195.87" rx="46.73" ry="1.35"/><ellipse class="cls-13" cx="91.47" cy="195.87" rx="43.86" ry="1.27"/><ellipse class="cls-14" cx="91.47" cy="195.87" rx="41" ry="1.19"/><ellipse class="cls-15" cx="91.47" cy="195.87" rx="38.13" ry="1.12"/><ellipse class="cls-16" cx="91.47" cy="195.87" rx="35.26" ry="1.04"/><ellipse class="cls-17" cx="91.47" cy="195.87" rx="32.4" ry="0.96"/><ellipse class="cls-18" cx="91.47" cy="195.87" rx="29.53" ry="0.88"/><ellipse class="cls-19" cx="91.47" cy="195.87" rx="26.67" ry="0.81"/><ellipse class="cls-20" cx="91.47" cy="195.87" rx="23.8" ry="0.73"/><ellipse class="cls-21" cx="91.47" cy="195.87" rx="20.93" ry="0.65"/><ellipse class="cls-22" cx="91.47" cy="195.87" rx="18.07" ry="0.57"/><ellipse class="cls-23" cx="91.47" cy="195.87" rx="15.2" ry="0.5"/><ellipse class="cls-24" cx="91.47" cy="195.87" rx="12.34" ry="0.42"/><ellipse class="cls-25" cx="91.47" cy="195.87" rx="9.47" ry="0.34"/></g></g><polygon class="cls-26" points="56.46 6.96 91.46 7.04 126.47 6.96 151.16 31.76 175.97 56.46 175.89 91.46 175.97 126.47 151.16 151.16 126.47 175.97 91.46 175.89 56.46 175.97 31.76 151.16 6.96 126.47 7.04 91.46 6.96 56.46 31.76 31.76 56.46 6.96"/><polygon class="cls-27" points="91.46 0 123.77 13.46 156.14 26.79 169.47 59.16 182.93 91.46 169.47 123.77 156.14 156.14 123.77 169.47 91.46 182.93 59.16 169.47 26.79 156.14 13.46 123.77 0 91.46 13.46 59.16 26.79 26.79 59.16 13.46 91.46 0"/><path class="cls-28" d="M101.54,16.65a77.18,77.18,0,1,0,77.18,77.18A77.18,77.18,0,0,0,101.54,16.65Zm0,135.69A58.51,58.51,0,1,1,160,93.83,58.51,58.51,0,0,1,101.54,152.34Z" transform="translate(-10.07 -2.36)"/><path class="cls-29" d="M107.26,50.28h-3.67a.5.5,0,0,1-.48-.35L102,46.45a.5.5,0,0,0-1,0l-1.13,3.49a.5.5,0,0,1-.48.35H95.74a.5.5,0,0,0-.29.9l3,2.16a.5.5,0,0,1,.18.56L97.46,57.4a.5.5,0,0,0,.77.56l3-2.16a.5.5,0,0,1,.59,0l3,2.16a.5.5,0,0,0,.77-.56l-1.13-3.49a.5.5,0,0,1,.18-.56l3-2.16A.5.5,0,0,0,107.26,50.28Z" transform="translate(-10.07 -2.36)"/><path class="cls-29" d="M121.42,53.64H119a.33.33,0,0,1-.31-.23l-.75-2.3a.33.33,0,0,0-.63,0l-.75,2.3a.33.33,0,0,1-.31.23h-2.42a.33.33,0,0,0-.19.6l2,1.42a.33.33,0,0,1,.12.37l-.75,2.3a.33.33,0,0,0,.51.37l2-1.42a.33.33,0,0,1,.39,0l2,1.42a.33.33,0,0,0,.51-.37l-.75-2.3a.33.33,0,0,1,.12-.37l2-1.42A.33.33,0,0,0,121.42,53.64Z" transform="translate(-10.07 -2.36)"/><path class="cls-29" d="M89.16,53.64H86.74a.33.33,0,0,1-.31-.23l-.75-2.3a.33.33,0,0,0-.63,0l-.75,2.3a.33.33,0,0,1-.31.23H81.58a.33.33,0,0,0-.19.6l2,1.42a.33.33,0,0,1,.12.37l-.75,2.3a.33.33,0,0,0,.51.37l2-1.42a.33.33,0,0,1,.39,0l2,1.42a.33.33,0,0,0,.51-.37L87.28,56a.33.33,0,0,1,.12-.37l2-1.42A.33.33,0,0,0,89.16,53.64Z" transform="translate(-10.07 -2.36)"/><path class="cls-29" d="M76.06,58.55H74.49a.21.21,0,0,1-.2-.15l-.49-1.49a.21.21,0,0,0-.41,0l-.49,1.49a.21.21,0,0,1-.2.15H71.13a.21.21,0,0,0-.13.39l1.27.92a.21.21,0,0,1,.08.24l-.49,1.49a.21.21,0,0,0,.33.24l1.27-.92a.21.21,0,0,1,.25,0l1.27.92a.21.21,0,0,0,.33-.24l-.49-1.49a.21.21,0,0,1,.08-.24l1.27-.92A.21.21,0,0,0,76.06,58.55Z" transform="translate(-10.07 -2.36)"/><path class="cls-29" d="M131.87,58.55H130.3a.21.21,0,0,1-.2-.15l-.49-1.49a.21.21,0,0,0-.41,0l-.49,1.49a.21.21,0,0,1-.2.15h-1.57a.21.21,0,0,0-.13.39l1.27.92a.21.21,0,0,1,.08.24l-.49,1.49a.21.21,0,0,0,.33.24l1.27-.92a.21.21,0,0,1,.25,0l1.27.92a.21.21,0,0,0,.33-.24l-.49-1.49a.21.21,0,0,1,.08-.24l1.27-.92A.21.21,0,0,0,131.87,58.55Z" transform="translate(-10.07 -2.36)"/><path class="cls-29" d="M50.82,40.74l1.42-1.38,8,8.31-1.64,1.58-6.36-6.58-1.14,2-1.76-1Z" transform="translate(-10.07 -2.36)"/><path class="cls-29" d="M65.08,44.07a4,4,0,0,1-3.71.71A7.11,7.11,0,0,1,57.78,42a7.11,7.11,0,0,1-1.62-4.24,4.34,4.34,0,0,1,5.45-4.06,7.14,7.14,0,0,1,3.59,2.77,7.15,7.15,0,0,1,1.63,4.24A4,4,0,0,1,65.08,44.07Zm-3.31-1.52a2.07,2.07,0,0,0,2.81-2.1,5.37,5.37,0,0,0-1.19-2.61,5.42,5.42,0,0,0-2.17-1.91A2.07,2.07,0,0,0,58.4,38a5.47,5.47,0,0,0,1.21,2.62A5.43,5.43,0,0,0,61.77,42.55Z" transform="translate(-10.07 -2.36)"/><path class="cls-29" d="M73.49,38.81a4,4,0,0,1-3.77.1,7.11,7.11,0,0,1-3.1-3.31,7.12,7.12,0,0,1-.92-4.44,4.34,4.34,0,0,1,6-3.13,7.15,7.15,0,0,1,3.1,3.31,7.14,7.14,0,0,1,.93,4.44A4,4,0,0,1,73.49,38.81Zm-3-2a2.07,2.07,0,0,0,3.11-1.62,5.37,5.37,0,0,0-.76-2.77A5.43,5.43,0,0,0,71,30.16a2.07,2.07,0,0,0-3.12,1.62,5.48,5.48,0,0,0,.77,2.78A5.42,5.42,0,0,0,70.46,36.78Z" transform="translate(-10.07 -2.36)"/><path class="cls-29" d="M80.34,28a2.89,2.89,0,0,1-3.79,1.2,2.73,2.73,0,0,1-1.18-3.68,2.9,2.9,0,0,1,3.78-1.22A2.77,2.77,0,0,1,80.34,28Zm-3-.3a1,1,0,0,0,.79.07,1,1,0,0,0,.62-.52,1,1,0,0,0,.05-.81,1,1,0,0,0-1.31-.67,1,1,0,0,0-.61.51,1,1,0,0,0,0,.8A1.05,1.05,0,0,0,77.37,27.65Zm1.17,6.52L83.17,23.9l1.13.23L79.66,34.42Zm9.1-1.69a2.88,2.88,0,0,1-3.78,1.2A2.75,2.75,0,0,1,82.69,30a2.88,2.88,0,0,1,3.78-1.21,2.75,2.75,0,0,1,1.18,3.68Zm-2.95-.3a1,1,0,0,0,1.4-.45,1.11,1.11,0,0,0-.45-1.43,1,1,0,0,0-1.4.45,1.12,1.12,0,0,0,.46,1.43Z" transform="translate(-10.07 -2.36)"/><path class="cls-29" d="M99.75,20l2.27-.14.73,11.54L101,31.5l-5.39-6.74.45,7.06L93.79,32l-.73-11.54,1.73-.11L100.19,27Z" transform="translate(-10.07 -2.36)"/><path class="cls-29" d="M112,32.26l-.51-2.15-4.72-.51-.91,2-2.45-.27,5.27-11.06,2.81.31,2.8,11.93Zm-4.26-4.7,3.24.35L109.82,23Z" transform="translate(-10.07 -2.36)"/><path class="cls-29" d="M124.43,23.31l-.54,2.11-3-.77-2.31,9.09-2.21-.56,2.31-9.09-3-.76.54-2.11Z" transform="translate(-10.07 -2.36)"/><path class="cls-29" d="M126.3,36.69a4.62,4.62,0,0,1-2.5-2.24,3.7,3.7,0,0,1,0-3.17l3-7.17,2.09.88-3,7a2,2,0,0,0-.08,1.53,2.77,2.77,0,0,0,3,1.27,2,2,0,0,0,1-1.12l3-7,2.1.89-3,7.17a3.7,3.7,0,0,1-2.28,2.21A4.66,4.66,0,0,1,126.3,36.69Z" transform="translate(-10.07 -2.36)"/><path class="cls-29" d="M137.25,42.33l.15-4.64-1.46-.92-2.13,3.4L131.88,39l6.13-9.8,3.92,2.45a3.84,3.84,0,0,1,1.23,5.29,3.52,3.52,0,0,1-1.57,1.36,3.82,3.82,0,0,1-2.1.31l-.15,5.05Zm1.56-10.15L137,35.08l2,1.24a1.45,1.45,0,0,0,1.21.16,1.73,1.73,0,0,0,1-.78,1.69,1.69,0,0,0,.25-1.27,1.46,1.46,0,0,0-.67-1Z" transform="translate(-10.07 -2.36)"/><path class="cls-29" d="M145.75,49.22l.82-2L143,44l-1.9,1.1-1.85-1.63,10.68-6,2.12,1.87-4.58,11.38ZM145,42.93l2.44,2.15,1.87-4.65Z" transform="translate(-10.07 -2.36)"/><path class="cls-29" d="M151,51.73l2.85,3.37-1.66,1.41-4.32-5.11,8.83-7.47,1.47,1.74Z" transform="translate(-10.07 -2.36)"/><path class="cls-29" d="M47.36,123.61l.9,1.66-9.69,5.26-1-1.91,7.67-4.17-1.51-1.55,1.38-1.36Z" transform="translate(-10.07 -2.36)"/><path class="cls-29" d="M42.14,136.44a3.82,3.82,0,0,1-.6-3.55,6.78,6.78,0,0,1,2.72-3.37,6.79,6.79,0,0,1,4.08-1.46,4.14,4.14,0,0,1,3.76,5.29,6.82,6.82,0,0,1-2.72,3.36,6.82,6.82,0,0,1-4.07,1.46A3.82,3.82,0,0,1,42.14,136.44Zm1.52-3.13A2,2,0,0,0,45.6,136,5.14,5.14,0,0,0,48.12,135a5.17,5.17,0,0,0,1.86-2,1.85,1.85,0,0,0-.21-1.91A1.83,1.83,0,0,0,48,130.2a5.22,5.22,0,0,0-2.52,1.1A5.17,5.17,0,0,0,43.66,133.32Z" transform="translate(-10.07 -2.36)"/><path class="cls-29" d="M49.12,144.86A3.82,3.82,0,0,1,48,141.44a8,8,0,0,1,6-5.79,4.14,4.14,0,0,1,4.5,4.67,8,8,0,0,1-6,5.79A3.82,3.82,0,0,1,49.12,144.86Zm1-3.32a2,2,0,0,0,2.33,2.4,6.55,6.55,0,0,0,3.87-3.73A2,2,0,0,0,54,137.8a6.67,6.67,0,0,0-3.87,3.74Z" transform="translate(-10.07 -2.36)"/><path class="cls-29" d="M55.73,148.62l10.53-2.11.45,1-10.56,2.12Zm5.82-2.06a2.76,2.76,0,0,1-3-2.27,2.61,2.61,0,0,1,2.2-3,2.76,2.76,0,0,1,3,2.26,2.64,2.64,0,0,1-2.21,3Zm.55,8.18a2.74,2.74,0,0,1-3-2.26,2.62,2.62,0,0,1,2.2-3,2.74,2.74,0,0,1,3,2.26,2.63,2.63,0,0,1-2.2,3Zm-2-10.65a.92.92,0,0,0,.39.65,1,1,0,0,0,.74.19,1,1,0,0,0,.66-.4,1,1,0,0,0-.2-1.39.94.94,0,0,0-.73-.19,1,1,0,0,0-.64.4A1,1,0,0,0,60.13,144.09Zm.56,8.2a1,1,0,0,0,1.13.83,1.06,1.06,0,0,0,.85-1.14,1,1,0,0,0-1.12-.84,1.07,1.07,0,0,0-.86,1.15Z" transform="translate(-10.07 -2.36)"/><path class="cls-29" d="M72,160.82A4.93,4.93,0,0,1,69.76,159a3.93,3.93,0,0,1-.63-2.46l2.14-.24a2.48,2.48,0,0,0,1.63,2.57,2.18,2.18,0,0,0,1.36.24,1,1,0,0,0,.62-1.63,8,8,0,0,0-1.41-1.4,11.5,11.5,0,0,1-1-.91,5.4,5.4,0,0,1-.69-1,2.4,2.4,0,0,1-.33-1.17,3.05,3.05,0,0,1,.29-1.32A3,3,0,0,1,73.72,150a3.86,3.86,0,0,1,2.7.23,4.26,4.26,0,0,1,1.89,1.55A4.4,4.4,0,0,1,79,154.1l-2.1.22a2.2,2.2,0,0,0-1.35-2.15,1.66,1.66,0,0,0-1.1-.15,1,1,0,0,0-.68.57,1,1,0,0,0,.05.95,6,6,0,0,0,1.23,1.32l.6.53c.14.12.31.3.54.53a4.32,4.32,0,0,1,.5.59,5.19,5.19,0,0,1,.34.62,2.18,2.18,0,0,1,.22.7,3.15,3.15,0,0,1-.27,1.59,3,3,0,0,1-2,1.77A4.46,4.46,0,0,1,72,160.82Z" transform="translate(-10.07 -2.36)"/><path class="cls-29" d="M84.81,165l-.14-2.1-4.37-1.21-1.17,1.74-2.26-.63,6.67-9.59,2.6.72.8,11.67Zm-3.28-5.08,3,.83-.33-4.77Z" transform="translate(-10.07 -2.36)"/><path class="cls-29" d="M96.84,155.79l-.3,2.06-2.95-.42-1.28,8.86L90.16,166l1.28-8.86-2.93-.42.3-2.06Z" transform="translate(-10.07 -2.36)"/><path class="cls-29" d="M97.63,155.72l2.17.1-.51,11-2.17-.1Z" transform="translate(-10.07 -2.36)"/><path class="cls-29" d="M105.6,167a4.92,4.92,0,0,1-2.79-.58,3.92,3.92,0,0,1-1.68-1.91l1.8-1.18a2.48,2.48,0,0,0,2.62,1.55,2.18,2.18,0,0,0,1.32-.4,1,1,0,0,0-.19-1.73,8,8,0,0,0-1.89-.6,11.37,11.37,0,0,1-1.27-.37,5.33,5.33,0,0,1-1.05-.54,2.4,2.4,0,0,1-.83-.9,3.05,3.05,0,0,1-.34-1.31,3,3,0,0,1,.93-2.44,3.86,3.86,0,0,1,2.51-1,4.27,4.27,0,0,1,2.39.53,4.39,4.39,0,0,1,1.68,1.73L107,158.95a2.21,2.21,0,0,0-2.18-1.3,1.67,1.67,0,0,0-1,.36,1,1,0,0,0-.34.82,1,1,0,0,0,.48.82,6,6,0,0,0,1.7.61l.78.2.72.23a4.33,4.33,0,0,1,.71.3,5.61,5.61,0,0,1,.58.39,2.19,2.19,0,0,1,.51.53,3.15,3.15,0,0,1,.48,1.54,3,3,0,0,1-1,2.48A4.45,4.45,0,0,1,105.6,167Z" transform="translate(-10.07 -2.36)"/><path class="cls-29" d="M116.63,156.2l-4.34.81.48,2.57,4.21-.79.38,2-4.21.79.78,4.18-2.14.4-2-10.84,6.47-1.21Z" transform="translate(-10.07 -2.36)"/><path class="cls-29" d="M127.08,162.28l-1.29-1.67-4.3,1.42v2.09l-2.23.73.22-11.68,2.56-.84,7.15,9.26Zm-5.55-2.4,2.95-1-2.92-3.78Z" transform="translate(-10.07 -2.36)"/><path class="cls-29" d="M135.53,158.67a5.52,5.52,0,0,1-4.41.42,6,6,0,0,1-3.76-7.25,5.53,5.53,0,0,1,2.89-3.35,5.62,5.62,0,0,1,2.78-.65,5.13,5.13,0,0,1,2.63.78l-1.17,1.83a2.9,2.9,0,0,0-1.57-.49,3.77,3.77,0,0,0-3.54,2.5,3.95,3.95,0,0,0,2.4,4.63,3.79,3.79,0,0,0,4.09-1.45,2.83,2.83,0,0,0,.5-1.55l2.17.1a5.15,5.15,0,0,1-.87,2.59A5.62,5.62,0,0,1,135.53,158.67Z" transform="translate(-10.07 -2.36)"/><path class="cls-29" d="M141,141.76l1.22,1.69-2.42,1.74,5.24,7.26-1.76,1.27L138,146.46l-2.4,1.73-1.22-1.69Z" transform="translate(-10.07 -2.36)"/><path class="cls-29" d="M141.49,141.15l1.63-1.44L150.4,148l-1.63,1.44Z" transform="translate(-10.07 -2.36)"/><path class="cls-29" d="M157.7,138.22a5.8,5.8,0,1,1-1.95-3.95A5.54,5.54,0,0,1,157.7,138.22Zm-5.48,4a3.68,3.68,0,0,0,3.36-3.8,3.81,3.81,0,0,0-3.89-3.43,3.65,3.65,0,0,0-3.36,3.8,3.8,3.8,0,0,0,3.89,3.43Z" transform="translate(-10.07 -2.36)"/><path class="cls-29" d="M155.29,124.47l1.13-1.86,9.42,5.73-.86,1.41-8.22.53,5.76,3.51-1.13,1.86L152,129.92l.86-1.41L161,128Z" transform="translate(-10.07 -2.36)"/><circle class="cls-29" cx="23.66" cy="83.8" r="3.28"/><circle class="cls-29" cx="158.77" cy="85.77" r="3.28"/><path class="cls-29" d="M54.21,92.68v-3.2l7.43-7.65q2.49-2.61,2.49-4.35a2.75,2.75,0,0,0-.79-2.05,2.79,2.79,0,0,0-2-.78,3.85,3.85,0,0,0-3.64,2.55l-3.61-2.11a7.6,7.6,0,0,1,3-3.42,7.94,7.94,0,0,1,4.23-1.18,7.44,7.44,0,0,1,5.07,1.85,6.3,6.3,0,0,1,2.11,5q0,3.38-3.57,7l-4.27,4.27h8.18v4.14Z" transform="translate(-10.07 -2.36)"/><path class="cls-29" d="M75.48,70.91h3.73V92.68H74.92V75.45L70.81,76.6l-1.06-3.67Z" transform="translate(-10.07 -2.36)"/><path class="cls-29" d="M99.89,70.91a9.92,9.92,0,0,1,7.48,3.14,11.49,11.49,0,0,1,0,15.49,9.92,9.92,0,0,1-7.48,3.14H91.25V70.91Zm0,17.67a6,6,0,0,0,4.6-1.88,7.65,7.65,0,0,0,0-9.8A6,6,0,0,0,99.89,75H95.54V88.58Z" transform="translate(-10.07 -2.36)"/><path class="cls-29" d="M127,92.68l-1.38-3.92h-8.94l-1.31,3.92h-4.63l7.62-21.77h5.32l7.68,21.77ZM118,84.75h6.13L121,75.86Z" transform="translate(-10.07 -2.36)"/><path class="cls-29" d="M147.82,70.91l-7.46,13.28v8.49h-4.26V84.19l-7.43-13.28h4.85L138.23,80,143,70.91Z" transform="translate(-10.07 -2.36)"/><path class="cls-29" d="M63.12,98.45a9.92,9.92,0,0,1,7.48,3.14,11.49,11.49,0,0,1,0,15.49,9.92,9.92,0,0,1-7.48,3.14H54.47V98.45Zm0,17.66a6,6,0,0,0,4.6-1.88,7.65,7.65,0,0,0,0-9.8,6,6,0,0,0-4.6-1.88H58.77v13.56Z" transform="translate(-10.07 -2.36)"/><path class="cls-29" d="M80.94,116.12h9.17v4.11H76.65V98.45H90v4.1h-9v4.63h8.24v4H80.94Z" transform="translate(-10.07 -2.36)"/><path class="cls-29" d="M107.53,98.45v4.1h-5.88v17.67H97.36V102.56H91.51v-4.1Z" transform="translate(-10.07 -2.36)"/><path class="cls-29" d="M127,117.38a11.45,11.45,0,1,1,3.3-8A10.95,10.95,0,0,1,127,117.38Zm-13-2.92a7.25,7.25,0,0,0,10,0,7.5,7.5,0,0,0,0-10.25,7.21,7.21,0,0,0-10,0,7.5,7.5,0,0,0,0,10.25Z" transform="translate(-10.07 -2.36)"/><path class="cls-29" d="M148.71,120.22h-4.88l-4.23-7.1-4.23,7.1h-4.85L137.17,109l-6.31-10.6h4.85L139.6,105l3.88-6.52h4.85L142,109Z" transform="translate(-10.07 -2.36)"/><path class="cls-29" d="M76.8,126.57a3.35,3.35,0,0,1,2.54,1.13,4.14,4.14,0,0,1,0,5.52,3.35,3.35,0,0,1-2.54,1.13,2.85,2.85,0,0,1-2.38-1.07v3.81h-1.9v-10.3h1.9v.87A2.85,2.85,0,0,1,76.8,126.57ZM75,131.95a2,2,0,0,0,1.46.58,2,2,0,0,0,1.46-.58,2.21,2.21,0,0,0,0-3,2,2,0,0,0-1.46-.58A2,2,0,0,0,75,129a2.23,2.23,0,0,0,0,3Z" transform="translate(-10.07 -2.36)"/><path class="cls-29" d="M83.63,128A2,2,0,0,1,84.5,127a2.67,2.67,0,0,1,1.36-.35v2.12a2.24,2.24,0,0,0-1.55.35,1.69,1.69,0,0,0-.68,1.52v3.52h-1.9v-7.36h1.9Z" transform="translate(-10.07 -2.36)"/><path class="cls-29" d="M93,133.21a3.92,3.92,0,1,1,1.13-2.76A3.77,3.77,0,0,1,93,133.21Zm-4.19-1.3a1.91,1.91,0,0,0,1.42.57,1.94,1.94,0,0,0,1.43-.57,2.14,2.14,0,0,0,0-2.91,1.94,1.94,0,0,0-1.43-.57,1.91,1.91,0,0,0-1.42.57,2.16,2.16,0,0,0,0,2.91Z" transform="translate(-10.07 -2.36)"/><path class="cls-29" d="M101.06,126.77h1.85v7a3.13,3.13,0,0,1-1.13,2.6,4.22,4.22,0,0,1-2.71.9,4.59,4.59,0,0,1-2.1-.46,3.19,3.19,0,0,1-1.39-1.34l1.62-.93a2.33,2.33,0,0,0,3.34.56,1.72,1.72,0,0,0,.51-1.34V133a2.77,2.77,0,0,1-2.35,1.12A3.47,3.47,0,0,1,96.1,133a3.9,3.9,0,0,1,0-5.33,3.47,3.47,0,0,1,2.6-1.1,2.77,2.77,0,0,1,2.35,1.12Zm-3.54,5a2.21,2.21,0,0,0,3,0,1.94,1.94,0,0,0,.58-1.45,1.92,1.92,0,0,0-.58-1.43,2.21,2.21,0,0,0-3,0,1.92,1.92,0,0,0-.58,1.43A1.94,1.94,0,0,0,97.52,131.78Z" transform="translate(-10.07 -2.36)"/><path class="cls-29" d="M106.54,128a2,2,0,0,1,.88-1.06,2.67,2.67,0,0,1,1.36-.35v2.12a2.24,2.24,0,0,0-1.55.35,1.69,1.69,0,0,0-.68,1.52v3.52h-1.9v-7.36h1.9Z" transform="translate(-10.07 -2.36)"/><path class="cls-29" d="M115.19,126.77h1.9v7.36h-1.9v-.87a2.89,2.89,0,0,1-2.4,1.07,3.33,3.33,0,0,1-2.52-1.13,4.14,4.14,0,0,1,0-5.52,3.33,3.33,0,0,1,2.52-1.13,2.89,2.89,0,0,1,2.4,1.07Zm-3.5,5.17a2,2,0,0,0,1.46.58,2,2,0,0,0,1.46-.58,2.21,2.21,0,0,0,0-3,2,2,0,0,0-1.46-.58,2,2,0,0,0-1.46.58,2.23,2.23,0,0,0,0,3Z" transform="translate(-10.07 -2.36)"/><path class="cls-29" d="M126.94,126.57a2.62,2.62,0,0,1,2,.82,3.14,3.14,0,0,1,.76,2.21v4.53h-1.9v-4.4a1.51,1.51,0,0,0-.32-1,1.15,1.15,0,0,0-.91-.37,1.25,1.25,0,0,0-1,.43,1.87,1.87,0,0,0-.36,1.24v4.13h-1.9v-4.4a1.51,1.51,0,0,0-.32-1,1.15,1.15,0,0,0-.91-.37,1.28,1.28,0,0,0-1,.43,1.82,1.82,0,0,0-.37,1.24v4.13h-1.9v-7.36h1.9v.78a2.29,2.29,0,0,1,2-1,2.18,2.18,0,0,1,2,1.06A2.49,2.49,0,0,1,126.94,126.57Z" transform="translate(-10.07 -2.36)"/></g></g></svg>