<?xml version="1.0" encoding="utf-8"?>
<!-- Generator: Adobe Illustrator 22.0.0, SVG Export Plug-In . SVG Version: 6.00 Build 0)  -->
<svg version="1.1" id="Layer_1" xmlns="http://www.w3.org/2000/svg" xmlns:xlink="http://www.w3.org/1999/xlink" x="0px" y="0px"
	 viewBox="0 0 100 100" style="enable-background:new 0 0 100 100;" xml:space="preserve">
<style type="text/css">
	.st0{fill:#D51C59;}
	.st1{fill:#FFFFFF;}
	.st2{fill:none;stroke:#000000;stroke-linejoin:round;stroke-miterlimit:10;}
	.st3{fill:none;stroke:#7DC6D6;stroke-width:2;stroke-linecap:round;stroke-linejoin:round;stroke-miterlimit:10;}
	.st4{fill:none;stroke:#D51C59;stroke-width:2;stroke-linecap:round;stroke-linejoin:round;stroke-miterlimit:10;}
	.st5{fill:none;stroke:#000000;stroke-miterlimit:10;}
	.st6{fill:none;stroke:#515150;stroke-width:16;stroke-linecap:round;stroke-miterlimit:10;}
	.st7{fill:none;stroke:#515150;stroke-linejoin:round;stroke-miterlimit:10;}
	.st8{fill:#05305E;}
	.st9{fill:#B2B9C8;}
	.st10{fill:#8BC34A;}
	.st11{fill-rule:evenodd;clip-rule:evenodd;fill:#33691E;}
	.st12{fill:#669B41;stroke:#669B41;stroke-miterlimit:10;}
	.st13{fill:#669B41;}
	.st14{fill:#1B5E20;stroke:#1B5E20;stroke-miterlimit:10;}
	.st15{fill:#7ACC49;}
	.st16{fill:#20265A;}
	.st17{fill-rule:evenodd;clip-rule:evenodd;fill:#004400;}
	.st18{fill-rule:evenodd;clip-rule:evenodd;fill:#005E00;}
	.st19{fill-rule:evenodd;clip-rule:evenodd;fill:#FFFFFF;}
	.st20{fill:#005E00;}
	.st21{fill:#00540B;}
</style>
<g>
	<path d="M-247.4,31.7c-14.1,0-25.5-11.5-25.5-25.5c0-14.1,11.5-25.5,25.5-25.5s25.5,11.5,25.5,25.5S-233.3,31.7-247.4,31.7z
		 M-247.4-17.7c-13.2,0-23.9,10.7-23.9,23.9s10.7,23.9,23.9,23.9c13.2,0,23.9-10.7,23.9-23.9S-234.2-17.7-247.4-17.7z"/>
</g>
<g>
	<path d="M-247.4,26.8c-11.4,0-20.6-9.3-20.6-20.6c0-11.4,9.3-20.6,20.6-20.6c11.4,0,20.6,9.3,20.6,20.6S-236,26.8-247.4,26.8z
		 M-247.4-13.1c-10.6,0-19.3,8.6-19.3,19.3c0,10.6,8.7,19.3,19.3,19.3s19.3-8.7,19.3-19.3C-228.1-4.5-236.8-13.1-247.4-13.1z"/>
</g>
<g id="check_2_">
	<g>
		<path class="st0" d="M-249.3,18.7l-14-14c-0.8-0.8-0.8-2.2,0-3l3-3c0.8-0.8,2.2-0.8,3,0l9.4,9.4l20.1-20.1c0.8-0.8,2.2-0.8,3,0
			l3,3c0.8,0.8,0.8,2.2,0,3l-24.4,24.7C-247.1,19.6-248.4,19.6-249.3,18.7L-249.3,18.7z"/>
	</g>
</g>
<g>
	<path d="M-256.2-38.3c1-0.2,1.9-0.1,2.7,0.4s1.3,1.2,1.5,2.2s0.1,1.9-0.5,2.6c-0.5,0.8-1.3,1.3-2.2,1.5l-1.3,0.3l0.6,2.9l-2.5,0.5
		l-2-9.6L-256.2-38.3z M-255.2-33.9c0.3-0.1,0.5-0.2,0.6-0.4c0.1-0.2,0.2-0.5,0.1-0.8c-0.1-0.3-0.2-0.5-0.4-0.7s-0.5-0.2-0.8-0.1
		l-1.3,0.3l0.4,2.1L-255.2-33.9z"/>
	<path d="M-245-29.3l-1.6-3.2h-0.9l-0.1,3.2l-2.5-0.1l0.3-9.9l3.9,0.1c1,0,1.8,0.4,2.5,1c0.7,0.7,1,1.5,1,2.5c0,0.6-0.2,1.1-0.5,1.6
		c-0.3,0.5-0.7,0.9-1.3,1.1l1.9,3.7L-245-29.3z M-247.4-36.9l-0.1,2.2h1.4c0.3,0,0.6-0.1,0.8-0.3s0.3-0.5,0.3-0.8
		c0-0.3-0.1-0.6-0.3-0.8c-0.2-0.2-0.4-0.3-0.8-0.3H-247.4z"/>
	<path d="M-238.8-30.6l3.7,1l-0.6,2.3l-6.1-1.6l2.5-9.6l6.1,1.6l-0.6,2.3l-3.6-0.9l-0.3,1.3l3.3,0.9l-0.6,2.2l-3.4-0.9L-238.8-30.6z
		"/>
	<path d="M-221.4-30.9l-4.9,8.6l-2.1-1.3l2.6-4.6l-4,2.3L-230-26l-0.1-4.6l-2.6,4.6l-2.2-1.3l4.9-8.6l2.2,1.3l0.1,4.9l4.3-2.4
		L-221.4-30.9z"/>
	<path d="M-218.9-28.6l1.9,1.7l-6.6,7.3l-1.9-1.7L-218.9-28.6z"/>
	<path d="M-218-13.9c-0.9-0.2-1.8-0.8-2.4-1.7c-0.7-0.9-1-1.9-0.9-2.8c0.1-1,0.5-1.8,1.4-2.4l5.3-4l1.5,2l-5.3,3.9
		c-0.7,0.5-0.7,1.1-0.2,1.8c0.6,0.7,1.2,0.9,1.8,0.4l5.1-3.8l1.5,2l-5.3,4C-216.2-13.9-217.1-13.7-218-13.9z"/>
	<path d="M-204.7-6l-9.2,3.4l-0.9-2.3l5-1.8l-4.6-0.9l-0.1-0.2l2.9-3.6l-5,1.8l-0.9-2.4l9.2-3.4l0.9,2.4l-3,3.7l4.8,0.9L-204.7-6z"
		/>
	<path d="M-209,11.8c-1.2-0.1-2.2-0.5-3.1-1.2l-1,0.8l-1.5-1.8l1.1-0.9c-0.3-0.7-0.4-1.5-0.4-2.3c0.1-1.4,0.6-2.6,1.7-3.6
		c1-0.9,2.3-1.4,3.7-1.3c1.4,0.1,2.6,0.7,3.6,1.7c0.9,1.1,1.4,2.3,1.3,3.7c-0.1,1.4-0.6,2.6-1.7,3.6
		C-206.3,11.5-207.6,11.9-209,11.8z M-211.4,6.5c0,0.1,0,0.2,0,0.4l1.5-1.2l1.4,1.9l-1.7,1.4c0.4,0.2,0.8,0.4,1.3,0.4
		c0.8,0,1.4-0.2,2-0.6c0.5-0.5,0.8-1.1,0.9-1.9c0-0.8-0.2-1.4-0.6-1.9c-0.5-0.5-1.1-0.8-1.9-0.9c-0.8,0-1.4,0.2-2,0.6
		C-211,5.2-211.3,5.8-211.4,6.5z"/>
	<path d="M-215.7,18.6c-0.4-0.9-0.3-1.9,0-3c0.4-1.1,1-1.9,1.8-2.3c0.8-0.5,1.7-0.5,2.7-0.2l6.2,2.2l-0.8,2.4l-6-2.1
		c-0.8-0.3-1.3,0-1.6,0.9c-0.3,0.9-0.1,1.4,0.7,1.7l6,2.1l-0.8,2.4l-6.2-2.2C-214.7,20.1-215.4,19.5-215.7,18.6z"/>
	<path d="M-220.5,25.1l1.4,0.4l1.9-2.8l-0.9-1.2l1.5-2.3l6.5,8.1l-1.8,2.6l-10-2.7L-220.5,25.1z M-215.7,24.4l-1.1,1.7l3.3,1
		L-215.7,24.4z"/>
	<path d="M-222.5,30.8l-2.5,2.3l-1.7-1.8l4.3-4.1l6.8,7.2l-1.8,1.9L-222.5,30.8z"/>
	<path d="M-221.9,40l-2.1,1.4l-5.5-8.2l2.1-1.4L-221.9,40z"/>
	<path d="M-232.7,45.8l-1-2.2l2.2-1l-3.1-6.8l2.3-1l3.1,6.8l2.2-1l1,2.2L-232.7,45.8z"/>
	<path d="M-243.6,48.3l2.1-6.6l-0.7-3.7l2.5-0.5l0.7,3.7l4.4,5.4l-2.8,0.5l-2.4-3.2l-1,3.9L-243.6,48.3z"/>
</g>
<g>
	<g>
		<circle class="st1" cx="345.2" cy="50.1" r="49.3"/>
	</g>
	<g>
		<path d="M338.4,13.6c-1,0.1-1.9,0-2.6-0.3c-0.7-0.4-1.3-0.9-1.6-1.6l2-1.5c0.5,0.8,1.2,1.2,2.1,1.1c0.8-0.1,1.1-0.4,1.1-0.8
			c0-0.3-0.3-0.5-0.7-0.6c-0.2-0.1-0.6-0.1-1.3-0.2c-0.9-0.2-1.7-0.4-2.2-0.8c-0.6-0.4-0.9-1-1-1.9c-0.1-0.9,0.1-1.7,0.7-2.3
			c0.6-0.6,1.3-1,2.3-1.1c0.8-0.1,1.6,0,2.2,0.3c0.7,0.3,1.2,0.8,1.6,1.5L339,6.7c-0.4-0.7-0.9-1-1.6-0.9c-0.3,0-0.5,0.1-0.7,0.3
			c-0.1,0.1-0.2,0.3-0.2,0.5c0,0.2,0.2,0.4,0.4,0.5c0.2,0.1,0.7,0.2,1.4,0.4c0.5,0.1,0.9,0.2,1.2,0.3c0.3,0.1,0.6,0.2,1,0.4
			c0.4,0.2,0.7,0.4,0.9,0.8c0.2,0.3,0.3,0.7,0.4,1.2c0.1,1-0.1,1.7-0.7,2.4C340.4,13.1,339.5,13.5,338.4,13.6z"/>
		<path d="M351,12.5c-1.1,0.9-2.4,1.2-3.8,1.1c-1.4-0.2-2.6-0.8-3.5-1.9s-1.2-2.3-1.1-3.8c0.2-1.4,0.8-2.6,1.9-3.4s2.4-1.2,3.8-1.1
			s2.6,0.8,3.5,1.9s1.2,2.3,1.1,3.8C352.7,10.5,352.1,11.6,351,12.5z M345.7,10.2c0.4,0.6,1,0.9,1.8,1c0.8,0.1,1.4-0.1,2-0.5
			s0.9-1,1-1.8s-0.1-1.4-0.5-2s-1-0.9-1.8-1c-0.8-0.1-1.4,0.1-2,0.5s-0.9,1-1,1.8S345.2,9.6,345.7,10.2z"/>
		<path d="M361,9.3l-3.3-1.1l-0.5,1.5l3.3,1.1l-0.8,2.3l-3.3-1.1l-1.1,3.2l-2.4-0.8l3.2-9.3l5.7,2L361,9.3z"/>
		<path d="M370,11.4l-1.2,2.1l-2.1-1.2l-3.6,6.4l-2.2-1.2l3.6-6.4l-2.1-1.2l1.2-2.1L370,11.4z"/>
		<path d="M374.4,27.6l-2.1-0.6l0.1-1.2c-0.9-0.2-1.6-0.6-2.3-1.3c-0.7-0.8-1.1-1.6-1.2-2.4c-0.1-0.8,0.2-1.6,0.9-2.2
			c0.8-0.8,1.8-1.1,3.1-0.8c0.2-0.6,0.4-1,0.8-1.4c0.6-0.6,1.3-0.9,2.1-0.8s1.5,0.4,2.2,1.1c1.1,1.1,1.4,2.5,0.8,4l-2.4-0.7
			c0.3-0.7,0.3-1.2-0.1-1.6c-0.2-0.2-0.4-0.3-0.5-0.3c-0.2,0-0.4,0.1-0.5,0.2c-0.1,0.1-0.2,0.2-0.2,0.4c-0.1,0.2-0.1,0.3-0.1,0.4
			c0,0.1,0,0.3,0,0.6l-0.2,2.5c0.5-0.2,0.9-0.4,1.3-0.7l0.6,2.3c-0.6,0.3-1.3,0.6-2.1,0.7L374.4,27.6z M371.8,23.1
			c0.2,0.2,0.4,0.4,0.7,0.5l0.1-2.4c-0.4,0-0.7,0.1-1,0.4c-0.2,0.2-0.3,0.5-0.3,0.7C371.4,22.6,371.5,22.8,371.8,23.1z"/>
		<path d="M377.7,35c-0.7-1.3-0.8-2.6-0.3-3.9s1.3-2.3,2.6-2.9c1.3-0.7,2.6-0.8,3.9-0.3c1.3,0.4,2.3,1.3,3,2.6
			c0.4,0.8,0.6,1.6,0.5,2.5c0,0.9-0.3,1.6-0.7,2.4l-2.1-1.4c0.2-0.3,0.3-0.7,0.4-1.1c0-0.4-0.1-0.8-0.3-1.2
			c-0.4-0.7-0.9-1.2-1.5-1.4c-0.7-0.2-1.3-0.1-2,0.2s-1.2,0.9-1.4,1.5c-0.2,0.6-0.2,1.3,0.2,2c0.2,0.4,0.5,0.7,0.8,1
			c0.3,0.2,0.7,0.4,1.1,0.4l-0.1,2.5c-0.8-0.1-1.6-0.3-2.3-0.8S378.1,35.8,377.7,35z"/>
		<path d="M382.9,46.7c-1.2-0.8-1.9-1.8-2.2-3.2c-0.3-1.4-0.1-2.7,0.6-3.9c0.7-1.2,1.8-1.9,3.2-2.2c1.4-0.3,2.7-0.1,3.9,0.7
			c1.2,0.8,1.9,1.8,2.2,3.2c0.3,1.4,0.1,2.7-0.6,3.9s-1.8,1.9-3.2,2.2S384.1,47.5,382.9,46.7z M383.3,41c-0.4,0.6-0.5,1.3-0.3,2
			c0.2,0.7,0.5,1.3,1.1,1.7c0.6,0.4,1.3,0.5,2,0.3c0.8-0.2,1.3-0.6,1.7-1.2c0.4-0.6,0.5-1.3,0.3-2s-0.5-1.3-1.1-1.7
			c-0.6-0.4-1.3-0.5-2-0.3S383.7,40.4,383.3,41z"/>
		<path d="M391.2,59.5l-9.8-0.5l0.1-2.5l5.3,0.3l-3.8-2.6l0-0.3l4-2.2l-5.3-0.3L382,49l9.8,0.5l-0.1,2.5l-4.3,2.3l4,2.7L391.2,59.5z
			"/>
		<path d="M386.5,67.8l1-3.4l-1.5-0.4l-1,3.3l-2.3-0.7l1-3.3l-3.2-0.9l0.7-2.4l9.4,2.7l-1.7,5.8L386.5,67.8z"/>
		<path d="M384,78.4l-3.8-5.7l-3.3-1.7l1.2-2.2l3.3,1.7l6.9-0.1l-1.3,2.5l-4-0.1l2.4,3.2L384,78.4z"/>
	</g>
	<path class="st2" d="M378.8,76.4C370.9,87.1,358.3,94,344,94c-23.8,0-43.1-19.3-43.1-43.1c0-19.3,12.7-35.6,30.1-41.1"/>
	<g>
		<path class="st3" d="M315.3,70.6c6.8-1.1,14.7-3.8,28.4-14s21.5-19.3,20.4-26.1c-7.9,7.9-14.7,7.9-20.4,9.1s-13,4.5-9.6,15.9
			c0,0-2.3-1.1-3.4-3.4c-2.8,5.1-1.7,9.6-6.8,12.5"/>
		<path class="st3" d="M327.7,71.4c4.2,0.3,9.8,0,13.1-2c-2.3-1.1-2.9-3.1-2.9-4.8c1.1,0,8.6,1.2,12.5,0c4.5-1.3,9.5-5.2,11.2-11.9
			c0.7-2.5,0.8-3.9,0.9-5.1"/>
	</g>
</g>
<g>
	<g>
		<circle class="st1" cx="174.3" cy="50.5" r="49.3"/>
	</g>
	<g>
		<polyline class="st4" points="187.5,53.9 187.5,47.7 187.5,44.2 187.5,38 		"/>
		<polyline class="st4" points="187.5,59.1 187.5,65.3 187.5,68.8 187.5,75.9 		"/>
		<line class="st4" x1="187.5" y1="32.7" x2="187.5" y2="28.3"/>
		<polyline class="st4" points="177.8,75.9 177.8,70.6 177.8,70.6 177.8,69.7 		"/>
		<polyline class="st4" points="177.8,48.6 177.8,54.7 177.8,58.3 177.8,64.4 		"/>
		<line class="st4" x1="177.8" y1="43.3" x2="177.8" y2="28.3"/>
		<polyline class="st4" points="168.1,53.9 168.1,47.7 168.1,44.2 168.1,38 		"/>
		<polyline class="st4" points="168.1,59.1 168.1,65.3 168.1,68.8 168.1,75.9 		"/>
		<line class="st4" x1="168.1" y1="32.7" x2="168.1" y2="28.3"/>
		<polyline class="st4" points="158.4,69.7 158.4,70.6 158.4,70.6 158.4,75.9 		"/>
		<polyline class="st4" points="158.4,64.4 158.4,58.3 158.4,54.7 158.4,48.6 		"/>
		<line class="st4" x1="158.4" y1="43.3" x2="158.4" y2="28.3"/>
		<path class="st4" d="M190.2,69.3c2.5-1,2.4-2.2,6.2-2.2"/>
		<path class="st4" d="M184.9,69.3c-1.7-0.7-2.7-1-4.4-1.7c-0.7-0.3-1.6-0.5-2.6-0.5h0c-1.1,0-1.9,0.2-2.6,0.4
			c-1.7,0.7-2.7,1.1-4.4,1.7"/>
		<path class="st4" d="M148.7,69.7c3.8,0,4.6-1.2,7.1-2.2c0.7-0.3,1.6-0.5,2.6-0.5c1.1,0,1.9,0.2,2.6,0.5c1.7,0.7,2.7,1,4.4,1.7"/>
		<path class="st4" d="M148.7,56.5c3.8,0,4.6,1.2,7.1,2.2"/>
		<path class="st4" d="M175.2,58.7c-1.7-0.7-2.7-1.1-4.4-1.7c-0.7-0.3-1.6-0.4-2.6-0.4h0c-1.1,0-1.9,0.2-2.6,0.5
			c-1.7,0.7-2.7,1.1-4.4,1.7"/>
		<path class="st4" d="M180.5,58.7c1.7-0.7,2.7-1,4.4-1.7c0.7-0.3,1.6-0.5,2.6-0.5s1.9,0.2,2.6,0.5c2.5,1,2.4,2.2,6.2,2.2"/>
		<path class="st4" d="M190.2,48.1c2.5-1,2.4-2.2,6.2-2.2"/>
		<path class="st4" d="M184.9,48.1c-1.7-0.7-2.7-1-4.4-1.7c-0.7-0.3-1.6-0.5-2.6-0.5h0c-1.1,0-1.9,0.2-2.6,0.4
			c-1.7,0.7-2.7,1.1-4.4,1.7"/>
		<path class="st4" d="M148.7,48.6c3.8,0,4.6-1.2,7.1-2.2c0.7-0.3,1.6-0.5,2.6-0.5c1.1,0,1.9,0.2,2.6,0.5c1.7,0.7,2.7,1,4.4,1.7"/>
		<path class="st4" d="M148.7,35.3c3.8,0,4.6,1.2,7.1,2.2"/>
		<path class="st4" d="M175.2,37.5c-1.7-0.7-2.7-1.1-4.4-1.7c-0.7-0.3-1.6-0.4-2.6-0.4h0c-1.1,0-1.9,0.2-2.6,0.5
			c-1.7,0.7-2.7,1.1-4.4,1.7"/>
		<path class="st4" d="M180.5,37.5c1.7-0.7,2.7-1,4.4-1.7c0.7-0.3,1.6-0.5,2.6-0.5s1.9,0.2,2.6,0.5c2.5,1,2.4,2.2,6.2,2.2"/>
	</g>
	<g>
		<path d="M167.9,3c1.3-0.1,2.5,0.2,3.5,1.1c1,0.8,1.6,2,1.7,3.3c0.1,1.4-0.2,2.6-1,3.6c-0.8,1-1.9,1.6-3.2,1.7l-4,0.4l-1-9.8
			L167.9,3z M168.7,10.3c0.7-0.1,1.2-0.3,1.6-0.8c0.4-0.5,0.5-1.1,0.5-1.9c-0.1-0.7-0.3-1.3-0.8-1.7c-0.5-0.4-1-0.6-1.7-0.5
			l-1.4,0.1l0.5,4.9L168.7,10.3z"/>
		<path d="M181,12.5c-0.8,0.5-1.8,0.7-2.9,0.6s-2-0.6-2.6-1.3c-0.6-0.7-0.9-1.6-0.8-2.6l0.9-6.5L178,3l-0.8,6.3
			c-0.1,0.8,0.3,1.3,1.2,1.4c0.9,0.1,1.4-0.2,1.5-1l0.8-6.3l2.5,0.3l-0.9,6.5C182.2,11.2,181.8,12,181,12.5z"/>
		<path d="M187.8,15.4l-0.5-3.6l-0.8-0.3l-1.1,3l-2.4-0.9l3.4-9.2l3.7,1.4c0.9,0.3,1.6,0.9,2,1.8c0.4,0.8,0.5,1.7,0.1,2.6
			c-0.2,0.6-0.5,1-1,1.4c-0.4,0.4-1,0.6-1.5,0.7l0.6,4.1L187.8,15.4z M188,7.5l-0.8,2.1l1.3,0.5c0.3,0.1,0.6,0.1,0.8,0
			c0.3-0.1,0.4-0.3,0.6-0.6c0.1-0.3,0.1-0.6,0-0.9s-0.3-0.4-0.6-0.5L188,7.5z"/>
		<path d="M196,20l0.4-1.4l-2.8-1.8l-1.1,1l-2.3-1.5l8-6.5l2.6,1.7l-2.6,10L196,20z M195.3,15.3l1.7,1.1l1-3.3L195.3,15.3z"/>
		<path d="M206.3,22.6c0.2,0.9,0,1.7-0.7,2.4c-0.6,0.6-1.3,0.9-2.1,0.8s-1.5-0.4-2.2-1.2l-2.9-3l7-6.9l2.7,2.8
			c0.7,0.7,1.1,1.4,1.1,2.2c0.1,0.8-0.2,1.5-0.8,2.1C207.7,22.5,207.1,22.7,206.3,22.6z M202.8,23.1c0.2,0.2,0.4,0.3,0.6,0.3
			s0.4-0.1,0.6-0.2c0.2-0.2,0.3-0.4,0.3-0.6c0-0.2-0.1-0.4-0.3-0.6l-1.1-1.1l-1.2,1.2L202.8,23.1z M206.4,19.2l-0.9-0.9l-1.1,1.1
			l0.9,0.9c0.2,0.2,0.3,0.2,0.5,0.3c0.2,0,0.4-0.1,0.6-0.2c0.2-0.2,0.2-0.3,0.2-0.6C206.7,19.5,206.6,19.3,206.4,19.2z"/>
		<path d="M207.3,28.4l1.9,2.8l-2,1.3l-3.3-4.9l8.2-5.4l1.4,2.1L207.3,28.4z"/>
		<path d="M210.6,34.5l1.5,3.5l-2.2,0.9l-2.5-5.8l9-3.9l2.5,5.7l-2.1,0.9l-1.5-3.4L214,33l1.3,3.1l-2.1,0.9l-1.3-3.1L210.6,34.5z"/>
		<path d="M221.9,51.7l-9.8,0.9l-0.2-2.5l5.3-0.5l-4.1-2l0-0.3l3.7-2.7l-5.2,0.5l-0.2-2.5l9.8-0.9l0.2,2.5l-3.9,2.9l4.4,2.1
			L221.9,51.7z"/>
		<path d="M211,59.8l1.5-0.2l0.5-3.3l-1.3-0.6l0.4-2.7l9.2,4.7l-0.5,3.1l-10.2,1.6L211,59.8z M215,57.2l-0.3,1.9l3.4-0.4L215,57.2z"
			/>
		<path d="M217.3,71.7l-2.3-0.8l0.8-2.3L209,66l0.9-2.3l6.9,2.6l0.8-2.3l2.3,0.8L217.3,71.7z"/>
		<path d="M208.5,72.2l-2,3.2l-2-1.2l3.3-5.4l8.4,5.1l-3.2,5.3l-2-1.2l1.9-3.2l-1.2-0.7L210,77l-2-1.2l1.7-2.9L208.5,72.2z"/>
		<path d="M200.6,78.7l3.5,0.9l0.6-0.7l-2.3-2.1l1.7-1.8l7.2,6.6l-2.6,2.9c-0.7,0.7-1.5,1.1-2.4,1.2s-1.8-0.2-2.5-0.9
			c-0.4-0.4-0.7-0.9-0.9-1.4c-0.2-0.6-0.2-1.1,0-1.7l-4-1L200.6,78.7z M207.9,81.8l-1.6-1.5l-0.9,1c-0.2,0.2-0.3,0.5-0.3,0.8
			c0,0.3,0.1,0.5,0.4,0.8c0.2,0.2,0.5,0.3,0.8,0.3c0.3,0,0.5-0.1,0.7-0.3L207.9,81.8z"/>
		<path d="M204.3,88.6l-2,1.6l-6.1-7.7l2-1.6L204.3,88.6z"/>
		<path d="M189.9,86.4l1.1,1l2.9-1.6l-0.3-1.4L196,83l2,10.1l-2.8,1.5l-7.6-7L189.9,86.4z M194.4,88l-1.7,1l2.5,2.4L194.4,88z"/>
		<path d="M185.5,90.7l-3.2,1l-0.7-2.3l5.6-1.8l2.9,9.3l-2.4,0.8L185.5,90.7z"/>
		<path d="M177.6,89.7c1-0.1,1.9,0,2.6,0.3c0.7,0.4,1.3,0.9,1.6,1.6l-2,1.5c-0.5-0.8-1.2-1.2-2.1-1.1c-0.8,0.1-1.1,0.4-1.1,0.8
			c0,0.3,0.3,0.5,0.7,0.6c0.2,0.1,0.6,0.1,1.3,0.2c0.9,0.2,1.7,0.4,2.2,0.8c0.6,0.4,0.9,1,1,1.9c0.1,0.9-0.1,1.7-0.7,2.3
			c-0.6,0.6-1.3,1-2.3,1.1c-0.8,0.1-1.6,0-2.2-0.3c-0.7-0.3-1.2-0.8-1.6-1.5l1.9-1.5c0.4,0.7,0.9,1,1.6,0.9c0.3,0,0.5-0.1,0.7-0.3
			s0.2-0.3,0.2-0.5c0-0.2-0.2-0.4-0.4-0.5s-0.7-0.2-1.4-0.4c-0.5-0.1-0.9-0.2-1.2-0.3c-0.3-0.1-0.6-0.2-1-0.4
			c-0.4-0.2-0.7-0.4-0.9-0.8s-0.3-0.7-0.4-1.2c-0.1-1,0.1-1.7,0.7-2.4C175.6,90.2,176.5,89.8,177.6,89.7z"/>
	</g>
	<path class="st5" d="M169.9,93.3c-21.6-2-38.5-20.2-38.5-42.3c0-19.1,12.6-35.2,29.9-40.6"/>
</g>
<g>
	<line class="st6" x1="-714" y1="90.2" x2="-726" y2="102.2"/>
	<line class="st6" x1="-698" y1="34.2" x2="-710" y2="46.2"/>
	<line class="st6" x1="-638" y1="34.2" x2="-650" y2="46.2"/>
	<line class="st6" x1="-574" y1="34.2" x2="-586" y2="46.2"/>
	<line class="st6" x1="-506" y1="34.2" x2="-518" y2="46.2"/>
	<line class="st6" x1="-642" y1="90.2" x2="-654" y2="102.2"/>
	<line class="st6" x1="-570" y1="90.2" x2="-582" y2="102.2"/>
	<line class="st6" x1="-498" y1="90.2" x2="-510" y2="102.2"/>
</g>
<g>
	<line class="st7" x1="-343.2" y1="19.9" x2="-343.2" y2="29.2"/>
	<line class="st7" x1="-337.8" y1="19.9" x2="-337.8" y2="23.8"/>
	<line class="st7" x1="-337.8" y1="28.4" x2="-337.8" y2="34.6"/>
	<line class="st7" x1="-332.4" y1="19.9" x2="-332.4" y2="29.2"/>
	<line class="st7" x1="-340.9" y1="26.1" x2="-334.7" y2="26.1"/>
	<line class="st7" x1="-336.2" y1="31.5" x2="-329.3" y2="31.5"/>
	<line class="st7" x1="-348.6" y1="19.9" x2="-348.6" y2="23.8"/>
	<line class="st7" x1="-348.6" y1="49.3" x2="-348.6" y2="53.2"/>
	<line class="st7" x1="-337.8" y1="49.3" x2="-337.8" y2="53.2"/>
	<line class="st7" x1="-326.9" y1="49.3" x2="-326.9" y2="53.2"/>
	<line class="st7" x1="-348.6" y1="28.4" x2="-348.6" y2="34.6"/>
	<line class="st7" x1="-354.1" y1="26.1" x2="-345.5" y2="26.1"/>
	<line class="st7" x1="-346.3" y1="31.5" x2="-340.1" y2="31.5"/>
	<line class="st7" x1="-326.9" y1="19.9" x2="-326.9" y2="23.8"/>
	<line class="st7" x1="-326.9" y1="28.4" x2="-326.9" y2="34.6"/>
	<line class="st7" x1="-330" y1="26.1" x2="-321.5" y2="26.1"/>
	<line class="st7" x1="-343.2" y1="33.8" x2="-343.2" y2="40"/>
	<line class="st7" x1="-332.4" y1="33.8" x2="-332.4" y2="40.8"/>
	<line class="st7" x1="-340.9" y1="36.9" x2="-334.7" y2="36.9"/>
	<line class="st7" x1="-354.1" y1="36.9" x2="-345.5" y2="36.9"/>
	<line class="st7" x1="-330" y1="36.9" x2="-323.1" y2="36.9"/>
	<line class="st7" x1="-337.8" y1="39.3" x2="-337.8" y2="44.7"/>
	<line class="st7" x1="-335.5" y1="42.4" x2="-329.3" y2="42.4"/>
	<line class="st7" x1="-348.6" y1="39.3" x2="-348.6" y2="44.7"/>
	<line class="st7" x1="-346.3" y1="42.4" x2="-340.1" y2="42.4"/>
	<line class="st7" x1="-326.9" y1="39.3" x2="-326.9" y2="44.7"/>
	<line class="st7" x1="-343.2" y1="44.7" x2="-343.2" y2="53.2"/>
	<line class="st7" x1="-332.4" y1="44.7" x2="-332.4" y2="53.2"/>
	<line class="st7" x1="-340.9" y1="47" x2="-334.7" y2="47"/>
	<line class="st7" x1="-354.1" y1="47" x2="-345.5" y2="47"/>
	<line class="st7" x1="-330" y1="47" x2="-321.5" y2="47"/>
	<line class="st7" x1="-351" y1="31.5" x2="-354.1" y2="31.5"/>
	<line class="st7" x1="-351" y1="42.4" x2="-354.1" y2="42.4"/>
	<line class="st7" x1="-321.5" y1="31.5" x2="-324.6" y2="31.5"/>
	<line class="st7" x1="-321.5" y1="42.4" x2="-324.6" y2="42.4"/>
</g>
<g>
	<path class="st1" d="M-121.4-17.6c0,0,0.5-0.8,1.4-0.8l6.3,0c0,0,1,0,1.4,0.8l3.2,5.5c0,0,0.5,0.8,0,1.7l-3.1,5.5
		c0,0-0.5,0.8-1.4,0.8l-6.3,0c0,0-1,0-1.4-0.8l-3.2-5.5c0,0-0.5-0.8,0-1.7L-121.4-17.6L-121.4-17.6z"/>
	<path class="st8" d="M-120.3-16.3c0,0,0.4-0.6,1.1-0.6l4.8,0c0,0,0.7,0,1.1,0.6l2.4,4.1c0,0,0.4,0.6,0,1.3l-2.4,4.1
		c0,0-0.4,0.6-1.1,0.6l-4.8,0c0,0-0.7,0-1.1-0.6l-2.4-4.1c0,0-0.4-0.6,0-1.3L-120.3-16.3L-120.3-16.3z"/>
	<path class="st8" d="M-88.4,10.7h-4.3c-0.2,0-0.5-0.2-0.5-0.4V-9.3c0-0.2,0.2-0.4,0.5-0.4l4.3-0.5c0.3,0,0.4,0.2,0.4,0.4v20.1
		C-88,10.5-88.2,10.7-88.4,10.7L-88.4,10.7z"/>
	<path class="st8" d="M-69.4-6.1h-8.5v5.6h7.6c0.2,0,0.4,0.2,0.4,0.4v2.9c0,0.3-0.2,0.4-0.4,0.4h-7.6v7c0,0.3-0.2,0.4-0.5,0.4h-4.2
		c-0.3,0-0.5-0.2-0.5-0.4V-9.4c0-0.3,0.2-0.4,0.5-0.4h13.2c0.3,0,0.4,0.2,0.4,0.4v2.9C-68.9-6.3-69.1-6.1-69.4-6.1L-69.4-6.1z"/>
	<path class="st8" d="M-59.2,11c-3.9,0-7-0.9-7.5-1.1C-67,9.8-67.3,9.6-67.2,9l0.4-2.2c0.1-0.4,0.4-0.6,0.8-0.4
		c0.6,0.1,3.5,0.9,5.9,0.9c2.1,0,3.6-0.5,3.6-2.4c0-2-1.9-2.2-4.2-2.6c-2.8-0.4-6.7-1.3-6.7-6.1c0-5,3.4-6.5,8.1-6.5
		c3.3,0,6.1,0.8,6.7,0.9c0.4,0.1,0.7,0.3,0.6,0.8l-0.4,2.3c-0.1,0.3-0.2,0.5-0.7,0.4c-1.9-0.4-3.7-0.8-5.6-0.8
		c-1.8,0-3.5,0.3-3.5,2.3c0,1.9,2,2.1,4.3,2.5c3.2,0.5,6.7,1.2,6.7,6.5C-51.1,9.4-55,11-59.2,11L-59.2,11z"/>
	<path class="st8" d="M-92.5,21h-0.6c-0.1,0-0.1,0-0.1-0.1v-4.8c0-0.1,0-0.1,0.1-0.1l0.6-0.1c0.1,0,0.1,0,0.1,0.1v4.8
		C-92.4,21-92.5,21-92.5,21L-92.5,21z"/>
	<path class="st8" d="M-88.3,21h-0.6c-0.1,0-0.1,0-0.1-0.1v-2.4c0-0.4-0.2-0.5-0.5-0.5c-0.4,0-0.9,0.1-1,0.1v2.8
		c0,0.1,0,0.1-0.1,0.1h-0.6c-0.1,0-0.1,0-0.1-0.1v-2.8c0-0.3,0.1-0.4,0.4-0.5c0.3-0.1,0.9-0.2,1.4-0.2c0.8,0,1.2,0.2,1.2,1v2.5
		C-88.2,21-88.2,21-88.3,21L-88.3,21z"/>
	<path class="st8" d="M-85.3,20.9c0,0.1,0,0.1-0.1,0.1c-0.1,0-0.4,0.1-0.8,0.1c-0.7,0-1.1-0.3-1.1-1v-3.5c0-0.1,0-0.1,0.1-0.1
		l0.5-0.1c0.1,0,0.1,0,0.1,0.1v1.1h1c0.1,0,0.1,0,0.1,0.1V18c0,0.1,0,0.1-0.1,0.1h-1v2c0,0.3,0.1,0.4,0.5,0.4c0.2,0,0.4,0,0.5-0.1
		c0.1,0,0.1,0,0.1,0.1L-85.3,20.9L-85.3,20.9z"/>
	<path class="st8" d="M-81.6,19.5c0,0.1,0,0.1-0.1,0.1H-84c0,0.3,0.1,0.5,0.2,0.7c0.2,0.2,0.5,0.2,0.9,0.2c0.4,0,0.7-0.1,1-0.2
		c0,0,0,0,0,0c0,0,0.1,0,0.1,0.1l0.1,0.3c0,0,0,0,0,0c0,0,0,0.1-0.1,0.1c-0.2,0.1-0.7,0.2-1.2,0.2c-1.3,0-1.8-0.6-1.8-1.8
		c0-1.2,0.3-1.9,1.6-1.9c0.7,0,1.1,0.2,1.3,0.5c0.2,0.3,0.3,0.7,0.3,1.2C-81.6,19.3-81.6,19.4-81.6,19.5L-81.6,19.5z M-82.4,18.5
		c-0.1-0.4-0.3-0.5-0.8-0.5c-0.5,0-0.7,0.1-0.8,0.5c-0.1,0.2-0.1,0.4-0.1,0.6h1.7C-82.3,18.9-82.3,18.7-82.4,18.5L-82.4,18.5z"/>
	<path class="st8" d="M-80.7,18.1c0-0.3,0.1-0.4,0.4-0.5c0.3-0.1,0.8-0.2,1.3-0.2c0.1,0,0.2,0,0.2,0.1v0.4c0,0.1,0,0.1-0.1,0.1
		c-0.4,0-0.8,0-1,0.1v2.8c0,0.1,0,0.1-0.1,0.1h-0.6c-0.1,0-0.1,0-0.1-0.1V18.1L-80.7,18.1z"/>
	<path class="st8" d="M-75.3,21h-0.6c-0.1,0-0.1,0-0.1-0.1v-2.4c0-0.4-0.2-0.5-0.5-0.5c-0.4,0-0.9,0.1-1,0.1v2.8
		c0,0.1,0,0.1-0.1,0.1h-0.6c-0.1,0-0.1,0-0.1-0.1v-2.8c0-0.3,0.1-0.4,0.4-0.5c0.3-0.1,0.9-0.2,1.4-0.2c0.8,0,1.2,0.2,1.2,1v2.5
		C-75.2,21-75.2,21-75.3,21L-75.3,21z"/>
	<path class="st8" d="M-71.9,21c-0.2,0.1-0.5,0.1-0.9,0.1c-0.7,0-1.6-0.1-1.6-1.1c0-0.9,0.5-1,1.1-1.1l1.2-0.2v-0.2
		c0-0.2,0-0.3-0.2-0.4c-0.1,0-0.3-0.1-0.5-0.1c-0.5,0-0.9,0.1-1.2,0.2c0,0,0,0,0,0c0,0-0.1,0-0.1-0.1l-0.1-0.4c0-0.1,0-0.1,0.1-0.1
		c0.2-0.1,0.8-0.2,1.4-0.2c0.5,0,0.8,0.1,1,0.2c0.3,0.2,0.4,0.5,0.4,0.9v1.9C-71.3,20.8-71.5,20.9-71.9,21L-71.9,21z M-72.1,19.3
		l-1,0.2c-0.3,0-0.5,0.1-0.5,0.5c0,0.6,0.5,0.6,0.8,0.6c0.3,0,0.5,0,0.7-0.1V19.3L-72.1,19.3z"/>
	<path class="st8" d="M-68.3,20.9c0,0.1,0,0.1-0.1,0.1c-0.1,0-0.4,0.1-0.8,0.1c-0.7,0-1.1-0.3-1.1-1v-3.5c0-0.1,0-0.1,0.1-0.1
		l0.5-0.1c0.1,0,0.1,0,0.1,0.1v1.1h1c0.1,0,0.1,0,0.1,0.1V18c0,0.1,0,0.1-0.1,0.1h-1v2c0,0.3,0.1,0.4,0.5,0.4c0.2,0,0.4,0,0.5-0.1
		c0.1,0,0.1,0,0.1,0.1L-68.3,20.9L-68.3,20.9z"/>
	<path class="st8" d="M-67,17h-0.5c-0.1,0-0.1,0-0.1-0.1v-0.7c0-0.1,0.1-0.1,0.1-0.1h0.5c0.1,0,0.1,0,0.1,0.1v0.7
		C-66.8,17-66.9,17-67,17L-67,17z M-66.9,21h-0.5c-0.1,0-0.1,0-0.1-0.1v-3.3c0-0.1,0-0.1,0.1-0.1h0.5c0.1,0,0.1,0,0.1,0.1v3.3
		C-66.8,21-66.9,21-66.9,21L-66.9,21z"/>
	<path class="st8" d="M-64.3,21.1c-1.5,0-1.6-0.8-1.6-1.8c0-1,0.2-1.8,1.6-1.8c1.5,0,1.6,0.8,1.6,1.8
		C-62.7,20.3-62.8,21.1-64.3,21.1L-64.3,21.1z M-64.3,18c-0.8,0-0.9,0.5-0.9,1.3c0,0.8,0,1.3,0.9,1.3c0.8,0,0.8-0.5,0.8-1.3
		C-63.4,18.5-63.5,18-64.3,18L-64.3,18z"/>
	<path class="st8" d="M-58.9,21h-0.6c-0.1,0-0.1,0-0.1-0.1v-2.4c0-0.4-0.2-0.5-0.5-0.5c-0.4,0-0.9,0.1-1,0.1v2.8
		c0,0.1,0,0.1-0.1,0.1h-0.6c-0.1,0-0.1,0-0.1-0.1v-2.8c0-0.3,0.1-0.4,0.4-0.5c0.3-0.1,0.9-0.2,1.4-0.2c0.8,0,1.2,0.2,1.2,1v2.5
		C-58.8,21-58.8,21-58.9,21L-58.9,21z"/>
	<path class="st8" d="M-55.5,21c-0.2,0.1-0.5,0.1-0.9,0.1c-0.7,0-1.6-0.1-1.6-1.1c0-0.9,0.5-1,1.1-1.1l1.2-0.2v-0.2
		c0-0.2,0-0.3-0.2-0.4c-0.1,0-0.3-0.1-0.5-0.1c-0.5,0-0.9,0.1-1.2,0.2c0,0,0,0,0,0c0,0-0.1,0-0.1-0.1l-0.1-0.4c0-0.1,0-0.1,0.1-0.1
		c0.2-0.1,0.8-0.2,1.4-0.2c0.5,0,0.8,0.1,1,0.2c0.3,0.2,0.4,0.5,0.4,0.9v1.9C-54.9,20.8-55.1,20.9-55.5,21L-55.5,21z M-55.7,19.3
		l-1,0.2c-0.3,0-0.5,0.1-0.5,0.5c0,0.6,0.5,0.6,0.8,0.6c0.3,0,0.5,0,0.7-0.1V19.3L-55.7,19.3z"/>
	<path class="st8" d="M-52.5,20.9c0,0,0,0.1-0.1,0.1c-0.1,0-0.3,0.1-0.6,0.1c-0.5,0-0.8-0.3-0.8-0.8v-4.1c0-0.1,0-0.1,0.1-0.1
		l0.5-0.1h0c0.1,0,0.1,0,0.1,0.1v4.1c0,0.2,0.1,0.3,0.3,0.3c0.1,0,0.2,0,0.2,0c0,0,0.1,0,0.1,0.1L-52.5,20.9L-52.5,20.9z"/>
	<path class="st8" d="M-90.1,24.8h-2.3v1.7h2.1c0.1,0,0.1,0,0.1,0.1v0.5c0,0.1,0,0.1-0.1,0.1h-2.1V29c0,0.1-0.1,0.1-0.1,0.1h-0.6
		c-0.1,0-0.1,0-0.1-0.1v-4.7c0-0.1,0.1-0.1,0.1-0.1h3c0.1,0,0.1,0,0.1,0.1v0.4C-90,24.7-90.1,24.8-90.1,24.8L-90.1,24.8z"/>
	<path class="st8" d="M-86.3,27.6c0,0.1,0,0.1-0.1,0.1h-2.3c0,0.3,0.1,0.5,0.2,0.7c0.2,0.2,0.5,0.2,0.9,0.2c0.4,0,0.7-0.1,1-0.2
		c0,0,0,0,0,0c0,0,0.1,0,0.1,0.1l0.1,0.3c0,0,0,0,0,0c0,0,0,0.1-0.1,0.1c-0.2,0.1-0.7,0.2-1.2,0.2c-1.3,0-1.8-0.6-1.8-1.8
		c0-1.2,0.3-1.9,1.6-1.9c0.7,0,1.1,0.2,1.3,0.5c0.2,0.3,0.3,0.7,0.3,1.2C-86.3,27.4-86.3,27.5-86.3,27.6L-86.3,27.6z M-87.1,26.5
		c-0.1-0.4-0.3-0.5-0.8-0.5c-0.5,0-0.7,0.1-0.8,0.5c-0.1,0.2-0.1,0.4-0.1,0.6h1.7C-87.1,27-87.1,26.7-87.1,26.5L-87.1,26.5z"/>
	<path class="st8" d="M-83.2,29.1c-0.2,0.1-0.5,0.1-0.9,0.1c-0.7,0-1.6-0.1-1.6-1.1c0-0.9,0.5-1,1.1-1.1l1.2-0.2v-0.2
		c0-0.2,0-0.3-0.2-0.4c-0.1,0-0.3-0.1-0.5-0.1c-0.5,0-0.9,0.1-1.2,0.2c0,0,0,0,0,0c0,0-0.1,0-0.1-0.1l-0.1-0.4c0-0.1,0-0.1,0.1-0.1
		c0.2-0.1,0.8-0.2,1.4-0.2c0.5,0,0.8,0.1,1,0.2c0.3,0.2,0.4,0.5,0.4,0.9v1.9C-82.6,28.9-82.7,29-83.2,29.1L-83.2,29.1z M-83.3,27.3
		l-1,0.2c-0.3,0-0.5,0.1-0.5,0.5c0,0.6,0.5,0.6,0.8,0.6c0.3,0,0.5,0,0.7-0.1V27.3L-83.3,27.3z"/>
	<path class="st8" d="M-79.6,28.9c0,0.1,0,0.1-0.1,0.1c-0.1,0-0.4,0.1-0.8,0.1c-0.7,0-1.1-0.3-1.1-1v-3.5c0-0.1,0-0.1,0.1-0.1
		l0.5-0.1c0.1,0,0.1,0,0.1,0.1v1.1h1c0.1,0,0.1,0,0.1,0.1V26c0,0.1,0,0.1-0.1,0.1h-1v2c0,0.3,0.1,0.4,0.5,0.4c0.2,0,0.4,0,0.5-0.1
		c0.1,0,0.1,0,0.1,0.1L-79.6,28.9L-79.6,28.9z"/>
	<path class="st8" d="M-77.3,29.2c-1.1,0-1.5-0.4-1.5-1.3v-2.1c0-0.1,0-0.1,0.1-0.1l0.5-0.1c0.1,0,0.1,0,0.1,0.1v2.3
		c0,0.5,0.2,0.7,0.8,0.7c0.7,0,0.8-0.3,0.8-0.8v-2.2c0-0.1,0-0.1,0.1-0.1l0.5-0.1c0.1,0,0.1,0,0.1,0.1v2.3
		C-75.8,28.6-76.1,29.2-77.3,29.2L-77.3,29.2z"/>
	<path class="st8" d="M-74.9,26.1c0-0.3,0.1-0.4,0.4-0.5c0.3-0.1,0.8-0.2,1.3-0.2c0.1,0,0.2,0,0.2,0.1V26c0,0.1,0,0.1-0.1,0.1
		c-0.4,0-0.8,0-1,0.1V29c0,0.1,0,0.1-0.1,0.1h-0.6c-0.1,0-0.1,0-0.1-0.1V26.1L-74.9,26.1z"/>
	<path class="st8" d="M-69.4,27.6c0,0.1,0,0.1-0.1,0.1h-2.3c0,0.3,0.1,0.5,0.2,0.7c0.2,0.2,0.5,0.2,0.9,0.2c0.4,0,0.7-0.1,1-0.2
		c0,0,0,0,0,0c0,0,0.1,0,0.1,0.1l0.1,0.3c0,0,0,0,0,0c0,0,0,0.1-0.1,0.1c-0.2,0.1-0.7,0.2-1.2,0.2c-1.3,0-1.8-0.6-1.8-1.8
		c0-1.2,0.3-1.9,1.6-1.9c0.7,0,1.1,0.2,1.3,0.5c0.2,0.3,0.3,0.7,0.3,1.2C-69.4,27.4-69.4,27.5-69.4,27.6L-69.4,27.6z M-70.2,26.5
		c-0.1-0.4-0.3-0.5-0.8-0.5c-0.5,0-0.7,0.1-0.8,0.5c-0.1,0.2-0.1,0.4-0.1,0.6h1.7C-70.1,27-70.2,26.7-70.2,26.5L-70.2,26.5z"/>
	<path class="st8" d="M-66,29c-0.3,0.1-0.6,0.1-1.1,0.1c-1.3,0-1.7-0.5-1.7-1.8c0-1.2,0.3-1.9,1.5-1.9c0.5,0,0.8,0.1,1,0.1l-0.1-0.4
		v-0.9c0-0.1,0-0.1,0.1-0.1l0.5-0.1c0.1,0,0.1,0,0.1,0.1v4.4C-65.5,28.7-65.6,28.9-66,29L-66,29z M-66.3,26.1
		c-0.1,0-0.4-0.1-0.7-0.1c-0.6,0-0.9,0.2-0.9,1.3c0,1.2,0.3,1.3,0.9,1.3c0.3,0,0.7-0.1,0.7-0.1V26.1L-66.3,26.1z"/>
	<path class="st8" d="M-60.9,29.2c-0.8,0-1.5-0.2-1.6-0.2c-0.1,0-0.1-0.1-0.1-0.1c0,0,0,0,0,0l0.1-0.4c0-0.1,0.1-0.1,0.1-0.1
		c0,0,0,0,0.1,0c0.1,0,0.8,0.2,1.5,0.2c0.6,0,1.1-0.2,1.1-0.8c0-0.6-0.5-0.7-1.2-0.8c-0.7-0.1-1.7-0.3-1.7-1.4
		c0-1.2,0.9-1.4,1.9-1.4c0.8,0,1.4,0.2,1.6,0.2c0.1,0,0.1,0.1,0.1,0.2l-0.1,0.4c0,0-0.1,0.1-0.1,0.1c-0.2-0.1-0.8-0.2-1.4-0.2
		c-0.5,0-1.1,0.1-1.1,0.7c0,0.6,0.6,0.7,1.2,0.8c0.8,0.1,1.7,0.2,1.7,1.4C-59,28.8-60,29.2-60.9,29.2L-60.9,29.2z"/>
	<path class="st8" d="M-56.1,28.9c0,0.1,0,0.1-0.1,0.1c-0.1,0-0.4,0.1-0.8,0.1c-0.7,0-1.1-0.3-1.1-1v-3.5c0-0.1,0-0.1,0.1-0.1
		l0.5-0.1c0.1,0,0.1,0,0.1,0.1v1.1h1c0.1,0,0.1,0,0.1,0.1V26c0,0.1,0,0.1-0.1,0.1h-1v2c0,0.3,0.1,0.4,0.5,0.4c0.2,0,0.4,0,0.5-0.1
		c0.1,0,0.1,0,0.1,0.1L-56.1,28.9L-56.1,28.9z"/>
	<path class="st8" d="M-53.1,29.1c-0.2,0.1-0.5,0.1-0.9,0.1c-0.7,0-1.6-0.1-1.6-1.1c0-0.9,0.5-1,1.1-1.1l1.2-0.2v-0.2
		c0-0.2,0-0.3-0.2-0.4c-0.1,0-0.3-0.1-0.5-0.1c-0.5,0-0.9,0.1-1.2,0.2c0,0,0,0,0,0c0,0-0.1,0-0.1-0.1l-0.1-0.4c0-0.1,0-0.1,0.1-0.1
		c0.2-0.1,0.8-0.2,1.4-0.2c0.5,0,0.8,0.1,1,0.2c0.3,0.2,0.4,0.5,0.4,0.9v1.9C-52.5,28.9-52.7,29-53.1,29.1L-53.1,29.1z M-53.3,27.3
		l-1,0.2c-0.3,0-0.5,0.1-0.5,0.5c0,0.6,0.5,0.6,0.8,0.6c0.3,0,0.5,0,0.7-0.1V27.3L-53.3,27.3z"/>
	<path class="st8" d="M-48.6,29.1h-0.6c-0.1,0-0.1,0-0.1-0.1v-2.4c0-0.4-0.2-0.5-0.5-0.5c-0.4,0-0.9,0.1-1,0.1V29
		c0,0.1,0,0.1-0.1,0.1h-0.6c-0.1,0-0.1,0-0.1-0.1v-2.8c0-0.3,0.1-0.4,0.4-0.5c0.3-0.1,0.9-0.2,1.4-0.2c0.8,0,1.2,0.2,1.2,1V29
		C-48.5,29-48.6,29.1-48.6,29.1L-48.6,29.1z"/>
	<path class="st8" d="M-45,29c-0.3,0.1-0.6,0.1-1.1,0.1c-1.3,0-1.7-0.5-1.7-1.8c0-1.2,0.3-1.9,1.5-1.9c0.5,0,0.8,0.1,1,0.1l-0.1-0.4
		v-0.9c0-0.1,0-0.1,0.1-0.1l0.5-0.1c0.1,0,0.1,0,0.1,0.1v4.4C-44.5,28.7-44.6,28.9-45,29L-45,29z M-45.3,26.1
		c-0.1,0-0.4-0.1-0.7-0.1c-0.6,0-0.9,0.2-0.9,1.3c0,1.2,0.3,1.3,0.9,1.3c0.3,0,0.7-0.1,0.7-0.1V26.1L-45.3,26.1z"/>
	<path class="st8" d="M-41.2,29.1c-0.2,0.1-0.5,0.1-0.9,0.1c-0.7,0-1.6-0.1-1.6-1.1c0-0.9,0.5-1,1.1-1.1l1.2-0.2v-0.2
		c0-0.2,0-0.3-0.2-0.4c-0.1,0-0.3-0.1-0.5-0.1c-0.5,0-0.9,0.1-1.2,0.2c0,0,0,0,0,0c0,0-0.1,0-0.1-0.1l-0.1-0.4c0-0.1,0-0.1,0.1-0.1
		c0.2-0.1,0.8-0.2,1.4-0.2c0.5,0,0.8,0.1,1,0.2c0.3,0.2,0.4,0.5,0.4,0.9v1.9C-40.7,28.9-40.8,29-41.2,29.1L-41.2,29.1z M-41.4,27.3
		l-1,0.2c-0.3,0-0.5,0.1-0.5,0.5c0,0.6,0.5,0.6,0.8,0.6c0.3,0,0.5,0,0.7-0.1V27.3L-41.4,27.3z"/>
	<path class="st8" d="M-39.7,26.1c0-0.3,0.1-0.4,0.4-0.5c0.3-0.1,0.8-0.2,1.3-0.2c0.1,0,0.2,0,0.2,0.1V26c0,0.1,0,0.1-0.1,0.1
		c-0.4,0-0.8,0-1,0.1V29c0,0.1,0,0.1-0.1,0.1h-0.6c-0.1,0-0.1,0-0.1-0.1V26.1L-39.7,26.1z"/>
	<path class="st8" d="M-34.7,29c-0.3,0.1-0.6,0.1-1.1,0.1c-1.3,0-1.7-0.5-1.7-1.8c0-1.2,0.3-1.9,1.5-1.9c0.5,0,0.8,0.1,1,0.1
		l-0.1-0.4v-0.9c0-0.1,0-0.1,0.1-0.1l0.5-0.1c0.1,0,0.1,0,0.1,0.1v4.4C-34.3,28.7-34.3,28.9-34.7,29L-34.7,29z M-35,26.1
		c-0.1,0-0.4-0.1-0.7-0.1c-0.6,0-0.9,0.2-0.9,1.3c0,1.2,0.3,1.3,0.9,1.3c0.3,0,0.7-0.1,0.7-0.1V26.1L-35,26.1z"/>
	<path class="st8" d="M-32.2,29.2c-0.6,0-1.1-0.2-1.2-0.2c0,0-0.1,0-0.1-0.1l0.1-0.4c0,0,0-0.1,0.1-0.1c0,0,0,0,0,0
		c0.1,0,0.5,0.2,1,0.2c0.4,0,0.7-0.1,0.7-0.5c0-0.4-0.3-0.4-0.8-0.5c-0.5-0.1-1.2-0.2-1.2-1c0-0.9,0.8-1.1,1.4-1.1
		c0.6,0,1,0.1,1.1,0.1c0.1,0,0.1,0,0.1,0.1l-0.1,0.4c0,0,0,0.1-0.1,0.1c-0.1,0-0.5-0.1-0.9-0.1c-0.4,0-0.7,0.1-0.7,0.5
		c0,0.4,0.4,0.4,0.8,0.5c0.6,0.1,1.2,0.2,1.2,1.1C-30.7,28.9-31.4,29.2-32.2,29.2L-32.2,29.2z"/>
	<path class="st9" d="M-109.8,2.8c0,0,0.4-0.6,1.1-0.6l4.8,0c0,0,0.7,0,1.1,0.6l2.4,4.1c0,0,0.4,0.6,0,1.3l-2.4,4.1
		c0,0-0.4,0.6-1.1,0.6l-4.8,0c0,0-0.7,0-1.1-0.6l-2.4-4.1c0,0-0.4-0.6,0-1.3L-109.8,2.8L-109.8,2.8z"/>
	<path class="st9" d="M-109.8-9.7c0,0,0.4-0.6,1.1-0.6l4.8,0c0,0,0.7,0,1.1,0.6l2.4,4.1c0,0,0.4,0.6,0,1.3l-2.4,4.1
		c0,0-0.4,0.6-1.1,0.6l-4.8,0c0,0-0.7,0-1.1-0.6l-2.4-4.1c0,0-0.4-0.6,0-1.3L-109.8-9.7L-109.8-9.7z"/>
</g>
<path class="st10" d="M198,160.5c-26.6,0-48.2,21.6-48.2,48.2s21.6,48.2,48.2,48.2s48.2-21.6,48.2-48.2S224.5,160.5,198,160.5z
	 M198,245.6c-8.1,0-15.7-2.7-21.8-7.1l15.8-15.8H176l-7.8,7.8c-4.5-6.1-7.1-13.6-7.1-21.8c0-20.4,16.6-36.9,36.9-36.9
	c8.1,0,15.7,2.7,21.8,7.1L204,194.7h15.9l7.8-7.8c4.5,6.1,7.1,13.6,7.1,21.8C234.9,229,218.3,245.6,198,245.6z"/>
<path class="st11" d="M-60.9,91.5h-86.2v20.1c0,3.1,2.6,5.7,5.7,5.7h55.6C-58.6,117.3-60.9,95.3-60.9,91.5 M-56.1,91.5v-33
	c0-5-4.1-9.1-9.1-9.1h-77.5c-5,0-9.1,4.1-9.1,9.1v33v21.2c0,5,4.1,9.1,9.1,9.1h55.5c11,0,20.3-3.3,25-9.1
	C-58,107.5-56.1,100.3-56.1,91.5z"/>
<g id="XMLID_186_">
	<g id="XMLID_189_">
		<path id="XMLID_190_" class="st12" d="M-146.1,361c-0.1,0-0.1,0-0.2,0c-0.4-0.1-0.6-0.5-0.5-0.9c3.3-10.4,1.8-21.7-4-30.9
			c-5.1-8.2-13.2-14-22.6-16.4c-0.4-0.1-0.6-0.5-0.5-0.9c0.1-0.4,0.5-0.6,0.9-0.5c9.8,2.4,18.1,8.5,23.4,17c6,9.6,7.5,21.3,4.1,32.1
			C-145.6,360.8-145.8,361-146.1,361z"/>
	</g>
	<g id="XMLID_187_">
		<path id="XMLID_188_" class="st12" d="M-218.8,360.7c-0.3,0-0.6-0.2-0.7-0.5c-3.9-13-0.7-27.3,8.4-37.3c0.3-0.3,0.7-0.3,1,0
			c0.3,0.3,0.3,0.7,0,1c-8.8,9.7-11.9,23.4-8.1,35.9c0.1,0.4-0.1,0.8-0.5,0.9C-218.6,360.7-218.7,360.7-218.8,360.7z"/>
	</g>
</g>
<g>
	<path class="st13" d="M-211.9,368c0-0.1,0-0.1,0-0.2l-0.4-0.9c0-0.1-0.1-0.1-0.2-0.1l-4.4,0.3l2.7-3.5c0-0.1,0.1-0.2,0-0.2
		l-0.4-0.9c0-0.1-0.1-0.1-0.2-0.1c-0.1,0-0.1,0-0.2,0.1l-4.3,5.5c-0.1,0.1-0.1,0.2,0,0.2l0,0.1c0,0.1,0.1,0.1,0.2,0.1c0,0,0,0,0,0
		l7-0.4C-212,368.1-212,368.1-211.9,368z"/>
	<path class="st13" d="M-212.5,371.5l1.1-0.9l1.7,2.2c0.1,0.1,0.2,0.1,0.3,0l0.6-0.5c0.1-0.1,0.1-0.2,0-0.3l-2.4-3
		c0,0-0.1-0.1-0.2-0.1c-0.1,0-0.1,0-0.2,0l-4.9,3.8c0,0-0.1,0.1-0.1,0.2c0,0.1,0,0.1,0,0.2l2.4,3c0,0.1,0.1,0.1,0.2,0.1c0,0,0,0,0,0
		c0.1,0,0.1,0,0.1,0l0.6-0.5c0,0,0.1-0.1,0.1-0.2c0-0.1,0-0.1,0-0.2l-1.7-2.2l1.2-0.9l1.4,1.8c0.1,0.1,0.2,0.1,0.3,0l0.6-0.5
		c0.1-0.1,0.1-0.2,0-0.3L-212.5,371.5z"/>
	<path class="st13" d="M-205.8,379.5c0-0.1,0-0.1-0.1-0.2l-1.4-1.2c0,0-0.1-0.1-0.2-0.1c-0.1,0-0.1,0-0.2,0.1l-0.5,0.6
		c0,0-0.1,0.1-0.1,0.2c0,0.1,0,0.1,0.1,0.2l0.5,0.5l-0.5,0.5c-0.2-0.1-0.6-0.2-0.9-0.6c-0.9-0.8-0.9-2.1-0.1-3c0.8-0.9,2.1-1,3-0.2
		c0.4,0.3,0.6,0.8,0.7,1.3c0,0.1,0.1,0.2,0.2,0.2l0.8-0.1c0.1,0,0.1,0,0.2-0.1c0,0,0.1-0.1,0.1-0.2c-0.1-0.9-0.5-1.7-1.2-2.2
		c-0.7-0.6-1.6-0.9-2.5-0.9c-0.9,0.1-1.8,0.5-2.4,1.2c-0.6,0.7-0.9,1.6-0.9,2.5c0.1,0.9,0.5,1.8,1.2,2.4c1,0.9,2.2,1.1,2.2,1.1
		c0,0,0,0,0,0c0.1,0,0.1,0,0.2-0.1l1.6-1.8C-205.8,379.6-205.7,379.5-205.8,379.5z"/>
	<path class="st13" d="M-200.1,378.9c-0.1,0-0.1-0.1-0.2,0l-5.8,4c-0.1,0-0.1,0.1-0.1,0.2c0,0.1,0,0.1,0.1,0.2l0.7,0.4
		c0.1,0.1,0.3,0.1,0.4,0l0.9-0.6l2.4,1.4l-0.1,1.1c0,0.2,0,0.3,0.2,0.4l0.7,0.4c0,0,0.1,0,0.1,0c0,0,0.1,0,0.1,0
		c0.1,0,0.1-0.1,0.1-0.2l0.7-7C-199.9,379.1-199.9,379-200.1,378.9L-200.1,378.9z M-201.4,381.1l-0.2,2.1l-1.5-0.9L-201.4,381.1z"/>
	<path class="st13" d="M-191.2,382.9c0-0.1-0.1-0.1-0.1-0.1l-0.8-0.3c-0.1,0-0.1,0-0.2,0c-0.1,0-0.1,0.1-0.1,0.1l-1.2,3.6l-2.3-5.1
		l-0.2-0.1c-0.1,0-0.1,0-0.2,0c-0.1,0-0.1,0.1-0.1,0.1l-2.1,6c0,0.1,0,0.3,0.1,0.3l0.8,0.3c0.1,0,0.3,0,0.3-0.1l1.3-3.7l2.3,5.3l0,0
		l0.2,0.1c0,0,0.1,0,0.1,0c0,0,0.1,0,0.1,0c0.1,0,0.1-0.1,0.1-0.1l2.1-6C-191.2,383.1-191.2,383-191.2,382.9z"/>
</g>
<g>
	<path class="st13" d="M-182.5,383.9l-3.8-0.3c-0.1,0-0.2,0.1-0.2,0.2l-0.4,6.2c0,0.1,0,0.1,0.1,0.2c0,0,0.1,0.1,0.2,0.1l0.9,0.1
		c0,0,0,0,0,0c0.1,0,0.1,0,0.2-0.1c0,0,0.1-0.1,0.1-0.2l0.2-2.3l2.3,0.2c0.1,0,0.1,0,0.2-0.1c0,0,0.1-0.1,0.1-0.2l0.1-0.8
		c0-0.1,0-0.1-0.1-0.2c0,0-0.1-0.1-0.2-0.1l-2.3-0.2l0.1-1.7l2.7,0.2c0.1,0,0.1,0,0.2-0.1c0,0,0.1-0.1,0.1-0.2l0.1-0.8
		C-182.3,384.1-182.4,383.9-182.5,383.9z"/>
	<path class="st13" d="M-176.9,387.5c0.8-0.5,1.3-1.2,1.2-2.1c-0.1-1.1-1.2-2-2.3-1.8l-2.7,0.3c-0.1,0-0.2,0.1-0.2,0.3l0.7,6.2
		c0,0.1,0,0.1,0.1,0.2c0,0,0.1,0.1,0.1,0.1c0,0,0,0,0,0l0.9-0.1c0.1,0,0.2-0.1,0.2-0.3l-0.3-2.3l1-0.1l1.5,2.3c0,0,0.1,0.1,0.2,0.1
		l1-0.1c0.1,0,0.2-0.1,0.2-0.1c0-0.1,0-0.2,0-0.2L-176.9,387.5z M-177.1,385.6c0.1,0.5-0.3,0.9-0.8,1l-1.5,0.2l-0.2-1.8l1.5-0.2
		C-177.6,384.8-177.1,385.1-177.1,385.6z"/>
	<path class="st13" d="M-173.1,382.7c-0.1,0-0.1,0-0.2,0l-0.9,0.2c-0.1,0-0.2,0.2-0.2,0.3l1.6,6.1c0,0.1,0.1,0.1,0.1,0.1
		c0,0,0.1,0,0.1,0c0,0,0,0,0.1,0l0.9-0.2c0.1,0,0.1-0.1,0.1-0.1c0-0.1,0-0.1,0-0.2l-1.6-6.1C-173,382.8-173.1,382.7-173.1,382.7z"/>
	<path class="st13" d="M-165,385.7c0-0.1-0.1-0.1-0.1-0.1c-0.1,0-0.1,0-0.2,0l-2.5,1l-0.6-1.4l2.1-0.9c0.1,0,0.2-0.2,0.1-0.3
		l-0.3-0.7c0-0.1-0.2-0.2-0.3-0.1l-2.1,0.9l-0.5-1.3l2.5-1c0.1,0,0.2-0.2,0.1-0.3l-0.3-0.7c0-0.1-0.2-0.2-0.3-0.1l-3.6,1.4
		c-0.1,0-0.2,0.2-0.1,0.3l2.4,5.8c0,0.1,0.1,0.1,0.1,0.1c0,0,0.1,0,0.1,0c0,0,0.1,0,0.1,0l3.6-1.4c0.1,0,0.1-0.1,0.1-0.1
		c0-0.1,0-0.1,0-0.2L-165,385.7z"/>
</g>
<g>
	<path class="st13" d="M-160.9,376.9c0,0-0.1-0.1-0.1-0.1c-0.1,0-0.1,0-0.2,0l-0.7,0.5c-0.1,0.1-0.1,0.2-0.1,0.3l2.1,3.2l-5.5-1.3
		l0,0l-0.2,0.1c0,0-0.1,0.1-0.1,0.1c0,0.1,0,0.1,0,0.2l3.5,5.3c0,0,0.1,0.1,0.1,0.1c0,0,0,0,0.1,0c0,0,0.1,0,0.1,0l0.7-0.5
		c0.1-0.1,0.1-0.2,0.1-0.3l-2.2-3.3l5.6,1.4l0,0l0.2-0.1c0.1-0.1,0.1-0.2,0.1-0.3L-160.9,376.9z"/>
	<path class="st13" d="M-155.5,372.8C-155.5,372.8-155.5,372.8-155.5,372.8c-0.9,0-1.8,0.4-2.4,1l-1.6,1.6c0,0-0.1,0.1-0.1,0.2
		c0,0.1,0,0.1,0.1,0.2l4.4,4.4c0,0,0.1,0.1,0.2,0.1c0.1,0,0.1,0,0.2-0.1l1.6-1.6c0.6-0.6,1-1.5,1-2.4c0-0.9-0.4-1.7-1-2.4
		C-153.7,373.1-154.6,372.8-155.5,372.8z M-154.1,377.7l-0.7,0.7l-3-3l0.7-0.7c0.8-0.8,2.1-0.8,3,0
		C-153.2,375.6-153.2,376.8-154.1,377.7z"/>
	<path class="st13" d="M-147.7,370.2c-0.1-0.1-0.3,0-0.3,0.1l-1.3,1.9l-4.3-3c0,0-0.1,0-0.2,0c-0.1,0-0.1,0-0.1,0.1l-0.5,0.7
		c0,0.1,0,0.1,0,0.2c0,0.1,0,0.1,0.1,0.1l5.1,3.6c0,0,0.1,0,0.1,0c0,0,0,0,0,0c0.1,0,0.1,0,0.1-0.1l2-2.8c0-0.1,0-0.1,0-0.2
		c0-0.1,0-0.1-0.1-0.2L-147.7,370.2z"/>
	<path class="st13" d="M-145.1,366.8l-2.7-1.3l-1.8-3.3c0-0.1-0.1-0.1-0.2-0.1c-0.1,0-0.2,0.1-0.2,0.1l-0.4,0.9c0,0.1,0,0.1,0,0.2
		l1.2,2.3l-2.5,0.4c-0.1,0-0.1,0.1-0.2,0.1l-0.4,0.9c0,0.1,0,0.2,0,0.2c0,0.1,0.1,0.1,0.2,0.1l3.8-0.5l2.7,1.3c0,0,0.1,0,0.1,0
		c0.1,0,0.2,0,0.2-0.1l0.4-0.8C-144.9,367-145,366.9-145.1,366.8z"/>
</g>
<g id="XMLID_5_">
	<path id="XMLID_97_" class="st13" d="M-201,296.6c-0.6,16.7-10.2,24.4-4.3,47.9c4.9,19.3,19.8,29,26.6,32.5
		c0.2-32.5-17.5-66.1-17.5-66.1c18.1,29.5,22.9,53.5,24.1,63c4.5-7.1,11.4-21.8,6.9-39.5C-171.2,310.8-199.4,296.5-201,296.6z"/>
</g>
<g>
	<path class="st14" d="M184.9,209.3c0,6-4.2,9.7-9.7,9.7c-6.2,0-10.7-4.6-10.7-10.3c0-5.7,4.5-10.3,10.4-10.3c3.8,0,7,1.9,8.6,4.5
		l-3.8,2.2c-0.8-1.3-2.6-2.3-4.8-2.3c-3.3,0-5.8,2.5-5.8,5.9c0,3.4,2.4,5.8,6.2,5.8c2.6,0,4.4-1.2,5.1-3.1H175v-4h9.9V209.3z"/>
	<path class="st14" d="M207.3,218.6h-4.5v-11.5l-5.1,8.4h-0.5l-5.1-8.4v11.5h-4.5v-19.8h4.5l5.4,8.8l5.4-8.8h4.5V218.6z"/>
	<path class="st14" d="M209.8,208.7c0-5.8,4.6-10.3,10.3-10.3c5.7,0,10.3,4.5,10.3,10.3s-4.6,10.3-10.3,10.3
		C214.4,219,209.8,214.5,209.8,208.7z M225.9,208.7c0-3.5-2.5-5.9-5.8-5.9s-5.8,2.3-5.8,5.9c0,3.5,2.5,5.9,5.8,5.9
		S225.9,212.2,225.9,208.7z"/>
</g>
<g>
	<path class="st15" d="M-131.9,98.9v11.6h-2l-4.5-6.3v6.3h-2.7V98.9h2l4.5,6.3v-6.3H-131.9z"/>
	<path class="st15" d="M-123.1,108.6h-4.3l-0.6,1.8h-2.9l3.9-11.6h3.4l3.9,11.6h-2.9L-123.1,108.6z M-123.9,106.2l-1.4-4.3l-1.4,4.3
		H-123.9z"/>
	<path class="st15" d="M-111.6,101.4h-3v9.1h-2.7v-9.1h-3v-2.6h8.6V101.4z"/>
	<path class="st15" d="M-110.6,106.7v-7.9h2.7v7.6c0,0.9,0.4,1.6,1.8,1.6s1.8-0.7,1.8-1.6v-7.6h2.7v7.9c0,2.5-1.9,4-4.5,4
		S-110.6,109.2-110.6,106.7z"/>
	<path class="st15" d="M-95.8,106.7H-97v3.8h-2.7V98.9h4.6c2.2,0,4,1.8,4,4c0,1.4-0.9,2.7-2.1,3.4l2.5,4.3h-2.9L-95.8,106.7z
		 M-97,104.3h2c0.7,0,1.3-0.6,1.3-1.5s-0.6-1.5-1.3-1.5h-2V104.3z"/>
	<path class="st15" d="M-82.7,108.6H-87l-0.6,1.8h-2.9l3.9-11.6h3.4l3.9,11.6h-2.9L-82.7,108.6z M-83.5,106.2l-1.4-4.3l-1.4,4.3
		H-83.5z"/>
	<path class="st15" d="M-71.4,107.9v2.6h-6.8V98.9h2.7v9.1H-71.4z"/>
</g>
<g>
	<path class="st1" d="M-134.4,60.4v23.3h-5.3V66l-4.1,1.1l-1.3-4.6l6.1-2.2H-134.4z"/>
	<path class="st1" d="M-131.1,72c0-7.2,3.5-12.1,9.5-12.1c6,0,9.5,4.9,9.5,12.1c0,7.2-3.5,12.1-9.5,12.1
		C-127.6,84.2-131.1,79.2-131.1,72z M-117.4,72c0-4.5-1.4-6.9-4.2-6.9c-2.8,0-4.2,2.4-4.2,6.9c0,4.5,1.4,6.9,4.2,6.9
		C-118.7,79-117.4,76.5-117.4,72z"/>
	<path class="st1" d="M-110,72c0-7.2,3.5-12.1,9.5-12.1c6,0,9.5,4.9,9.5,12.1c0,7.2-3.5,12.1-9.5,12.1C-106.6,84.2-110,79.2-110,72z
		 M-96.4,72c0-4.5-1.4-6.9-4.2-6.9s-4.2,2.4-4.2,6.9c0,4.5,1.4,6.9,4.2,6.9S-96.4,76.5-96.4,72z"/>
	<path class="st1" d="M-89.3,65.6c0-3.1,2.5-5.7,5.8-5.7c3.3,0,5.8,2.4,5.8,5.7c0,3.1-2.5,5.7-5.8,5.7
		C-86.9,71.2-89.3,68.7-89.3,65.6z M-71.5,63.4l2.2,1.3l-15.1,16.7l-2.2-1.3L-71.5,63.4z M-81.8,65.6c0-1-0.7-1.8-1.8-1.8
		c-1,0-1.8,0.8-1.8,1.8s0.7,1.8,1.8,1.8C-82.5,67.4-81.8,66.5-81.8,65.6z M-77.4,78.4c0-3.1,2.5-5.7,5.8-5.7c3.3,0,5.8,2.5,5.8,5.7
		c0,3.1-2.5,5.7-5.8,5.7C-75,84.1-77.4,81.6-77.4,78.4z M-69.9,78.4c0-1-0.7-1.8-1.8-1.8c-1,0-1.8,0.8-1.8,1.8c0,1,0.7,1.8,1.8,1.8
		C-70.6,80.3-69.9,79.4-69.9,78.4z"/>
</g>
<g>
	<path class="st16" d="M-14.5,210.4c-1.5,0-2.9,0-4.3,0c0-12.9,0-25.7,0-38.5c0.2,0,0.4-0.1,0.5-0.1c13.1,0,26.3-0.1,39.4,0
		c6.8,0.1,12.2,3.1,16.1,8.8c1.2,1.8,2,3.8,2.5,5.9c0,0.2,0.1,0.4,0.2,0.8c0.4-0.7,0.8-1.2,1.1-1.7c2.7-4.4,5.3-8.7,8-13.1
		c0.1-0.2,0.4-0.4,0.6-0.4c1.5,0,3.1,0,4.8,0c-0.8,1.4-1.5,2.6-2.3,3.8c-2.6,4.3-5.1,8.6-7.7,12.9c-2.5,4.2-4.9,8.5-7.6,12.6
		c-2.6,4.1-6.3,7-11.1,8.3c-1.6,0.4-3.4,0.7-5.1,0.7c-4.6,0.1-9.1,0-13.7,0c-0.7,0-0.9-0.1-0.9-0.8c0-3.8,0-7.7,0-11.5
		c0-3.2,0-6.3-0.1-9.5c0-0.6,0.1-1,0.9-0.9c0.9,0.1,1.9,0,2.8,0c0.7,0,0.9,0.2,0.9,0.9c0,5.4,0,10.9,0,16.3c0,1.1,0,1.1,1.2,1.1
		c3,0,6,0.1,9,0c6.4-0.1,11.1-3.1,13.8-8.9c3-6.6,0.7-14.3-5.4-18.4c-2.6-1.8-5.5-2.6-8.7-2.6c-11.2,0-22.4,0-33.5,0
		c-1.4,0-1.4,0-1.4,1.5c0,10.6,0,21.2,0,31.8C-14.5,209.7-14.5,210-14.5,210.4z"/>
	<path class="st16" d="M4.7,178c5.5,0,10.9-0.1,16.4,0c5.1,0.1,9.5,2.9,11.7,7.8c2.3,5.1,1,11-2.9,14.8c-2.4,2.3-5.3,3.5-8.7,3.6
		c-2.7,0.1-5.3,0-8,0c-0.5,0-0.7-0.2-0.7-0.7c0-5,0-10.1,0-15.1c0-0.6,0.2-0.7,0.7-0.7c1,0,2,0,3,0c0.6,0,0.8,0.2,0.8,0.8
		c0,3.5,0,6.9,0,10.4c0,0.8,0.2,1,1,0.9c1.2-0.1,2.4,0,3.6-0.1c3.7-0.3,6.9-3.2,7.7-6.8c1.1-4.7-2.5-10.4-8.6-10.5
		c-9.3,0-18.6,0-28,0c-1.1,0-1,0-1,1.1c0,1.1,0,2.3,0,3.4c0,0.6,0.2,0.8,0.8,0.8c3.6,0,7.2,0,10.7,0c0.7,0,0.9,0.2,0.9,0.9
		c-0.1,1,0,2,0,3c0,0.5-0.1,0.6-0.6,0.6c-5.2,0-10.4,0-15.5,0c-0.5,0-0.6-0.2-0.6-0.6c0-4.3,0-8.5,0-12.8c0-0.6,0.2-0.8,0.8-0.8
		C-6.3,178-0.8,178,4.7,178C4.7,178,4.7,178,4.7,178z"/>
	<path class="st16" d="M33.8,210.4c6.9-11.5,13.7-22.9,20.7-34.4c5.7,9.4,11.3,18.7,17,28.1c-0.3,0-0.5,0-0.7,0
		c-7.3,0-14.5,0-21.8,0c-0.8,0-1-0.2-0.9-1c0.1-1.1,0-2.2,0-3.4c5.1,0,10.1,0,15.3,0c-3-5-5.9-9.9-8.9-14.8
		c-0.2,0.3-0.4,0.5-0.5,0.7c-4.6,8.1-9.2,16.1-13.8,24.2c-0.1,0.2-0.4,0.5-0.6,0.5C37.8,210.4,35.9,210.4,33.8,210.4z"/>
	<path class="st16" d="M54.6,172c1.7,0,3.3,0,4.8,0c0.2,0,0.5,0.3,0.6,0.5c2.4,3.8,4.7,7.7,7.1,11.5c3.3,5.5,6.7,10.9,10,16.4
		c0.4,0.6,0.5,1.1,0,1.7c-0.8,1.2-1.5,2.4-2.3,3.8C68.1,194.6,61.4,183.4,54.6,172z"/>
	<path class="st16" d="M-8.4,210.4c-1.4,0-2.8,0-4.2,0c0-0.3,0-0.6,0-0.9c0-4.8,0-9.7,0-14.5c0-0.7,0.2-0.9,0.9-0.9
		c5,0,10.1,0,15.1,0c0.6,0,0.8,0.2,0.8,0.7c0,1,0,2,0,3c0,0.6-0.2,0.8-0.8,0.8c-3.3,0-6.7,0-10,0c-0.1,0-0.2,0-0.3,0
		c-1.3,0-1.3,0-1.3,1.2c0,3.4,0,6.7,0,10.1C-8.4,210.1-8.4,210.2-8.4,210.4z"/>
	<path class="st16" d="M74.7,206.1c-0.8,1.3-1.5,2.5-2.2,3.7c-0.3,0.5-0.6,0.7-1.1,0.7c-7.5,0-15,0-22.5,0c-0.2,0-0.4,0-0.7,0
		c0-1.3,0-2.6,0-3.9c0-0.1,0.2-0.3,0.3-0.3c0.1-0.1,0.3,0,0.5,0c8.3,0,16.5,0,24.8,0C73.9,206.1,74.2,206.1,74.7,206.1z"/>
</g>
<path class="st17" d="M115.2-83.8c0.2-0.9,1.5-8.5,10.9-2.8c2.4,1.4,4.9,2.6,7.8,1.9l-1.9,3.5c0,0-3.9-0.5-7.9,1.2
	c-13.1,4.6-14.6-0.4-13.7-11.3c0,0-0.4,15.8-17,15.2c-0.5,0-0.8-0.5,0.1-0.7c10.8-1.7,14.8-10.1,16.3-22.4c0.2-1.3,1.9-1.6,2.1,0
	c0,0-0.4,11.5,1.9,16.7c0.8,1,2,2.5,11.1-0.4c0,0-5.1-3.6-8.5-0.6C115.8-82.9,115.1-83,115.2-83.8L115.2-83.8z M97.4-97.8
	c0,0,8.4,3.6,8,12.1c0,1-0.4,1.2-0.7,0.1c-0.3-1.4-1.5-4.7-5.5-6C98.6-91.8,95.6-93.2,97.4-97.8L97.4-97.8z M93.8-102.5
	c0.2,0.6,0.6,1.2,1.5,1.9c0.3,0.2,1.1,1.2-0.6,2.3c0,0,0.9,12.9,0.9,15.4c-0.4,7.5-13.4,9.1-15.3,2.8c-0.4-1.5-0.2-3.8,2.1-7.2
	c0.5-0.6,0.6-0.1,0.4,0.4c-3.1,9.7,10.4,8.1,10.6,3.2c0-1.3-0.6-12.9-1.2-14.5c-0.4-0.3-1.8-2.7,0.4-4.6
	C93.1-103.2,93.7-103.5,93.8-102.5L93.8-102.5z"/>
<path class="st18" d="M-158.7,151.6h-8.3c-4.6,0-8.5,3.8-8.5,8.5v12.7l-9,9c-3.3,3.3-3.3,8.7,0,12l9,9v12.7c0,4.6,3.8,8.5,8.5,8.5
	h12.7l9,9c3.3,3.3,8.7,3.3,12,0l9-9h12.7c4.6,0,8.5-3.8,8.5-8.5v-11.9c5.6-6.6,8.9-15.2,8.9-24.5c0-21.1-17.1-38.1-38.1-38.1
	C-142.5,140.9-151.8,145-158.7,151.6L-158.7,151.6z"/>
<path class="st19" d="M-132.2,145.1c-18.8,0-34,15.2-34,34c0,18.8,15.2,34,34,34c18.8,0,34-15.2,34-34
	C-98.2,160.3-113.5,145.1-132.2,145.1L-132.2,145.1z"/>
<path class="st18" d="M-123.1,172.5c0.2-0.9,1.5-8.5,10.9-2.8c2.4,1.4,4.9,2.6,7.8,1.9l-1.9,3.5c0,0-3.9-0.5-7.9,1.2
	c-13.1,4.6-14.6-0.4-13.7-11.3c0,0-0.4,15.8-17,15.2c-0.5,0-0.8-0.5,0.1-0.7c10.8-1.7,14.8-10.1,16.3-22.4c0.2-1.3,1.9-1.6,2.1,0
	c0,0-0.4,11.5,1.9,16.7c0.8,1,2,2.5,11.1-0.4c0,0-5.1-3.6-8.5-0.6C-122.6,173.4-123.2,173.4-123.1,172.5L-123.1,172.5z
	 M-140.9,158.6c0,0,8.4,3.6,8,12.1c0,1-0.4,1.2-0.7,0.1c-0.3-1.4-1.5-4.7-5.5-6C-139.7,164.5-142.7,163.1-140.9,158.6L-140.9,158.6z
	 M-144.5,153.8c0.2,0.6,0.6,1.2,1.5,1.9c0.3,0.2,1.1,1.2-0.6,2.3c0,0,0.9,12.9,0.9,15.4c-0.4,7.5-13.4,9.1-15.3,2.8
	c-0.4-1.5-0.2-3.8,2.1-7.2c0.5-0.6,0.6-0.1,0.4,0.4c-3.1,9.7,10.4,8.1,10.6,3.2c0-1.3-0.6-12.9-1.2-14.5c-0.4-0.3-1.8-2.7,0.4-4.6
	C-145.2,153.1-144.6,152.9-144.5,153.8L-144.5,153.8z"/>
<path class="st20" d="M-155.4,193.8v-9.5h2.2v3.5h3.7v-3.5h2.2v9.5h-2.2v-4h-3.7v4H-155.4L-155.4,193.8z M-141.9,190.7h2.5l-1.2-3
	L-141.9,190.7L-141.9,190.7z M-145.4,193.8l4.8-9.8h0.1l4.7,9.8h-2.4l-0.6-1.4h-3.9l-0.6,1.4H-145.4L-145.4,193.8z M-133.8,193.8
	v-9.5h2.3v7.5h3.7v2H-133.8L-133.8,193.8z M-122.7,190.7h2.5l-1.2-3L-122.7,190.7L-122.7,190.7z M-126.2,193.8l4.8-9.8h0.1l4.7,9.8
	h-2.4l-0.6-1.4h-3.9l-0.6,1.4H-126.2L-126.2,193.8z M-114.7,193.8v-9.5h2.3v7.5h3.7v2H-114.7L-114.7,193.8z"/>
<path class="st20" d="M-143,205v-6.1h-1.3l0.2-1.3h2.7v7.4H-143L-143,205z M-137.5,201.3c0,0.7,0.1,1.3,0.3,1.7
	c0.2,0.4,0.4,0.6,0.7,0.6c0.3,0,0.5-0.2,0.7-0.6c0.2-0.4,0.3-1,0.3-1.7c0-0.7-0.1-1.3-0.3-1.7c-0.2-0.4-0.4-0.6-0.7-0.6
	c-0.3,0-0.5,0.2-0.7,0.6C-137.4,199.9-137.5,200.5-137.5,201.3L-137.5,201.3z M-139.1,201.3c0-1.2,0.2-2.2,0.7-2.9
	c0.5-0.7,1.1-1,1.9-1c0.8,0,1.5,0.3,2,1c0.5,0.7,0.7,1.7,0.7,2.9c0,1.2-0.2,2.2-0.7,2.9c-0.5,0.7-1.1,1-2,1c-0.8,0-1.5-0.3-1.9-1
	C-138.9,203.5-139.1,202.5-139.1,201.3L-139.1,201.3z M-131.5,201.3c0,0.7,0.1,1.3,0.3,1.7c0.2,0.4,0.4,0.6,0.7,0.6
	c0.3,0,0.5-0.2,0.7-0.6c0.2-0.4,0.3-1,0.3-1.7c0-0.7-0.1-1.3-0.3-1.7c-0.2-0.4-0.4-0.6-0.7-0.6c-0.3,0-0.5,0.2-0.7,0.6
	C-131.5,199.9-131.5,200.5-131.5,201.3L-131.5,201.3z M-133.2,201.3c0-1.2,0.2-2.2,0.7-2.9c0.5-0.7,1.1-1,1.9-1c0.8,0,1.5,0.3,2,1
	c0.5,0.7,0.7,1.7,0.7,2.9c0,1.2-0.2,2.2-0.7,2.9c-0.5,0.7-1.1,1-2,1c-0.8,0-1.5-0.3-1.9-1C-133,203.5-133.2,202.5-133.2,201.3
	L-133.2,201.3z M-121.6,197.3h0.8l-4.7,7.9h-0.8L-121.6,197.3L-121.6,197.3z M-122.4,203.3c0,0.2,0.1,0.4,0.2,0.6
	c0.2,0.2,0.3,0.2,0.6,0.2c0.2,0,0.4-0.1,0.6-0.2c0.2-0.2,0.2-0.4,0.2-0.6c0-0.2-0.1-0.4-0.2-0.6c-0.2-0.2-0.4-0.2-0.6-0.2
	c-0.2,0-0.4,0.1-0.6,0.2C-122.3,202.9-122.4,203.1-122.4,203.3L-122.4,203.3z M-123.5,203.3c0-0.5,0.2-1,0.6-1.3
	c0.4-0.4,0.8-0.6,1.3-0.6c0.5,0,1,0.2,1.3,0.5s0.6,0.8,0.6,1.3c0,0.5-0.2,1-0.6,1.3c-0.4,0.4-0.8,0.6-1.3,0.6c-0.5,0-1-0.2-1.3-0.6
	C-123.3,204.3-123.5,203.8-123.5,203.3L-123.5,203.3z M-126.4,199.2c0,0.2,0.1,0.4,0.2,0.6c0.2,0.2,0.3,0.2,0.6,0.2
	c0.2,0,0.4-0.1,0.6-0.2c0.2-0.2,0.2-0.4,0.2-0.6c0-0.2-0.1-0.4-0.2-0.6c-0.2-0.2-0.3-0.2-0.6-0.2c-0.2,0-0.4,0.1-0.6,0.2
	C-126.4,198.8-126.4,199-126.4,199.2L-126.4,199.2z M-127.5,199.2c0-0.5,0.2-1,0.5-1.3c0.4-0.4,0.8-0.5,1.3-0.5c0.5,0,1,0.2,1.3,0.5
	c0.4,0.4,0.5,0.8,0.5,1.3c0,0.5-0.2,1-0.6,1.3c-0.4,0.4-0.8,0.5-1.3,0.5c-0.5,0-1-0.2-1.3-0.5C-127.3,200.2-127.5,199.7-127.5,199.2
	L-127.5,199.2z"/>
<path id="SVGID_x5F_1_x5F_" style="fill-rule:evenodd;clip-rule:evenodd;fill:none;" d="M-92.8,195.6c9.3-21.7-0.9-46.9-22.6-56.1
	s-46.9,0.9-56.1,22.6c-9.3,21.7,0.9,46.9,22.6,56.1C-127.2,227.5-102,217.3-92.8,195.6z"/>
<text><textPath  xlink:href="#SVGID_x5F_1_x5F_" startOffset="82.2673%">
<tspan  class="st1" style="font-family:'Gilroy-ExtraBold'; font-size:8.1663px; letter-spacing:25;">HALAL FRIENDLY</tspan></textPath>
</text>
<path class="st18" d="M35.7-104.9c19.7,0,35.8,15,37.5,34.2c1.5,0.4,3,0.5,4.6,0.1l2.5-0.5c2.3-0.5,2.9,0.7,1.5,3.2L77-59l-1.9-0.2
	c-0.8-0.1-1.6-0.1-2.5-0.1c-0.3,1.5-0.7,3-1.2,4.5h3.6v8.8h4.4v6.2H61.7c-6.8,6.4-15.9,10.4-25.9,10.4c-15.2,0-28.3-9-34.2-21.9
	c-5.1-0.5-9.6-3.2-11.1-8.2c-1.4-4.7,1.1-10,3.7-13.8l0.1-0.1l0.1-0.1c1-1.3,2.6-2.1,4.2-1.3c0.2,0.1,0.3,0.2,0.4,0.3
	c1.4-6.8,4.6-13,9.1-17.9c-0.1-2.5,1.1-4.7,2.9-6.3c1.7-1.5,3.8-1.6,5.2-0.4C21.8-102.9,28.5-104.9,35.7-104.9L35.7-104.9z
	 M68.4-48.5L68.4-48.5L68.4-48.5L68.4-48.5L68.4-48.5z"/>
<path class="st19" d="M48.7-66.4c0.3-1.4,2.4-13.5,17.4-4.4c3.8,2.2,7.7,4.1,12.4,3.1l-3.1,5.6c0,0-6.3-0.8-12.6,1.9
	c-20.9,7.3-23.3-0.6-21.9-18c0,0-0.7,25.1-27.1,24.3c-0.7,0.1-1.2-0.8,0.2-1.1c17.2-2.8,23.6-16,26-35.7c0.3-2.1,3.1-2.5,3.3,0
	c0,0-0.6,18.3,3,26.6c1.2,1.7,3.2,4,17.6-0.6c0,0-8.2-5.7-13.5-1C49.5-65,48.6-65,48.7-66.4L48.7-66.4z M20.2-88.7
	c0,0,13.4,5.7,12.7,19.2c-0.1,1.6-0.7,2-1.1,0.2c-0.5-2.3-2.5-7.5-8.8-9.6C22.1-79.2,17.5-81.3,20.2-88.7L20.2-88.7z M14.6-96.2
	c0.3,1,0.9,2,2.4,3.1c0.4,0.3,1.7,1.9-1,3.6c0,0,1.4,20.5,1.5,24.6C16.9-53-3.9-50.4-6.9-60.5c-0.7-2.4-0.3-6,3.3-11.5
	c0.8-1,1-0.2,0.6,0.7c-4.9,15.5,16.6,12.9,16.9,5c-0.1-2.1-0.9-20.5-2-23.2c-0.7-0.5-2.9-4.2,0.7-7.3C13.4-97.4,14.3-97.8,14.6-96.2
	L14.6-96.2z"/>
<path class="st1" d="M27.8-41.8V-53h2.6v4.1h4.3V-53h2.6v11.2h-2.6v-4.7h-4.3v4.7H27.8L27.8-41.8z M42.4-45.4h2.9l-1.4-3.5
	L42.4-45.4L42.4-45.4z M38.2-41.8l5.7-11.5h0.2l5.6,11.5h-2.8l-0.7-1.6h-4.5l-0.7,1.6H38.2L38.2-41.8z M50.5-41.8V-53h2.7v8.8h4.4
	v2.4H50.5L50.5-41.8z M62.3-45.4h2.9l-1.4-3.5L62.3-45.4L62.3-45.4z M58.1-41.8l5.7-11.5h0.2l5.6,11.5h-2.8L66-43.4h-4.5l-0.7,1.6
	H58.1L58.1-41.8z M70.3-41.8V-53H73v8.8h4.4v2.4H70.3L70.3-41.8z"/>
<g>
	<path class="st20" d="M11-34.4l-4.4,4.5l-1-1l1.7-1.8L6-34.1l-1.7,1.8l-1-1l4.4-4.5l1,1l-1.7,1.7l1.4,1.4l1.7-1.7L11-34.4z"/>
	<path class="st20" d="M11.7-27.4l-1.9-1.4L9-28.1L7.7-29l5.4-3.9l1.5,1.1l-1.9,6.3l-1.3-0.9L11.7-27.4z M12.2-28.7l0.7-2.3L11-29.6
		L12.2-28.7z"/>
	<path class="st20" d="M17.7-24.3l-0.7,1.2l-3.2-1.7l3-5.5l1.3,0.7l-2.3,4.3L17.7-24.3z"/>
	<path class="st20" d="M22.3-22l-2.2-0.8l-0.6,0.8L18-22.6l4.2-5.1l1.7,0.7l-0.2,6.6L22.2-21L22.3-22z M22.3-23.5l0.1-2.4L21-24
		L22.3-23.5z"/>
	<path class="st20" d="M28.8-20.6l-0.3,1.3l-3.6-0.9l1.5-6.1l1.4,0.3l-1.1,4.8L28.8-20.6z"/>
	<path class="st20" d="M34.2-23.5l-0.1,1.2l2.3,0.2l-0.1,1.4L34-20.9l-0.2,2.3l-1.4-0.1l0.4-6.3l3.8,0.3l-0.1,1.4L34.2-23.5z"/>
	<path class="st20" d="M39.8-20.6l-0.7,0l0.1,2.1l-1.4,0.1l-0.3-6.3l2.5-0.1c1.2-0.1,2.2,0.8,2.3,2c0,0.8-0.4,1.5-1.1,1.9l1.5,2.2
		l-1.5,0.1L39.8-20.6z M39-21.8l1.1-0.1c0.4,0,0.7-0.4,0.7-0.8c0-0.5-0.4-0.8-0.8-0.8L39-23.4L39-21.8z"/>
	<path class="st20" d="M44.4-25.3l0.9,6.2l-1.4,0.2L43-25.1L44.4-25.3z"/>
	<path class="st20" d="M50.5-21.7l0.3,1.3L47-19.4l-1.5-6.1l3.8-0.9l0.3,1.3l-2.4,0.6l0.2,1l2.2-0.5l0.3,1.3l-2.2,0.5l0.3,1.1
		L50.5-21.7z"/>
	<path class="st20" d="M54.6-28.4l2.3,5.8l-1,0.4l-3.5-2.3l1.2,3.2l-1.3,0.5L50-26.6l1-0.4l3.5,2.3l-1.2-3.2L54.6-28.4z"/>
	<path class="st20" d="M61.9-28.9c0.9,1.5,0.4,3.4-1.1,4.2l-2.2,1.3l-3.1-5.4l2.2-1.3C59.2-31,61-30.4,61.9-28.9z M60.7-28.2
		c-0.5-0.9-1.5-1.2-2.3-0.7l-0.9,0.5l1.8,3l0.9-0.5C61-26.3,61.2-27.3,60.7-28.2z"/>
	<path class="st20" d="M66.8-30.5l0.8,1.1l-2.9,2.2l-3.8-5l1.1-0.9l3,3.9L66.8-30.5z"/>
	<path class="st20" d="M68.5-33.5l1.7,1.8l-1,1l-1.7-1.8l-4.2-1.4l1.2-1.1L67-34l-0.8-2.6l1.2-1.1L68.5-33.5z"/>
</g>
<path class="st21" d="M50.6,4.1c1.3,0.8,2.5,1.5,3.8,2.3c0.2,0.1,0.4,0,0.7,0C56.4,6,57.7,5.5,59,5.2c0.3-0.1,0.7,0,0.9,0.2
	c0.9,0.8,1.8,1.6,2.7,2.4c0.2,0.2,0.6,0.3,1,0.3c1.3-0.1,2.7-0.2,4-0.3c0.3,0,0.7,0.2,0.8,0.4c0.8,0.9,1.5,1.9,2.2,2.9
	c0.2,0.2,0.6,0.5,0.9,0.5c1.3,0.2,2.6,0.3,3.9,0.5c0.4,0,0.7,0.2,0.9,0.6c0.5,1.1,1,2.1,1.6,3.2c0.1,0.3,0.4,0.5,0.7,0.6
	c1.2,0.4,2.5,0.9,3.8,1.2c0.5,0.1,0.7,0.4,0.8,0.9c0.3,1.1,0.5,2.2,0.9,3.3c0.1,0.3,0.4,0.7,0.7,0.9c1.1,0.7,2.3,1.3,3.5,1.9
	c0.4,0.2,0.5,0.4,0.5,0.8c0.1,1.2,0.1,2.4,0.2,3.5c0,0.3,0.2,0.7,0.4,0.9c1,0.9,2,1.8,3.1,2.6c0.3,0.3,0.4,0.5,0.4,0.9
	c-0.2,1.1-0.3,2.3-0.5,3.4c-0.1,0.5,0,0.8,0.3,1.2c0.8,1,1.6,2,2.4,3c0.3,0.4,0.3,0.7,0.2,1.1c-0.4,1.1-0.8,2.2-1.1,3.3
	c-0.1,0.3-0.1,0.7,0.1,1c0.5,1.1,1.1,2.2,1.7,3.3c0.3,0.5,0.3,0.9,0,1.4c-0.6,0.9-1.1,1.9-1.6,2.8c-0.2,0.3-0.2,0.8-0.1,1.1
	c0.3,1.3,0.7,2.5,1.1,3.7c0.1,0.4,0.1,0.7-0.2,1c-0.8,0.9-1.6,1.8-2.3,2.7c-0.2,0.2-0.3,0.6-0.3,0.9c0.1,1.3,0.2,2.7,0.3,4
	c0,0.4-0.1,0.7-0.4,1c-1,0.7-1.9,1.4-2.9,2.2c-0.2,0.2-0.4,0.5-0.4,0.7c-0.2,1.4-0.3,2.8-0.5,4.2c0,0.2-0.3,0.5-0.5,0.6
	c-1.1,0.6-2.2,1.1-3.3,1.6c-0.3,0.1-0.5,0.4-0.6,0.7c-0.4,1.3-0.9,2.5-1.2,3.8c-0.1,0.4-0.3,0.6-0.7,0.7c-1.2,0.3-2.3,0.6-3.5,0.9
	c-0.3,0.1-0.6,0.3-0.8,0.6c-0.7,1.1-1.3,2.2-1.9,3.3c-0.3,0.5-0.6,0.7-1.2,0.7c-1.1,0-2.2,0.1-3.3,0.2c-0.3,0-0.7,0.2-0.9,0.5
	c-0.9,1-1.8,2.1-2.7,3.1c-0.2,0.2-0.5,0.3-0.8,0.3c-1.2-0.1-2.5-0.3-3.7-0.5c-0.3,0-0.6,0.1-0.8,0.2c-1.1,0.8-2.1,1.7-3.2,2.5
	c-0.2,0.2-0.6,0.2-0.9,0.2c-1.1-0.3-2.2-0.8-3.4-1.1c-0.3-0.1-0.8-0.1-1.1,0.1c-1.2,0.5-2.3,1.1-3.5,1.8c-0.4,0.2-0.7,0.2-1.1,0
	c-1-0.6-2-1.1-2.9-1.7c-0.4-0.2-0.8-0.3-1.2-0.2c-1.2,0.4-2.5,0.7-3.7,1.1c-0.4,0.1-0.7,0-1-0.3c-0.9-0.8-1.8-1.6-2.7-2.4
	c-0.2-0.2-0.6-0.3-0.8-0.3c-1.4,0.1-2.8,0.2-4.2,0.3c-0.3,0-0.6-0.1-0.8-0.3c-0.8-1-1.5-2-2.3-2.9c-0.2-0.2-0.5-0.4-0.8-0.5
	c-1.3-0.2-2.6-0.3-3.9-0.5c-0.5,0-0.7-0.2-0.9-0.7c-0.5-1-1-2-1.5-3.1c-0.2-0.4-0.4-0.6-0.9-0.8c-1.2-0.4-2.5-0.8-3.7-1.2
	c-0.4-0.1-0.7-0.4-0.8-0.8c-0.3-1.1-0.6-2.2-0.8-3.3c-0.1-0.4-0.3-0.7-0.7-0.9c-1.2-0.6-2.4-1.3-3.5-2c-0.2-0.1-0.4-0.5-0.4-0.7
	c-0.1-1.2-0.2-2.5-0.3-3.7c0-0.3-0.2-0.6-0.4-0.8c-1-0.9-2-1.7-3-2.6c-0.3-0.3-0.5-0.6-0.4-1c0.2-1.1,0.4-2.3,0.5-3.4
	c0-0.3-0.1-0.8-0.3-1c-0.8-1.1-1.6-2.1-2.5-3.2c-0.2-0.3-0.3-0.6-0.2-0.9c0.4-1.1,0.8-2.2,1.2-3.3c0.2-0.4,0.1-0.8-0.1-1.2
	c-0.6-1.2-1.2-2.4-1.8-3.5c-0.2-0.3-0.2-0.6,0-0.9c0.6-1,1.3-2.1,1.9-3.2c0.1-0.2,0.2-0.6,0.1-0.9c-0.3-1.3-0.7-2.6-1.1-3.9
	C5,41,5,40.7,5.4,40.3c0.8-0.9,1.6-1.8,2.4-2.7C7.9,37.4,8.1,37,8,36.7c-0.1-1.3-0.2-2.7-0.3-4c0-0.4,0.1-0.6,0.4-0.9
	c1-0.7,1.9-1.4,2.9-2.2c0.2-0.2,0.5-0.6,0.5-0.9c0.2-1.3,0.3-2.6,0.5-3.9c0-0.4,0.2-0.7,0.6-0.9c1-0.5,2-1,3-1.4
	c0.5-0.2,0.7-0.5,0.9-1c0.4-1.2,0.8-2.5,1.2-3.7c0.1-0.3,0.4-0.5,0.7-0.6c1.2-0.4,2.3-0.6,3.5-1c0.3-0.1,0.6-0.3,0.8-0.6
	c0.7-1.2,1.3-2.4,2-3.6c0.1-0.2,0.5-0.4,0.8-0.5c1.2-0.1,2.4-0.1,3.6-0.3c0.3,0,0.7-0.2,0.9-0.5c0.9-1,1.7-2,2.6-3
	c0.3-0.3,0.5-0.4,0.9-0.4c1.1,0.2,2.3,0.4,3.4,0.5c0.4,0,0.8-0.1,1.1-0.3c1.1-0.8,2.1-1.6,3.1-2.4c0.3-0.3,0.6-0.3,1-0.2
	c1.2,0.4,2.3,0.8,3.5,1.2c0.2,0.1,0.5,0.1,0.6,0c1.4-0.7,2.9-1.5,4.3-2.2C50.5,4.1,50.6,4.1,50.6,4.1z M92.6,50.2
	c0-23.4-19-42.4-42.4-42.5C26.7,7.7,7.7,26.7,7.6,50.2c0,23.5,19,42.5,42.5,42.5C73.6,92.7,92.6,73.6,92.6,50.2z"/>
<path class="st1" d="M92.6,50.2c0,23.4-19,42.5-42.5,42.5c-23.5,0-42.5-19-42.5-42.5c0-23.5,19-42.5,42.5-42.5
	C73.6,7.8,92.6,26.8,92.6,50.2z M50.1,92.1c23.1,0,41.8-18.7,41.9-41.8C92,27.2,73.3,8.4,50.2,8.3C27.1,8.2,8.3,27,8.2,50.1
	C8.2,73.3,26.9,92,50.1,92.1z"/>
<path class="st21" d="M50.1,92.1c-23.2,0-41.9-18.8-41.8-42c0-23.1,18.9-41.8,42-41.8C73.3,8.4,92,27.2,92,50.2
	C91.9,73.4,73.2,92.1,50.1,92.1z"/>
<path d="M18.8,50.2c0,17.3,14,31.3,31.3,31.3c17.2,0,31.3-14,31.3-31.3c0-17.3-14-31.3-31.3-31.3C32.8,18.9,18.8,32.9,18.8,50.2z"/>
<path class="st1" d="M18.8,50.2c0-17.3,14-31.3,31.3-31.3c17.3,0,31.3,14,31.3,31.3c0,17.2-14,31.3-31.3,31.3
	C32.8,81.5,18.8,67.5,18.8,50.2z M28.5,44.6c-0.3,0.8-0.6,1.6-0.9,2.3c-1.1,3.1-2,6.3-1.8,9.7c0.1,3.4,1.9,5.5,5,6
	c1.1,0.2,2.3,0.1,3.4,0c2.9-0.2,5.2-1.4,6.3-4.4c0.1-0.2,0.4-0.4,0.7-0.4c1.5-0.1,3-0.2,4.4-0.3c3.5-0.2,5.9-1.9,7.1-5.2
	c0.7-2,1.3-4,1.9-6c0-0.1,0.1-0.3,0.2-0.6c0.1,2,0.2,3.8,0.4,5.7c0.1,1.4,0.4,2.8,1.1,4c0.5,0.8,1.1,1.2,2.1,1.2
	c5.7,0,11.5,0,17.2,0c0.2,0,0.4,0,0.7,0c0-1.3,0-2.5,0-3.8c-0.9,0.3-1.5-0.3-2-0.8c-1.3-1.6-2.6-3.2-4-4.7c-0.9-1-1.9-1.9-2.9-2.8
	c-0.7-0.5-1.5-0.8-2.4-0.7c-1.7,0.1-3.3,1.9-3.5,4c0.1,0,0.3,0,0.4,0c1.7-0.3,3.4,0.1,4.7,1.1c1.5,1.2,2.8,2.5,4.1,3.8
	c0,0,0,0.1,0,0.2c-4.2,0-8.4,0-12.5,0c-0.3,0-0.6-0.2-0.8-0.4C57.2,52,57,51.5,56.9,51c-0.3-1.5-0.5-3.1-0.7-4.7
	c-0.5-4.5-0.9-9-1.3-13.5c-0.1-0.9-0.2-1.8-0.3-2.7c-0.4,1-0.7,1.9-1,2.9c-0.1,0.3-0.1,0.6,0,0.9c0.4,2.8,0.7,5.5,0.6,8.3
	c-0.2,4.3-1.9,7.8-5.3,10.4c-2.4,1.9-5.2,3.1-8,4.3c0,0-0.1,0,0,0c0.5-7.5-0.8-14.9-1.4-22.4c0.3,0.1,0.6,0.2,1,0.3
	c0.1-1.1,0.2-2.2,0.3-3.2c0.1-0.7-0.1-1.2-0.7-1.5c-1-0.5-1.9-1.2-1.8-2.5c0,0-0.1,0-0.1,0c0,0-0.1,0.1-0.1,0.1
	c-0.6,1.6-0.8,3.3-0.8,5c0,0.1,0.1,0.4,0.2,0.4c0.6,0.3,0.6,0.9,0.6,1.5c0.4,3.1,0.7,6.2,1,9.4c0.3,3.2,0.5,6.4,0.8,9.7
	c0.1,1.4-0.5,2.5-1.6,3.3c-2.1,1.5-4.4,2.1-7,1.8c-2.1-0.2-3.6-1.3-4-3.4c-0.3-1.2-0.3-2.5-0.2-3.8c0.2-2.2,1-4.2,1.8-6.2
	C29,45,29,44.8,28.5,44.6z M52.2,46.5c0.3-1.5,0.2-2.8-0.2-4.1c-1.4-5-4.5-8.6-8.7-11.4c-0.2-0.1-0.4-0.2-0.7-0.3
	c-0.9-0.3-1.3-0.1-1.3,0.9c-0.1,2.9,1.1,5.1,3.3,6.8c0.7,0.5,1,0.5,1.4-0.3c0.3-0.5,0.6-0.6,1-0.3c0.4,0.3,0.9,0.7,1.2,1.2
	c1.5,2,2.7,4.3,3.6,6.6C52,45.8,52.1,46.1,52.2,46.5z M35.2,72.7c1.2,0,2.4,0,3.6,0c-0.9-0.1-0.9-0.6-0.9-1.3c0-1.2,0-2.5,0-3.7
	c0-0.6,0-1.2,0.9-1.2c-1.2,0-2.4,0-3.4,0c0.2,0.2,0.6,0.4,0.6,0.6c0.1,0.7,0,1.4,0,2.2c-0.9,0-1.8,0-2.7,0c0-0.6,0-1.1,0-1.6
	c0-0.7,0.1-1.1,0.9-1.2c-1.2,0-2.4,0-3.5,0c0.7,0,0.9,0.5,0.9,1.1c0,1.3,0,2.5,0,3.8c0,0.7,0,1.3-0.9,1.4c1.2,0,2.4,0,3.4,0
	c-0.2-0.2-0.6-0.5-0.7-0.8c-0.1-0.7,0-1.4,0-2.2c0.9,0,1.8,0,2.7,0c0,0.6,0,1.1,0,1.7C36.2,72.1,36.1,72.6,35.2,72.7z M48,72.6
	c2.1,0,4.3,0,6.4,0c0.1-0.7,0.2-1.4,0.3-2.2c-0.4,0.6-0.7,1.3-1.1,1.5c-0.6,0.3-1.3,0.4-2,0.4c-0.9,0.1-1-0.1-1-1c0-1.2,0-2.5,0-3.7
	c0-1,0-1,1.1-1.2c-1.3,0-2.5,0-3.7,0c0.7,0.1,0.8,0.5,0.8,1.2c0,1.3,0,2.6,0,3.9C48.8,72.1,48.7,72.6,48,72.6z M57.7,72.7
	c-1.1-0.4-1.2-0.6-0.7-1.4c0.1-0.2,0.4-0.3,0.6-0.3c0.6,0,1.2,0,1.8,0c0.4,0,1,0.6,1,1.2c0,0.2-0.3,0.4-0.5,0.6c0.9,0,2,0,3,0
	c-0.3-0.4-0.7-0.9-1-1.4c-0.9-1.6-1.8-3.3-2.7-5.1c-0.9,1.6-1.7,3.2-2.6,4.7c-0.4,0.6-0.8,1.2-1.2,1.8
	C56.1,72.7,56.8,72.7,57.7,72.7z M47.1,72.7c-0.3-0.4-0.6-0.7-0.9-1.1c-0.5-0.9-1-1.8-1.5-2.8c-0.4-0.8-0.9-1.7-1.4-2.6
	c-0.9,1.6-1.7,3.2-2.5,4.6c-0.4,0.7-0.9,1.3-1.2,1.8c0.5,0,1.2,0,2,0c-1-0.4-1.1-0.7-0.5-1.5c0.1-0.2,0.4-0.3,0.5-0.3
	c0.6,0,1.2,0,1.8,0c0.9-0.1,0.9,0.7,1.1,1.2c0.1,0.1-0.4,0.5-0.5,0.6C45,72.7,46.1,72.7,47.1,72.7z M70.6,70.6c0,0-0.1,0-0.1,0
	c-0.3,0.4-0.5,0.9-0.8,1.2c-0.6,0.7-1.4,0.6-2.2,0.6c-0.9,0-0.9-0.1-0.9-0.9c0-1.3,0-2.5,0-3.8c0-0.7,0.1-1.2,0.9-1.2
	c-1.2,0-2.4,0-3.6,0c0.7,0.1,0.9,0.5,0.9,1.1c0,1.3,0,2.5,0,3.8c0,0.6,0,1.3-0.9,1.3c2.2,0,4.3,0,6.5,0
	C70.4,71.9,70.5,71.3,70.6,70.6z"/>
<path class="st21" d="M28.5,44.6c0.5,0.2,0.5,0.4,0.4,0.9c-0.8,2-1.6,4-1.8,6.2c-0.1,1.3-0.1,2.6,0.2,3.8c0.5,2.1,2,3.2,4,3.4
	c2.5,0.3,4.9-0.3,7-1.8c1.1-0.8,1.7-1.9,1.6-3.3c-0.3-3.2-0.5-6.5-0.8-9.7c-0.3-3.1-0.7-6.2-1-9.4c-0.1-0.5,0-1.2-0.6-1.5
	c-0.1-0.1-0.2-0.3-0.2-0.4c0-1.7,0.2-3.4,0.8-5c0-0.1,0.1-0.1,0.1-0.1c0.1,0,0.1,0,0.1,0c0,1.3,0.8,1.9,1.8,2.5
	c0.6,0.3,0.8,0.8,0.7,1.5c-0.1,1.1-0.2,2.1-0.3,3.2c-0.4-0.1-0.6-0.2-1-0.3c0.6,7.5,1.9,14.9,1.4,22.4c0,0,0,0,0,0
	c2.8-1.2,5.6-2.4,8-4.3c3.4-2.7,5.1-6.2,5.3-10.4c0.1-2.8-0.2-5.5-0.6-8.3c0-0.3,0-0.6,0-0.9c0.3-1,0.5-2,1-2.9
	c0.1,0.9,0.3,1.8,0.3,2.7c0.4,4.5,0.8,9,1.3,13.5c0.2,1.6,0.4,3.1,0.7,4.7c0.1,0.5,0.3,1,0.6,1.4c0.1,0.2,0.5,0.4,0.8,0.4
	c4.2,0,8.3,0,12.5,0c0-0.1,0-0.2,0-0.2c-1.4-1.3-2.7-2.6-4.1-3.8c-1.3-1.1-3-1.4-4.7-1.1c-0.1,0-0.3,0-0.4,0c0.2-2,1.8-3.8,3.5-4
	c0.9-0.1,1.7,0.2,2.4,0.7c1,0.9,2,1.8,2.9,2.8c1.4,1.5,2.6,3.1,4,4.7c0.5,0.6,1.1,1.1,2,0.8c0,1.3,0,2.5,0,3.8c-0.2,0-0.4,0-0.7,0
	c-5.7,0-11.5,0-17.2,0c-1,0-1.6-0.4-2.1-1.2c-0.7-1.3-1-2.6-1.1-4c-0.2-1.8-0.2-3.6-0.4-5.7c-0.1,0.3-0.2,0.4-0.2,0.6
	c-0.6,2-1.2,4.1-1.9,6c-1.2,3.3-3.6,5-7.1,5.2c-1.5,0.1-3,0.1-4.4,0.3c-0.2,0-0.6,0.2-0.7,0.4c-1.1,3-3.4,4.2-6.3,4.4
	c-1.1,0.1-2.3,0.1-3.4,0c-3.1-0.5-4.9-2.7-5-6c-0.1-3.4,0.7-6.5,1.8-9.7C27.9,46.2,28.2,45.4,28.5,44.6z"/>
<path class="st21" d="M52.2,46.5c-0.2-0.4-0.3-0.6-0.3-0.9c-0.9-2.4-2.1-4.6-3.6-6.6c-0.3-0.4-0.8-0.8-1.2-1.2
	c-0.4-0.3-0.8-0.2-1,0.3c-0.4,0.8-0.6,0.9-1.4,0.3c-2.3-1.7-3.5-3.9-3.3-6.8c0-0.9,0.4-1.2,1.3-0.9c0.2,0.1,0.5,0.2,0.7,0.3
	c4.3,2.7,7.4,6.4,8.7,11.4C52.4,43.7,52.5,45,52.2,46.5z"/>
<g>
	<path class="st21" d="M35.2,72.7c0.9-0.1,1-0.6,0.9-1.3c0-0.5,0-1.1,0-1.7c-0.9,0-1.8,0-2.7,0c0,0.8-0.1,1.5,0,2.2
		c0.1,0.3,0.5,0.6,0.7,0.8c-1,0-2.2,0-3.4,0c0.9,0,0.9-0.7,0.9-1.4c0-1.3,0-2.5,0-3.8c0-0.6-0.1-1.1-0.9-1.1c1.2,0,2.4,0,3.5,0
		c-0.8,0-0.9,0.5-0.9,1.2c0,0.5,0,1,0,1.6c0.9,0,1.8,0,2.7,0c0-0.7,0.1-1.5,0-2.2c0-0.3-0.5-0.5-0.6-0.6c1,0,2.2,0,3.4,0
		c-0.8,0-0.9,0.6-0.9,1.2c0,1.2,0,2.5,0,3.7c0,0.7,0,1.3,0.9,1.3C37.6,72.7,36.4,72.7,35.2,72.7z"/>
	<path class="st21" d="M48,72.6c0.7-0.1,0.8-0.6,0.8-1.2c0-1.3,0-2.6,0-3.9c0-0.6-0.1-1.1-0.8-1.2c1.2,0,2.4,0,3.7,0
		c-1,0.2-1.1,0.3-1.1,1.2c0,1.2,0,2.5,0,3.7c0,0.9,0.1,1,1,1c0.7,0,1.4-0.1,2-0.4c0.4-0.2,0.7-0.9,1.1-1.5c-0.1,0.8-0.2,1.5-0.3,2.2
		C52.2,72.6,50.1,72.6,48,72.6z"/>
	<path class="st21" d="M57.7,72.7c-0.9,0-1.6,0-2.2,0c0.4-0.5,0.9-1.1,1.2-1.8c0.9-1.5,1.7-3.1,2.6-4.7c0.9,1.8,1.8,3.4,2.7,5.1
		c0.3,0.5,0.6,0.9,1,1.4c-1,0-2,0-3,0c0.1-0.2,0.5-0.4,0.5-0.6c0-0.6-0.6-1.2-1-1.2c-0.6,0-1.2,0-1.8,0c-0.2,0-0.5,0.2-0.6,0.3
		C56.5,72,56.6,72.3,57.7,72.7z M58.6,68.3c-0.4,0.8-0.8,1.5-1.2,2.2c0.8,0,1.5,0,2.3,0C59.3,69.8,59,69.1,58.6,68.3z"/>
	<path class="st21" d="M47.1,72.7c-1,0-2.1,0-3.1,0c0.2-0.2,0.6-0.5,0.5-0.6c-0.2-0.5-0.2-1.2-1.1-1.2c-0.6,0-1.2,0-1.8,0
		c-0.2,0-0.4,0.1-0.5,0.3c-0.6,0.8-0.5,1.1,0.5,1.5c-0.8,0-1.5,0-2,0c0.4-0.5,0.9-1.1,1.2-1.8c0.8-1.5,1.6-3,2.5-4.6
		c0.5,0.9,0.9,1.8,1.4,2.6c0.5,0.9,1,1.9,1.5,2.8C46.5,72,46.8,72.3,47.1,72.7z M41.5,70.5c0.8,0,1.5,0,2.3,0
		c-0.4-0.7-0.7-1.4-1.1-2.2C42.2,69.1,41.9,69.8,41.5,70.5z"/>
	<path class="st21" d="M70.6,70.6c-0.1,0.7-0.2,1.4-0.3,2.1c-2.2,0-4.4,0-6.5,0c0.9,0,0.9-0.7,0.9-1.3c0-1.3,0-2.5,0-3.8
		c0-0.6-0.1-1.1-0.9-1.1c1.2,0,2.4,0,3.6,0c-0.8,0-1,0.5-0.9,1.2c0,1.3,0,2.5,0,3.8c0,0.8,0.1,0.9,0.9,0.9c0.8,0,1.6,0.1,2.2-0.6
		c0.3-0.4,0.5-0.8,0.8-1.2C70.5,70.6,70.5,70.6,70.6,70.6z"/>
</g>
<path class="st1" d="M58.6,68.3c0.4,0.8,0.8,1.5,1.1,2.2c-0.8,0-1.5,0-2.3,0C57.8,69.8,58.1,69.1,58.6,68.3z"/>
<path class="st1" d="M41.5,70.5c0.4-0.8,0.8-1.4,1.2-2.2c0.4,0.8,0.8,1.4,1.1,2.2C43,70.5,42.3,70.5,41.5,70.5z"/>
</svg>
