<svg id="Layer_1" data-name="Layer 1" xmlns="http://www.w3.org/2000/svg" viewBox="0 0 56.69 56.69"><defs><style>.cls-1{fill:#010101;}</style></defs><title>карамфил-black</title><path class="cls-1" d="M9.39,25.84c1.42.44,1.6-3.5,3.56-5.16s3.8,2.83,5.31,2.94,2.52-2.8,2.5-5.68c-2.31-2.53-6.39-4.69-10.25-3.28s-5.3,5.51-5.68,8A24.89,24.89,0,0,0,9.39,25.84Z"/><path class="cls-1" d="M12.84,32.93a12.62,12.62,0,0,1-9.79-7.66C.81,19.66,7.44,27,10.29,27.38c1.36.16,1.48-3.23,3.29-4.76s3.3,2.93,4.7,3.08c2,.21,4.4-4.52,3.17-7.4s5.13-.74,1.84,7.25a14.54,14.54,0,0,1-4.9,6.15s5.54,15.91,7.94,20-2.91,7.38-6.34-.23S12.84,32.93,12.84,32.93Z"/><path class="cls-1" d="M34,31.35a22.58,22.58,0,0,0-1.78,3.18c-.11,1,2.61.62,4,1.74s-1.72,2.87-1.6,3.92,2.52,1.43,4.47,1c1.35-1.93,2.21-4.9.76-7.28S35.7,31.29,34,31.35Z"/><path class="cls-1" d="M27.66,38a8.78,8.78,0,0,1,3.92-7.71c3.53-2.28-.62,3.23-.47,5.22.07,1,2.4.58,3.69,1.61s-1.56,2.65-1.47,3.62c.12,1.39,3.67,2.4,5.47,1.17s1.19,3.4-4.71,2.22a10.11,10.11,0,0,1-4.86-2.53s-10.12,5.91-12.57,8.09-5.43-1-.69-4.36S27.66,38,27.66,38Z"/><path class="cls-1" d="M35.6,12.34c1.12.07.56-2.85,1.7-4.41S40.86,9.32,42,9s1.25-2.79.35-4.92c-2.15-1.3-5.29-2-7.72-.36-2.66,1.77-2.73,5-2.53,6.86A23.09,23.09,0,0,0,35.6,12.34Z"/><path class="cls-1" d="M39.61,16.72a9.52,9.52,0,0,1-8.53-3.89c-2.64-3.72,3.53.52,5.68.27,1-.12.51-2.63,1.57-4.07s2.94,1.57,4,1.43c1.5-.2,2.43-4.09,1-6S47,3,46,9.47a11,11,0,0,1-2.51,5.38s6.87,10.69,9.35,13.25S52,34,48.11,29,39.61,16.72,39.61,16.72Z"/></svg>