<svg id="Layer_1" data-name="Layer 1" xmlns="http://www.w3.org/2000/svg" viewBox="0 0 56.69 56.69"><defs><style>.cls-1{fill:#010101;}</style></defs><title>кориандър-black</title><path class="cls-1" d="M12.11,20.63a8,8,0,0,1-.66-.84l-.43-.2a8.64,8.64,0,0,0,.29,1.57Q11.7,20.88,12.11,20.63Z"/><path class="cls-1" d="M12.64,14.15l.44-.22a10.69,10.69,0,0,1,9.56-1.1c7.19,2.26,9.35,7,9.43,7.22a9.32,9.32,0,0,0-2.17-5.67,11.6,11.6,0,0,0-5.77-3.76,12,12,0,0,0-3.37-.49,10.7,10.7,0,0,0-6,1.75,8.85,8.85,0,0,0-2.32,2.26Z"/><path class="cls-1" d="M10.05,18.14a5.54,5.54,0,0,0,.83.61,3.92,3.92,0,0,1-.32-1.51,3.17,3.17,0,0,1,.07-.64.31.31,0,0,1,0-.09l0,0s0-.08,0-.12a3.31,3.31,0,0,1,.87-1.43l.19-.17a4.73,4.73,0,0,0-1.31.21,2.34,2.34,0,0,0-1,.58,1.29,1.29,0,0,0-.31.53,1.22,1.22,0,0,0,0,.34,1.74,1.74,0,0,0,.24.84A3.49,3.49,0,0,0,10.05,18.14Z"/><path class="cls-1" d="M32.38,22.69l0,.1a.3.3,0,0,1,0,0v0a9.22,9.22,0,0,1,2.26,1.42,5.19,5.19,0,0,1,.61.63l.15.2a2.34,2.34,0,0,1,.14.22l0,.05h0a.49.49,0,0,0,.91-.38,4.52,4.52,0,0,0-1.19-1.47,10.39,10.39,0,0,0-2.67-1.66l-.07,0A3.13,3.13,0,0,1,32.38,22.69Z"/><path class="cls-1" d="M28,23.86a5.48,5.48,0,0,1,1.32.25,3.8,3.8,0,0,1,.66.29A4.24,4.24,0,0,0,31,23.65a2.78,2.78,0,0,0,.55-.76l-.51-.2c-.52-.19-1.28-.45-2.22-.75s-2.37-.75-3.82-1.19l.13.08A9.47,9.47,0,0,1,28,23.86Z"/><path class="cls-1" d="M29.39,17.84A18.14,18.14,0,0,0,23,14.6a19.64,19.64,0,0,0-5.43-.82,11.79,11.79,0,0,0-3.32.43A5.2,5.2,0,0,0,12,15.41a2.72,2.72,0,0,0-.61.91h.07l.74.16c.6.14,1.39.34,2.33.58,1.89.5,4.39,1.19,7.12,2,3.88,1.13,7.26,2.18,9.07,2.81.46.16.82.29,1.06.39a2.53,2.53,0,0,0,0-.46,3.75,3.75,0,0,0-.63-1.95A8.53,8.53,0,0,0,29.39,17.84Z"/><path class="cls-1" d="M18.53,18.84l-3.41-.94c-1.77-.47-3.12-.81-3.76-.93l-.12,0a2.54,2.54,0,0,0,0,.3,3.75,3.75,0,0,0,.63,1.95,7.19,7.19,0,0,0,.85,1.1,12.77,12.77,0,0,1,5.83-1.46Z"/><path class="cls-1" d="M9.67,23.51A9.29,9.29,0,0,0,7.39,29c.08-.15.16-.29.25-.44.48-.75,1.65-4,7.75-6.27a17.14,17.14,0,0,1,9.65.32,18.71,18.71,0,0,1,2,1.28h.16a8.88,8.88,0,0,0-2.4-2.48,10.81,10.81,0,0,0-6.18-1.87,12.09,12.09,0,0,0-2.9.36A11.58,11.58,0,0,0,9.67,23.51Z"/><path class="cls-1" d="M26.21,34.23a9.41,9.41,0,0,0,2.23-4.87l-.43.18a14.65,14.65,0,0,1-8.39,5.73,16.75,16.75,0,0,1-11-1.56,8.86,8.86,0,0,0,2.52,2.66,10.81,10.81,0,0,0,6.18,1.87,12.1,12.1,0,0,0,2.9-.36A11.58,11.58,0,0,0,26.21,34.23Z"/><path class="cls-1" d="M30.15,25.37a2.13,2.13,0,0,0-.63-.46,4.35,4.35,0,0,0-1.6-.39l.1.09a3.35,3.35,0,0,1,.89,1.54s0,.07,0,.11l0,.05a.31.31,0,0,1,0,.07,3.16,3.16,0,0,1,0,.53,3.86,3.86,0,0,1-.39,1.62l.34-.2a4,4,0,0,0,1.29-1.26,1.68,1.68,0,0,0,.25-.84,1.22,1.22,0,0,0,0-.29A1.3,1.3,0,0,0,30.15,25.37Z"/><path class="cls-1" d="M7,31.74a.35.35,0,0,1,0-.06l0-.09a3.14,3.14,0,0,1-.09-.75s0-.06,0-.08l-.07,0a10.37,10.37,0,0,0-4.57,3,.49.49,0,0,0,.8.58H3a4.84,4.84,0,0,1,.6-.6,11.35,11.35,0,0,1,3.38-2Z"/><path class="cls-1" d="M27.69,28.85a3.61,3.61,0,0,0,.65-1.94c0-.06,0-.13,0-.19l-.16,0-.74.13c-.6.11-1.39.28-2.34.49-1.89.42-4.32,1.63-7,2.3-3.89,1-7.34,1.24-9.17,1.78-.51.15-.9.28-1.13.37a2.82,2.82,0,0,0,.58.85,4.74,4.74,0,0,0,1.44,1,11.45,11.45,0,0,0,4.62.84,20.13,20.13,0,0,0,4.78-.61,19.51,19.51,0,0,0,5.28-2.12A9.88,9.88,0,0,0,27.69,28.85Z"/><path class="cls-1" d="M7.54,30.83a2.55,2.55,0,0,0,0,.35L8.06,31c.54-.17,1.32-.4,2.27-.67,1.92-.53,4.6-1.73,7.53-2.45,2.39-.59,4.55-.61,6.34-1s3.15-.68,3.86-.79l.12,0a2.75,2.75,0,0,0-.64-1,4.73,4.73,0,0,0-1.44-1,11.45,11.45,0,0,0-4.62-.83,20.11,20.11,0,0,0-4.79.61A19.49,19.49,0,0,0,11.43,26a9.87,9.87,0,0,0-3.24,2.89A3.61,3.61,0,0,0,7.54,30.83Z"/><path class="cls-1" d="M45.13,25.6H45a6,6,0,0,1,.64.33,11.47,11.47,0,0,1,6.19,6.39c.9,2.1,1.9,7.4.24,11.35-.16.39-.27.78-.44,1.12l0,.16a8.81,8.81,0,0,0,2.07-2.24A10.59,10.59,0,0,0,55.33,37a12,12,0,0,0-.62-3.79C53.18,28.56,49.18,25.59,45.13,25.6Z"/><path class="cls-1" d="M46.24,46.61q-.11-.2-.22-.42a13.88,13.88,0,0,1-6.44-7.45c-2.52-7.11.52-11.16.75-11.58a8.78,8.78,0,0,0-2.23,2.36,10.59,10.59,0,0,0-1.63,5.75A12,12,0,0,0,37.09,39C38.57,43.5,42.34,46.41,46.24,46.61Z"/><path class="cls-1" d="M50.69,47.51A4.09,4.09,0,0,0,51,45.76v0l-.23.27a3.29,3.29,0,0,1-1.32.85l-.13,0h-.07a3.22,3.22,0,0,1-.81.11,4,4,0,0,1-1.38-.27l.18.27a4.13,4.13,0,0,0,1.32,1.2,1.81,1.81,0,0,0,.84.23,1.24,1.24,0,0,0,.39-.06A1.55,1.55,0,0,0,50.69,47.51Z"/><polygon class="cls-1" points="41.8 20.54 41.8 20.54 41.8 20.54 41.8 20.54"/><path class="cls-1" d="M42.11,25.48l.06,0a11.7,11.7,0,0,1-.26-2.18c.1.58.25,1.28.47,2.12a3.17,3.17,0,0,1,1-.15h0l0-.1a25.29,25.29,0,0,1-.56-2.7c-.08-.51-.11-.88-.16-1.15a1.9,1.9,0,0,0-.09-.37.67.67,0,0,0-.14-.23.56.56,0,0,0-.41-.18.59.59,0,0,0-.18,0,.69.69,0,0,0-.27.17,1.32,1.32,0,0,0-.25.37,3.29,3.29,0,0,0-.26.83,6.69,6.69,0,0,0-.11,1.24,12.69,12.69,0,0,0,.33,2.71l0,.14A3.24,3.24,0,0,1,42.11,25.48Z"/><path class="cls-1" d="M48.86,46.3l0-.09c0-.18-.1-.41-.18-.7-.15-.58-.38-1.35-.66-2.29-.57-1.87-1.84-4.26-2.74-7-1.26-3.8-2-7.19-2.64-9-.19-.5-.35-.88-.46-1.11a2.74,2.74,0,0,0-.68.52,4.21,4.21,0,0,0-.8,1.23A9.63,9.63,0,0,0,40,31.77a19.19,19.19,0,0,0,1,6,19.6,19.6,0,0,0,2.45,5,10.31,10.31,0,0,0,3,3,3.91,3.91,0,0,0,2,.61A2.64,2.64,0,0,0,48.86,46.3Z"/><path class="cls-1" d="M51.81,40.45a19.19,19.19,0,0,0-1-6,19.59,19.59,0,0,0-2.45-5,10.31,10.31,0,0,0-3-3,3.9,3.9,0,0,0-2-.61,2.52,2.52,0,0,0-.55.07l.21.48c.22.53.5,1.28.84,2.22.68,1.87,2,4.25,3,7.11,1.27,3.83,1.87,7.38,2.38,9.23.13.48.23.85.29,1.12a2.69,2.69,0,0,0,.83-.59,4.22,4.22,0,0,0,.8-1.24A9.63,9.63,0,0,0,51.81,40.45Z"/></svg>