<svg id="Layer_1" data-name="Layer 1" xmlns="http://www.w3.org/2000/svg" viewBox="0 0 56.69 56.69"><defs><style>.cls-1{fill:#010101;}</style></defs><title>розов пипер-black</title><path class="cls-1" d="M41.44,12.29A22.91,22.91,0,0,0,16.5,11.4a72.44,72.44,0,0,0-5.81-7.95h0l0,0h0c-.24-.21-.8,0-1.27.39S8.7,4.73,8.81,5h0l0,0,0,.05h0c2,2.42,4,4.89,5.84,7.47a22.91,22.91,0,1,0,26.72-.29ZM20.1,22.44c-2.31,1-4.78.4-5.52-1.32a2.42,2.42,0,0,1,.33-2.35A2.15,2.15,0,0,0,15,20.06c.74,1.72,3.21,2.31,5.52,1.32a5.44,5.44,0,0,0,2.49-2.07A5,5,0,0,1,20.1,22.44Z"/></svg>