<?xml version="1.0" encoding="utf-8"?>
<!-- Generator: Adobe Illustrator 21.1.0, SVG Export Plug-In . SVG Version: 6.00 Build 0)  -->
<svg version="1.1" id="Layer_1" xmlns="http://www.w3.org/2000/svg" xmlns:xlink="http://www.w3.org/1999/xlink" x="0px" y="0px"
	 viewBox="0 0 56.7 56.7" style="enable-background:new 0 0 56.7 56.7;" xml:space="preserve">
<title>Ingredients Icons</title>
<path d="M49,52.4c-2.6-0.2-5.2-0.8-7.6-1.6c-2.6-0.9-5.2-2.1-7.5-3.6c-1.4-0.8-2.7-1.8-4-2.7c-0.3-0.2-0.5,0.2-0.3,0.4
	c1.1,1,2.3,1.9,3.5,2.7c1.2,0.8,2.5,1.5,3.8,2.2c2.5,1.3,5.2,2.2,7.9,2.9c1.5,0.4,2.9,0.6,4.4,0.7C49.8,53.4,49.6,52.5,49,52.4z"/>
<path d="M18,47.2c14.7,9.7,22.2-7.2,5.1-17.1C10.8,23,2.7,37.1,18,47.2z"/>
<path d="M40.1,50.1c0.5-2.6,0.7-5.2,0.6-7.8c-0.1-2.8-0.5-5.6-1.2-8.3c-0.4-1.6-0.9-3.1-1.4-4.7c-0.1-0.4,0.3-0.4,0.5-0.1
	c0.6,1.4,1.1,2.8,1.5,4.2c0.4,1.4,0.7,2.8,0.9,4.3c0.5,2.8,0.6,5.6,0.5,8.4c-0.1,1.5-0.3,3-0.6,4.4C40.8,51.1,40,50.7,40.1,50.1z"/>
<path d="M50.1,27.9c1.8,17.6-18.5,17.6-19.2-2.4C30.4,11.1,48.2,9.5,50.1,27.9z"/>
<path d="M11.1,32.8l-6.4-1.1l3.7-1.9c0.3-0.1-2.1-5.3-2.1-5.3l3.9,2.3c0.3,0.2,0.6,0.4,0.8,0l1.6-4.4l2.1,7c0.1,0.3,0,0.6-0.2,0.9
	l-2.3,2.2C11.8,32.8,11.4,32.9,11.1,32.8z"/>
<path d="M37,15.1l-3.8-5.2l4,1.2c0.3,0.1,2.2-5.3,2.2-5.3l1.8,4.4c0.1,0.4,0.4,0.9,0.8,0.7l3.6-0.8l-3.7,5.1
	c-0.1,0.3-0.9-0.3-2.5-0.3C38.8,14.8,37.2,15.4,37,15.1z"/>
</svg>
