<?xml version="1.0" encoding="utf-8"?>
<!-- Generator: Adobe Illustrator 21.1.0, SVG Export Plug-In . SVG Version: 6.00 Build 0)  -->
<svg version="1.1" id="Layer_1" xmlns="http://www.w3.org/2000/svg" xmlns:xlink="http://www.w3.org/1999/xlink" x="0px" y="0px"
	 viewBox="0 0 598.9 178.4" style="enable-background:new 0 0 598.9 178.4;" xml:space="preserve">
<style type="text/css">
	.st0{fill:#FCC504;}
	.st1{fill:#FFFFFF;stroke:#FCC504;stroke-width:3;stroke-miterlimit:10;}
</style>
<title>feel-the-effect-in-24-hours</title>
<path d="M46.5,17.9H18.3v14.4H46v16.4H18.3V76h-17V1.5h45.3L46.5,17.9z"/>
<path d="M73.7,59.6h29.8V76H56.6V1.5h46.3v16.4H73.7v12.3h26.6v16.2H73.7V59.6z"/>
<path d="M130.1,59.6h29.8V76h-46.9V1.5h46.3v16.4h-29.3v12.3h26.6v16.2h-26.6V59.6z"/>
<path d="M186.5,59.6h26.6V76h-43.6V1.5h17L186.5,59.6z"/>
<path class="st0" d="M270,59.6h29.8V76h-46.9V1.5h46.3v16.4H270v12.3h26.6v16.2H270V59.6z"/>
<path class="st0" d="M354.1,17.9h-28.2v14.4h27.7v16.4h-27.7V76h-17V1.5h45.3L354.1,17.9z"/>
<path class="st0" d="M408.9,17.9h-28.2v14.4h27.7v16.4h-27.7V76h-17V1.5H409L408.9,17.9z"/>
<path class="st0" d="M435.6,59.6h29.8V76h-46.9V1.5h46.3v16.4h-29.3v12.3h26.6v16.2h-26.6V59.6z"/>
<path class="st0" d="M509.4,77.5c-11.1,0-20.4-3.7-27.7-11.1s-11-16.6-11-27.6c0-11,3.7-20.2,11-27.6S498.3,0,509.4,0
	c6.5-0.1,12.8,1.5,18.5,4.6c5.5,2.9,10.2,7.3,13.4,12.6l-14.7,8.5c-1.6-2.9-4.1-5.2-7-6.8c-3.2-1.6-6.7-2.4-10.2-2.4
	c-6.6,0-11.9,2-15.8,6.1c-3.9,4-5.9,9.4-5.9,16.1c0,6.7,2,12,5.9,16.1c3.9,4.1,9.2,6.1,15.8,6.1c3.6,0,7.1-0.8,10.3-2.5
	c3-1.5,5.4-3.8,7-6.7l14.7,8.5c-3.2,5.3-7.8,9.7-13.4,12.6C522.4,76,515.9,77.6,509.4,77.5z"/>
<path class="st0" d="M598.9,1.5v16.4h-19.2V76h-17V17.9h-19.2V1.5H598.9z"/>
<path d="M4.2,107.3c-0.9,1-2.5,1-3.4,0.1c0,0,0,0-0.1-0.1c-0.9-0.9-0.9-2.4,0-3.4c0.9-1,2.5-1,3.4-0.1c0,0,0,0,0.1,0.1
	C5.1,104.9,5.1,106.4,4.2,107.3z M1.4,177V124h2.1v52.9L1.4,177z"/>
<path d="M45.8,123c6,0,10.9,1.9,14.6,5.6c3.7,3.7,5.6,8.6,5.6,14.7V177h-2.1v-33.7c0.2-4.9-1.6-9.6-4.9-13.2
	c-3.2-3.5-7.7-5.2-13.2-5.2c-5.8-0.2-11.3,2.2-15.2,6.5c-3.9,4.3-5.9,10.1-5.9,17.2V177h-2.1V124h2.1v14.5c1.2-4.6,3.9-8.7,7.8-11.5
	C36.4,124.3,41.1,122.9,45.8,123z"/>
<path d="M368.1,121.9c6,0,10.9,1.9,14.5,5.6c3.7,3.7,5.5,8.6,5.5,14.7v33.6h-2.1v-33.6c0.2-4.9-1.6-9.6-4.9-13.2
	c-3.2-3.5-7.7-5.2-13.2-5.2c-5.8-0.2-11.3,2.2-15.2,6.5c-3.9,4.3-5.9,10.1-5.9,17.2v28.4h-2.1v-74.1h2.1v35.7
	c1.2-4.7,4-8.7,7.9-11.5C358.7,123.3,363.3,121.9,368.1,121.9z"/>
<path d="M448.6,169c-10.9,10.6-28.2,10.6-39.1,0c-10.7-10.8-10.7-28.3,0-39.1c10.9-10.6,28.2-10.6,39.1,0
	C459.3,140.7,459.3,158.2,448.6,169z M410.9,167.6c9.9,10,26.1,10,36.1,0.1c4.9-4.8,7.6-11.4,7.5-18.3
	c-0.1-14.1-11.6-25.4-25.7-25.3s-25.4,11.6-25.3,25.7C403.6,156.6,406.2,162.9,410.9,167.6z"/>
<path d="M511.1,123h2.1v52.9h-2.1v-14.5c-1.2,4.7-4,8.7-7.9,11.5c-3.9,2.7-8.5,4.1-13.3,4c-6,0-10.8-1.9-14.5-5.6
	c-3.7-3.7-5.5-8.6-5.5-14.7V123h2.1v33.6c-0.2,4.9,1.6,9.6,4.9,13.2c3.2,3.5,7.6,5.2,13.2,5.2c5.8,0.2,11.3-2.2,15.2-6.5
	c3.9-4.3,5.9-10.1,5.9-17.2L511.1,123z"/>
<path d="M534.4,137.2c1-4.5,3.6-8.5,7.4-11.2c3.6-2.4,7.8-3.7,12.2-3.7v1.9c-5.3-0.1-10.3,2.1-13.9,5.9c-3.8,4-5.7,9.4-5.7,16.3
	v29.4h-2.1V123h2.1L534.4,137.2z"/>
<path d="M564.6,136.7c-0.1,2.8,1.2,5.5,3.5,7.1c2.6,1.8,5.5,3,8.6,3.6l10.1,2.2c3.2,0.6,6.1,2.1,8.6,4.2c2.4,2.1,3.7,5.2,3.5,8.3
	c0,4.1-1.9,8-5.2,10.5c-3.5,2.9-7.9,4.3-13.3,4.3c-10.4,0-17-3.7-19.6-11.1l1.7-1c2.2,6.8,8.1,10.2,17.8,10.2
	c4.8,0,8.7-1.2,11.8-3.6c2.9-2.2,4.6-5.6,4.6-9.3c0.1-2.9-1.2-5.6-3.5-7.3c-2.6-1.9-5.5-3.1-8.6-3.8l-10.1-2.3c-3.1-0.6-6.1-2-8.6-4
	c-2.4-2-3.7-4.9-3.5-8c-0.1-4.1,1.7-8,4.8-10.6c3.2-2.8,7.5-4.2,13-4.2c3.7-0.1,7.4,0.9,10.6,2.8c2.9,1.7,5.1,4.3,6.3,7.4l-1.7,1
	c-1.1-2.8-3.1-5.2-5.7-6.7c-2.9-1.7-6.2-2.6-9.5-2.5c-4.7,0-8.5,1.2-11.4,3.6C566.1,129.7,564.5,133.1,564.6,136.7z"/>
<path class="st1" d="M118.9,177v-19.3l39.1-40.6c7.9-8.1,11.8-15,11.8-20.6c0.1-3.3-1.1-6.5-3.3-8.9c-2.2-2.3-5.3-3.4-9.1-3.4
	c-7.8,0-13.5,4.2-17.1,12.6l-22.5-13.1c3.2-7.9,8.8-14.5,16-19c7-4.3,15.1-6.5,23.3-6.5c10.9,0,20.1,3.4,27.9,10.1
	c7.7,6.7,11.6,15.7,11.6,27c0,12.3-6.1,24.5-18.1,36.6L159,151.3h39.1v25.6L118.9,177z"/>
<path class="st1" d="M296.2,133.7v24.6h-11.6v18.6h-27v-18.6h-52.8v-24.6l37.1-73.2h28.6l-37.1,73.2h24.2v-24.9h27v24.9H296.2z"/>
<path d="M205.9,22.8h-8.2v19.1c0,2.3,0.6,3.7,1.9,4.4s3.3,0.8,6.3,0.4v0.9c-3.2,0.5-5.6,0.3-7-0.6s-2.2-2.6-2.2-5.2V22.8h-6.2v-0.9
	h6.2V15l1-0.3v7.2h8.2L205.9,22.8z"/>
<path d="M224.4,21.4c2.6-0.1,5.2,0.9,7.1,2.7c1.8,1.9,2.8,4.5,2.7,7.2v16.4h-1V31.2c0.1-2.4-0.8-4.7-2.4-6.4c-1.7-1.7-4-2.6-6.4-2.5
	c-2.8-0.1-5.5,1.1-7.4,3.2c-2,2.3-3,5.3-2.9,8.4v13.8h-1v-36h1v17.3c0.6-2.3,1.9-4.3,3.8-5.6C219.9,22,222.1,21.3,224.4,21.4z"/>
<path d="M253.7,21.4c3.5-0.1,6.8,1.4,9.1,4c2.3,2.6,3.6,6,3.5,9.5v0.5h-24.7c0,6.6,5.4,11.9,12,11.8c0.1,0,0.1,0,0.2,0
	c2.1,0,4.2-0.5,6.1-1.4c1.7-0.9,3.1-2.2,4-3.9l0.9,0.5c-1,1.8-2.6,3.2-4.4,4.2c-2,1-4.3,1.6-6.6,1.5c-3.5,0.1-7-1.3-9.5-3.8
	c-2.5-2.5-3.9-6-3.8-9.6c-0.1-3.5,1.2-7,3.7-9.5C246.8,22.7,250.1,21.3,253.7,21.4z M241.7,34.4h23.7c-0.1-3.3-1.4-6.4-3.6-8.8
	c-2.1-2.2-5.1-3.4-8.1-3.4c-3.2-0.1-6.2,1.2-8.5,3.4C242.9,28,241.6,31.2,241.7,34.4z"/>
</svg>
