<?xml version="1.0" encoding="utf-8"?>
<!-- Generator: Adobe Illustrator 22.0.0, SVG Export Plug-In . SVG Version: 6.00 Build 0)  -->
<svg version="1.1" id="Layer_1" xmlns="http://www.w3.org/2000/svg" xmlns:xlink="http://www.w3.org/1999/xlink" x="0px" y="0px"
	 viewBox="0 0 141.6 88.1" style="enable-background:new 0 0 141.6 88.1;" xml:space="preserve">
<style type="text/css">
	.st0{fill:#D51C59;}
	.st1{fill:#FFFFFF;}
	.st2{fill:none;stroke:#000000;stroke-linejoin:round;stroke-miterlimit:10;}
	.st3{fill:none;stroke:#7DC6D6;stroke-width:2;stroke-linecap:round;stroke-linejoin:round;stroke-miterlimit:10;}
	.st4{fill:none;stroke:#D51C59;stroke-width:2;stroke-linecap:round;stroke-linejoin:round;stroke-miterlimit:10;}
	.st5{fill:none;stroke:#000000;stroke-miterlimit:10;}
	.st6{fill:none;stroke:#515150;stroke-width:16;stroke-linecap:round;stroke-miterlimit:10;}
	.st7{fill:none;stroke:#515150;stroke-linejoin:round;stroke-miterlimit:10;}
	.st8{fill:#05305E;}
	.st9{fill:#B2B9C8;}
	.st10{fill:#8BC34A;}
	.st11{fill:#33691E;}
	.st12{fill:#669B41;stroke:#669B41;stroke-miterlimit:10;}
	.st13{fill:#669B41;}
	.st14{fill:#1B5E20;stroke:#1B5E20;stroke-miterlimit:10;}
	.st15{fill:#7ACC49;}
	.st16{fill:#20265A;}
	.st17{fill:#004400;}
	.st18{fill:#005E00;}
	.st19{fill:none;}
	.st20{fill:#00540B;}
	.st21{fill:#76CDD9;stroke:#76CDD9;stroke-width:2;stroke-miterlimit:10;}
	.st22{fill:#76CDD9;}
	.st23{fill:#76CDD9;stroke:#76CDD9;stroke-width:3;stroke-miterlimit:10;}
</style>
<g>
	<path d="M-689.4-15.2c-14.1,0-25.5-11.5-25.5-25.5c0-14.1,11.5-25.5,25.5-25.5s25.5,11.5,25.5,25.5S-675.3-15.2-689.4-15.2z
		 M-689.4-64.6c-13.2,0-23.9,10.7-23.9,23.9s10.7,23.9,23.9,23.9c13.2,0,23.9-10.7,23.9-23.9S-676.2-64.6-689.4-64.6z"/>
</g>
<g>
	<path d="M-689.4-20.1c-11.4,0-20.6-9.3-20.6-20.6c0-11.4,9.3-20.6,20.6-20.6c11.4,0,20.6,9.3,20.6,20.6S-678-20.1-689.4-20.1z
		 M-689.4-60c-10.6,0-19.3,8.6-19.3,19.3c0,10.6,8.7,19.3,19.3,19.3c10.6,0,19.3-8.7,19.3-19.3C-670.1-51.4-678.8-60-689.4-60z"/>
</g>
<g id="check_2_">
	<g>
		<path class="st0" d="M-691.3-28.2l-14-14c-0.8-0.8-0.8-2.2,0-3l3-3c0.8-0.8,2.2-0.8,3,0l9.4,9.4l20.1-20.1c0.8-0.8,2.2-0.8,3,0
			l3,3c0.8,0.8,0.8,2.2,0,3l-24.4,24.7C-689.1-27.3-690.4-27.3-691.3-28.2L-691.3-28.2z"/>
	</g>
</g>
<g>
	<path d="M-698.2-85.2c1-0.2,1.9-0.1,2.7,0.4c0.8,0.5,1.3,1.2,1.5,2.2c0.2,1,0.1,1.9-0.5,2.6c-0.5,0.8-1.3,1.3-2.2,1.5l-1.3,0.3
		l0.6,2.9l-2.5,0.5l-2-9.6L-698.2-85.2z M-697.2-80.8c0.3-0.1,0.5-0.2,0.6-0.4c0.1-0.2,0.2-0.5,0.1-0.8c-0.1-0.3-0.2-0.5-0.4-0.7
		c-0.2-0.2-0.5-0.2-0.8-0.1l-1.3,0.3l0.4,2.1L-697.2-80.8z"/>
	<path d="M-687-76.2l-1.6-3.2h-0.9l-0.1,3.2l-2.5-0.1l0.3-9.9l3.9,0.1c1,0,1.8,0.4,2.5,1c0.7,0.7,1,1.5,1,2.5c0,0.6-0.2,1.1-0.5,1.6
		c-0.3,0.5-0.7,0.9-1.3,1.1l1.9,3.7L-687-76.2z M-689.4-83.8l-0.1,2.2h1.4c0.3,0,0.6-0.1,0.8-0.3c0.2-0.2,0.3-0.5,0.3-0.8
		c0-0.3-0.1-0.6-0.3-0.8c-0.2-0.2-0.4-0.3-0.8-0.3C-688.1-83.8-689.4-83.8-689.4-83.8z"/>
	<path d="M-680.8-77.5l3.7,1l-0.6,2.3l-6.1-1.6l2.5-9.6l6.1,1.6l-0.6,2.3l-3.6-0.9l-0.3,1.3l3.3,0.9L-677-78l-3.4-0.9L-680.8-77.5z"
		/>
	<path d="M-663.4-77.8l-4.9,8.6l-2.1-1.3l2.6-4.6l-4,2.3l-0.2-0.1l-0.1-4.6l-2.6,4.6l-2.2-1.3l4.9-8.6l2.2,1.3l0.1,4.9l4.3-2.4
		L-663.4-77.8z"/>
	<path d="M-660.9-75.5l1.9,1.7l-6.6,7.3l-1.9-1.7L-660.9-75.5z"/>
	<path d="M-660-60.8c-0.9-0.2-1.8-0.8-2.4-1.7c-0.7-0.9-1-1.9-0.9-2.8c0.1-1,0.5-1.8,1.4-2.4l5.3-4l1.5,2l-5.3,3.9
		c-0.7,0.5-0.7,1.1-0.2,1.8c0.6,0.7,1.2,0.9,1.8,0.4l5.1-3.8l1.5,2l-5.3,4C-658.2-60.8-659.1-60.6-660-60.8z"/>
	<path d="M-646.7-52.9l-9.2,3.4l-0.9-2.3l5-1.8l-4.6-0.9l-0.1-0.2l2.9-3.6l-5,1.8l-0.9-2.4l9.2-3.4l0.9,2.4l-3,3.7l4.8,0.9
		L-646.7-52.9z"/>
	<path d="M-651-35.1c-1.2-0.1-2.2-0.5-3.1-1.2l-1,0.8l-1.5-1.8l1.1-0.9c-0.3-0.7-0.4-1.5-0.4-2.3c0.1-1.4,0.6-2.6,1.7-3.6
		c1-0.9,2.3-1.4,3.7-1.3c1.4,0.1,2.6,0.7,3.6,1.7c0.9,1.1,1.4,2.3,1.3,3.7c-0.1,1.4-0.6,2.6-1.7,3.6C-648.3-35.4-649.6-35-651-35.1z
		 M-653.4-40.4c0,0.1,0,0.2,0,0.4l1.5-1.2l1.4,1.9l-1.7,1.4c0.4,0.2,0.8,0.4,1.3,0.4c0.8,0,1.4-0.2,2-0.6c0.5-0.5,0.8-1.1,0.9-1.9
		c0-0.8-0.2-1.4-0.6-1.9c-0.5-0.5-1.1-0.8-1.9-0.9c-0.8,0-1.4,0.2-2,0.6C-653-41.7-653.3-41.1-653.4-40.4z"/>
	<path d="M-657.7-28.3c-0.4-0.9-0.3-1.9,0-3c0.4-1.1,1-1.9,1.8-2.3c0.8-0.5,1.7-0.5,2.7-0.2l6.2,2.2l-0.8,2.4l-6-2.1
		c-0.8-0.3-1.3,0-1.6,0.9c-0.3,0.9-0.1,1.4,0.7,1.7l6,2.1l-0.8,2.4l-6.2-2.2C-656.7-26.8-657.4-27.4-657.7-28.3z"/>
	<path d="M-662.5-21.8l1.4,0.4l1.9-2.8l-0.9-1.2l1.5-2.3l6.5,8.1l-1.8,2.6l-10-2.7L-662.5-21.8z M-657.7-22.5l-1.1,1.7l3.3,1
		L-657.7-22.5z"/>
	<path d="M-664.5-16.1l-2.5,2.3l-1.7-1.8l4.3-4.1l6.8,7.2l-1.8,1.9L-664.5-16.1z"/>
	<path d="M-663.9-6.9l-2.1,1.4l-5.5-8.2l2.1-1.4L-663.9-6.9z"/>
	<path d="M-674.7-1.1l-1-2.2l2.2-1l-3.1-6.8l2.3-1l3.1,6.8l2.2-1l1,2.2L-674.7-1.1z"/>
	<path d="M-685.6,1.4l2.1-6.6l-0.7-3.7l2.5-0.5l0.7,3.7l4.4,5.4l-2.8,0.5l-2.4-3.2l-1,3.9L-685.6,1.4z"/>
</g>
<g>
	<g>
		<circle class="st1" cx="-96.8" cy="3.2" r="49.3"/>
	</g>
	<g>
		<path d="M-103.6-33.3c-1,0.1-1.9,0-2.6-0.3c-0.7-0.4-1.3-0.9-1.6-1.6l2-1.5c0.5,0.8,1.2,1.2,2.1,1.1c0.8-0.1,1.1-0.4,1.1-0.8
			c0-0.3-0.3-0.5-0.7-0.6c-0.2-0.1-0.6-0.1-1.3-0.2c-0.9-0.2-1.7-0.4-2.2-0.8c-0.6-0.4-0.9-1-1-1.9s0.1-1.7,0.7-2.3s1.3-1,2.3-1.1
			c0.8-0.1,1.6,0,2.2,0.3c0.7,0.3,1.2,0.8,1.6,1.5l-2,1.3c-0.4-0.7-0.9-1-1.6-0.9c-0.3,0-0.5,0.1-0.7,0.3c-0.1,0.1-0.2,0.3-0.2,0.5
			c0,0.2,0.2,0.4,0.4,0.5c0.2,0.1,0.7,0.2,1.4,0.4c0.5,0.1,0.9,0.2,1.2,0.3c0.3,0.1,0.6,0.2,1,0.4s0.7,0.4,0.9,0.8
			c0.2,0.3,0.3,0.7,0.4,1.2c0.1,1-0.1,1.7-0.7,2.4C-101.6-33.8-102.5-33.4-103.6-33.3z"/>
		<path d="M-91-34.4c-1.1,0.9-2.4,1.2-3.8,1.1c-1.4-0.2-2.6-0.8-3.5-1.9s-1.2-2.3-1.1-3.8c0.2-1.4,0.8-2.6,1.9-3.4
			c1.1-0.8,2.4-1.2,3.8-1.1c1.4,0.1,2.6,0.8,3.5,1.9c0.9,1.1,1.2,2.3,1.1,3.8C-89.3-36.4-89.9-35.3-91-34.4z M-96.3-36.7
			c0.4,0.6,1,0.9,1.8,1c0.8,0.1,1.4-0.1,2-0.5c0.6-0.4,0.9-1,1-1.8c0.1-0.8-0.1-1.4-0.5-2c-0.4-0.6-1-0.9-1.8-1
			c-0.8-0.1-1.4,0.1-2,0.5c-0.6,0.4-0.9,1-1,1.8S-96.8-37.3-96.3-36.7z"/>
		<path d="M-81-37.6l-3.3-1.1l-0.5,1.5l3.3,1.1l-0.8,2.3l-3.3-1.1l-1.1,3.2l-2.4-0.8l3.2-9.3l5.7,2L-81-37.6z"/>
		<path d="M-72-35.5l-1.2,2.1l-2.1-1.2l-3.6,6.4l-2.2-1.2l3.6-6.4l-2.1-1.2l1.2-2.1L-72-35.5z"/>
		<path d="M-67.6-19.3l-2.1-0.6l0.1-1.2c-0.9-0.2-1.6-0.6-2.3-1.3c-0.7-0.8-1.1-1.6-1.2-2.4s0.2-1.6,0.9-2.2
			c0.8-0.8,1.8-1.1,3.1-0.8c0.2-0.6,0.4-1,0.8-1.4c0.6-0.6,1.3-0.9,2.1-0.8s1.5,0.4,2.2,1.1c1.1,1.1,1.4,2.5,0.8,4l-2.4-0.7
			c0.3-0.7,0.3-1.2-0.1-1.6c-0.2-0.2-0.4-0.3-0.5-0.3c-0.2,0-0.4,0.1-0.5,0.2s-0.2,0.2-0.2,0.4c-0.1,0.2-0.1,0.3-0.1,0.4
			s0,0.3,0,0.6l-0.2,2.5c0.5-0.2,0.9-0.4,1.3-0.7l0.6,2.3c-0.6,0.3-1.3,0.6-2.1,0.7L-67.6-19.3z M-70.2-23.8
			c0.2,0.2,0.4,0.4,0.7,0.5l0.1-2.4c-0.4,0-0.7,0.1-1,0.4c-0.2,0.2-0.3,0.5-0.3,0.7C-70.6-24.3-70.5-24.1-70.2-23.8z"/>
		<path d="M-64.3-11.9c-0.7-1.3-0.8-2.6-0.3-3.9s1.3-2.3,2.6-2.9c1.3-0.7,2.6-0.8,3.9-0.3c1.3,0.4,2.3,1.3,3,2.6
			c0.4,0.8,0.6,1.6,0.5,2.5c0,0.9-0.3,1.6-0.7,2.4l-2.1-1.4c0.2-0.3,0.3-0.7,0.4-1.1c0-0.4-0.1-0.8-0.3-1.2
			c-0.4-0.7-0.9-1.2-1.5-1.4c-0.7-0.2-1.3-0.1-2,0.2s-1.2,0.9-1.4,1.5c-0.2,0.6-0.2,1.3,0.2,2c0.2,0.4,0.5,0.7,0.8,1
			c0.3,0.2,0.7,0.4,1.1,0.4L-60.2-9c-0.8-0.1-1.6-0.3-2.3-0.8S-63.9-11.1-64.3-11.9z"/>
		<path d="M-59.1-0.2C-60.3-1-61-2-61.3-3.4c-0.3-1.4-0.1-2.7,0.6-3.9s1.8-1.9,3.2-2.2c1.4-0.3,2.7-0.1,3.9,0.7
			c1.2,0.8,1.9,1.8,2.2,3.2c0.3,1.4,0.1,2.7-0.6,3.9s-1.8,1.9-3.2,2.2S-57.9,0.6-59.1-0.2z M-58.7-5.9c-0.4,0.6-0.5,1.3-0.3,2
			s0.5,1.3,1.1,1.7s1.3,0.5,2,0.3c0.8-0.2,1.3-0.6,1.7-1.2c0.4-0.6,0.5-1.3,0.3-2s-0.5-1.3-1.1-1.7s-1.3-0.5-2-0.3
			S-58.3-6.5-58.7-5.9z"/>
		<path d="M-50.8,12.6l-9.8-0.5l0.1-2.5l5.3,0.3L-59,7.3V7l4-2.2l-5.3-0.3l0.3-2.4l9.8,0.5l-0.1,2.5l-4.3,2.3l4,2.7L-50.8,12.6z"/>
		<path d="M-55.5,20.9l1-3.4l-1.5-0.4l-1,3.3l-2.3-0.7l1-3.3l-3.2-0.9l0.7-2.4l9.4,2.7l-1.7,5.8L-55.5,20.9z"/>
		<path d="M-58,31.5l-3.8-5.7l-3.3-1.7l1.2-2.2l3.3,1.7l6.9-0.1L-55,26l-4-0.1l2.4,3.2L-58,31.5z"/>
	</g>
	<path class="st2" d="M-63.2,29.5C-71.1,40.2-83.7,47.1-98,47.1c-23.8,0-43.1-19.3-43.1-43.1c0-19.3,12.7-35.6,30.1-41.1"/>
	<g>
		<path class="st3" d="M-126.7,23.7c6.8-1.1,14.7-3.8,28.4-14s21.5-19.3,20.4-26.1c-7.9,7.9-14.7,7.9-20.4,9.1s-13,4.5-9.6,15.9
			c0,0-2.3-1.1-3.4-3.4c-2.8,5.1-1.7,9.6-6.8,12.5"/>
		<path class="st3" d="M-114.3,24.5c4.2,0.3,9.8,0,13.1-2c-2.3-1.1-2.9-3.1-2.9-4.8c1.1,0,8.6,1.2,12.5,0c4.5-1.3,9.5-5.2,11.2-11.9
			c0.7-2.5,0.8-3.9,0.9-5.1"/>
	</g>
</g>
<g>
	<g>
		<circle class="st1" cx="-185.3" cy="-185.9" r="49.3"/>
	</g>
	<g>
		<polyline class="st4" points="-172.1,-182.5 -172.1,-188.7 -172.1,-192.2 -172.1,-198.4 		"/>
		<polyline class="st4" points="-172.1,-177.3 -172.1,-171.1 -172.1,-167.6 -172.1,-160.5 		"/>
		<line class="st4" x1="-172.1" y1="-203.7" x2="-172.1" y2="-208.1"/>
		<polyline class="st4" points="-181.8,-160.5 -181.8,-165.8 -181.8,-165.8 -181.8,-166.7 		"/>
		<polyline class="st4" points="-181.8,-187.8 -181.8,-181.7 -181.8,-178.1 -181.8,-172 		"/>
		<line class="st4" x1="-181.8" y1="-193.1" x2="-181.8" y2="-208.1"/>
		<polyline class="st4" points="-191.5,-182.5 -191.5,-188.7 -191.5,-192.2 -191.5,-198.4 		"/>
		<polyline class="st4" points="-191.5,-177.3 -191.5,-171.1 -191.5,-167.6 -191.5,-160.5 		"/>
		<line class="st4" x1="-191.5" y1="-203.7" x2="-191.5" y2="-208.1"/>
		<polyline class="st4" points="-201.2,-166.7 -201.2,-165.8 -201.2,-165.8 -201.2,-160.5 		"/>
		<polyline class="st4" points="-201.2,-172 -201.2,-178.1 -201.2,-181.7 -201.2,-187.8 		"/>
		<line class="st4" x1="-201.2" y1="-193.1" x2="-201.2" y2="-208.1"/>
		<path class="st4" d="M-169.4-167.1c2.5-1,2.4-2.2,6.2-2.2"/>
		<path class="st4" d="M-174.7-167.1c-1.7-0.7-2.7-1-4.4-1.7c-0.7-0.3-1.6-0.5-2.6-0.5l0,0c-1.1,0-1.9,0.2-2.6,0.4
			c-1.7,0.7-2.7,1.1-4.4,1.7"/>
		<path class="st4" d="M-210.9-166.7c3.8,0,4.6-1.2,7.1-2.2c0.7-0.3,1.6-0.5,2.6-0.5c1.1,0,1.9,0.2,2.6,0.5c1.7,0.7,2.7,1,4.4,1.7"
			/>
		<path class="st4" d="M-210.9-179.9c3.8,0,4.6,1.2,7.1,2.2"/>
		<path class="st4" d="M-184.4-177.7c-1.7-0.7-2.7-1.1-4.4-1.7c-0.7-0.3-1.6-0.4-2.6-0.4l0,0c-1.1,0-1.9,0.2-2.6,0.5
			c-1.7,0.7-2.7,1.1-4.4,1.7"/>
		<path class="st4" d="M-179.1-177.7c1.7-0.7,2.7-1,4.4-1.7c0.7-0.3,1.6-0.5,2.6-0.5s1.9,0.2,2.6,0.5c2.5,1,2.4,2.2,6.2,2.2"/>
		<path class="st4" d="M-169.4-188.3c2.5-1,2.4-2.2,6.2-2.2"/>
		<path class="st4" d="M-174.7-188.3c-1.7-0.7-2.7-1-4.4-1.7c-0.7-0.3-1.6-0.5-2.6-0.5l0,0c-1.1,0-1.9,0.2-2.6,0.4
			c-1.7,0.7-2.7,1.1-4.4,1.7"/>
		<path class="st4" d="M-210.9-187.8c3.8,0,4.6-1.2,7.1-2.2c0.7-0.3,1.6-0.5,2.6-0.5c1.1,0,1.9,0.2,2.6,0.5c1.7,0.7,2.7,1,4.4,1.7"
			/>
		<path class="st4" d="M-210.9-201.1c3.8,0,4.6,1.2,7.1,2.2"/>
		<path class="st4" d="M-184.4-198.9c-1.7-0.7-2.7-1.1-4.4-1.7c-0.7-0.3-1.6-0.4-2.6-0.4l0,0c-1.1,0-1.9,0.2-2.6,0.5
			c-1.7,0.7-2.7,1.1-4.4,1.7"/>
		<path class="st4" d="M-179.1-198.9c1.7-0.7,2.7-1,4.4-1.7c0.7-0.3,1.6-0.5,2.6-0.5s1.9,0.2,2.6,0.5c2.5,1,2.4,2.2,6.2,2.2"/>
	</g>
	<g>
		<path d="M-191.7-233.4c1.3-0.1,2.5,0.2,3.5,1.1c1,0.8,1.6,2,1.7,3.3c0.1,1.4-0.2,2.6-1,3.6s-1.9,1.6-3.2,1.7l-4,0.4l-1-9.8
			L-191.7-233.4z M-190.9-226.1c0.7-0.1,1.2-0.3,1.6-0.8c0.4-0.5,0.5-1.1,0.5-1.9c-0.1-0.7-0.3-1.3-0.8-1.7c-0.5-0.4-1-0.6-1.7-0.5
			l-1.4,0.1l0.5,4.9L-190.9-226.1z"/>
		<path d="M-178.6-223.9c-0.8,0.5-1.8,0.7-2.9,0.6s-2-0.6-2.6-1.3s-0.9-1.6-0.8-2.6l0.9-6.5l2.4,0.3l-0.8,6.3
			c-0.1,0.8,0.3,1.3,1.2,1.4c0.9,0.1,1.4-0.2,1.5-1l0.8-6.3l2.5,0.3l-0.9,6.5C-177.4-225.2-177.8-224.4-178.6-223.9z"/>
		<path d="M-171.8-221l-0.5-3.6l-0.8-0.3l-1.1,3l-2.4-0.9l3.4-9.2l3.7,1.4c0.9,0.3,1.6,0.9,2,1.8c0.4,0.8,0.5,1.7,0.1,2.6
			c-0.2,0.6-0.5,1-1,1.4c-0.4,0.4-1,0.6-1.5,0.7l0.6,4.1L-171.8-221z M-171.6-228.9l-0.8,2.1l1.3,0.5c0.3,0.1,0.6,0.1,0.8,0
			c0.3-0.1,0.4-0.3,0.6-0.6c0.1-0.3,0.1-0.6,0-0.9s-0.3-0.4-0.6-0.5L-171.6-228.9z"/>
		<path d="M-163.6-216.4l0.4-1.4l-2.8-1.8l-1.1,1l-2.3-1.5l8-6.5l2.6,1.7l-2.6,10L-163.6-216.4z M-164.3-221.1l1.7,1.1l1-3.3
			L-164.3-221.1z"/>
		<path d="M-153.3-213.8c0.2,0.9,0,1.7-0.7,2.4c-0.6,0.6-1.3,0.9-2.1,0.8c-0.8-0.1-1.5-0.4-2.2-1.2l-2.9-3l7-6.9l2.7,2.8
			c0.7,0.7,1.1,1.4,1.1,2.2c0.1,0.8-0.2,1.5-0.8,2.1C-151.9-213.9-152.5-213.7-153.3-213.8z M-156.8-213.3c0.2,0.2,0.4,0.3,0.6,0.3
			s0.4-0.1,0.6-0.2c0.2-0.2,0.3-0.4,0.3-0.6s-0.1-0.4-0.3-0.6l-1.1-1.1l-1.2,1.2L-156.8-213.3z M-153.2-217.2l-0.9-0.9l-1.1,1.1
			l0.9,0.9c0.2,0.2,0.3,0.2,0.5,0.3c0.2,0,0.4-0.1,0.6-0.2c0.2-0.2,0.2-0.3,0.2-0.6C-152.9-216.9-153-217.1-153.2-217.2z"/>
		<path d="M-152.3-208l1.9,2.8l-2,1.3l-3.3-4.9l8.2-5.4l1.4,2.1L-152.3-208z"/>
		<path d="M-149-201.9l1.5,3.5l-2.2,0.9l-2.5-5.8l9-3.9l2.5,5.7l-2.1,0.9l-1.5-3.4l-1.3,0.6l1.3,3.1l-2.1,0.9l-1.3-3.1L-149-201.9z"
			/>
		<path d="M-137.7-184.7l-9.8,0.9l-0.2-2.5l5.3-0.5l-4.1-2v-0.3l3.7-2.7l-5.2,0.5l-0.2-2.5l9.8-0.9l0.2,2.5l-3.9,2.9l4.4,2.1V-184.7
			z"/>
		<path d="M-148.6-176.6l1.5-0.2l0.5-3.3l-1.3-0.6l0.4-2.7l9.2,4.7l-0.5,3.1L-149-174L-148.6-176.6z M-144.6-179.2l-0.3,1.9l3.4-0.4
			L-144.6-179.2z"/>
		<path d="M-142.3-164.7l-2.3-0.8l0.8-2.3l-6.8-2.6l0.9-2.3l6.9,2.6l0.8-2.3l2.3,0.8L-142.3-164.7z"/>
		<path d="M-151.1-164.2l-2,3.2l-2-1.2l3.3-5.4l8.4,5.1l-3.2,5.3l-2-1.2l1.9-3.2l-1.2-0.7l-1.7,2.9l-2-1.2l1.7-2.9L-151.1-164.2z"/>
		<path d="M-159-157.7l3.5,0.9l0.6-0.7l-2.3-2.1l1.7-1.8l7.2,6.6l-2.6,2.9c-0.7,0.7-1.5,1.1-2.4,1.2c-0.9,0.1-1.8-0.2-2.5-0.9
			c-0.4-0.4-0.7-0.9-0.9-1.4c-0.2-0.6-0.2-1.1,0-1.7l-4-1L-159-157.7z M-151.7-154.6l-1.6-1.5l-0.9,1c-0.2,0.2-0.3,0.5-0.3,0.8
			s0.1,0.5,0.4,0.8c0.2,0.2,0.5,0.3,0.8,0.3s0.5-0.1,0.7-0.3L-151.7-154.6z"/>
		<path d="M-155.3-147.8l-2,1.6l-6.1-7.7l2-1.6L-155.3-147.8z"/>
		<path d="M-169.7-150l1.1,1l2.9-1.6l-0.3-1.4l2.4-1.4l2,10.1l-2.8,1.5l-7.6-7L-169.7-150z M-165.2-148.4l-1.7,1l2.5,2.4
			L-165.2-148.4z"/>
		<path d="M-174.1-145.7l-3.2,1l-0.7-2.3l5.6-1.8l2.9,9.3l-2.4,0.8L-174.1-145.7z"/>
		<path d="M-182-146.7c1-0.1,1.9,0,2.6,0.3c0.7,0.4,1.3,0.9,1.6,1.6l-2,1.5c-0.5-0.8-1.2-1.2-2.1-1.1c-0.8,0.1-1.1,0.4-1.1,0.8
			c0,0.3,0.3,0.5,0.7,0.6c0.2,0.1,0.6,0.1,1.3,0.2c0.9,0.2,1.7,0.4,2.2,0.8c0.6,0.4,0.9,1,1,1.9c0.1,0.9-0.1,1.7-0.7,2.3
			c-0.6,0.6-1.3,1-2.3,1.1c-0.8,0.1-1.6,0-2.2-0.3c-0.7-0.3-1.2-0.8-1.6-1.5l1.9-1.5c0.4,0.7,0.9,1,1.6,0.9c0.3,0,0.5-0.1,0.7-0.3
			c0.2-0.2,0.2-0.3,0.2-0.5s-0.2-0.4-0.4-0.5c-0.2-0.1-0.7-0.2-1.4-0.4c-0.5-0.1-0.9-0.2-1.2-0.3s-0.6-0.2-1-0.4
			c-0.4-0.2-0.7-0.4-0.9-0.8c-0.2-0.4-0.3-0.7-0.4-1.2c-0.1-1,0.1-1.7,0.7-2.4C-184-146.2-183.1-146.6-182-146.7z"/>
	</g>
	<path class="st5" d="M-189.7-143.1c-21.6-2-38.5-20.2-38.5-42.3c0-19.1,12.6-35.2,29.9-40.6"/>
</g>
<g>
	<line class="st6" x1="-1156" y1="43.3" x2="-1168" y2="55.3"/>
	<line class="st6" x1="-1140" y1="-12.7" x2="-1152" y2="-0.7"/>
	<line class="st6" x1="-1080" y1="-12.7" x2="-1092" y2="-0.7"/>
	<line class="st6" x1="-1016" y1="-12.7" x2="-1028" y2="-0.7"/>
	<line class="st6" x1="-948" y1="-12.7" x2="-960" y2="-0.7"/>
	<line class="st6" x1="-1084" y1="43.3" x2="-1096" y2="55.3"/>
	<line class="st6" x1="-1012" y1="43.3" x2="-1024" y2="55.3"/>
	<line class="st6" x1="-940" y1="43.3" x2="-952" y2="55.3"/>
</g>
<g>
	<line class="st7" x1="-785.2" y1="-27" x2="-785.2" y2="-17.7"/>
	<line class="st7" x1="-779.8" y1="-27" x2="-779.8" y2="-23.1"/>
	<line class="st7" x1="-779.8" y1="-18.5" x2="-779.8" y2="-12.3"/>
	<line class="st7" x1="-774.4" y1="-27" x2="-774.4" y2="-17.7"/>
	<line class="st7" x1="-782.9" y1="-20.8" x2="-776.7" y2="-20.8"/>
	<line class="st7" x1="-778.2" y1="-15.4" x2="-771.3" y2="-15.4"/>
	<line class="st7" x1="-790.6" y1="-27" x2="-790.6" y2="-23.1"/>
	<line class="st7" x1="-790.6" y1="2.4" x2="-790.6" y2="6.3"/>
	<line class="st7" x1="-779.8" y1="2.4" x2="-779.8" y2="6.3"/>
	<line class="st7" x1="-768.9" y1="2.4" x2="-768.9" y2="6.3"/>
	<line class="st7" x1="-790.6" y1="-18.5" x2="-790.6" y2="-12.3"/>
	<line class="st7" x1="-796.1" y1="-20.8" x2="-787.5" y2="-20.8"/>
	<line class="st7" x1="-788.3" y1="-15.4" x2="-782.1" y2="-15.4"/>
	<line class="st7" x1="-768.9" y1="-27" x2="-768.9" y2="-23.1"/>
	<line class="st7" x1="-768.9" y1="-18.5" x2="-768.9" y2="-12.3"/>
	<line class="st7" x1="-772" y1="-20.8" x2="-763.5" y2="-20.8"/>
	<line class="st7" x1="-785.2" y1="-13.1" x2="-785.2" y2="-6.9"/>
	<line class="st7" x1="-774.4" y1="-13.1" x2="-774.4" y2="-6.1"/>
	<line class="st7" x1="-782.9" y1="-10" x2="-776.7" y2="-10"/>
	<line class="st7" x1="-796.1" y1="-10" x2="-787.5" y2="-10"/>
	<line class="st7" x1="-772" y1="-10" x2="-765.1" y2="-10"/>
	<line class="st7" x1="-779.8" y1="-7.6" x2="-779.8" y2="-2.2"/>
	<line class="st7" x1="-777.5" y1="-4.5" x2="-771.3" y2="-4.5"/>
	<line class="st7" x1="-790.6" y1="-7.6" x2="-790.6" y2="-2.2"/>
	<line class="st7" x1="-788.3" y1="-4.5" x2="-782.1" y2="-4.5"/>
	<line class="st7" x1="-768.9" y1="-7.6" x2="-768.9" y2="-2.2"/>
	<line class="st7" x1="-785.2" y1="-2.2" x2="-785.2" y2="6.3"/>
	<line class="st7" x1="-774.4" y1="-2.2" x2="-774.4" y2="6.3"/>
	<line class="st7" x1="-782.9" y1="0.1" x2="-776.7" y2="0.1"/>
	<line class="st7" x1="-796.1" y1="0.1" x2="-787.5" y2="0.1"/>
	<line class="st7" x1="-772" y1="0.1" x2="-763.5" y2="0.1"/>
	<line class="st7" x1="-793" y1="-15.4" x2="-796.1" y2="-15.4"/>
	<line class="st7" x1="-793" y1="-4.5" x2="-796.1" y2="-4.5"/>
	<line class="st7" x1="-763.5" y1="-15.4" x2="-766.6" y2="-15.4"/>
	<line class="st7" x1="-763.5" y1="-4.5" x2="-766.6" y2="-4.5"/>
</g>
<g>
	<path class="st1" d="M-563.4-64.5c0,0,0.5-0.8,1.4-0.8h6.3c0,0,1,0,1.4,0.8l3.2,5.5c0,0,0.5,0.8,0,1.7l-3.1,5.5
		c0,0-0.5,0.8-1.4,0.8h-6.3c0,0-1,0-1.4-0.8l-3.2-5.5c0,0-0.5-0.8,0-1.7L-563.4-64.5L-563.4-64.5z"/>
	<path class="st8" d="M-562.3-63.2c0,0,0.4-0.6,1.1-0.6h4.8c0,0,0.7,0,1.1,0.6l2.4,4.1c0,0,0.4,0.6,0,1.3l-2.4,4.1
		c0,0-0.4,0.6-1.1,0.6h-4.8c0,0-0.7,0-1.1-0.6l-2.4-4.1c0,0-0.4-0.6,0-1.3L-562.3-63.2L-562.3-63.2z"/>
	<path class="st8" d="M-530.4-36.2h-4.3c-0.2,0-0.5-0.2-0.5-0.4v-19.6c0-0.2,0.2-0.4,0.5-0.4l4.3-0.5c0.3,0,0.4,0.2,0.4,0.4v20.1
		C-530-36.4-530.2-36.2-530.4-36.2L-530.4-36.2z"/>
	<path class="st8" d="M-511.4-53h-8.5v5.6h7.6c0.2,0,0.4,0.2,0.4,0.4v2.9c0,0.3-0.2,0.4-0.4,0.4h-7.6v7c0,0.3-0.2,0.4-0.5,0.4h-4.2
		c-0.3,0-0.5-0.2-0.5-0.4v-19.6c0-0.3,0.2-0.4,0.5-0.4h13.2c0.3,0,0.4,0.2,0.4,0.4v2.9C-510.9-53.2-511.1-53-511.4-53L-511.4-53z"/>
	<path class="st8" d="M-501.2-35.9c-3.9,0-7-0.9-7.5-1.1c-0.3-0.1-0.6-0.3-0.5-0.9l0.4-2.2c0.1-0.4,0.4-0.6,0.8-0.4
		c0.6,0.1,3.5,0.9,5.9,0.9c2.1,0,3.6-0.5,3.6-2.4c0-2-1.9-2.2-4.2-2.6c-2.8-0.4-6.7-1.3-6.7-6.1c0-5,3.4-6.5,8.1-6.5
		c3.3,0,6.1,0.8,6.7,0.9c0.4,0.1,0.7,0.3,0.6,0.8l-0.4,2.3c-0.1,0.3-0.2,0.5-0.7,0.4c-1.9-0.4-3.7-0.8-5.6-0.8
		c-1.8,0-3.5,0.3-3.5,2.3c0,1.9,2,2.1,4.3,2.5c3.2,0.5,6.7,1.2,6.7,6.5C-493.1-37.5-497-35.9-501.2-35.9L-501.2-35.9z"/>
	<path class="st8" d="M-534.5-25.9h-0.6c-0.1,0-0.1,0-0.1-0.1v-4.8c0-0.1,0-0.1,0.1-0.1l0.6-0.1c0.1,0,0.1,0,0.1,0.1v4.8
		C-534.4-25.9-534.5-25.9-534.5-25.9L-534.5-25.9z"/>
	<path class="st8" d="M-530.3-25.9h-0.6c-0.1,0-0.1,0-0.1-0.1v-2.4c0-0.4-0.2-0.5-0.5-0.5c-0.4,0-0.9,0.1-1,0.1v2.8
		c0,0.1,0,0.1-0.1,0.1h-0.6c-0.1,0-0.1,0-0.1-0.1v-2.8c0-0.3,0.1-0.4,0.4-0.5c0.3-0.1,0.9-0.2,1.4-0.2c0.8,0,1.2,0.2,1.2,1v2.5
		C-530.2-25.9-530.2-25.9-530.3-25.9L-530.3-25.9z"/>
	<path class="st8" d="M-527.3-26c0,0.1,0,0.1-0.1,0.1c-0.1,0-0.4,0.1-0.8,0.1c-0.7,0-1.1-0.3-1.1-1v-3.5c0-0.1,0-0.1,0.1-0.1
		l0.5-0.1c0.1,0,0.1,0,0.1,0.1v1.1h1c0.1,0,0.1,0,0.1,0.1v0.3c0,0.1,0,0.1-0.1,0.1h-1v2c0,0.3,0.1,0.4,0.5,0.4c0.2,0,0.4,0,0.5-0.1
		c0.1,0,0.1,0,0.1,0.1L-527.3-26L-527.3-26z"/>
	<path class="st8" d="M-523.6-27.4c0,0.1,0,0.1-0.1,0.1h-2.3c0,0.3,0.1,0.5,0.2,0.7c0.2,0.2,0.5,0.2,0.9,0.2c0.4,0,0.7-0.1,1-0.2
		l0,0c0,0,0.1,0,0.1,0.1l0.1,0.3l0,0c0,0,0,0.1-0.1,0.1c-0.2,0.1-0.7,0.2-1.2,0.2c-1.3,0-1.8-0.6-1.8-1.8c0-1.2,0.3-1.9,1.6-1.9
		c0.7,0,1.1,0.2,1.3,0.5c0.2,0.3,0.3,0.7,0.3,1.2C-523.6-27.6-523.6-27.5-523.6-27.4L-523.6-27.4z M-524.4-28.4
		c-0.1-0.4-0.3-0.5-0.8-0.5s-0.7,0.1-0.8,0.5c-0.1,0.2-0.1,0.4-0.1,0.6h1.7C-524.3-28-524.3-28.2-524.4-28.4L-524.4-28.4z"/>
	<path class="st8" d="M-522.7-28.8c0-0.3,0.1-0.4,0.4-0.5s0.8-0.2,1.3-0.2c0.1,0,0.2,0,0.2,0.1v0.4c0,0.1,0,0.1-0.1,0.1
		c-0.4,0-0.8,0-1,0.1v2.8c0,0.1,0,0.1-0.1,0.1h-0.6c-0.1,0-0.1,0-0.1-0.1V-28.8L-522.7-28.8z"/>
	<path class="st8" d="M-517.3-25.9h-0.6c-0.1,0-0.1,0-0.1-0.1v-2.4c0-0.4-0.2-0.5-0.5-0.5c-0.4,0-0.9,0.1-1,0.1v2.8
		c0,0.1,0,0.1-0.1,0.1h-0.6c-0.1,0-0.1,0-0.1-0.1v-2.8c0-0.3,0.1-0.4,0.4-0.5c0.3-0.1,0.9-0.2,1.4-0.2c0.8,0,1.2,0.2,1.2,1v2.5
		C-517.2-25.9-517.2-25.9-517.3-25.9L-517.3-25.9z"/>
	<path class="st8" d="M-513.9-25.9c-0.2,0.1-0.5,0.1-0.9,0.1c-0.7,0-1.6-0.1-1.6-1.1c0-0.9,0.5-1,1.1-1.1l1.2-0.2v-0.2
		c0-0.2,0-0.3-0.2-0.4c-0.1,0-0.3-0.1-0.5-0.1c-0.5,0-0.9,0.1-1.2,0.2l0,0c0,0-0.1,0-0.1-0.1l-0.1-0.4c0-0.1,0-0.1,0.1-0.1
		c0.2-0.1,0.8-0.2,1.4-0.2c0.5,0,0.8,0.1,1,0.2c0.3,0.2,0.4,0.5,0.4,0.9v1.9C-513.3-26.1-513.5-26-513.9-25.9L-513.9-25.9z
		 M-514.1-27.6l-1,0.2c-0.3,0-0.5,0.1-0.5,0.5c0,0.6,0.5,0.6,0.8,0.6s0.5,0,0.7-0.1V-27.6L-514.1-27.6z"/>
	<path class="st8" d="M-510.3-26c0,0.1,0,0.1-0.1,0.1s-0.4,0.1-0.8,0.1c-0.7,0-1.1-0.3-1.1-1v-3.5c0-0.1,0-0.1,0.1-0.1l0.5-0.1
		c0.1,0,0.1,0,0.1,0.1v1.1h1c0.1,0,0.1,0,0.1,0.1v0.3c0,0.1,0,0.1-0.1,0.1h-1v2c0,0.3,0.1,0.4,0.5,0.4c0.2,0,0.4,0,0.5-0.1
		c0.1,0,0.1,0,0.1,0.1L-510.3-26L-510.3-26z"/>
	<path class="st8" d="M-509-29.9h-0.5c-0.1,0-0.1,0-0.1-0.1v-0.7c0-0.1,0.1-0.1,0.1-0.1h0.5c0.1,0,0.1,0,0.1,0.1v0.7
		C-508.8-29.9-508.9-29.9-509-29.9L-509-29.9z M-508.9-25.9h-0.5c-0.1,0-0.1,0-0.1-0.1v-3.3c0-0.1,0-0.1,0.1-0.1h0.5
		c0.1,0,0.1,0,0.1,0.1v3.3C-508.8-25.9-508.9-25.9-508.9-25.9L-508.9-25.9z"/>
	<path class="st8" d="M-506.3-25.8c-1.5,0-1.6-0.8-1.6-1.8s0.2-1.8,1.6-1.8c1.5,0,1.6,0.8,1.6,1.8
		C-504.7-26.6-504.8-25.8-506.3-25.8L-506.3-25.8z M-506.3-28.9c-0.8,0-0.9,0.5-0.9,1.3s0,1.3,0.9,1.3c0.8,0,0.8-0.5,0.8-1.3
		C-505.4-28.4-505.5-28.9-506.3-28.9L-506.3-28.9z"/>
	<path class="st8" d="M-500.9-25.9h-0.6c-0.1,0-0.1,0-0.1-0.1v-2.4c0-0.4-0.2-0.5-0.5-0.5c-0.4,0-0.9,0.1-1,0.1v2.8
		c0,0.1,0,0.1-0.1,0.1h-0.6c-0.1,0-0.1,0-0.1-0.1v-2.8c0-0.3,0.1-0.4,0.4-0.5c0.3-0.1,0.9-0.2,1.4-0.2c0.8,0,1.2,0.2,1.2,1v2.5
		C-500.8-25.9-500.8-25.9-500.9-25.9L-500.9-25.9z"/>
	<path class="st8" d="M-497.5-25.9c-0.2,0.1-0.5,0.1-0.9,0.1c-0.7,0-1.6-0.1-1.6-1.1c0-0.9,0.5-1,1.1-1.1l1.2-0.2v-0.2
		c0-0.2,0-0.3-0.2-0.4c-0.1,0-0.3-0.1-0.5-0.1c-0.5,0-0.9,0.1-1.2,0.2l0,0c0,0-0.1,0-0.1-0.1l-0.1-0.4c0-0.1,0-0.1,0.1-0.1
		c0.2-0.1,0.8-0.2,1.4-0.2c0.5,0,0.8,0.1,1,0.2c0.3,0.2,0.4,0.5,0.4,0.9v1.9C-496.9-26.1-497.1-26-497.5-25.9L-497.5-25.9z
		 M-497.7-27.6l-1,0.2c-0.3,0-0.5,0.1-0.5,0.5c0,0.6,0.5,0.6,0.8,0.6c0.3,0,0.5,0,0.7-0.1V-27.6L-497.7-27.6z"/>
	<path class="st8" d="M-494.5-26c0,0,0,0.1-0.1,0.1s-0.3,0.1-0.6,0.1c-0.5,0-0.8-0.3-0.8-0.8v-4.1c0-0.1,0-0.1,0.1-0.1l0.5-0.1l0,0
		c0.1,0,0.1,0,0.1,0.1v4.1c0,0.2,0.1,0.3,0.3,0.3c0.1,0,0.2,0,0.2,0s0.1,0,0.1,0.1L-494.5-26L-494.5-26z"/>
	<path class="st8" d="M-532.1-22.1h-2.3v1.7h2.1c0.1,0,0.1,0,0.1,0.1v0.5c0,0.1,0,0.1-0.1,0.1h-2.1v1.8c0,0.1-0.1,0.1-0.1,0.1h-0.6
		c-0.1,0-0.1,0-0.1-0.1v-4.7c0-0.1,0.1-0.1,0.1-0.1h3c0.1,0,0.1,0,0.1,0.1v0.4C-532-22.2-532.1-22.1-532.1-22.1L-532.1-22.1z"/>
	<path class="st8" d="M-528.3-19.3c0,0.1,0,0.1-0.1,0.1h-2.3c0,0.3,0.1,0.5,0.2,0.7c0.2,0.2,0.5,0.2,0.9,0.2c0.4,0,0.7-0.1,1-0.2
		l0,0c0,0,0.1,0,0.1,0.1l0.1,0.3l0,0c0,0,0,0.1-0.1,0.1c-0.2,0.1-0.7,0.2-1.2,0.2c-1.3,0-1.8-0.6-1.8-1.8c0-1.2,0.3-1.9,1.6-1.9
		c0.7,0,1.1,0.2,1.3,0.5c0.2,0.3,0.3,0.7,0.3,1.2C-528.3-19.5-528.3-19.4-528.3-19.3L-528.3-19.3z M-529.1-20.4
		c-0.1-0.4-0.3-0.5-0.8-0.5s-0.7,0.1-0.8,0.5c-0.1,0.2-0.1,0.4-0.1,0.6h1.7C-529.1-19.9-529.1-20.2-529.1-20.4L-529.1-20.4z"/>
	<path class="st8" d="M-525.2-17.8c-0.2,0.1-0.5,0.1-0.9,0.1c-0.7,0-1.6-0.1-1.6-1.1c0-0.9,0.5-1,1.1-1.1l1.2-0.2v-0.2
		c0-0.2,0-0.3-0.2-0.4c-0.1,0-0.3-0.1-0.5-0.1c-0.5,0-0.9,0.1-1.2,0.2l0,0c0,0-0.1,0-0.1-0.1l-0.1-0.4c0-0.1,0-0.1,0.1-0.1
		c0.2-0.1,0.8-0.2,1.4-0.2c0.5,0,0.8,0.1,1,0.2c0.3,0.2,0.4,0.5,0.4,0.9v1.9C-524.6-18-524.7-17.9-525.2-17.8L-525.2-17.8z
		 M-525.3-19.6l-1,0.2c-0.3,0-0.5,0.1-0.5,0.5c0,0.6,0.5,0.6,0.8,0.6s0.5,0,0.7-0.1V-19.6L-525.3-19.6z"/>
	<path class="st8" d="M-521.6-18c0,0.1,0,0.1-0.1,0.1c-0.1,0-0.4,0.1-0.8,0.1c-0.7,0-1.1-0.3-1.1-1v-3.5c0-0.1,0-0.1,0.1-0.1
		l0.5-0.1c0.1,0,0.1,0,0.1,0.1v1.1h1c0.1,0,0.1,0,0.1,0.1v0.3c0,0.1,0,0.1-0.1,0.1h-1v2c0,0.3,0.1,0.4,0.5,0.4c0.2,0,0.4,0,0.5-0.1
		c0.1,0,0.1,0,0.1,0.1L-521.6-18L-521.6-18z"/>
	<path class="st8" d="M-519.3-17.7c-1.1,0-1.5-0.4-1.5-1.3v-2.1c0-0.1,0-0.1,0.1-0.1l0.5-0.1c0.1,0,0.1,0,0.1,0.1v2.3
		c0,0.5,0.2,0.7,0.8,0.7c0.7,0,0.8-0.3,0.8-0.8v-2.2c0-0.1,0-0.1,0.1-0.1l0.5-0.1c0.1,0,0.1,0,0.1,0.1v2.3
		C-517.8-18.3-518.1-17.7-519.3-17.7L-519.3-17.7z"/>
	<path class="st8" d="M-516.9-20.8c0-0.3,0.1-0.4,0.4-0.5s0.8-0.2,1.3-0.2c0.1,0,0.2,0,0.2,0.1v0.5c0,0.1,0,0.1-0.1,0.1
		c-0.4,0-0.8,0-1,0.1v2.8c0,0.1,0,0.1-0.1,0.1h-0.6c-0.1,0-0.1,0-0.1-0.1V-20.8L-516.9-20.8z"/>
	<path class="st8" d="M-511.4-19.3c0,0.1,0,0.1-0.1,0.1h-2.3c0,0.3,0.1,0.5,0.2,0.7c0.2,0.2,0.5,0.2,0.9,0.2c0.4,0,0.7-0.1,1-0.2
		l0,0c0,0,0.1,0,0.1,0.1l0.1,0.3l0,0c0,0,0,0.1-0.1,0.1c-0.2,0.1-0.7,0.2-1.2,0.2c-1.3,0-1.8-0.6-1.8-1.8c0-1.2,0.3-1.9,1.6-1.9
		c0.7,0,1.1,0.2,1.3,0.5s0.3,0.7,0.3,1.2C-511.4-19.5-511.4-19.4-511.4-19.3L-511.4-19.3z M-512.2-20.4c-0.1-0.4-0.3-0.5-0.8-0.5
		s-0.7,0.1-0.8,0.5c-0.1,0.2-0.1,0.4-0.1,0.6h1.7C-512.1-19.9-512.2-20.2-512.2-20.4L-512.2-20.4z"/>
	<path class="st8" d="M-508-17.9c-0.3,0.1-0.6,0.1-1.1,0.1c-1.3,0-1.7-0.5-1.7-1.8c0-1.2,0.3-1.9,1.5-1.9c0.5,0,0.8,0.1,1,0.1
		l-0.1-0.4v-0.9c0-0.1,0-0.1,0.1-0.1l0.5-0.1c0.1,0,0.1,0,0.1,0.1v4.4C-507.5-18.2-507.6-18-508-17.9L-508-17.9z M-508.3-20.8
		c-0.1,0-0.4-0.1-0.7-0.1c-0.6,0-0.9,0.2-0.9,1.3c0,1.2,0.3,1.3,0.9,1.3c0.3,0,0.7-0.1,0.7-0.1V-20.8L-508.3-20.8z"/>
	<path class="st8" d="M-502.9-17.7c-0.8,0-1.5-0.2-1.6-0.2s-0.1-0.1-0.1-0.1l0,0l0.1-0.4c0-0.1,0.1-0.1,0.1-0.1s0,0,0.1,0
		c0.1,0,0.8,0.2,1.5,0.2c0.6,0,1.1-0.2,1.1-0.8c0-0.6-0.5-0.7-1.2-0.8c-0.7-0.1-1.7-0.3-1.7-1.4c0-1.2,0.9-1.4,1.9-1.4
		c0.8,0,1.4,0.2,1.6,0.2c0.1,0,0.1,0.1,0.1,0.2l-0.1,0.4l-0.1,0.1c-0.2-0.1-0.8-0.2-1.4-0.2c-0.5,0-1.1,0.1-1.1,0.7s0.6,0.7,1.2,0.8
		c0.8,0.1,1.7,0.2,1.7,1.4C-501-18.1-502-17.7-502.9-17.7L-502.9-17.7z"/>
	<path class="st8" d="M-498.1-18c0,0.1,0,0.1-0.1,0.1c-0.1,0-0.4,0.1-0.8,0.1c-0.7,0-1.1-0.3-1.1-1v-3.5c0-0.1,0-0.1,0.1-0.1
		l0.5-0.1c0.1,0,0.1,0,0.1,0.1v1.1h1c0.1,0,0.1,0,0.1,0.1v0.3c0,0.1,0,0.1-0.1,0.1h-1v2c0,0.3,0.1,0.4,0.5,0.4c0.2,0,0.4,0,0.5-0.1
		c0.1,0,0.1,0,0.1,0.1L-498.1-18L-498.1-18z"/>
	<path class="st8" d="M-495.1-17.8c-0.2,0.1-0.5,0.1-0.9,0.1c-0.7,0-1.6-0.1-1.6-1.1c0-0.9,0.5-1,1.1-1.1l1.2-0.2v-0.2
		c0-0.2,0-0.3-0.2-0.4c-0.1,0-0.3-0.1-0.5-0.1c-0.5,0-0.9,0.1-1.2,0.2l0,0c0,0-0.1,0-0.1-0.1l-0.1-0.4c0-0.1,0-0.1,0.1-0.1
		c0.2-0.1,0.8-0.2,1.4-0.2c0.5,0,0.8,0.1,1,0.2c0.3,0.2,0.4,0.5,0.4,0.9v1.9C-494.5-18-494.7-17.9-495.1-17.8L-495.1-17.8z
		 M-495.3-19.6l-1,0.2c-0.3,0-0.5,0.1-0.5,0.5c0,0.6,0.5,0.6,0.8,0.6s0.5,0,0.7-0.1V-19.6L-495.3-19.6z"/>
	<path class="st8" d="M-490.6-17.8h-0.6c-0.1,0-0.1,0-0.1-0.1v-2.4c0-0.4-0.2-0.5-0.5-0.5c-0.4,0-0.9,0.1-1,0.1v2.8
		c0,0.1,0,0.1-0.1,0.1h-0.6c-0.1,0-0.1,0-0.1-0.1v-2.8c0-0.3,0.1-0.4,0.4-0.5c0.3-0.1,0.9-0.2,1.4-0.2c0.8,0,1.2,0.2,1.2,1v2.5
		C-490.5-17.9-490.6-17.8-490.6-17.8L-490.6-17.8z"/>
	<path class="st8" d="M-487-17.9c-0.3,0.1-0.6,0.1-1.1,0.1c-1.3,0-1.7-0.5-1.7-1.8c0-1.2,0.3-1.9,1.5-1.9c0.5,0,0.8,0.1,1,0.1
		l-0.1-0.4v-0.9c0-0.1,0-0.1,0.1-0.1l0.5-0.1c0.1,0,0.1,0,0.1,0.1v4.4C-486.5-18.2-486.6-18-487-17.9L-487-17.9z M-487.3-20.8
		c-0.1,0-0.4-0.1-0.7-0.1c-0.6,0-0.9,0.2-0.9,1.3c0,1.2,0.3,1.3,0.9,1.3c0.3,0,0.7-0.1,0.7-0.1V-20.8L-487.3-20.8z"/>
	<path class="st8" d="M-483.2-17.8c-0.2,0.1-0.5,0.1-0.9,0.1c-0.7,0-1.6-0.1-1.6-1.1c0-0.9,0.5-1,1.1-1.1l1.2-0.2v-0.2
		c0-0.2,0-0.3-0.2-0.4c-0.1,0-0.3-0.1-0.5-0.1c-0.5,0-0.9,0.1-1.2,0.2l0,0c0,0-0.1,0-0.1-0.1l-0.1-0.4c0-0.1,0-0.1,0.1-0.1
		c0.2-0.1,0.8-0.2,1.4-0.2c0.5,0,0.8,0.1,1,0.2c0.3,0.2,0.4,0.5,0.4,0.9v1.9C-482.7-18-482.8-17.9-483.2-17.8L-483.2-17.8z
		 M-483.4-19.6l-1,0.2c-0.3,0-0.5,0.1-0.5,0.5c0,0.6,0.5,0.6,0.8,0.6c0.3,0,0.5,0,0.7-0.1V-19.6L-483.4-19.6z"/>
	<path class="st8" d="M-481.7-20.8c0-0.3,0.1-0.4,0.4-0.5c0.3-0.1,0.8-0.2,1.3-0.2c0.1,0,0.2,0,0.2,0.1v0.5c0,0.1,0,0.1-0.1,0.1
		c-0.4,0-0.8,0-1,0.1v2.8c0,0.1,0,0.1-0.1,0.1h-0.6c-0.1,0-0.1,0-0.1-0.1L-481.7-20.8L-481.7-20.8z"/>
	<path class="st8" d="M-476.7-17.9c-0.3,0.1-0.6,0.1-1.1,0.1c-1.3,0-1.7-0.5-1.7-1.8c0-1.2,0.3-1.9,1.5-1.9c0.5,0,0.8,0.1,1,0.1
		l-0.1-0.4v-0.9c0-0.1,0-0.1,0.1-0.1l0.5-0.1c0.1,0,0.1,0,0.1,0.1v4.4C-476.3-18.2-476.3-18-476.7-17.9L-476.7-17.9z M-477-20.8
		c-0.1,0-0.4-0.1-0.7-0.1c-0.6,0-0.9,0.2-0.9,1.3c0,1.2,0.3,1.3,0.9,1.3c0.3,0,0.7-0.1,0.7-0.1V-20.8L-477-20.8z"/>
	<path class="st8" d="M-474.2-17.7c-0.6,0-1.1-0.2-1.2-0.2c0,0-0.1,0-0.1-0.1l0.1-0.4c0,0,0-0.1,0.1-0.1l0,0c0.1,0,0.5,0.2,1,0.2
		c0.4,0,0.7-0.1,0.7-0.5s-0.3-0.4-0.8-0.5s-1.2-0.2-1.2-1c0-0.9,0.8-1.1,1.4-1.1c0.6,0,1,0.1,1.1,0.1s0.1,0,0.1,0.1l-0.1,0.4
		c0,0,0,0.1-0.1,0.1c-0.1,0-0.5-0.1-0.9-0.1s-0.7,0.1-0.7,0.5s0.4,0.4,0.8,0.5c0.6,0.1,1.2,0.2,1.2,1.1
		C-472.7-18-473.4-17.7-474.2-17.7L-474.2-17.7z"/>
	<path class="st9" d="M-551.8-44.1c0,0,0.4-0.6,1.1-0.6h4.8c0,0,0.7,0,1.1,0.6l2.4,4.1c0,0,0.4,0.6,0,1.3l-2.4,4.1
		c0,0-0.4,0.6-1.1,0.6h-4.8c0,0-0.7,0-1.1-0.6l-2.4-4.1c0,0-0.4-0.6,0-1.3L-551.8-44.1L-551.8-44.1z"/>
	<path class="st9" d="M-551.8-56.6c0,0,0.4-0.6,1.1-0.6h4.8c0,0,0.7,0,1.1,0.6l2.4,4.1c0,0,0.4,0.6,0,1.3l-2.4,4.1
		c0,0-0.4,0.6-1.1,0.6h-4.8c0,0-0.7,0-1.1-0.6l-2.4-4.1c0,0-0.4-0.6,0-1.3L-551.8-56.6L-551.8-56.6z"/>
</g>
<path class="st10" d="M-244,113.6c-26.6,0-48.2,21.6-48.2,48.2S-270.6,210-244,210s48.2-21.6,48.2-48.2S-217.5,113.6-244,113.6z
	 M-244,198.7c-8.1,0-15.7-2.7-21.8-7.1l15.8-15.8h-16l-7.8,7.8c-4.5-6.1-7.1-13.6-7.1-21.8c0-20.4,16.6-36.9,36.9-36.9
	c8.1,0,15.7,2.7,21.8,7.1l-15.8,15.8h15.9l7.8-7.8c4.5,6.1,7.1,13.6,7.1,21.8C-207.1,182.1-223.7,198.7-244,198.7z"/>
<path class="st11" d="M-502.9,44.6h-86.2v20.1c0,3.1,2.6,5.7,5.7,5.7h55.6C-500.6,70.4-502.9,48.4-502.9,44.6 M-498.1,44.6v-33
	c0-5-4.1-9.1-9.1-9.1h-77.5c-5,0-9.1,4.1-9.1,9.1v33v21.2c0,5,4.1,9.1,9.1,9.1h55.5c11,0,20.3-3.3,25-9.1
	C-500,60.6-498.1,53.4-498.1,44.6z"/>
<g id="XMLID_186_">
	<g id="XMLID_189_">
		<path id="XMLID_190_" class="st12" d="M-588.1,314.1c-0.1,0-0.1,0-0.2,0c-0.4-0.1-0.6-0.5-0.5-0.9c3.3-10.4,1.8-21.7-4-30.9
			c-5.1-8.2-13.2-14-22.6-16.4c-0.4-0.1-0.6-0.5-0.5-0.9c0.1-0.4,0.5-0.6,0.9-0.5c9.8,2.4,18.1,8.5,23.4,17c6,9.6,7.5,21.3,4.1,32.1
			C-587.6,313.9-587.8,314.1-588.1,314.1z"/>
	</g>
	<g id="XMLID_187_">
		<path id="XMLID_188_" class="st12" d="M-660.8,313.8c-0.3,0-0.6-0.2-0.7-0.5c-3.9-13-0.7-27.3,8.4-37.3c0.3-0.3,0.7-0.3,1,0
			c0.3,0.3,0.3,0.7,0,1c-8.8,9.7-11.9,23.4-8.1,35.9C-660.1,313.3-660.3,313.7-660.8,313.8C-660.6,313.8-660.7,313.8-660.8,313.8z"
			/>
	</g>
</g>
<g>
	<path class="st13" d="M-653.9,321.1c0-0.1,0-0.1,0-0.2l-0.4-0.9c0-0.1-0.1-0.1-0.2-0.1l-4.4,0.3l2.7-3.5c0-0.1,0.1-0.2,0-0.2
		l-0.4-0.9c0-0.1-0.1-0.1-0.2-0.1c-0.1,0-0.1,0-0.2,0.1l-4.3,5.5c-0.1,0.1-0.1,0.2,0,0.2v0.1c0,0.1,0.1,0.1,0.2,0.1l0,0l7-0.4
		C-654,321.2-654,321.2-653.9,321.1z"/>
	<path class="st13" d="M-654.5,324.6l1.1-0.9l1.7,2.2c0.1,0.1,0.2,0.1,0.3,0l0.6-0.5c0.1-0.1,0.1-0.2,0-0.3l-2.4-3
		c0,0-0.1-0.1-0.2-0.1c-0.1,0-0.1,0-0.2,0l-4.9,3.8c0,0-0.1,0.1-0.1,0.2s0,0.1,0,0.2l2.4,3c0,0.1,0.1,0.1,0.2,0.1l0,0
		c0.1,0,0.1,0,0.1,0l0.6-0.5c0,0,0.1-0.1,0.1-0.2s0-0.1,0-0.2l-1.7-2.2l1.2-0.9l1.4,1.8c0.1,0.1,0.2,0.1,0.3,0l0.6-0.5
		c0.1-0.1,0.1-0.2,0-0.3L-654.5,324.6z"/>
	<path class="st13" d="M-647.8,332.6c0-0.1,0-0.1-0.1-0.2l-1.4-1.2c0,0-0.1-0.1-0.2-0.1s-0.1,0-0.2,0.1l-0.5,0.6
		c0,0-0.1,0.1-0.1,0.2s0,0.1,0.1,0.2l0.5,0.5l-0.5,0.5c-0.2-0.1-0.6-0.2-0.9-0.6c-0.9-0.8-0.9-2.1-0.1-3s2.1-1,3-0.2
		c0.4,0.3,0.6,0.8,0.7,1.3c0,0.1,0.1,0.2,0.2,0.2l0.8-0.1c0.1,0,0.1,0,0.2-0.1c0,0,0.1-0.1,0.1-0.2c-0.1-0.9-0.5-1.7-1.2-2.2
		c-0.7-0.6-1.6-0.9-2.5-0.9c-0.9,0.1-1.8,0.5-2.4,1.2c-0.6,0.7-0.9,1.6-0.9,2.5c0.1,0.9,0.5,1.8,1.2,2.4c1,0.9,2.2,1.1,2.2,1.1l0,0
		c0.1,0,0.1,0,0.2-0.1l1.6-1.8C-647.8,332.7-647.7,332.6-647.8,332.6z"/>
	<path class="st13" d="M-642.1,332c-0.1,0-0.1-0.1-0.2,0l-5.8,4c-0.1,0-0.1,0.1-0.1,0.2s0,0.1,0.1,0.2l0.7,0.4
		c0.1,0.1,0.3,0.1,0.4,0l0.9-0.6l2.4,1.4l-0.1,1.1c0,0.2,0,0.3,0.2,0.4l0.7,0.4h0.1h0.1c0.1,0,0.1-0.1,0.1-0.2l0.7-7
		C-641.9,332.2-641.9,332.1-642.1,332L-642.1,332z M-643.4,334.2l-0.2,2.1l-1.5-0.9L-643.4,334.2z"/>
	<path class="st13" d="M-633.2,336c0-0.1-0.1-0.1-0.1-0.1l-0.8-0.3c-0.1,0-0.1,0-0.2,0c-0.1,0-0.1,0.1-0.1,0.1l-1.2,3.6l-2.3-5.1
		l-0.2-0.1c-0.1,0-0.1,0-0.2,0c-0.1,0-0.1,0.1-0.1,0.1l-2.1,6c0,0.1,0,0.3,0.1,0.3l0.8,0.3c0.1,0,0.3,0,0.3-0.1l1.3-3.7l2.3,5.3l0,0
		l0.2,0.1h0.1h0.1c0.1,0,0.1-0.1,0.1-0.1l2.1-6C-633.2,336.2-633.2,336.1-633.2,336z"/>
</g>
<g>
	<path class="st13" d="M-624.5,337l-3.8-0.3c-0.1,0-0.2,0.1-0.2,0.2l-0.4,6.2c0,0.1,0,0.1,0.1,0.2c0,0,0.1,0.1,0.2,0.1l0.9,0.1l0,0
		c0.1,0,0.1,0,0.2-0.1c0,0,0.1-0.1,0.1-0.2l0.2-2.3l2.3,0.2c0.1,0,0.1,0,0.2-0.1c0,0,0.1-0.1,0.1-0.2l0.1-0.8c0-0.1,0-0.1-0.1-0.2
		c0,0-0.1-0.1-0.2-0.1l-2.3-0.2l0.1-1.7l2.7,0.2c0.1,0,0.1,0,0.2-0.1c0,0,0.1-0.1,0.1-0.2l0.1-0.8C-624.3,337.2-624.4,337-624.5,337
		z"/>
	<path class="st13" d="M-618.9,340.6c0.8-0.5,1.3-1.2,1.2-2.1c-0.1-1.1-1.2-2-2.3-1.8l-2.7,0.3c-0.1,0-0.2,0.1-0.2,0.3l0.7,6.2
		c0,0.1,0,0.1,0.1,0.2l0.1,0.1l0,0l0.9-0.1c0.1,0,0.2-0.1,0.2-0.3l-0.3-2.3l1-0.1l1.5,2.3c0,0,0.1,0.1,0.2,0.1l1-0.1
		c0.1,0,0.2-0.1,0.2-0.1c0-0.1,0-0.2,0-0.2L-618.9,340.6z M-619.1,338.7c0.1,0.5-0.3,0.9-0.8,1l-1.5,0.2l-0.2-1.8l1.5-0.2
		C-619.6,337.9-619.1,338.2-619.1,338.7z"/>
	<path class="st13" d="M-615.1,335.8c-0.1,0-0.1,0-0.2,0l-0.9,0.2c-0.1,0-0.2,0.2-0.2,0.3l1.6,6.1c0,0.1,0.1,0.1,0.1,0.1h0.1
		c0,0,0,0,0.1,0l0.9-0.2c0.1,0,0.1-0.1,0.1-0.1c0-0.1,0-0.1,0-0.2L-615.1,335.8C-615,335.9-615.1,335.8-615.1,335.8z"/>
	<path class="st13" d="M-607,338.8c0-0.1-0.1-0.1-0.1-0.1c-0.1,0-0.1,0-0.2,0l-2.5,1l-0.6-1.4l2.1-0.9c0.1,0,0.2-0.2,0.1-0.3
		l-0.3-0.7c0-0.1-0.2-0.2-0.3-0.1l-2.1,0.9l-0.5-1.3l2.5-1c0.1,0,0.2-0.2,0.1-0.3l-0.3-0.7c0-0.1-0.2-0.2-0.3-0.1l-3.6,1.4
		c-0.1,0-0.2,0.2-0.1,0.3l2.4,5.8c0,0.1,0.1,0.1,0.1,0.1h0.1h0.1l3.6-1.4c0.1,0,0.1-0.1,0.1-0.1c0-0.1,0-0.1,0-0.2L-607,338.8z"/>
</g>
<g>
	<path class="st13" d="M-602.9,330l-0.1-0.1c-0.1,0-0.1,0-0.2,0l-0.7,0.5c-0.1,0.1-0.1,0.2-0.1,0.3l2.1,3.2l-5.5-1.3l0,0l-0.2,0.1
		l-0.1,0.1c0,0.1,0,0.1,0,0.2l3.5,5.3l0.1,0.1c0,0,0,0,0.1,0h0.1l0.7-0.5c0.1-0.1,0.1-0.2,0.1-0.3l-2.2-3.3l5.6,1.4l0,0l0.2-0.1
		c0.1-0.1,0.1-0.2,0.1-0.3L-602.9,330z"/>
	<path class="st13" d="M-597.5,325.9L-597.5,325.9c-0.9,0-1.8,0.4-2.4,1l-1.6,1.6c0,0-0.1,0.1-0.1,0.2s0,0.1,0.1,0.2l4.4,4.4
		c0,0,0.1,0.1,0.2,0.1c0.1,0,0.1,0,0.2-0.1l1.6-1.6c0.6-0.6,1-1.5,1-2.4s-0.4-1.7-1-2.4C-595.7,326.2-596.6,325.9-597.5,325.9z
		 M-596.1,330.8l-0.7,0.7l-3-3l0.7-0.7c0.8-0.8,2.1-0.8,3,0C-595.2,328.7-595.2,329.9-596.1,330.8z"/>
	<path class="st13" d="M-589.7,323.3c-0.1-0.1-0.3,0-0.3,0.1l-1.3,1.9l-4.3-3c0,0-0.1,0-0.2,0c-0.1,0-0.1,0-0.1,0.1l-0.5,0.7
		c0,0.1,0,0.1,0,0.2s0,0.1,0.1,0.1l5.1,3.6h0.1l0,0c0.1,0,0.1,0,0.1-0.1l2-2.8c0-0.1,0-0.1,0-0.2s0-0.1-0.1-0.2L-589.7,323.3z"/>
	<path class="st13" d="M-587.1,319.9l-2.7-1.3l-1.8-3.3c0-0.1-0.1-0.1-0.2-0.1c-0.1,0-0.2,0.1-0.2,0.1l-0.4,0.9c0,0.1,0,0.1,0,0.2
		l1.2,2.3l-2.5,0.4c-0.1,0-0.1,0.1-0.2,0.1l-0.4,0.9c0,0.1,0,0.2,0,0.2c0,0.1,0.1,0.1,0.2,0.1l3.8-0.5l2.7,1.3h0.1
		c0.1,0,0.2,0,0.2-0.1l0.4-0.8C-586.9,320.1-587,320-587.1,319.9z"/>
</g>
<g id="XMLID_5_">
	<path id="XMLID_97_" class="st13" d="M-643,249.7c-0.6,16.7-10.2,24.4-4.3,47.9c4.9,19.3,19.8,29,26.6,32.5
		c0.2-32.5-17.5-66.1-17.5-66.1c18.1,29.5,22.9,53.5,24.1,63c4.5-7.1,11.4-21.8,6.9-39.5C-613.2,263.9-641.4,249.6-643,249.7z"/>
</g>
<g>
	<path class="st14" d="M-257.1,162.4c0,6-4.2,9.7-9.7,9.7c-6.2,0-10.7-4.6-10.7-10.3s4.5-10.3,10.4-10.3c3.8,0,7,1.9,8.6,4.5
		l-3.8,2.2c-0.8-1.3-2.6-2.3-4.8-2.3c-3.3,0-5.8,2.5-5.8,5.9s2.4,5.8,6.2,5.8c2.6,0,4.4-1.2,5.1-3.1h-5.4v-4h9.9V162.4z"/>
	<path class="st14" d="M-234.7,171.7h-4.5v-11.5l-5.1,8.4h-0.5l-5.1-8.4v11.5h-4.5v-19.8h4.5l5.4,8.8l5.4-8.8h4.5L-234.7,171.7
		L-234.7,171.7z"/>
	<path class="st14" d="M-232.2,161.8c0-5.8,4.6-10.3,10.3-10.3s10.3,4.5,10.3,10.3s-4.6,10.3-10.3,10.3
		C-227.6,172.1-232.2,167.6-232.2,161.8z M-216.1,161.8c0-3.5-2.5-5.9-5.8-5.9s-5.8,2.3-5.8,5.9c0,3.5,2.5,5.9,5.8,5.9
		S-216.1,165.3-216.1,161.8z"/>
</g>
<g>
	<path class="st15" d="M-573.9,52v11.6h-2l-4.5-6.3v6.3h-2.7V52h2l4.5,6.3V52H-573.9z"/>
	<path class="st15" d="M-565.1,61.7h-4.3l-0.6,1.8h-2.9l3.9-11.6h3.4l3.9,11.6h-2.9L-565.1,61.7z M-565.9,59.3l-1.4-4.3l-1.4,4.3
		H-565.9z"/>
	<path class="st15" d="M-553.6,54.5h-3v9.1h-2.7v-9.1h-3v-2.6h8.6v2.6H-553.6z"/>
	<path class="st15" d="M-552.6,59.8v-7.9h2.7v7.6c0,0.9,0.4,1.6,1.8,1.6c1.4,0,1.8-0.7,1.8-1.6v-7.6h2.7v7.9c0,2.5-1.9,4-4.5,4
		C-550.7,63.8-552.6,62.3-552.6,59.8z"/>
	<path class="st15" d="M-537.8,59.8h-1.2v3.8h-2.7V52h4.6c2.2,0,4,1.8,4,4c0,1.4-0.9,2.7-2.1,3.4l2.5,4.3h-2.9L-537.8,59.8z
		 M-539,57.4h2c0.7,0,1.3-0.6,1.3-1.5s-0.6-1.5-1.3-1.5h-2V57.4z"/>
	<path class="st15" d="M-524.7,61.7h-4.3l-0.6,1.8h-2.9l3.9-11.6h3.4l3.9,11.6h-2.9L-524.7,61.7z M-525.5,59.3l-1.4-4.3l-1.4,4.3
		H-525.5z"/>
	<path class="st15" d="M-513.4,61v2.6h-6.8V52h2.7v9.1L-513.4,61L-513.4,61z"/>
</g>
<g>
	<path class="st1" d="M-576.4,13.5v23.3h-5.3V19.1l-4.1,1.1l-1.3-4.6l6.1-2.2h4.6V13.5z"/>
	<path class="st1" d="M-573.1,25.1c0-7.2,3.5-12.1,9.5-12.1s9.5,4.9,9.5,12.1s-3.5,12.1-9.5,12.1C-569.6,37.3-573.1,32.3-573.1,25.1
		z M-559.4,25.1c0-4.5-1.4-6.9-4.2-6.9c-2.8,0-4.2,2.4-4.2,6.9s1.4,6.9,4.2,6.9C-560.7,32.1-559.4,29.6-559.4,25.1z"/>
	<path class="st1" d="M-552,25.1c0-7.2,3.5-12.1,9.5-12.1s9.5,4.9,9.5,12.1s-3.5,12.1-9.5,12.1C-548.6,37.3-552,32.3-552,25.1z
		 M-538.4,25.1c0-4.5-1.4-6.9-4.2-6.9c-2.8,0-4.2,2.4-4.2,6.9s1.4,6.9,4.2,6.9C-539.8,32-538.4,29.6-538.4,25.1z"/>
	<path class="st1" d="M-531.3,18.7c0-3.1,2.5-5.7,5.8-5.7s5.8,2.4,5.8,5.7c0,3.1-2.5,5.7-5.8,5.7C-528.9,24.3-531.3,21.8-531.3,18.7
		z M-513.5,16.5l2.2,1.3l-15.1,16.7l-2.2-1.3L-513.5,16.5z M-523.8,18.7c0-1-0.7-1.8-1.8-1.8c-1,0-1.8,0.8-1.8,1.8s0.7,1.8,1.8,1.8
		C-524.5,20.5-523.8,19.6-523.8,18.7z M-519.4,31.5c0-3.1,2.5-5.7,5.8-5.7c3.3,0,5.8,2.5,5.8,5.7c0,3.1-2.5,5.7-5.8,5.7
		C-517,37.2-519.4,34.7-519.4,31.5z M-511.9,31.5c0-1-0.7-1.8-1.8-1.8c-1,0-1.8,0.8-1.8,1.8s0.7,1.8,1.8,1.8
		C-512.6,33.4-511.9,32.5-511.9,31.5z"/>
</g>
<g>
	<path class="st16" d="M-456.5,163.5c-1.5,0-2.9,0-4.3,0c0-12.9,0-25.7,0-38.5c0.2,0,0.4-0.1,0.5-0.1c13.1,0,26.3-0.1,39.4,0
		c6.8,0.1,12.2,3.1,16.1,8.8c1.2,1.8,2,3.8,2.5,5.9c0,0.2,0.1,0.4,0.2,0.8c0.4-0.7,0.8-1.2,1.1-1.7c2.7-4.4,5.3-8.7,8-13.1
		c0.1-0.2,0.4-0.4,0.6-0.4c1.5,0,3.1,0,4.8,0c-0.8,1.4-1.5,2.6-2.3,3.8c-2.6,4.3-5.1,8.6-7.7,12.9c-2.5,4.2-4.9,8.5-7.6,12.6
		c-2.6,4.1-6.3,7-11.1,8.3c-1.6,0.4-3.4,0.7-5.1,0.7c-4.6,0.1-9.1,0-13.7,0c-0.7,0-0.9-0.1-0.9-0.8c0-3.8,0-7.7,0-11.5
		c0-3.2,0-6.3-0.1-9.5c0-0.6,0.1-1,0.9-0.9c0.9,0.1,1.9,0,2.8,0c0.7,0,0.9,0.2,0.9,0.9c0,5.4,0,10.9,0,16.3c0,1.1,0,1.1,1.2,1.1
		c3,0,6,0.1,9,0c6.4-0.1,11.1-3.1,13.8-8.9c3-6.6,0.7-14.3-5.4-18.4c-2.6-1.8-5.5-2.6-8.7-2.6c-11.2,0-22.4,0-33.5,0
		c-1.4,0-1.4,0-1.4,1.5c0,10.6,0,21.2,0,31.8C-456.5,162.8-456.5,163.1-456.5,163.5z"/>
	<path class="st16" d="M-437.3,131.1c5.5,0,10.9-0.1,16.4,0c5.1,0.1,9.5,2.9,11.7,7.8c2.3,5.1,1,11-2.9,14.8
		c-2.4,2.3-5.3,3.5-8.7,3.6c-2.7,0.1-5.3,0-8,0c-0.5,0-0.7-0.2-0.7-0.7c0-5,0-10.1,0-15.1c0-0.6,0.2-0.7,0.7-0.7c1,0,2,0,3,0
		c0.6,0,0.8,0.2,0.8,0.8c0,3.5,0,6.9,0,10.4c0,0.8,0.2,1,1,0.9c1.2-0.1,2.4,0,3.6-0.1c3.7-0.3,6.9-3.2,7.7-6.8
		c1.1-4.7-2.5-10.4-8.6-10.5c-9.3,0-18.6,0-28,0c-1.1,0-1,0-1,1.1s0,2.3,0,3.4c0,0.6,0.2,0.8,0.8,0.8c3.6,0,7.2,0,10.7,0
		c0.7,0,0.9,0.2,0.9,0.9c-0.1,1,0,2,0,3c0,0.5-0.1,0.6-0.6,0.6c-5.2,0-10.4,0-15.5,0c-0.5,0-0.6-0.2-0.6-0.6c0-4.3,0-8.5,0-12.8
		c0-0.6,0.2-0.8,0.8-0.8C-448.3,131.1-442.8,131.1-437.3,131.1L-437.3,131.1z"/>
	<path class="st16" d="M-408.2,163.5c6.9-11.5,13.7-22.9,20.7-34.4c5.7,9.4,11.3,18.7,17,28.1c-0.3,0-0.5,0-0.7,0
		c-7.3,0-14.5,0-21.8,0c-0.8,0-1-0.2-0.9-1c0.1-1.1,0-2.2,0-3.4c5.1,0,10.1,0,15.3,0c-3-5-5.9-9.9-8.9-14.8
		c-0.2,0.3-0.4,0.5-0.5,0.7c-4.6,8.1-9.2,16.1-13.8,24.2c-0.1,0.2-0.4,0.5-0.6,0.5C-404.2,163.5-406.1,163.5-408.2,163.5z"/>
	<path class="st16" d="M-387.4,125.1c1.7,0,3.3,0,4.8,0c0.2,0,0.5,0.3,0.6,0.5c2.4,3.8,4.7,7.7,7.1,11.5c3.3,5.5,6.7,10.9,10,16.4
		c0.4,0.6,0.5,1.1,0,1.7c-0.8,1.2-1.5,2.4-2.3,3.8C-373.9,147.7-380.6,136.5-387.4,125.1z"/>
	<path class="st16" d="M-450.4,163.5c-1.4,0-2.8,0-4.2,0c0-0.3,0-0.6,0-0.9c0-4.8,0-9.7,0-14.5c0-0.7,0.2-0.9,0.9-0.9
		c5,0,10.1,0,15.1,0c0.6,0,0.8,0.2,0.8,0.7c0,1,0,2,0,3c0,0.6-0.2,0.8-0.8,0.8c-3.3,0-6.7,0-10,0c-0.1,0-0.2,0-0.3,0
		c-1.3,0-1.3,0-1.3,1.2c0,3.4,0,6.7,0,10.1C-450.4,163.2-450.4,163.3-450.4,163.5z"/>
	<path class="st16" d="M-367.3,159.2c-0.8,1.3-1.5,2.5-2.2,3.7c-0.3,0.5-0.6,0.7-1.1,0.7c-7.5,0-15,0-22.5,0c-0.2,0-0.4,0-0.7,0
		c0-1.3,0-2.6,0-3.9c0-0.1,0.2-0.3,0.3-0.3c0.1-0.1,0.3,0,0.5,0c8.3,0,16.5,0,24.8,0C-368.1,159.2-367.8,159.2-367.3,159.2z"/>
</g>
<path class="st17" d="M-326.8-130.7c0.2-0.9,1.5-8.5,10.9-2.8c2.4,1.4,4.9,2.6,7.8,1.9l-1.9,3.5c0,0-3.9-0.5-7.9,1.2
	c-13.1,4.6-14.6-0.4-13.7-11.3c0,0-0.4,15.8-17,15.2c-0.5,0-0.8-0.5,0.1-0.7c10.8-1.7,14.8-10.1,16.3-22.4c0.2-1.3,1.9-1.6,2.1,0
	c0,0-0.4,11.5,1.9,16.7c0.8,1,2,2.5,11.1-0.4c0,0-5.1-3.6-8.5-0.6C-326.2-129.8-326.9-129.9-326.8-130.7L-326.8-130.7z
	 M-344.6-144.7c0,0,8.4,3.6,8,12.1c0,1-0.4,1.2-0.7,0.1c-0.3-1.4-1.5-4.7-5.5-6C-343.4-138.7-346.4-140.1-344.6-144.7L-344.6-144.7z
	 M-348.2-149.4c0.2,0.6,0.6,1.2,1.5,1.9c0.3,0.2,1.1,1.2-0.6,2.3c0,0,0.9,12.9,0.9,15.4c-0.4,7.5-13.4,9.1-15.3,2.8
	c-0.4-1.5-0.2-3.8,2.1-7.2c0.5-0.6,0.6-0.1,0.4,0.4c-3.1,9.7,10.4,8.1,10.6,3.2c0-1.3-0.6-12.9-1.2-14.5c-0.4-0.3-1.8-2.7,0.4-4.6
	C-348.9-150.1-348.3-150.4-348.2-149.4L-348.2-149.4z"/>
<path class="st18" d="M-600.7,104.7h-8.3c-4.6,0-8.5,3.8-8.5,8.5v12.7l-9,9c-3.3,3.3-3.3,8.7,0,12l9,9v12.7c0,4.6,3.8,8.5,8.5,8.5
	h12.7l9,9c3.3,3.3,8.7,3.3,12,0l9-9h12.7c4.6,0,8.5-3.8,8.5-8.5v-11.9c5.6-6.6,8.9-15.2,8.9-24.5c0-21.1-17.1-38.1-38.1-38.1
	C-584.5,94-593.8,98.1-600.7,104.7L-600.7,104.7z"/>
<path class="st1" d="M-574.2,98.2c-18.8,0-34,15.2-34,34s15.2,34,34,34s34-15.2,34-34S-555.5,98.2-574.2,98.2L-574.2,98.2z"/>
<path class="st18" d="M-565.1,125.6c0.2-0.9,1.5-8.5,10.9-2.8c2.4,1.4,4.9,2.6,7.8,1.9l-1.9,3.5c0,0-3.9-0.5-7.9,1.2
	c-13.1,4.6-14.6-0.4-13.7-11.3c0,0-0.4,15.8-17,15.2c-0.5,0-0.8-0.5,0.1-0.7c10.8-1.7,14.8-10.1,16.3-22.4c0.2-1.3,1.9-1.6,2.1,0
	c0,0-0.4,11.5,1.9,16.7c0.8,1,2,2.5,11.1-0.4c0,0-5.1-3.6-8.5-0.6C-564.6,126.5-565.2,126.5-565.1,125.6L-565.1,125.6z
	 M-582.9,111.7c0,0,8.4,3.6,8,12.1c0,1-0.4,1.2-0.7,0.1c-0.3-1.4-1.5-4.7-5.5-6C-581.7,117.6-584.7,116.2-582.9,111.7L-582.9,111.7z
	 M-586.5,106.9c0.2,0.6,0.6,1.2,1.5,1.9c0.3,0.2,1.1,1.2-0.6,2.3c0,0,0.9,12.9,0.9,15.4c-0.4,7.5-13.4,9.1-15.3,2.8
	c-0.4-1.5-0.2-3.8,2.1-7.2c0.5-0.6,0.6-0.1,0.4,0.4c-3.1,9.7,10.4,8.1,10.6,3.2c0-1.3-0.6-12.9-1.2-14.5c-0.4-0.3-1.8-2.7,0.4-4.6
	C-587.2,106.2-586.6,106-586.5,106.9L-586.5,106.9z"/>
<path class="st18" d="M-597.4,146.9v-9.5h2.2v3.5h3.7v-3.5h2.2v9.5h-2.2v-4h-3.7v4H-597.4L-597.4,146.9z M-583.9,143.8h2.5l-1.2-3
	L-583.9,143.8L-583.9,143.8z M-587.4,146.9l4.8-9.8h0.1l4.7,9.8h-2.4l-0.6-1.4h-3.9l-0.6,1.4H-587.4L-587.4,146.9z M-575.8,146.9
	v-9.5h2.3v7.5h3.7v2H-575.8L-575.8,146.9z M-564.7,143.8h2.5l-1.2-3L-564.7,143.8L-564.7,143.8z M-568.2,146.9l4.8-9.8h0.1l4.7,9.8
	h-2.4l-0.6-1.4h-3.9l-0.6,1.4H-568.2L-568.2,146.9z M-556.7,146.9v-9.5h2.3v7.5h3.7v2H-556.7L-556.7,146.9z"/>
<path class="st18" d="M-585,158.1V152h-1.3l0.2-1.3h2.7v7.4L-585,158.1L-585,158.1z M-579.5,154.4c0,0.7,0.1,1.3,0.3,1.7
	s0.4,0.6,0.7,0.6s0.5-0.2,0.7-0.6c0.2-0.4,0.3-1,0.3-1.7s-0.1-1.3-0.3-1.7s-0.4-0.6-0.7-0.6s-0.5,0.2-0.7,0.6
	C-579.4,153-579.5,153.6-579.5,154.4L-579.5,154.4z M-581.1,154.4c0-1.2,0.2-2.2,0.7-2.9s1.1-1,1.9-1s1.5,0.3,2,1s0.7,1.7,0.7,2.9
	s-0.2,2.2-0.7,2.9s-1.1,1-2,1c-0.8,0-1.5-0.3-1.9-1C-580.9,156.6-581.1,155.6-581.1,154.4L-581.1,154.4z M-573.5,154.4
	c0,0.7,0.1,1.3,0.3,1.7s0.4,0.6,0.7,0.6s0.5-0.2,0.7-0.6c0.2-0.4,0.3-1,0.3-1.7s-0.1-1.3-0.3-1.7s-0.4-0.6-0.7-0.6s-0.5,0.2-0.7,0.6
	C-573.5,153-573.5,153.6-573.5,154.4L-573.5,154.4z M-575.2,154.4c0-1.2,0.2-2.2,0.7-2.9s1.1-1,1.9-1c0.8,0,1.5,0.3,2,1
	s0.7,1.7,0.7,2.9s-0.2,2.2-0.7,2.9s-1.1,1-2,1c-0.8,0-1.5-0.3-1.9-1C-575,156.6-575.2,155.6-575.2,154.4L-575.2,154.4z
	 M-563.6,150.4h0.8l-4.7,7.9h-0.8L-563.6,150.4L-563.6,150.4z M-564.4,156.4c0,0.2,0.1,0.4,0.2,0.6c0.2,0.2,0.3,0.2,0.6,0.2
	c0.2,0,0.4-0.1,0.6-0.2c0.2-0.2,0.2-0.4,0.2-0.6c0-0.2-0.1-0.4-0.2-0.6c-0.2-0.2-0.4-0.2-0.6-0.2c-0.2,0-0.4,0.1-0.6,0.2
	C-564.3,156-564.4,156.2-564.4,156.4L-564.4,156.4z M-565.5,156.4c0-0.5,0.2-1,0.6-1.3c0.4-0.4,0.8-0.6,1.3-0.6s1,0.2,1.3,0.5
	s0.6,0.8,0.6,1.3s-0.2,1-0.6,1.3c-0.4,0.4-0.8,0.6-1.3,0.6s-1-0.2-1.3-0.6C-565.3,157.4-565.5,156.9-565.5,156.4L-565.5,156.4z
	 M-568.4,152.3c0,0.2,0.1,0.4,0.2,0.6c0.2,0.2,0.3,0.2,0.6,0.2c0.2,0,0.4-0.1,0.6-0.2c0.2-0.2,0.2-0.4,0.2-0.6
	c0-0.2-0.1-0.4-0.2-0.6c-0.2-0.2-0.3-0.2-0.6-0.2c-0.2,0-0.4,0.1-0.6,0.2C-568.4,151.9-568.4,152.1-568.4,152.3L-568.4,152.3z
	 M-569.5,152.3c0-0.5,0.2-1,0.5-1.3c0.4-0.4,0.8-0.5,1.3-0.5s1,0.2,1.3,0.5c0.4,0.4,0.5,0.8,0.5,1.3s-0.2,1-0.6,1.3
	c-0.4,0.4-0.8,0.5-1.3,0.5s-1-0.2-1.3-0.5C-569.3,153.3-569.5,152.8-569.5,152.3L-569.5,152.3z"/>
<path id="SVGID_x5F_1_x5F_" class="st19" d="M-534.8,148.7c9.3-21.7-0.9-46.9-22.6-56.1c-21.7-9.2-46.9,0.9-56.1,22.6
	c-9.3,21.7,0.9,46.9,22.6,56.1C-569.2,180.6-544,170.4-534.8,148.7z"/>
<text transform="matrix(1 0 0 1 -571.8263 174.7013)" style="font-family:'ArialMT'; font-size:12px;"> </text>
<text transform="matrix(1 0 0 1 -568.4958 174.4376)" class="st1" style="font-family:'Gilroy-ExtraBold'; font-size:8.1663px; letter-spacing:24;">H</text>
<text transform="matrix(1 0 0 1 -542.1453 160.4721)" class="st1" style="font-family:'Gilroy-ExtraBold'; font-size:8.1663px; letter-spacing:24;">A</text>
<path class="st18" d="M-406.3-151.8c19.7,0,35.8,15,37.5,34.2c1.5,0.4,3,0.5,4.6,0.1l2.5-0.5c2.3-0.5,2.9,0.7,1.5,3.2l-4.8,8.9
	l-1.9-0.2c-0.8-0.1-1.6-0.1-2.5-0.1c-0.3,1.5-0.7,3-1.2,4.5h3.6v8.8h4.4v6.2h-17.7c-6.8,6.4-15.9,10.4-25.9,10.4
	c-15.2,0-28.3-9-34.2-21.9c-5.1-0.5-9.6-3.2-11.1-8.2c-1.4-4.7,1.1-10,3.7-13.8l0.1-0.1l0.1-0.1c1-1.3,2.6-2.1,4.2-1.3
	c0.2,0.1,0.3,0.2,0.4,0.3c1.4-6.8,4.6-13,9.1-17.9c-0.1-2.5,1.1-4.7,2.9-6.3c1.7-1.5,3.8-1.6,5.2-0.4
	C-420.2-149.8-413.5-151.8-406.3-151.8L-406.3-151.8z M-373.6-95.4L-373.6-95.4L-373.6-95.4L-373.6-95.4L-373.6-95.4z"/>
<path class="st1" d="M-393.3-113.3c0.3-1.4,2.4-13.5,17.4-4.4c3.8,2.2,7.7,4.1,12.4,3.1l-3.1,5.6c0,0-6.3-0.8-12.6,1.9
	c-20.9,7.3-23.3-0.6-21.9-18c0,0-0.7,25.1-27.1,24.3c-0.7,0.1-1.2-0.8,0.2-1.1c17.2-2.8,23.6-16,26-35.7c0.3-2.1,3.1-2.5,3.3,0
	c0,0-0.6,18.3,3,26.6c1.2,1.7,3.2,4,17.6-0.6c0,0-8.2-5.7-13.5-1C-392.5-111.9-393.4-111.9-393.3-113.3L-393.3-113.3z M-421.8-135.6
	c0,0,13.4,5.7,12.7,19.2c-0.1,1.6-0.7,2-1.1,0.2c-0.5-2.3-2.5-7.5-8.8-9.6C-419.9-126.1-424.5-128.2-421.8-135.6L-421.8-135.6z
	 M-427.4-143.1c0.3,1,0.9,2,2.4,3.1c0.4,0.3,1.7,1.9-1,3.6c0,0,1.4,20.5,1.5,24.6c-0.6,11.9-21.4,14.5-24.4,4.4
	c-0.7-2.4-0.3-6,3.3-11.5c0.8-1,1-0.2,0.6,0.7c-4.9,15.5,16.6,12.9,16.9,5c-0.1-2.1-0.9-20.5-2-23.2c-0.7-0.5-2.9-4.2,0.7-7.3
	C-428.6-144.3-427.7-144.7-427.4-143.1L-427.4-143.1z"/>
<path class="st1" d="M-414.2-88.7v-11.2h2.6v4.1h4.3v-4.1h2.6v11.2h-2.6v-4.7h-4.3v4.7H-414.2L-414.2-88.7z M-399.6-92.3h2.9
	l-1.4-3.5L-399.6-92.3L-399.6-92.3z M-403.8-88.7l5.7-11.5h0.2l5.6,11.5h-2.8l-0.7-1.6h-4.5l-0.7,1.6H-403.8L-403.8-88.7z
	 M-391.5-88.7v-11.2h2.7v8.8h4.4v2.4H-391.5L-391.5-88.7z M-379.7-92.3h2.9l-1.4-3.5L-379.7-92.3L-379.7-92.3z M-383.9-88.7
	l5.7-11.5h0.2l5.6,11.5h-2.8l-0.8-1.6h-4.5l-0.7,1.6L-383.9-88.7L-383.9-88.7z M-371.7-88.7v-11.2h2.7v8.8h4.4v2.4H-371.7
	L-371.7-88.7z"/>
<g>
	<path class="st18" d="M-431-81.3l-4.4,4.5l-1-1l1.7-1.8L-436-81l-1.7,1.8l-1-1l4.4-4.5l1,1L-435-82l1.4,1.4l1.7-1.7L-431-81.3z"/>
	<path class="st18" d="M-430.3-74.3l-1.9-1.4L-433-75l-1.3-0.9l5.4-3.9l1.5,1.1l-1.9,6.3l-1.3-0.9L-430.3-74.3z M-429.8-75.6
		l0.7-2.3l-1.9,1.4L-429.8-75.6z"/>
	<path class="st18" d="M-424.3-71.2L-425-70l-3.2-1.7l3-5.5l1.3,0.7l-2.3,4.3L-424.3-71.2z"/>
	<path class="st18" d="M-419.7-68.9l-2.2-0.8l-0.6,0.8l-1.5-0.6l4.2-5.1l1.7,0.7l-0.2,6.6l-1.5-0.6L-419.7-68.9z M-419.7-70.4
		l0.1-2.4l-1.4,1.9L-419.7-70.4z"/>
	<path class="st18" d="M-413.2-67.5l-0.3,1.3l-3.6-0.9l1.5-6.1l1.4,0.3l-1.1,4.8L-413.2-67.5z"/>
	<path class="st18" d="M-407.8-70.4l-0.1,1.2l2.3,0.2l-0.1,1.4l-2.3-0.2l-0.2,2.3l-1.4-0.1l0.4-6.3l3.8,0.3l-0.1,1.4L-407.8-70.4z"
		/>
	<path class="st18" d="M-402.2-67.5h-0.7l0.1,2.1l-1.4,0.1l-0.3-6.3l2.5-0.1c1.2-0.1,2.2,0.8,2.3,2c0,0.8-0.4,1.5-1.1,1.9l1.5,2.2
		l-1.5,0.1L-402.2-67.5z M-403-68.7l1.1-0.1c0.4,0,0.7-0.4,0.7-0.8c0-0.5-0.4-0.8-0.8-0.8l-1,0.1V-68.7z"/>
	<path class="st18" d="M-397.6-72.2l0.9,6.2l-1.4,0.2L-399-72L-397.6-72.2z"/>
	<path class="st18" d="M-391.5-68.6l0.3,1.3l-3.8,1l-1.5-6.1l3.8-0.9l0.3,1.3l-2.4,0.6l0.2,1l2.2-0.5l0.3,1.3l-2.2,0.5l0.3,1.1
		L-391.5-68.6z"/>
	<path class="st18" d="M-387.4-75.3l2.3,5.8l-1,0.4l-3.5-2.3l1.2,3.2l-1.3,0.5l-2.3-5.8l1-0.4l3.5,2.3l-1.2-3.2L-387.4-75.3z"/>
	<path class="st18" d="M-380.1-75.8c0.9,1.5,0.4,3.4-1.1,4.2l-2.2,1.3l-3.1-5.4l2.2-1.3C-382.8-77.9-381-77.3-380.1-75.8z
		 M-381.3-75.1c-0.5-0.9-1.5-1.2-2.3-0.7l-0.9,0.5l1.8,3l0.9-0.5C-381-73.2-380.8-74.2-381.3-75.1z"/>
	<path class="st18" d="M-375.2-77.4l0.8,1.1l-2.9,2.2l-3.8-5l1.1-0.9l3,3.9L-375.2-77.4z"/>
	<path class="st18" d="M-373.5-80.4l1.7,1.8l-1,1l-1.7-1.8l-4.2-1.4l1.2-1.1l2.5,1l-0.8-2.6l1.2-1.1L-373.5-80.4z"/>
</g>
<text transform="matrix(1 0 0 1 -442 -46.91)" style="font-family:'ArialMT'; font-size:12px;"> </text>
<path class="st20" d="M-391.4-42.8c1.3,0.8,2.5,1.5,3.8,2.3c0.2,0.1,0.4,0,0.7,0c1.3-0.4,2.6-0.9,3.9-1.2c0.3-0.1,0.7,0,0.9,0.2
	c0.9,0.8,1.8,1.6,2.7,2.4c0.2,0.2,0.6,0.3,1,0.3c1.3-0.1,2.7-0.2,4-0.3c0.3,0,0.7,0.2,0.8,0.4c0.8,0.9,1.5,1.9,2.2,2.9
	c0.2,0.2,0.6,0.5,0.9,0.5c1.3,0.2,2.6,0.3,3.9,0.5c0.4,0,0.7,0.2,0.9,0.6c0.5,1.1,1,2.1,1.6,3.2c0.1,0.3,0.4,0.5,0.7,0.6
	c1.2,0.4,2.5,0.9,3.8,1.2c0.5,0.1,0.7,0.4,0.8,0.9c0.3,1.1,0.5,2.2,0.9,3.3c0.1,0.3,0.4,0.7,0.7,0.9c1.1,0.7,2.3,1.3,3.5,1.9
	c0.4,0.2,0.5,0.4,0.5,0.8c0.1,1.2,0.1,2.4,0.2,3.5c0,0.3,0.2,0.7,0.4,0.9c1,0.9,2,1.8,3.1,2.6c0.3,0.3,0.4,0.5,0.4,0.9
	c-0.2,1.1-0.3,2.3-0.5,3.4c-0.1,0.5,0,0.8,0.3,1.2c0.8,1,1.6,2,2.4,3c0.3,0.4,0.3,0.7,0.2,1.1c-0.4,1.1-0.8,2.2-1.1,3.3
	c-0.1,0.3-0.1,0.7,0.1,1c0.5,1.1,1.1,2.2,1.7,3.3c0.3,0.5,0.3,0.9,0,1.4c-0.6,0.9-1.1,1.9-1.6,2.8c-0.2,0.3-0.2,0.8-0.1,1.1
	c0.3,1.3,0.7,2.5,1.1,3.7c0.1,0.4,0.1,0.7-0.2,1c-0.8,0.9-1.6,1.8-2.3,2.7c-0.2,0.2-0.3,0.6-0.3,0.9c0.1,1.3,0.2,2.7,0.3,4
	c0,0.4-0.1,0.7-0.4,1c-1,0.7-1.9,1.4-2.9,2.2c-0.2,0.2-0.4,0.5-0.4,0.7c-0.2,1.4-0.3,2.8-0.5,4.2c0,0.2-0.3,0.5-0.5,0.6
	c-1.1,0.6-2.2,1.1-3.3,1.6c-0.3,0.1-0.5,0.4-0.6,0.7c-0.4,1.3-0.9,2.5-1.2,3.8c-0.1,0.4-0.3,0.6-0.7,0.7c-1.2,0.3-2.3,0.6-3.5,0.9
	c-0.3,0.1-0.6,0.3-0.8,0.6c-0.7,1.1-1.3,2.2-1.9,3.3c-0.3,0.5-0.6,0.7-1.2,0.7c-1.1,0-2.2,0.1-3.3,0.2c-0.3,0-0.7,0.2-0.9,0.5
	c-0.9,1-1.8,2.1-2.7,3.1c-0.2,0.2-0.5,0.3-0.8,0.3c-1.2-0.1-2.5-0.3-3.7-0.5c-0.3,0-0.6,0.1-0.8,0.2c-1.1,0.8-2.1,1.7-3.2,2.5
	c-0.2,0.2-0.6,0.2-0.9,0.2c-1.1-0.3-2.2-0.8-3.4-1.1c-0.3-0.1-0.8-0.1-1.1,0.1c-1.2,0.5-2.3,1.1-3.5,1.8c-0.4,0.2-0.7,0.2-1.1,0
	c-1-0.6-2-1.1-2.9-1.7c-0.4-0.2-0.8-0.3-1.2-0.2c-1.2,0.4-2.5,0.7-3.7,1.1c-0.4,0.1-0.7,0-1-0.3c-0.9-0.8-1.8-1.6-2.7-2.4
	c-0.2-0.2-0.6-0.3-0.8-0.3c-1.4,0.1-2.8,0.2-4.2,0.3c-0.3,0-0.6-0.1-0.8-0.3c-0.8-1-1.5-2-2.3-2.9c-0.2-0.2-0.5-0.4-0.8-0.5
	c-1.3-0.2-2.6-0.3-3.9-0.5c-0.5,0-0.7-0.2-0.9-0.7c-0.5-1-1-2-1.5-3.1c-0.2-0.4-0.4-0.6-0.9-0.8c-1.2-0.4-2.5-0.8-3.7-1.2
	c-0.4-0.1-0.7-0.4-0.8-0.8c-0.3-1.1-0.6-2.2-0.8-3.3c-0.1-0.4-0.3-0.7-0.7-0.9c-1.2-0.6-2.4-1.3-3.5-2c-0.2-0.1-0.4-0.5-0.4-0.7
	c-0.1-1.2-0.2-2.5-0.3-3.7c0-0.3-0.2-0.6-0.4-0.8c-1-0.9-2-1.7-3-2.6c-0.3-0.3-0.5-0.6-0.4-1c0.2-1.1,0.4-2.3,0.5-3.4
	c0-0.3-0.1-0.8-0.3-1c-0.8-1.1-1.6-2.1-2.5-3.2c-0.2-0.3-0.3-0.6-0.2-0.9c0.4-1.1,0.8-2.2,1.2-3.3c0.2-0.4,0.1-0.8-0.1-1.2
	c-0.6-1.2-1.2-2.4-1.8-3.5c-0.2-0.3-0.2-0.6,0-0.9c0.6-1,1.3-2.1,1.9-3.2c0.1-0.2,0.2-0.6,0.1-0.9c-0.3-1.3-0.7-2.6-1.1-3.9
	c-0.7,0.1-0.7-0.2-0.3-0.6c0.8-0.9,1.6-1.8,2.4-2.7c0.1-0.2,0.3-0.6,0.2-0.9c-0.1-1.3-0.2-2.7-0.3-4c0-0.4,0.1-0.6,0.4-0.9
	c1-0.7,1.9-1.4,2.9-2.2c0.2-0.2,0.5-0.6,0.5-0.9c0.2-1.3,0.3-2.6,0.5-3.9c0-0.4,0.2-0.7,0.6-0.9c1-0.5,2-1,3-1.4
	c0.5-0.2,0.7-0.5,0.9-1c0.4-1.2,0.8-2.5,1.2-3.7c0.1-0.3,0.4-0.5,0.7-0.6c1.2-0.4,2.3-0.6,3.5-1c0.3-0.1,0.6-0.3,0.8-0.6
	c0.7-1.2,1.3-2.4,2-3.6c0.1-0.2,0.5-0.4,0.8-0.5c1.2-0.1,2.4-0.1,3.6-0.3c0.3,0,0.7-0.2,0.9-0.5c0.9-1,1.7-2,2.6-3
	c0.3-0.3,0.5-0.4,0.9-0.4c1.1,0.2,2.3,0.4,3.4,0.5c0.4,0,0.8-0.1,1.1-0.3c1.1-0.8,2.1-1.6,3.1-2.4c0.3-0.3,0.6-0.3,1-0.2
	c1.2,0.4,2.3,0.8,3.5,1.2c0.2,0.1,0.5,0.1,0.6,0c1.4-0.7,2.9-1.5,4.3-2.2C-391.5-42.8-391.4-42.8-391.4-42.8z M-349.4,3.3
	c0-23.4-19-42.4-42.4-42.5c-23.5,0-42.5,19-42.6,42.5c0,23.5,19,42.5,42.5,42.5S-349.4,26.7-349.4,3.3z"/>
<path class="st1" d="M-349.4,3.3c0,23.4-19,42.5-42.5,42.5s-42.5-19-42.5-42.5s19-42.5,42.5-42.5C-368.4-39.1-349.4-20.1-349.4,3.3z
	 M-391.9,45.2c23.1,0,41.8-18.7,41.9-41.8c0-23.1-18.7-41.9-41.8-42c-23.1-0.1-41.9,18.7-42,41.8C-433.8,26.4-415.1,45.1-391.9,45.2
	z"/>
<path class="st20" d="M-391.9,45.2c-23.2,0-41.9-18.8-41.8-42c0-23.1,18.9-41.8,42-41.8c23,0.1,41.7,18.9,41.7,41.9
	C-350.1,26.5-368.8,45.2-391.9,45.2z"/>
<path d="M-423.2,3.3c0,17.3,14,31.3,31.3,31.3c17.2,0,31.3-14,31.3-31.3s-14-31.3-31.3-31.3C-409.2-28-423.2-14-423.2,3.3z"/>
<path class="st1" d="M-423.2,3.3c0-17.3,14-31.3,31.3-31.3c17.3,0,31.3,14,31.3,31.3c0,17.2-14,31.3-31.3,31.3
	C-409.2,34.6-423.2,20.6-423.2,3.3z M-413.5-2.3c-0.3,0.8-0.6,1.6-0.9,2.3c-1.1,3.1-2,6.3-1.8,9.7c0.1,3.4,1.9,5.5,5,6
	c1.1,0.2,2.3,0.1,3.4,0c2.9-0.2,5.2-1.4,6.3-4.4c0.1-0.2,0.4-0.4,0.7-0.4c1.5-0.1,3-0.2,4.4-0.3c3.5-0.2,5.9-1.9,7.1-5.2
	c0.7-2,1.3-4,1.9-6c0-0.1,0.1-0.3,0.2-0.6c0.1,2,0.2,3.8,0.4,5.7c0.1,1.4,0.4,2.8,1.1,4c0.5,0.8,1.1,1.2,2.1,1.2
	c5.7,0,11.5,0,17.2,0c0.2,0,0.4,0,0.7,0c0-1.3,0-2.5,0-3.8c-0.9,0.3-1.5-0.3-2-0.8c-1.3-1.6-2.6-3.2-4-4.7c-0.9-1-1.9-1.9-2.9-2.8
	c-0.7-0.5-1.5-0.8-2.4-0.7c-1.7,0.1-3.3,1.9-3.5,4c0.1,0,0.3,0,0.4,0c1.7-0.3,3.4,0.1,4.7,1.1c1.5,1.2,2.8,2.5,4.1,3.8
	c0,0,0,0.1,0,0.2c-4.2,0-8.4,0-12.5,0c-0.3,0-0.6-0.2-0.8-0.4c-0.2-0.5-0.4-1-0.5-1.5c-0.3-1.5-0.5-3.1-0.7-4.7
	c-0.5-4.5-0.9-9-1.3-13.5c-0.1-0.9-0.2-1.8-0.3-2.7c-0.4,1-0.7,1.9-1,2.9c-0.1,0.3-0.1,0.6,0,0.9c0.4,2.8,0.7,5.5,0.6,8.3
	c-0.2,4.3-1.9,7.8-5.3,10.4c-2.4,1.9-5.2,3.1-8,4.3c0,0-0.1,0,0,0c0.5-7.5-0.8-14.9-1.4-22.4c0.3,0.1,0.6,0.2,1,0.3
	c0.1-1.1,0.2-2.2,0.3-3.2c0.1-0.7-0.1-1.2-0.7-1.5c-1-0.5-1.9-1.2-1.8-2.5h-0.1l-0.1,0.1c-0.6,1.6-0.8,3.3-0.8,5
	c0,0.1,0.1,0.4,0.2,0.4c0.6,0.3,0.6,0.9,0.6,1.5c0.4,3.1,0.7,6.2,1,9.4c0.3,3.2,0.5,6.4,0.8,9.7c0.1,1.4-0.5,2.5-1.6,3.3
	c-2.1,1.5-4.4,2.1-7,1.8c-2.1-0.2-3.6-1.3-4-3.4c-0.3-1.2-0.3-2.5-0.2-3.8c0.2-2.2,1-4.2,1.8-6.2C-413-1.9-413-2.1-413.5-2.3z
	 M-389.8-0.4c0.3-1.5,0.2-2.8-0.2-4.1c-1.4-5-4.5-8.6-8.7-11.4c-0.2-0.1-0.4-0.2-0.7-0.3c-0.9-0.3-1.3-0.1-1.3,0.9
	c-0.1,2.9,1.1,5.1,3.3,6.8c0.7,0.5,1,0.5,1.4-0.3c0.3-0.5,0.6-0.6,1-0.3s0.9,0.7,1.2,1.2c1.5,2,2.7,4.3,3.6,6.6
	C-390-1.1-389.9-0.8-389.8-0.4z M-406.8,25.8c1.2,0,2.4,0,3.6,0c-0.9-0.1-0.9-0.6-0.9-1.3c0-1.2,0-2.5,0-3.7c0-0.6,0-1.2,0.9-1.2
	c-1.2,0-2.4,0-3.4,0c0.2,0.2,0.6,0.4,0.6,0.6c0.1,0.7,0,1.4,0,2.2c-0.9,0-1.8,0-2.7,0c0-0.6,0-1.1,0-1.6c0-0.7,0.1-1.1,0.9-1.2
	c-1.2,0-2.4,0-3.5,0c0.7,0,0.9,0.5,0.9,1.1c0,1.3,0,2.5,0,3.8c0,0.7,0,1.3-0.9,1.4c1.2,0,2.4,0,3.4,0c-0.2-0.2-0.6-0.5-0.7-0.8
	c-0.1-0.7,0-1.4,0-2.2c0.9,0,1.8,0,2.7,0c0,0.6,0,1.1,0,1.7C-405.8,25.2-405.9,25.7-406.8,25.8z M-394,25.7c2.1,0,4.3,0,6.4,0
	c0.1-0.7,0.2-1.4,0.3-2.2c-0.4,0.6-0.7,1.3-1.1,1.5c-0.6,0.3-1.3,0.4-2,0.4c-0.9,0.1-1-0.1-1-1c0-1.2,0-2.5,0-3.7c0-1,0-1,1.1-1.2
	c-1.3,0-2.5,0-3.7,0c0.7,0.1,0.8,0.5,0.8,1.2c0,1.3,0,2.6,0,3.9C-393.2,25.2-393.3,25.7-394,25.7z M-384.3,25.8
	c-1.1-0.4-1.2-0.6-0.7-1.4c0.1-0.2,0.4-0.3,0.6-0.3c0.6,0,1.2,0,1.8,0c0.4,0,1,0.6,1,1.2c0,0.2-0.3,0.4-0.5,0.6c0.9,0,2,0,3,0
	c-0.3-0.4-0.7-0.9-1-1.4c-0.9-1.6-1.8-3.3-2.7-5.1c-0.9,1.6-1.7,3.2-2.6,4.7c-0.4,0.6-0.8,1.2-1.2,1.8
	C-385.9,25.8-385.2,25.8-384.3,25.8z M-394.9,25.8c-0.3-0.4-0.6-0.7-0.9-1.1c-0.5-0.9-1-1.8-1.5-2.8c-0.4-0.8-0.9-1.7-1.4-2.6
	c-0.9,1.6-1.7,3.2-2.5,4.6c-0.4,0.7-0.9,1.3-1.2,1.8c0.5,0,1.2,0,2,0c-1-0.4-1.1-0.7-0.5-1.5c0.1-0.2,0.4-0.3,0.5-0.3
	c0.6,0,1.2,0,1.8,0c0.9-0.1,0.9,0.7,1.1,1.2c0.1,0.1-0.4,0.5-0.5,0.6C-397,25.8-395.9,25.8-394.9,25.8z M-371.4,23.7h-0.1
	c-0.3,0.4-0.5,0.9-0.8,1.2c-0.6,0.7-1.4,0.6-2.2,0.6c-0.9,0-0.9-0.1-0.9-0.9c0-1.3,0-2.5,0-3.8c0-0.7,0.1-1.2,0.9-1.2
	c-1.2,0-2.4,0-3.6,0c0.7,0.1,0.9,0.5,0.9,1.1c0,1.3,0,2.5,0,3.8c0,0.6,0,1.3-0.9,1.3c2.2,0,4.3,0,6.5,0
	C-371.6,25-371.5,24.4-371.4,23.7z"/>
<path class="st20" d="M-413.5-2.3c0.5,0.2,0.5,0.4,0.4,0.9c-0.8,2-1.6,4-1.8,6.2c-0.1,1.3-0.1,2.6,0.2,3.8c0.5,2.1,2,3.2,4,3.4
	c2.5,0.3,4.9-0.3,7-1.8c1.1-0.8,1.7-1.9,1.6-3.3c-0.3-3.2-0.5-6.5-0.8-9.7c-0.3-3.1-0.7-6.2-1-9.4c-0.1-0.5,0-1.2-0.6-1.5
	c-0.1-0.1-0.2-0.3-0.2-0.4c0-1.7,0.2-3.4,0.8-5c0-0.1,0.1-0.1,0.1-0.1c0.1,0,0.1,0,0.1,0c0,1.3,0.8,1.9,1.8,2.5
	c0.6,0.3,0.8,0.8,0.7,1.5c-0.1,1.1-0.2,2.1-0.3,3.2c-0.4-0.1-0.6-0.2-1-0.3c0.6,7.5,1.9,14.9,1.4,22.4l0,0c2.8-1.2,5.6-2.4,8-4.3
	c3.4-2.7,5.1-6.2,5.3-10.4c0.1-2.8-0.2-5.5-0.6-8.3c0-0.3,0-0.6,0-0.9c0.3-1,0.5-2,1-2.9c0.1,0.9,0.3,1.8,0.3,2.7
	c0.4,4.5,0.8,9,1.3,13.5c0.2,1.6,0.4,3.1,0.7,4.7c0.1,0.5,0.3,1,0.6,1.4c0.1,0.2,0.5,0.4,0.8,0.4c4.2,0,8.3,0,12.5,0
	c0-0.1,0-0.2,0-0.2c-1.4-1.3-2.7-2.6-4.1-3.8c-1.3-1.1-3-1.4-4.7-1.1c-0.1,0-0.3,0-0.4,0c0.2-2,1.8-3.8,3.5-4
	c0.9-0.1,1.7,0.2,2.4,0.7c1,0.9,2,1.8,2.9,2.8c1.4,1.5,2.6,3.1,4,4.7c0.5,0.6,1.1,1.1,2,0.8c0,1.3,0,2.5,0,3.8c-0.2,0-0.4,0-0.7,0
	c-5.7,0-11.5,0-17.2,0c-1,0-1.6-0.4-2.1-1.2c-0.7-1.3-1-2.6-1.1-4c-0.2-1.8-0.2-3.6-0.4-5.7c-0.1,0.3-0.2,0.4-0.2,0.6
	c-0.6,2-1.2,4.1-1.9,6c-1.2,3.3-3.6,5-7.1,5.2c-1.5,0.1-3,0.1-4.4,0.3c-0.2,0-0.6,0.2-0.7,0.4c-1.1,3-3.4,4.2-6.3,4.4
	c-1.1,0.1-2.3,0.1-3.4,0c-3.1-0.5-4.9-2.7-5-6c-0.1-3.4,0.7-6.5,1.8-9.7C-414.1-0.7-413.8-1.5-413.5-2.3z"/>
<path class="st20" d="M-389.8-0.4c-0.2-0.4-0.3-0.6-0.3-0.9c-0.9-2.4-2.1-4.6-3.6-6.6c-0.3-0.4-0.8-0.8-1.2-1.2
	c-0.4-0.3-0.8-0.2-1,0.3c-0.4,0.8-0.6,0.9-1.4,0.3c-2.3-1.7-3.5-3.9-3.3-6.8c0-0.9,0.4-1.2,1.3-0.9c0.2,0.1,0.5,0.2,0.7,0.3
	c4.3,2.7,7.4,6.4,8.7,11.4C-389.6-3.2-389.5-1.9-389.8-0.4z"/>
<g>
	<path class="st20" d="M-406.8,25.8c0.9-0.1,1-0.6,0.9-1.3c0-0.5,0-1.1,0-1.7c-0.9,0-1.8,0-2.7,0c0,0.8-0.1,1.5,0,2.2
		c0.1,0.3,0.5,0.6,0.7,0.8c-1,0-2.2,0-3.4,0c0.9,0,0.9-0.7,0.9-1.4c0-1.3,0-2.5,0-3.8c0-0.6-0.1-1.1-0.9-1.1c1.2,0,2.4,0,3.5,0
		c-0.8,0-0.9,0.5-0.9,1.2c0,0.5,0,1,0,1.6c0.9,0,1.8,0,2.7,0c0-0.7,0.1-1.5,0-2.2c0-0.3-0.5-0.5-0.6-0.6c1,0,2.2,0,3.4,0
		c-0.8,0-0.9,0.6-0.9,1.2c0,1.2,0,2.5,0,3.7c0,0.7,0,1.3,0.9,1.3C-404.4,25.8-405.6,25.8-406.8,25.8z"/>
	<path class="st20" d="M-394,25.7c0.7-0.1,0.8-0.6,0.8-1.2c0-1.3,0-2.6,0-3.9c0-0.6-0.1-1.1-0.8-1.2c1.2,0,2.4,0,3.7,0
		c-1,0.2-1.1,0.3-1.1,1.2c0,1.2,0,2.5,0,3.7c0,0.9,0.1,1,1,1c0.7,0,1.4-0.1,2-0.4c0.4-0.2,0.7-0.9,1.1-1.5c-0.1,0.8-0.2,1.5-0.3,2.2
		C-389.8,25.7-391.9,25.7-394,25.7z"/>
	<path class="st20" d="M-384.3,25.8c-0.9,0-1.6,0-2.2,0c0.4-0.5,0.9-1.1,1.2-1.8c0.9-1.5,1.7-3.1,2.6-4.7c0.9,1.8,1.8,3.4,2.7,5.1
		c0.3,0.5,0.6,0.9,1,1.4c-1,0-2,0-3,0c0.1-0.2,0.5-0.4,0.5-0.6c0-0.6-0.6-1.2-1-1.2c-0.6,0-1.2,0-1.8,0c-0.2,0-0.5,0.2-0.6,0.3
		C-385.5,25.1-385.4,25.4-384.3,25.8z M-383.4,21.4c-0.4,0.8-0.8,1.5-1.2,2.2c0.8,0,1.5,0,2.3,0C-382.7,22.9-383,22.2-383.4,21.4z"
		/>
	<path class="st20" d="M-394.9,25.8c-1,0-2.1,0-3.1,0c0.2-0.2,0.6-0.5,0.5-0.6c-0.2-0.5-0.2-1.2-1.1-1.2c-0.6,0-1.2,0-1.8,0
		c-0.2,0-0.4,0.1-0.5,0.3c-0.6,0.8-0.5,1.1,0.5,1.5c-0.8,0-1.5,0-2,0c0.4-0.5,0.9-1.1,1.2-1.8c0.8-1.5,1.6-3,2.5-4.6
		c0.5,0.9,0.9,1.8,1.4,2.6c0.5,0.9,1,1.9,1.5,2.8C-395.5,25.1-395.2,25.4-394.9,25.8z M-400.5,23.6c0.8,0,1.5,0,2.3,0
		c-0.4-0.7-0.7-1.4-1.1-2.2C-399.8,22.2-400.1,22.9-400.5,23.6z"/>
	<path class="st20" d="M-371.4,23.7c-0.1,0.7-0.2,1.4-0.3,2.1c-2.2,0-4.4,0-6.5,0c0.9,0,0.9-0.7,0.9-1.3c0-1.3,0-2.5,0-3.8
		c0-0.6-0.1-1.1-0.9-1.1c1.2,0,2.4,0,3.6,0c-0.8,0-1,0.5-0.9,1.2c0,1.3,0,2.5,0,3.8c0,0.8,0.1,0.9,0.9,0.9s1.6,0.1,2.2-0.6
		c0.3-0.4,0.5-0.8,0.8-1.2C-371.5,23.7-371.5,23.7-371.4,23.7z"/>
</g>
<path class="st1" d="M-383.4,21.4c0.4,0.8,0.8,1.5,1.1,2.2c-0.8,0-1.5,0-2.3,0C-384.2,22.9-383.9,22.2-383.4,21.4z"/>
<path class="st1" d="M-400.5,23.6c0.4-0.8,0.8-1.4,1.2-2.2c0.4,0.8,0.8,1.4,1.1,2.2C-399,23.6-399.7,23.6-400.5,23.6z"/>
<path class="st21" d="M-255.1,27.2c-3.8,4.8-8.3,8.6-13.6,11.3c-0.2,0.1-0.4,0.2-0.6,0.3c-0.1,0-0.1,0.1-0.2,0.1l-0.1,0
	c-0.2,0.1-0.3,0.2-0.5,0.2c-0.1,0-0.2,0.1-0.3,0.1c-0.2,0.1-0.3,0.1-0.5,0.2l-0.1,0c-0.1,0-0.1,0.1-0.2,0.1
	c-0.2,0.1-0.4,0.2-0.6,0.3l-0.1,0l-0.5,0.2l-0.6-0.3c-0.2-0.1-0.4-0.2-0.6-0.3c-0.1,0-0.1-0.1-0.2-0.1l-0.1,0
	c-0.2-0.1-0.3-0.1-0.5-0.2c-0.1,0-0.2-0.1-0.3-0.1c-0.2-0.1-0.3-0.2-0.5-0.2l-0.1,0c-0.1,0-0.1-0.1-0.2-0.1
	c-0.2-0.1-0.4-0.2-0.6-0.3c-10.3-5.4-17.9-14.8-22.3-27.5c0,0,0,0,0,0c-0.6-1.8-1.1-3.6-1.6-5.5c-0.1-0.2-0.1-0.5-0.2-0.7l0-0.2
	c-1-4.1-1.7-8.5-2-13c-0.5-6.8-0.2-11.5-0.1-11.7l0.1-1.2h1.2l0.1,0c13.4,0,25.5-4.9,27.8-5.9c0.2-0.1,0.2-0.1,0.3-0.1l0.5-0.2
	l0.5,0.2c0,0,0.1,0,0.2,0.1c1.8,0.8,18.9,5.1,18.9,5c2.8,0.4,5.8,0.7,8.8,0.7l0.1,0h1.2l0.1,1.2c0,0.2,0.3,3.5,0.1,8.5h4.3
	c0.1-1.5,0.1-2.8,0.1-4c0-2.9-0.2-4.7-0.2-4.9l-0.4-5.1h-5.1c-0.1,0-0.1,0-0.2,0l-0.1,0c-12.2-0.1-23.5-4.6-25.7-5.5
	c-0.2-0.1-0.3-0.1-0.3-0.1l-2.3-1l0,0l0,0l-2.3,1c0,0-0.1,0.1-0.3,0.1c-1.7,0.7-9.1,3.7-18.1,4.9c0.1,0-4.8,0.8-7.5,0.8l-0.1,0
	c-0.1,0-0.1,0-0.2,0h-5.1l-0.4,5.1c0,0.2-0.2,2-0.2,4.9c0,1.5,0,3.4,0.2,5.4c0,0,0,0-0.1,0.1c0.3,4.4,0.9,9.8,2.3,15.5
	c0.1,0.2,0.1,0.5,0.2,0.7c0,0.2,0.1,0.4,0.1,0.6l0,0.1c0.4,1.6,0.9,3.2,1.4,4.8c0,0,0,0,0,0.1c0,0,0,0,0,0c2,6.1,4.8,11.6,8.2,16.4
	c0.1,0.2,0.3,0.3,0.4,0.5c0,0,0,0.1,0,0.1c4.3,5.8,9.5,10.4,15.6,13.7c0,0,0,0,0,0c0.3,0.2,0.6,0.3,0.9,0.5l0,0
	c0.3,0.2,0.6,0.3,0.9,0.5l0.1,0c0.3,0.1,0.5,0.2,0.8,0.4c0.1,0,0.2,0.1,0.2,0.1c0.3,0.1,0.6,0.3,0.8,0.4l2.2,0.9l2.2-0.9l0,0
	c0.3-0.1,0.5-0.2,0.8-0.4c0.1,0,0.2-0.1,0.2-0.1c0.3-0.1,0.5-0.3,0.8-0.4l0.1,0c0.3-0.1,0.6-0.3,0.9-0.5l0,0
	c0.3-0.2,0.6-0.3,0.9-0.5c0,0,0,0,0,0c6.2-3.4,11.6-8.1,15.9-14c0.2-0.3,0.5-0.7,0.7-1H-255.1z"/>
<g>
	<path class="st22" d="M-238.7-4.9V7.7h-2.9V-4.9H-238.7z"/>
	<path class="st22" d="M-224,7.7h-2.9V0.4l-3.3,5.3h-0.3l-3.3-5.3v7.3h-2.9V-4.9h2.9l3.4,5.6l3.4-5.6h2.9V7.7z"/>
	<path class="st22" d="M-209.2,7.7h-2.9V0.4l-3.3,5.3h-0.3l-3.3-5.3v7.3h-2.9V-4.9h2.9l3.4,5.6l3.4-5.6h2.9V7.7z"/>
	<path class="st22" d="M-207.1,3.7v-8.5h2.9v8.3c0,1,0.5,1.8,2,1.8s2-0.8,2-1.8v-8.3h2.9v8.5c0,2.7-2.1,4.3-4.9,4.3
		C-205,8-207.1,6.4-207.1,3.7z"/>
	<path class="st22" d="M-185.4-4.9V7.7h-2.2l-4.9-6.8v6.8h-2.9V-4.9h2.2l4.9,6.8v-6.8H-185.4z"/>
	<path class="st22" d="M-175.4,5v2.8h-7.9V-4.9h7.8v2.8h-5V0h4.5v2.7h-4.5V5H-175.4z"/>
	<path class="st22" d="M-242.3,19.3l2.1-1.2c0.4,0.9,1.1,1.5,2.3,1.5c1.2,0,1.5-0.5,1.5-0.9c0-0.7-0.6-0.9-2.2-1.4
		c-1.6-0.4-3.2-1.2-3.2-3.3c0-2.1,1.8-3.3,3.6-3.3c1.8,0,3.2,0.9,4,2.5l-2.1,1.2c-0.4-0.8-0.9-1.3-1.9-1.3c-0.8,0-1.2,0.4-1.2,0.8
		c0,0.5,0.3,0.8,2,1.3c1.6,0.5,3.5,1.1,3.5,3.4c0,2.1-1.7,3.3-4,3.3C-240.2,22-241.7,20.9-242.3,19.3z"/>
	<path class="st22" d="M-232.8,18.2v-7.3h2.5V18c0,0.8,0.4,1.5,1.7,1.5c1.3,0,1.7-0.7,1.7-1.5v-7.1h2.5v7.3c0,2.3-1.8,3.7-4.2,3.7
		C-231,22-232.8,20.6-232.8,18.2z"/>
	<path class="st22" d="M-214.7,14.6c0,2.1-1.7,3.7-3.8,3.7h-1.6v3.4h-2.5V10.9h4.1C-216.4,10.9-214.7,12.5-214.7,14.6z M-217.2,14.6
		c0-0.8-0.6-1.4-1.3-1.4h-1.6V16h1.6C-217.7,16-217.2,15.4-217.2,14.6z"/>
	<path class="st22" d="M-205.6,14.6c0,2.1-1.7,3.7-3.8,3.7h-1.6v3.4h-2.5V10.9h4.1C-207.2,10.9-205.6,12.5-205.6,14.6z M-208,14.6
		c0-0.8-0.6-1.4-1.3-1.4h-1.6V16h1.6C-208.6,16-208,15.4-208,14.6z"/>
	<path class="st22" d="M-204.9,16.3c0-3.2,2.5-5.6,5.6-5.6s5.6,2.5,5.6,5.6s-2.5,5.6-5.6,5.6S-204.9,19.5-204.9,16.3z M-196,16.3
		c0-1.9-1.4-3.2-3.2-3.2s-3.2,1.3-3.2,3.2c0,1.9,1.4,3.2,3.2,3.2S-196,18.3-196,16.3z"/>
	<path class="st22" d="M-188.5,18.2h-1.2v3.6h-2.5V10.9h4.3c2.1,0,3.7,1.7,3.7,3.7c0,1.3-0.8,2.5-2,3.1l2.3,4h-2.7L-188.5,18.2z
		 M-189.7,16h1.9c0.7,0,1.2-0.6,1.2-1.4c0-0.8-0.6-1.4-1.2-1.4h-1.9V16z"/>
	<path class="st22" d="M-175.6,13.3h-2.8v8.5h-2.5v-8.5h-2.8v-2.4h8.1V13.3z"/>
</g>
<path class="st23" d="M-274.8,19.4l-9.1-11.1c-0.5-0.6-0.4-1.4,0.2-1.9v0c0.6-0.5,1.4-0.4,1.9,0.2l7.1,8.7c0.5,0.6,1.5,0.6,2,0
	L-255.8-5c0.5-0.6,1.3-0.6,1.9-0.2l0,0c0.6,0.5,0.6,1.3,0.2,1.9l-19,22.7C-273.3,20.1-274.2,20.1-274.8,19.4z"/>
<path class="st21" d="M-111.4,137.5c-3.8,4.8-8.3,8.6-13.6,11.3c-0.2,0.1-0.4,0.2-0.6,0.3c-0.1,0-0.1,0.1-0.2,0.1l-0.1,0
	c-0.2,0.1-0.3,0.2-0.5,0.2c-0.1,0-0.2,0.1-0.3,0.1c-0.2,0.1-0.3,0.1-0.5,0.2l-0.1,0c-0.1,0-0.1,0.1-0.2,0.1
	c-0.2,0.1-0.4,0.2-0.6,0.3l-0.1,0l-0.5,0.2l-0.6-0.3c-0.2-0.1-0.4-0.2-0.6-0.3c-0.1,0-0.1-0.1-0.2-0.1l-0.1,0
	c-0.2-0.1-0.3-0.1-0.5-0.2c-0.1,0-0.2-0.1-0.3-0.1c-0.2-0.1-0.3-0.2-0.5-0.2l-0.1,0c-0.1,0-0.1-0.1-0.2-0.1
	c-0.2-0.1-0.4-0.2-0.6-0.3c-10.3-5.4-17.9-14.8-22.3-27.5c0,0,0,0,0,0c-0.6-1.8-1.1-3.6-1.6-5.5c-0.1-0.2-0.1-0.5-0.2-0.7l0-0.2
	c-1-4.1-1.7-8.5-2-13c-0.5-6.8-0.2-11.5-0.1-11.7l0.1-1.2h1.2l0.1,0c13.4,0,25.5-4.9,27.8-5.9c0.2-0.1,0.2-0.1,0.3-0.1l0.5-0.2
	l0.5,0.2c0,0,0.1,0,0.2,0.1c1.8,0.8,18.9,5.1,18.9,5c2.8,0.4,5.8,0.7,8.8,0.7l0.1,0h1.2l0.1,1.2c0,0.2,0.3,3.5,0.1,8.5h4.3
	c0.1-1.5,0.1-2.8,0.1-4c0-2.9-0.2-4.7-0.2-4.9l-0.4-5.1h-5.1c-0.1,0-0.1,0-0.2,0l-0.1,0c-12.2-0.1-23.5-4.6-25.7-5.5
	c-0.2-0.1-0.3-0.1-0.3-0.1l-2.3-1l0,0l0,0l-2.3,1c0,0-0.1,0.1-0.3,0.1c-1.7,0.7-9.1,3.7-18.1,4.9c0.1,0-4.8,0.8-7.5,0.8l-0.1,0
	c-0.1,0-0.1,0-0.2,0h-5.1l-0.4,5.1c0,0.2-0.2,2-0.2,4.9c0,1.5,0,3.4,0.2,5.4c0,0,0,0-0.1,0.1c0.3,4.4,0.9,9.8,2.3,15.5
	c0.1,0.2,0.1,0.5,0.2,0.7c0,0.2,0.1,0.4,0.1,0.6l0,0.1c0.4,1.6,0.9,3.2,1.4,4.8c0,0,0,0,0,0.1c0,0,0,0,0,0c2,6.1,4.8,11.6,8.2,16.4
	c0.1,0.2,0.3,0.3,0.4,0.5c0,0,0,0.1,0,0.1c4.3,5.8,9.5,10.4,15.6,13.7c0,0,0,0,0,0c0.3,0.2,0.6,0.3,0.9,0.5l0,0
	c0.3,0.2,0.6,0.3,0.9,0.5l0.1,0c0.3,0.1,0.5,0.2,0.8,0.4c0.1,0,0.2,0.1,0.2,0.1c0.3,0.1,0.6,0.3,0.8,0.4l2.2,0.9l2.2-0.9l0,0
	c0.3-0.1,0.5-0.2,0.8-0.4c0.1,0,0.2-0.1,0.2-0.1c0.3-0.1,0.5-0.3,0.8-0.4l0.1,0c0.3-0.1,0.6-0.3,0.9-0.5l0,0
	c0.3-0.2,0.6-0.3,0.9-0.5c0,0,0,0,0,0c6.2-3.4,11.6-8.1,15.9-14c0.2-0.3,0.5-0.7,0.7-1H-111.4z"/>
<text transform="matrix(1 0 0 1 -99.042 118.0293)"><tspan x="0" y="0" class="st22" style="font-family:'Gilroy-ExtraBold'; font-size:18px;">IMMUNE</tspan><tspan x="0" y="14" class="st22" style="font-family:'Gilroy-ExtraBold'; font-size:15.5px;">SUPPORT</tspan></text>
<path class="st23" d="M-131.1,129.7l-9.1-11.1c-0.5-0.6-0.4-1.4,0.2-1.9l0,0c0.6-0.5,1.4-0.4,1.9,0.2l7.1,8.7c0.5,0.6,1.5,0.6,2,0
	l16.9-20.3c0.5-0.6,1.3-0.6,1.9-0.2l0,0c0.6,0.5,0.6,1.3,0.2,1.9l-19,22.7C-129.6,130.3-130.6,130.3-131.1,129.7z"/>
<path class="st22" d="M76.6,16.5l-0.5-6.2l-6.5,0C57,10.2,45.4,5.5,43.2,4.6l-2.7-1.2l-0.4-0.2L37,4.6c-1.6,0.7-17.5,5.1-18.3,5.3
	c-2.8,0.4-5.1,0.6-8,0.6l-6.5,0l-0.5,6.2c0,0.2-0.2,2.1-0.2,5.2c0,1.6,0.1,5.2,0.1,5.2l0,0.6c0.3,5.6,1.1,11.1,2.4,16.3
	C6,44.2,6,44.4,6.1,44.7l0.2,0.7c0.4,1.6,0.9,3.3,1.5,5.1c2.2,6.5,5.1,12.3,8.6,17.3c0,0,0,0,0,0l0,0.1l0.4,0.5
	c4.5,6.1,10.1,11,16.6,14.5c0.3,0.2,0.6,0.3,1,0.5c0.3,0.2,0.7,0.3,1.1,0.5c0.3,0.1,0.6,0.3,0.8,0.4l0.2,0.1
	c0.3,0.1,0.6,0.3,0.9,0.4l2.7,1.1l2.7-1.1c0.3-0.1,0.6-0.2,0.9-0.4l0.2-0.1c0.3-0.1,0.6-0.3,0.9-0.4c0.3-0.2,0.7-0.3,1-0.5
	c0.3-0.2,0.6-0.3,1-0.5c6.6-3.6,12.3-8.6,16.9-14.9c0.2-0.2,0.3-0.5,0.5-0.7l1.3-1.9h-8.2l-0.3,0.4c-3.9,4.9-8.5,8.7-13.9,11.5
	l-2.3,1.1c-0.2,0.1-0.4,0.2-0.6,0.3l-0.2,0.1l-0.2-0.1c-0.2-0.1-0.4-0.2-0.6-0.3l-1.5-0.7l-0.1-0.1l-0.1-0.1
	c-0.2-0.1-0.4-0.2-0.6-0.3C26.7,71.9,18.9,62.6,14.4,50l-0.3-0.8c-0.6-1.8-1.2-3.7-1.7-5.6l-0.2-0.9c-1-4.2-1.7-8.7-2.1-13.4
	c-0.6-7.1-0.1-12-0.1-12l0-0.3h0.4c14.1,0,26.9-5.2,29.3-6.3l0.4-0.2l0.4,0.2c1.9,0.8,17.9,4.8,19.7,5.3l0.1,0
	c3.3,0.5,6.5,0.7,9.5,0.7h0.3l0,0.3c0,0.1,0.3,3.5,0.1,8.7l0,1h6.4l0-0.9c0.1-1.5,0.1-2.9,0.1-4.2C76.8,18.4,76.6,16.5,76.6,16.5z"
	/>
<g>
	<path class="st22" d="M73.2,32.9V46h-3V32.9H73.2z"/>
	<path class="st22" d="M88.5,46h-3v-7.6L82.2,44h-0.3l-3.4-5.6V46h-3V32.9h3l3.6,5.8l3.6-5.8h3V46z"/>
	<path class="st22" d="M103.9,46h-3v-7.6L97.5,44h-0.3l-3.4-5.6V46h-3V32.9h3l3.6,5.8l3.6-5.8h3V46z"/>
	<path class="st22" d="M106.1,41.8v-8.9h3v8.6c0,1,0.5,1.8,2.1,1.8s2.1-0.8,2.1-1.8v-8.6h3v8.9c0,2.8-2.2,4.5-5.1,4.5
		C108.2,46.3,106.1,44.6,106.1,41.8z"/>
	<path class="st22" d="M128.7,32.9V46h-2.3l-5.1-7.1V46h-3V32.9h2.3l5.1,7.1v-7.1H128.7z"/>
	<path class="st22" d="M139.2,43.2V46h-8.3V32.9h8.2v2.9h-5.2V38h4.7v2.8h-4.7v2.3H139.2z"/>
	<path class="st22" d="M69.5,58.1l2.2-1.3c0.4,0.9,1.1,1.6,2.4,1.6c1.2,0,1.5-0.5,1.5-0.9c0-0.7-0.6-1-2.3-1.4
		c-1.7-0.5-3.3-1.3-3.3-3.4c0-2.2,1.8-3.4,3.8-3.4c1.9,0,3.3,0.9,4.1,2.6l-2.2,1.3c-0.4-0.8-0.9-1.3-2-1.3c-0.8,0-1.2,0.4-1.2,0.9
		c0,0.5,0.3,0.9,2,1.4c1.7,0.5,3.6,1.1,3.6,3.5c0,2.2-1.7,3.5-4.2,3.5C71.6,60.9,70.1,59.7,69.5,58.1z"/>
	<path class="st22" d="M79.4,57v-7.7H82v7.4c0,0.9,0.4,1.6,1.8,1.6c1.4,0,1.8-0.7,1.8-1.6v-7.4h2.6V57c0,2.4-1.9,3.9-4.4,3.9
		C81.3,60.9,79.4,59.4,79.4,57z"/>
	<path class="st22" d="M98.2,53.2c0,2.1-1.7,3.9-4,3.9h-1.7v3.6H90V49.3h4.3C96.5,49.3,98.2,51.1,98.2,53.2z M95.6,53.2
		c0-0.8-0.6-1.5-1.4-1.5h-1.7v2.9h1.7C95,54.7,95.6,54,95.6,53.2z"/>
	<path class="st22" d="M107.7,53.2c0,2.1-1.7,3.9-4,3.9h-1.7v3.6h-2.6V49.3h4.3C106,49.3,107.7,51.1,107.7,53.2z M105.1,53.2
		c0-0.8-0.6-1.5-1.4-1.5h-1.7v2.9h1.7C104.5,54.7,105.1,54,105.1,53.2z"/>
	<path class="st22" d="M108.4,55c0-3.3,2.6-5.9,5.9-5.9s5.9,2.6,5.9,5.9c0,3.3-2.6,5.9-5.9,5.9S108.4,58.3,108.4,55z M117.6,55
		c0-2-1.5-3.4-3.3-3.4c-1.8,0-3.3,1.3-3.3,3.4c0,2,1.5,3.4,3.3,3.4C116.2,58.3,117.6,57,117.6,55z"/>
	<path class="st22" d="M125.4,56.9h-1.2v3.7h-2.6V49.3h4.5c2.1,0,3.9,1.7,3.9,3.9c0,1.4-0.8,2.6-2.1,3.3l2.4,4.1h-2.8L125.4,56.9z
		 M124.2,54.7h1.9c0.7,0,1.3-0.6,1.3-1.5c0-0.8-0.6-1.5-1.3-1.5h-1.9V54.7z"/>
	<path class="st22" d="M138.9,51.8H136v8.8h-2.6v-8.8h-2.9v-2.5h8.4V51.8z"/>
</g>
<path class="st22" d="M60.9,30.4c-0.6-0.5-1.3-0.7-2.1-0.7c-0.8,0.1-1.5,0.4-2,1l-17.5,21L32,42.9c-1-1.2-2.8-1.4-4-0.4
	c-1.2,1-1.4,2.8-0.4,4l9.5,11.6c0.5,0.7,1.3,1,2.2,1c0,0,0,0,0,0c0.8,0,1.6-0.4,2.2-1l19.7-23.6C62.3,33.3,62.1,31.5,60.9,30.4z"/>
</svg>
