<?xml version="1.0" encoding="utf-8"?>
<!-- Generator: Adobe Illustrator 22.0.0, SVG Export Plug-In . SVG Version: 6.00 Build 0)  -->
<svg version="1.1" id="Layer_1" xmlns="http://www.w3.org/2000/svg" xmlns:xlink="http://www.w3.org/1999/xlink" x="0px" y="0px"
	 viewBox="0 0 100 100" style="enable-background:new 0 0 100 100;" xml:space="preserve">
<style type="text/css">
	.st0{fill:#D51C59;}
	.st1{fill:#FFFFFF;}
	.st2{fill:none;stroke:#000000;stroke-linejoin:round;stroke-miterlimit:10;}
	.st3{fill:none;stroke:#7DC6D6;stroke-width:2;stroke-linecap:round;stroke-linejoin:round;stroke-miterlimit:10;}
	.st4{fill:none;stroke:#D51C59;stroke-width:2;stroke-linecap:round;stroke-linejoin:round;stroke-miterlimit:10;}
	.st5{fill:none;stroke:#000000;stroke-miterlimit:10;}
	.st6{fill:none;stroke:#515150;stroke-width:16;stroke-linecap:round;stroke-miterlimit:10;}
	.st7{fill:none;stroke:#515150;stroke-linejoin:round;stroke-miterlimit:10;}
	.st8{fill:#05305E;}
	.st9{fill:#B2B9C8;}
	.st10{fill:#8BC34A;}
	.st11{fill-rule:evenodd;clip-rule:evenodd;fill:#33691E;}
	.st12{fill:#669B41;stroke:#669B41;stroke-miterlimit:10;}
	.st13{fill:#669B41;}
</style>
<g>
	<path d="M-247.4,31.7c-14.1,0-25.5-11.5-25.5-25.5c0-14.1,11.5-25.5,25.5-25.5s25.5,11.5,25.5,25.5S-233.3,31.7-247.4,31.7z
		 M-247.4-17.7c-13.2,0-23.9,10.7-23.9,23.9s10.7,23.9,23.9,23.9c13.2,0,23.9-10.7,23.9-23.9S-234.2-17.7-247.4-17.7z"/>
</g>
<g>
	<path d="M-247.4,26.8c-11.4,0-20.6-9.3-20.6-20.6c0-11.4,9.3-20.6,20.6-20.6c11.4,0,20.6,9.3,20.6,20.6S-236,26.8-247.4,26.8z
		 M-247.4-13.1c-10.6,0-19.3,8.6-19.3,19.3c0,10.6,8.7,19.3,19.3,19.3s19.3-8.7,19.3-19.3C-228.1-4.5-236.8-13.1-247.4-13.1z"/>
</g>
<g id="check_2_">
	<g>
		<path class="st0" d="M-249.3,18.7l-14-14c-0.8-0.8-0.8-2.2,0-3l3-3c0.8-0.8,2.2-0.8,3,0l9.4,9.4l20.1-20.1c0.8-0.8,2.2-0.8,3,0
			l3,3c0.8,0.8,0.8,2.2,0,3l-24.4,24.7C-247.1,19.6-248.4,19.6-249.3,18.7L-249.3,18.7z"/>
	</g>
</g>
<g>
	<path d="M-256.2-38.3c1-0.2,1.9-0.1,2.7,0.4s1.3,1.2,1.5,2.2s0.1,1.9-0.5,2.6c-0.5,0.8-1.3,1.3-2.2,1.5l-1.3,0.3l0.6,2.9l-2.5,0.5
		l-2-9.6L-256.2-38.3z M-255.2-33.9c0.3-0.1,0.5-0.2,0.6-0.4c0.1-0.2,0.2-0.5,0.1-0.8c-0.1-0.3-0.2-0.5-0.4-0.7s-0.5-0.2-0.8-0.1
		l-1.3,0.3l0.4,2.1L-255.2-33.9z"/>
	<path d="M-245-29.3l-1.6-3.2h-0.9l-0.1,3.2l-2.5-0.1l0.3-9.9l3.9,0.1c1,0,1.8,0.4,2.5,1c0.7,0.7,1,1.5,1,2.5c0,0.6-0.2,1.1-0.5,1.6
		c-0.3,0.5-0.7,0.9-1.3,1.1l1.9,3.7L-245-29.3z M-247.4-36.9l-0.1,2.2h1.4c0.3,0,0.6-0.1,0.8-0.3s0.3-0.5,0.3-0.8
		c0-0.3-0.1-0.6-0.3-0.8c-0.2-0.2-0.4-0.3-0.8-0.3H-247.4z"/>
	<path d="M-238.8-30.6l3.7,1l-0.6,2.3l-6.1-1.6l2.5-9.6l6.1,1.6l-0.6,2.3l-3.6-0.9l-0.3,1.3l3.3,0.9l-0.6,2.2l-3.4-0.9L-238.8-30.6z
		"/>
	<path d="M-221.4-30.9l-4.9,8.6l-2.1-1.3l2.6-4.6l-4,2.3L-230-26l-0.1-4.6l-2.6,4.6l-2.2-1.3l4.9-8.6l2.2,1.3l0.1,4.9l4.3-2.4
		L-221.4-30.9z"/>
	<path d="M-218.9-28.6l1.9,1.7l-6.6,7.3l-1.9-1.7L-218.9-28.6z"/>
	<path d="M-218-13.9c-0.9-0.2-1.8-0.8-2.4-1.7c-0.7-0.9-1-1.9-0.9-2.8c0.1-1,0.5-1.8,1.4-2.4l5.3-4l1.5,2l-5.3,3.9
		c-0.7,0.5-0.7,1.1-0.2,1.8c0.6,0.7,1.2,0.9,1.8,0.4l5.1-3.8l1.5,2l-5.3,4C-216.2-13.9-217.1-13.7-218-13.9z"/>
	<path d="M-204.7-6l-9.2,3.4l-0.9-2.3l5-1.8l-4.6-0.9l-0.1-0.2l2.9-3.6l-5,1.8l-0.9-2.4l9.2-3.4l0.9,2.4l-3,3.7l4.8,0.9L-204.7-6z"
		/>
	<path d="M-209,11.8c-1.2-0.1-2.2-0.5-3.1-1.2l-1,0.8l-1.5-1.8l1.1-0.9c-0.3-0.7-0.4-1.5-0.4-2.3c0.1-1.4,0.6-2.6,1.7-3.6
		c1-0.9,2.3-1.4,3.7-1.3c1.4,0.1,2.6,0.7,3.6,1.7c0.9,1.1,1.4,2.3,1.3,3.7c-0.1,1.4-0.6,2.6-1.7,3.6
		C-206.3,11.5-207.6,11.9-209,11.8z M-211.4,6.5c0,0.1,0,0.2,0,0.4l1.5-1.2l1.4,1.9l-1.7,1.4c0.4,0.2,0.8,0.4,1.3,0.4
		c0.8,0,1.4-0.2,2-0.6c0.5-0.5,0.8-1.1,0.9-1.9c0-0.8-0.2-1.4-0.6-1.9c-0.5-0.5-1.1-0.8-1.9-0.9c-0.8,0-1.4,0.2-2,0.6
		C-211,5.2-211.3,5.8-211.4,6.5z"/>
	<path d="M-215.7,18.6c-0.4-0.9-0.3-1.9,0-3c0.4-1.1,1-1.9,1.8-2.3c0.8-0.5,1.7-0.5,2.7-0.2l6.2,2.2l-0.8,2.4l-6-2.1
		c-0.8-0.3-1.3,0-1.6,0.9c-0.3,0.9-0.1,1.4,0.7,1.7l6,2.1l-0.8,2.4l-6.2-2.2C-214.7,20.1-215.4,19.5-215.7,18.6z"/>
	<path d="M-220.5,25.1l1.4,0.4l1.9-2.8l-0.9-1.2l1.5-2.3l6.5,8.1l-1.8,2.6l-10-2.7L-220.5,25.1z M-215.7,24.4l-1.1,1.7l3.3,1
		L-215.7,24.4z"/>
	<path d="M-222.5,30.8l-2.5,2.3l-1.7-1.8l4.3-4.1l6.8,7.2l-1.8,1.9L-222.5,30.8z"/>
	<path d="M-221.9,40l-2.1,1.4l-5.5-8.2l2.1-1.4L-221.9,40z"/>
	<path d="M-232.7,45.8l-1-2.2l2.2-1l-3.1-6.8l2.3-1l3.1,6.8l2.2-1l1,2.2L-232.7,45.8z"/>
	<path d="M-243.6,48.3l2.1-6.6l-0.7-3.7l2.5-0.5l0.7,3.7l4.4,5.4l-2.8,0.5l-2.4-3.2l-1,3.9L-243.6,48.3z"/>
</g>
<g>
	<g>
		<circle class="st1" cx="345.2" cy="50.1" r="49.3"/>
	</g>
	<g>
		<path d="M338.4,13.6c-1,0.1-1.9,0-2.6-0.3c-0.7-0.4-1.3-0.9-1.6-1.6l2-1.5c0.5,0.8,1.2,1.2,2.1,1.1c0.8-0.1,1.1-0.4,1.1-0.8
			c0-0.3-0.3-0.5-0.7-0.6c-0.2-0.1-0.6-0.1-1.3-0.2c-0.9-0.2-1.7-0.4-2.2-0.8c-0.6-0.4-0.9-1-1-1.9c-0.1-0.9,0.1-1.7,0.7-2.3
			c0.6-0.6,1.3-1,2.3-1.1c0.8-0.1,1.6,0,2.2,0.3c0.7,0.3,1.2,0.8,1.6,1.5L339,6.7c-0.4-0.7-0.9-1-1.6-0.9c-0.3,0-0.5,0.1-0.7,0.3
			c-0.1,0.1-0.2,0.3-0.2,0.5c0,0.2,0.2,0.4,0.4,0.5c0.2,0.1,0.7,0.2,1.4,0.4c0.5,0.1,0.9,0.2,1.2,0.3c0.3,0.1,0.6,0.2,1,0.4
			c0.4,0.2,0.7,0.4,0.9,0.8c0.2,0.3,0.3,0.7,0.4,1.2c0.1,1-0.1,1.7-0.7,2.4C340.4,13.1,339.5,13.5,338.4,13.6z"/>
		<path d="M351,12.5c-1.1,0.9-2.4,1.2-3.8,1.1c-1.4-0.2-2.6-0.8-3.5-1.9s-1.2-2.3-1.1-3.8c0.2-1.4,0.8-2.6,1.9-3.4s2.4-1.2,3.8-1.1
			s2.6,0.8,3.5,1.9s1.2,2.3,1.1,3.8C352.7,10.5,352.1,11.6,351,12.5z M345.7,10.2c0.4,0.6,1,0.9,1.8,1c0.8,0.1,1.4-0.1,2-0.5
			s0.9-1,1-1.8s-0.1-1.4-0.5-2s-1-0.9-1.8-1c-0.8-0.1-1.4,0.1-2,0.5s-0.9,1-1,1.8S345.2,9.6,345.7,10.2z"/>
		<path d="M361,9.3l-3.3-1.1l-0.5,1.5l3.3,1.1l-0.8,2.3l-3.3-1.1l-1.1,3.2l-2.4-0.8l3.2-9.3l5.7,2L361,9.3z"/>
		<path d="M370,11.4l-1.2,2.1l-2.1-1.2l-3.6,6.4l-2.2-1.2l3.6-6.4l-2.1-1.2l1.2-2.1L370,11.4z"/>
		<path d="M374.4,27.6l-2.1-0.6l0.1-1.2c-0.9-0.2-1.6-0.6-2.3-1.3c-0.7-0.8-1.1-1.6-1.2-2.4c-0.1-0.8,0.2-1.6,0.9-2.2
			c0.8-0.8,1.8-1.1,3.1-0.8c0.2-0.6,0.4-1,0.8-1.4c0.6-0.6,1.3-0.9,2.1-0.8s1.5,0.4,2.2,1.1c1.1,1.1,1.4,2.5,0.8,4l-2.4-0.7
			c0.3-0.7,0.3-1.2-0.1-1.6c-0.2-0.2-0.4-0.3-0.5-0.3c-0.2,0-0.4,0.1-0.5,0.2c-0.1,0.1-0.2,0.2-0.2,0.4c-0.1,0.2-0.1,0.3-0.1,0.4
			c0,0.1,0,0.3,0,0.6l-0.2,2.5c0.5-0.2,0.9-0.4,1.3-0.7l0.6,2.3c-0.6,0.3-1.3,0.6-2.1,0.7L374.4,27.6z M371.8,23.1
			c0.2,0.2,0.4,0.4,0.7,0.5l0.1-2.4c-0.4,0-0.7,0.1-1,0.4c-0.2,0.2-0.3,0.5-0.3,0.7C371.4,22.6,371.5,22.8,371.8,23.1z"/>
		<path d="M377.7,35c-0.7-1.3-0.8-2.6-0.3-3.9s1.3-2.3,2.6-2.9c1.3-0.7,2.6-0.8,3.9-0.3c1.3,0.4,2.3,1.3,3,2.6
			c0.4,0.8,0.6,1.6,0.5,2.5c0,0.9-0.3,1.6-0.7,2.4l-2.1-1.4c0.2-0.3,0.3-0.7,0.4-1.1c0-0.4-0.1-0.8-0.3-1.2
			c-0.4-0.7-0.9-1.2-1.5-1.4c-0.7-0.2-1.3-0.1-2,0.2s-1.2,0.9-1.4,1.5c-0.2,0.6-0.2,1.3,0.2,2c0.2,0.4,0.5,0.7,0.8,1
			c0.3,0.2,0.7,0.4,1.1,0.4l-0.1,2.5c-0.8-0.1-1.6-0.3-2.3-0.8S378.1,35.8,377.7,35z"/>
		<path d="M382.9,46.7c-1.2-0.8-1.9-1.8-2.2-3.2c-0.3-1.4-0.1-2.7,0.6-3.9c0.7-1.2,1.8-1.9,3.2-2.2c1.4-0.3,2.7-0.1,3.9,0.7
			c1.2,0.8,1.9,1.8,2.2,3.2c0.3,1.4,0.1,2.7-0.6,3.9s-1.8,1.9-3.2,2.2S384.1,47.5,382.9,46.7z M383.3,41c-0.4,0.6-0.5,1.3-0.3,2
			c0.2,0.7,0.5,1.3,1.1,1.7c0.6,0.4,1.3,0.5,2,0.3c0.8-0.2,1.3-0.6,1.7-1.2c0.4-0.6,0.5-1.3,0.3-2s-0.5-1.3-1.1-1.7
			c-0.6-0.4-1.3-0.5-2-0.3S383.7,40.4,383.3,41z"/>
		<path d="M391.2,59.5l-9.8-0.5l0.1-2.5l5.3,0.3l-3.8-2.6l0-0.3l4-2.2l-5.3-0.3L382,49l9.8,0.5l-0.1,2.5l-4.3,2.3l4,2.7L391.2,59.5z
			"/>
		<path d="M386.5,67.8l1-3.4l-1.5-0.4l-1,3.3l-2.3-0.7l1-3.3l-3.2-0.9l0.7-2.4l9.4,2.7l-1.7,5.8L386.5,67.8z"/>
		<path d="M384,78.4l-3.8-5.7l-3.3-1.7l1.2-2.2l3.3,1.7l6.9-0.1l-1.3,2.5l-4-0.1l2.4,3.2L384,78.4z"/>
	</g>
	<path class="st2" d="M378.8,76.4C370.9,87.1,358.3,94,344,94c-23.8,0-43.1-19.3-43.1-43.1c0-19.3,12.7-35.6,30.1-41.1"/>
	<g>
		<path class="st3" d="M315.3,70.6c6.8-1.1,14.7-3.8,28.4-14s21.5-19.3,20.4-26.1c-7.9,7.9-14.7,7.9-20.4,9.1s-13,4.5-9.6,15.9
			c0,0-2.3-1.1-3.4-3.4c-2.8,5.1-1.7,9.6-6.8,12.5"/>
		<path class="st3" d="M327.7,71.4c4.2,0.3,9.8,0,13.1-2c-2.3-1.1-2.9-3.1-2.9-4.8c1.1,0,8.6,1.2,12.5,0c4.5-1.3,9.5-5.2,11.2-11.9
			c0.7-2.5,0.8-3.9,0.9-5.1"/>
	</g>
</g>
<g>
	<g>
		<circle class="st1" cx="174.3" cy="50.5" r="49.3"/>
	</g>
	<g>
		<polyline class="st4" points="187.5,53.9 187.5,47.7 187.5,44.2 187.5,38 		"/>
		<polyline class="st4" points="187.5,59.1 187.5,65.3 187.5,68.8 187.5,75.9 		"/>
		<line class="st4" x1="187.5" y1="32.7" x2="187.5" y2="28.3"/>
		<polyline class="st4" points="177.8,75.9 177.8,70.6 177.8,70.6 177.8,69.7 		"/>
		<polyline class="st4" points="177.8,48.6 177.8,54.7 177.8,58.3 177.8,64.4 		"/>
		<line class="st4" x1="177.8" y1="43.3" x2="177.8" y2="28.3"/>
		<polyline class="st4" points="168.1,53.9 168.1,47.7 168.1,44.2 168.1,38 		"/>
		<polyline class="st4" points="168.1,59.1 168.1,65.3 168.1,68.8 168.1,75.9 		"/>
		<line class="st4" x1="168.1" y1="32.7" x2="168.1" y2="28.3"/>
		<polyline class="st4" points="158.4,69.7 158.4,70.6 158.4,70.6 158.4,75.9 		"/>
		<polyline class="st4" points="158.4,64.4 158.4,58.3 158.4,54.7 158.4,48.6 		"/>
		<line class="st4" x1="158.4" y1="43.3" x2="158.4" y2="28.3"/>
		<path class="st4" d="M190.2,69.3c2.5-1,2.4-2.2,6.2-2.2"/>
		<path class="st4" d="M184.9,69.3c-1.7-0.7-2.7-1-4.4-1.7c-0.7-0.3-1.6-0.5-2.6-0.5h0c-1.1,0-1.9,0.2-2.6,0.4
			c-1.7,0.7-2.7,1.1-4.4,1.7"/>
		<path class="st4" d="M148.7,69.7c3.8,0,4.6-1.2,7.1-2.2c0.7-0.3,1.6-0.5,2.6-0.5c1.1,0,1.9,0.2,2.6,0.5c1.7,0.7,2.7,1,4.4,1.7"/>
		<path class="st4" d="M148.7,56.5c3.8,0,4.6,1.2,7.1,2.2"/>
		<path class="st4" d="M175.2,58.7c-1.7-0.7-2.7-1.1-4.4-1.7c-0.7-0.3-1.6-0.4-2.6-0.4h0c-1.1,0-1.9,0.2-2.6,0.5
			c-1.7,0.7-2.7,1.1-4.4,1.7"/>
		<path class="st4" d="M180.5,58.7c1.7-0.7,2.7-1,4.4-1.7c0.7-0.3,1.6-0.5,2.6-0.5s1.9,0.2,2.6,0.5c2.5,1,2.4,2.2,6.2,2.2"/>
		<path class="st4" d="M190.2,48.1c2.5-1,2.4-2.2,6.2-2.2"/>
		<path class="st4" d="M184.9,48.1c-1.7-0.7-2.7-1-4.4-1.7c-0.7-0.3-1.6-0.5-2.6-0.5h0c-1.1,0-1.9,0.2-2.6,0.4
			c-1.7,0.7-2.7,1.1-4.4,1.7"/>
		<path class="st4" d="M148.7,48.6c3.8,0,4.6-1.2,7.1-2.2c0.7-0.3,1.6-0.5,2.6-0.5c1.1,0,1.9,0.2,2.6,0.5c1.7,0.7,2.7,1,4.4,1.7"/>
		<path class="st4" d="M148.7,35.3c3.8,0,4.6,1.2,7.1,2.2"/>
		<path class="st4" d="M175.2,37.5c-1.7-0.7-2.7-1.1-4.4-1.7c-0.7-0.3-1.6-0.4-2.6-0.4h0c-1.1,0-1.9,0.2-2.6,0.5
			c-1.7,0.7-2.7,1.1-4.4,1.7"/>
		<path class="st4" d="M180.5,37.5c1.7-0.7,2.7-1,4.4-1.7c0.7-0.3,1.6-0.5,2.6-0.5s1.9,0.2,2.6,0.5c2.5,1,2.4,2.2,6.2,2.2"/>
	</g>
	<g>
		<path d="M167.9,3c1.3-0.1,2.5,0.2,3.5,1.1c1,0.8,1.6,2,1.7,3.3c0.1,1.4-0.2,2.6-1,3.6c-0.8,1-1.9,1.6-3.2,1.7l-4,0.4l-1-9.8
			L167.9,3z M168.7,10.3c0.7-0.1,1.2-0.3,1.6-0.8c0.4-0.5,0.5-1.1,0.5-1.9c-0.1-0.7-0.3-1.3-0.8-1.7c-0.5-0.4-1-0.6-1.7-0.5
			l-1.4,0.1l0.5,4.9L168.7,10.3z"/>
		<path d="M181,12.5c-0.8,0.5-1.8,0.7-2.9,0.6s-2-0.6-2.6-1.3c-0.6-0.7-0.9-1.6-0.8-2.6l0.9-6.5L178,3l-0.8,6.3
			c-0.1,0.8,0.3,1.3,1.2,1.4c0.9,0.1,1.4-0.2,1.5-1l0.8-6.3l2.5,0.3l-0.9,6.5C182.2,11.2,181.8,12,181,12.5z"/>
		<path d="M187.8,15.4l-0.5-3.6l-0.8-0.3l-1.1,3l-2.4-0.9l3.4-9.2l3.7,1.4c0.9,0.3,1.6,0.9,2,1.8c0.4,0.8,0.5,1.7,0.1,2.6
			c-0.2,0.6-0.5,1-1,1.4c-0.4,0.4-1,0.6-1.5,0.7l0.6,4.1L187.8,15.4z M188,7.5l-0.8,2.1l1.3,0.5c0.3,0.1,0.6,0.1,0.8,0
			c0.3-0.1,0.4-0.3,0.6-0.6c0.1-0.3,0.1-0.6,0-0.9s-0.3-0.4-0.6-0.5L188,7.5z"/>
		<path d="M196,20l0.4-1.4l-2.8-1.8l-1.1,1l-2.3-1.5l8-6.5l2.6,1.7l-2.6,10L196,20z M195.3,15.3l1.7,1.1l1-3.3L195.3,15.3z"/>
		<path d="M206.3,22.6c0.2,0.9,0,1.7-0.7,2.4c-0.6,0.6-1.3,0.9-2.1,0.8s-1.5-0.4-2.2-1.2l-2.9-3l7-6.9l2.7,2.8
			c0.7,0.7,1.1,1.4,1.1,2.2c0.1,0.8-0.2,1.5-0.8,2.1C207.7,22.5,207.1,22.7,206.3,22.6z M202.8,23.1c0.2,0.2,0.4,0.3,0.6,0.3
			s0.4-0.1,0.6-0.2c0.2-0.2,0.3-0.4,0.3-0.6c0-0.2-0.1-0.4-0.3-0.6l-1.1-1.1l-1.2,1.2L202.8,23.1z M206.4,19.2l-0.9-0.9l-1.1,1.1
			l0.9,0.9c0.2,0.2,0.3,0.2,0.5,0.3c0.2,0,0.4-0.1,0.6-0.2c0.2-0.2,0.2-0.3,0.2-0.6C206.7,19.5,206.6,19.3,206.4,19.2z"/>
		<path d="M207.3,28.4l1.9,2.8l-2,1.3l-3.3-4.9l8.2-5.4l1.4,2.1L207.3,28.4z"/>
		<path d="M210.6,34.5l1.5,3.5l-2.2,0.9l-2.5-5.8l9-3.9l2.5,5.7l-2.1,0.9l-1.5-3.4L214,33l1.3,3.1l-2.1,0.9l-1.3-3.1L210.6,34.5z"/>
		<path d="M221.9,51.7l-9.8,0.9l-0.2-2.5l5.3-0.5l-4.1-2l0-0.3l3.7-2.7l-5.2,0.5l-0.2-2.5l9.8-0.9l0.2,2.5l-3.9,2.9l4.4,2.1
			L221.9,51.7z"/>
		<path d="M211,59.8l1.5-0.2l0.5-3.3l-1.3-0.6l0.4-2.7l9.2,4.7l-0.5,3.1l-10.2,1.6L211,59.8z M215,57.2l-0.3,1.9l3.4-0.4L215,57.2z"
			/>
		<path d="M217.3,71.7l-2.3-0.8l0.8-2.3L209,66l0.9-2.3l6.9,2.6l0.8-2.3l2.3,0.8L217.3,71.7z"/>
		<path d="M208.5,72.2l-2,3.2l-2-1.2l3.3-5.4l8.4,5.1l-3.2,5.3l-2-1.2l1.9-3.2l-1.2-0.7L210,77l-2-1.2l1.7-2.9L208.5,72.2z"/>
		<path d="M200.6,78.7l3.5,0.9l0.6-0.7l-2.3-2.1l1.7-1.8l7.2,6.6l-2.6,2.9c-0.7,0.7-1.5,1.1-2.4,1.2s-1.8-0.2-2.5-0.9
			c-0.4-0.4-0.7-0.9-0.9-1.4c-0.2-0.6-0.2-1.1,0-1.7l-4-1L200.6,78.7z M207.9,81.8l-1.6-1.5l-0.9,1c-0.2,0.2-0.3,0.5-0.3,0.8
			c0,0.3,0.1,0.5,0.4,0.8c0.2,0.2,0.5,0.3,0.8,0.3c0.3,0,0.5-0.1,0.7-0.3L207.9,81.8z"/>
		<path d="M204.3,88.6l-2,1.6l-6.1-7.7l2-1.6L204.3,88.6z"/>
		<path d="M189.9,86.4l1.1,1l2.9-1.6l-0.3-1.4L196,83l2,10.1l-2.8,1.5l-7.6-7L189.9,86.4z M194.4,88l-1.7,1l2.5,2.4L194.4,88z"/>
		<path d="M185.5,90.7l-3.2,1l-0.7-2.3l5.6-1.8l2.9,9.3l-2.4,0.8L185.5,90.7z"/>
		<path d="M177.6,89.7c1-0.1,1.9,0,2.6,0.3c0.7,0.4,1.3,0.9,1.6,1.6l-2,1.5c-0.5-0.8-1.2-1.2-2.1-1.1c-0.8,0.1-1.1,0.4-1.1,0.8
			c0,0.3,0.3,0.5,0.7,0.6c0.2,0.1,0.6,0.1,1.3,0.2c0.9,0.2,1.7,0.4,2.2,0.8c0.6,0.4,0.9,1,1,1.9c0.1,0.9-0.1,1.7-0.7,2.3
			c-0.6,0.6-1.3,1-2.3,1.1c-0.8,0.1-1.6,0-2.2-0.3c-0.7-0.3-1.2-0.8-1.6-1.5l1.9-1.5c0.4,0.7,0.9,1,1.6,0.9c0.3,0,0.5-0.1,0.7-0.3
			s0.2-0.3,0.2-0.5c0-0.2-0.2-0.4-0.4-0.5s-0.7-0.2-1.4-0.4c-0.5-0.1-0.9-0.2-1.2-0.3c-0.3-0.1-0.6-0.2-1-0.4
			c-0.4-0.2-0.7-0.4-0.9-0.8s-0.3-0.7-0.4-1.2c-0.1-1,0.1-1.7,0.7-2.4C175.6,90.2,176.5,89.8,177.6,89.7z"/>
	</g>
	<path class="st5" d="M169.9,93.3c-21.6-2-38.5-20.2-38.5-42.3c0-19.1,12.6-35.2,29.9-40.6"/>
</g>
<g>
	<line class="st6" x1="-714" y1="90.2" x2="-726" y2="102.2"/>
	<line class="st6" x1="-698" y1="34.2" x2="-710" y2="46.2"/>
	<line class="st6" x1="-638" y1="34.2" x2="-650" y2="46.2"/>
	<line class="st6" x1="-574" y1="34.2" x2="-586" y2="46.2"/>
	<line class="st6" x1="-506" y1="34.2" x2="-518" y2="46.2"/>
	<line class="st6" x1="-642" y1="90.2" x2="-654" y2="102.2"/>
	<line class="st6" x1="-570" y1="90.2" x2="-582" y2="102.2"/>
	<line class="st6" x1="-498" y1="90.2" x2="-510" y2="102.2"/>
</g>
<g>
	<line class="st7" x1="-343.2" y1="19.9" x2="-343.2" y2="29.2"/>
	<line class="st7" x1="-337.8" y1="19.9" x2="-337.8" y2="23.8"/>
	<line class="st7" x1="-337.8" y1="28.4" x2="-337.8" y2="34.6"/>
	<line class="st7" x1="-332.4" y1="19.9" x2="-332.4" y2="29.2"/>
	<line class="st7" x1="-340.9" y1="26.1" x2="-334.7" y2="26.1"/>
	<line class="st7" x1="-336.2" y1="31.5" x2="-329.3" y2="31.5"/>
	<line class="st7" x1="-348.6" y1="19.9" x2="-348.6" y2="23.8"/>
	<line class="st7" x1="-348.6" y1="49.3" x2="-348.6" y2="53.2"/>
	<line class="st7" x1="-337.8" y1="49.3" x2="-337.8" y2="53.2"/>
	<line class="st7" x1="-326.9" y1="49.3" x2="-326.9" y2="53.2"/>
	<line class="st7" x1="-348.6" y1="28.4" x2="-348.6" y2="34.6"/>
	<line class="st7" x1="-354.1" y1="26.1" x2="-345.5" y2="26.1"/>
	<line class="st7" x1="-346.3" y1="31.5" x2="-340.1" y2="31.5"/>
	<line class="st7" x1="-326.9" y1="19.9" x2="-326.9" y2="23.8"/>
	<line class="st7" x1="-326.9" y1="28.4" x2="-326.9" y2="34.6"/>
	<line class="st7" x1="-330" y1="26.1" x2="-321.5" y2="26.1"/>
	<line class="st7" x1="-343.2" y1="33.8" x2="-343.2" y2="40"/>
	<line class="st7" x1="-332.4" y1="33.8" x2="-332.4" y2="40.8"/>
	<line class="st7" x1="-340.9" y1="36.9" x2="-334.7" y2="36.9"/>
	<line class="st7" x1="-354.1" y1="36.9" x2="-345.5" y2="36.9"/>
	<line class="st7" x1="-330" y1="36.9" x2="-323.1" y2="36.9"/>
	<line class="st7" x1="-337.8" y1="39.3" x2="-337.8" y2="44.7"/>
	<line class="st7" x1="-335.5" y1="42.4" x2="-329.3" y2="42.4"/>
	<line class="st7" x1="-348.6" y1="39.3" x2="-348.6" y2="44.7"/>
	<line class="st7" x1="-346.3" y1="42.4" x2="-340.1" y2="42.4"/>
	<line class="st7" x1="-326.9" y1="39.3" x2="-326.9" y2="44.7"/>
	<line class="st7" x1="-343.2" y1="44.7" x2="-343.2" y2="53.2"/>
	<line class="st7" x1="-332.4" y1="44.7" x2="-332.4" y2="53.2"/>
	<line class="st7" x1="-340.9" y1="47" x2="-334.7" y2="47"/>
	<line class="st7" x1="-354.1" y1="47" x2="-345.5" y2="47"/>
	<line class="st7" x1="-330" y1="47" x2="-321.5" y2="47"/>
	<line class="st7" x1="-351" y1="31.5" x2="-354.1" y2="31.5"/>
	<line class="st7" x1="-351" y1="42.4" x2="-354.1" y2="42.4"/>
	<line class="st7" x1="-321.5" y1="31.5" x2="-324.6" y2="31.5"/>
	<line class="st7" x1="-321.5" y1="42.4" x2="-324.6" y2="42.4"/>
</g>
<g>
	<path class="st1" d="M4.6,29.1c0,0,0.5-0.8,1.4-0.8l6.3,0c0,0,1,0,1.4,0.8l3.2,5.5c0,0,0.5,0.8,0,1.7l-3.1,5.5c0,0-0.5,0.8-1.4,0.8
		l-6.3,0c0,0-1,0-1.4-0.8l-3.2-5.5c0,0-0.5-0.8,0-1.7L4.6,29.1L4.6,29.1z"/>
	<path class="st8" d="M5.7,30.4c0,0,0.4-0.6,1.1-0.6l4.8,0c0,0,0.7,0,1.1,0.6l2.4,4.1c0,0,0.4,0.6,0,1.3l-2.4,4.1
		c0,0-0.4,0.6-1.1,0.6l-4.8,0c0,0-0.7,0-1.1-0.6l-2.4-4.1c0,0-0.4-0.6,0-1.3L5.7,30.4L5.7,30.4z"/>
	<path class="st8" d="M37.6,57.4h-4.3c-0.2,0-0.5-0.2-0.5-0.4V37.4c0-0.2,0.2-0.4,0.5-0.4l4.3-0.5c0.3,0,0.4,0.2,0.4,0.4V57
		C38,57.2,37.8,57.4,37.6,57.4L37.6,57.4z"/>
	<path class="st8" d="M56.6,40.6h-8.5v5.6h7.6c0.2,0,0.4,0.2,0.4,0.4v2.9c0,0.3-0.2,0.4-0.4,0.4h-7.6v7c0,0.3-0.2,0.4-0.5,0.4h-4.2
		c-0.3,0-0.5-0.2-0.5-0.4V37.3c0-0.3,0.2-0.4,0.5-0.4h13.2c0.3,0,0.4,0.2,0.4,0.4v2.9C57.1,40.4,56.9,40.6,56.6,40.6L56.6,40.6z"/>
	<path class="st8" d="M66.8,57.7c-3.9,0-7-0.9-7.5-1.1c-0.3-0.1-0.6-0.3-0.5-0.9l0.4-2.2c0.1-0.4,0.4-0.6,0.8-0.4
		c0.6,0.1,3.5,0.9,5.9,0.9c2.1,0,3.6-0.5,3.6-2.4c0-2-1.9-2.2-4.2-2.6c-2.8-0.4-6.7-1.3-6.7-6.1c0-5,3.4-6.5,8.1-6.5
		c3.3,0,6.1,0.8,6.7,0.9c0.4,0.1,0.7,0.3,0.6,0.8l-0.4,2.3c-0.1,0.3-0.2,0.5-0.7,0.4c-1.9-0.4-3.7-0.8-5.6-0.8
		c-1.8,0-3.5,0.3-3.5,2.3c0,1.9,2,2.1,4.3,2.5c3.2,0.5,6.7,1.2,6.7,6.5C74.9,56.1,71,57.7,66.8,57.7L66.8,57.7z"/>
	<path class="st8" d="M33.5,67.8h-0.6c-0.1,0-0.1,0-0.1-0.1v-4.8c0-0.1,0-0.1,0.1-0.1l0.6-0.1c0.1,0,0.1,0,0.1,0.1v4.8
		C33.6,67.7,33.5,67.8,33.5,67.8L33.5,67.8z"/>
	<path class="st8" d="M37.7,67.8h-0.6c-0.1,0-0.1,0-0.1-0.1v-2.4c0-0.4-0.2-0.5-0.5-0.5c-0.4,0-0.9,0.1-1,0.1v2.8
		c0,0.1,0,0.1-0.1,0.1h-0.6c-0.1,0-0.1,0-0.1-0.1v-2.8c0-0.3,0.1-0.4,0.4-0.5c0.3-0.1,0.9-0.2,1.4-0.2c0.8,0,1.2,0.2,1.2,1v2.5
		C37.8,67.7,37.8,67.8,37.7,67.8L37.7,67.8z"/>
	<path class="st8" d="M40.7,67.6c0,0.1,0,0.1-0.1,0.1c-0.1,0-0.4,0.1-0.8,0.1c-0.7,0-1.1-0.3-1.1-1v-3.5c0-0.1,0-0.1,0.1-0.1
		l0.5-0.1c0.1,0,0.1,0,0.1,0.1v1.1h1c0.1,0,0.1,0,0.1,0.1v0.4c0,0.1,0,0.1-0.1,0.1h-1v2c0,0.3,0.1,0.4,0.5,0.4c0.2,0,0.4,0,0.5-0.1
		c0.1,0,0.1,0,0.1,0.1L40.7,67.6L40.7,67.6z"/>
	<path class="st8" d="M44.4,66.3c0,0.1,0,0.1-0.1,0.1H42c0,0.3,0.1,0.5,0.2,0.7c0.2,0.2,0.5,0.2,0.9,0.2c0.4,0,0.7-0.1,1-0.2
		c0,0,0,0,0,0c0,0,0.1,0,0.1,0.1l0.1,0.3c0,0,0,0,0,0c0,0,0,0.1-0.1,0.1c-0.2,0.1-0.7,0.2-1.2,0.2c-1.3,0-1.8-0.6-1.8-1.8
		c0-1.2,0.3-1.9,1.6-1.9c0.7,0,1.1,0.2,1.3,0.5c0.2,0.3,0.3,0.7,0.3,1.2C44.4,66,44.4,66.2,44.4,66.3L44.4,66.3z M43.6,65.2
		c-0.1-0.4-0.3-0.5-0.8-0.5c-0.5,0-0.7,0.1-0.8,0.5C42,65.4,42,65.6,42,65.9h1.7C43.7,65.6,43.7,65.4,43.6,65.2L43.6,65.2z"/>
	<path class="st8" d="M45.3,64.8c0-0.3,0.1-0.4,0.4-0.5c0.3-0.1,0.8-0.2,1.3-0.2c0.1,0,0.2,0,0.2,0.1v0.4c0,0.1,0,0.1-0.1,0.1
		c-0.4,0-0.8,0-1,0.1v2.8c0,0.1,0,0.1-0.1,0.1h-0.6c-0.1,0-0.1,0-0.1-0.1V64.8L45.3,64.8z"/>
	<path class="st8" d="M50.7,67.8h-0.6c-0.1,0-0.1,0-0.1-0.1v-2.4c0-0.4-0.2-0.5-0.5-0.5c-0.4,0-0.9,0.1-1,0.1v2.8
		c0,0.1,0,0.1-0.1,0.1h-0.6c-0.1,0-0.1,0-0.1-0.1v-2.8c0-0.3,0.1-0.4,0.4-0.5c0.3-0.1,0.9-0.2,1.4-0.2c0.8,0,1.2,0.2,1.2,1v2.5
		C50.8,67.7,50.8,67.8,50.7,67.8L50.7,67.8z"/>
	<path class="st8" d="M54.1,67.8c-0.2,0.1-0.5,0.1-0.9,0.1c-0.7,0-1.6-0.1-1.6-1.1c0-0.9,0.5-1,1.1-1.1l1.2-0.2v-0.2
		c0-0.2,0-0.3-0.2-0.4c-0.1,0-0.3-0.1-0.5-0.1c-0.5,0-0.9,0.1-1.2,0.2c0,0,0,0,0,0c0,0-0.1,0-0.1-0.1l-0.1-0.4c0-0.1,0-0.1,0.1-0.1
		c0.2-0.1,0.8-0.2,1.4-0.2c0.5,0,0.8,0.1,1,0.2c0.3,0.2,0.4,0.5,0.4,0.9v1.9C54.7,67.5,54.5,67.6,54.1,67.8L54.1,67.8z M53.9,66
		l-1,0.2c-0.3,0-0.5,0.1-0.5,0.5c0,0.6,0.5,0.6,0.8,0.6c0.3,0,0.5,0,0.7-0.1V66L53.9,66z"/>
	<path class="st8" d="M57.7,67.6c0,0.1,0,0.1-0.1,0.1c-0.1,0-0.4,0.1-0.8,0.1c-0.7,0-1.1-0.3-1.1-1v-3.5c0-0.1,0-0.1,0.1-0.1
		l0.5-0.1c0.1,0,0.1,0,0.1,0.1v1.1h1c0.1,0,0.1,0,0.1,0.1v0.4c0,0.1,0,0.1-0.1,0.1h-1v2c0,0.3,0.1,0.4,0.5,0.4c0.2,0,0.4,0,0.5-0.1
		c0.1,0,0.1,0,0.1,0.1L57.7,67.6L57.7,67.6z"/>
	<path class="st8" d="M59,63.7h-0.5c-0.1,0-0.1,0-0.1-0.1v-0.7c0-0.1,0.1-0.1,0.1-0.1H59c0.1,0,0.1,0,0.1,0.1v0.7
		C59.2,63.7,59.1,63.7,59,63.7L59,63.7z M59.1,67.8h-0.5c-0.1,0-0.1,0-0.1-0.1v-3.3c0-0.1,0-0.1,0.1-0.1h0.5c0.1,0,0.1,0,0.1,0.1
		v3.3C59.2,67.7,59.1,67.8,59.1,67.8L59.1,67.8z"/>
	<path class="st8" d="M61.7,67.9c-1.5,0-1.6-0.8-1.6-1.8c0-1,0.2-1.8,1.6-1.8c1.5,0,1.6,0.8,1.6,1.8C63.3,67,63.2,67.9,61.7,67.9
		L61.7,67.9z M61.7,64.7c-0.8,0-0.9,0.5-0.9,1.3c0,0.8,0,1.3,0.9,1.3c0.8,0,0.8-0.5,0.8-1.3C62.6,65.2,62.5,64.7,61.7,64.7
		L61.7,64.7z"/>
	<path class="st8" d="M67.1,67.8h-0.6c-0.1,0-0.1,0-0.1-0.1v-2.4c0-0.4-0.2-0.5-0.5-0.5c-0.4,0-0.9,0.1-1,0.1v2.8
		c0,0.1,0,0.1-0.1,0.1h-0.6c-0.1,0-0.1,0-0.1-0.1v-2.8c0-0.3,0.1-0.4,0.4-0.5c0.3-0.1,0.9-0.2,1.4-0.2c0.8,0,1.2,0.2,1.2,1v2.5
		C67.2,67.7,67.2,67.8,67.1,67.8L67.1,67.8z"/>
	<path class="st8" d="M70.5,67.8c-0.2,0.1-0.5,0.1-0.9,0.1c-0.7,0-1.6-0.1-1.6-1.1c0-0.9,0.5-1,1.1-1.1l1.2-0.2v-0.2
		c0-0.2,0-0.3-0.2-0.4c-0.1,0-0.3-0.1-0.5-0.1c-0.5,0-0.9,0.1-1.2,0.2c0,0,0,0,0,0c0,0-0.1,0-0.1-0.1l-0.1-0.4c0-0.1,0-0.1,0.1-0.1
		c0.2-0.1,0.8-0.2,1.4-0.2c0.5,0,0.8,0.1,1,0.2c0.3,0.2,0.4,0.5,0.4,0.9v1.9C71.1,67.5,70.9,67.6,70.5,67.8L70.5,67.8z M70.3,66
		l-1,0.2c-0.3,0-0.5,0.1-0.5,0.5c0,0.6,0.5,0.6,0.8,0.6c0.3,0,0.5,0,0.7-0.1V66L70.3,66z"/>
	<path class="st8" d="M73.5,67.6c0,0,0,0.1-0.1,0.1c-0.1,0-0.3,0.1-0.6,0.1c-0.5,0-0.8-0.3-0.8-0.8v-4.1c0-0.1,0-0.1,0.1-0.1
		l0.5-0.1h0c0.1,0,0.1,0,0.1,0.1V67c0,0.2,0.1,0.3,0.3,0.3c0.1,0,0.2,0,0.2,0c0,0,0.1,0,0.1,0.1L73.5,67.6L73.5,67.6z"/>
	<path class="st8" d="M35.9,71.5h-2.3v1.7h2.1c0.1,0,0.1,0,0.1,0.1v0.5c0,0.1,0,0.1-0.1,0.1h-2.1v1.8c0,0.1-0.1,0.1-0.1,0.1h-0.6
		c-0.1,0-0.1,0-0.1-0.1V71c0-0.1,0.1-0.1,0.1-0.1h3c0.1,0,0.1,0,0.1,0.1v0.4C36,71.5,35.9,71.5,35.9,71.5L35.9,71.5z"/>
	<path class="st8" d="M39.7,74.3c0,0.1,0,0.1-0.1,0.1h-2.3c0,0.3,0.1,0.5,0.2,0.7c0.2,0.2,0.5,0.2,0.9,0.2c0.4,0,0.7-0.1,1-0.2
		c0,0,0,0,0,0c0,0,0.1,0,0.1,0.1l0.1,0.3c0,0,0,0,0,0c0,0,0,0.1-0.1,0.1c-0.2,0.1-0.7,0.2-1.2,0.2c-1.3,0-1.8-0.6-1.8-1.8
		c0-1.2,0.3-1.9,1.6-1.9c0.7,0,1.1,0.2,1.3,0.5c0.2,0.3,0.3,0.7,0.3,1.2C39.7,74.1,39.7,74.2,39.7,74.3L39.7,74.3z M38.9,73.3
		c-0.1-0.4-0.3-0.5-0.8-0.5c-0.5,0-0.7,0.1-0.8,0.5c-0.1,0.2-0.1,0.4-0.1,0.6h1.7C38.9,73.7,38.9,73.5,38.9,73.3L38.9,73.3z"/>
	<path class="st8" d="M42.8,75.8c-0.2,0.1-0.5,0.1-0.9,0.1c-0.7,0-1.6-0.1-1.6-1.1c0-0.9,0.5-1,1.1-1.1l1.2-0.2v-0.2
		c0-0.2,0-0.3-0.2-0.4c-0.1,0-0.3-0.1-0.5-0.1c-0.5,0-0.9,0.1-1.2,0.2c0,0,0,0,0,0c0,0-0.1,0-0.1-0.1l-0.1-0.4c0-0.1,0-0.1,0.1-0.1
		c0.2-0.1,0.8-0.2,1.4-0.2c0.5,0,0.8,0.1,1,0.2c0.3,0.2,0.4,0.5,0.4,0.9v1.9C43.4,75.6,43.3,75.7,42.8,75.8L42.8,75.8z M42.7,74
		l-1,0.2c-0.3,0-0.5,0.1-0.5,0.5c0,0.6,0.5,0.6,0.8,0.6c0.3,0,0.5,0,0.7-0.1V74L42.7,74z"/>
	<path class="st8" d="M46.4,75.6c0,0.1,0,0.1-0.1,0.1c-0.1,0-0.4,0.1-0.8,0.1c-0.7,0-1.1-0.3-1.1-1v-3.5c0-0.1,0-0.1,0.1-0.1
		l0.5-0.1c0.1,0,0.1,0,0.1,0.1v1.1h1c0.1,0,0.1,0,0.1,0.1v0.4c0,0.1,0,0.1-0.1,0.1h-1v2c0,0.3,0.1,0.4,0.5,0.4c0.2,0,0.4,0,0.5-0.1
		c0.1,0,0.1,0,0.1,0.1L46.4,75.6L46.4,75.6z"/>
	<path class="st8" d="M48.7,75.9c-1.1,0-1.5-0.4-1.5-1.3v-2.1c0-0.1,0-0.1,0.1-0.1l0.5-0.1c0.1,0,0.1,0,0.1,0.1v2.3
		c0,0.5,0.2,0.7,0.8,0.7c0.7,0,0.8-0.3,0.8-0.8v-2.2c0-0.1,0-0.1,0.1-0.1l0.5-0.1c0.1,0,0.1,0,0.1,0.1v2.3
		C50.2,75.3,49.9,75.9,48.7,75.9L48.7,75.9z"/>
	<path class="st8" d="M51.1,72.9c0-0.3,0.1-0.4,0.4-0.5c0.3-0.1,0.8-0.2,1.3-0.2c0.1,0,0.2,0,0.2,0.1v0.4c0,0.1,0,0.1-0.1,0.1
		c-0.4,0-0.8,0-1,0.1v2.8c0,0.1,0,0.1-0.1,0.1h-0.6c-0.1,0-0.1,0-0.1-0.1V72.9L51.1,72.9z"/>
	<path class="st8" d="M56.6,74.3c0,0.1,0,0.1-0.1,0.1h-2.3c0,0.3,0.1,0.5,0.2,0.7c0.2,0.2,0.5,0.2,0.9,0.2c0.4,0,0.7-0.1,1-0.2
		c0,0,0,0,0,0c0,0,0.1,0,0.1,0.1l0.1,0.3c0,0,0,0,0,0c0,0,0,0.1-0.1,0.1c-0.2,0.1-0.7,0.2-1.2,0.2c-1.3,0-1.8-0.6-1.8-1.8
		c0-1.2,0.3-1.9,1.6-1.9c0.7,0,1.1,0.2,1.3,0.5c0.2,0.3,0.3,0.7,0.3,1.2C56.6,74.1,56.6,74.2,56.6,74.3L56.6,74.3z M55.8,73.3
		c-0.1-0.4-0.3-0.5-0.8-0.5c-0.5,0-0.7,0.1-0.8,0.5c-0.1,0.2-0.1,0.4-0.1,0.6h1.7C55.9,73.7,55.8,73.5,55.8,73.3L55.8,73.3z"/>
	<path class="st8" d="M60,75.8c-0.3,0.1-0.6,0.1-1.1,0.1c-1.3,0-1.7-0.5-1.7-1.8c0-1.2,0.3-1.9,1.5-1.9c0.5,0,0.8,0.1,1,0.1
		l-0.1-0.4V71c0-0.1,0-0.1,0.1-0.1l0.5-0.1c0.1,0,0.1,0,0.1,0.1v4.4C60.5,75.4,60.4,75.6,60,75.8L60,75.8z M59.7,72.8
		c-0.1,0-0.4-0.1-0.7-0.1c-0.6,0-0.9,0.2-0.9,1.3c0,1.2,0.3,1.3,0.9,1.3c0.3,0,0.7-0.1,0.7-0.1V72.8L59.7,72.8z"/>
	<path class="st8" d="M65.1,75.9c-0.8,0-1.5-0.2-1.6-0.2c-0.1,0-0.1-0.1-0.1-0.1c0,0,0,0,0,0l0.1-0.4c0-0.1,0.1-0.1,0.1-0.1
		c0,0,0,0,0.1,0c0.1,0,0.8,0.2,1.5,0.2c0.6,0,1.1-0.2,1.1-0.8c0-0.6-0.5-0.7-1.2-0.8c-0.7-0.1-1.7-0.3-1.7-1.4
		c0-1.2,0.9-1.4,1.9-1.4c0.8,0,1.4,0.2,1.6,0.2c0.1,0,0.1,0.1,0.1,0.2l-0.1,0.4c0,0-0.1,0.1-0.1,0.1c-0.2-0.1-0.8-0.2-1.4-0.2
		c-0.5,0-1.1,0.1-1.1,0.7c0,0.6,0.6,0.7,1.2,0.8c0.8,0.1,1.7,0.2,1.7,1.4C67,75.6,66,75.9,65.1,75.9L65.1,75.9z"/>
	<path class="st8" d="M69.9,75.6c0,0.1,0,0.1-0.1,0.1c-0.1,0-0.4,0.1-0.8,0.1c-0.7,0-1.1-0.3-1.1-1v-3.5c0-0.1,0-0.1,0.1-0.1
		l0.5-0.1c0.1,0,0.1,0,0.1,0.1v1.1h1c0.1,0,0.1,0,0.1,0.1v0.4c0,0.1,0,0.1-0.1,0.1h-1v2c0,0.3,0.1,0.4,0.5,0.4c0.2,0,0.4,0,0.5-0.1
		c0.1,0,0.1,0,0.1,0.1L69.9,75.6L69.9,75.6z"/>
	<path class="st8" d="M72.9,75.8c-0.2,0.1-0.5,0.1-0.9,0.1c-0.7,0-1.6-0.1-1.6-1.1c0-0.9,0.5-1,1.1-1.1l1.2-0.2v-0.2
		c0-0.2,0-0.3-0.2-0.4c-0.1,0-0.3-0.1-0.5-0.1c-0.5,0-0.9,0.1-1.2,0.2c0,0,0,0,0,0c0,0-0.1,0-0.1-0.1l-0.1-0.4c0-0.1,0-0.1,0.1-0.1
		c0.2-0.1,0.8-0.2,1.4-0.2c0.5,0,0.8,0.1,1,0.2c0.3,0.2,0.4,0.5,0.4,0.9v1.9C73.5,75.6,73.3,75.7,72.9,75.8L72.9,75.8z M72.7,74
		l-1,0.2c-0.3,0-0.5,0.1-0.5,0.5c0,0.6,0.5,0.6,0.8,0.6c0.3,0,0.5,0,0.7-0.1V74L72.7,74z"/>
	<path class="st8" d="M77.4,75.8h-0.6c-0.1,0-0.1,0-0.1-0.1v-2.4c0-0.4-0.2-0.5-0.5-0.5c-0.4,0-0.9,0.1-1,0.1v2.8
		c0,0.1,0,0.1-0.1,0.1h-0.6c-0.1,0-0.1,0-0.1-0.1v-2.8c0-0.3,0.1-0.4,0.4-0.5c0.3-0.1,0.9-0.2,1.4-0.2c0.8,0,1.2,0.2,1.2,1v2.5
		C77.5,75.8,77.4,75.8,77.4,75.8L77.4,75.8z"/>
	<path class="st8" d="M81,75.8c-0.3,0.1-0.6,0.1-1.1,0.1c-1.3,0-1.7-0.5-1.7-1.8c0-1.2,0.3-1.9,1.5-1.9c0.5,0,0.8,0.1,1,0.1
		l-0.1-0.4V71c0-0.1,0-0.1,0.1-0.1l0.5-0.1c0.1,0,0.1,0,0.1,0.1v4.4C81.5,75.4,81.4,75.6,81,75.8L81,75.8z M80.7,72.8
		c-0.1,0-0.4-0.1-0.7-0.1c-0.6,0-0.9,0.2-0.9,1.3c0,1.2,0.3,1.3,0.9,1.3c0.3,0,0.7-0.1,0.7-0.1V72.8L80.7,72.8z"/>
	<path class="st8" d="M84.8,75.8c-0.2,0.1-0.5,0.1-0.9,0.1c-0.7,0-1.6-0.1-1.6-1.1c0-0.9,0.5-1,1.1-1.1l1.2-0.2v-0.2
		c0-0.2,0-0.3-0.2-0.4c-0.1,0-0.3-0.1-0.5-0.1c-0.5,0-0.9,0.1-1.2,0.2c0,0,0,0,0,0c0,0-0.1,0-0.1-0.1l-0.1-0.4c0-0.1,0-0.1,0.1-0.1
		c0.2-0.1,0.8-0.2,1.4-0.2c0.5,0,0.8,0.1,1,0.2c0.3,0.2,0.4,0.5,0.4,0.9v1.9C85.3,75.6,85.2,75.7,84.8,75.8L84.8,75.8z M84.6,74
		l-1,0.2c-0.3,0-0.5,0.1-0.5,0.5c0,0.6,0.5,0.6,0.8,0.6c0.3,0,0.5,0,0.7-0.1V74L84.6,74z"/>
	<path class="st8" d="M86.3,72.9c0-0.3,0.1-0.4,0.4-0.5c0.3-0.1,0.8-0.2,1.3-0.2c0.1,0,0.2,0,0.2,0.1v0.4c0,0.1,0,0.1-0.1,0.1
		c-0.4,0-0.8,0-1,0.1v2.8c0,0.1,0,0.1-0.1,0.1h-0.6c-0.1,0-0.1,0-0.1-0.1V72.9L86.3,72.9z"/>
	<path class="st8" d="M91.3,75.8c-0.3,0.1-0.6,0.1-1.1,0.1c-1.3,0-1.7-0.5-1.7-1.8c0-1.2,0.3-1.9,1.5-1.9c0.5,0,0.8,0.1,1,0.1
		L91,71.9V71c0-0.1,0-0.1,0.1-0.1l0.5-0.1c0.1,0,0.1,0,0.1,0.1v4.4C91.7,75.4,91.7,75.6,91.3,75.8L91.3,75.8z M91,72.8
		c-0.1,0-0.4-0.1-0.7-0.1c-0.6,0-0.9,0.2-0.9,1.3c0,1.2,0.3,1.3,0.9,1.3c0.3,0,0.7-0.1,0.7-0.1V72.8L91,72.8z"/>
	<path class="st8" d="M93.8,75.9c-0.6,0-1.1-0.2-1.2-0.2c0,0-0.1,0-0.1-0.1l0.1-0.4c0,0,0-0.1,0.1-0.1c0,0,0,0,0,0
		c0.1,0,0.5,0.2,1,0.2c0.4,0,0.7-0.1,0.7-0.5c0-0.4-0.3-0.4-0.8-0.5c-0.5-0.1-1.2-0.2-1.2-1c0-0.9,0.8-1.1,1.4-1.1
		c0.6,0,1,0.1,1.1,0.1c0.1,0,0.1,0,0.1,0.1l-0.1,0.4c0,0,0,0.1-0.1,0.1c-0.1,0-0.5-0.1-0.9-0.1c-0.4,0-0.7,0.1-0.7,0.5
		c0,0.4,0.4,0.4,0.8,0.5c0.6,0.1,1.2,0.2,1.2,1.1C95.3,75.6,94.6,75.9,93.8,75.9L93.8,75.9z"/>
	<path class="st9" d="M16.2,49.5c0,0,0.4-0.6,1.1-0.6l4.8,0c0,0,0.7,0,1.1,0.6l2.4,4.1c0,0,0.4,0.6,0,1.3L23.2,59
		c0,0-0.4,0.6-1.1,0.6l-4.8,0c0,0-0.7,0-1.1-0.6l-2.4-4.1c0,0-0.4-0.6,0-1.3L16.2,49.5L16.2,49.5z"/>
	<path class="st9" d="M16.2,37c0,0,0.4-0.6,1.1-0.6l4.8,0c0,0,0.7,0,1.1,0.6l2.4,4.1c0,0,0.4,0.6,0,1.3l-2.4,4.1
		c0,0-0.4,0.6-1.1,0.6l-4.8,0c0,0-0.7,0-1.1-0.6l-2.4-4.1c0,0-0.4-0.6,0-1.3L16.2,37L16.2,37z"/>
</g>
<path class="st10" d="M6.9,137.3c-16.8,0-30.5,13.7-30.5,30.5s13.7,30.5,30.5,30.5s30.5-13.7,30.5-30.5S23.7,137.3,6.9,137.3z
	 M6.9,191.2c-5.2,0-9.9-1.7-13.8-4.5l10-10H-7.1l-5,5c-2.8-3.9-4.5-8.6-4.5-13.8c0-12.9,10.5-23.4,23.4-23.4c5.2,0,9.9,1.7,13.8,4.5
	l-10,10h10.1l5-5c2.8,3.9,4.5,8.6,4.5,13.8C30.2,180.8,19.7,191.2,6.9,191.2z"/>
<path class="st11" d="M-52.5,173.5h-60.3v14.1c0,2.2,1.8,4,4,4h38.9C-50.9,191.6-52.5,176.1-52.5,173.5 M-49.1,173.5v-23.1
	c0-3.5-2.9-6.4-6.4-6.4h-54.2c-3.5,0-6.4,2.9-6.4,6.4v23.1v14.8c0,3.5,2.9,6.4,6.4,6.4h38.8c7.7,0,14.2-2.3,17.5-6.4
	C-50.5,184.7-49.1,179.6-49.1,173.5z"/>
<g>
	<g id="XMLID_186_">
		<g id="XMLID_189_">
			<path id="XMLID_190_" class="st12" d="M120.2,176.7c0,0-0.1,0-0.1,0c-0.3-0.1-0.4-0.4-0.3-0.6c2.3-7.4,1.3-15.4-2.8-22
				c-3.7-5.8-9.3-10-16-11.6c-0.3-0.1-0.4-0.3-0.4-0.6c0.1-0.3,0.3-0.4,0.6-0.4c6.9,1.7,12.8,6,16.6,12.1c4.3,6.8,5.3,15.1,2.9,22.8
				C120.6,176.6,120.4,176.7,120.2,176.7z"/>
		</g>
		<g id="XMLID_187_">
			<path id="XMLID_188_" class="st12" d="M68.7,176.5c-0.2,0-0.4-0.1-0.5-0.4c-2.8-9.2-0.5-19.3,6-26.5c0.2-0.2,0.5-0.2,0.7,0
				c0.2,0.2,0.2,0.5,0,0.7c-6.2,6.9-8.4,16.6-5.7,25.5c0.1,0.3-0.1,0.5-0.3,0.6C68.8,176.5,68.7,176.5,68.7,176.5z"/>
		</g>
	</g>
	<g id="XMLID_98_">
		<g id="XMLID_180_">
			<path id="XMLID_184_" class="st13" d="M71.3,177.8c0.1-0.1,0.2-0.1,0.2,0l0.3,0.6c0,0.1,0,0.1,0,0.1l-2,2.5l0,0l3.2-0.2
				c0,0,0.1,0,0.1,0.1l0.3,0.6c0,0.1,0,0.2-0.1,0.2l-5,0.3c0,0-0.1,0-0.1-0.1l0-0.1c0-0.1,0-0.1,0-0.1L71.3,177.8z"/>
			<path id="XMLID_181_" class="st13" d="M68.4,182c-0.1,0-0.1,0-0.1-0.1l0-0.1c0-0.1,0-0.1,0-0.2l3-3.9c0,0,0.1-0.1,0.1-0.1
				c0.1,0,0.1,0,0.1,0.1l0.3,0.6c0,0.1,0,0.1,0,0.2l-1.9,2.5l3.1-0.2c0.1,0,0.1,0,0.2,0.1l0.3,0.6c0,0.1,0,0.1,0,0.2
				c0,0-0.1,0.1-0.1,0.1L68.4,182C68.4,182,68.4,182,68.4,182z M71.4,177.8C71.4,177.8,71.4,177.8,71.4,177.8L71.4,177.8l-3.1,4
				c0,0,0,0.1,0,0.1l0,0.1c0,0,0,0,0.1,0l5-0.3c0,0,0.1,0,0.1,0c0,0,0-0.1,0-0.1l-0.3-0.6c0,0-0.1,0-0.1,0l-3.2,0.2l0-0.1l2-2.5
				c0,0,0-0.1,0-0.1L71.4,177.8C71.5,177.8,71.5,177.8,71.4,177.8C71.4,177.8,71.4,177.8,71.4,177.8z"/>
		</g>
		<g id="XMLID_174_">
			<path id="XMLID_178_" class="st13" d="M74,182.4c0.1,0,0.1,0,0.2,0l1.7,2.2c0,0.1,0,0.1,0,0.2l-0.4,0.3c-0.1,0-0.1,0-0.2,0
				l-1.2-1.6l-0.9,0.7l1,1.3c0,0.1,0,0.1,0,0.2l-0.4,0.3c-0.1,0-0.1,0-0.2,0l-1-1.3l-0.9,0.7l1.2,1.6c0,0.1,0,0.1,0,0.2l-0.4,0.3
				c-0.1,0-0.1,0-0.2,0l-1.7-2.2c0-0.1,0-0.1,0-0.2L74,182.4z"/>
			<path id="XMLID_175_" class="st13" d="M72.2,187.5C72.2,187.5,72.2,187.5,72.2,187.5c-0.1,0-0.1,0-0.1-0.1l-1.7-2.2
				c0,0,0-0.1,0-0.1c0,0,0-0.1,0.1-0.1l3.5-2.7c0,0,0.1,0,0.1,0c0,0,0.1,0,0.1,0.1l1.7,2.2c0.1,0.1,0,0.2,0,0.2l-0.4,0.3
				c-0.1,0.1-0.2,0-0.2,0l-1.2-1.5l-0.8,0.6l1,1.3c0.1,0.1,0,0.2,0,0.2l-0.4,0.3c-0.1,0.1-0.2,0-0.2,0l-1-1.3l-0.9,0.7l1.2,1.5
				c0,0,0,0.1,0,0.1c0,0,0,0.1-0.1,0.1l-0.4,0.3C72.3,187.5,72.3,187.5,72.2,187.5z M74.1,182.4C74,182.4,74,182.4,74.1,182.4
				l-3.6,2.7c0,0,0,0,0,0.1c0,0,0,0,0,0.1l1.7,2.2c0,0,0,0,0.1,0c0,0,0,0,0.1,0l0.4-0.3c0,0,0,0,0-0.1c0,0,0,0,0-0.1l-1.2-1.6l1-0.8
				l1,1.3c0,0,0.1,0.1,0.1,0l0.4-0.3c0,0,0-0.1,0-0.1l-1-1.3l0.9-0.7l1.2,1.6c0,0,0.1,0,0.1,0l0.4-0.3c0,0,0-0.1,0-0.1L74.1,182.4
				C74.1,182.4,74.1,182.4,74.1,182.4C74.1,182.4,74.1,182.4,74.1,182.4z"/>
		</g>
		<g id="XMLID_168_">
			<path id="XMLID_172_" class="st13" d="M78.3,186.9c0.5,0.4,0.7,1,0.8,1.6c0,0.1,0,0.1-0.1,0.1l-0.6,0c-0.1,0-0.1,0-0.1-0.1
				c0-0.4-0.2-0.7-0.5-1c-0.6-0.6-1.6-0.5-2.2,0.2c-0.6,0.6-0.5,1.6,0.1,2.2c0.3,0.3,0.6,0.4,0.7,0.4l0.4-0.4l-0.4-0.4
				c-0.1,0-0.1-0.1,0-0.2l0.4-0.4c0-0.1,0.1-0.1,0.2,0l1,0.9c0.1,0,0,0.1,0,0.2l-1.1,1.3c0,0-0.1,0-0.1,0c0,0-0.8-0.1-1.5-0.8
				c-1-0.9-1.1-2.4-0.2-3.4C75.8,186.1,77.3,186,78.3,186.9z"/>
			<path id="XMLID_169_" class="st13" d="M76.6,191.3C76.6,191.3,76.6,191.3,76.6,191.3c0,0-0.8-0.1-1.6-0.8c-0.5-0.4-0.8-1-0.8-1.7
				c0-0.6,0.2-1.3,0.6-1.8c0.4-0.5,1-0.8,1.7-0.8c0.7,0,1.3,0.2,1.8,0.6l0,0c0.4,0.4,0.7,1,0.8,1.6c0,0,0,0.1,0,0.1
				c0,0-0.1,0.1-0.1,0.1l-0.6,0c-0.1,0-0.2,0-0.2-0.1c0-0.4-0.2-0.7-0.5-0.9c-0.6-0.5-1.5-0.5-2.1,0.2c-0.6,0.6-0.5,1.6,0.1,2.1
				c0.3,0.2,0.5,0.3,0.7,0.4l0.3-0.4l-0.4-0.3c0,0-0.1-0.1-0.1-0.1c0,0,0-0.1,0-0.1l0.4-0.4c0,0,0.1-0.1,0.1-0.1c0,0,0.1,0,0.1,0
				l1,0.9c0,0,0,0.1,0.1,0.1c0,0,0,0.1,0,0.1l-1.1,1.3C76.7,191.3,76.7,191.3,76.6,191.3z M76.7,186.3c0,0-0.1,0-0.1,0
				c-0.6,0-1.2,0.3-1.6,0.8c-0.4,0.5-0.6,1.1-0.6,1.7c0,0.6,0.3,1.2,0.8,1.6c0.7,0.6,1.5,0.8,1.5,0.8c0,0,0.1,0,0.1,0l1.1-1.3
				c0,0,0,0,0-0.1c0,0,0,0,0-0.1l-1-0.9c0,0,0,0-0.1,0c0,0,0,0-0.1,0l-0.4,0.4c0,0,0,0,0,0.1c0,0,0,0,0,0.1l0.4,0.4l-0.4,0.5l0,0
				c-0.1,0-0.4-0.2-0.7-0.4c-0.6-0.6-0.7-1.6-0.1-2.2c0.6-0.7,1.6-0.7,2.2-0.2c0.3,0.3,0.5,0.6,0.5,1c0,0.1,0,0.1,0.1,0.1l0.6,0
				c0,0,0,0,0.1,0c0,0,0,0,0-0.1c-0.1-0.6-0.4-1.1-0.8-1.5l0,0C77.8,186.5,77.3,186.3,76.7,186.3z"/>
		</g>
		<g id="XMLID_159_">
			<path id="XMLID_165_" class="st13" d="M77.7,192.3l4.1-2.8c0,0,0.1,0,0.1,0l0.1,0c0.1,0,0.1,0.1,0.1,0.1l-0.5,4.9
				c0,0.1-0.1,0.1-0.2,0.1l-0.5-0.3c-0.1-0.1-0.1-0.1-0.1-0.2l0.1-0.8l-1.7-1l-0.7,0.5c-0.1,0-0.1,0.1-0.2,0l-0.5-0.3
				C77.6,192.5,77.6,192.3,77.7,192.3z M80.9,192.5l0.2-1.6l0,0l-1.3,0.9L80.9,192.5z"/>
			<path id="XMLID_160_" class="st13" d="M81.4,194.7C81.3,194.7,81.3,194.7,81.4,194.7l-0.6-0.3c-0.1-0.1-0.1-0.1-0.1-0.2l0.1-0.8
				l-1.7-1l-0.6,0.4c-0.1,0.1-0.2,0.1-0.3,0l-0.5-0.3c-0.1,0-0.1-0.1-0.1-0.1c0-0.1,0-0.1,0.1-0.1l4.1-2.8c0.1,0,0.1,0,0.2,0l0.1,0
				c0.1,0,0.1,0.1,0.1,0.2l-0.5,4.9C81.5,194.6,81.5,194.7,81.4,194.7C81.4,194.7,81.4,194.7,81.4,194.7z M79.1,192.3L79.1,192.3
				l1.8,1l-0.1,0.8c0,0.1,0,0.1,0.1,0.2l0.5,0.3c0,0,0.1,0,0.1,0c0,0,0,0,0-0.1l0.5-4.9c0,0,0-0.1,0-0.1l-0.1,0c0,0-0.1,0-0.1,0
				l-4.1,2.8c0,0,0,0,0,0.1c0,0,0,0.1,0,0.1l0.5,0.3c0.1,0.1,0.2,0,0.2,0L79.1,192.3z M80.9,192.6l-1.3-0.7l1.4-1l0.1,0L80.9,192.6z
				 M79.8,191.9l1.1,0.6L81,191L79.8,191.9z"/>
		</g>
		<g id="XMLID_153_">
			<path id="XMLID_157_" class="st13" d="M84.5,191c0-0.1,0.1-0.1,0.2-0.1l0.2,0.1l1.7,3.7l0,0l0.9-2.6c0-0.1,0.1-0.1,0.2-0.1
				l0.6,0.2c0.1,0,0.1,0.1,0.1,0.2l-1.5,4.3c0,0.1-0.1,0.1-0.2,0.1l-0.2-0.1l-1.6-3.8l0,0l-0.9,2.7c0,0.1-0.1,0.1-0.2,0.1l-0.6-0.2
				c-0.1,0-0.1-0.1-0.1-0.2L84.5,191z"/>
			<path id="XMLID_154_" class="st13" d="M86.6,196.8C86.6,196.8,86.6,196.8,86.6,196.8l-0.2-0.1l0,0l-1.6-3.7l-0.9,2.6
				c0,0.1-0.1,0.1-0.2,0.1l-0.6-0.2c-0.1,0-0.1-0.1-0.1-0.2l1.5-4.3c0,0,0-0.1,0.1-0.1c0,0,0.1,0,0.1,0l0.2,0.1l1.6,3.6l0.9-2.5
				c0,0,0-0.1,0.1-0.1c0,0,0.1,0,0.1,0l0.6,0.2c0,0,0.1,0,0.1,0.1c0,0,0,0.1,0,0.1l-1.5,4.3C86.8,196.7,86.8,196.7,86.6,196.8
				C86.7,196.8,86.7,196.8,86.6,196.8z M86.5,196.7l0.1,0c0,0,0,0,0.1,0c0,0,0,0,0,0l1.5-4.3c0,0,0,0,0-0.1c0,0,0,0,0,0l-0.6-0.2
				c0,0,0,0-0.1,0c0,0,0,0,0,0.1l-0.9,2.7l-0.1,0l0,0l-1.7-3.7l-0.1,0c0,0,0,0-0.1,0c0,0,0,0,0,0l-1.5,4.3c0,0,0,0.1,0.1,0.1
				l0.6,0.2c0.1,0,0.1,0,0.1-0.1l1-2.8l0.1,0l0,0L86.5,196.7z"/>
		</g>
		<g id="XMLID_147_">
			<path id="XMLID_151_" class="st13" d="M91.5,193c0-0.1,0.1-0.1,0.1-0.1l2.7,0.2c0.1,0,0.1,0.1,0.1,0.1l0,0.5
				c0,0.1-0.1,0.1-0.1,0.1l-2-0.1l-0.1,1.3l1.7,0.1c0.1,0,0.1,0.1,0.1,0.1l0,0.5c0,0.1-0.1,0.1-0.1,0.1l-1.7-0.1l-0.1,1.7
				c0,0.1-0.1,0.1-0.1,0.1l-0.6,0c-0.1,0-0.1-0.1-0.1-0.1L91.5,193z"/>
			<path id="XMLID_148_" class="st13" d="M92,197.6C92,197.6,92,197.6,92,197.6l-0.6,0c0,0-0.1,0-0.1-0.1c0,0,0-0.1,0-0.1l0.3-4.4
				c0-0.1,0.1-0.2,0.2-0.2l2.7,0.2c0.1,0,0.2,0.1,0.2,0.2l0,0.5c0,0,0,0.1-0.1,0.1c0,0-0.1,0-0.1,0l-1.9-0.1l-0.1,1.2l1.6,0.1
				c0,0,0.1,0,0.1,0.1c0,0,0,0.1,0,0.1l0,0.5c0,0,0,0.1-0.1,0.1c0,0-0.1,0-0.1,0l-1.6-0.1l-0.1,1.7c0,0,0,0.1-0.1,0.1
				C92,197.6,92,197.6,92,197.6z M91.6,193l-0.3,4.4c0,0,0,0,0,0.1c0,0,0,0,0.1,0l0.6,0c0,0,0,0,0.1,0c0,0,0,0,0-0.1l0.1-1.7
				l1.7,0.1c0,0,0,0,0.1,0c0,0,0,0,0-0.1l0-0.5c0,0,0,0,0-0.1c0,0,0,0-0.1,0l-1.7-0.1l0.1-1.3l2,0.1c0,0,0,0,0.1,0c0,0,0,0,0-0.1
				l0-0.5c0,0,0-0.1-0.1-0.1L91.6,193C91.6,192.9,91.6,192.9,91.6,193L91.6,193z"/>
		</g>
		<g id="XMLID_138_">
			<path id="XMLID_144_" class="st13" d="M95.6,193.1c0-0.1,0-0.1,0.1-0.1l1.9-0.2c0.8-0.1,1.5,0.5,1.6,1.3c0.1,0.6-0.3,1.2-0.8,1.5
				l1.1,1.6c0.1,0.1,0,0.2-0.1,0.2l-0.7,0.1c-0.1,0-0.1,0-0.1,0l-1.1-1.7l-0.7,0.1l0.2,1.7c0,0.1,0,0.1-0.1,0.1l-0.6,0.1
				c-0.1,0-0.1,0-0.1-0.1L95.6,193.1z M97.7,194.9c0.4,0,0.6-0.4,0.6-0.8c0-0.4-0.4-0.6-0.7-0.6l-1.1,0.1l0.1,1.3L97.7,194.9z"/>
			<path id="XMLID_139_" class="st13" d="M96.2,197.7c0,0-0.1,0-0.1,0c0,0-0.1-0.1-0.1-0.1l-0.5-4.4c0-0.1,0.1-0.2,0.1-0.2l1.9-0.2
				c0.8-0.1,1.6,0.5,1.6,1.3c0.1,0.6-0.3,1.1-0.8,1.5l1.1,1.6c0,0.1,0,0.1,0,0.2c0,0.1-0.1,0.1-0.1,0.1l-0.7,0.1
				c-0.1,0-0.1,0-0.1-0.1l-1.1-1.7l-0.7,0.1l0.2,1.7c0,0.1-0.1,0.2-0.1,0.2L96.2,197.7C96.2,197.7,96.2,197.7,96.2,197.7z
				 M95.6,193.1l0.5,4.4c0,0,0,0,0,0.1c0,0,0,0,0.1,0l0.6-0.1c0,0,0.1-0.1,0.1-0.1l-0.2-1.7l0.8-0.1l1.1,1.7c0,0,0,0,0.1,0l0.7-0.1
				c0,0,0.1,0,0.1,0c0,0,0-0.1,0-0.1l-1.1-1.6l0,0c0.6-0.3,0.9-0.8,0.8-1.4c-0.1-0.8-0.8-1.3-1.6-1.2L95.6,193.1
				C95.6,193,95.6,193.1,95.6,193.1L95.6,193.1z M96.6,195.1l-0.1-1.4l1.1-0.1c0.4,0,0.7,0.2,0.8,0.6c0,0.4-0.2,0.8-0.6,0.8
				L96.6,195.1z M96.5,193.8l0.1,1.3l1.1-0.1c0.3,0,0.6-0.4,0.6-0.7c0-0.3-0.4-0.6-0.7-0.5L96.5,193.8z"/>
		</g>
		<g id="XMLID_132_">
			<path id="XMLID_136_" class="st13" d="M100.3,192.4c0-0.1,0-0.1,0.1-0.2l0.6-0.2c0.1,0,0.1,0,0.2,0.1l1.1,4.3
				c0,0.1,0,0.1-0.1,0.2l-0.6,0.2c-0.1,0-0.1,0-0.2-0.1L100.3,192.4z"/>
			<path id="XMLID_133_" class="st13" d="M101.5,196.9C101.5,196.9,101.4,196.9,101.5,196.9c-0.1,0-0.2-0.1-0.2-0.1l-1.1-4.3
				c0-0.1,0-0.2,0.1-0.2l0.6-0.2c0,0,0.1,0,0.1,0c0,0,0.1,0.1,0.1,0.1l1.1,4.3c0,0,0,0.1,0,0.1c0,0-0.1,0.1-0.1,0.1L101.5,196.9
				C101.5,196.9,101.5,196.9,101.5,196.9z M101,192.2C101,192.2,101,192.2,101,192.2l-0.6,0.2c0,0-0.1,0.1-0.1,0.1l1.1,4.3
				c0,0,0,0,0,0.1s0,0,0.1,0l0.6-0.2c0,0,0,0,0.1,0c0,0,0,0,0-0.1L101,192.2C101.1,192.2,101.1,192.2,101,192.2
				C101,192.2,101,192.2,101,192.2z"/>
		</g>
		<g id="XMLID_126_">
			<path id="XMLID_130_" class="st13" d="M102.6,191.8c0-0.1,0-0.1,0.1-0.2l2.5-1c0.1,0,0.1,0,0.2,0.1l0.2,0.5c0,0.1,0,0.1-0.1,0.2
				l-1.8,0.7l0.4,1l1.5-0.6c0.1,0,0.1,0,0.2,0.1l0.2,0.5c0,0.1,0,0.1-0.1,0.2l-1.5,0.6l0.4,1.1l1.8-0.7c0.1,0,0.1,0,0.2,0.1l0.2,0.5
				c0,0.1,0,0.1-0.1,0.2l-2.5,1c-0.1,0-0.1,0-0.2-0.1L102.6,191.8z"/>
			<path id="XMLID_127_" class="st13" d="M104.4,196C104.4,196,104.3,196,104.4,196c-0.1,0-0.1-0.1-0.2-0.1l-1.7-4.1
				c0-0.1,0-0.2,0.1-0.2l2.5-1c0.1,0,0.2,0,0.2,0.1l0.2,0.5c0,0.1,0,0.2-0.1,0.2l-1.8,0.7l0.4,1l1.5-0.6c0.1,0,0.2,0,0.2,0.1
				l0.2,0.5c0,0.1,0,0.2-0.1,0.2l-1.5,0.6l0.4,1l1.8-0.7c0,0,0.1,0,0.1,0c0,0,0.1,0,0.1,0.1l0.2,0.5c0,0,0,0.1,0,0.1
				c0,0,0,0.1-0.1,0.1L104.4,196C104.4,196,104.4,196,104.4,196z M105.2,190.6C105.2,190.6,105.2,190.6,105.2,190.6l-2.6,1
				c-0.1,0-0.1,0.1,0,0.1l1.7,4.1c0,0,0,0,0,0c0,0,0,0,0.1,0l2.5-1c0,0,0,0,0,0c0,0,0,0,0-0.1l-0.2-0.5c0,0,0,0,0,0c0,0,0,0-0.1,0
				l-1.9,0.8l-0.5-1.2l1.6-0.6c0,0,0.1-0.1,0-0.1l-0.2-0.5c0,0-0.1-0.1-0.1,0l-1.6,0.6l-0.4-1.1l1.9-0.8c0.1,0,0.1-0.1,0-0.1
				L105.2,190.6C105.3,190.7,105.3,190.6,105.2,190.6z"/>
		</g>
		<g id="XMLID_120_">
			<path id="XMLID_124_" class="st13" d="M106.4,190.1c0-0.1,0-0.1,0-0.2l0.1-0.1l4,1l0,0l-1.5-2.3c0-0.1,0-0.1,0-0.2l0.5-0.3
				c0.1,0,0.1,0,0.2,0l2.5,3.8c0,0.1,0,0.1,0,0.2L112,192l-4-1l0,0l1.6,2.4c0,0.1,0,0.1,0,0.2l-0.5,0.3c-0.1,0-0.1,0-0.2,0
				L106.4,190.1z"/>
			<path id="XMLID_121_" class="st13" d="M109,194C108.9,194,108.9,194,109,194c-0.1,0-0.1,0-0.1-0.1l-2.5-3.8c0,0,0-0.1,0-0.1
				c0,0,0-0.1,0.1-0.1l0.2-0.1l0,0l3.9,0.9l-1.5-2.2c0-0.1,0-0.2,0-0.2l0.5-0.3c0,0,0.1,0,0.1,0c0,0,0.1,0,0.1,0.1l2.5,3.8
				c0,0.1,0,0.2-0.1,0.2l-0.1,0.1l0,0l-3.9-1l1.5,2.3c0,0.1,0,0.2,0,0.2L109,194C109,194,109,194,109,194z M106.6,189.9l-0.1,0.1
				c0,0,0,0,0,0.1c0,0,0,0,0,0.1l2.5,3.8c0,0,0,0,0.1,0c0,0,0,0,0.1,0l0.5-0.3c0,0,0.1-0.1,0-0.1l-1.6-2.4l0,0l0,0l4,1l0.1-0.1
				c0,0,0.1-0.1,0-0.1l-2.5-3.8c0,0,0,0-0.1,0c0,0,0,0-0.1,0l-0.5,0.3c0,0-0.1,0.1,0,0.1l1.5,2.4l0,0l0,0L106.6,189.9z"/>
		</g>
		<g id="XMLID_111_">
			<path id="XMLID_117_" class="st13" d="M110.8,187.1c0,0-0.1-0.1,0-0.2l1.1-1.1c0.9-0.9,2.4-0.9,3.3,0c0.9,0.9,0.9,2.4,0,3.3
				l-1.1,1.1c0,0-0.1,0-0.2,0L110.8,187.1z M114.6,188.6c0.6-0.6,0.6-1.5,0-2.2c-0.6-0.6-1.5-0.6-2.1,0l-0.5,0.5l2.2,2.2
				L114.6,188.6z"/>
			<path id="XMLID_112_" class="st13" d="M114.1,190.3c0,0-0.1,0-0.1,0l-3.1-3.1c0,0,0-0.1,0-0.1c0,0,0-0.1,0-0.1l1.1-1.1
				c0.4-0.5,1-0.7,1.7-0.7c0,0,0,0,0,0c0.6,0,1.2,0.2,1.7,0.7c0.5,0.5,0.7,1.1,0.7,1.7c0,0.6-0.2,1.2-0.7,1.7l-1.1,1.1
				C114.1,190.3,114.1,190.3,114.1,190.3z M110.9,187.1l3.1,3.1c0,0,0.1,0,0.1,0l1.1-1.1c0.4-0.4,0.7-1,0.7-1.6
				c0-0.6-0.2-1.2-0.7-1.6c-0.4-0.4-1-0.7-1.6-0.7c-0.6,0-1.2,0.2-1.6,0.7l-1.1,1.1C110.8,187,110.8,187,110.9,187.1
				C110.8,187,110.8,187,110.9,187.1L110.9,187.1z M114.1,189.2l-2.2-2.2l0.6-0.6c0.6-0.6,1.6-0.6,2.2,0c0.6,0.6,0.6,1.6,0,2.2
				L114.1,189.2z M112,187l2.1,2.1l0.5-0.5c0.6-0.6,0.6-1.5,0-2.1c-0.6-0.6-1.5-0.6-2.1,0L112,187z"/>
		</g>
		<g id="XMLID_105_">
			<path id="XMLID_109_" class="st13" d="M114.4,183.3c-0.1,0-0.1-0.1,0-0.2l0.4-0.5c0-0.1,0.1-0.1,0.2,0l3.1,2.1l1-1.4
				c0-0.1,0.1-0.1,0.2,0l0.5,0.3c0.1,0,0.1,0.1,0,0.2l-1.4,2c0,0.1-0.1,0.1-0.2,0L114.4,183.3z"/>
			<path id="XMLID_106_" class="st13" d="M118.1,185.9C118,185.9,118,185.9,118.1,185.9l-3.7-2.6c0,0-0.1-0.1-0.1-0.1
				c0,0,0-0.1,0-0.1l0.4-0.5c0,0,0.1-0.1,0.1-0.1c0,0,0.1,0,0.1,0l3.1,2.1l1-1.4c0.1-0.1,0.2-0.1,0.2,0l0.5,0.3c0,0,0.1,0.1,0.1,0.1
				c0,0,0,0.1,0,0.1l-1.4,2C118.2,185.8,118.1,185.9,118.1,185.9C118.1,185.9,118.1,185.9,118.1,185.9z M114.8,182.6
				C114.8,182.6,114.8,182.6,114.8,182.6C114.7,182.6,114.7,182.6,114.8,182.6l-0.4,0.5c0,0,0,0,0,0.1c0,0,0,0,0,0.1l3.6,2.5
				c0,0,0,0,0.1,0c0,0,0,0,0.1,0l1.4-2c0,0,0,0,0-0.1c0,0,0,0,0-0.1l-0.5-0.3c0,0-0.1,0-0.1,0l-1,1.4L114.8,182.6
				C114.8,182.6,114.8,182.6,114.8,182.6z"/>
		</g>
		<g id="XMLID_99_">
			<path id="XMLID_103_" class="st13" d="M118.7,180.7l-2.7,0.4c-0.1,0-0.2-0.1-0.1-0.2l0.3-0.6c0,0,0.1-0.1,0.1-0.1l1.9-0.3
				l-0.9-1.6c0,0,0-0.1,0-0.1l0.3-0.6c0-0.1,0.2-0.1,0.2,0l1.3,2.4l1.9,1c0.1,0,0.1,0.1,0.1,0.2l-0.3,0.6c0,0.1-0.1,0.1-0.2,0.1
				L118.7,180.7z"/>
			<path id="XMLID_100_" class="st13" d="M120.6,181.7C120.6,181.7,120.6,181.7,120.6,181.7l-2-1l-2.7,0.4c-0.1,0-0.1,0-0.2-0.1
				c0,0,0-0.1,0-0.2l0.3-0.6c0,0,0.1-0.1,0.1-0.1l1.8-0.3l-0.9-1.6c0-0.1,0-0.1,0-0.2l0.3-0.6c0-0.1,0.1-0.1,0.1-0.1
				c0.1,0,0.1,0,0.1,0.1l1.3,2.4l1.9,0.9c0.1,0,0.1,0.1,0.1,0.2l-0.3,0.6C120.8,181.7,120.7,181.7,120.6,181.7z M118.7,180.7l1.9,1
				c0,0,0.1,0,0.1,0l0.3-0.6c0,0,0-0.1,0-0.1l-1.9-1l0,0l-1.3-2.4c0,0,0,0-0.1,0c0,0-0.1,0-0.1,0.1l-0.3,0.6c0,0,0,0.1,0,0.1
				l0.9,1.7l-1.9,0.3c0,0-0.1,0-0.1,0l-0.3,0.6c0,0,0,0.1,0,0.1c0,0,0.1,0,0.1,0L118.7,180.7z"/>
		</g>
	</g>
	<g id="XMLID_5_">
		<path id="XMLID_97_" class="st13" d="M81.3,131c-0.4,11.8-7.3,17.3-3,34c3.5,13.7,14.1,20.6,18.9,23.1
			c0.2-23.1-12.4-46.9-12.4-46.9c12.9,21,16.2,38,17.1,44.7c3.2-5.1,8.1-15.4,4.9-28.1C102.5,141.1,82.5,131,81.3,131z"/>
	</g>
</g>
<text transform="matrix(1 0 0 1 -14.8774 174.139)" style="fill:#1B5E20;stroke:#33691E;stroke-miterlimit:10; font-family:'Gilroy-ExtraBold'; font-size:17.9103px;">GMO</text>
<text transform="matrix(1 0 0 1 -109.2285 186.7474)" style="fill:#7ACC49; font-family:'Gilroy-ExtraBold'; font-size:11.6021px;">NATURAL</text>
<text transform="matrix(1 0 0 1 -111.6904 168.0287)" class="st1" style="font-family:'Gilroy-ExtraBold'; font-size:23.3446px;">100%</text>
</svg>
