<?xml version="1.0" encoding="utf-8"?>
<!-- Generator: Adobe Illustrator 22.0.0, SVG Export Plug-In . SVG Version: 6.00 Build 0)  -->
<svg version="1.1" id="Layer_1" xmlns="http://www.w3.org/2000/svg" xmlns:xlink="http://www.w3.org/1999/xlink" x="0px" y="0px"
	 viewBox="0 0 100 100" style="enable-background:new 0 0 100 100;" xml:space="preserve">
<style type="text/css">
	.st0{fill:#D51C59;}
	.st1{fill:#FFFFFF;}
	.st2{fill:none;stroke:#000000;stroke-linejoin:round;stroke-miterlimit:10;}
	.st3{fill:none;stroke:#7DC6D6;stroke-width:2;stroke-linecap:round;stroke-linejoin:round;stroke-miterlimit:10;}
	.st4{fill:none;stroke:#D51C59;stroke-width:2;stroke-linecap:round;stroke-linejoin:round;stroke-miterlimit:10;}
	.st5{fill:none;stroke:#000000;stroke-miterlimit:10;}
	.st6{fill:none;stroke:#515150;stroke-width:16;stroke-linecap:round;stroke-miterlimit:10;}
	.st7{fill:none;stroke:#515150;stroke-linejoin:round;stroke-miterlimit:10;}
	.st8{fill:#05305E;}
	.st9{fill:#B2B9C8;}
	.st10{fill:#8BC34A;}
	.st11{fill-rule:evenodd;clip-rule:evenodd;fill:#33691E;}
	.st12{fill:#669B41;stroke:#669B41;stroke-miterlimit:10;}
	.st13{fill:#669B41;}
	.st14{fill:#1B5E20;stroke:#1B5E20;stroke-miterlimit:10;}
	.st15{fill:#7ACC49;}
</style>
<g>
	<path d="M-247.4,31.7c-14.1,0-25.5-11.5-25.5-25.5c0-14.1,11.5-25.5,25.5-25.5s25.5,11.5,25.5,25.5S-233.3,31.7-247.4,31.7z
		 M-247.4-17.7c-13.2,0-23.9,10.7-23.9,23.9s10.7,23.9,23.9,23.9c13.2,0,23.9-10.7,23.9-23.9S-234.2-17.7-247.4-17.7z"/>
</g>
<g>
	<path d="M-247.4,26.8c-11.4,0-20.6-9.3-20.6-20.6c0-11.4,9.3-20.6,20.6-20.6c11.4,0,20.6,9.3,20.6,20.6S-236,26.8-247.4,26.8z
		 M-247.4-13.1c-10.6,0-19.3,8.6-19.3,19.3c0,10.6,8.7,19.3,19.3,19.3s19.3-8.7,19.3-19.3C-228.1-4.5-236.8-13.1-247.4-13.1z"/>
</g>
<g id="check_2_">
	<g>
		<path class="st0" d="M-249.3,18.7l-14-14c-0.8-0.8-0.8-2.2,0-3l3-3c0.8-0.8,2.2-0.8,3,0l9.4,9.4l20.1-20.1c0.8-0.8,2.2-0.8,3,0
			l3,3c0.8,0.8,0.8,2.2,0,3l-24.4,24.7C-247.1,19.6-248.4,19.6-249.3,18.7L-249.3,18.7z"/>
	</g>
</g>
<g>
	<path d="M-256.2-38.3c1-0.2,1.9-0.1,2.7,0.4s1.3,1.2,1.5,2.2s0.1,1.9-0.5,2.6c-0.5,0.8-1.3,1.3-2.2,1.5l-1.3,0.3l0.6,2.9l-2.5,0.5
		l-2-9.6L-256.2-38.3z M-255.2-33.9c0.3-0.1,0.5-0.2,0.6-0.4c0.1-0.2,0.2-0.5,0.1-0.8c-0.1-0.3-0.2-0.5-0.4-0.7s-0.5-0.2-0.8-0.1
		l-1.3,0.3l0.4,2.1L-255.2-33.9z"/>
	<path d="M-245-29.3l-1.6-3.2h-0.9l-0.1,3.2l-2.5-0.1l0.3-9.9l3.9,0.1c1,0,1.8,0.4,2.5,1c0.7,0.7,1,1.5,1,2.5c0,0.6-0.2,1.1-0.5,1.6
		c-0.3,0.5-0.7,0.9-1.3,1.1l1.9,3.7L-245-29.3z M-247.4-36.9l-0.1,2.2h1.4c0.3,0,0.6-0.1,0.8-0.3s0.3-0.5,0.3-0.8
		c0-0.3-0.1-0.6-0.3-0.8c-0.2-0.2-0.4-0.3-0.8-0.3H-247.4z"/>
	<path d="M-238.8-30.6l3.7,1l-0.6,2.3l-6.1-1.6l2.5-9.6l6.1,1.6l-0.6,2.3l-3.6-0.9l-0.3,1.3l3.3,0.9l-0.6,2.2l-3.4-0.9L-238.8-30.6z
		"/>
	<path d="M-221.4-30.9l-4.9,8.6l-2.1-1.3l2.6-4.6l-4,2.3L-230-26l-0.1-4.6l-2.6,4.6l-2.2-1.3l4.9-8.6l2.2,1.3l0.1,4.9l4.3-2.4
		L-221.4-30.9z"/>
	<path d="M-218.9-28.6l1.9,1.7l-6.6,7.3l-1.9-1.7L-218.9-28.6z"/>
	<path d="M-218-13.9c-0.9-0.2-1.8-0.8-2.4-1.7c-0.7-0.9-1-1.9-0.9-2.8c0.1-1,0.5-1.8,1.4-2.4l5.3-4l1.5,2l-5.3,3.9
		c-0.7,0.5-0.7,1.1-0.2,1.8c0.6,0.7,1.2,0.9,1.8,0.4l5.1-3.8l1.5,2l-5.3,4C-216.2-13.9-217.1-13.7-218-13.9z"/>
	<path d="M-204.7-6l-9.2,3.4l-0.9-2.3l5-1.8l-4.6-0.9l-0.1-0.2l2.9-3.6l-5,1.8l-0.9-2.4l9.2-3.4l0.9,2.4l-3,3.7l4.8,0.9L-204.7-6z"
		/>
	<path d="M-209,11.8c-1.2-0.1-2.2-0.5-3.1-1.2l-1,0.8l-1.5-1.8l1.1-0.9c-0.3-0.7-0.4-1.5-0.4-2.3c0.1-1.4,0.6-2.6,1.7-3.6
		c1-0.9,2.3-1.4,3.7-1.3c1.4,0.1,2.6,0.7,3.6,1.7c0.9,1.1,1.4,2.3,1.3,3.7c-0.1,1.4-0.6,2.6-1.7,3.6
		C-206.3,11.5-207.6,11.9-209,11.8z M-211.4,6.5c0,0.1,0,0.2,0,0.4l1.5-1.2l1.4,1.9l-1.7,1.4c0.4,0.2,0.8,0.4,1.3,0.4
		c0.8,0,1.4-0.2,2-0.6c0.5-0.5,0.8-1.1,0.9-1.9c0-0.8-0.2-1.4-0.6-1.9c-0.5-0.5-1.1-0.8-1.9-0.9c-0.8,0-1.4,0.2-2,0.6
		C-211,5.2-211.3,5.8-211.4,6.5z"/>
	<path d="M-215.7,18.6c-0.4-0.9-0.3-1.9,0-3c0.4-1.1,1-1.9,1.8-2.3c0.8-0.5,1.7-0.5,2.7-0.2l6.2,2.2l-0.8,2.4l-6-2.1
		c-0.8-0.3-1.3,0-1.6,0.9c-0.3,0.9-0.1,1.4,0.7,1.7l6,2.1l-0.8,2.4l-6.2-2.2C-214.7,20.1-215.4,19.5-215.7,18.6z"/>
	<path d="M-220.5,25.1l1.4,0.4l1.9-2.8l-0.9-1.2l1.5-2.3l6.5,8.1l-1.8,2.6l-10-2.7L-220.5,25.1z M-215.7,24.4l-1.1,1.7l3.3,1
		L-215.7,24.4z"/>
	<path d="M-222.5,30.8l-2.5,2.3l-1.7-1.8l4.3-4.1l6.8,7.2l-1.8,1.9L-222.5,30.8z"/>
	<path d="M-221.9,40l-2.1,1.4l-5.5-8.2l2.1-1.4L-221.9,40z"/>
	<path d="M-232.7,45.8l-1-2.2l2.2-1l-3.1-6.8l2.3-1l3.1,6.8l2.2-1l1,2.2L-232.7,45.8z"/>
	<path d="M-243.6,48.3l2.1-6.6l-0.7-3.7l2.5-0.5l0.7,3.7l4.4,5.4l-2.8,0.5l-2.4-3.2l-1,3.9L-243.6,48.3z"/>
</g>
<g>
	<g>
		<circle class="st1" cx="345.2" cy="50.1" r="49.3"/>
	</g>
	<g>
		<path d="M338.4,13.6c-1,0.1-1.9,0-2.6-0.3c-0.7-0.4-1.3-0.9-1.6-1.6l2-1.5c0.5,0.8,1.2,1.2,2.1,1.1c0.8-0.1,1.1-0.4,1.1-0.8
			c0-0.3-0.3-0.5-0.7-0.6c-0.2-0.1-0.6-0.1-1.3-0.2c-0.9-0.2-1.7-0.4-2.2-0.8c-0.6-0.4-0.9-1-1-1.9c-0.1-0.9,0.1-1.7,0.7-2.3
			c0.6-0.6,1.3-1,2.3-1.1c0.8-0.1,1.6,0,2.2,0.3c0.7,0.3,1.2,0.8,1.6,1.5L339,6.7c-0.4-0.7-0.9-1-1.6-0.9c-0.3,0-0.5,0.1-0.7,0.3
			c-0.1,0.1-0.2,0.3-0.2,0.5c0,0.2,0.2,0.4,0.4,0.5c0.2,0.1,0.7,0.2,1.4,0.4c0.5,0.1,0.9,0.2,1.2,0.3c0.3,0.1,0.6,0.2,1,0.4
			c0.4,0.2,0.7,0.4,0.9,0.8c0.2,0.3,0.3,0.7,0.4,1.2c0.1,1-0.1,1.7-0.7,2.4C340.4,13.1,339.5,13.5,338.4,13.6z"/>
		<path d="M351,12.5c-1.1,0.9-2.4,1.2-3.8,1.1c-1.4-0.2-2.6-0.8-3.5-1.9s-1.2-2.3-1.1-3.8c0.2-1.4,0.8-2.6,1.9-3.4s2.4-1.2,3.8-1.1
			s2.6,0.8,3.5,1.9s1.2,2.3,1.1,3.8C352.7,10.5,352.1,11.6,351,12.5z M345.7,10.2c0.4,0.6,1,0.9,1.8,1c0.8,0.1,1.4-0.1,2-0.5
			s0.9-1,1-1.8s-0.1-1.4-0.5-2s-1-0.9-1.8-1c-0.8-0.1-1.4,0.1-2,0.5s-0.9,1-1,1.8S345.2,9.6,345.7,10.2z"/>
		<path d="M361,9.3l-3.3-1.1l-0.5,1.5l3.3,1.1l-0.8,2.3l-3.3-1.1l-1.1,3.2l-2.4-0.8l3.2-9.3l5.7,2L361,9.3z"/>
		<path d="M370,11.4l-1.2,2.1l-2.1-1.2l-3.6,6.4l-2.2-1.2l3.6-6.4l-2.1-1.2l1.2-2.1L370,11.4z"/>
		<path d="M374.4,27.6l-2.1-0.6l0.1-1.2c-0.9-0.2-1.6-0.6-2.3-1.3c-0.7-0.8-1.1-1.6-1.2-2.4c-0.1-0.8,0.2-1.6,0.9-2.2
			c0.8-0.8,1.8-1.1,3.1-0.8c0.2-0.6,0.4-1,0.8-1.4c0.6-0.6,1.3-0.9,2.1-0.8s1.5,0.4,2.2,1.1c1.1,1.1,1.4,2.5,0.8,4l-2.4-0.7
			c0.3-0.7,0.3-1.2-0.1-1.6c-0.2-0.2-0.4-0.3-0.5-0.3c-0.2,0-0.4,0.1-0.5,0.2c-0.1,0.1-0.2,0.2-0.2,0.4c-0.1,0.2-0.1,0.3-0.1,0.4
			c0,0.1,0,0.3,0,0.6l-0.2,2.5c0.5-0.2,0.9-0.4,1.3-0.7l0.6,2.3c-0.6,0.3-1.3,0.6-2.1,0.7L374.4,27.6z M371.8,23.1
			c0.2,0.2,0.4,0.4,0.7,0.5l0.1-2.4c-0.4,0-0.7,0.1-1,0.4c-0.2,0.2-0.3,0.5-0.3,0.7C371.4,22.6,371.5,22.8,371.8,23.1z"/>
		<path d="M377.7,35c-0.7-1.3-0.8-2.6-0.3-3.9s1.3-2.3,2.6-2.9c1.3-0.7,2.6-0.8,3.9-0.3c1.3,0.4,2.3,1.3,3,2.6
			c0.4,0.8,0.6,1.6,0.5,2.5c0,0.9-0.3,1.6-0.7,2.4l-2.1-1.4c0.2-0.3,0.3-0.7,0.4-1.1c0-0.4-0.1-0.8-0.3-1.2
			c-0.4-0.7-0.9-1.2-1.5-1.4c-0.7-0.2-1.3-0.1-2,0.2s-1.2,0.9-1.4,1.5c-0.2,0.6-0.2,1.3,0.2,2c0.2,0.4,0.5,0.7,0.8,1
			c0.3,0.2,0.7,0.4,1.1,0.4l-0.1,2.5c-0.8-0.1-1.6-0.3-2.3-0.8S378.1,35.8,377.7,35z"/>
		<path d="M382.9,46.7c-1.2-0.8-1.9-1.8-2.2-3.2c-0.3-1.4-0.1-2.7,0.6-3.9c0.7-1.2,1.8-1.9,3.2-2.2c1.4-0.3,2.7-0.1,3.9,0.7
			c1.2,0.8,1.9,1.8,2.2,3.2c0.3,1.4,0.1,2.7-0.6,3.9s-1.8,1.9-3.2,2.2S384.1,47.5,382.9,46.7z M383.3,41c-0.4,0.6-0.5,1.3-0.3,2
			c0.2,0.7,0.5,1.3,1.1,1.7c0.6,0.4,1.3,0.5,2,0.3c0.8-0.2,1.3-0.6,1.7-1.2c0.4-0.6,0.5-1.3,0.3-2s-0.5-1.3-1.1-1.7
			c-0.6-0.4-1.3-0.5-2-0.3S383.7,40.4,383.3,41z"/>
		<path d="M391.2,59.5l-9.8-0.5l0.1-2.5l5.3,0.3l-3.8-2.6l0-0.3l4-2.2l-5.3-0.3L382,49l9.8,0.5l-0.1,2.5l-4.3,2.3l4,2.7L391.2,59.5z
			"/>
		<path d="M386.5,67.8l1-3.4l-1.5-0.4l-1,3.3l-2.3-0.7l1-3.3l-3.2-0.9l0.7-2.4l9.4,2.7l-1.7,5.8L386.5,67.8z"/>
		<path d="M384,78.4l-3.8-5.7l-3.3-1.7l1.2-2.2l3.3,1.7l6.9-0.1l-1.3,2.5l-4-0.1l2.4,3.2L384,78.4z"/>
	</g>
	<path class="st2" d="M378.8,76.4C370.9,87.1,358.3,94,344,94c-23.8,0-43.1-19.3-43.1-43.1c0-19.3,12.7-35.6,30.1-41.1"/>
	<g>
		<path class="st3" d="M315.3,70.6c6.8-1.1,14.7-3.8,28.4-14s21.5-19.3,20.4-26.1c-7.9,7.9-14.7,7.9-20.4,9.1s-13,4.5-9.6,15.9
			c0,0-2.3-1.1-3.4-3.4c-2.8,5.1-1.7,9.6-6.8,12.5"/>
		<path class="st3" d="M327.7,71.4c4.2,0.3,9.8,0,13.1-2c-2.3-1.1-2.9-3.1-2.9-4.8c1.1,0,8.6,1.2,12.5,0c4.5-1.3,9.5-5.2,11.2-11.9
			c0.7-2.5,0.8-3.9,0.9-5.1"/>
	</g>
</g>
<g>
	<g>
		<circle class="st1" cx="174.3" cy="50.5" r="49.3"/>
	</g>
	<g>
		<polyline class="st4" points="187.5,53.9 187.5,47.7 187.5,44.2 187.5,38 		"/>
		<polyline class="st4" points="187.5,59.1 187.5,65.3 187.5,68.8 187.5,75.9 		"/>
		<line class="st4" x1="187.5" y1="32.7" x2="187.5" y2="28.3"/>
		<polyline class="st4" points="177.8,75.9 177.8,70.6 177.8,70.6 177.8,69.7 		"/>
		<polyline class="st4" points="177.8,48.6 177.8,54.7 177.8,58.3 177.8,64.4 		"/>
		<line class="st4" x1="177.8" y1="43.3" x2="177.8" y2="28.3"/>
		<polyline class="st4" points="168.1,53.9 168.1,47.7 168.1,44.2 168.1,38 		"/>
		<polyline class="st4" points="168.1,59.1 168.1,65.3 168.1,68.8 168.1,75.9 		"/>
		<line class="st4" x1="168.1" y1="32.7" x2="168.1" y2="28.3"/>
		<polyline class="st4" points="158.4,69.7 158.4,70.6 158.4,70.6 158.4,75.9 		"/>
		<polyline class="st4" points="158.4,64.4 158.4,58.3 158.4,54.7 158.4,48.6 		"/>
		<line class="st4" x1="158.4" y1="43.3" x2="158.4" y2="28.3"/>
		<path class="st4" d="M190.2,69.3c2.5-1,2.4-2.2,6.2-2.2"/>
		<path class="st4" d="M184.9,69.3c-1.7-0.7-2.7-1-4.4-1.7c-0.7-0.3-1.6-0.5-2.6-0.5h0c-1.1,0-1.9,0.2-2.6,0.4
			c-1.7,0.7-2.7,1.1-4.4,1.7"/>
		<path class="st4" d="M148.7,69.7c3.8,0,4.6-1.2,7.1-2.2c0.7-0.3,1.6-0.5,2.6-0.5c1.1,0,1.9,0.2,2.6,0.5c1.7,0.7,2.7,1,4.4,1.7"/>
		<path class="st4" d="M148.7,56.5c3.8,0,4.6,1.2,7.1,2.2"/>
		<path class="st4" d="M175.2,58.7c-1.7-0.7-2.7-1.1-4.4-1.7c-0.7-0.3-1.6-0.4-2.6-0.4h0c-1.1,0-1.9,0.2-2.6,0.5
			c-1.7,0.7-2.7,1.1-4.4,1.7"/>
		<path class="st4" d="M180.5,58.7c1.7-0.7,2.7-1,4.4-1.7c0.7-0.3,1.6-0.5,2.6-0.5s1.9,0.2,2.6,0.5c2.5,1,2.4,2.2,6.2,2.2"/>
		<path class="st4" d="M190.2,48.1c2.5-1,2.4-2.2,6.2-2.2"/>
		<path class="st4" d="M184.9,48.1c-1.7-0.7-2.7-1-4.4-1.7c-0.7-0.3-1.6-0.5-2.6-0.5h0c-1.1,0-1.9,0.2-2.6,0.4
			c-1.7,0.7-2.7,1.1-4.4,1.7"/>
		<path class="st4" d="M148.7,48.6c3.8,0,4.6-1.2,7.1-2.2c0.7-0.3,1.6-0.5,2.6-0.5c1.1,0,1.9,0.2,2.6,0.5c1.7,0.7,2.7,1,4.4,1.7"/>
		<path class="st4" d="M148.7,35.3c3.8,0,4.6,1.2,7.1,2.2"/>
		<path class="st4" d="M175.2,37.5c-1.7-0.7-2.7-1.1-4.4-1.7c-0.7-0.3-1.6-0.4-2.6-0.4h0c-1.1,0-1.9,0.2-2.6,0.5
			c-1.7,0.7-2.7,1.1-4.4,1.7"/>
		<path class="st4" d="M180.5,37.5c1.7-0.7,2.7-1,4.4-1.7c0.7-0.3,1.6-0.5,2.6-0.5s1.9,0.2,2.6,0.5c2.5,1,2.4,2.2,6.2,2.2"/>
	</g>
	<g>
		<path d="M167.9,3c1.3-0.1,2.5,0.2,3.5,1.1c1,0.8,1.6,2,1.7,3.3c0.1,1.4-0.2,2.6-1,3.6c-0.8,1-1.9,1.6-3.2,1.7l-4,0.4l-1-9.8
			L167.9,3z M168.7,10.3c0.7-0.1,1.2-0.3,1.6-0.8c0.4-0.5,0.5-1.1,0.5-1.9c-0.1-0.7-0.3-1.3-0.8-1.7c-0.5-0.4-1-0.6-1.7-0.5
			l-1.4,0.1l0.5,4.9L168.7,10.3z"/>
		<path d="M181,12.5c-0.8,0.5-1.8,0.7-2.9,0.6s-2-0.6-2.6-1.3c-0.6-0.7-0.9-1.6-0.8-2.6l0.9-6.5L178,3l-0.8,6.3
			c-0.1,0.8,0.3,1.3,1.2,1.4c0.9,0.1,1.4-0.2,1.5-1l0.8-6.3l2.5,0.3l-0.9,6.5C182.2,11.2,181.8,12,181,12.5z"/>
		<path d="M187.8,15.4l-0.5-3.6l-0.8-0.3l-1.1,3l-2.4-0.9l3.4-9.2l3.7,1.4c0.9,0.3,1.6,0.9,2,1.8c0.4,0.8,0.5,1.7,0.1,2.6
			c-0.2,0.6-0.5,1-1,1.4c-0.4,0.4-1,0.6-1.5,0.7l0.6,4.1L187.8,15.4z M188,7.5l-0.8,2.1l1.3,0.5c0.3,0.1,0.6,0.1,0.8,0
			c0.3-0.1,0.4-0.3,0.6-0.6c0.1-0.3,0.1-0.6,0-0.9s-0.3-0.4-0.6-0.5L188,7.5z"/>
		<path d="M196,20l0.4-1.4l-2.8-1.8l-1.1,1l-2.3-1.5l8-6.5l2.6,1.7l-2.6,10L196,20z M195.3,15.3l1.7,1.1l1-3.3L195.3,15.3z"/>
		<path d="M206.3,22.6c0.2,0.9,0,1.7-0.7,2.4c-0.6,0.6-1.3,0.9-2.1,0.8s-1.5-0.4-2.2-1.2l-2.9-3l7-6.9l2.7,2.8
			c0.7,0.7,1.1,1.4,1.1,2.2c0.1,0.8-0.2,1.5-0.8,2.1C207.7,22.5,207.1,22.7,206.3,22.6z M202.8,23.1c0.2,0.2,0.4,0.3,0.6,0.3
			s0.4-0.1,0.6-0.2c0.2-0.2,0.3-0.4,0.3-0.6c0-0.2-0.1-0.4-0.3-0.6l-1.1-1.1l-1.2,1.2L202.8,23.1z M206.4,19.2l-0.9-0.9l-1.1,1.1
			l0.9,0.9c0.2,0.2,0.3,0.2,0.5,0.3c0.2,0,0.4-0.1,0.6-0.2c0.2-0.2,0.2-0.3,0.2-0.6C206.7,19.5,206.6,19.3,206.4,19.2z"/>
		<path d="M207.3,28.4l1.9,2.8l-2,1.3l-3.3-4.9l8.2-5.4l1.4,2.1L207.3,28.4z"/>
		<path d="M210.6,34.5l1.5,3.5l-2.2,0.9l-2.5-5.8l9-3.9l2.5,5.7l-2.1,0.9l-1.5-3.4L214,33l1.3,3.1l-2.1,0.9l-1.3-3.1L210.6,34.5z"/>
		<path d="M221.9,51.7l-9.8,0.9l-0.2-2.5l5.3-0.5l-4.1-2l0-0.3l3.7-2.7l-5.2,0.5l-0.2-2.5l9.8-0.9l0.2,2.5l-3.9,2.9l4.4,2.1
			L221.9,51.7z"/>
		<path d="M211,59.8l1.5-0.2l0.5-3.3l-1.3-0.6l0.4-2.7l9.2,4.7l-0.5,3.1l-10.2,1.6L211,59.8z M215,57.2l-0.3,1.9l3.4-0.4L215,57.2z"
			/>
		<path d="M217.3,71.7l-2.3-0.8l0.8-2.3L209,66l0.9-2.3l6.9,2.6l0.8-2.3l2.3,0.8L217.3,71.7z"/>
		<path d="M208.5,72.2l-2,3.2l-2-1.2l3.3-5.4l8.4,5.1l-3.2,5.3l-2-1.2l1.9-3.2l-1.2-0.7L210,77l-2-1.2l1.7-2.9L208.5,72.2z"/>
		<path d="M200.6,78.7l3.5,0.9l0.6-0.7l-2.3-2.1l1.7-1.8l7.2,6.6l-2.6,2.9c-0.7,0.7-1.5,1.1-2.4,1.2s-1.8-0.2-2.5-0.9
			c-0.4-0.4-0.7-0.9-0.9-1.4c-0.2-0.6-0.2-1.1,0-1.7l-4-1L200.6,78.7z M207.9,81.8l-1.6-1.5l-0.9,1c-0.2,0.2-0.3,0.5-0.3,0.8
			c0,0.3,0.1,0.5,0.4,0.8c0.2,0.2,0.5,0.3,0.8,0.3c0.3,0,0.5-0.1,0.7-0.3L207.9,81.8z"/>
		<path d="M204.3,88.6l-2,1.6l-6.1-7.7l2-1.6L204.3,88.6z"/>
		<path d="M189.9,86.4l1.1,1l2.9-1.6l-0.3-1.4L196,83l2,10.1l-2.8,1.5l-7.6-7L189.9,86.4z M194.4,88l-1.7,1l2.5,2.4L194.4,88z"/>
		<path d="M185.5,90.7l-3.2,1l-0.7-2.3l5.6-1.8l2.9,9.3l-2.4,0.8L185.5,90.7z"/>
		<path d="M177.6,89.7c1-0.1,1.9,0,2.6,0.3c0.7,0.4,1.3,0.9,1.6,1.6l-2,1.5c-0.5-0.8-1.2-1.2-2.1-1.1c-0.8,0.1-1.1,0.4-1.1,0.8
			c0,0.3,0.3,0.5,0.7,0.6c0.2,0.1,0.6,0.1,1.3,0.2c0.9,0.2,1.7,0.4,2.2,0.8c0.6,0.4,0.9,1,1,1.9c0.1,0.9-0.1,1.7-0.7,2.3
			c-0.6,0.6-1.3,1-2.3,1.1c-0.8,0.1-1.6,0-2.2-0.3c-0.7-0.3-1.2-0.8-1.6-1.5l1.9-1.5c0.4,0.7,0.9,1,1.6,0.9c0.3,0,0.5-0.1,0.7-0.3
			s0.2-0.3,0.2-0.5c0-0.2-0.2-0.4-0.4-0.5s-0.7-0.2-1.4-0.4c-0.5-0.1-0.9-0.2-1.2-0.3c-0.3-0.1-0.6-0.2-1-0.4
			c-0.4-0.2-0.7-0.4-0.9-0.8s-0.3-0.7-0.4-1.2c-0.1-1,0.1-1.7,0.7-2.4C175.6,90.2,176.5,89.8,177.6,89.7z"/>
	</g>
	<path class="st5" d="M169.9,93.3c-21.6-2-38.5-20.2-38.5-42.3c0-19.1,12.6-35.2,29.9-40.6"/>
</g>
<g>
	<line class="st6" x1="-714" y1="90.2" x2="-726" y2="102.2"/>
	<line class="st6" x1="-698" y1="34.2" x2="-710" y2="46.2"/>
	<line class="st6" x1="-638" y1="34.2" x2="-650" y2="46.2"/>
	<line class="st6" x1="-574" y1="34.2" x2="-586" y2="46.2"/>
	<line class="st6" x1="-506" y1="34.2" x2="-518" y2="46.2"/>
	<line class="st6" x1="-642" y1="90.2" x2="-654" y2="102.2"/>
	<line class="st6" x1="-570" y1="90.2" x2="-582" y2="102.2"/>
	<line class="st6" x1="-498" y1="90.2" x2="-510" y2="102.2"/>
</g>
<g>
	<line class="st7" x1="-343.2" y1="19.9" x2="-343.2" y2="29.2"/>
	<line class="st7" x1="-337.8" y1="19.9" x2="-337.8" y2="23.8"/>
	<line class="st7" x1="-337.8" y1="28.4" x2="-337.8" y2="34.6"/>
	<line class="st7" x1="-332.4" y1="19.9" x2="-332.4" y2="29.2"/>
	<line class="st7" x1="-340.9" y1="26.1" x2="-334.7" y2="26.1"/>
	<line class="st7" x1="-336.2" y1="31.5" x2="-329.3" y2="31.5"/>
	<line class="st7" x1="-348.6" y1="19.9" x2="-348.6" y2="23.8"/>
	<line class="st7" x1="-348.6" y1="49.3" x2="-348.6" y2="53.2"/>
	<line class="st7" x1="-337.8" y1="49.3" x2="-337.8" y2="53.2"/>
	<line class="st7" x1="-326.9" y1="49.3" x2="-326.9" y2="53.2"/>
	<line class="st7" x1="-348.6" y1="28.4" x2="-348.6" y2="34.6"/>
	<line class="st7" x1="-354.1" y1="26.1" x2="-345.5" y2="26.1"/>
	<line class="st7" x1="-346.3" y1="31.5" x2="-340.1" y2="31.5"/>
	<line class="st7" x1="-326.9" y1="19.9" x2="-326.9" y2="23.8"/>
	<line class="st7" x1="-326.9" y1="28.4" x2="-326.9" y2="34.6"/>
	<line class="st7" x1="-330" y1="26.1" x2="-321.5" y2="26.1"/>
	<line class="st7" x1="-343.2" y1="33.8" x2="-343.2" y2="40"/>
	<line class="st7" x1="-332.4" y1="33.8" x2="-332.4" y2="40.8"/>
	<line class="st7" x1="-340.9" y1="36.9" x2="-334.7" y2="36.9"/>
	<line class="st7" x1="-354.1" y1="36.9" x2="-345.5" y2="36.9"/>
	<line class="st7" x1="-330" y1="36.9" x2="-323.1" y2="36.9"/>
	<line class="st7" x1="-337.8" y1="39.3" x2="-337.8" y2="44.7"/>
	<line class="st7" x1="-335.5" y1="42.4" x2="-329.3" y2="42.4"/>
	<line class="st7" x1="-348.6" y1="39.3" x2="-348.6" y2="44.7"/>
	<line class="st7" x1="-346.3" y1="42.4" x2="-340.1" y2="42.4"/>
	<line class="st7" x1="-326.9" y1="39.3" x2="-326.9" y2="44.7"/>
	<line class="st7" x1="-343.2" y1="44.7" x2="-343.2" y2="53.2"/>
	<line class="st7" x1="-332.4" y1="44.7" x2="-332.4" y2="53.2"/>
	<line class="st7" x1="-340.9" y1="47" x2="-334.7" y2="47"/>
	<line class="st7" x1="-354.1" y1="47" x2="-345.5" y2="47"/>
	<line class="st7" x1="-330" y1="47" x2="-321.5" y2="47"/>
	<line class="st7" x1="-351" y1="31.5" x2="-354.1" y2="31.5"/>
	<line class="st7" x1="-351" y1="42.4" x2="-354.1" y2="42.4"/>
	<line class="st7" x1="-321.5" y1="31.5" x2="-324.6" y2="31.5"/>
	<line class="st7" x1="-321.5" y1="42.4" x2="-324.6" y2="42.4"/>
</g>
<g>
	<path class="st1" d="M-121.4-17.6c0,0,0.5-0.8,1.4-0.8l6.3,0c0,0,1,0,1.4,0.8l3.2,5.5c0,0,0.5,0.8,0,1.7l-3.1,5.5
		c0,0-0.5,0.8-1.4,0.8l-6.3,0c0,0-1,0-1.4-0.8l-3.2-5.5c0,0-0.5-0.8,0-1.7L-121.4-17.6L-121.4-17.6z"/>
	<path class="st8" d="M-120.3-16.3c0,0,0.4-0.6,1.1-0.6l4.8,0c0,0,0.7,0,1.1,0.6l2.4,4.1c0,0,0.4,0.6,0,1.3l-2.4,4.1
		c0,0-0.4,0.6-1.1,0.6l-4.8,0c0,0-0.7,0-1.1-0.6l-2.4-4.1c0,0-0.4-0.6,0-1.3L-120.3-16.3L-120.3-16.3z"/>
	<path class="st8" d="M-88.4,10.7h-4.3c-0.2,0-0.5-0.2-0.5-0.4V-9.3c0-0.2,0.2-0.4,0.5-0.4l4.3-0.5c0.3,0,0.4,0.2,0.4,0.4v20.1
		C-88,10.5-88.2,10.7-88.4,10.7L-88.4,10.7z"/>
	<path class="st8" d="M-69.4-6.1h-8.5v5.6h7.6c0.2,0,0.4,0.2,0.4,0.4v2.9c0,0.3-0.2,0.4-0.4,0.4h-7.6v7c0,0.3-0.2,0.4-0.5,0.4h-4.2
		c-0.3,0-0.5-0.2-0.5-0.4V-9.4c0-0.3,0.2-0.4,0.5-0.4h13.2c0.3,0,0.4,0.2,0.4,0.4v2.9C-68.9-6.3-69.1-6.1-69.4-6.1L-69.4-6.1z"/>
	<path class="st8" d="M-59.2,11c-3.9,0-7-0.9-7.5-1.1C-67,9.8-67.3,9.6-67.2,9l0.4-2.2c0.1-0.4,0.4-0.6,0.8-0.4
		c0.6,0.1,3.5,0.9,5.9,0.9c2.1,0,3.6-0.5,3.6-2.4c0-2-1.9-2.2-4.2-2.6c-2.8-0.4-6.7-1.3-6.7-6.1c0-5,3.4-6.5,8.1-6.5
		c3.3,0,6.1,0.8,6.7,0.9c0.4,0.1,0.7,0.3,0.6,0.8l-0.4,2.3c-0.1,0.3-0.2,0.5-0.7,0.4c-1.9-0.4-3.7-0.8-5.6-0.8
		c-1.8,0-3.5,0.3-3.5,2.3c0,1.9,2,2.1,4.3,2.5c3.2,0.5,6.7,1.2,6.7,6.5C-51.1,9.4-55,11-59.2,11L-59.2,11z"/>
	<path class="st8" d="M-92.5,21h-0.6c-0.1,0-0.1,0-0.1-0.1v-4.8c0-0.1,0-0.1,0.1-0.1l0.6-0.1c0.1,0,0.1,0,0.1,0.1v4.8
		C-92.4,21-92.5,21-92.5,21L-92.5,21z"/>
	<path class="st8" d="M-88.3,21h-0.6c-0.1,0-0.1,0-0.1-0.1v-2.4c0-0.4-0.2-0.5-0.5-0.5c-0.4,0-0.9,0.1-1,0.1v2.8
		c0,0.1,0,0.1-0.1,0.1h-0.6c-0.1,0-0.1,0-0.1-0.1v-2.8c0-0.3,0.1-0.4,0.4-0.5c0.3-0.1,0.9-0.2,1.4-0.2c0.8,0,1.2,0.2,1.2,1v2.5
		C-88.2,21-88.2,21-88.3,21L-88.3,21z"/>
	<path class="st8" d="M-85.3,20.9c0,0.1,0,0.1-0.1,0.1c-0.1,0-0.4,0.1-0.8,0.1c-0.7,0-1.1-0.3-1.1-1v-3.5c0-0.1,0-0.1,0.1-0.1
		l0.5-0.1c0.1,0,0.1,0,0.1,0.1v1.1h1c0.1,0,0.1,0,0.1,0.1V18c0,0.1,0,0.1-0.1,0.1h-1v2c0,0.3,0.1,0.4,0.5,0.4c0.2,0,0.4,0,0.5-0.1
		c0.1,0,0.1,0,0.1,0.1L-85.3,20.9L-85.3,20.9z"/>
	<path class="st8" d="M-81.6,19.5c0,0.1,0,0.1-0.1,0.1H-84c0,0.3,0.1,0.5,0.2,0.7c0.2,0.2,0.5,0.2,0.9,0.2c0.4,0,0.7-0.1,1-0.2
		c0,0,0,0,0,0c0,0,0.1,0,0.1,0.1l0.1,0.3c0,0,0,0,0,0c0,0,0,0.1-0.1,0.1c-0.2,0.1-0.7,0.2-1.2,0.2c-1.3,0-1.8-0.6-1.8-1.8
		c0-1.2,0.3-1.9,1.6-1.9c0.7,0,1.1,0.2,1.3,0.5c0.2,0.3,0.3,0.7,0.3,1.2C-81.6,19.3-81.6,19.4-81.6,19.5L-81.6,19.5z M-82.4,18.5
		c-0.1-0.4-0.3-0.5-0.8-0.5c-0.5,0-0.7,0.1-0.8,0.5c-0.1,0.2-0.1,0.4-0.1,0.6h1.7C-82.3,18.9-82.3,18.7-82.4,18.5L-82.4,18.5z"/>
	<path class="st8" d="M-80.7,18.1c0-0.3,0.1-0.4,0.4-0.5c0.3-0.1,0.8-0.2,1.3-0.2c0.1,0,0.2,0,0.2,0.1v0.4c0,0.1,0,0.1-0.1,0.1
		c-0.4,0-0.8,0-1,0.1v2.8c0,0.1,0,0.1-0.1,0.1h-0.6c-0.1,0-0.1,0-0.1-0.1V18.1L-80.7,18.1z"/>
	<path class="st8" d="M-75.3,21h-0.6c-0.1,0-0.1,0-0.1-0.1v-2.4c0-0.4-0.2-0.5-0.5-0.5c-0.4,0-0.9,0.1-1,0.1v2.8
		c0,0.1,0,0.1-0.1,0.1h-0.6c-0.1,0-0.1,0-0.1-0.1v-2.8c0-0.3,0.1-0.4,0.4-0.5c0.3-0.1,0.9-0.2,1.4-0.2c0.8,0,1.2,0.2,1.2,1v2.5
		C-75.2,21-75.2,21-75.3,21L-75.3,21z"/>
	<path class="st8" d="M-71.9,21c-0.2,0.1-0.5,0.1-0.9,0.1c-0.7,0-1.6-0.1-1.6-1.1c0-0.9,0.5-1,1.1-1.1l1.2-0.2v-0.2
		c0-0.2,0-0.3-0.2-0.4c-0.1,0-0.3-0.1-0.5-0.1c-0.5,0-0.9,0.1-1.2,0.2c0,0,0,0,0,0c0,0-0.1,0-0.1-0.1l-0.1-0.4c0-0.1,0-0.1,0.1-0.1
		c0.2-0.1,0.8-0.2,1.4-0.2c0.5,0,0.8,0.1,1,0.2c0.3,0.2,0.4,0.5,0.4,0.9v1.9C-71.3,20.8-71.5,20.9-71.9,21L-71.9,21z M-72.1,19.3
		l-1,0.2c-0.3,0-0.5,0.1-0.5,0.5c0,0.6,0.5,0.6,0.8,0.6c0.3,0,0.5,0,0.7-0.1V19.3L-72.1,19.3z"/>
	<path class="st8" d="M-68.3,20.9c0,0.1,0,0.1-0.1,0.1c-0.1,0-0.4,0.1-0.8,0.1c-0.7,0-1.1-0.3-1.1-1v-3.5c0-0.1,0-0.1,0.1-0.1
		l0.5-0.1c0.1,0,0.1,0,0.1,0.1v1.1h1c0.1,0,0.1,0,0.1,0.1V18c0,0.1,0,0.1-0.1,0.1h-1v2c0,0.3,0.1,0.4,0.5,0.4c0.2,0,0.4,0,0.5-0.1
		c0.1,0,0.1,0,0.1,0.1L-68.3,20.9L-68.3,20.9z"/>
	<path class="st8" d="M-67,17h-0.5c-0.1,0-0.1,0-0.1-0.1v-0.7c0-0.1,0.1-0.1,0.1-0.1h0.5c0.1,0,0.1,0,0.1,0.1v0.7
		C-66.8,17-66.9,17-67,17L-67,17z M-66.9,21h-0.5c-0.1,0-0.1,0-0.1-0.1v-3.3c0-0.1,0-0.1,0.1-0.1h0.5c0.1,0,0.1,0,0.1,0.1v3.3
		C-66.8,21-66.9,21-66.9,21L-66.9,21z"/>
	<path class="st8" d="M-64.3,21.1c-1.5,0-1.6-0.8-1.6-1.8c0-1,0.2-1.8,1.6-1.8c1.5,0,1.6,0.8,1.6,1.8
		C-62.7,20.3-62.8,21.1-64.3,21.1L-64.3,21.1z M-64.3,18c-0.8,0-0.9,0.5-0.9,1.3c0,0.8,0,1.3,0.9,1.3c0.8,0,0.8-0.5,0.8-1.3
		C-63.4,18.5-63.5,18-64.3,18L-64.3,18z"/>
	<path class="st8" d="M-58.9,21h-0.6c-0.1,0-0.1,0-0.1-0.1v-2.4c0-0.4-0.2-0.5-0.5-0.5c-0.4,0-0.9,0.1-1,0.1v2.8
		c0,0.1,0,0.1-0.1,0.1h-0.6c-0.1,0-0.1,0-0.1-0.1v-2.8c0-0.3,0.1-0.4,0.4-0.5c0.3-0.1,0.9-0.2,1.4-0.2c0.8,0,1.2,0.2,1.2,1v2.5
		C-58.8,21-58.8,21-58.9,21L-58.9,21z"/>
	<path class="st8" d="M-55.5,21c-0.2,0.1-0.5,0.1-0.9,0.1c-0.7,0-1.6-0.1-1.6-1.1c0-0.9,0.5-1,1.1-1.1l1.2-0.2v-0.2
		c0-0.2,0-0.3-0.2-0.4c-0.1,0-0.3-0.1-0.5-0.1c-0.5,0-0.9,0.1-1.2,0.2c0,0,0,0,0,0c0,0-0.1,0-0.1-0.1l-0.1-0.4c0-0.1,0-0.1,0.1-0.1
		c0.2-0.1,0.8-0.2,1.4-0.2c0.5,0,0.8,0.1,1,0.2c0.3,0.2,0.4,0.5,0.4,0.9v1.9C-54.9,20.8-55.1,20.9-55.5,21L-55.5,21z M-55.7,19.3
		l-1,0.2c-0.3,0-0.5,0.1-0.5,0.5c0,0.6,0.5,0.6,0.8,0.6c0.3,0,0.5,0,0.7-0.1V19.3L-55.7,19.3z"/>
	<path class="st8" d="M-52.5,20.9c0,0,0,0.1-0.1,0.1c-0.1,0-0.3,0.1-0.6,0.1c-0.5,0-0.8-0.3-0.8-0.8v-4.1c0-0.1,0-0.1,0.1-0.1
		l0.5-0.1h0c0.1,0,0.1,0,0.1,0.1v4.1c0,0.2,0.1,0.3,0.3,0.3c0.1,0,0.2,0,0.2,0c0,0,0.1,0,0.1,0.1L-52.5,20.9L-52.5,20.9z"/>
	<path class="st8" d="M-90.1,24.8h-2.3v1.7h2.1c0.1,0,0.1,0,0.1,0.1v0.5c0,0.1,0,0.1-0.1,0.1h-2.1V29c0,0.1-0.1,0.1-0.1,0.1h-0.6
		c-0.1,0-0.1,0-0.1-0.1v-4.7c0-0.1,0.1-0.1,0.1-0.1h3c0.1,0,0.1,0,0.1,0.1v0.4C-90,24.7-90.1,24.8-90.1,24.8L-90.1,24.8z"/>
	<path class="st8" d="M-86.3,27.6c0,0.1,0,0.1-0.1,0.1h-2.3c0,0.3,0.1,0.5,0.2,0.7c0.2,0.2,0.5,0.2,0.9,0.2c0.4,0,0.7-0.1,1-0.2
		c0,0,0,0,0,0c0,0,0.1,0,0.1,0.1l0.1,0.3c0,0,0,0,0,0c0,0,0,0.1-0.1,0.1c-0.2,0.1-0.7,0.2-1.2,0.2c-1.3,0-1.8-0.6-1.8-1.8
		c0-1.2,0.3-1.9,1.6-1.9c0.7,0,1.1,0.2,1.3,0.5c0.2,0.3,0.3,0.7,0.3,1.2C-86.3,27.4-86.3,27.5-86.3,27.6L-86.3,27.6z M-87.1,26.5
		c-0.1-0.4-0.3-0.5-0.8-0.5c-0.5,0-0.7,0.1-0.8,0.5c-0.1,0.2-0.1,0.4-0.1,0.6h1.7C-87.1,27-87.1,26.7-87.1,26.5L-87.1,26.5z"/>
	<path class="st8" d="M-83.2,29.1c-0.2,0.1-0.5,0.1-0.9,0.1c-0.7,0-1.6-0.1-1.6-1.1c0-0.9,0.5-1,1.1-1.1l1.2-0.2v-0.2
		c0-0.2,0-0.3-0.2-0.4c-0.1,0-0.3-0.1-0.5-0.1c-0.5,0-0.9,0.1-1.2,0.2c0,0,0,0,0,0c0,0-0.1,0-0.1-0.1l-0.1-0.4c0-0.1,0-0.1,0.1-0.1
		c0.2-0.1,0.8-0.2,1.4-0.2c0.5,0,0.8,0.1,1,0.2c0.3,0.2,0.4,0.5,0.4,0.9v1.9C-82.6,28.9-82.7,29-83.2,29.1L-83.2,29.1z M-83.3,27.3
		l-1,0.2c-0.3,0-0.5,0.1-0.5,0.5c0,0.6,0.5,0.6,0.8,0.6c0.3,0,0.5,0,0.7-0.1V27.3L-83.3,27.3z"/>
	<path class="st8" d="M-79.6,28.9c0,0.1,0,0.1-0.1,0.1c-0.1,0-0.4,0.1-0.8,0.1c-0.7,0-1.1-0.3-1.1-1v-3.5c0-0.1,0-0.1,0.1-0.1
		l0.5-0.1c0.1,0,0.1,0,0.1,0.1v1.1h1c0.1,0,0.1,0,0.1,0.1V26c0,0.1,0,0.1-0.1,0.1h-1v2c0,0.3,0.1,0.4,0.5,0.4c0.2,0,0.4,0,0.5-0.1
		c0.1,0,0.1,0,0.1,0.1L-79.6,28.9L-79.6,28.9z"/>
	<path class="st8" d="M-77.3,29.2c-1.1,0-1.5-0.4-1.5-1.3v-2.1c0-0.1,0-0.1,0.1-0.1l0.5-0.1c0.1,0,0.1,0,0.1,0.1v2.3
		c0,0.5,0.2,0.7,0.8,0.7c0.7,0,0.8-0.3,0.8-0.8v-2.2c0-0.1,0-0.1,0.1-0.1l0.5-0.1c0.1,0,0.1,0,0.1,0.1v2.3
		C-75.8,28.6-76.1,29.2-77.3,29.2L-77.3,29.2z"/>
	<path class="st8" d="M-74.9,26.1c0-0.3,0.1-0.4,0.4-0.5c0.3-0.1,0.8-0.2,1.3-0.2c0.1,0,0.2,0,0.2,0.1V26c0,0.1,0,0.1-0.1,0.1
		c-0.4,0-0.8,0-1,0.1V29c0,0.1,0,0.1-0.1,0.1h-0.6c-0.1,0-0.1,0-0.1-0.1V26.1L-74.9,26.1z"/>
	<path class="st8" d="M-69.4,27.6c0,0.1,0,0.1-0.1,0.1h-2.3c0,0.3,0.1,0.5,0.2,0.7c0.2,0.2,0.5,0.2,0.9,0.2c0.4,0,0.7-0.1,1-0.2
		c0,0,0,0,0,0c0,0,0.1,0,0.1,0.1l0.1,0.3c0,0,0,0,0,0c0,0,0,0.1-0.1,0.1c-0.2,0.1-0.7,0.2-1.2,0.2c-1.3,0-1.8-0.6-1.8-1.8
		c0-1.2,0.3-1.9,1.6-1.9c0.7,0,1.1,0.2,1.3,0.5c0.2,0.3,0.3,0.7,0.3,1.2C-69.4,27.4-69.4,27.5-69.4,27.6L-69.4,27.6z M-70.2,26.5
		c-0.1-0.4-0.3-0.5-0.8-0.5c-0.5,0-0.7,0.1-0.8,0.5c-0.1,0.2-0.1,0.4-0.1,0.6h1.7C-70.1,27-70.2,26.7-70.2,26.5L-70.2,26.5z"/>
	<path class="st8" d="M-66,29c-0.3,0.1-0.6,0.1-1.1,0.1c-1.3,0-1.7-0.5-1.7-1.8c0-1.2,0.3-1.9,1.5-1.9c0.5,0,0.8,0.1,1,0.1l-0.1-0.4
		v-0.9c0-0.1,0-0.1,0.1-0.1l0.5-0.1c0.1,0,0.1,0,0.1,0.1v4.4C-65.5,28.7-65.6,28.9-66,29L-66,29z M-66.3,26.1
		c-0.1,0-0.4-0.1-0.7-0.1c-0.6,0-0.9,0.2-0.9,1.3c0,1.2,0.3,1.3,0.9,1.3c0.3,0,0.7-0.1,0.7-0.1V26.1L-66.3,26.1z"/>
	<path class="st8" d="M-60.9,29.2c-0.8,0-1.5-0.2-1.6-0.2c-0.1,0-0.1-0.1-0.1-0.1c0,0,0,0,0,0l0.1-0.4c0-0.1,0.1-0.1,0.1-0.1
		c0,0,0,0,0.1,0c0.1,0,0.8,0.2,1.5,0.2c0.6,0,1.1-0.2,1.1-0.8c0-0.6-0.5-0.7-1.2-0.8c-0.7-0.1-1.7-0.3-1.7-1.4
		c0-1.2,0.9-1.4,1.9-1.4c0.8,0,1.4,0.2,1.6,0.2c0.1,0,0.1,0.1,0.1,0.2l-0.1,0.4c0,0-0.1,0.1-0.1,0.1c-0.2-0.1-0.8-0.2-1.4-0.2
		c-0.5,0-1.1,0.1-1.1,0.7c0,0.6,0.6,0.7,1.2,0.8c0.8,0.1,1.7,0.2,1.7,1.4C-59,28.8-60,29.2-60.9,29.2L-60.9,29.2z"/>
	<path class="st8" d="M-56.1,28.9c0,0.1,0,0.1-0.1,0.1c-0.1,0-0.4,0.1-0.8,0.1c-0.7,0-1.1-0.3-1.1-1v-3.5c0-0.1,0-0.1,0.1-0.1
		l0.5-0.1c0.1,0,0.1,0,0.1,0.1v1.1h1c0.1,0,0.1,0,0.1,0.1V26c0,0.1,0,0.1-0.1,0.1h-1v2c0,0.3,0.1,0.4,0.5,0.4c0.2,0,0.4,0,0.5-0.1
		c0.1,0,0.1,0,0.1,0.1L-56.1,28.9L-56.1,28.9z"/>
	<path class="st8" d="M-53.1,29.1c-0.2,0.1-0.5,0.1-0.9,0.1c-0.7,0-1.6-0.1-1.6-1.1c0-0.9,0.5-1,1.1-1.1l1.2-0.2v-0.2
		c0-0.2,0-0.3-0.2-0.4c-0.1,0-0.3-0.1-0.5-0.1c-0.5,0-0.9,0.1-1.2,0.2c0,0,0,0,0,0c0,0-0.1,0-0.1-0.1l-0.1-0.4c0-0.1,0-0.1,0.1-0.1
		c0.2-0.1,0.8-0.2,1.4-0.2c0.5,0,0.8,0.1,1,0.2c0.3,0.2,0.4,0.5,0.4,0.9v1.9C-52.5,28.9-52.7,29-53.1,29.1L-53.1,29.1z M-53.3,27.3
		l-1,0.2c-0.3,0-0.5,0.1-0.5,0.5c0,0.6,0.5,0.6,0.8,0.6c0.3,0,0.5,0,0.7-0.1V27.3L-53.3,27.3z"/>
	<path class="st8" d="M-48.6,29.1h-0.6c-0.1,0-0.1,0-0.1-0.1v-2.4c0-0.4-0.2-0.5-0.5-0.5c-0.4,0-0.9,0.1-1,0.1V29
		c0,0.1,0,0.1-0.1,0.1h-0.6c-0.1,0-0.1,0-0.1-0.1v-2.8c0-0.3,0.1-0.4,0.4-0.5c0.3-0.1,0.9-0.2,1.4-0.2c0.8,0,1.2,0.2,1.2,1V29
		C-48.5,29-48.6,29.1-48.6,29.1L-48.6,29.1z"/>
	<path class="st8" d="M-45,29c-0.3,0.1-0.6,0.1-1.1,0.1c-1.3,0-1.7-0.5-1.7-1.8c0-1.2,0.3-1.9,1.5-1.9c0.5,0,0.8,0.1,1,0.1l-0.1-0.4
		v-0.9c0-0.1,0-0.1,0.1-0.1l0.5-0.1c0.1,0,0.1,0,0.1,0.1v4.4C-44.5,28.7-44.6,28.9-45,29L-45,29z M-45.3,26.1
		c-0.1,0-0.4-0.1-0.7-0.1c-0.6,0-0.9,0.2-0.9,1.3c0,1.2,0.3,1.3,0.9,1.3c0.3,0,0.7-0.1,0.7-0.1V26.1L-45.3,26.1z"/>
	<path class="st8" d="M-41.2,29.1c-0.2,0.1-0.5,0.1-0.9,0.1c-0.7,0-1.6-0.1-1.6-1.1c0-0.9,0.5-1,1.1-1.1l1.2-0.2v-0.2
		c0-0.2,0-0.3-0.2-0.4c-0.1,0-0.3-0.1-0.5-0.1c-0.5,0-0.9,0.1-1.2,0.2c0,0,0,0,0,0c0,0-0.1,0-0.1-0.1l-0.1-0.4c0-0.1,0-0.1,0.1-0.1
		c0.2-0.1,0.8-0.2,1.4-0.2c0.5,0,0.8,0.1,1,0.2c0.3,0.2,0.4,0.5,0.4,0.9v1.9C-40.7,28.9-40.8,29-41.2,29.1L-41.2,29.1z M-41.4,27.3
		l-1,0.2c-0.3,0-0.5,0.1-0.5,0.5c0,0.6,0.5,0.6,0.8,0.6c0.3,0,0.5,0,0.7-0.1V27.3L-41.4,27.3z"/>
	<path class="st8" d="M-39.7,26.1c0-0.3,0.1-0.4,0.4-0.5c0.3-0.1,0.8-0.2,1.3-0.2c0.1,0,0.2,0,0.2,0.1V26c0,0.1,0,0.1-0.1,0.1
		c-0.4,0-0.8,0-1,0.1V29c0,0.1,0,0.1-0.1,0.1h-0.6c-0.1,0-0.1,0-0.1-0.1V26.1L-39.7,26.1z"/>
	<path class="st8" d="M-34.7,29c-0.3,0.1-0.6,0.1-1.1,0.1c-1.3,0-1.7-0.5-1.7-1.8c0-1.2,0.3-1.9,1.5-1.9c0.5,0,0.8,0.1,1,0.1
		l-0.1-0.4v-0.9c0-0.1,0-0.1,0.1-0.1l0.5-0.1c0.1,0,0.1,0,0.1,0.1v4.4C-34.3,28.7-34.3,28.9-34.7,29L-34.7,29z M-35,26.1
		c-0.1,0-0.4-0.1-0.7-0.1c-0.6,0-0.9,0.2-0.9,1.3c0,1.2,0.3,1.3,0.9,1.3c0.3,0,0.7-0.1,0.7-0.1V26.1L-35,26.1z"/>
	<path class="st8" d="M-32.2,29.2c-0.6,0-1.1-0.2-1.2-0.2c0,0-0.1,0-0.1-0.1l0.1-0.4c0,0,0-0.1,0.1-0.1c0,0,0,0,0,0
		c0.1,0,0.5,0.2,1,0.2c0.4,0,0.7-0.1,0.7-0.5c0-0.4-0.3-0.4-0.8-0.5c-0.5-0.1-1.2-0.2-1.2-1c0-0.9,0.8-1.1,1.4-1.1
		c0.6,0,1,0.1,1.1,0.1c0.1,0,0.1,0,0.1,0.1l-0.1,0.4c0,0,0,0.1-0.1,0.1c-0.1,0-0.5-0.1-0.9-0.1c-0.4,0-0.7,0.1-0.7,0.5
		c0,0.4,0.4,0.4,0.8,0.5c0.6,0.1,1.2,0.2,1.2,1.1C-30.7,28.9-31.4,29.2-32.2,29.2L-32.2,29.2z"/>
	<path class="st9" d="M-109.8,2.8c0,0,0.4-0.6,1.1-0.6l4.8,0c0,0,0.7,0,1.1,0.6l2.4,4.1c0,0,0.4,0.6,0,1.3l-2.4,4.1
		c0,0-0.4,0.6-1.1,0.6l-4.8,0c0,0-0.7,0-1.1-0.6l-2.4-4.1c0,0-0.4-0.6,0-1.3L-109.8,2.8L-109.8,2.8z"/>
	<path class="st9" d="M-109.8-9.7c0,0,0.4-0.6,1.1-0.6l4.8,0c0,0,0.7,0,1.1,0.6l2.4,4.1c0,0,0.4,0.6,0,1.3l-2.4,4.1
		c0,0-0.4,0.6-1.1,0.6l-4.8,0c0,0-0.7,0-1.1-0.6l-2.4-4.1c0,0-0.4-0.6,0-1.3L-109.8-9.7L-109.8-9.7z"/>
</g>
<path class="st10" d="M198,160.5c-26.6,0-48.2,21.6-48.2,48.2s21.6,48.2,48.2,48.2s48.2-21.6,48.2-48.2S224.5,160.5,198,160.5z
	 M198,245.6c-8.1,0-15.7-2.7-21.8-7.1l15.8-15.8H176l-7.8,7.8c-4.5-6.1-7.1-13.6-7.1-21.8c0-20.4,16.6-36.9,36.9-36.9
	c8.1,0,15.7,2.7,21.8,7.1L204,194.7h15.9l7.8-7.8c4.5,6.1,7.1,13.6,7.1,21.8C234.9,229,218.3,245.6,198,245.6z"/>
<path class="st11" d="M-60.9,91.5h-86.2v20.1c0,3.1,2.6,5.7,5.7,5.7h55.6C-58.6,117.3-60.9,95.3-60.9,91.5 M-56.1,91.5v-33
	c0-5-4.1-9.1-9.1-9.1h-77.5c-5,0-9.1,4.1-9.1,9.1v33v21.2c0,5,4.1,9.1,9.1,9.1h55.5c11,0,20.3-3.3,25-9.1
	C-58,107.5-56.1,100.3-56.1,91.5z"/>
<g id="XMLID_186_">
	<g id="XMLID_189_">
		<path id="XMLID_190_" class="st12" d="M86.1,67c-0.1,0-0.1,0-0.2,0c-0.4-0.1-0.6-0.5-0.5-0.9c3.3-10.4,1.8-21.7-4-30.9
			c-5.1-8.2-13.2-14-22.6-16.4c-0.4-0.1-0.6-0.5-0.5-0.9c0.1-0.4,0.5-0.6,0.9-0.5c9.8,2.4,18.1,8.5,23.4,17c6,9.6,7.5,21.3,4.1,32.1
			C86.6,66.8,86.4,67,86.1,67z"/>
	</g>
	<g id="XMLID_187_">
		<path id="XMLID_188_" class="st12" d="M13.4,66.7c-0.3,0-0.6-0.2-0.7-0.5C8.8,53.3,12,39,21.2,28.9c0.3-0.3,0.7-0.3,1,0
			c0.3,0.3,0.3,0.7,0,1c-8.8,9.7-11.9,23.4-8.1,35.9c0.1,0.4-0.1,0.8-0.5,0.9C13.6,66.7,13.5,66.7,13.4,66.7z"/>
	</g>
</g>
<g>
	<path class="st13" d="M20.3,74c0-0.1,0-0.1,0-0.2l-0.4-0.9c0-0.1-0.1-0.1-0.2-0.1l-4.4,0.3l2.7-3.5c0-0.1,0.1-0.2,0-0.2l-0.4-0.9
		c0-0.1-0.1-0.1-0.2-0.1c-0.1,0-0.1,0-0.2,0.1L12.8,74c-0.1,0.1-0.1,0.2,0,0.2l0,0.1c0,0.1,0.1,0.1,0.2,0.1c0,0,0,0,0,0l7-0.4
		C20.2,74.1,20.2,74.1,20.3,74z"/>
	<path class="st13" d="M19.7,77.5l1.1-0.9l1.7,2.2c0.1,0.1,0.2,0.1,0.3,0l0.6-0.5c0.1-0.1,0.1-0.2,0-0.3l-2.4-3c0,0-0.1-0.1-0.2-0.1
		c-0.1,0-0.1,0-0.2,0l-4.9,3.8c0,0-0.1,0.1-0.1,0.2c0,0.1,0,0.1,0,0.2l2.4,3c0,0.1,0.1,0.1,0.2,0.1c0,0,0,0,0,0c0.1,0,0.1,0,0.1,0
		l0.6-0.5c0,0,0.1-0.1,0.1-0.2c0-0.1,0-0.1,0-0.2l-1.7-2.2l1.2-0.9l1.4,1.8c0.1,0.1,0.2,0.1,0.3,0l0.6-0.5c0.1-0.1,0.1-0.2,0-0.3
		L19.7,77.5z"/>
	<path class="st13" d="M26.4,85.5c0-0.1,0-0.1-0.1-0.2L25,84.1c0,0-0.1-0.1-0.2-0.1c-0.1,0-0.1,0-0.2,0.1l-0.5,0.6
		c0,0-0.1,0.1-0.1,0.2c0,0.1,0,0.1,0.1,0.2l0.5,0.5L24.3,86c-0.2-0.1-0.6-0.2-0.9-0.6c-0.9-0.8-0.9-2.1-0.1-3c0.8-0.9,2.1-1,3-0.2
		c0.4,0.3,0.6,0.8,0.7,1.3c0,0.1,0.1,0.2,0.2,0.2l0.8-0.1c0.1,0,0.1,0,0.2-0.1c0,0,0.1-0.1,0.1-0.2c-0.1-0.9-0.5-1.7-1.2-2.2
		c-0.7-0.6-1.6-0.9-2.5-0.9c-0.9,0.1-1.8,0.5-2.4,1.2c-0.6,0.7-0.9,1.6-0.9,2.5c0.1,0.9,0.5,1.8,1.2,2.4c1,0.9,2.2,1.1,2.2,1.1
		c0,0,0,0,0,0c0.1,0,0.1,0,0.2-0.1l1.6-1.8C26.4,85.6,26.5,85.5,26.4,85.5z"/>
	<path class="st13" d="M32.1,84.9c-0.1,0-0.1-0.1-0.2,0l-5.8,4c-0.1,0-0.1,0.1-0.1,0.2c0,0.1,0,0.1,0.1,0.2l0.7,0.4
		c0.1,0.1,0.3,0.1,0.4,0l0.9-0.6l2.4,1.4l-0.1,1.1c0,0.2,0,0.3,0.2,0.4l0.7,0.4c0,0,0.1,0,0.1,0c0,0,0.1,0,0.1,0
		c0.1,0,0.1-0.1,0.1-0.2l0.7-7C32.3,85.1,32.3,85,32.1,84.9L32.1,84.9z M30.8,87.1l-0.2,2.1l-1.5-0.9L30.8,87.1z"/>
	<path class="st13" d="M41,88.9c0-0.1-0.1-0.1-0.1-0.1l-0.8-0.3c-0.1,0-0.1,0-0.2,0c-0.1,0-0.1,0.1-0.1,0.1l-1.2,3.6l-2.3-5.1L36,87
		c-0.1,0-0.1,0-0.2,0c-0.1,0-0.1,0.1-0.1,0.1l-2.1,6c0,0.1,0,0.3,0.1,0.3l0.8,0.3c0.1,0,0.3,0,0.3-0.1l1.3-3.7l2.3,5.3l0,0l0.2,0.1
		c0,0,0.1,0,0.1,0c0,0,0.1,0,0.1,0c0.1,0,0.1-0.1,0.1-0.1l2.1-6C41,89.1,41,89,41,88.9z"/>
</g>
<g>
	<path class="st13" d="M49.7,89.9l-3.8-0.3c-0.1,0-0.2,0.1-0.2,0.2l-0.4,6.2c0,0.1,0,0.1,0.1,0.2c0,0,0.1,0.1,0.2,0.1l0.9,0.1
		c0,0,0,0,0,0c0.1,0,0.1,0,0.2-0.1c0,0,0.1-0.1,0.1-0.2l0.2-2.3l2.3,0.2c0.1,0,0.1,0,0.2-0.1c0,0,0.1-0.1,0.1-0.2l0.1-0.8
		c0-0.1,0-0.1-0.1-0.2c0,0-0.1-0.1-0.2-0.1l-2.3-0.2l0.1-1.7l2.7,0.2c0.1,0,0.1,0,0.2-0.1c0,0,0.1-0.1,0.1-0.2l0.1-0.8
		C49.9,90.1,49.8,89.9,49.7,89.9z"/>
	<path class="st13" d="M55.3,93.5c0.8-0.5,1.3-1.2,1.2-2.1c-0.1-1.1-1.2-2-2.3-1.8l-2.7,0.3c-0.1,0-0.2,0.1-0.2,0.3l0.7,6.2
		c0,0.1,0,0.1,0.1,0.2c0,0,0.1,0.1,0.1,0.1c0,0,0,0,0,0l0.9-0.1c0.1,0,0.2-0.1,0.2-0.3L53,93.9l1-0.1l1.5,2.3c0,0,0.1,0.1,0.2,0.1
		l1-0.1c0.1,0,0.2-0.1,0.2-0.1c0-0.1,0-0.2,0-0.2L55.3,93.5z M55.1,91.6c0.1,0.5-0.3,0.9-0.8,1l-1.5,0.2L52.7,91l1.5-0.2
		C54.6,90.8,55.1,91.1,55.1,91.6z"/>
	<path class="st13" d="M59.1,88.7c-0.1,0-0.1,0-0.2,0L58,88.9c-0.1,0-0.2,0.2-0.2,0.3l1.6,6.1c0,0.1,0.1,0.1,0.1,0.1
		c0,0,0.1,0,0.1,0c0,0,0,0,0.1,0l0.9-0.2c0.1,0,0.1-0.1,0.1-0.1c0-0.1,0-0.1,0-0.2l-1.6-6.1C59.2,88.8,59.1,88.7,59.1,88.7z"/>
	<path class="st13" d="M67.2,91.7c0-0.1-0.1-0.1-0.1-0.1c-0.1,0-0.1,0-0.2,0l-2.5,1l-0.6-1.4l2.1-0.9c0.1,0,0.2-0.2,0.1-0.3
		l-0.3-0.7c0-0.1-0.2-0.2-0.3-0.1L63.3,90l-0.5-1.3l2.5-1c0.1,0,0.2-0.2,0.1-0.3l-0.3-0.7c0-0.1-0.2-0.2-0.3-0.1L61.3,88
		c-0.1,0-0.2,0.2-0.1,0.3l2.4,5.8c0,0.1,0.1,0.1,0.1,0.1c0,0,0.1,0,0.1,0c0,0,0.1,0,0.1,0l3.6-1.4c0.1,0,0.1-0.1,0.1-0.1
		c0-0.1,0-0.1,0-0.2L67.2,91.7z"/>
</g>
<g>
	<path class="st13" d="M71.3,82.9c0,0-0.1-0.1-0.1-0.1c-0.1,0-0.1,0-0.2,0l-0.7,0.5c-0.1,0.1-0.1,0.2-0.1,0.3l2.1,3.2l-5.5-1.3l0,0
		l-0.2,0.1c0,0-0.1,0.1-0.1,0.1c0,0.1,0,0.1,0,0.2l3.5,5.3c0,0,0.1,0.1,0.1,0.1c0,0,0,0,0.1,0c0,0,0.1,0,0.1,0l0.7-0.5
		c0.1-0.1,0.1-0.2,0.1-0.3l-2.2-3.3l5.6,1.4l0,0l0.2-0.1c0.1-0.1,0.1-0.2,0.1-0.3L71.3,82.9z"/>
	<path class="st13" d="M76.7,78.8C76.7,78.8,76.7,78.8,76.7,78.8c-0.9,0-1.8,0.4-2.4,1l-1.6,1.6c0,0-0.1,0.1-0.1,0.2
		c0,0.1,0,0.1,0.1,0.2l4.4,4.4c0,0,0.1,0.1,0.2,0.1c0.1,0,0.1,0,0.2-0.1l1.6-1.6c0.6-0.6,1-1.5,1-2.4c0-0.9-0.4-1.7-1-2.4
		C78.5,79.1,77.6,78.8,76.7,78.8z M78.1,83.7l-0.7,0.7l-3-3l0.7-0.7c0.8-0.8,2.1-0.8,3,0C79,81.6,79,82.8,78.1,83.7z"/>
	<path class="st13" d="M84.5,76.2c-0.1-0.1-0.3,0-0.3,0.1l-1.3,1.9l-4.3-3c0,0-0.1,0-0.2,0c-0.1,0-0.1,0-0.1,0.1L77.7,76
		c0,0.1,0,0.1,0,0.2c0,0.1,0,0.1,0.1,0.1l5.1,3.6c0,0,0.1,0,0.1,0c0,0,0,0,0,0c0.1,0,0.1,0,0.1-0.1l2-2.8c0-0.1,0-0.1,0-0.2
		c0-0.1,0-0.1-0.1-0.2L84.5,76.2z"/>
	<path class="st13" d="M87.1,72.8l-2.7-1.3l-1.8-3.3c0-0.1-0.1-0.1-0.2-0.1c-0.1,0-0.2,0.1-0.2,0.1L81.8,69c0,0.1,0,0.1,0,0.2
		l1.2,2.3l-2.5,0.4c-0.1,0-0.1,0.1-0.2,0.1l-0.4,0.9c0,0.1,0,0.2,0,0.2c0,0.1,0.1,0.1,0.2,0.1l3.8-0.5l2.7,1.3c0,0,0.1,0,0.1,0
		c0.1,0,0.2,0,0.2-0.1l0.4-0.8C87.3,73,87.2,72.9,87.1,72.8z"/>
</g>
<g id="XMLID_5_">
	<path id="XMLID_97_" class="st13" d="M31.2,2.6c-0.6,16.7-10.2,24.4-4.3,47.9c4.9,19.3,19.8,29,26.6,32.5
		C53.7,50.4,36,16.8,36,16.8c18.1,29.5,22.9,53.5,24.1,63c4.5-7.1,11.4-21.8,6.9-39.5C61,16.8,32.8,2.5,31.2,2.6z"/>
</g>
<g>
	<path class="st14" d="M184.9,209.3c0,6-4.2,9.7-9.7,9.7c-6.2,0-10.7-4.6-10.7-10.3c0-5.7,4.5-10.3,10.4-10.3c3.8,0,7,1.9,8.6,4.5
		l-3.8,2.2c-0.8-1.3-2.6-2.3-4.8-2.3c-3.3,0-5.8,2.5-5.8,5.9c0,3.4,2.4,5.8,6.2,5.8c2.6,0,4.4-1.2,5.1-3.1H175v-4h9.9V209.3z"/>
	<path class="st14" d="M207.3,218.6h-4.5v-11.5l-5.1,8.4h-0.5l-5.1-8.4v11.5h-4.5v-19.8h4.5l5.4,8.8l5.4-8.8h4.5V218.6z"/>
	<path class="st14" d="M209.8,208.7c0-5.8,4.6-10.3,10.3-10.3c5.7,0,10.3,4.5,10.3,10.3s-4.6,10.3-10.3,10.3
		C214.4,219,209.8,214.5,209.8,208.7z M225.9,208.7c0-3.5-2.5-5.9-5.8-5.9s-5.8,2.3-5.8,5.9c0,3.5,2.5,5.9,5.8,5.9
		S225.9,212.2,225.9,208.7z"/>
</g>
<g>
	<path class="st15" d="M-131.9,98.9v11.6h-2l-4.5-6.3v6.3h-2.7V98.9h2l4.5,6.3v-6.3H-131.9z"/>
	<path class="st15" d="M-123.1,108.6h-4.3l-0.6,1.8h-2.9l3.9-11.6h3.4l3.9,11.6h-2.9L-123.1,108.6z M-123.9,106.2l-1.4-4.3l-1.4,4.3
		H-123.9z"/>
	<path class="st15" d="M-111.6,101.4h-3v9.1h-2.7v-9.1h-3v-2.6h8.6V101.4z"/>
	<path class="st15" d="M-110.6,106.7v-7.9h2.7v7.6c0,0.9,0.4,1.6,1.8,1.6s1.8-0.7,1.8-1.6v-7.6h2.7v7.9c0,2.5-1.9,4-4.5,4
		S-110.6,109.2-110.6,106.7z"/>
	<path class="st15" d="M-95.8,106.7H-97v3.8h-2.7V98.9h4.6c2.2,0,4,1.8,4,4c0,1.4-0.9,2.7-2.1,3.4l2.5,4.3h-2.9L-95.8,106.7z
		 M-97,104.3h2c0.7,0,1.3-0.6,1.3-1.5s-0.6-1.5-1.3-1.5h-2V104.3z"/>
	<path class="st15" d="M-82.7,108.6H-87l-0.6,1.8h-2.9l3.9-11.6h3.4l3.9,11.6h-2.9L-82.7,108.6z M-83.5,106.2l-1.4-4.3l-1.4,4.3
		H-83.5z"/>
	<path class="st15" d="M-71.4,107.9v2.6h-6.8V98.9h2.7v9.1H-71.4z"/>
</g>
<g>
	<path class="st1" d="M-134.4,60.4v23.3h-5.3V66l-4.1,1.1l-1.3-4.6l6.1-2.2H-134.4z"/>
	<path class="st1" d="M-131.1,72c0-7.2,3.5-12.1,9.5-12.1c6,0,9.5,4.9,9.5,12.1c0,7.2-3.5,12.1-9.5,12.1
		C-127.6,84.2-131.1,79.2-131.1,72z M-117.4,72c0-4.5-1.4-6.9-4.2-6.9c-2.8,0-4.2,2.4-4.2,6.9c0,4.5,1.4,6.9,4.2,6.9
		C-118.7,79-117.4,76.5-117.4,72z"/>
	<path class="st1" d="M-110,72c0-7.2,3.5-12.1,9.5-12.1c6,0,9.5,4.9,9.5,12.1c0,7.2-3.5,12.1-9.5,12.1C-106.6,84.2-110,79.2-110,72z
		 M-96.4,72c0-4.5-1.4-6.9-4.2-6.9s-4.2,2.4-4.2,6.9c0,4.5,1.4,6.9,4.2,6.9S-96.4,76.5-96.4,72z"/>
	<path class="st1" d="M-89.3,65.6c0-3.1,2.5-5.7,5.8-5.7c3.3,0,5.8,2.4,5.8,5.7c0,3.1-2.5,5.7-5.8,5.7
		C-86.9,71.2-89.3,68.7-89.3,65.6z M-71.5,63.4l2.2,1.3l-15.1,16.7l-2.2-1.3L-71.5,63.4z M-81.8,65.6c0-1-0.7-1.8-1.8-1.8
		c-1,0-1.8,0.8-1.8,1.8s0.7,1.8,1.8,1.8C-82.5,67.4-81.8,66.5-81.8,65.6z M-77.4,78.4c0-3.1,2.5-5.7,5.8-5.7c3.3,0,5.8,2.5,5.8,5.7
		c0,3.1-2.5,5.7-5.8,5.7C-75,84.1-77.4,81.6-77.4,78.4z M-69.9,78.4c0-1-0.7-1.8-1.8-1.8c-1,0-1.8,0.8-1.8,1.8c0,1,0.7,1.8,1.8,1.8
		C-70.6,80.3-69.9,79.4-69.9,78.4z"/>
</g>
</svg>
