<svg id="Layer_1" data-name="Layer 1" xmlns="http://www.w3.org/2000/svg" viewBox="0 0 50.14 26.759"><defs><style>.cls-1{fill:#91a954;}.cls-2{fill:#9db858;}.cls-3{fill:#82a149;}.cls-4{fill:#8ba667;}.cls-5{fill:#96af52;}.cls-6{fill:#7e9962;}.cls-7{fill:#618530;}.cls-8{fill:#b7c58a;}.cls-9{fill:#8da749;}.cls-10{fill:#9cb387;}.cls-11{fill:#9fb866;}.cls-12{fill:#5a7d2b;}.cls-13{fill:#94b044;}.cls-14{fill:#89a255;}.cls-15{fill:#638759;}.cls-16{fill:#7a9675;}.cls-17{fill:#5d8148;}.cls-18{fill:#6e9141;}.cls-19{fill:#8fa943;}.cls-20{fill:#8ba73e;}.cls-21{fill:#88a335;}.cls-22{fill:#90ab34;}.cls-23{fill:#87a425;}.cls-24{fill:#496c00;}.cls-25{fill:#587420;}.cls-26{fill:#496526;}.cls-27{fill:#68904d;}.cls-28{fill:#557110;}.cls-29{fill:#91ac48;}.cls-30{fill:#9ec26e;}.cls-31{fill:#a9c65f;}</style></defs><title>Site</title><path class="cls-1" d="M18.4,19.138l-.278.093c-.405.071-.81.139-1.212.222-.025,0-.024.132-.035.2l-.267.084c-.605-.061-1.242-.277-1.7.378-.028.04-.2-.02-.3-.033a.759.759,0,0,1,.664-.785c.242-.048.452-.306.655-.493.118-.109.165-.34.293-.388.41-.157.27-.432.21-.7L16.5,17.4l.281.343c.518-.46.95-.868,1.41-1.241a10.621,10.621,0,0,1,.92-.61c.129.419.452.362.761.338-.193-.26-.406-.471-.759-.341-.017-.485.475-.583.683-.9.142-.075.334-.251.417-.209.51.257.97,0,1.446-.082l.952-.368.455.039.414.5.072.547-.723.236a2.161,2.161,0,0,0,.019.3c.139.644.273.7.845.359.2-.119.4-.243.609-.374l-.092-.5c.34-.118.4-.293.242-.643-.173-.387-.551-.374-.823-.559l.424-.1a4.254,4.254,0,0,0,.655-.226c.363-.191.7-.419,1.056-.631l.085.285-.456.584a1.964,1.964,0,0,1,.634.013c.155.074.259.248.4.365.047.039.132.034.2.048.487.1.94-.23,1.186-.873l.458.043c-.054.293-.009.682-.181.857a1.354,1.354,0,0,1-1.418.443,1.8,1.8,0,0,0-1.016.137,3.857,3.857,0,0,0-.781.516l.234.521-.392.732-.984.235c-.123-.07-.25-.206-.368-.2-.537.033-1.071.106-1.644.168l-.262-.44-1.033.243c0,.249,0,.478,0,.707-.1.11-.238.332-.306.313-.567-.159-.824.238-1.094.609-.5-.316-.889-.139-1.351.155C17.973,18.9,18.4,18.662,18.4,19.138Z"/><path class="cls-2" d="M3.43,14.85a.23.23,0,0,1,.114-.055l1.424-.327c.365.141.7.456,1.121.172.3,1.018.167,1.222-1.036,1.639-.159.56-.141.63.39,1.477a2.8,2.8,0,0,1,1.72-.773l.118.358a1.45,1.45,0,0,1-1.226.9c-.036,0-.07.057-.136.116.03.206.063.436.074.514a5.606,5.606,0,0,0-1.171,3.8c.082.123.148.334.249.352a.4.4,0,0,0,.49-.375l.56-.134.1.421,0,0c-.4.144-.8.285-1.2.432-.086.032-.213.07-.236.135-.126.354-.461.287-.714.384l-.136-.564.075-.312c.071-.054.2-.107.2-.16,0-.553-.019-1.105-.032-1.658.07-.056.195-.105.2-.168.045-.364.062-.731.089-1.1l.072-.314a2.309,2.309,0,0,1,.159-.826c.387-.595.14-1.02-.272-1.428a4.07,4.07,0,0,0-.654-.541c-.106-.068-.281-.027-.521-.041l.48.648c-.129.128-.266.249-.384.387a.916.916,0,0,0-.251.377,1.192,1.192,0,0,0,.921,1.1l.1.42c-.176-.049-.353-.095-.528-.148-.2-.061-.394-.127-.591-.191-.047-.532-.662-.359-.906-.694a1.148,1.148,0,0,0,.2-.229c.185-.424.37-.853.036-1.294a2.047,2.047,0,0,1,.281-.608A2.576,2.576,0,0,0,3.43,14.85Zm.014,1.374c.586.088.731-.243.874-.532a.388.388,0,0,0-.125-.362.388.388,0,0,0-.378.059A6.606,6.606,0,0,0,3.444,16.224Z"/><path class="cls-3" d="M31.44,15.317l-.839.159-.039-.2.072-.313q.181-.489.365-.978h0l1.058-.249c.026-.213.051-.412.076-.611l.142-.037c.358-.244.929-.256.974-.926l-.468-.086c-.094-.075-.188-.15-.282-.227l-.278-.232-.034-.146h.729l.737.509c.16.3.16.3.444.311l-.3-.3-.021-.037.587-.1.276-.069.28-.066.647-.459.062-.016.063-.01c.155.164.27.31.083.551-.093.12-.155.388-.086.479a.562.562,0,0,0,.491.167c.134-.036.232-.251.319-.4.218-.376-.242-.588-.236-.916-.1-.279-.068-.488.289-.509l.332-.07.3.075q.136.253.271.507l.025.744c.315-.125.691.018.651-.465l.65.31.036.143.032.14-.456.507a2.283,2.283,0,0,0-1.482.1c-.343.156-.667.373-.55.849l-.386.25-.273.065c-.124-.342-.247-.684-.388-1.074l-.487.072c-.054-.23-.1-.429-.152-.649-.33.3-.33.3.039,1.885l-.42.1c-.118-.08-.294-.136-.341-.246a4.673,4.673,0,0,1-.191-.754c-.164.007-.256.017-.348.015-.735-.009-.908.2-.766.93.046.235.108.466.163.7-.35.085-.707.151-1.047.265C31.637,15.058,31.548,15.213,31.44,15.317Z"/><path class="cls-4" d="M36.362,13.456c-.117-.476.207-.693.55-.849a2.283,2.283,0,0,1,1.482-.1L38.85,12c.076.069.2.209.222.194.234-.152.52-.289.407-.66l.1-.157c.485.177.85-.077,1.234-.4.111.485.412.3.679.251h0c.063.118.1.306.193.341a2.125,2.125,0,0,0,1.611-.774c.027-.077-.025-.183-.041-.275L43.5,10.3c.393-.215.8-.412,1.176-.653a.732.732,0,0,0,.428-.75,3.219,3.219,0,0,1,1.722-.867l.186.132c.008.039.017.079.026.118-.428.287-1.072.3-1.2.968-.008.043-.112.077-.176.1-.44.157-.484.521-.516.91.566-.005.586.008.858-.4.156-.233.319-.132.495-.1.035.176.071.352.106.529l-.518.29c-.06-.029-.152-.1-.177-.082-.419.308-.929.206-1.389.323l-.075-.283c-.188-.175-.328-.137-.422.1-.118.126-.243.247-.351.381a3.741,3.741,0,0,0-.225.351c-.127.126-.235.33-.384.366-.785.19-1.581.343-2.375.5a4.2,4.2,0,0,0-1.183.733l-.7.187A3.837,3.837,0,0,0,36.362,13.456Zm8.391-3.077.037.014,0-.035Z"/><path class="cls-5" d="M7.281,17.341l-.118-.358a2.8,2.8,0,0,0-1.72.773c-.531-.847-.549-.917-.39-1.477,1.2-.417,1.337-.621,1.036-1.639-.424.284-.756-.031-1.121-.172l.077-.316.252-.08,1.857-.415a1.193,1.193,0,0,0,.412-.117.652.652,0,0,1,.892.052c-.156.34-.156.34-.323.363-.525.073-.687.294-.4.732a1.744,1.744,0,0,1,.169.875c-.423.194-.258.4-.006.6l.057.876C7.937,17.594,7.563,17.367,7.281,17.341Z"/><path class="cls-6" d="M30.1,2.127a1.614,1.614,0,0,1,1.555-.677,2.05,2.05,0,0,0,1.188-.393A4.652,4.652,0,0,1,34.786.028a5.013,5.013,0,0,1,1.569.109c.055.153-.258.864-.179,1.11.956-.511,1.874-1.08,2.968-.6.1.382.378.166.588.177l.032.025c.011.024.022.048.034.071l.08.282.233.3c.005.038.009.076.012.113l-.569.122c-.224-.455-.471-.165-.726-.058.128.362.244.687.359,1.012l-.118.17-1.1.3c-.354.026-.472-.126-.217-.389a5.3,5.3,0,0,1,.719-.554c.1-.475.18-.852.282-1.335l-.7.165h0C38,.8,37.813.74,37.653.862c-.1.077-.1.292-.143.445l-.268.075c-.4-.08-.788-.149-.953.368l-.457-.033-.174-.108-.16-.384-.124.019-.008.419-.479.428c-.1-.358-.4-.294-.659-.3-.013-.043-.026-.086-.037-.13v0c.217-.258.513-.487.328-.946-.223.122-.486-.21-.674.129-.423.109-.87.183-1.034.685l-.131.04-.942.355a.6.6,0,0,0-1,.248l-.576,0Z"/><path class="cls-7" d="M26.888,3.5l.1-.165.435-.1c.187.375.362.759.571,1.122.051.088.217.11.33.163a1.017,1.017,0,0,0,1.117-.5c.142-.253.509-.38.835-.606l-.037-.244.556-.13c.054.2.065.411.381.371.107-.013.233.131.35.2a2.344,2.344,0,0,0-1.614,2.012,1.268,1.268,0,0,0-.134.037l-.973.236c-.071-.317-.29-.244-.5-.192-.031-.277-.063-.555-.095-.842a1.084,1.084,0,0,0-1.081.07,6.328,6.328,0,0,1-.85.358c-.047-.189-.093-.377-.139-.566v0l.115-.173q.075-.252.152-.5h0c.22-.02.446-.033.389-.356Zm.3.174-.035-.015,0,.035Z"/><path class="cls-8" d="M11.048,21.348c-1.028.445-2.09.827-3.075,1.353a10.2,10.2,0,0,0-3.344,2.9,3.142,3.142,0,0,1-.352.339c.066-.414.115-.832.2-1.241a1.143,1.143,0,0,1,.813-.979c.366-.119.857-.241.928-.779l0,0c.313-.059.229-.279.194-.479l.124-.033.432-.1c.192-.055.426-.07.359-.374l.136-.061.064-.009.062-.018.292-.063v0l.272.223.15-.321.566-.135c.289.169.468-.109.7-.171l.954-.357Z"/><path class="cls-7" d="M40.123,1.609c0-.037-.007-.075-.012-.113l.949-.259.241.187.051-.26.281-.057c.247.207.247.207.3-.03l.3.012c.12.159.215.145.287-.039a.274.274,0,0,1,.123-.025.271.271,0,0,0,.046.111l.024.742c-.507.3-.1.572-.024.864.369-.035.456-.221.408-.5l.277-.07.326.074c.008.047.015.094.022.141l-.351.382v0c-.3.135-.3.135-.071.31q.078.352.154.7l-.005.594-.388.24c-.034-.14-.067-.281-.1-.421l-.513-.919a2.51,2.51,0,0,1-.256-1.554c.011-.041-.063-.122-.116-.159a.985.985,0,0,0-.253-.077l-.151.491c-.31-.059-.554-.333-.662.127.329.331.827.579.839,1.162l-.18.489c-.1-.116-.2-.226-.287-.349a.433.433,0,0,0-.581-.187l-.306-.671Q40.305,2.081,40.123,1.609Z"/><path class="cls-9" d="M24.716,16.95l.392-.732-.234-.521a3.857,3.857,0,0,1,.781-.516,1.8,1.8,0,0,1,1.016-.137,1.354,1.354,0,0,0,1.418-.443c.172-.175.127-.564.181-.857l.346.2c.238.439-.017.875-.02,1.313,0,.308-.588.724-.868.662-.378-.084-.749-.2-1.205-.328-.1.3-.2.579-.292.857l.037.149-1.253.4Z"/><path class="cls-10" d="M42.683,1.136a.271.271,0,0,1-.046-.111,2.245,2.245,0,0,1,1.61.119c.118.03.64,0,.629.152a5.2,5.2,0,0,1-.1.576c-.183.43-.357.538-.216.756.132.2.525.238.8.344a1.291,1.291,0,0,1,.2.064q1.588.974,3.172,1.956c.052.032.07.121.105.184L48.2,5.04l-.657-.3c-.2-.2-.4-.326-.607-.013l-.279.063-.435-.038c-.2-.432-.634-.424-1.008-.527-.045-.168-.089-.336-.134-.505.306-.165.322-.334-.014-.468a1.656,1.656,0,0,0-.415-.053l0,0-.166-.1c-.482-.006-.618-.18-.492-.61.076-.259.135-.523.192-.748a5.92,5.92,0,0,0-.707-.4A6.929,6.929,0,0,0,42.683,1.136Z"/><path class="cls-9" d="M7.9,15.562a1.744,1.744,0,0,0-.169-.875c-.284-.438-.122-.659.4-.732.167-.023.167-.023.323-.363a.652.652,0,0,0-.892-.052,1.193,1.193,0,0,1-.412.117l.172-.507a.182.182,0,0,1,.134-.028c.427.05.853.1,1.281.145.061.005.127-.055.192-.079.242-.09.485-.177.727-.265.053.213-.076.268-.243.361-.514.287-.591.577-.3,1.174.234-.163.455-.318.677-.47.239-.165.426-.5.8-.249l-.559.538.2.578-1.211.285c-.058.27.122.46.377.559.313.122.331.354.314.622L8.444,15.274C8.33,15.264,8.269,15.813,7.9,15.562Z"/><path class="cls-11" d="M6.22,22.939c-.071.538-.562.66-.928.779a1.143,1.143,0,0,0-.813.979c-.087.409-.136.827-.2,1.241l-.008,0-1.028.186a5.451,5.451,0,0,0,.142-.807A6.01,6.01,0,0,0,3.3,24.5l-.252.062-.429.084a2.106,2.106,0,0,0-.522.014c-.325.091-.407-.091-.454-.342a3.26,3.26,0,0,0,1.978-.474l.311.081.143-.032,0,0c.253-.1.588-.03.714-.384.023-.065.15-.1.236-.135C5.421,23.224,5.821,23.083,6.22,22.939Z"/><path class="cls-12" d="M24.555,5.453l.214-.258c.07.081.141.161.211.241l.632.781a1.2,1.2,0,0,0-.488,1.137c-.306.056-.633.094-.458.55-.655-.044-.876.615-1.428.951.062-.349.1-.582.156-.878l-.481.043-.138-.566.54-.265.52.174.156-.475.244-.213.617-.582C24.75,5.873,24.653,5.663,24.555,5.453Z"/><path class="cls-3" d="M26.231,16.449c.095-.278.189-.556.292-.857.456.126.827.244,1.205.328.28.062.866-.354.868-.662,0-.438.258-.874.02-1.313l.877-.048c.107.535.359,1.063.084,1.617l.046.186-2.666.705c-.186-.141-.324-.106-.412.114l-.14.039Z"/><path class="cls-13" d="M2.335,17.161c.334.441.149.87-.036,1.294a1.148,1.148,0,0,1-.2.229c.244.335.859.162.906.694.024.067.029.154.075.2.576.534.181,1.193.235,1.792,0,.015-.081.037-.124.056-.252-.045-.31-.165-.316-.444a2.549,2.549,0,0,0-.892-1.942c-.222.161-.407.3-.592.432l-.107-.429a2.627,2.627,0,0,0,.2-.508,1.072,1.072,0,0,0-.082-.387l.1-.178L1.77,17.9l.518-.122-.307-.227Z"/><path class="cls-10" d="M11.048,21.348l-.518-.306L10.5,20.9l2.7-.491c.27-.024.542-.033.807-.079a1.1,1.1,0,0,0,.321-.18l.279-.062c.105.013.276.073.3.033.453-.655,1.09-.439,1.7-.378a9.545,9.545,0,0,1-1.392.61C13.834,20.714,12.438,21.019,11.048,21.348Z"/><path class="cls-10" d="M39.505,12.961a4.2,4.2,0,0,1,1.183-.733c.794-.156,1.59-.309,2.375-.5.149-.036.257-.24.384-.366a5.922,5.922,0,0,0,.822-.208c.11-.043.169-.22.251-.337.46-.117.97-.015,1.389-.323.025-.018.117.053.177.082a5.249,5.249,0,0,1-2.061,1.059c-.865.334-1.777.548-2.671.807C40.74,12.622,40.122,12.789,39.505,12.961Z"/><path class="cls-4" d="M23.315,7.189l-.54.265-.981.239-.832.209q-.176.249-.349.5c-.213.148-.674-.052-.631.452l-.556.132a.56.56,0,0,0-.714-.575c-.258.027-.519.015-.779.02a1.28,1.28,0,0,1,1.66-.459c.17.083.33.185.487.274.92-.851,2.119-.858,3.2-1.187C23.292,7.1,23.3,7.145,23.315,7.189Z"/><path class="cls-14" d="M18.4,19.138c0-.476-.425-.238-.721-.4.462-.294.854-.471,1.351-.155.27-.371.527-.768,1.094-.609.068.019.2-.2.306-.313l.283-.065c.054.258.229.26.426.194.267-.089.386.061.471.276a4.227,4.227,0,0,1-1.687.6c-.143-.145-.233-.107-.279.081Z"/><path class="cls-3" d="M20.711,17.6l-.283.065c0-.229,0-.458,0-.707l1.033-.243.262.44c.573-.062,1.107-.135,1.644-.168.118-.007.245.129.368.2l.049.247-.419.112c-.191-.14-.328-.1-.41.123l-.994.278c.006-.432-.283-.509-.62-.483A4.476,4.476,0,0,0,20.711,17.6Z"/><path class="cls-15" d="M49.207,7.475c-.141.323-.272.652-.424.97a1.247,1.247,0,0,1-.759.7l-.33.036-.385-.367-.062-.273c.095-.13.484.209.379-.239.417-.163.218-.526.261-.81l.143-.038c.158.046.4.438.418-.1l.277-.074C48.789,7.593,49,7.535,49.207,7.475Z"/><path class="cls-14" d="M11.269,10.914l.139-.175.092-.133.225-.128.412-.3.408-.113L12.837,10l.814-.257.26-.3A.9.9,0,0,1,15.2,9.334a1.494,1.494,0,0,0,.331.136c.011.044.021.087.032.13l-.282.069L13.45,10.1l-.565.131a1.722,1.722,0,0,0-1,.609,3.25,3.25,0,0,1-.557.349Z"/><path class="cls-16" d="M48.2,5.04l.641.136a.488.488,0,0,1,.126.01l.455.6-.933.526c-.057-.186-.132-.3-.331-.123s-.407.331-.611.5a3.428,3.428,0,0,0-.193-.7c-.124-.244-.311-.449.046-.554l.465.422c.085-.155.182-.3.253-.466A1.95,1.95,0,0,0,48.2,5.04Z"/><path class="cls-10" d="M31.44,15.317c.108-.1.2-.259.325-.3.34-.114.7-.18,1.047-.265l1.408-.329c.393,0,.781-.409,1.177-.011-.106.077-.2.2-.318.226q-1.592.393-3.191.753A1.274,1.274,0,0,1,31.44,15.317Z"/><path class="cls-10" d="M36.362,13.456a3.837,3.837,0,0,1,2.448-.308c-.055.069-.1.174-.167.2-.754.288-1.51.57-2.271.838a3.254,3.254,0,0,1-.562.1l.166-.58Z"/><path class="cls-8" d="M1.638,24.318c.047.251.129.433.454.342a2.106,2.106,0,0,1,.522-.014,3.874,3.874,0,0,1-1.212.341A1.05,1.05,0,0,1,.248,23.815C.3,23.321.4,22.832.472,22.34c.044,0,.088-.008.132-.013l.063.287c-.008.2-.017.4-.025.6a6.091,6.091,0,0,0,.068.878c.019.092.216.148.332.221l.429-.08Z"/><path class="cls-17" d="M48.492,6.312l.933-.526.374.22q-.3.735-.592,1.469c-.209.06-.418.118-.482-.191A.876.876,0,0,1,48.492,6.312Z"/><path class="cls-18" d="M9.66,12.923c-.242.088-.485.175-.727.265-.065.024-.131.084-.192.079-.428-.041-.854-.095-1.281-.145l.7-.261,1.129-.342.219-.062.321-.032.4-.232.376-.256.217.262.1.424q.014.068.03.135l-.42.105A.549.549,0,0,0,9.66,12.923Z"/><path class="cls-11" d="M2.335,17.161l-.354.387L1.77,17.9l-.261.069a2.775,2.775,0,0,1,.22-.794c.5-.775,1.04-1.52,1.57-2.274.022-.031.086-.032.131-.048a2.576,2.576,0,0,1-.814,1.7A2.047,2.047,0,0,0,2.335,17.161Z"/><path class="cls-18" d="M17.933,8.43c.26,0,.521.007.779-.02a.56.56,0,0,1,.714.575l-.249.207-.138.03-1.021.1-.49-.18.3-.642A.181.181,0,0,1,17.933,8.43Z"/><path class="cls-8" d="M3.043,24.562,3.3,24.5a6.01,6.01,0,0,1,.088.819,5.451,5.451,0,0,1-.142.807l1.028-.186-.222.819-.961-.338a1.247,1.247,0,0,1-.075-1.106A3.184,3.184,0,0,0,3.043,24.562Z"/><path class="cls-8" d="M.311,21.533a2.108,2.108,0,0,1,.115-1.922c.139-.377.314-.741.489-1.1.034-.071.147-.1.223-.153l.009.718-.1.182-.092.3L.57,20.4l-.03.458c0,.2-.007.4-.011.6Z"/><path class="cls-4" d="M17.833,8.5l-.3.642-.775.48-.283.067-.28.061-.214-.235L15.56,9.6c-.011-.043-.021-.086-.032-.13.211-.048.419-.109.632-.14a1.872,1.872,0,0,0,1.425-.709C17.631,8.554,17.749,8.537,17.833,8.5Z"/><path class="cls-6" d="M29.054,2.419l.062.235.043.323c-.077.111-.154.223-.232.334l-.687.2-.174-.73c-.011-.038-.02-.076-.029-.115l.11-.193c.455-.13.04.493.456.44l.05-.555Z"/><path class="cls-10" d="M9.83,12.425l-.321.032c0-.023,0-.056.015-.068q.872-.739,1.745-1.475l.055.277a.694.694,0,0,0,.024.127l-.1.186h0l-.646.434-.376.256Z"/><path class="cls-4" d="M35.976,13.706l-.166.58-.413.124c-.4-.4-.784.013-1.177.011l.075-.315.42-.1.988-.234Z"/><path class="cls-10" d="M47.694,9.183l.33-.036a2.793,2.793,0,0,1-1.42,1.14c-.035-.177-.071-.353-.106-.529l.129-.032A1.676,1.676,0,0,0,47.694,9.183Z"/><path class="cls-10" d="M29.054,2.419l-.4-.058-.05.555c-.416.053,0-.57-.456-.44l-.155.033-.184,0c.105-.1.193-.249.321-.3.269-.116.559-.185.93-.3Z"/><path class="cls-10" d="M49.8,6.006l-.374-.22-.455-.6c.45-.228.71.208,1.17.289Z"/><path class="cls-11" d="M5.045,14.152l-.077.316L3.544,14.8c.115-.118.21-.294.349-.342C4.267,14.323,4.66,14.249,5.045,14.152Z"/><path class="cls-15" d="M24.555,5.453c.1.21.2.42.3.64l-.617.582L24.167,6.4l.1-.335.065-.168C24.41,5.749,24.482,5.6,24.555,5.453Z"/><path class="cls-6" d="M26.41,4.053q-.076.254-.152.5l-.115.173v0l-.279.069-.756.145Z"/><path class="cls-4" d="M20.711,17.6a4.476,4.476,0,0,1,.627-.137c.337-.026.626.051.62.483l-.35.124c-.085-.215-.2-.365-.471-.276C20.94,17.859,20.765,17.857,20.711,17.6Z"/><path class="cls-10" d="M7.326,13.15l-.172.507L5.3,14.072c.048-.051.09-.14.144-.147A5.829,5.829,0,0,0,7.326,13.15Z"/><path class="cls-10" d="M41.06,1.237l-.949.259-.233-.3c.306-.064.61-.15.919-.183a1.282,1.282,0,0,1,.436.121Z"/><path class="cls-4" d="M23.781,17.432l-.049-.247.984-.235.3.048C24.683,17.369,24.213,17.346,23.781,17.432Z"/><path class="cls-10" d="M16.873,19.655c.011-.07.01-.2.035-.2.4-.083.807-.151,1.212-.222C17.782,19.6,17.3,19.55,16.873,19.655Z"/><path class="cls-15" d="M25.107,4.943l.756-.145-.076.315-.135.033-.395.229-.277.061c-.07-.08-.141-.16-.211-.241Z"/><path class="cls-16" d="M27.808,2.505l.184,0,.045.16c.009.039.018.077.029.115-.212.152-.677-.058-.639.449l-.435.1C26.983,2.784,27.547,2.794,27.808,2.505Z"/><path class="cls-5" d="M.311,21.533l.218-.079.143-.032c.142.165-.225.445.127.562l-.2.343c-.044,0-.088.01-.132.013Q.391,21.937.311,21.533Z"/><path class="cls-10" d="M29.623,15.7l-.046-.186.985-.234.039.2Z"/><path class="cls-15" d="M23.315,7.189c-.011-.044-.023-.087-.036-.131l.55-.236.162.066-.156.475Z"/><path class="cls-11" d="M1.147,19.073l-.009-.718a.284.284,0,0,1,.105-.061l.126-.163.037.013a1.072,1.072,0,0,1,.082.387,2.627,2.627,0,0,1-.2.508Z"/><path class="cls-10" d="M9.29,12.519l-1.129.342A1.221,1.221,0,0,1,9.29,12.519Z"/><path class="cls-6" d="M26.8,3.7c.057.323-.169.336-.389.356l.354-.49C26.774,3.609,26.786,3.654,26.8,3.7Z"/><path class="cls-4" d="M23.991,6.888l-.162-.066.338-.421.068.274Z"/><path class="cls-10" d="M39.732.821c-.21-.011-.489.205-.588-.177C39.374.59,39.61.517,39.732.821Z"/><path class="cls-10" d="M29.159,2.977l-.043-.323.538-.076a1.291,1.291,0,0,1,.037.139l-.11.171Z"/><path class="cls-4" d="M22.952,17.667c.082-.223.219-.263.41-.123Z"/><path class="cls-4" d="M26.545,16.519c.088-.22.226-.255.412-.114Z"/><path class="cls-10" d="M12.137,10.178l-.412.3C11.734,10.2,11.9,10.138,12.137,10.178Z"/><path class="cls-10" d="M41.93,1.077c-.05.237-.05.237-.3.03C41.708.866,41.812.905,41.93,1.077Z"/><path class="cls-6" d="M29.691,2.717a1.291,1.291,0,0,0-.037-.139l.322-.284.069.042C30.12,2.643,29.89,2.665,29.691,2.717Z"/><path class="cls-6" d="M41.06,1.237l.173-.1a.2.2,0,0,1,.119.027l-.051.26Z"/><path class="cls-10" d="M13.911,9.449l-.26.3Z"/><path class="cls-10" d="M19.642,18.752c.046-.188.136-.226.279-.081Z"/><path class="cls-6" d="M42.514,1.05c-.072.184-.167.2-.287.039Z"/><path class="cls-10" d="M12.837,10l-.292.063Z"/><path class="cls-6" d="M29.976,2.294l.122-.167.06.041-.113.168Z"/><path class="cls-8" d="M1.369,18.131l-.126.163Z"/><path class="cls-10" d="M11.5,10.606l-.092.133Z"/><path class="cls-4" d="M24.337,5.9l-.065.168Z"/><path class="cls-10" d="M39.8.917c-.012-.023-.023-.047-.034-.071L39.87.837Z"/><path class="cls-16" d="M26.8,3.7c-.013-.044-.025-.089-.035-.134a.149.149,0,0,1,.124-.062Z"/><path class="cls-4" d="M26.231,16.449l.174.109-.137.04Z"/><path class="cls-19" d="M23.068,14.37l-.455-.039c-.069-.413-.138-.826-.216-1.288l-.926.218a1.31,1.31,0,0,1-.22-.33c-.12-.439-.215-.884-.319-1.327l-.032-.14,1.162-.107c-.072-.3-.121-.511-.169-.717l.708-.166a1.773,1.773,0,0,0,.579,2.257c.073-.29.138-.551.2-.812.431.185.631.648,1.134.811l-.842.563c.131.292.256.567.38.843l-.424.1Z"/><path class="cls-20" d="M20.932,11.6c.1.443.2.888.319,1.327a1.31,1.31,0,0,0,.22.33c-.079.117-.138.312-.24.338-.456.113-.433.409-.348.716.194.306.665-.053.778.384-.476.084-.936.339-1.446.082-.083-.042-.275.134-.417.209q-.165-.7-.331-1.408c.166-.052.338-.124.14-.312a1.658,1.658,0,0,0-.413-.219c0-.579-.012-1.165.72-1.355.007.222.014.445.027.851.254-.226.384-.335.506-.453C20.612,11.934,20.771,11.768,20.932,11.6Z"/><path class="cls-21" d="M19.467,13.582q.166.7.331,1.408c-.208.315-.7.413-.683.9l0,0a10.621,10.621,0,0,0-.92.61c-.46.373-.892.781-1.41,1.241L16.5,17.4l-.03-.14c.187-.3.09-.416-.242-.39l-.035-.141c.156-.328.428-.193.681-.182.355.014.465-.174.348-.5.248-.156.488-.326.744-.466,1.011-.551,1.164-.882.9-2Z"/><path class="cls-21" d="M24.055,14.136c-.124-.276-.249-.551-.38-.843l.842-.563c-.5-.163-.7-.626-1.134-.811h0c-.055-.235-.111-.469-.166-.7h0l.392-.24.346.209c-.217.468.233.4.426.5.425.218.87.395,1.307.589l0,.592.082.416c-.351.212-.693.44-1.056.631A4.254,4.254,0,0,1,24.055,14.136Z"/><path class="cls-11" d="M25.766,13.279l-.082-.416a1.563,1.563,0,0,0,.23-.222c.117-.169.216-.35.365-.6.291.487.445.938.946,1.052l.423-.1a.666.666,0,0,0,.768.115l.769.12.066-.014.065-.015.356.215.074.266-.253.213-.877.048-.346-.2-.458-.043a4.708,4.708,0,0,0-1.961-.137Z"/><path class="cls-21" d="M14.607,20.084l-.279.062-.24-.4a3.631,3.631,0,0,1,1.124-1.307l.275-.956.942.228c.06.271.2.546-.21.7-.128.048-.175.279-.293.388-.2.187-.413.445-.655.493A.759.759,0,0,0,14.607,20.084Z"/><path class="cls-21" d="M21.661,14.7c-.113-.437-.584-.078-.778-.384-.085-.307-.108-.6.348-.716.1-.026.161-.221.24-.338l.926-.218c.078.462.147.875.216,1.288Z"/><path class="cls-9" d="M25.851,13.564a4.708,4.708,0,0,1,1.961.137c-.246.643-.7.977-1.186.873-.067-.014-.152-.009-.2-.048-.139-.117-.243-.291-.4-.365a1.964,1.964,0,0,0-.634-.013Z"/><path class="cls-19" d="M24.212,15.439l.092.5c-.213.131-.41.255-.609.374-.572.342-.706.285-.845-.359a2.161,2.161,0,0,1-.019-.3l.723-.236-.072-.547C23.935,14.79,24.172,14.988,24.212,15.439Z"/><path class="cls-9" d="M24.212,15.439c-.04-.451-.277-.649-.73-.572l-.414-.5.563-.133c.272.185.65.172.823.559C24.609,15.146,24.552,15.321,24.212,15.439Z"/><path class="cls-2" d="M16.429,17.715l-.942-.228-.313-.075c.046-.322.274-.392.549-.4.18,0,.36,0,.54,0l.209.246.03.14Z"/><path class="cls-2" d="M19.115,15.888c.353-.13.566.081.759.341-.309.024-.632.081-.761-.338Z"/><path class="cls-13" d="M7.281,17.341c.282.026.656.253.671-.307l.511.121-.684,1.287.4.173c.047.2.14.425-.183.49a5.679,5.679,0,0,0-.692.079,4.1,4.1,0,0,0-.572.219,1.768,1.768,0,0,0-.549,1.464l-.108.174-.224.275.322.15.105.43-.153.618h0l-.56.134-.18-.519-.559.542a5.606,5.606,0,0,1,1.171-3.8c-.011-.078-.044-.308-.074-.514.066-.059.1-.114.136-.116A1.45,1.45,0,0,0,7.281,17.341Z"/><path class="cls-21" d="M3.74,17.429l-.48-.648c.24.014.415-.027.521.041a4.07,4.07,0,0,1,.654.541c.412.408.659.833.272,1.428a2.309,2.309,0,0,0-.159.826l-.421.1h0l-.1-.42c-.055-.524-.453-1.033.02-1.579C4.182,17.561,3.99,17.378,3.74,17.429Z"/><path class="cls-22" d="M3.2,21.422c.043-.019.125-.041.124-.056-.054-.6.341-1.258-.235-1.792-.046-.042-.051-.129-.075-.2.2.064.393.13.591.191.175.053.352.1.528.148h0l.349.215c-.027.366-.044.733-.089,1.1-.008.063-.133.112-.2.168l-.132-.248c-.493.458-.5.519-.3,1.079a1.24,1.24,0,0,1-.018.455l-.415-.5Z"/><path class="cls-13" d="M3.74,17.429c.25-.051.442.132.306.289-.473.546-.075,1.055-.02,1.579a1.192,1.192,0,0,1-.921-1.1.916.916,0,0,1,.251-.377C3.474,17.678,3.611,17.557,3.74,17.429Z"/><path class="cls-22" d="M3.927,23.925l-.311-.081L3.58,23.7l-.344-.211-.627-.742a1.182,1.182,0,0,0-.124-.252c-.177-.209-.06-.29.134-.347l.348.218.97.958.136.564,0,0Z"/><path class="cls-23" d="M3.737,22.482a1.24,1.24,0,0,0,.018-.455c-.2-.56-.2-.621.3-1.079l.132.248c.013.553.033,1.1.032,1.658,0,.053-.133.106-.2.16Z"/><path class="cls-13" d="M3.737,22.482l.275.532-.075.312-.97-.958c.119-.128.237-.255.355-.384Z"/><path class="cls-22" d="M3.444,16.224a6.606,6.606,0,0,1,.371-.835.388.388,0,0,1,.378-.059.388.388,0,0,1,.125.362C4.175,15.981,4.03,16.312,3.444,16.224Z"/><path class="cls-22" d="M4.822,22.672l.559-.542.18.519a.4.4,0,0,1-.49.375C4.97,23.006,4.9,22.8,4.822,22.672Z"/><path class="cls-11" d="M6.417,22.457c.035.2.119.42-.194.479l-.1-.421h0Z"/><path class="cls-13" d="M4.476,19.931l-.349-.215.421-.1Z"/><path class="cls-24" d="M32.916,11.475h-.729l-.208-.238.427-.1.259,0-.038-.118-.219.111c-.1-.358-.328-.219-.558-.136l.134.244-.273.043-.158-.1a.684.684,0,0,1-.062-.124c.055-.21.109-.42.164-.631a1.745,1.745,0,0,0,1.364-.473l1.332-.018.135.556c-.558.105-.995.609-1.694.386l.136.58Z"/><path class="cls-14" d="M34.3,14.106l-.075.315-1.408.329c-.055-.233-.117-.464-.163-.7-.142-.732.031-.939.766-.93.092,0,.184-.008.348-.015a4.673,4.673,0,0,0,.191.754C34,13.97,34.177,14.026,34.3,14.106Z"/><path class="cls-1" d="M29.493,13.9l.253-.213,1.121-.257.132.562h0a4.491,4.491,0,0,0-.61.447c-.224.226-.141.382.245.531l-.072.313-.985.234C29.852,14.96,29.6,14.432,29.493,13.9Z"/><path class="cls-25" d="M34.486,10.491l-.135-.556.11-.179,1.1.581.314-.177L35.826,11.2q-.065.024-.132.042l-.063.01-.062.016c-.231-.426-.474-.146-.737-.045l.09.5-.28.066c-.079-.126-.159-.252-.238-.379l.213-.355.327-.374Z"/><path class="cls-14" d="M35.7,13.771l-.988.234c-.369-1.583-.369-1.583-.039-1.885.051.22.1.419.152.649l.487-.072C35.456,13.087,35.579,13.429,35.7,13.771Z"/><path class="cls-26" d="M37.185,10.617l-.3-.075-.343-.088.264-.935a5.885,5.885,0,0,1,.684-.46c.286-.141.549-.128.579.292-.044.011-.089.023-.133.037a1.12,1.12,0,0,0-.611,1.187Z"/><path class="cls-18" d="M36.807,9.519l-.264.935.011.158c-.357.021-.386.23-.289.509l-.439.08.048-1.041.024-.59L36.01,9.4Z"/><path class="cls-23" d="M32.781,12.08l.468.086c-.045.67-.616.682-.974.926l-.348-.213.008-.595Z"/><path class="cls-1" d="M35.826,11.2l.439-.08c-.006.328.454.54.236.916-.087.152-.185.367-.319.4a.562.562,0,0,1-.491-.167c-.069-.091-.007-.359.086-.479.187-.241.072-.387-.083-.551Q35.762,11.225,35.826,11.2Z"/><path class="cls-21" d="M31.927,12.879l.348.213-.142.037-1.266.3-1.121.257-.074-.266c-.021-.1-.042-.193-.064-.29h0L30.171,13c.122.07.25.206.365.2a5.986,5.986,0,0,0,.827-.18Z"/><path class="cls-23" d="M31.979,11.237l.208.238.034.146c-.2.095-.569-.01-.494.414-.336-.1-.677-.19-1.006-.311-.114-.042-.2-.163-.3-.248l.367-.261h0l.173.108c.265.271.517.323.745-.042l.273-.043Z"/><path class="cls-14" d="M30.867,13.427l1.266-.3c-.025.2-.05.4-.076.611L31,13.989Z"/><path class="cls-24" d="M34.617,11.06l-.213.355-.412.1-.213.45L33.8,12l-.147-.014-.737-.509.012-.018Z"/><path class="cls-10" d="M38.782,11.713l-.65-.31-.18-.113c-.037-.138-.073-.276-.109-.414l.145-.027a.183.183,0,0,0,.106-.008l.2.105-.005,0,.179.112-.006,0,.185.134.457.385c-.016.028-.033.056-.05.083Z"/><path class="cls-21" d="M31.727,12.035c-.075-.424.293-.319.494-.414l.278.232c.094.077.188.152.282.227l-.846.2Z"/><path class="cls-14" d="M30.634,14.967c-.386-.149-.469-.3-.245-.531a4.491,4.491,0,0,1,.61-.447Q30.816,14.478,30.634,14.967Z"/><path class="cls-7" d="M37.952,11.29l.18.113c.04.483-.336.34-.651.465l-.025-.744Z"/><path class="cls-18" d="M34.922,11.728l-.09-.5c.263-.1.506-.381.737.045Z"/><path class="cls-10" d="M39.479,11.53c.113.371-.173.508-.407.66-.022.015-.146-.125-.222-.194l-.032-.14.24-.2c.017-.027.034-.055.05-.083Z"/><path class="cls-4" d="M37.952,11.29l-.5-.166q-.135-.254-.271-.507l.141-.042.517.3C37.879,11.014,37.915,11.152,37.952,11.29Z"/><path class="cls-18" d="M33.992,11.511l.412-.1c.079.127.159.253.238.379l-.276.069Z"/><path class="cls-25" d="M33.992,11.511l.374.352-.587.1Z"/><path class="cls-11" d="M33.653,11.984,33.8,12l.3.3C33.813,12.281,33.813,12.281,33.653,11.984Z"/><path class="cls-4" d="M39.058,11.652l-.24.2-.036-.143Z"/><path class="cls-24" d="M36.554,10.612l-.011-.158.343.088Z"/><path class="cls-26" d="M48.492,6.312a.876.876,0,0,0,.233.972l-.277.074c-.185-.162-.324-.128-.418.1l-.143.038-1.125.262a.2.2,0,0,0-.041-.054c-.011-.008-.032,0-.049,0l.09.056.066.274a3.219,3.219,0,0,0-1.722.867,2.841,2.841,0,0,0-.41.36c-.181.233-.368.368-.66.2L43.749,8.9c.018-.432.4-.463.677-.584.184-.081.365-.114.3-.373l.394-.236a5.109,5.109,0,0,0,.595-.068A1.974,1.974,0,0,0,46.1,7.47l.244-.218.8-.342.4-.225c.2-.165.414-.322.611-.5S48.435,6.126,48.492,6.312Z"/><path class="cls-11" d="M43.251,10.517c.016.092.068.2.041.275a2.125,2.125,0,0,1-1.611.774c-.093-.035-.13-.223-.193-.341l.2-.091-.063-.085-.133.176c-.267.054-.568.234-.679-.251-.384.322-.749.576-1.234.4l.085-.314.124-.133.767-.392.581.013-.05-.419.416-.1c.276.218.272.021.265-.18l.531-.182.3-.039.034.143.033.141-.352.384-.586.421.738.572c-.03-.308-.043-.44-.056-.572Z"/><path class="cls-12" d="M40.552,10.534l-.767.392-.124.133-.085.314-.1.157-.371.039-.457-.385-.185-.134.006,0-.179-.112.005,0-.2-.105a.183.183,0,0,1-.106.008c0-.2.005-.389.007-.584l.137-.038.285-.062.889.307c.02-.222.042-.451.063-.68a3.221,3.221,0,0,0,.462-.026.827.827,0,0,0,.241-.146l.715-.142c.051.215.1.43.152.644Z"/><path class="cls-14" d="M46.627,9.726l-.129.032c-.176-.03-.339-.131-.495.1-.272.407-.292.394-.858.4.032-.389.076-.753.516-.91.064-.023.168-.057.176-.1.131-.664.775-.681,1.2-.968l.207.262.062.273Z"/><path class="cls-27" d="M44.036,9.458c.292.168.479.033.66-.2a2.841,2.841,0,0,1,.41-.36.732.732,0,0,1-.428.75c-.378.241-.783.438-1.176.653l-.138-.565.4-.263Z"/><path class="cls-3" d="M43.364,9.736l.138.565-.251.216-.843.2-.1-.421.352-.384.424-.1Z"/><path class="cls-25" d="M46.828,8.031l-.066-.274h0l1.125-.262c-.043.284.156.647-.261.81l-.612-.141Z"/><path class="cls-6" d="M44.52,10.818c-.082.117-.141.294-.251.337a5.922,5.922,0,0,1-.822.208,3.741,3.741,0,0,1,.225-.351c.108-.134.233-.255.351-.381l.422-.1Z"/><path class="cls-10" d="M47.014,8.163l.612.141c.105.448-.284.109-.379.239l-.207-.262C47.031,8.242,47.022,8.2,47.014,8.163Z"/><path class="cls-10" d="M44.445,10.535l-.422.1C44.117,10.4,44.257,10.36,44.445,10.535Z"/><polygon class="cls-10" points="44.753 10.379 44.787 10.358 44.79 10.393 44.753 10.379"/><path class="cls-19" d="M8.175,18.615l-.4-.173.684-1.287-.511-.121L7.9,16.158c.646-.289.85.287,1.186.606-.2.06-.451.074-.355.389a.614.614,0,0,1-.188.689c-.068.064-.01.258-.01.393Z"/><path class="cls-2" d="M9.081,16.764c-.336-.319-.54-.895-1.186-.606-.252-.2-.417-.4.006-.6.368.251.429-.3.543-.288l1.271,1.047h.007l.1.43-.291.067Z"/><path class="cls-7" d="M37.242,1.382l.268-.075.542-.263h0l.21.3c-.293.316-.727.491-.707,1.044.009.219-.331.452-.513.678-.114-.256,0-.64-.476-.759.048.533-.346.772-.632,1.093a2.622,2.622,0,0,0-.3.583l-.252.214c-.1-.252-.212-.5-.288-.757a1.069,1.069,0,0,1,.021-.366,1.45,1.45,0,0,0,.721-1.355l.457.033.463.46Z"/><path class="cls-12" d="M32.812,1.523c.164-.5.611-.576,1.034-.685l.286.115c.023.278.042.49.06.7v0l-.219.155.278.128c.021.092.043.184.064.276-.122.058-.342.142-.128.268.285.168.291.324.164.579a1.049,1.049,0,0,0-.045.342l.156.66-.156.086c-.111-.095-.283-.172-.321-.291-.069-.22-.038-.47-.1-.7-.022-.082-.183-.126-.281-.188L33.542,2.7c.179-.144.27-.281.09-.512a1.741,1.741,0,0,1-.182-.505l.049-.361C33.146,1.21,33.169,1.838,32.812,1.523Z"/><path class="cls-12" d="M31.53,3.616c-.117-.071-.243-.215-.35-.2-.316.04-.327-.175-.381-.371l.232-.2c.252-.077.583-.04.635-.446l-.327-.217-.033-.142.433-.117.942-.355.1.421-.15.63-.715.066c.116.281.218.526.32.772l-.142.038Z"/><path class="cls-18" d="M37.043,3.064c.182-.226.522-.459.513-.678-.02-.553.414-.728.707-1.044l-.21-.3.7-.165c-.1.483-.182.86-.282,1.335a5.3,5.3,0,0,0-.719.554c-.255.263-.137.415.217.389L37.49,3.7l-.142.029Z"/><path class="cls-12" d="M40.488,2.55l.306.671-.107.172-.562.131c-.064-.23-.108-.5-.482-.26.036.214.072.423.108.632l-.26.081-.427.1-.012-.008q.008-.6.017-1.21l.118-.17.426-.06c.1.052.209.161.294.143A3.467,3.467,0,0,0,40.488,2.55Z"/><path class="cls-24" d="M39.069,2.855q-.009.6-.017,1.21l-.623.265c-.1-.535-.525-.209-.825-.285L37.49,3.7l.483-.543Z"/><path class="cls-18" d="M31.031,2.84l-.232.2-.556.13-.353-.212-.309-.073.11-.171c.2-.052.429-.074.354-.381l.113-.168.576,0,.29-.064.033.139Z"/><path class="cls-24" d="M35.832,1.717a1.45,1.45,0,0,1-.721,1.355l-.177-.707-.047-.274.479-.428.292-.054Z"/><path class="cls-18" d="M40.488,2.55a3.467,3.467,0,0,1-.581.218c-.085.018-.195-.091-.294-.143q-.028-.447-.059-.894l.569-.122Q40.306,2.08,40.488,2.55Z"/><path class="cls-4" d="M39.554,1.731q.03.447.059.894l-.426.06c-.115-.325-.231-.65-.359-1.012C39.083,1.566,39.33,1.276,39.554,1.731Z"/><path class="cls-18" d="M37.242,1.382l-.49.828-.463-.46C36.454,1.233,36.846,1.3,37.242,1.382Z"/><path class="cls-18" d="M34.192,1.655c-.018-.212-.037-.424-.06-.7L33.846.838C34.034.5,34.3.831,34.52.709,34.705,1.168,34.409,1.4,34.192,1.655Z"/><path class="cls-3" d="M34.887,2.091l.047.274-.62-.148c-.021-.092-.043-.184-.064-.276l-.022-.153C34.49,1.8,34.785,1.733,34.887,2.091Z"/><path class="cls-7" d="M32.778,1.984l-.1-.421.131-.04c.357.315.334-.313.687-.2l-.049.361Z"/><path class="cls-17" d="M31.024,2.1l-.29.064a.6.6,0,0,1,1-.248l-.433.117Z"/><path class="cls-18" d="M38.052,1.044l-.542.263c.044-.153.041-.368.143-.445C37.813.74,38,.8,38.052,1.044Z"/><path class="cls-7" d="M35.658,1.609l-.292.054.008-.419.124-.019Z"/><path class="cls-18" d="M34.228,1.788l.022.153-.278-.128.219-.155C34.2,1.7,34.215,1.745,34.228,1.788Z"/><path class="cls-28" d="M24.98,5.436l.277-.061.527.336c.055.245.245.3.4.177.1-.078.086-.295.124-.449L26.281,5.3a6.328,6.328,0,0,0,.85-.358,1.084,1.084,0,0,1,1.081-.07c.032.287.064.565.095.842l-.107.174c-.387.272-.645-.159-.967-.205-.181.439-.181.439.536.655L27.09,7.1l-.654-.727-.012.823c-.3.057-.514.171-.473.549.012.109-.128.235-.2.353l-.628-.74a1.2,1.2,0,0,1,.488-1.137Z"/><path class="cls-24" d="M31.53,3.616l.561-.126c.135.339-.025.46-.343.528-.361.078-.7.217-.552.712-.207.18-.408.368-.624.537-.158.123-.336.221-.5.331l-.151.03A2.344,2.344,0,0,1,31.53,3.616Z"/><path class="cls-28" d="M29.89,2.961l.353.212.037.244c-.326.226-.693.353-.835.606a1.017,1.017,0,0,1-1.117.5c-.029-.335-.058-.669-.088-1l.687-.2.047.157c-.241.228-.241.228.038.446-.014-.175-.024-.309-.035-.444C29.4,3.506,29.6,3.161,29.89,2.961Z"/><path class="cls-24" d="M28.809,5.9l.973-.236.348.213.166.109.1.416-.244.2c-.137.038-.275.074-.413.111-.437-.229-.609-.162-.957.374l-.452.093a1.11,1.11,0,0,1,.362-.893C28.78,6.217,28.773,6.034,28.809,5.9Z"/><path class="cls-18" d="M28.809,5.9c-.036.133-.029.316-.116.39a1.11,1.11,0,0,0-.362.893.4.4,0,0,0-.307.514l-.411.106a5.9,5.9,0,0,1,.149-.867c.115-.361.289-.7.438-1.054l.107-.174C28.519,5.657,28.738,5.584,28.809,5.9Z"/><path class="cls-18" d="M28.24,3.514c.03.335.059.669.088,1-.113-.053-.279-.075-.33-.163-.209-.363-.384-.747-.571-1.122-.038-.507.427-.3.639-.449Z"/><path class="cls-12" d="M26.281,5.3l.031.144-.525-.326.076-.315.279-.069C26.188,4.918,26.234,5.106,26.281,5.3Z"/><path class="cls-28" d="M30.13,5.878l-.348-.213a1.268,1.268,0,0,1,.134-.037l.151-.03Z"/><path class="cls-12" d="M26.143,4.731l.115-.173Z"/><polygon class="cls-18" points="27.187 3.676 27.155 3.696 27.152 3.661 27.187 3.676"/><path class="cls-29" d="M8.875,21.57l-.566.135-.422.1v0l-.247-.389c0-.047-.032-.111-.012-.138a13.689,13.689,0,0,1,1.445-1.98l.006,0c.033.142.067.284.1.426a.642.642,0,0,1-.357.832.929.929,0,0,0-.586.747l.6.132Z"/><path class="cls-29" d="M10.5,20.9l.032.146-.954.357-.039-.148c-.077-.315.168-.315.359-.368l.595.008Z"/><path class="cls-2" d="M6.417,22.457l-.3.057.153-.618.169.1c.032.142.065.284.1.426Z"/><path class="cls-13" d="M6.541,22.424c-.033-.142-.066-.284-.1-.426l.6.008-.072.318Z"/><path class="cls-10" d="M9.537,21.251l.039.148c-.233.062-.412.34-.7.171l-.036-.138Z"/><path class="cls-2" d="M7.639,21.41l.247.389-.292.063q-.014-.058-.033-.117l-.056-.3Z"/><path class="cls-11" d="M7.887,21.8l.422-.1-.15.321Z"/><path class="cls-13" d="M7.505,21.447l.056.3-.093.144-.136.061-.017-.026C7.272,21.723,7.189,21.506,7.505,21.447Z"/><path class="cls-2" d="M6.973,22.324l.072-.318.27-.082.017.026C7.4,22.254,7.165,22.269,6.973,22.324Z"/><path class="cls-23" d="M7.468,21.889l.093-.144q.019.058.033.117l-.062.018Z"/><path class="cls-27" d="M40.687,3.393l.107-.172a.433.433,0,0,1,.581.187c.085.123.191.233.287.349-.032.1-.031.25-.1.3a.975.975,0,0,0-.376.8l.673.32c-.017.159-.033.317-.049.476l-.562.135a5.926,5.926,0,0,0-.638.254c-.664.355-1.333.714-1.458,1.573l-.28.072-.139.026c-.033-.138-.066-.277-.1-.415l.246-.211a.216.216,0,0,0,.042.055c.011.008.034,0,.051,0l-.091-.058-.1-.424a.558.558,0,0,0,.374-.674c-.235-.551.086-.884.331-1.271a1.235,1.235,0,0,0,.095-.316c.1.059.278.116.28.178.013.439-.01.879-.022,1.341l.733-.173a.776.776,0,0,0,.016-.187q-.2-.875-.4-1.749l0-.006C40.4,3.715,40.76,3.818,40.687,3.393Z"/><path class="cls-16" d="M42.683,1.136a6.929,6.929,0,0,1,.8.211,5.92,5.92,0,0,1,.707.4c-.057.225-.116.489-.192.748-.126.43.01.6.492.61l.166.1,0,0-.066.323-.389.256-.293.054-.459-.045q-.077-.353-.154-.7l.071-.31v0c.2-.049.438-.067.351-.382-.007-.047-.014-.094-.022-.141.145-.051.309-.128.054-.229-.092-.036-.252.1-.38.155l-.277.07-.384-.36Z"/><path class="cls-6" d="M41.858,5.177l-.673-.32a.975.975,0,0,1,.376-.8c.07-.052.069-.2.1-.3l.18-.489.6.01.513.919A3.56,3.56,0,0,0,41.858,5.177Z"/><path class="cls-12" d="M41.858,5.177a3.56,3.56,0,0,1,1.1-.98c.033.14.066.281.1.421l-.54.5c.474.321.337.705.167,1.09l-.282.05c-.112-.241-.19-.523-.554-.46l-.036-.144Z"/><path class="cls-27" d="M42.441,3.278l-.6-.01c-.012-.583-.51-.831-.839-1.162.108-.46.352-.186.662-.127l.151-.491a.985.985,0,0,1,.253.077c.053.037.127.118.116.159A2.51,2.51,0,0,0,42.441,3.278Z"/><path class="cls-17" d="M42.681,6.207c.17-.385.307-.769-.167-1.09l.54-.5.388-.24.282-.066.066.282c-.4.082-.15.5-.362.7a.4.4,0,0,0,.037.632c.032.031-.029.157-.047.239-.287-.166-.473.113-.71.163A.643.643,0,0,1,42.681,6.207Z"/><path class="cls-27" d="M42.707,1.879l.384.36c.048.282-.039.468-.408.5C42.606,2.45,42.2,2.182,42.707,1.879Z"/><path class="cls-27" d="M43.724,4.312l-.282.066.005-.594.459.045.1.415Z"/><path class="cls-27" d="M43.368,2.169c.128-.057.288-.191.38-.155.255.1.091.178-.054.229Z"/><path class="cls-27" d="M43.716,2.384c.087.315-.149.333-.351.382Z"/><path class="cls-27" d="M43.364,2.769l-.071.31C43.059,2.9,43.059,2.9,43.364,2.769Z"/><path class="cls-15" d="M43.418,6.167c.018-.082.079-.208.047-.239a.4.4,0,0,1-.037-.632c.212-.2-.041-.62.362-.7.011.045.023.091.036.135l.442.642.394.551c.513-.712.513-.712.454-1.336l.1-.364c.374.1.806.095,1.008.527-.223.287-.551.452-.8.738-.376.432-.266.784-.233,1.247l.554-.046.6.564L46.1,7.47,45.04,7.18l.085.526-.394.236c-.851.179-.85.179-1.05-.658-.056-.232-.112-.465-.167-.7Zm1.423,1.167A1.99,1.99,0,0,0,44.2,5.822C44.2,6.761,44.324,7.087,44.841,7.334Z"/><path class="cls-16" d="M46.345,7.252l-.6-.564-.554.046c-.033-.463-.143-.815.233-1.247.248-.286.576-.451.8-.738l.435.038c.005.3.031.6.007.9-.027.339-.046.647.294.868.1.065.128.236.189.358Z"/><path class="cls-15" d="M47.15,6.91c-.061-.122-.09-.293-.189-.358-.34-.221-.321-.529-.294-.868.024-.3,0-.6-.007-.9l.279-.063.607.013.657.3a1.95,1.95,0,0,1-.082.345c-.071.161-.168.311-.253.466L47.4,5.429c-.357.1-.17.31-.046.554a3.428,3.428,0,0,1,.193.7Z"/><path class="cls-17" d="M45.217,4.222l-.1.364-.446-.045c-.2-.253-.287.05-.427.093l-.1-.421.052-.438.389-.256c.22-.07.424-.1.495.2C45.128,3.886,45.172,4.054,45.217,4.222Z"/><path class="cls-15" d="M45.083,3.717c-.071-.3-.275-.268-.495-.2l.066-.323a1.656,1.656,0,0,1,.415.053C45.405,3.383,45.389,3.552,45.083,3.717Z"/><path class="cls-16" d="M47.546,4.737l-.607-.013C47.148,4.411,47.347,4.542,47.546,4.737Z"/><path class="cls-15" d="M44.657,3.2l-.166-.1Z"/><path class="cls-5" d="M9.66,12.923a.549.549,0,0,1,.873-.06l.349.214,1.191.116,0,.114-.6.323.04.114.264.013c.061.269.121.539.185.808.035.154-.19.371.112.459l.033.14c.085.383-.151.5-.46.553l-.441-1.232c.06-.492-.063-.641-.621-.746-.37-.254-.557.084-.8.249-.222.152-.443.307-.677.47-.294-.6-.217-.887.3-1.174C9.584,13.191,9.713,13.136,9.66,12.923Z"/><path class="cls-20" d="M10.593,13.739c.558.1.681.254.621.746l-.489.115c-.166.391-.211.788-.426.931-.267.179-.431.3-.374.631.006.04-.132.105-.2.159H9.715c.017-.268,0-.5-.314-.622-.255-.1-.435-.289-.377-.559l1.211-.285-.2-.578Z"/><path class="cls-2" d="M2.609,22.749l.627.742.344.211.036.142a3.26,3.26,0,0,1-1.978.474l-.167-.089q-.1-.435-.2-.869a.335.335,0,0,0-.131-.565l-.064-.279c.268.018.538.02.8.059C2.123,22.612,2.365,22.69,2.609,22.749Zm-.823.547-.221.066c.136.218-.018.544.412.747C1.9,23.782,1.843,23.539,1.786,23.3Z"/><path class="cls-2" d="M3.927,23.925l.143-.032Z"/><path class="cls-28" d="M22.913,8.02l.481-.043c-.053.3-.094.529-.156.878.552-.336.773-1,1.428-.951l.382.353a.685.685,0,0,1-.594.592c-.319.049-.242.274-.192.48-.476.144-1.014.152-1.341.619-.349-.191-.676-.458-1.119-.339l.008.005-.04-.151c.013-.277.025-.553.036-.8l.714-.411Z"/><path class="cls-7" d="M25.048,8.257,24.666,7.9c-.175-.456.152-.494.458-.55l.628.74a.377.377,0,0,1-.314.513Z"/><path class="cls-17" d="M22.913,8.02l-.393.232-.726-.559.981-.239Z"/><path class="cls-2" d="M3.322,21.984c-.118.129-.236.256-.355.384l-.348-.218c-.132-.138-.242-.354-.4-.4-.626-.175-.8-.7-1.017-1.2q.1-.541.193-1.084c.185-.136.37-.271.592-.432a2.549,2.549,0,0,1,.892,1.942c.006.279.064.4.316.444Z"/><path class="cls-1" d="M1.4,19.468q-.1.542-.193,1.084l-.56.134L.57,20.4l.384-.844.092-.3.1-.182.141-.034Z"/><path class="cls-2" d="M1.77,17.9l.211-.349.307.227Z"/><path class="cls-29" d="M13.2,20.405l-2.7.491-.007-.005.218-.347,1.125-.264.369-.516a5.868,5.868,0,0,1-.543-.258,4.345,4.345,0,0,1-.389-.3.774.774,0,0,0-.969.038l.161.473-.658.155-.349-.213.222-.282c-.088-.051-.172-.135-.264-.144a1.1,1.1,0,0,0-.336.067l-.006,0c-.095-.382.235-.5.434-.694.058.169.048.432.326.353a.6.6,0,0,0,.316-.308c.106-.226.077-.534.419-.59.053.223.105.446.154.654a3.548,3.548,0,0,1,2.1.5l-.232.473.1.112.6-.3c.317-.085.332.154.382.356C13.427,19.966,13.137,20.038,13.2,20.405Z"/><path class="cls-1" d="M13.2,20.405c-.063-.367.227-.439.464-.556l.424-.1.24.4a1.1,1.1,0,0,1-.321.18C13.742,20.372,13.47,20.381,13.2,20.405Z"/><path class="cls-22" d="M19.177,9.192l.249-.207.556-.132a.5.5,0,0,0,.622.161l.537.3c-.055.353.114.718-.053,1.065l-1.212-.129a.751.751,0,0,0-.573-.745C19.236,9.489,19.218,9.3,19.177,9.192Z"/><path class="cls-7" d="M20.6,9.014a.5.5,0,0,1-.622-.161c-.043-.5.418-.3.631-.452.336-.012.453-.179.349-.5l.832-.209.726.559-.714.411c-.011.247-.023.523-.036.8l-.149.044-.337-.214c-.012-.132.007-.362-.043-.379C21.028,8.846,20.759,8.651,20.6,9.014Z"/><path class="cls-27" d="M20.962,7.9c.1.32-.013.487-.349.5Q20.787,8.151,20.962,7.9Z"/><path class="cls-3" d="M46.627,9.726l.682-.91.385.367A1.676,1.676,0,0,1,46.627,9.726Z"/><path class="cls-25" d="M48.03,7.456c.094-.226.233-.26.418-.1C48.427,7.894,48.188,7.5,48.03,7.456Z"/><path class="cls-22" d="M16.19,9.747l.28-.061c0,.2,0,.395-.008.593l-1.72.733c.382.81.381.813-.051,1.18-.136-.266.018-.813-.6-.613l-.561-.105c-.03-.487-.057-.93-.084-1.372l1.828-.433c.126.413.407.154.63.146Z"/><path class="cls-20" d="M11.348,11.318a.694.694,0,0,1-.024-.127,3.25,3.25,0,0,0,.557-.349,1.722,1.722,0,0,1,1-.609,1.28,1.28,0,0,1-.264,1.4l-.248.207-1.129.264.008-.6h0Z"/><path class="cls-29" d="M12.621,11.629a1.28,1.28,0,0,0,.264-1.4l.565-.131c.027.442.054.885.084,1.372l.561.105-.215.349c-.1,0-.234-.041-.284.007-.2.2-.007.335.1.481.033.141.065.281.1.422l-.488-.183Z"/><path class="cls-20" d="M15.908,9.815c-.223.008-.5.267-.63-.146L15.56,9.6l.416-.088Z"/><path class="cls-2" d="M1.042,24.309c-.116-.073-.313-.129-.332-.221a6.091,6.091,0,0,1-.068-.878c.2-.048.423-.136.49.183A1.063,1.063,0,0,0,1.042,24.309Z"/><path class="cls-13" d="M1.132,23.393c-.067-.319-.286-.231-.49-.183.008-.2.017-.4.025-.6l.47.181a.335.335,0,0,1,.131.565Z"/><path class="cls-22" d="M1.132,23.393l.136-.033q.1.434.2.869l-.429.08A1.063,1.063,0,0,1,1.132,23.393Z"/><path class="cls-19" d="M1.137,22.8l-.47-.181L.6,22.327l.2-.343.281-.064q0,.3-.007.6Z"/><path class="cls-29" d="M11.244,12.1l1.129-.264.375.467-.111.659.067.281c-.29.2-.5.542-.919.514l-.264-.013-.04-.114.6-.323,0-.114-1.191-.116c.023-.106.047-.212.071-.319q-.016-.067-.03-.135l.183-.49Z"/><path class="cls-14" d="M11.244,12.1l-.138.033-.283.066-.217-.262.646-.434Z"/><path class="cls-20" d="M10.953,12.758c-.024.107-.048.213-.071.319l-.349-.214Z"/><path class="cls-20" d="M10.823,12.2l.283-.066-.183.49Z"/><path class="cls-6" d="M9.83,12.425l.4-.232Z"/><path class="cls-13" d="M16.462,10.279c0-.2,0-.395.008-.593l.283-.067,1.3-.158c.5.243.042.615.1.915.8-.009.834-.038.838-.74a3.247,3.247,0,0,1,.05-.414l.138-.03c.041.11.059.3.126.317a.751.751,0,0,1,.573.745l1.212.129c.169.4.525.208.8.257.048.206.1.412.169.717l-1.162.107a.615.615,0,0,0-.6-.584l-.418.675a1.407,1.407,0,0,0-.523-.149c-.153.019-.394.167-.412.287a10.982,10.982,0,0,0-.066,1.285l-.7.167c-.414.093-.871.345-1.233.247a3.9,3.9,0,0,0-1.787.166l-.522-.322c.061-.163.121-.326.182-.49.54-.1.634-.674.983-.962l.573.3-.309-.972C16.241,10.737,16.352,10.508,16.462,10.279Z"/><path class="cls-22" d="M19.039,9.222a3.247,3.247,0,0,0-.05.414c0,.7-.034.731-.838.74-.057-.3.4-.672-.1-.915l-.034-.142Z"/><path class="cls-20" d="M18.018,9.319l.034.142-1.3.158.775-.48Z"/><path class="cls-13" d="M1.073,22.516q0-.3.007-.6c.056-.136.111-.272.167-.407l-.575-.091-.143.032c0-.2.007-.4.011-.6l.1-.172.56-.134c.215.5.391,1.025,1.017,1.2.158.044.268.26.4.4-.194.057-.311.138-.134.347a1.182,1.182,0,0,1,.124.252c-.244-.059-.486-.137-.733-.174C1.611,22.536,1.341,22.534,1.073,22.516Z"/><path class="cls-5" d="M.642,20.686l-.1.172L.57,20.4Z"/><path class="cls-11" d="M1.046,19.255l-.092.3Z"/><path class="cls-1" d="M15.908,9.815l.068-.3.214.235Z"/><path class="cls-7" d="M29.89,2.961c-.287.2-.494.545-.913.509l0,0-.047-.157c.078-.111.155-.223.232-.334l.422-.089Z"/><path class="cls-18" d="M28.037,2.669l-.045-.16.155-.033Z"/><path class="cls-14" d="M11.348,11.318l-.1.186Z"/><path class="cls-7" d="M25.787,5.113l.525.326c-.038.154-.026.371-.124.449-.159.125-.349.068-.4-.177l-.132-.565Z"/><path class="cls-12" d="M25.652,5.146l.132.565-.527-.336Z"/><path class="cls-22" d="M.672,21.422l.575.091c-.056.135-.111.271-.167.407L.8,21.984C.447,21.867.814,21.587.672,21.422Z"/><path class="cls-5" d="M23.383,11.919c-.065.261-.13.522-.2.812a1.773,1.773,0,0,1-.579-2.257l.245-.211.07-.016.07-.017.735-.022c.047.2.139.421-.182.486q-.507.046-.322.521h0c-.367.134-.31.415-.261.745l.427-.041Z"/><path class="cls-21" d="M22.846,10.263l-.245.211-.708.166c-.28-.049-.636.141-.8-.257.167-.347,0-.712.053-1.065l.143-.025.337.214.189.107L21.8,9.609Z"/><path class="cls-21" d="M19.881,11.555l.418-.675a.615.615,0,0,1,.6.584l.032.14c-.161.164-.32.33-.485.49-.122.118-.252.227-.506.453-.013-.406-.02-.629-.027-.851Q19.9,11.625,19.881,11.555Z"/><path class="cls-19" d="M19.881,11.555q.018.071.033.141c-.732.19-.72.776-.72,1.355l-.314-.073a10.982,10.982,0,0,1,.066-1.285c.018-.12.259-.268.412-.287A1.407,1.407,0,0,1,19.881,11.555Z"/><path class="cls-5" d="M18.88,12.978l.314.073a1.658,1.658,0,0,1,.413.219c.2.188.026.26-.14.312l-.595-.007c-.267-.087-.618-.039-.7-.43Z"/><path class="cls-29" d="M18.175,13.145c.079.391.43.343.7.43.26,1.119.107,1.45-.9,2-.256.14-.5.31-.744.466-.076-.077-.142-.205-.229-.222a2.49,2.49,0,0,0-.748-.058,1.21,1.21,0,0,0-.6.243.477.477,0,0,0-.076.444.437.437,0,0,0,.624.279l.035.141.033.144c-.18,0-.36,0-.54,0-.275,0-.5.074-.549.4l-.567.136.456-.595c-.458-.295-.95-.564-.568-1.232-.333-.128-.54-.5-.93-.241.266.57.266.569-.12,1.014a2.612,2.612,0,0,0-.221.282c-.275.425-.249.508.2.765.177.1.345.222.55.356l-.249.305-.141.033-1.194-.016c-.162-.292-.272-.651-.726-.571l-.555-.464c.246-.228.522-.451.113-.774q.218-.347.436-.693c.309-.054.545-.17.46-.553a3.071,3.071,0,0,1,3.156.578l.214-.777a.98.98,0,0,1,.309.105c.346.283.575.242.622-.164.049-.421.026-.85.036-1.357a7.458,7.458,0,0,1-.923.2c-.117.012-.249-.126-.374-.2a3.9,3.9,0,0,1,1.787-.166C17.3,13.49,17.761,13.238,18.175,13.145Z"/><path class="cls-5" d="M16.2,16.728a.437.437,0,0,1-.624-.279.477.477,0,0,1,.076-.444,1.21,1.21,0,0,1,.6-.243A2.49,2.49,0,0,1,17,15.82c.087.017.153.145.229.222.117.33.007.518-.348.5C16.623,16.535,16.351,16.4,16.2,16.728Z"/><path class="cls-1" d="M16.263,17.013l-.033-.144c.332-.026.429.094.242.39Z"/><path class="cls-29" d="M25.688,12.271c-.437-.194-.882-.371-1.307-.589-.193-.1-.643-.03-.426-.5l.494-.409c.112.056.26.085.329.174.2.265.352.586.748.615l.208.24C25.718,11.959,25.7,12.115,25.688,12.271Z"/><path class="cls-5" d="M25.688,12.271c.015-.156.03-.312.046-.467l.563-.126c.641.254.795.829.928,1.416-.5-.114-.655-.565-.946-1.052-.149.249-.248.43-.365.6a1.563,1.563,0,0,1-.23.222Z"/><path class="cls-23" d="M24.449,10.775l-.494.409-.346-.209-.07-.281c.321-.065.229-.284.182-.486l.389-.239c.06.094.1.229.186.277C24.54,10.38,24.523,10.563,24.449,10.775Z"/><path class="cls-19" d="M23.383,11.919l-.427.041c-.049-.33-.106-.611.261-.745C23.272,11.45,23.328,11.684,23.383,11.919Z"/><path class="cls-19" d="M23.539,10.694l.07.281-.392.24Q23.033,10.741,23.539,10.694Z"/><path class="cls-29" d="M29.185,13.232l-.769-.12c-.054-.314-.173-.548-.558-.466-.1-.481.249-.978-.049-1.453l.149-.051.417-.1c.042.245.118.463.414.5.007.236,0,.475.026.708.026.209.048.461.38.384l.066.281C29.236,13.019,29.21,13.126,29.185,13.232Z"/><path class="cls-20" d="M27.225,13.094c-.133-.587-.287-1.162-.928-1.416.094-.121.166-.283.29-.354a.416.416,0,0,0,.246-.512l.316.066.034.147.241.39c-.054.213-.108.425-.2.779l.386.661.035.142Z"/><path class="cls-5" d="M27.648,13l-.035-.142.245-.209c.385-.082.5.152.558.466A.666.666,0,0,1,27.648,13Z"/><path class="cls-20" d="M29.185,13.232c.025-.106.051-.213.076-.319l.347.215h0l-.292.075-.065.015Z"/><path class="cls-22" d="M29.316,13.2l.292-.075c.022.1.043.193.064.29Z"/><path class="cls-9" d="M14.607,17.548l.567-.136.313.075-.275.956a3.631,3.631,0,0,0-1.124,1.307l-.424.1c-.05-.2-.065-.441-.382-.356.166-.4.476-.773.3-1.258l.141-.033a1.194,1.194,0,0,0,.16.374c.111.118.278.213.363-.051l.214-.162-.281-.12C14.039,17.837,14.184,17.607,14.607,17.548Z"/><path class="cls-23" d="M9.506,18.6c-.2.2-.529.312-.434.694a13.689,13.689,0,0,0-1.445,1.98c-.02.027.007.091.012.138l-.134.037c-.316.059-.233.276-.19.477l-.27.082L6.443,22l-.169-.1-.105-.43-.1-.425.108-.174c.136-.032.274-.058.408-.1.531-.151.6-.31.369-.793-.089-.185-.153-.383-.228-.575a4.1,4.1,0,0,1,.572-.219,5.679,5.679,0,0,1,.692-.079c.1.074.223.226.285.2a.435.435,0,0,0,.246-.29,5.382,5.382,0,0,0,.005-.783c0-.135-.058-.329.01-.393a.614.614,0,0,0,.188-.689c-.1-.315.159-.329.355-.389l.45.054c.095.175.189.351.284.527l-.125.766-.184.488Z"/><path class="cls-22" d="M6.728,19.4c.075.192.139.39.228.575.231.483.162.642-.369.793-.134.038-.272.064-.408.1A1.768,1.768,0,0,1,6.728,19.4Z"/><path class="cls-22" d="M8.528,18.235a5.382,5.382,0,0,1-.005.783.435.435,0,0,1-.246.29c-.062.023-.188-.129-.285-.2.323-.065.23-.286.183-.49Z"/><path class="cls-22" d="M6.071,21.041l.1.425-.322-.15Z"/><path class="cls-13" d="M3.58,23.7l-.344-.211Z"/><path class="cls-12" d="M34.461,9.756l-.11.179-1.332.018-.065-.285a2.335,2.335,0,0,0,.894-1.25c.322-.087.329.164.386.361C34.163,9.138,33.874,9.549,34.461,9.756Z"/><path class="cls-26" d="M34.617,11.06l-1.689.4-.136-.58c.7.223,1.136-.281,1.694-.386l.458.2Z"/><path class="cls-25" d="M32.954,9.668l.065.285a1.745,1.745,0,0,1-1.364.473L31.546,10l.275-.072c.233.211.418.086.485-.136a.47.47,0,0,1,.44-.371Z"/><path class="cls-7" d="M31.546,10l.109.425c-.055.211-.109.421-.164.631a.76.76,0,0,0-.135.022l0,0-.176-.109h0l-.179-.118-.034-.143.152-.612c.025-.1.051-.208.076-.312l.138-.037Z"/><path class="cls-21" d="M30.972,10.711l.034.143.179.118h0l.176.109,0,0,.2.1.158.1c-.228.365-.48.313-.745.042l-.173-.108h0l-.086-.442Z"/><path class="cls-26" d="M31.984,11.239,31.85,11c.23-.083.456-.222.558.136l0,0-.427.1Z"/><path class="cls-26" d="M32.408,11.131l.219-.111.038.118-.259,0Z"/><path class="cls-1" d="M31.553,11.181l-.2-.1a.76.76,0,0,1,.135-.022A.684.684,0,0,0,31.553,11.181Z"/><path class="cls-24" d="M34.461,9.756c-.587-.207-.3-.618-.227-.977.154-.1.362-.173.451-.316a1.089,1.089,0,0,1,.843-.433c0,.2,0,.39,0,.585-.248.066-.3.222-.15.413a7.237,7.237,0,0,0,.524.542l-.024.59-.314.177Z"/><path class="cls-17" d="M35.524,8.615c0-.2,0-.39,0-.585L35.5,7.884l.277-.069c.22.382.44.764.689,1.2a1.051,1.051,0,0,0,.278-.948,8.209,8.209,0,0,1,.067-1.046c.01-.162,0-.324.006-.487l-.032-.142.278-.068.277-.067.419.5c-.012.151-.025.3-.037.455l0,0a1.309,1.309,0,0,0-.592,1.393l.935-.583,0,0,.169.1.016.009c-.082.273-.334.538.016.886l.426-.254a.964.964,0,0,1,.842.471c.092.175.357.259.544.384a.827.827,0,0,1-.241.146,3.221,3.221,0,0,1-.462.026l-.388-.656-.911.215c-.03-.42-.293-.433-.579-.292a5.885,5.885,0,0,0-.684.46l-.8-.122Z"/><path class="cls-15" d="M38.07,9.351l.911-.215.388.656c-.021.229-.043.458-.063.68l-.889-.307-.231-.2-.054.262-.137.038-.429,0c-.007-.4.635-.431.371-.875C37.981,9.374,38.026,9.362,38.07,9.351Z"/><path class="cls-17" d="M37.937,9.388c.264.444-.378.471-.371.875l.429,0c0,.2,0,.389-.007.584l-.145.027-.517-.3A1.12,1.12,0,0,1,37.937,9.388Z"/><path class="cls-25" d="M35.524,8.615l.486.782L35.9,9.57a7.237,7.237,0,0,1-.524-.542C35.221,8.837,35.276,8.681,35.524,8.615Z"/><path class="cls-22" d="M30.706,10.773l.086.442-.367.261c.1.085.182.206.3.248.329.121.67.21,1.006.311l.208.249-.008.595-.564.133-.019-.588a7.668,7.668,0,0,0-.934.233c-.107.041-.161.222-.239.339l-.563.132-.347-.215-.066-.281c.07-.122.2-.246.2-.364a3.715,3.715,0,0,0-.148-.687l.247-.208c.175.214.355.315.534.009.091-.157.164-.325.245-.488l.429-.113Z"/><path class="cls-23" d="M30.171,13c.078-.117.132-.3.239-.339a7.668,7.668,0,0,1,.934-.233l.019.588a5.986,5.986,0,0,1-.827.18C30.421,13.2,30.293,13.066,30.171,13Z"/><path class="cls-22" d="M30.793,11.216l.173.108Z"/><path class="cls-24" d="M38.293,10.943l.179.112Z"/><path class="cls-24" d="M38.466,11.05l.185.134Z"/><path class="cls-24" d="M38.094,10.841l.2.105Z"/><path class="cls-17" d="M43.514,6.587c.055.232.111.465.167.7.2.837.2.837,1.05.658.06.259-.121.292-.3.373-.277.121-.659.152-.677.584l-.138.244-.62.248-.394.234-.3.039c.114-.164.238-.322.337-.495.089-.155.15-.327.224-.491l-.131-.123a5.534,5.534,0,0,0-.77.274c-.279.145-.521.234-.75-.06l1.7-.558.349.488.1-.058q-.117-.313-.233-.627c.337-.079.386-.31.3-.595-.073-.234-.168-.462-.262-.716Z"/><path class="cls-17" d="M45.125,7.706,45.04,7.18l1.061.29a1.974,1.974,0,0,1-.381.168A5.109,5.109,0,0,1,45.125,7.706Z"/><path class="cls-24" d="M43.611,9.143l.138-.244.287.559-.268.015Z"/><path class="cls-25" d="M46.762,7.757l-.09-.056c.017,0,.038-.007.049,0a.2.2,0,0,1,.041.054Z"/><path class="cls-26" d="M41.205,8.769c.229.294.471.205.75.06a5.534,5.534,0,0,1,.77-.274l.131.123c-.074.164-.135.336-.224.491-.1.173-.223.331-.337.495l-.531.182-.265.18-.416.1a.7.7,0,0,1-.144-.006c-.051-.214-.1-.429-.152-.644.047-.215.095-.431.142-.646L41,8.816l.067-.018Z"/><path class="cls-1" d="M42.312,10.293l.1.421c.013.132.026.264.056.572l-.738-.572Z"/><path class="cls-4" d="M40.939,10.122a.7.7,0,0,0,.144.006l.05.419-.581-.013Z"/><path class="cls-4" d="M42.6,9.625l.394-.234.06.279-.42.1Z"/><path class="cls-4" d="M41.5,10.026l.265-.18C41.771,10.047,41.775,10.244,41.5,10.026Z"/><path class="cls-1" d="M42.631,9.768l.42-.1c.014.045.026.091.037.137l-.424.1Z"/><path class="cls-4" d="M41.489,11.225l.133-.176.063.085-.2.091Z"/><path class="cls-4" d="M39.661,11.059l.124-.133Z"/><path class="cls-15" d="M40.929,8.832c-.047.215-.095.431-.142.646l-.715.142c-.187-.125-.452-.209-.544-.384a.964.964,0,0,0-.842-.471.387.387,0,0,1,.319-.521l.7-.166.905.086Z"/><path class="cls-17" d="M38.132,10.227l.054-.262.231.2Z"/><path class="cls-10" d="M43.088,9.807c-.011-.046-.023-.092-.037-.137l-.06-.279.62-.248.157.33-.4.263Z"/><path class="cls-23" d="M11.655,15.717q-.219.347-.436.693l-.916.517c-.282.274-.345-.052-.481-.176l-.1-.43c.071-.054.209-.119.2-.159-.057-.333.107-.452.374-.631.215-.143.26-.54.426-.931l.489-.115Z"/><path class="cls-20" d="M9.822,16.751c.136.124.2.45.481.176l.032.342-.52.076c-.095-.176-.189-.352-.284-.527Z"/><path class="cls-24" d="M35.378,4.2l.252-.214,1.159-.12-.41.311.258.322-.979.241-.213.186.271.092.173.106.075.278.1.428c-.044.011-.088.024-.132.036-.291-.046-.655-.262-.682.3l-.1.179v0c-.384.176-.761.37-1.155.517a1.544,1.544,0,0,1-.518.008c.033-.3.065-.6.1-.9.261-.233.79-.215.711-.764l.872-.411-.086-.068Z"/><path class="cls-18" d="M35.378,4.2l-.309.527.086.068-.872.411-.254-.366a4.483,4.483,0,0,0,.659-.612c.293-.417.184-.62-.383-.817a1.049,1.049,0,0,1,.045-.342c.127-.255.121-.411-.164-.579-.214-.126.006-.21.128-.268l.62.148.177.707a1.069,1.069,0,0,0-.021.366C35.166,3.7,35.28,3.943,35.378,4.2Z"/><path class="cls-27" d="M36.789,3.861l-1.159.12a2.622,2.622,0,0,1,.3-.583c.286-.321.68-.56.632-1.093.474.119.362.5.476.759l.3.665-.28.07Z"/><path class="cls-7" d="M34.305,3.406c.567.2.676.4.383.817a4.483,4.483,0,0,1-.659.612l.254.366c.079.549-.45.531-.711.764l-.519-.923.823-.469-.353-.684q-.078-.349-.158-.7l.241-.212c.1.062.259.106.281.188.059.225.028.475.1.7.038.119.21.2.321.291l.156-.086Z"/><path class="cls-18" d="M32.778,1.984l.672-.3a1.741,1.741,0,0,0,.182.505c.18.231.089.368-.09.512l-.846.194-.068-.277Z"/><path class="cls-24" d="M32.7,2.891l.846-.194.064.281-.241.212c-.091.088-.184.176-.274.266-.21.214-.355.17-.443-.109Z"/><path class="cls-28" d="M32.648,3.347c.088.279.233.323.443.109.09-.09.183-.178.274-.266q.079.35.158.7c-.282.024-.564.047-.846.073-.222.021-.454.035-.389.365l-.883.653L31.2,4.73c-.151-.5.191-.634.552-.712.318-.068.478-.189.343-.528l.142-.038Z"/><path class="cls-7" d="M32.648,3.347l-.415.1c-.1-.246-.2-.491-.32-.772l.715-.066.068.277Z"/><path class="cls-24" d="M31.031,2.84l.026-.6.282-.064.327.217C31.614,2.8,31.283,2.763,31.031,2.84Z"/><path class="cls-7" d="M31.339,2.177l-.282.064L31.024,2.1l.282-.067Z"/><path class="cls-12" d="M37.068,3.8l.28-.07L37.49,3.7l.114.345c.3.076.722-.25.825.285l.623-.265.012.008c.026.341.2.447.518.326h0a1.235,1.235,0,0,1-.095.316c-.245.387-.566.72-.331,1.271a.558.558,0,0,1-.374.674l-.039-.131a6.729,6.729,0,0,0-.215-.891,2.02,2.02,0,0,0-.359-.469l-.129-.425c-.055-.122-.109-.245-.165-.37-1.209.641-1.209.641-1.4,1.341-.134.053-.206.34-.415.11l-.1-.428.372-.2-.046-.119-.4.038-.173-.106-.058-.278.979-.241Z"/><path class="cls-6" d="M40.188,3.809q.2.875.4,1.749a.776.776,0,0,1-.016.187l-.733.173c.012-.462.035-.9.022-1.341,0-.062-.183-.119-.28-.178h0c-.03-.141-.061-.281-.091-.422l.26-.081.173-.051.051-.005.048-.016Z"/><path class="cls-27" d="M39.924,3.845l-.173.051c-.036-.209-.072-.418-.108-.632.374-.235.418.03.482.26l.067.279,0,.006-.165.015Z"/><path class="cls-27" d="M39.491,3.977c.03.141.061.281.091.422-.317.121-.492.015-.518-.326Z"/><path class="cls-7" d="M40.192,3.8l-.067-.279.562-.131C40.76,3.818,40.4,3.715,40.192,3.8Z"/><path class="cls-7" d="M28.2,5.883c-.149.35-.323.693-.438,1.054a5.9,5.9,0,0,0-.149.867l.091.423c-.064.027-.179.044-.186.083a6.857,6.857,0,0,1-.607,1.579l-.611.169-.227.036,0,0-.067-.253c0-.207,0-.415.007-.622.065-.053.145-.162.192-.15.5.132.529-.151.583-.541a2.139,2.139,0,0,0-.367-1.338l.012-.823.654.727.679-.763c-.717-.216-.717-.216-.536-.655C27.555,5.724,27.813,6.155,28.2,5.883Z"/><path class="cls-25" d="M26.424,7.192a2.139,2.139,0,0,1,.367,1.338c-.054.39-.085.673-.583.541-.047-.012-.127.1-.192.15-.259-.026-.578.357-.77-.115l.192-.5a.377.377,0,0,0,.314-.513c.071-.118.211-.244.2-.353C25.91,7.363,26.122,7.249,26.424,7.192Z"/><path class="cls-25" d="M31.2,4.73l.209.25a3.878,3.878,0,0,0,.011.62c.013.078.142.16.234.19.039.012.177-.11.173-.164-.035-.471.3-.526.633-.6l.041.147.408.492c-.406.234-.244.606-.227.942h0c-.653.2-.653.2-.529.874l.063.277-.425.1-.475-.781.55-.282-.5-.743c-.145.22-.238.361-.33.5-.251.058-.325-.1-.358-.3s-.132-.341-.372-.274l-.166-.109-.063-.28c.169-.11.347-.208.5-.331C30.788,5.1,30.989,4.91,31.2,4.73Z"/><path class="cls-24" d="M28.977,3.47c.011.135.021.269.035.444-.279-.218-.279-.218-.038-.446Z"/><path class="cls-25" d="M31.2,9.787l-.077.312-.577.135-.58-.6c-.07.3-.108.461-.146.624l-.138.031-.344-.213c.03-.14.059-.281.087-.413l-.538-.226c.047-.151.1-.432.14-.43a6.826,6.826,0,0,1,.948.184c-.221-.239-.348-.481-.453-.472-.385.034-.5-.2-.616-.474a.256.256,0,0,0,.176-.426.549.549,0,0,0-.37-.247,3.289,3.289,0,0,0-.689.125.4.4,0,0,1,.307-.514l.452-.093a2.188,2.188,0,0,1,.42-.006c.076.012.14.1.209.153-.26.451-.222.523.279.522a.653.653,0,0,0,.134-.028l-.135.546a.374.374,0,0,0,.626-.075c.156-.2.349-.377.525-.564l-.007.6-.806,1.016,1.169.532Z"/><path class="cls-7" d="M29.825,7.732a.653.653,0,0,1-.134.028c-.5,0-.539-.071-.279-.522.333-.033.44-.207.328-.521.138-.037.276-.073.413-.111.323.222.264-.013.244-.2l-.1-.416c.24-.067.337.06.372.274s.107.357.358.3q.141.261.283.522l.475.781-.286.073-.415.094-.108-.43-.236-.379-.133.031Z"/><path class="cls-28" d="M29.74,6.717c.112.314.005.488-.328.521-.069-.054-.133-.141-.209-.153a2.188,2.188,0,0,0-.42.006C29.131,6.555,29.3,6.488,29.74,6.717Z"/><path class="cls-25" d="M30.4,6.4c.02.19.079.425-.244.2Z"/><path class="cls-24" d="M28.024,7.7a3.289,3.289,0,0,1,.689-.125.549.549,0,0,1,.37.247.256.256,0,0,1-.176.426c-.244-.009-.487-.02-.731-.025-.157,0-.314,0-.472.006L27.613,7.8Z"/><path class="cls-21" d="M9.456,19.654l.349.213c.03.338.061.677.091,1.016-.191.053-.436.053-.359.368l-.7.181-.6-.132a.929.929,0,0,1,.586-.747.642.642,0,0,0,.357-.832Z"/><path class="cls-5" d="M9.456,19.654l-.277.067c-.034-.142-.068-.284-.1-.426a1.1,1.1,0,0,1,.336-.067c.092.009.176.093.264.144Z"/><path class="cls-19" d="M9.9,20.883c-.03-.339-.061-.678-.091-1.016l.658-.155-.161-.473a.774.774,0,0,1,.969-.038,4.345,4.345,0,0,0,.389.3,5.868,5.868,0,0,0,.543.258l-.369.516c-.112-.363-.428-.441-.718-.569-.15.306-.278.569-.407.833l-.218.347Z"/><path class="cls-25" d="M39.151,7.615c.125-.859.794-1.218,1.458-1.573a5.926,5.926,0,0,1,.638-.254c.032.14.065.279.1.419L41,6.6a2.852,2.852,0,0,0-.425.2c-.338.231-.664.478-.994.72Z"/><path class="cls-6" d="M38.744,6.529l.039.131.1.424,0,0-.246.211-.91-.091c.012-.152.025-.3.037-.455l.456-.491Z"/><path class="cls-26" d="M39.005,8.244a.387.387,0,0,0-.319.521l-.426.254c-.35-.348-.1-.613-.016-.886l.488-.42.139-.026C38.916,7.872,38.96,8.058,39.005,8.244Z"/><path class="cls-17" d="M38.732,7.713l-.488.42-.016-.009-.169-.1,0,0-.343-.81,0,0,.91.091C38.666,7.436,38.7,7.575,38.732,7.713Z"/><path class="cls-12" d="M39.005,8.244c-.045-.186-.089-.372-.134-.557l.28-.072.428-.1.129.56Z"/><path class="cls-17" d="M41.344,6.207c-.032-.14-.065-.279-.1-.419l.562-.135.036.144-.215.345Z"/><path class="cls-6" d="M38.882,7.084l.091.058c-.017,0-.04.008-.051,0a.216.216,0,0,1-.042-.055Z"/><path class="cls-15" d="M44.2,3.775l-.052.438-.142.031-.1-.415Z"/><path class="cls-16" d="M42.681,6.207a.643.643,0,0,0,.027.123,2.23,2.23,0,0,1,.174,1.3,2.459,2.459,0,0,1-.92-.353c-.114-.112.078-.533.132-.814.009-.046.02-.092.029-.138l.276-.069Z"/><path class="cls-27" d="M42.4,6.257l-.276.069-.493-.184.215-.345C42.209,5.734,42.287,6.016,42.4,6.257Z"/><path class="cls-12" d="M42.882,7.631a2.23,2.23,0,0,0-.174-1.3c.237-.05.423-.329.71-.163l.1.42L43.15,6.7c.094.254.189.482.262.716.09.285.041.516-.3.595Z"/><path class="cls-12" d="M44.005,4.244l.142-.031.1.421-.137.035-.28.06c-.013-.044-.025-.09-.036-.135l-.066-.282Z"/><path class="cls-16" d="M44.67,4.541l.446.045c.059.624.059.624-.454,1.336l-.394-.551h0a1.464,1.464,0,0,0,.22-.284A5.289,5.289,0,0,0,44.67,4.541Z"/><path class="cls-16" d="M44.841,7.334c-.517-.247-.646-.573-.645-1.512A1.99,1.99,0,0,1,44.841,7.334Z"/><path class="cls-17" d="M43.826,4.729l.28-.06.163.7h0Z"/><path class="cls-15" d="M44.269,5.371l-.163-.7.137-.035c.14-.043.223-.346.427-.093a5.289,5.289,0,0,1-.181.546A1.464,1.464,0,0,1,44.269,5.371Z"/><path class="cls-20" d="M15.485,14.965l-.214.777a3.071,3.071,0,0,0-3.156-.578l-.033-.14c.138-.216.376-.426.389-.649a.667.667,0,0,1,.3-.632c.189-.127.225-.371-.072-.5l-.067-.281.671-.307.488.183c-.107.2-.166.465-.331.594-.4.311-.347.6-.1,1l.945-.671c.092.276.038.614.4.768A7.367,7.367,0,0,1,15.485,14.965Z"/><path class="cls-19" d="M12.7,13.243c.3.129.261.373.072.5a.667.667,0,0,0-.3.632c-.013.223-.251.433-.389.649-.3-.088-.077-.3-.112-.459-.064-.269-.124-.539-.185-.808C12.2,13.785,12.414,13.444,12.7,13.243Z"/><path class="cls-11" d="M1.786,23.3c.057.243.115.486.191.813-.43-.2-.276-.529-.412-.747Z"/><path class="cls-20" d="M24.11,9.969l-.389.239-.735.022-.065-.282c.327-.467.865-.475,1.341-.619l.758.139.712.4-.569.145c0-.09.007-.179.011-.3Z"/><path class="cls-24" d="M25.02,9.468l-.758-.139c-.05-.206-.127-.431.192-.48a.685.685,0,0,0,.594-.592l.39.35-.192.5-.44-.207C24.9,9.144,24.959,9.306,25.02,9.468Z"/><path class="cls-11" d="M22.921,9.948l.065.282-.07.017-.07.016L21.8,9.609C22.245,9.49,22.572,9.757,22.921,9.948Z"/><path class="cls-11" d="M21.81,9.614l-.189-.107.149-.044Z"/><path class="cls-20" d="M13.581,18.235c.177.485-.133.855-.3,1.258l-.6.3-.1-.112.232-.473a3.548,3.548,0,0,0-2.1-.5c-.049-.208-.1-.431-.154-.654.062-.162.188-.332.171-.485-.036-.317.167-.333.368-.384l.555.464c.169.619.169.619.726.571Z"/><path class="cls-5" d="M11.106,17.184c-.2.051-.4.067-.368.384.017.153-.109.323-.171.485-.342.056-.313.364-.419.59a.6.6,0,0,1-.316.308c-.278.079-.268-.184-.326-.353h0c.324-.064.229-.285.184-.488l.125-.766.52-.076-.032-.342.916-.517C11.628,16.733,11.352,16.956,11.106,17.184Z"/><path class="cls-21" d="M10.709,20.544c.129-.264.257-.527.407-.833.29.128.606.206.718.569Z"/><path class="cls-28" d="M21.284,9.293l-.143.025-.537-.3c.155-.363.424-.168.637-.1C21.291,8.931,21.272,9.161,21.284,9.293Z"/><path class="cls-21" d="M14.314,13.759l-.945.671c-.251-.394-.3-.687.1-1,.165-.129.224-.392.331-.594-.032-.141-.064-.281-.1-.422.32-.067.226-.286.181-.488l.215-.349c.614-.2.46.347.6.613l.124.554c-.061.164-.121.327-.182.49Z"/><path class="cls-2" d="M14.815,12.746l-.124-.554c.432-.367.433-.37.051-1.18l1.72-.733c-.11.229-.221.458-.4.832l.309.972-.573-.3C15.449,12.072,15.355,12.647,14.815,12.746Z"/><path class="cls-19" d="M13.308,12.655l-.671.307.111-.659-.375-.467.248-.207Z"/><path class="cls-22" d="M13.88,11.928c.045.2.139.421-.181.488-.11-.146-.3-.285-.1-.481C13.646,11.887,13.783,11.928,13.88,11.928Z"/><path class="cls-5" d="M14.314,13.759l.319-.523.522.322c.125.069.257.207.374.2a7.458,7.458,0,0,0,.923-.2c-.01.507.013.936-.036,1.357-.047.406-.276.447-.622.164a.98.98,0,0,0-.309-.105,7.367,7.367,0,0,0-.771-.438C14.352,14.373,14.406,14.035,14.314,13.759Z"/><path class="cls-5" d="M14.245,18.525c-.085.264-.252.169-.363.051a1.194,1.194,0,0,1-.16-.374l.249-.305c-.205-.134-.373-.254-.55-.356-.446-.257-.472-.34-.2-.765a2.612,2.612,0,0,1,.221-.282c.386-.445.386-.444.12-1.014.39-.259.6.113.93.241-.382.668.11.937.568,1.232l-.456.595c-.423.059-.568.289-.429.7Z"/><path class="cls-23" d="M12.387,18.219c-.557.048-.557.048-.726-.571C12.115,17.568,12.225,17.927,12.387,18.219Z"/><path class="cls-23" d="M25.163,10.015l.569-.145,0,0c.03.209.145.284.347.222l0,0,.339.223a.192.192,0,0,1,.038.092l.021.183-.176.24.4.011.069-.016.069-.015a.416.416,0,0,1-.246.512c-.124.071-.2.233-.29.354l-.563.126-.208-.24-.492-.878C25.076,10.466,25.12,10.24,25.163,10.015Z"/><path class="cls-22" d="M25.163,10.015c-.043.225-.087.451-.129.671l.492.878c-.4-.029-.544-.35-.748-.615-.069-.089-.217-.118-.329-.174.074-.212.091-.395-.153-.529-.087-.048-.126-.183-.186-.277l1.064-.251C25.17,9.836,25.166,9.925,25.163,10.015Z"/><path class="cls-5" d="M28.375,11.042l-.417.1-.354-.215h0l-.174-.11-.014-.009q.017-.289.032-.579l.012,0a5.99,5.99,0,0,1,.768-.029c.1.009.2.14.3.216C28.476,10.623,28.426,10.833,28.375,11.042Z"/><path class="cls-21" d="M27.858,12.646l-.245.209-.386-.661c.089-.354.143-.566.2-.779l.243-.2a.852.852,0,0,1,.142-.02C28.107,11.668,27.758,12.165,27.858,12.646Z"/><path class="cls-20" d="M29.244,11.581a3.715,3.715,0,0,1,.148.687c0,.118-.127.242-.2.364-.332.077-.354-.175-.38-.384-.03-.233-.019-.472-.026-.708l.42-.1C29.221,11.488,29.233,11.534,29.244,11.581Z"/><path class="cls-21" d="M29.209,11.442l-.42.1c-.3-.035-.372-.253-.414-.5.051-.209.1-.419.151-.628l.07-.017.071-.015A1.412,1.412,0,0,0,29.209,11.442Z"/><path class="cls-11" d="M27.809,11.193a.852.852,0,0,0-.142.02l-.063-.286.354.215Z"/><path class="cls-18" d="M27.449,10.23q-.015.29-.032.579l-.268.069-.316-.066-.069.015-.069.016c-.009-.046-.019-.093-.03-.139l-.014-.17.256-.011Z"/><path class="cls-29" d="M27.6,10.927l.063.286-.243.2-.241-.39.28-.065.142-.032Z"/><path class="cls-5" d="M27.463,10.96l-.28.065-.034-.147.268-.069.014.009Z"/><path class="cls-29" d="M14.245,18.525l-.067-.282.281.12Z"/><path class="cls-29" d="M9.69,18.111c.045.2.14.424-.184.488Z"/><path class="cls-28" d="M32.954,9.668l-.208-.246c-.13-.742-.05-.871.653-1.047.138-.034.277-.065.415-.1l.034.14A2.335,2.335,0,0,1,32.954,9.668Z"/><path class="cls-25" d="M33.848,8.418l-.034-.14.919-.514.555-.132.214.252.026.146a1.089,1.089,0,0,0-.843.433c-.089.143-.3.213-.451.316C34.177,8.582,34.17,8.331,33.848,8.418Z"/><path class="cls-24" d="M34.733,7.764l-.919.514c-.138.032-.277.063-.415.1-.7.176-.783.3-.653,1.047a.47.47,0,0,0-.44.371c-.067.222-.252.347-.485.136q.142-.693.286-1.387c.411-.141.365-.5.4-.827l.8-.356c.369.011.738.035,1.107.029C34.7,7.383,34.68,7.6,34.733,7.764Z"/><path class="cls-17" d="M32.107,8.542q-.142.695-.286,1.387L31.546,10l-.208-.251-.126-.561c.107-.174.213-.349.319-.523.022-.106.043-.212.065-.318-.007-.045-.015-.091-.023-.136C31.905,8.074,32.058,8.224,32.107,8.542Z"/><path class="cls-24" d="M29.821,10.259c.038-.163.076-.326.146-.624l.58.6.577-.135-.152.612-.266.062-.007.008-.49-.186-.308-.067Z"/><path class="cls-26" d="M31.212,9.189l.126.561-.138.037,0,0a1.3,1.3,0,0,0-.128-.252C30.89,9.315,31.019,9.241,31.212,9.189Z"/><path class="cls-1" d="M31.185,10.972l-.179-.118Z"/><path class="cls-1" d="M31.359,11.081l-.176-.109Z"/><path class="cls-25" d="M36.819,6.532c0,.163,0,.325-.006.487a8.209,8.209,0,0,0-.067,1.046,1.051,1.051,0,0,1-.278.948c-.249-.434-.469-.816-.689-1.2A1.561,1.561,0,0,1,35.8,6.622l.252-.2.418-.095Z"/><path class="cls-27" d="M38.744,6.529l-.527-.268-.456.491-.419-.5-.057-.276,0,0c.244-.241.8-.188.7-.748l.179-.059a2.02,2.02,0,0,1,.359.469A6.729,6.729,0,0,1,38.744,6.529Z"/><path class="cls-18" d="M35.8,6.622a1.561,1.561,0,0,0-.019,1.193l-.277.069-.214-.252c-.293-.779-.293-.779-.141-1.293v0l.068-.016.066-.019.277-.065Z"/><path class="cls-6" d="M37.72,7.212l.343.81-.935.583A1.309,1.309,0,0,1,37.72,7.212Z"/><path class="cls-25" d="M37.065,6.322l-.278.068-.039-.143L36.8,5.8l.134-.038.354.219,0,0Z"/><path class="cls-7" d="M37.065,6.322l.22-.343.057.276Z"/><path class="cls-7" d="M36.748,6.247l.039.143.032.142-.351-.208Z"/><path class="cls-6" d="M38.059,8.02l.169.1Z"/><path class="cls-23" d="M29.209,11.442a1.412,1.412,0,0,1-.542-1.06l.453.039.454.048c.012.046.025.091.038.136l-.121.768-.247.208C29.233,11.534,29.221,11.488,29.209,11.442Z"/><path class="cls-19" d="M29.491,11.373l.121-.768.289-.077.308.067.061.3c-.081.163-.154.331-.245.488C29.846,11.688,29.666,11.587,29.491,11.373Z"/><path class="cls-21" d="M30.27,10.894l-.061-.3.49.186Z"/><path class="cls-15" d="M42.882,7.631l.234.383q.115.314.233.627l-.1.058L42.9,8.211l-1.7.558-.141.029-.02-.736c.273-.514-.487-.065-.406-.422L41,6.6l.346-.39.286-.065.493.184c-.009.046-.02.092-.029.138-.054.281-.246.7-.132.814A2.459,2.459,0,0,0,42.882,7.631Z"/><path class="cls-12" d="M41.044,8.062l.02.736L41,8.816l-.068.016-.316-.668Z"/><path class="cls-17" d="M41.044,8.062l-.431.1-.905-.086-.129-.56c.33-.242.656-.489.994-.72A2.852,2.852,0,0,1,41,6.6l-.36,1.043C40.557,8,41.317,7.548,41.044,8.062Z"/><path class="cls-18" d="M33.308,7.359l-.8.356-.3.048-.063-.277c.17-.06.379-.046.374-.337a1.92,1.92,0,0,1,.155-.537h0a.742.742,0,0,0,.227-.942L32.5,5.178l.556-.136.519.923c-.033.3-.065.6-.1.9C33.167,6.945,33.256,7.158,33.308,7.359Z"/><path class="cls-28" d="M33.308,7.359c-.052-.2-.141-.414.166-.5a1.544,1.544,0,0,0,.518-.008c.394-.147.771-.341,1.155-.517-.152.514-.152.514.141,1.293l-.555.132c-.053-.169-.038-.381-.318-.376C34.046,7.394,33.677,7.37,33.308,7.359Z"/><path class="cls-18" d="M36.748,6.247l-.28.077-.418.095-.2-.253.083-.305c.044-.012.088-.025.132-.036.209.23.281-.057.415-.11l.324.08Z"/><path class="cls-25" d="M35.928,5.861l-.083.305-.286.071-.277.065-.036-.144C35.273,5.6,35.637,5.815,35.928,5.861Z"/><path class="cls-28" d="M37.068,3.8l-.431.695-.258-.322.41-.311Z"/><path class="cls-25" d="M35.889,5.119l.4-.038.046.119-.372.2Z"/><path class="cls-25" d="M35.658,4.735l.058.278-.271-.092Z"/><path class="cls-28" d="M35.246,6.158l.036.144-.066.019-.068.016Z"/><path class="cls-12" d="M33.053,5.042l-.556.136-.041-.147c-.159-.422.486-.259.442-.6a.615.615,0,0,0-.61-.106c-.065-.33.167-.344.389-.365.282-.026.564-.049.846-.073l.353.684Z"/><path class="cls-7" d="M32.288,4.327a.615.615,0,0,1,.61.106c.044.339-.6.176-.442.6-.331.069-.668.124-.633.6,0,.054-.134.176-.173.164-.092-.03-.221-.112-.234-.19a3.878,3.878,0,0,1-.011-.62Z"/><path class="cls-27" d="M36.8,5.8l-.324-.08c.192-.7.192-.7,1.4-1.341.056.125.11.248.165.37-.306.077-.252.285-.182.5-.321.15-.808,0-.926.514Z"/><path class="cls-4" d="M37.859,5.243c-.07-.214-.124-.422.182-.5l.129.425-.179.059A.731.731,0,0,0,37.859,5.243Z"/><path class="cls-12" d="M39.924,3.845l.1-.021-.048.016Z"/><path class="cls-28" d="M27.449,10.23l-.542.293c-.091-.212-.178-.424,0-.634a6.857,6.857,0,0,0,.607-1.579c.007-.039.122-.056.186-.083.158,0,.315-.009.472-.006.244.005.487.016.731.025.117.27.231.508.616.474.105-.009.232.233.453.472a6.826,6.826,0,0,0-.948-.184c-.039,0-.093.279-.14.43L28.6,9.5a.79.79,0,0,0-.858-.379l-.154.472-.462.16.419.175-.088.3Z"/><path class="cls-28" d="M25.02,9.468c-.061-.162-.121-.324-.214-.569l.44.207c.192.472.511.089.77.115,0,.207,0,.415-.007.622l-.28.031,0,0Z"/><path class="cls-24" d="M26.911,9.889c-.182.21-.1.422,0,.634l-.256.011-.2-.125a.192.192,0,0,0-.038-.092l-.112-.259Z"/><path class="cls-4" d="M26.3,10.058l.112.259-.339-.223Z"/><path class="cls-14" d="M25.729,9.874l.28-.031.067.253C25.874,10.158,25.759,10.083,25.729,9.874Z"/><path class="cls-24" d="M31.309,7.082q-.143-.261-.283-.522c.092-.142.185-.283.33-.5l.5.743Z"/><path class="cls-12" d="M32.209,7.763l.3-.048c-.037.323.009.686-.4.827-.049-.318-.2-.468-.534-.33L31.5,7.936l.286-.073Z"/><path class="cls-12" d="M32.675,6.612a1.92,1.92,0,0,0-.155.537c0,.291-.2.277-.374.337C32.022,6.812,32.022,6.812,32.675,6.612Z"/><path class="cls-7" d="M32.905,5.67a.742.742,0,0,1-.227.942C32.661,6.276,32.5,5.9,32.905,5.67Z"/><path class="cls-24" d="M31.5,7.936l.075.276c.008.045.016.091.023.136-.169.076-.387.142-.065.318-.106.174-.212.349-.319.523-.193.052-.322.126-.143.342a1.3,1.3,0,0,1,.128.252l-1.169-.532.806-1.016.249-.205Z"/><path class="cls-24" d="M29.825,7.732l.781-.48.066-.016.067-.015.236.379c-.044.014-.089.027-.134.039-.176.187-.369.361-.525.564a.374.374,0,0,1-.626.075Z"/><path class="cls-3" d="M27.461,10.227l.088-.3.247-.071.318.044,1.225.176.344.213-.109.179-.454-.048-.453-.039L28.6,10.4l-.07.017c-.1-.076-.193-.207-.3-.216A5.99,5.99,0,0,0,27.461,10.227Z"/><path class="cls-24" d="M29.339,10.077,28.114,9.9c-.068-.418.3-.3.49-.4l.284-.062.538.226C29.4,9.8,29.369,9.937,29.339,10.077Z"/><path class="cls-12" d="M30.841,7.639c.045-.012.09-.025.134-.039l.108.43-.249.205Z"/><path class="cls-21" d="M29.574,10.469l.109-.179.138-.031.08.269-.289.077C29.6,10.56,29.586,10.515,29.574,10.469Z"/><path class="cls-28" d="M30.739,7.221l-.067.015-.066.016Z"/><path class="cls-20" d="M26.665,10.7c.011.046.021.093.03.139l-.4-.011.176-.24Z"/><path class="cls-4" d="M26.665,10.7l-.194-.112-.021-.183.2.125Z"/><path class="cls-11" d="M27.463,10.96l-.032-.142.174.11Z"/><path class="cls-25" d="M31.531,8.666c-.322-.176-.1-.242.065-.318C31.574,8.454,31.553,8.56,31.531,8.666Z"/><path class="cls-7" d="M35.559,6.237l.286-.071.2.253-.252.2Z"/><path class="cls-7" d="M37.859,5.243a.731.731,0,0,1,.132-.015c.095.56-.46.507-.7.748l-.354-.219C37.051,5.243,37.538,5.393,37.859,5.243Z"/><path class="cls-25" d="M28.6,9.5c-.19.1-.558-.017-.49.4L27.8,9.857l-.2-.264.154-.472A.79.79,0,0,1,28.6,9.5Z"/><path class="cls-24" d="M27.592,9.593l.2.264-.247.071-.419-.175Z"/><path class="cls-30" d="M19.121,8.915a8.415,8.415,0,0,1,1.931.2,5.427,5.427,0,0,1,1.834.749l-.25,0a3.139,3.139,0,0,1,1.1-.551,2.8,2.8,0,0,1,1.253-.049,3.091,3.091,0,0,1,1.16.491,4.377,4.377,0,0,1,.911.83l-.6.045a2.319,2.319,0,0,1,.718-.733,2.229,2.229,0,0,1,.971-.343,3.12,3.12,0,0,1,1.875.489l-.256-.065a2.687,2.687,0,0,1,.653.06,2.727,2.727,0,0,1,.605.2,2.551,2.551,0,0,1,1,.829l-.316-.2a6.548,6.548,0,0,1,.68.156q.328.091.646.212a6.867,6.867,0,0,1,1.227.615l-.676.121a5,5,0,0,1,1.262-1.127,3.959,3.959,0,0,1,1.619-.588,3.533,3.533,0,0,1,1.726.241,5.153,5.153,0,0,1,1.422.878l-.758.119a6.5,6.5,0,0,1,.916-1.075,6.825,6.825,0,0,1,1.092-.851,6.367,6.367,0,0,1,2.6-.931l.025,0a.415.415,0,0,1,.337.116,1.26,1.26,0,0,1,.23.3,1.277,1.277,0,0,1,.131.338,1.253,1.253,0,0,1-.049.722L43.5,9.609a2.526,2.526,0,0,1,.257-.133,1.909,1.909,0,0,1,.293-.105.776.776,0,0,1,.506.018.56.56,0,0,1,.3.317.712.712,0,0,1,.039.285l-.755-.238a7.744,7.744,0,0,1,.68-.854,5.192,5.192,0,0,1,.825-.739A2.063,2.063,0,0,1,46.8,7.748a1.255,1.255,0,0,1,.65.183,1.768,1.768,0,0,1,.457.427l0,.006a.284.284,0,0,1,.009.336l-.369.529-.174.266-.078.128-.029.053s-.007.017,0,0V9.663a.167.167,0,0,0,0-.059l0-.018a.236.236,0,0,0-.021-.055.222.222,0,0,0-.085-.087.226.226,0,0,0-.169-.027l.158.018c-.029-.013,0,0,.005,0a.118.118,0,0,0,.044,0,.607.607,0,0,0,.113-.015,1.279,1.279,0,0,0,.255-.112,2.535,2.535,0,0,0,.482-.4,6.844,6.844,0,0,0,.81-1.048c.124-.187.242-.379.351-.576s.224-.392.328-.593c.22-.4.41-.808.611-1.216-.155.426-.3.858-.478,1.279-.081.213-.175.421-.273.627s-.2.414-.3.617a6.368,6.368,0,0,1-.76,1.168,3,3,0,0,1-.529.506,1.721,1.721,0,0,1-.354.187,1.018,1.018,0,0,1-.221.047.517.517,0,0,1-.125,0,.445.445,0,0,1-.161-.036l.158.017A.262.262,0,0,1,46.9,9.86a.253.253,0,0,1-.091-.095.262.262,0,0,1-.024-.059l0-.023a.348.348,0,0,1,0-.079l.006-.032a.663.663,0,0,1,.023-.079c.014-.037.027-.067.04-.1l.079-.159c.052-.1.108-.2.163-.294.112-.192.224-.379.342-.568l.013.342a.773.773,0,0,0-.642-.32,1.46,1.46,0,0,0-.734.342,4.442,4.442,0,0,0-.671.666,7.165,7.165,0,0,0-.565.783.393.393,0,0,1-.71-.091l-.045-.148s-.006,0,.009.052a.278.278,0,0,0,.144.151c.112.035.073.01.039.03a1.015,1.015,0,0,0-.15.065,1.785,1.785,0,0,0-.16.093.428.428,0,0,1-.652-.462l.013-.05a.4.4,0,0,0,.005-.221.375.375,0,0,0-.046-.106.487.487,0,0,0-.059-.078l.362.112a5.428,5.428,0,0,0-2.2.86,6.869,6.869,0,0,0-.925.753,5.489,5.489,0,0,0-.75.889l-.006.008a.509.509,0,0,1-.705.147.592.592,0,0,1-.048-.035,4.124,4.124,0,0,0-1.141-.694,2.643,2.643,0,0,0-1.235-.17,2.934,2.934,0,0,0-1.2.428,4.061,4.061,0,0,0-.993.861l-.012.015a.506.506,0,0,1-.664.106,6.158,6.158,0,0,0-1.044-.537c-.183-.076-.37-.143-.559-.2a5.664,5.664,0,0,0-.558-.147l-.017,0a.481.481,0,0,1-.3-.2,1.6,1.6,0,0,0-.612-.541,1.866,1.866,0,0,0-.4-.148,1.967,1.967,0,0,0-.406-.055h-.037a.428.428,0,0,1-.219-.064,2.393,2.393,0,0,0-1.343-.435,1.418,1.418,0,0,0-.63.188,1.631,1.631,0,0,0-.492.444l-.022.032a.361.361,0,0,1-.5.088.376.376,0,0,1-.079-.075,3.12,3.12,0,0,0-1.625-1.206,2.281,2.281,0,0,0-1.011-.029,2.725,2.725,0,0,0-.965.377l-.022.014a.2.2,0,0,1-.228-.011,5.575,5.575,0,0,0-1.65-.86A9.5,9.5,0,0,0,19.121,8.915Z"/><path class="cls-4" d="M31.568,11.058a6.353,6.353,0,0,1,.1-1,6.008,6.008,0,0,1,.247-.982,3.746,3.746,0,0,1,1.111-1.723l-.051.07a9.35,9.35,0,0,1,.92-1.869,5.54,5.54,0,0,1,.645-.833,3.363,3.363,0,0,1,.848-.662l-.015.008a4.376,4.376,0,0,1,.535-.276,3.98,3.98,0,0,1,.565-.2,2.275,2.275,0,0,1,1.209-.01l-.121.043A3.248,3.248,0,0,1,38,3.173a2.9,2.9,0,0,1,.5-.356,2.53,2.53,0,0,1,.565-.239,2.119,2.119,0,0,1,.6-.081,2.451,2.451,0,0,0-1.1.431,3.468,3.468,0,0,0-.822.822l-.043.062-.078-.018a2.026,2.026,0,0,0-1.069.076,4.151,4.151,0,0,0-1,.469l0,0-.011.006a3.256,3.256,0,0,0-.75.607,6.153,6.153,0,0,0-.6.787,8.636,8.636,0,0,0-.5.871c-.152.3-.3.606-.419.914l-.017.042-.034.027a3.22,3.22,0,0,0-.653.689,4.864,4.864,0,0,0-.46.861A8.641,8.641,0,0,0,31.568,11.058Z"/><path class="cls-4" d="M26.444,10.046a1.184,1.184,0,0,1,.759-.863l-.067.093A2.671,2.671,0,0,1,27.32,8.09a1.9,1.9,0,0,1,.335-.526,1.625,1.625,0,0,1,.512-.376l-.1.125a2.815,2.815,0,0,1,.2-.629,2.511,2.511,0,0,1,.351-.559,1.807,1.807,0,0,1,.512-.432,1.889,1.889,0,0,1,.632-.22l-.118.118a2.868,2.868,0,0,1,.207-.569,2.957,2.957,0,0,1,.311-.5,2.654,2.654,0,0,1,.889-.747,3.656,3.656,0,0,0-.411.394,2.843,2.843,0,0,0-.325.456,3.093,3.093,0,0,0-.24.5,2.563,2.563,0,0,0-.145.52l-.014.09-.1.028a1.656,1.656,0,0,0-.518.21,1.71,1.71,0,0,0-.416.372,2.311,2.311,0,0,0-.3.487,2.557,2.557,0,0,0-.183.541l-.017.086-.08.04a1.55,1.55,0,0,0-.42.289,1.673,1.673,0,0,0-.3.427,2.728,2.728,0,0,0-.264,1.057l0,.079-.062.014a1.043,1.043,0,0,0-.476.236A1.349,1.349,0,0,0,26.444,10.046Z"/><path class="cls-4" d="M36.546,10.492a2.231,2.231,0,0,1,.256-.914,1.348,1.348,0,0,1,.729-.646l-.058.053a2.817,2.817,0,0,1,.636-.947,2.192,2.192,0,0,1,.462-.353,2.29,2.29,0,0,1,.544-.223L39,7.574a2.617,2.617,0,0,1,.424-.83,2.788,2.788,0,0,1,.658-.647,3.018,3.018,0,0,1,.822-.412,3.858,3.858,0,0,1,.892-.174l-.128.121a2.355,2.355,0,0,1,.2-.545,1.982,1.982,0,0,1,.326-.471A1.344,1.344,0,0,1,43.206,4.2a1.515,1.515,0,0,0-.5.187,1.363,1.363,0,0,0-.379.35,1.756,1.756,0,0,0-.25.448,2.07,2.07,0,0,0-.128.491l-.012.1-.115.019a3.957,3.957,0,0,0-.813.2,2.88,2.88,0,0,0-.729.382,2.769,2.769,0,0,0-.587.572,2.688,2.688,0,0,0-.391.709l-.031.09-.084.022a1.99,1.99,0,0,0-.476.176,2.126,2.126,0,0,0-.428.285,2.613,2.613,0,0,0-.642.823l-.019.041-.038.013a1.277,1.277,0,0,0-.391.194,1.5,1.5,0,0,0-.306.33A2.465,2.465,0,0,0,36.546,10.492Z"/><path class="cls-31" d="M1.456,21.2a10.8,10.8,0,0,1,.93.6,9.552,9.552,0,0,1,.874.683,5.7,5.7,0,0,1,1.434,1.726l-.3.072c-.035-.525-.037-1.044-.022-1.567a15.152,15.152,0,0,1,.115-1.562,10.367,10.367,0,0,1,.295-1.545,5.7,5.7,0,0,1,.607-1.463l0-.007,0,0a3.672,3.672,0,0,1,.484-.482,3.253,3.253,0,0,1,.559-.379,3.109,3.109,0,0,1,.618-.262,2.755,2.755,0,0,1,.654-.116,3.215,3.215,0,0,0-1.2.5,4.56,4.56,0,0,0-.5.4,3.494,3.494,0,0,0-.425.474l.006-.009a6.22,6.22,0,0,0-.507,1.424,12.491,12.491,0,0,0-.255,1.508,22.991,22.991,0,0,0-.119,3.071l.019.788-.316-.716a4.555,4.555,0,0,0-.559-.9,8.015,8.015,0,0,0-.729-.8A17.684,17.684,0,0,0,1.456,21.2Z"/><path class="cls-31" d="M7.644,22.262c.41-.809.836-1.61,1.29-2.395a14.915,14.915,0,0,1,1.5-2.287,16.281,16.281,0,0,1,1.856-2.015,7.052,7.052,0,0,1,2.332-1.473l-.088.1a12.344,12.344,0,0,1,.589-1.842,6.171,6.171,0,0,1,.441-.86,2.691,2.691,0,0,1,.622-.733,3.041,3.041,0,0,0-.539.779,6.261,6.261,0,0,0-.36.877,12.055,12.055,0,0,0-.483,1.832l-.013.073-.075.03a7.509,7.509,0,0,0-2.2,1.466,19.422,19.422,0,0,0-1.832,1.968c-.14.172-.3.352-.429.52s-.259.361-.387.545c-.256.37-.5.749-.748,1.129Z"/><path class="cls-8" d="M4.047,26.759s1.671-3.866,7.6-5.546c0,0-5.049-.01-7.036,3.377A4.611,4.611,0,0,0,4.047,26.759Z"/><path class="cls-8" d="M29.9,15.094a5.96,5.96,0,0,0,.072-.673,1.482,1.482,0,0,0-.019-.323.332.332,0,0,0-.043-.125.28.28,0,0,0-.1-.049,8.587,8.587,0,0,0-1.3-.275c-.444-.064-.889-.125-1.334-.156a4.392,4.392,0,0,0-1.287.031l.044-.025c-.327.255-.659.514-.964.788a1.2,1.2,0,0,0-.183.2,1.022,1.022,0,0,0-.029.288c0,.207.019.417.034.628a4.423,4.423,0,0,1-.146-.619,1.133,1.133,0,0,1-.016-.339.922.922,0,0,1,.2-.3,9.251,9.251,0,0,1,.917-.888l.02-.017.025-.008a3.965,3.965,0,0,1,1.416-.088,11.5,11.5,0,0,1,1.362.191,6.1,6.1,0,0,1,1.334.394.442.442,0,0,1,.087.052c.032.029.074.058.087.094a.5.5,0,0,1,.046.2,1.588,1.588,0,0,1-.033.356A3.621,3.621,0,0,1,29.9,15.094Z"/><path class="cls-8" d="M23.846,11.353a3.024,3.024,0,0,1,.906.126,6.271,6.271,0,0,1,.865.289,3.62,3.62,0,0,1,.42.214.974.974,0,0,1,.11.082.337.337,0,0,1,.073.087.2.2,0,0,1,.023.13.237.237,0,0,1-.009.037c-.019.072-.041.144-.064.215a6,6,0,0,1-.325.847,5.994,5.994,0,0,1,.062-.911c.009-.075.019-.151.032-.225,0,0,.006-.028,0-.018a.138.138,0,0,0,.008.077c.016.023,0,.006,0,0-.02-.013-.047-.028-.076-.043a4.274,4.274,0,0,0-.39-.178l-.817-.354C24.389,11.617,24.124,11.471,23.846,11.353Z"/><path class="cls-18" d="M17.015,9.123c-.577.181-1.156.351-1.736.516l-.057.016L15.176,9.6c-.2-.238-.517-.461-.759-.392a.775.775,0,0,0-.351.233,1.219,1.219,0,0,0-.234.375l-.038.1-.114.023a6.794,6.794,0,0,0-1.05.3,2.77,2.77,0,0,0-.9.5c-.241.239-.5.54-.738.817l-.725.856-.066.078-.108.024c-.621.136-1.248.3-1.852.492a8.446,8.446,0,0,0-.878.323,2.848,2.848,0,0,0-.382.2,1.022,1.022,0,0,0-.139.108c-.03.031-.042.061-.036.039l-.254.254a22.19,22.19,0,0,0-2.347.694,2.4,2.4,0,0,0-.479.235.774.774,0,0,0-.143.159,2.741,2.741,0,0,0-.153.232,7.9,7.9,0,0,0-.513,1.073l-.036.09-.071.054a4.351,4.351,0,0,0-.4.355,4.47,4.47,0,0,0-.361.407,2.637,2.637,0,0,0-.479.922l-.029.113-.085.057a.983.983,0,0,0-.179.169.914.914,0,0,0-.2.729l.022.166-.133.084a1.266,1.266,0,0,0-.25.223,1.1,1.1,0,0,0-.185.295,1.173,1.173,0,0,0-.064.7l.006.032v.009a.475.475,0,0,1-.048.179L.385,21a.915.915,0,0,0-.042.188,1.261,1.261,0,0,0,.022.408,3.111,3.111,0,0,0,.316.827l.026.05-.021.044a4.183,4.183,0,0,0-.341,1.011,1.5,1.5,0,0,0,.1,1.047,1.532,1.532,0,0,1-.213-1.064A4.315,4.315,0,0,1,.5,22.429l.005.094a3.379,3.379,0,0,1-.429-.858A1.576,1.576,0,0,1,0,21.16a1.264,1.264,0,0,1,.038-.266c.012-.043.024-.085.038-.124s.023-.089.016-.042l.005.041A1.736,1.736,0,0,1,.038,20.3a1.436,1.436,0,0,1,.084-.475,1.609,1.609,0,0,1,.584-.775L.6,19.3a1.428,1.428,0,0,1,.063-.793,1.489,1.489,0,0,1,.194-.352,1.457,1.457,0,0,1,.292-.3l-.115.171a3.01,3.01,0,0,1,.538-1.165,5,5,0,0,1,.4-.479,4.792,4.792,0,0,1,.463-.43l-.107.145a7.6,7.6,0,0,1,.535-1.194,3.4,3.4,0,0,1,.188-.291,1.432,1.432,0,0,1,.278-.3,2.974,2.974,0,0,1,.632-.328A18.26,18.26,0,0,1,6.4,13.259l-.254.253a.818.818,0,0,1,.224-.367,1.73,1.73,0,0,1,.245-.19,3.467,3.467,0,0,1,.481-.251,9.089,9.089,0,0,1,.954-.341c.641-.188,1.279-.331,1.932-.455l-.174.1c.253-.285.5-.567.766-.842s.512-.542.818-.821A3.121,3.121,0,0,1,12.481,9.8a7.3,7.3,0,0,1,1.141-.247l-.151.12a1.532,1.532,0,0,1,.35-.478,1.071,1.071,0,0,1,.539-.276.8.8,0,0,1,.587.165,1.681,1.681,0,0,1,.389.4l-.1-.038C15.825,9.332,16.419,9.223,17.015,9.123Z"/></svg>