<svg id="Layer_1" data-name="Layer 1" xmlns="http://www.w3.org/2000/svg" viewBox="0 0 56.69 56.69"><defs><style>.cls-1{fill:#010101;}</style></defs><title>кардамон-black</title><path class="cls-1" d="M50,9.73a2.44,2.44,0,0,0-3.2-1.78c-7.24,2.24-12.3,5.58-15.49,10.21a38.43,38.43,0,0,0-7,23.63h0c0,.25.16,6-3.44,7.43-.47.14-2.34.78-2.64,2.2a2.46,2.46,0,0,0,1.12,2.39l0,0c.45.33,2.65,1.84,4.41,1.84a2.65,2.65,0,0,0,.48,0,2,2,0,0,0,1.35-.88,3,3,0,0,0,.4-1.7,3.74,3.74,0,0,1,0-.53,1.49,1.49,0,0,1,.84-1,35.56,35.56,0,0,1,4.28-1.76,33.54,33.54,0,0,0,5.11-2.17C43.57,43.5,48.51,39.06,51,34.37A20.59,20.59,0,0,0,51.27,16l0,0a12.1,12.1,0,0,1-1-2.78,7.38,7.38,0,0,1,0-1.29A6.6,6.6,0,0,0,50,9.73Zm-25.85,39c2-2.28,3.76-10,4.54-12.72.27-.95.62-2.62.86-3.6C32,22.29,45,10.35,46.46,9.86c-7.32,6.67-12.74,14.85-15.27,23.06-.29.95-.57,1.91-.83,2.85C29.06,40.33,27.71,45,24.16,48.75Zm4.65-2.87c-.34-.33,10.78-12.15,13.88-22.24.19-.62.79-3.29.9-4,.45-3,3.11-6.76,3.13-6.29,0,.29-1.62,4.27-1.76,6.2a20.82,20.82,0,0,1-.26,2.31C42.89,31.24,29,46,28.81,45.88Zm1.8,2.26c-.18.08-.38.14-.57.21C31.5,47.2,49.24,32.76,49.1,15.3,51.08,36.13,33.12,47,30.61,48.14Z"/><path class="cls-1" d="M11.41,11.44a33.29,33.29,0,0,0-2.58,4.84c-3.06,7.63-4.1,14.08-3.08,19.17a19.91,19.91,0,0,0,11.18,14l0,0,.24.12a5,5,0,0,1,1.35-1.23,13.82,13.82,0,0,1-2.24-1.79C5.6,34.58,13.08,12,13.18,11.81c-.4,1.77-5,23.36,5.57,36.49A7.48,7.48,0,0,1,20,47.71h0l.29-.1a2.33,2.33,0,0,0,.33-.17l0,0a2.55,2.55,0,0,0,.29-.22l0,0a3.25,3.25,0,0,0,.51-.6,9.5,9.5,0,0,0-1.88-3.64A14.88,14.88,0,0,1,18.39,41c-4.78-9.78-3.2-28.18-2.73-28.14s-.26,19,4.23,27.32A18.64,18.64,0,0,0,21,41.94a21.69,21.69,0,0,1,1.38,2.14,12.63,12.63,0,0,0,.18-1.55h0c0-.1,0-.19,0-.27h0c0-.08,0-.15,0-.21h0c0-.12,0-.18,0-.19h0c0-.51,0-1,0-1.54,0-.18,0-.37,0-.55s0-.65,0-1,0-.45,0-.68,0-.56.05-.83,0-.5.07-.76,0-.5.08-.74.07-.54.1-.81.06-.45.1-.67.09-.57.14-.86.07-.4.11-.61.12-.61.18-.91l.12-.52c.08-.32.15-.65.23-1v-.06a42.27,42.27,0,0,0-2-6.2c-.36-.9-.76-1.81-1.13-2.68-1.83-4.25-3.37-8.36-3.29-13.7.1,2.24,2.58,9.38,4.3,12.9.57,1.16,1.16,2.12,1.54,3,.49,1.21,1.09,2.27,1.48,3.56a41.37,41.37,0,0,1,2.51-5.75,35.66,35.66,0,0,0-5.63-8.38s-3.87-4.38-2-7.73C20,5,21,3.36,20.35,2.08A2.42,2.42,0,0,0,18,1h-.06c-.61,0-3.7.31-4.88,1.71a2,2,0,0,0-.48,1.51,2.87,2.87,0,0,0,.75,1.55,3.63,3.63,0,0,1,.3.41,1.43,1.43,0,0,1,0,1.29A35.23,35.23,0,0,1,11.41,11.44Z"/></svg>