<?xml version="1.0" encoding="utf-8"?>
<!-- Generator: Adobe Illustrator 23.0.3, SVG Export Plug-In . SVG Version: 6.00 Build 0)  -->
<svg version="1.1" id="Layer_1" xmlns="http://www.w3.org/2000/svg" xmlns:xlink="http://www.w3.org/1999/xlink" x="0px" y="0px"
	 viewBox="0 0 56.7 56.7" style="enable-background:new 0 0 56.7 56.7;" xml:space="preserve">
<title>Ingredients Icons</title>
<path d="M16.9,21l38.7,4.8c0,0,0.1,0,0.1,0.1c1.4,0.8,1.9,2.6,1.1,4c-0.4,0.7-1,1.2-1.8,1.4c-0.1,0-0.1,0-0.2,0l-38.6-0.2
	c3-2.3,3.5-6.6,1.1-9.5C17.3,21.4,17.1,21.2,16.9,21L16.9,21z"/>
<path d="M42.1,43.6c-0.6-0.7-1.1-1.5-1.4-2.4c0,0,0-0.1,0-0.1c-0.7-2.3-0.2-4.8,1.3-6.6L3.7,42c0,0-0.1,0.1-0.1,0.1
	c-0.4,0.2-0.7,0.6-0.9,1c-0.3,0.5-0.4,1-0.4,1.5c0,1.4,1,2.6,2.3,2.9c0.1,0,0.1,0,0.2,0l38.6-2.8C42.9,44.4,42.4,44,42.1,43.6z"/>
<path d="M17.3,24.2l-9.5-1.5c1.7-2.4,5.1-3,7.5-1.3c0.9,0.6,1.6,1.5,2,2.5C17.2,24,17.2,24.1,17.3,24.2z"/>
<path d="M41.7,39c0,0.4,0,0.8,0.1,1.2l6.9-0.5c0,0,0,0,0,0c0,0,0.1,0,0.1,0c0,0,0,0,0.1,0s0,0,0.1,0s0,0,0.1,0l0,0h0
	c0,0,0.1,0,0.1,0c0.1,0,0.1,0,0.2,0c0.1-0.1,0.2-0.1,0.3-0.2c0.5-0.6,0.7-1.3,0.8-2c0.1-0.3,0.1-0.5,0.1-0.8c0-0.4-0.1-0.9-0.3-1.3
	c-0.2-0.3-0.4-0.6-0.7-0.9c-0.4-0.3-0.8-0.6-1.3-0.7h0c-0.4-0.1-0.9-0.2-1.3-0.2c-0.3,0-0.6,0-0.9,0.1l-0.2,0
	C43.5,34.2,41.7,36.4,41.7,39L41.7,39z"/>
</svg>
