<?xml version="1.0" encoding="utf-8"?>
<!-- Generator: Adobe Illustrator 21.1.0, SVG Export Plug-In . SVG Version: 6.00 Build 0)  -->
<svg version="1.1" id="Layer_1" xmlns="http://www.w3.org/2000/svg" xmlns:xlink="http://www.w3.org/1999/xlink" x="0px" y="0px"
	 viewBox="0 0 56.7 56.7" style="enable-background:new 0 0 56.7 56.7;" xml:space="preserve">
<title>Ingredients Icons</title>
<ellipse transform="matrix(0.8972 -0.4416 0.4416 0.8972 -9.8821 25.7531)" cx="50.4" cy="34.1" rx="3.1" ry="6.3"/>
<path d="M33.9,25.8c7.8-2.8,16,0.4,16,0.4c-5.2,5.8-11,11-17.3,15.7c7.7-1.4,15.5-2.2,23.4-2.5c0,0-3.9,12.7-14.9,14.8
	c-5.9,1.1-13.9-2.9-16.1-10.8C24.2,40.7,21.3,30.3,33.9,25.8z"/>
<path d="M20.6,48.7c0.4-0.1,0.8-0.2,1.2-0.5c0.3-0.2,0.4-0.6,0.4-0.9c0-0.2-1.3-6.1-1.3-6.2l0,0c-0.2-2.1,0.6-4.1,2.1-5.5
	c-0.3,0-0.6,0-0.8,0c-1.1,0.8-2.5,0.8-3.8,1s-2.4,0.6-3.7,0.3c-0.3,0.1-0.3,0.3-0.5,0.4c1.9,0.8,3.2,2.5,3.7,4.5
	c1,5.7,1.1,6.2,1.1,6.2C19,48.5,19.4,48.8,20.6,48.7z"/>
<path d="M10.5,5.6c-1.9,2.2-3.7,4.5-5.4,6.9c-2.3,3.5-6.8,12.3,0,20.5c5.5,6.6,16.3,4.6,21,0.5c3-2.5,8.8-10.3,1.2-20.5
	c-2-2.7-4.4-5.1-7.1-7c0,0,13.5,14.5,0.5,26.2c1.2-2.7,2.1-5.5,2.6-8.4c0.7-6.1-1.2-11.5-4.7-16.3c-1.6-2.1-3-4.3-4.2-6.6
	c0,0-4.2,9.8-5,16.4c-1.3,10.2,2.4,14,6.4,17.3c0,0-4.4-0.7-7.5-6.3C5.5,23.3,5.2,16.2,10.5,5.6z"/>
</svg>
