<?xml version="1.0" encoding="utf-8"?>
<!-- Generator: Adobe Illustrator 21.1.0, SVG Export Plug-In . SVG Version: 6.00 Build 0)  -->
<svg version="1.1" id="Layer_1" xmlns="http://www.w3.org/2000/svg" xmlns:xlink="http://www.w3.org/1999/xlink" x="0px" y="0px"
	 viewBox="0 0 56.7 56.7" style="enable-background:new 0 0 56.7 56.7;" xml:space="preserve">
<title>Ingredients Icons</title>
<path d="M20.8,39.3c0,0,2.2-24.5,25.5-24.5c0,0-13.9,29.6-24.8,27.5c0,0,5-16.8,16.6-21.7C30.1,24.2,23.9,31,20.8,39.3z"/>
<path d="M20.7,48.3c0,0,11.4-16.4,35.9-2.7c0,0-29,14-37.8,5.3c0,0,14.2-9.8,30.6-6.2C49.3,44.7,32.8,39.8,20.7,48.3z"/>
<path d="M17.8,45.6c0,0,7.5-20.4-17.8-30.8c0,0-0.4,32.2,17.2,34.1c0,0,0-17.3-12.2-28.7C5,20.2,18,30.8,17.8,45.6z"/>
</svg>
