<?xml version="1.0" encoding="utf-8"?>
<!-- Generator: Adobe Illustrator 22.0.0, SVG Export Plug-In . SVG Version: 6.00 Build 0)  -->
<svg version="1.1" id="Layer_1" xmlns="http://www.w3.org/2000/svg" xmlns:xlink="http://www.w3.org/1999/xlink" x="0px" y="0px"
	 viewBox="0 0 100 100" style="enable-background:new 0 0 100 100;" xml:space="preserve">
<style type="text/css">
	.st0{fill:#D51C59;}
	.st1{fill:#FFFFFF;}
	.st2{fill:none;stroke:#000000;stroke-linejoin:round;stroke-miterlimit:10;}
	.st3{fill:none;stroke:#7DC6D6;stroke-width:2;stroke-linecap:round;stroke-linejoin:round;stroke-miterlimit:10;}
	.st4{fill:none;stroke:#D51C59;stroke-width:2;stroke-linecap:round;stroke-linejoin:round;stroke-miterlimit:10;}
	.st5{fill:none;stroke:#000000;stroke-miterlimit:10;}
	.st6{fill:none;stroke:#515150;stroke-width:16;stroke-linecap:round;stroke-miterlimit:10;}
	.st7{fill:none;stroke:#515150;stroke-linejoin:round;stroke-miterlimit:10;}
	.st8{fill:#05305E;}
	.st9{fill:#B2B9C8;}
	.st10{fill:#8BC34A;}
	.st11{fill:#33691E;}
	.st12{fill:#669B41;stroke:#669B41;stroke-miterlimit:10;}
	.st13{fill:#669B41;}
	.st14{fill:#1B5E20;stroke:#1B5E20;stroke-miterlimit:10;}
	.st15{fill:#7ACC49;}
	.st16{fill:#20265A;}
	.st17{fill:#004400;}
	.st18{fill:#005E00;}
	.st19{fill:none;}
	.st20{font-family:'ArialMT';}
	.st21{font-size:12px;}
	.st22{fill:#00540B;}
	.st23{fill:#76CDD9;stroke:#76CDD9;stroke-width:2;stroke-miterlimit:10;}
	.st24{fill:#76CDD9;stroke:#76CDD9;stroke-width:3;stroke-miterlimit:10;}
	.st25{fill:#76CDD9;}
</style>
<g>
	<path d="M-701.4,4.4c-14.1,0-25.5-11.5-25.5-25.5c0-14.1,11.5-25.5,25.5-25.5s25.5,11.5,25.5,25.5S-687.3,4.4-701.4,4.4z
		 M-701.4-45c-13.2,0-23.9,10.7-23.9,23.9s10.7,23.9,23.9,23.9c13.2,0,23.9-10.7,23.9-23.9S-688.2-45-701.4-45z"/>
</g>
<g>
	<path d="M-701.4-0.5c-11.4,0-20.6-9.3-20.6-20.6c0-11.4,9.3-20.6,20.6-20.6c11.4,0,20.6,9.3,20.6,20.6S-690-0.5-701.4-0.5z
		 M-701.4-40.4c-10.6,0-19.3,8.6-19.3,19.3c0,10.6,8.7,19.3,19.3,19.3s19.3-8.7,19.3-19.3C-682.1-31.8-690.8-40.4-701.4-40.4z"/>
</g>
<g id="check_2_">
	<g>
		<path class="st0" d="M-703.3-8.6l-14-14c-0.8-0.8-0.8-2.2,0-3l3-3c0.8-0.8,2.2-0.8,3,0l9.4,9.4l20.1-20.1c0.8-0.8,2.2-0.8,3,0l3,3
			c0.8,0.8,0.8,2.2,0,3l-24.4,24.7C-701.1-7.7-702.4-7.7-703.3-8.6L-703.3-8.6z"/>
	</g>
</g>
<g>
	<path d="M-710.2-65.6c1-0.2,1.9-0.1,2.7,0.4s1.3,1.2,1.5,2.2c0.2,1,0.1,1.9-0.5,2.6c-0.5,0.8-1.3,1.3-2.2,1.5l-1.3,0.3l0.6,2.9
		l-2.5,0.5l-2-9.6L-710.2-65.6z M-709.2-61.2c0.3-0.1,0.5-0.2,0.6-0.4c0.1-0.2,0.2-0.5,0.1-0.8c-0.1-0.3-0.2-0.5-0.4-0.7
		s-0.5-0.2-0.8-0.1l-1.3,0.3l0.4,2.1L-709.2-61.2z"/>
	<path d="M-699-56.6l-1.6-3.2h-0.9l-0.1,3.2l-2.5-0.1l0.3-9.9l3.9,0.1c1,0,1.8,0.4,2.5,1c0.7,0.7,1,1.5,1,2.5c0,0.6-0.2,1.1-0.5,1.6
		c-0.3,0.5-0.7,0.9-1.3,1.1l1.9,3.7L-699-56.6z M-701.4-64.2l-0.1,2.2h1.4c0.3,0,0.6-0.1,0.8-0.3s0.3-0.5,0.3-0.8s-0.1-0.6-0.3-0.8
		s-0.4-0.3-0.8-0.3C-700.1-64.2-701.4-64.2-701.4-64.2z"/>
	<path d="M-692.8-57.9l3.7,1l-0.6,2.3l-6.1-1.6l2.5-9.6l6.1,1.6l-0.6,2.3l-3.6-0.9l-0.3,1.3l3.3,0.9l-0.6,2.2l-3.4-0.9L-692.8-57.9z
		"/>
	<path d="M-675.4-58.2l-4.9,8.6l-2.1-1.3l2.6-4.6l-4,2.3l-0.2-0.1l-0.1-4.6l-2.6,4.6l-2.2-1.3l4.9-8.6l2.2,1.3l0.1,4.9l4.3-2.4
		L-675.4-58.2z"/>
	<path d="M-672.9-55.9l1.9,1.7l-6.6,7.3l-1.9-1.7L-672.9-55.9z"/>
	<path d="M-672-41.2c-0.9-0.2-1.8-0.8-2.4-1.7c-0.7-0.9-1-1.9-0.9-2.8c0.1-1,0.5-1.8,1.4-2.4l5.3-4l1.5,2l-5.3,3.9
		c-0.7,0.5-0.7,1.1-0.2,1.8c0.6,0.7,1.2,0.9,1.8,0.4l5.1-3.8l1.5,2l-5.3,4C-670.2-41.2-671.1-41-672-41.2z"/>
	<path d="M-658.7-33.3l-9.2,3.4l-0.9-2.3l5-1.8l-4.6-0.9l-0.1-0.2l2.9-3.6l-5,1.8l-0.9-2.4l9.2-3.4l0.9,2.4l-3,3.7l4.8,0.9
		L-658.7-33.3z"/>
	<path d="M-663-15.5c-1.2-0.1-2.2-0.5-3.1-1.2l-1,0.8l-1.5-1.8l1.1-0.9c-0.3-0.7-0.4-1.5-0.4-2.3c0.1-1.4,0.6-2.6,1.7-3.6
		c1-0.9,2.3-1.4,3.7-1.3c1.4,0.1,2.6,0.7,3.6,1.7c0.9,1.1,1.4,2.3,1.3,3.7c-0.1,1.4-0.6,2.6-1.7,3.6
		C-660.3-15.8-661.6-15.4-663-15.5z M-665.4-20.8c0,0.1,0,0.2,0,0.4l1.5-1.2l1.4,1.9l-1.7,1.4c0.4,0.2,0.8,0.4,1.3,0.4
		c0.8,0,1.4-0.2,2-0.6c0.5-0.5,0.8-1.1,0.9-1.9c0-0.8-0.2-1.4-0.6-1.9c-0.5-0.5-1.1-0.8-1.9-0.9c-0.8,0-1.4,0.2-2,0.6
		C-665-22.1-665.3-21.5-665.4-20.8z"/>
	<path d="M-669.7-8.7c-0.4-0.9-0.3-1.9,0-3c0.4-1.1,1-1.9,1.8-2.3c0.8-0.5,1.7-0.5,2.7-0.2l6.2,2.2l-0.8,2.4l-6-2.1
		c-0.8-0.3-1.3,0-1.6,0.9c-0.3,0.9-0.1,1.4,0.7,1.7l6,2.1l-0.8,2.4l-6.2-2.2C-668.7-7.2-669.4-7.8-669.7-8.7z"/>
	<path d="M-674.5-2.2l1.4,0.4l1.9-2.8l-0.9-1.2l1.5-2.3l6.5,8.1l-1.8,2.6l-10-2.7L-674.5-2.2z M-669.7-2.9l-1.1,1.7l3.3,1
		L-669.7-2.9z"/>
	<path d="M-676.5,3.5l-2.5,2.3l-1.7-1.8l4.3-4.1l6.8,7.2l-1.8,1.9L-676.5,3.5z"/>
	<path d="M-675.9,12.7l-2.1,1.4l-5.5-8.2l2.1-1.4L-675.9,12.7z"/>
	<path d="M-686.7,18.5l-1-2.2l2.2-1l-3.1-6.8l2.3-1l3.1,6.8l2.2-1l1,2.2L-686.7,18.5z"/>
	<path d="M-697.6,21l2.1-6.6l-0.7-3.7l2.5-0.5l0.7,3.7l4.4,5.4l-2.8,0.5l-2.4-3.2l-1,3.9L-697.6,21z"/>
</g>
<g>
	<g>
		<circle class="st1" cx="-108.8" cy="22.8" r="49.3"/>
	</g>
	<g>
		<path d="M-115.6-13.7c-1,0.1-1.9,0-2.6-0.3c-0.7-0.4-1.3-0.9-1.6-1.6l2-1.5c0.5,0.8,1.2,1.2,2.1,1.1c0.8-0.1,1.1-0.4,1.1-0.8
			c0-0.3-0.3-0.5-0.7-0.6c-0.2-0.1-0.6-0.1-1.3-0.2c-0.9-0.2-1.7-0.4-2.2-0.8c-0.6-0.4-0.9-1-1-1.9c-0.1-0.9,0.1-1.7,0.7-2.3
			s1.3-1,2.3-1.1c0.8-0.1,1.6,0,2.2,0.3c0.7,0.3,1.2,0.8,1.6,1.5l-2,1.3c-0.4-0.7-0.9-1-1.6-0.9c-0.3,0-0.5,0.1-0.7,0.3
			c-0.1,0.1-0.2,0.3-0.2,0.5c0,0.2,0.2,0.4,0.4,0.5c0.2,0.1,0.7,0.2,1.4,0.4c0.5,0.1,0.9,0.2,1.2,0.3c0.3,0.1,0.6,0.2,1,0.4
			c0.4,0.2,0.7,0.4,0.9,0.8c0.2,0.3,0.3,0.7,0.4,1.2c0.1,1-0.1,1.7-0.7,2.4C-113.6-14.2-114.5-13.8-115.6-13.7z"/>
		<path d="M-103-14.8c-1.1,0.9-2.4,1.2-3.8,1.1c-1.4-0.2-2.6-0.8-3.5-1.9s-1.2-2.3-1.1-3.8c0.2-1.4,0.8-2.6,1.9-3.4
			c1.1-0.8,2.4-1.2,3.8-1.1s2.6,0.8,3.5,1.9c0.9,1.1,1.2,2.3,1.1,3.8C-101.3-16.8-101.9-15.7-103-14.8z M-108.3-17.1
			c0.4,0.6,1,0.9,1.8,1s1.4-0.1,2-0.5s0.9-1,1-1.8c0.1-0.8-0.1-1.4-0.5-2c-0.4-0.6-1-0.9-1.8-1c-0.8-0.1-1.4,0.1-2,0.5
			c-0.6,0.4-0.9,1-1,1.8C-108.9-18.3-108.8-17.7-108.3-17.1z"/>
		<path d="M-93-18l-3.3-1.1l-0.5,1.5l3.3,1.1l-0.8,2.3l-3.3-1.1l-1.1,3.2l-2.4-0.8l3.2-9.3l5.7,2L-93-18z"/>
		<path d="M-84-15.9l-1.2,2.1l-2.1-1.2l-3.6,6.4l-2.2-1.2l3.6-6.4l-2.1-1.2l1.2-2.1L-84-15.9z"/>
		<path d="M-79.6,0.3l-2.1-0.6l0.1-1.2c-0.9-0.2-1.6-0.6-2.3-1.3c-0.7-0.8-1.1-1.6-1.2-2.4s0.2-1.6,0.9-2.2c0.8-0.8,1.8-1.1,3.1-0.8
			c0.2-0.6,0.4-1,0.8-1.4c0.6-0.6,1.3-0.9,2.1-0.8s1.5,0.4,2.2,1.1c1.1,1.1,1.4,2.5,0.8,4L-77.6-6c0.3-0.7,0.3-1.2-0.1-1.6
			c-0.2-0.2-0.4-0.3-0.5-0.3c-0.2,0-0.4,0.1-0.5,0.2s-0.2,0.2-0.2,0.4C-79-7.1-79-7-79-6.9s0,0.3,0,0.6l-0.2,2.5
			c0.5-0.2,0.9-0.4,1.3-0.7l0.6,2.3c-0.6,0.3-1.3,0.6-2.1,0.7L-79.6,0.3z M-82.2-4.2c0.2,0.2,0.4,0.4,0.7,0.5l0.1-2.4
			c-0.4,0-0.7,0.1-1,0.4c-0.2,0.2-0.3,0.5-0.3,0.7C-82.6-4.7-82.5-4.5-82.2-4.2z"/>
		<path d="M-76.3,7.7c-0.7-1.3-0.8-2.6-0.3-3.9s1.3-2.3,2.6-2.9c1.3-0.7,2.6-0.8,3.9-0.3c1.3,0.4,2.3,1.3,3,2.6
			c0.4,0.8,0.6,1.6,0.5,2.5c0,0.9-0.3,1.6-0.7,2.4l-2.1-1.4c0.2-0.3,0.3-0.7,0.4-1.1c0-0.4-0.1-0.8-0.3-1.2
			c-0.4-0.7-0.9-1.2-1.5-1.4c-0.7-0.2-1.3-0.1-2,0.2s-1.2,0.9-1.4,1.5c-0.2,0.6-0.2,1.3,0.2,2c0.2,0.4,0.5,0.7,0.8,1
			c0.3,0.2,0.7,0.4,1.1,0.4l-0.1,2.5c-0.8-0.1-1.6-0.3-2.3-0.8S-75.9,8.5-76.3,7.7z"/>
		<path d="M-71.1,19.4c-1.2-0.8-1.9-1.8-2.2-3.2c-0.3-1.4-0.1-2.7,0.6-3.9s1.8-1.9,3.2-2.2c1.4-0.3,2.7-0.1,3.9,0.7
			c1.2,0.8,1.9,1.8,2.2,3.2c0.3,1.4,0.1,2.7-0.6,3.9s-1.8,1.9-3.2,2.2S-69.9,20.2-71.1,19.4z M-70.7,13.7c-0.4,0.6-0.5,1.3-0.3,2
			c0.2,0.7,0.5,1.3,1.1,1.7s1.3,0.5,2,0.3c0.8-0.2,1.3-0.6,1.7-1.2c0.4-0.6,0.5-1.3,0.3-2s-0.5-1.3-1.1-1.7s-1.3-0.5-2-0.3
			S-70.3,13.1-70.7,13.7z"/>
		<path d="M-62.8,32.2l-9.8-0.5l0.1-2.5l5.3,0.3l-3.8-2.6v-0.3l4-2.2l-5.3-0.3l0.3-2.4l9.8,0.5l-0.1,2.5l-4.3,2.3l4,2.7L-62.8,32.2z
			"/>
		<path d="M-67.5,40.5l1-3.4l-1.5-0.4l-1,3.3l-2.3-0.7l1-3.3l-3.2-0.9l0.7-2.4l9.4,2.7l-1.7,5.8L-67.5,40.5z"/>
		<path d="M-70,51.1l-3.8-5.7l-3.3-1.7l1.2-2.2l3.3,1.7l6.9-0.1l-1.3,2.5l-4-0.1l2.4,3.2L-70,51.1z"/>
	</g>
	<path class="st2" d="M-75.2,49.1c-7.9,10.7-20.5,17.6-34.8,17.6c-23.8,0-43.1-19.3-43.1-43.1c0-19.3,12.7-35.6,30.1-41.1"/>
	<g>
		<path class="st3" d="M-138.7,43.3c6.8-1.1,14.7-3.8,28.4-14S-88.8,10-89.9,3.2c-7.9,7.9-14.7,7.9-20.4,9.1s-13,4.5-9.6,15.9
			c0,0-2.3-1.1-3.4-3.4c-2.8,5.1-1.7,9.6-6.8,12.5"/>
		<path class="st3" d="M-126.3,44.1c4.2,0.3,9.8,0,13.1-2c-2.3-1.1-2.9-3.1-2.9-4.8c1.1,0,8.6,1.2,12.5,0c4.5-1.3,9.5-5.2,11.2-11.9
			c0.7-2.5,0.8-3.9,0.9-5.1"/>
	</g>
</g>
<g>
	<g>
		<circle class="st1" cx="-197.3" cy="-166.3" r="49.3"/>
	</g>
	<g>
		<polyline class="st4" points="-184.1,-162.9 -184.1,-169.1 -184.1,-172.6 -184.1,-178.8 		"/>
		<polyline class="st4" points="-184.1,-157.7 -184.1,-151.5 -184.1,-148 -184.1,-140.9 		"/>
		<line class="st4" x1="-184.1" y1="-184.1" x2="-184.1" y2="-188.5"/>
		<polyline class="st4" points="-193.8,-140.9 -193.8,-146.2 -193.8,-146.2 -193.8,-147.1 		"/>
		<polyline class="st4" points="-193.8,-168.2 -193.8,-162.1 -193.8,-158.5 -193.8,-152.4 		"/>
		<line class="st4" x1="-193.8" y1="-173.5" x2="-193.8" y2="-188.5"/>
		<polyline class="st4" points="-203.5,-162.9 -203.5,-169.1 -203.5,-172.6 -203.5,-178.8 		"/>
		<polyline class="st4" points="-203.5,-157.7 -203.5,-151.5 -203.5,-148 -203.5,-140.9 		"/>
		<line class="st4" x1="-203.5" y1="-184.1" x2="-203.5" y2="-188.5"/>
		<polyline class="st4" points="-213.2,-147.1 -213.2,-146.2 -213.2,-146.2 -213.2,-140.9 		"/>
		<polyline class="st4" points="-213.2,-152.4 -213.2,-158.5 -213.2,-162.1 -213.2,-168.2 		"/>
		<line class="st4" x1="-213.2" y1="-173.5" x2="-213.2" y2="-188.5"/>
		<path class="st4" d="M-181.4-147.5c2.5-1,2.4-2.2,6.2-2.2"/>
		<path class="st4" d="M-186.7-147.5c-1.7-0.7-2.7-1-4.4-1.7c-0.7-0.3-1.6-0.5-2.6-0.5l0,0c-1.1,0-1.9,0.2-2.6,0.4
			c-1.7,0.7-2.7,1.1-4.4,1.7"/>
		<path class="st4" d="M-222.9-147.1c3.8,0,4.6-1.2,7.1-2.2c0.7-0.3,1.6-0.5,2.6-0.5c1.1,0,1.9,0.2,2.6,0.5c1.7,0.7,2.7,1,4.4,1.7"
			/>
		<path class="st4" d="M-222.9-160.3c3.8,0,4.6,1.2,7.1,2.2"/>
		<path class="st4" d="M-196.4-158.1c-1.7-0.7-2.7-1.1-4.4-1.7c-0.7-0.3-1.6-0.4-2.6-0.4l0,0c-1.1,0-1.9,0.2-2.6,0.5
			c-1.7,0.7-2.7,1.1-4.4,1.7"/>
		<path class="st4" d="M-191.1-158.1c1.7-0.7,2.7-1,4.4-1.7c0.7-0.3,1.6-0.5,2.6-0.5s1.9,0.2,2.6,0.5c2.5,1,2.4,2.2,6.2,2.2"/>
		<path class="st4" d="M-181.4-168.7c2.5-1,2.4-2.2,6.2-2.2"/>
		<path class="st4" d="M-186.7-168.7c-1.7-0.7-2.7-1-4.4-1.7c-0.7-0.3-1.6-0.5-2.6-0.5l0,0c-1.1,0-1.9,0.2-2.6,0.4
			c-1.7,0.7-2.7,1.1-4.4,1.7"/>
		<path class="st4" d="M-222.9-168.2c3.8,0,4.6-1.2,7.1-2.2c0.7-0.3,1.6-0.5,2.6-0.5c1.1,0,1.9,0.2,2.6,0.5c1.7,0.7,2.7,1,4.4,1.7"
			/>
		<path class="st4" d="M-222.9-181.5c3.8,0,4.6,1.2,7.1,2.2"/>
		<path class="st4" d="M-196.4-179.3c-1.7-0.7-2.7-1.1-4.4-1.7c-0.7-0.3-1.6-0.4-2.6-0.4l0,0c-1.1,0-1.9,0.2-2.6,0.5
			c-1.7,0.7-2.7,1.1-4.4,1.7"/>
		<path class="st4" d="M-191.1-179.3c1.7-0.7,2.7-1,4.4-1.7c0.7-0.3,1.6-0.5,2.6-0.5s1.9,0.2,2.6,0.5c2.5,1,2.4,2.2,6.2,2.2"/>
	</g>
	<g>
		<path d="M-203.7-213.8c1.3-0.1,2.5,0.2,3.5,1.1c1,0.8,1.6,2,1.7,3.3c0.1,1.4-0.2,2.6-1,3.6s-1.9,1.6-3.2,1.7l-4,0.4l-1-9.8
			L-203.7-213.8z M-202.9-206.5c0.7-0.1,1.2-0.3,1.6-0.8c0.4-0.5,0.5-1.1,0.5-1.9c-0.1-0.7-0.3-1.3-0.8-1.7c-0.5-0.4-1-0.6-1.7-0.5
			l-1.4,0.1l0.5,4.9L-202.9-206.5z"/>
		<path d="M-190.6-204.3c-0.8,0.5-1.8,0.7-2.9,0.6c-1.1-0.1-2-0.6-2.6-1.3s-0.9-1.6-0.8-2.6l0.9-6.5l2.4,0.3l-0.8,6.3
			c-0.1,0.8,0.3,1.3,1.2,1.4c0.9,0.1,1.4-0.2,1.5-1l0.8-6.3l2.5,0.3l-0.9,6.5C-189.4-205.6-189.8-204.8-190.6-204.3z"/>
		<path d="M-183.8-201.4l-0.5-3.6l-0.8-0.3l-1.1,3l-2.4-0.9l3.4-9.2l3.7,1.4c0.9,0.3,1.6,0.9,2,1.8c0.4,0.8,0.5,1.7,0.1,2.6
			c-0.2,0.6-0.5,1-1,1.4c-0.4,0.4-1,0.6-1.5,0.7l0.6,4.1L-183.8-201.4z M-183.6-209.3l-0.8,2.1l1.3,0.5c0.3,0.1,0.6,0.1,0.8,0
			c0.3-0.1,0.4-0.3,0.6-0.6c0.1-0.3,0.1-0.6,0-0.9c-0.1-0.3-0.3-0.4-0.6-0.5L-183.6-209.3z"/>
		<path d="M-175.6-196.8l0.4-1.4l-2.8-1.8l-1.1,1l-2.3-1.5l8-6.5l2.6,1.7l-2.6,10L-175.6-196.8z M-176.3-201.5l1.7,1.1l1-3.3
			L-176.3-201.5z"/>
		<path d="M-165.3-194.2c0.2,0.9,0,1.7-0.7,2.4c-0.6,0.6-1.3,0.9-2.1,0.8c-0.8-0.1-1.5-0.4-2.2-1.2l-2.9-3l7-6.9l2.7,2.8
			c0.7,0.7,1.1,1.4,1.1,2.2c0.1,0.8-0.2,1.5-0.8,2.1C-163.9-194.3-164.5-194.1-165.3-194.2z M-168.8-193.7c0.2,0.2,0.4,0.3,0.6,0.3
			s0.4-0.1,0.6-0.2c0.2-0.2,0.3-0.4,0.3-0.6c0-0.2-0.1-0.4-0.3-0.6l-1.1-1.1l-1.2,1.2L-168.8-193.7z M-165.2-197.6l-0.9-0.9
			l-1.1,1.1l0.9,0.9c0.2,0.2,0.3,0.2,0.5,0.3c0.2,0,0.4-0.1,0.6-0.2c0.2-0.2,0.2-0.3,0.2-0.6C-164.9-197.3-165-197.5-165.2-197.6z"
			/>
		<path d="M-164.3-188.4l1.9,2.8l-2,1.3l-3.3-4.9l8.2-5.4l1.4,2.1L-164.3-188.4z"/>
		<path d="M-161-182.3l1.5,3.5l-2.2,0.9l-2.5-5.8l9-3.9l2.5,5.7l-2.1,0.9l-1.5-3.4l-1.3,0.6l1.3,3.1l-2.1,0.9l-1.3-3.1L-161-182.3z"
			/>
		<path d="M-149.7-165.1l-9.8,0.9l-0.2-2.5l5.3-0.5l-4.1-2v-0.3l3.7-2.7l-5.2,0.5l-0.2-2.5l9.8-0.9l0.2,2.5l-3.9,2.9l4.4,2.1V-165.1
			z"/>
		<path d="M-160.6-157l1.5-0.2l0.5-3.3l-1.3-0.6l0.4-2.7l9.2,4.7l-0.5,3.1l-10.2,1.6L-160.6-157z M-156.6-159.6l-0.3,1.9l3.4-0.4
			L-156.6-159.6z"/>
		<path d="M-154.3-145.1l-2.3-0.8l0.8-2.3l-6.8-2.6l0.9-2.3l6.9,2.6l0.8-2.3l2.3,0.8L-154.3-145.1z"/>
		<path d="M-163.1-144.6l-2,3.2l-2-1.2l3.3-5.4l8.4,5.1l-3.2,5.3l-2-1.2l1.9-3.2l-1.2-0.7l-1.7,2.9l-2-1.2l1.7-2.9L-163.1-144.6z"/>
		<path d="M-171-138.1l3.5,0.9l0.6-0.7l-2.3-2.1l1.7-1.8l7.2,6.6l-2.6,2.9c-0.7,0.7-1.5,1.1-2.4,1.2c-0.9,0.1-1.8-0.2-2.5-0.9
			c-0.4-0.4-0.7-0.9-0.9-1.4c-0.2-0.6-0.2-1.1,0-1.7l-4-1L-171-138.1z M-163.7-135l-1.6-1.5l-0.9,1c-0.2,0.2-0.3,0.5-0.3,0.8
			s0.1,0.5,0.4,0.8c0.2,0.2,0.5,0.3,0.8,0.3s0.5-0.1,0.7-0.3L-163.7-135z"/>
		<path d="M-167.3-128.2l-2,1.6l-6.1-7.7l2-1.6L-167.3-128.2z"/>
		<path d="M-181.7-130.4l1.1,1l2.9-1.6l-0.3-1.4l2.4-1.4l2,10.1l-2.8,1.5l-7.6-7L-181.7-130.4z M-177.2-128.8l-1.7,1l2.5,2.4
			L-177.2-128.8z"/>
		<path d="M-186.1-126.1l-3.2,1l-0.7-2.3l5.6-1.8l2.9,9.3l-2.4,0.8L-186.1-126.1z"/>
		<path d="M-194-127.1c1-0.1,1.9,0,2.6,0.3c0.7,0.4,1.3,0.9,1.6,1.6l-2,1.5c-0.5-0.8-1.2-1.2-2.1-1.1c-0.8,0.1-1.1,0.4-1.1,0.8
			c0,0.3,0.3,0.5,0.7,0.6c0.2,0.1,0.6,0.1,1.3,0.2c0.9,0.2,1.7,0.4,2.2,0.8c0.6,0.4,0.9,1,1,1.9s-0.1,1.7-0.7,2.3
			c-0.6,0.6-1.3,1-2.3,1.1c-0.8,0.1-1.6,0-2.2-0.3c-0.7-0.3-1.2-0.8-1.6-1.5l1.9-1.5c0.4,0.7,0.9,1,1.6,0.9c0.3,0,0.5-0.1,0.7-0.3
			s0.2-0.3,0.2-0.5s-0.2-0.4-0.4-0.5s-0.7-0.2-1.4-0.4c-0.5-0.1-0.9-0.2-1.2-0.3c-0.3-0.1-0.6-0.2-1-0.4c-0.4-0.2-0.7-0.4-0.9-0.8
			s-0.3-0.7-0.4-1.2c-0.1-1,0.1-1.7,0.7-2.4C-196-126.6-195.1-127-194-127.1z"/>
	</g>
	<path class="st5" d="M-201.7-123.5c-21.6-2-38.5-20.2-38.5-42.3c0-19.1,12.6-35.2,29.9-40.6"/>
</g>
<g>
	<line class="st6" x1="-1168" y1="62.9" x2="-1180" y2="74.9"/>
	<line class="st6" x1="-1152" y1="6.9" x2="-1164" y2="18.9"/>
	<line class="st6" x1="-1092" y1="6.9" x2="-1104" y2="18.9"/>
	<line class="st6" x1="-1028" y1="6.9" x2="-1040" y2="18.9"/>
	<line class="st6" x1="-960" y1="6.9" x2="-972" y2="18.9"/>
	<line class="st6" x1="-1096" y1="62.9" x2="-1108" y2="74.9"/>
	<line class="st6" x1="-1024" y1="62.9" x2="-1036" y2="74.9"/>
	<line class="st6" x1="-952" y1="62.9" x2="-964" y2="74.9"/>
</g>
<g>
	<line class="st7" x1="-797.2" y1="-7.4" x2="-797.2" y2="1.9"/>
	<line class="st7" x1="-791.8" y1="-7.4" x2="-791.8" y2="-3.5"/>
	<line class="st7" x1="-791.8" y1="1.1" x2="-791.8" y2="7.3"/>
	<line class="st7" x1="-786.4" y1="-7.4" x2="-786.4" y2="1.9"/>
	<line class="st7" x1="-794.9" y1="-1.2" x2="-788.7" y2="-1.2"/>
	<line class="st7" x1="-790.2" y1="4.2" x2="-783.3" y2="4.2"/>
	<line class="st7" x1="-802.6" y1="-7.4" x2="-802.6" y2="-3.5"/>
	<line class="st7" x1="-802.6" y1="22" x2="-802.6" y2="25.9"/>
	<line class="st7" x1="-791.8" y1="22" x2="-791.8" y2="25.9"/>
	<line class="st7" x1="-780.9" y1="22" x2="-780.9" y2="25.9"/>
	<line class="st7" x1="-802.6" y1="1.1" x2="-802.6" y2="7.3"/>
	<line class="st7" x1="-808.1" y1="-1.2" x2="-799.5" y2="-1.2"/>
	<line class="st7" x1="-800.3" y1="4.2" x2="-794.1" y2="4.2"/>
	<line class="st7" x1="-780.9" y1="-7.4" x2="-780.9" y2="-3.5"/>
	<line class="st7" x1="-780.9" y1="1.1" x2="-780.9" y2="7.3"/>
	<line class="st7" x1="-784" y1="-1.2" x2="-775.5" y2="-1.2"/>
	<line class="st7" x1="-797.2" y1="6.5" x2="-797.2" y2="12.7"/>
	<line class="st7" x1="-786.4" y1="6.5" x2="-786.4" y2="13.5"/>
	<line class="st7" x1="-794.9" y1="9.6" x2="-788.7" y2="9.6"/>
	<line class="st7" x1="-808.1" y1="9.6" x2="-799.5" y2="9.6"/>
	<line class="st7" x1="-784" y1="9.6" x2="-777.1" y2="9.6"/>
	<line class="st7" x1="-791.8" y1="12" x2="-791.8" y2="17.4"/>
	<line class="st7" x1="-789.5" y1="15.1" x2="-783.3" y2="15.1"/>
	<line class="st7" x1="-802.6" y1="12" x2="-802.6" y2="17.4"/>
	<line class="st7" x1="-800.3" y1="15.1" x2="-794.1" y2="15.1"/>
	<line class="st7" x1="-780.9" y1="12" x2="-780.9" y2="17.4"/>
	<line class="st7" x1="-797.2" y1="17.4" x2="-797.2" y2="25.9"/>
	<line class="st7" x1="-786.4" y1="17.4" x2="-786.4" y2="25.9"/>
	<line class="st7" x1="-794.9" y1="19.7" x2="-788.7" y2="19.7"/>
	<line class="st7" x1="-808.1" y1="19.7" x2="-799.5" y2="19.7"/>
	<line class="st7" x1="-784" y1="19.7" x2="-775.5" y2="19.7"/>
	<line class="st7" x1="-805" y1="4.2" x2="-808.1" y2="4.2"/>
	<line class="st7" x1="-805" y1="15.1" x2="-808.1" y2="15.1"/>
	<line class="st7" x1="-775.5" y1="4.2" x2="-778.6" y2="4.2"/>
	<line class="st7" x1="-775.5" y1="15.1" x2="-778.6" y2="15.1"/>
</g>
<g>
	<path class="st1" d="M-575.4-44.9c0,0,0.5-0.8,1.4-0.8h6.3c0,0,1,0,1.4,0.8l3.2,5.5c0,0,0.5,0.8,0,1.7l-3.1,5.5
		c0,0-0.5,0.8-1.4,0.8h-6.3c0,0-1,0-1.4-0.8l-3.2-5.5c0,0-0.5-0.8,0-1.7L-575.4-44.9L-575.4-44.9z"/>
	<path class="st8" d="M-574.3-43.6c0,0,0.4-0.6,1.1-0.6h4.8c0,0,0.7,0,1.1,0.6l2.4,4.1c0,0,0.4,0.6,0,1.3l-2.4,4.1
		c0,0-0.4,0.6-1.1,0.6h-4.8c0,0-0.7,0-1.1-0.6l-2.4-4.1c0,0-0.4-0.6,0-1.3L-574.3-43.6L-574.3-43.6z"/>
	<path class="st8" d="M-542.4-16.6h-4.3c-0.2,0-0.5-0.2-0.5-0.4v-19.6c0-0.2,0.2-0.4,0.5-0.4l4.3-0.5c0.3,0,0.4,0.2,0.4,0.4V-17
		C-542-16.8-542.2-16.6-542.4-16.6L-542.4-16.6z"/>
	<path class="st8" d="M-523.4-33.4h-8.5v5.6h7.6c0.2,0,0.4,0.2,0.4,0.4v2.9c0,0.3-0.2,0.4-0.4,0.4h-7.6v7c0,0.3-0.2,0.4-0.5,0.4
		h-4.2c-0.3,0-0.5-0.2-0.5-0.4v-19.6c0-0.3,0.2-0.4,0.5-0.4h13.2c0.3,0,0.4,0.2,0.4,0.4v2.9C-522.9-33.6-523.1-33.4-523.4-33.4
		L-523.4-33.4z"/>
	<path class="st8" d="M-513.2-16.3c-3.9,0-7-0.9-7.5-1.1c-0.3-0.1-0.6-0.3-0.5-0.9l0.4-2.2c0.1-0.4,0.4-0.6,0.8-0.4
		c0.6,0.1,3.5,0.9,5.9,0.9c2.1,0,3.6-0.5,3.6-2.4c0-2-1.9-2.2-4.2-2.6c-2.8-0.4-6.7-1.3-6.7-6.1c0-5,3.4-6.5,8.1-6.5
		c3.3,0,6.1,0.8,6.7,0.9c0.4,0.1,0.7,0.3,0.6,0.8l-0.4,2.3c-0.1,0.3-0.2,0.5-0.7,0.4c-1.9-0.4-3.7-0.8-5.6-0.8
		c-1.8,0-3.5,0.3-3.5,2.3c0,1.9,2,2.1,4.3,2.5c3.2,0.5,6.7,1.2,6.7,6.5C-505.1-17.9-509-16.3-513.2-16.3L-513.2-16.3z"/>
	<path class="st8" d="M-546.5-6.3h-0.6c-0.1,0-0.1,0-0.1-0.1v-4.8c0-0.1,0-0.1,0.1-0.1l0.6-0.1c0.1,0,0.1,0,0.1,0.1v4.8
		C-546.4-6.3-546.5-6.3-546.5-6.3L-546.5-6.3z"/>
	<path class="st8" d="M-542.3-6.3h-0.6c-0.1,0-0.1,0-0.1-0.1v-2.4c0-0.4-0.2-0.5-0.5-0.5c-0.4,0-0.9,0.1-1,0.1v2.8
		c0,0.1,0,0.1-0.1,0.1h-0.6c-0.1,0-0.1,0-0.1-0.1v-2.8c0-0.3,0.1-0.4,0.4-0.5c0.3-0.1,0.9-0.2,1.4-0.2c0.8,0,1.2,0.2,1.2,1v2.5
		C-542.2-6.3-542.2-6.3-542.3-6.3L-542.3-6.3z"/>
	<path class="st8" d="M-539.3-6.4c0,0.1,0,0.1-0.1,0.1c-0.1,0-0.4,0.1-0.8,0.1c-0.7,0-1.1-0.3-1.1-1v-3.5c0-0.1,0-0.1,0.1-0.1
		l0.5-0.1c0.1,0,0.1,0,0.1,0.1v1.1h1c0.1,0,0.1,0,0.1,0.1v0.3c0,0.1,0,0.1-0.1,0.1h-1v2c0,0.3,0.1,0.4,0.5,0.4c0.2,0,0.4,0,0.5-0.1
		c0.1,0,0.1,0,0.1,0.1L-539.3-6.4L-539.3-6.4z"/>
	<path class="st8" d="M-535.6-7.8c0,0.1,0,0.1-0.1,0.1h-2.3c0,0.3,0.1,0.5,0.2,0.7c0.2,0.2,0.5,0.2,0.9,0.2c0.4,0,0.7-0.1,1-0.2l0,0
		c0,0,0.1,0,0.1,0.1l0.1,0.3l0,0c0,0,0,0.1-0.1,0.1c-0.2,0.1-0.7,0.2-1.2,0.2c-1.3,0-1.8-0.6-1.8-1.8c0-1.2,0.3-1.9,1.6-1.9
		c0.7,0,1.1,0.2,1.3,0.5c0.2,0.3,0.3,0.7,0.3,1.2C-535.6-8-535.6-7.9-535.6-7.8L-535.6-7.8z M-536.4-8.8c-0.1-0.4-0.3-0.5-0.8-0.5
		s-0.7,0.1-0.8,0.5c-0.1,0.2-0.1,0.4-0.1,0.6h1.7C-536.3-8.4-536.3-8.6-536.4-8.8L-536.4-8.8z"/>
	<path class="st8" d="M-534.7-9.2c0-0.3,0.1-0.4,0.4-0.5s0.8-0.2,1.3-0.2c0.1,0,0.2,0,0.2,0.1v0.4c0,0.1,0,0.1-0.1,0.1
		c-0.4,0-0.8,0-1,0.1v2.8c0,0.1,0,0.1-0.1,0.1h-0.6c-0.1,0-0.1,0-0.1-0.1V-9.2L-534.7-9.2z"/>
	<path class="st8" d="M-529.3-6.3h-0.6c-0.1,0-0.1,0-0.1-0.1v-2.4c0-0.4-0.2-0.5-0.5-0.5c-0.4,0-0.9,0.1-1,0.1v2.8
		c0,0.1,0,0.1-0.1,0.1h-0.6c-0.1,0-0.1,0-0.1-0.1v-2.8c0-0.3,0.1-0.4,0.4-0.5c0.3-0.1,0.9-0.2,1.4-0.2c0.8,0,1.2,0.2,1.2,1v2.5
		C-529.2-6.3-529.2-6.3-529.3-6.3L-529.3-6.3z"/>
	<path class="st8" d="M-525.9-6.3c-0.2,0.1-0.5,0.1-0.9,0.1c-0.7,0-1.6-0.1-1.6-1.1c0-0.9,0.5-1,1.1-1.1l1.2-0.2v-0.2
		c0-0.2,0-0.3-0.2-0.4c-0.1,0-0.3-0.1-0.5-0.1c-0.5,0-0.9,0.1-1.2,0.2l0,0c0,0-0.1,0-0.1-0.1l-0.1-0.4c0-0.1,0-0.1,0.1-0.1
		c0.2-0.1,0.8-0.2,1.4-0.2c0.5,0,0.8,0.1,1,0.2c0.3,0.2,0.4,0.5,0.4,0.9v1.9C-525.3-6.5-525.5-6.4-525.9-6.3L-525.9-6.3z M-526.1-8
		l-1,0.2c-0.3,0-0.5,0.1-0.5,0.5c0,0.6,0.5,0.6,0.8,0.6s0.5,0,0.7-0.1V-8L-526.1-8z"/>
	<path class="st8" d="M-522.3-6.4c0,0.1,0,0.1-0.1,0.1c-0.1,0-0.4,0.1-0.8,0.1c-0.7,0-1.1-0.3-1.1-1v-3.5c0-0.1,0-0.1,0.1-0.1
		l0.5-0.1c0.1,0,0.1,0,0.1,0.1v1.1h1c0.1,0,0.1,0,0.1,0.1v0.3c0,0.1,0,0.1-0.1,0.1h-1v2c0,0.3,0.1,0.4,0.5,0.4c0.2,0,0.4,0,0.5-0.1
		c0.1,0,0.1,0,0.1,0.1L-522.3-6.4L-522.3-6.4z"/>
	<path class="st8" d="M-521-10.3h-0.5c-0.1,0-0.1,0-0.1-0.1v-0.7c0-0.1,0.1-0.1,0.1-0.1h0.5c0.1,0,0.1,0,0.1,0.1v0.7
		C-520.8-10.3-520.9-10.3-521-10.3L-521-10.3z M-520.9-6.3h-0.5c-0.1,0-0.1,0-0.1-0.1v-3.3c0-0.1,0-0.1,0.1-0.1h0.5
		c0.1,0,0.1,0,0.1,0.1v3.3C-520.8-6.3-520.9-6.3-520.9-6.3L-520.9-6.3z"/>
	<path class="st8" d="M-518.3-6.2c-1.5,0-1.6-0.8-1.6-1.8s0.2-1.8,1.6-1.8c1.5,0,1.6,0.8,1.6,1.8C-516.7-7-516.8-6.2-518.3-6.2
		L-518.3-6.2z M-518.3-9.3c-0.8,0-0.9,0.5-0.9,1.3s0,1.3,0.9,1.3c0.8,0,0.8-0.5,0.8-1.3C-517.4-8.8-517.5-9.3-518.3-9.3L-518.3-9.3z
		"/>
	<path class="st8" d="M-512.9-6.3h-0.6c-0.1,0-0.1,0-0.1-0.1v-2.4c0-0.4-0.2-0.5-0.5-0.5c-0.4,0-0.9,0.1-1,0.1v2.8
		c0,0.1,0,0.1-0.1,0.1h-0.6c-0.1,0-0.1,0-0.1-0.1v-2.8c0-0.3,0.1-0.4,0.4-0.5s0.9-0.2,1.4-0.2c0.8,0,1.2,0.2,1.2,1v2.5
		C-512.8-6.3-512.8-6.3-512.9-6.3L-512.9-6.3z"/>
	<path class="st8" d="M-509.5-6.3c-0.2,0.1-0.5,0.1-0.9,0.1c-0.7,0-1.6-0.1-1.6-1.1c0-0.9,0.5-1,1.1-1.1l1.2-0.2v-0.2
		c0-0.2,0-0.3-0.2-0.4c-0.1,0-0.3-0.1-0.5-0.1c-0.5,0-0.9,0.1-1.2,0.2l0,0c0,0-0.1,0-0.1-0.1l-0.1-0.4c0-0.1,0-0.1,0.1-0.1
		c0.2-0.1,0.8-0.2,1.4-0.2c0.5,0,0.8,0.1,1,0.2c0.3,0.2,0.4,0.5,0.4,0.9v1.9C-508.9-6.5-509.1-6.4-509.5-6.3L-509.5-6.3z M-509.7-8
		l-1,0.2c-0.3,0-0.5,0.1-0.5,0.5c0,0.6,0.5,0.6,0.8,0.6c0.3,0,0.5,0,0.7-0.1V-8L-509.7-8z"/>
	<path class="st8" d="M-506.5-6.4c0,0,0,0.1-0.1,0.1c-0.1,0-0.3,0.1-0.6,0.1c-0.5,0-0.8-0.3-0.8-0.8v-4.1c0-0.1,0-0.1,0.1-0.1
		l0.5-0.1l0,0c0.1,0,0.1,0,0.1,0.1v4.1c0,0.2,0.1,0.3,0.3,0.3c0.1,0,0.2,0,0.2,0s0.1,0,0.1,0.1L-506.5-6.4L-506.5-6.4z"/>
	<path class="st8" d="M-544.1-2.5h-2.3v1.7h2.1c0.1,0,0.1,0,0.1,0.1v0.5c0,0.1,0,0.1-0.1,0.1h-2.1v1.8c0,0.1-0.1,0.1-0.1,0.1h-0.6
		c-0.1,0-0.1,0-0.1-0.1V-3c0-0.1,0.1-0.1,0.1-0.1h3c0.1,0,0.1,0,0.1,0.1v0.4C-544-2.6-544.1-2.5-544.1-2.5L-544.1-2.5z"/>
	<path class="st8" d="M-540.3,0.3c0,0.1,0,0.1-0.1,0.1h-2.3c0,0.3,0.1,0.5,0.2,0.7c0.2,0.2,0.5,0.2,0.9,0.2c0.4,0,0.7-0.1,1-0.2l0,0
		c0,0,0.1,0,0.1,0.1l0.1,0.3l0,0c0,0,0,0.1-0.1,0.1c-0.2,0.1-0.7,0.2-1.2,0.2c-1.3,0-1.8-0.6-1.8-1.8c0-1.2,0.3-1.9,1.6-1.9
		c0.7,0,1.1,0.2,1.3,0.5c0.2,0.3,0.3,0.7,0.3,1.2C-540.3,0.1-540.3,0.2-540.3,0.3L-540.3,0.3z M-541.1-0.8c-0.1-0.4-0.3-0.5-0.8-0.5
		s-0.7,0.1-0.8,0.5c-0.1,0.2-0.1,0.4-0.1,0.6h1.7C-541.1-0.3-541.1-0.6-541.1-0.8L-541.1-0.8z"/>
	<path class="st8" d="M-537.2,1.8c-0.2,0.1-0.5,0.1-0.9,0.1c-0.7,0-1.6-0.1-1.6-1.1c0-0.9,0.5-1,1.1-1.1l1.2-0.2v-0.2
		c0-0.2,0-0.3-0.2-0.4c-0.1,0-0.3-0.1-0.5-0.1c-0.5,0-0.9,0.1-1.2,0.2l0,0c0,0-0.1,0-0.1-0.1l-0.1-0.4c0-0.1,0-0.1,0.1-0.1
		c0.2-0.1,0.8-0.2,1.4-0.2c0.5,0,0.8,0.1,1,0.2c0.3,0.2,0.4,0.5,0.4,0.9v1.9C-536.6,1.6-536.7,1.7-537.2,1.8L-537.2,1.8z M-537.3,0
		l-1,0.2c-0.3,0-0.5,0.1-0.5,0.5c0,0.6,0.5,0.6,0.8,0.6s0.5,0,0.7-0.1V0L-537.3,0z"/>
	<path class="st8" d="M-533.6,1.6c0,0.1,0,0.1-0.1,0.1c-0.1,0-0.4,0.1-0.8,0.1c-0.7,0-1.1-0.3-1.1-1v-3.5c0-0.1,0-0.1,0.1-0.1
		l0.5-0.1c0.1,0,0.1,0,0.1,0.1v1.1h1c0.1,0,0.1,0,0.1,0.1v0.3c0,0.1,0,0.1-0.1,0.1h-1v2c0,0.3,0.1,0.4,0.5,0.4c0.2,0,0.4,0,0.5-0.1
		c0.1,0,0.1,0,0.1,0.1L-533.6,1.6L-533.6,1.6z"/>
	<path class="st8" d="M-531.3,1.9c-1.1,0-1.5-0.4-1.5-1.3v-2.1c0-0.1,0-0.1,0.1-0.1l0.5-0.1c0.1,0,0.1,0,0.1,0.1v2.3
		c0,0.5,0.2,0.7,0.8,0.7c0.7,0,0.8-0.3,0.8-0.8v-2.2c0-0.1,0-0.1,0.1-0.1l0.5-0.1c0.1,0,0.1,0,0.1,0.1v2.3
		C-529.8,1.3-530.1,1.9-531.3,1.9L-531.3,1.9z"/>
	<path class="st8" d="M-528.9-1.2c0-0.3,0.1-0.4,0.4-0.5s0.8-0.2,1.3-0.2c0.1,0,0.2,0,0.2,0.1v0.5c0,0.1,0,0.1-0.1,0.1
		c-0.4,0-0.8,0-1,0.1v2.8c0,0.1,0,0.1-0.1,0.1h-0.6c-0.1,0-0.1,0-0.1-0.1L-528.9-1.2L-528.9-1.2z"/>
	<path class="st8" d="M-523.4,0.3c0,0.1,0,0.1-0.1,0.1h-2.3c0,0.3,0.1,0.5,0.2,0.7c0.2,0.2,0.5,0.2,0.9,0.2c0.4,0,0.7-0.1,1-0.2l0,0
		c0,0,0.1,0,0.1,0.1l0.1,0.3l0,0c0,0,0,0.1-0.1,0.1c-0.2,0.1-0.7,0.2-1.2,0.2c-1.3,0-1.8-0.6-1.8-1.8c0-1.2,0.3-1.9,1.6-1.9
		c0.7,0,1.1,0.2,1.3,0.5s0.3,0.7,0.3,1.2C-523.4,0.1-523.4,0.2-523.4,0.3L-523.4,0.3z M-524.2-0.8c-0.1-0.4-0.3-0.5-0.8-0.5
		s-0.7,0.1-0.8,0.5c-0.1,0.2-0.1,0.4-0.1,0.6h1.7C-524.1-0.3-524.2-0.6-524.2-0.8L-524.2-0.8z"/>
	<path class="st8" d="M-520,1.7c-0.3,0.1-0.6,0.1-1.1,0.1c-1.3,0-1.7-0.5-1.7-1.8c0-1.2,0.3-1.9,1.5-1.9c0.5,0,0.8,0.1,1,0.1
		l-0.1-0.4v-0.9c0-0.1,0-0.1,0.1-0.1l0.5-0.1c0.1,0,0.1,0,0.1,0.1v4.4C-519.5,1.4-519.6,1.6-520,1.7L-520,1.7z M-520.3-1.2
		c-0.1,0-0.4-0.1-0.7-0.1c-0.6,0-0.9,0.2-0.9,1.3c0,1.2,0.3,1.3,0.9,1.3c0.3,0,0.7-0.1,0.7-0.1V-1.2L-520.3-1.2z"/>
	<path class="st8" d="M-514.9,1.9c-0.8,0-1.5-0.2-1.6-0.2s-0.1-0.1-0.1-0.1l0,0l0.1-0.4c0-0.1,0.1-0.1,0.1-0.1s0,0,0.1,0
		c0.1,0,0.8,0.2,1.5,0.2c0.6,0,1.1-0.2,1.1-0.8c0-0.6-0.5-0.7-1.2-0.8c-0.7-0.1-1.7-0.3-1.7-1.4c0-1.2,0.9-1.4,1.9-1.4
		c0.8,0,1.4,0.2,1.6,0.2c0.1,0,0.1,0.1,0.1,0.2l-0.1,0.4l-0.1,0.1c-0.2-0.1-0.8-0.2-1.4-0.2c-0.5,0-1.1,0.1-1.1,0.7s0.6,0.7,1.2,0.8
		c0.8,0.1,1.7,0.2,1.7,1.4C-513,1.5-514,1.9-514.9,1.9L-514.9,1.9z"/>
	<path class="st8" d="M-510.1,1.6c0,0.1,0,0.1-0.1,0.1c-0.1,0-0.4,0.1-0.8,0.1c-0.7,0-1.1-0.3-1.1-1v-3.5c0-0.1,0-0.1,0.1-0.1
		l0.5-0.1c0.1,0,0.1,0,0.1,0.1v1.1h1c0.1,0,0.1,0,0.1,0.1v0.3c0,0.1,0,0.1-0.1,0.1h-1v2c0,0.3,0.1,0.4,0.5,0.4c0.2,0,0.4,0,0.5-0.1
		c0.1,0,0.1,0,0.1,0.1L-510.1,1.6L-510.1,1.6z"/>
	<path class="st8" d="M-507.1,1.8c-0.2,0.1-0.5,0.1-0.9,0.1c-0.7,0-1.6-0.1-1.6-1.1c0-0.9,0.5-1,1.1-1.1l1.2-0.2v-0.2
		c0-0.2,0-0.3-0.2-0.4c-0.1,0-0.3-0.1-0.5-0.1c-0.5,0-0.9,0.1-1.2,0.2l0,0c0,0-0.1,0-0.1-0.1l-0.1-0.4c0-0.1,0-0.1,0.1-0.1
		c0.2-0.1,0.8-0.2,1.4-0.2c0.5,0,0.8,0.1,1,0.2c0.3,0.2,0.4,0.5,0.4,0.9v1.9C-506.5,1.6-506.7,1.7-507.1,1.8L-507.1,1.8z M-507.3,0
		l-1,0.2c-0.3,0-0.5,0.1-0.5,0.5c0,0.6,0.5,0.6,0.8,0.6s0.5,0,0.7-0.1V0L-507.3,0z"/>
	<path class="st8" d="M-502.6,1.8h-0.6c-0.1,0-0.1,0-0.1-0.1v-2.4c0-0.4-0.2-0.5-0.5-0.5c-0.4,0-0.9,0.1-1,0.1v2.8
		c0,0.1,0,0.1-0.1,0.1h-0.6c-0.1,0-0.1,0-0.1-0.1v-2.8c0-0.3,0.1-0.4,0.4-0.5c0.3-0.1,0.9-0.2,1.4-0.2c0.8,0,1.2,0.2,1.2,1v2.5
		C-502.5,1.7-502.6,1.8-502.6,1.8L-502.6,1.8z"/>
	<path class="st8" d="M-499,1.7c-0.3,0.1-0.6,0.1-1.1,0.1c-1.3,0-1.7-0.5-1.7-1.8c0-1.2,0.3-1.9,1.5-1.9c0.5,0,0.8,0.1,1,0.1
		l-0.1-0.4v-0.9c0-0.1,0-0.1,0.1-0.1l0.5-0.1c0.1,0,0.1,0,0.1,0.1v4.4C-498.5,1.4-498.6,1.6-499,1.7L-499,1.7z M-499.3-1.2
		c-0.1,0-0.4-0.1-0.7-0.1c-0.6,0-0.9,0.2-0.9,1.3c0,1.2,0.3,1.3,0.9,1.3c0.3,0,0.7-0.1,0.7-0.1V-1.2L-499.3-1.2z"/>
	<path class="st8" d="M-495.2,1.8c-0.2,0.1-0.5,0.1-0.9,0.1c-0.7,0-1.6-0.1-1.6-1.1c0-0.9,0.5-1,1.1-1.1l1.2-0.2v-0.2
		c0-0.2,0-0.3-0.2-0.4c-0.1,0-0.3-0.1-0.5-0.1c-0.5,0-0.9,0.1-1.2,0.2l0,0c0,0-0.1,0-0.1-0.1l-0.1-0.4c0-0.1,0-0.1,0.1-0.1
		c0.2-0.1,0.8-0.2,1.4-0.2c0.5,0,0.8,0.1,1,0.2c0.3,0.2,0.4,0.5,0.4,0.9v1.9C-494.7,1.6-494.8,1.7-495.2,1.8L-495.2,1.8z M-495.4,0
		l-1,0.2c-0.3,0-0.5,0.1-0.5,0.5c0,0.6,0.5,0.6,0.8,0.6c0.3,0,0.5,0,0.7-0.1V0L-495.4,0z"/>
	<path class="st8" d="M-493.7-1.2c0-0.3,0.1-0.4,0.4-0.5c0.3-0.1,0.8-0.2,1.3-0.2c0.1,0,0.2,0,0.2,0.1v0.5c0,0.1,0,0.1-0.1,0.1
		c-0.4,0-0.8,0-1,0.1v2.8c0,0.1,0,0.1-0.1,0.1h-0.6c-0.1,0-0.1,0-0.1-0.1L-493.7-1.2L-493.7-1.2z"/>
	<path class="st8" d="M-488.7,1.7c-0.3,0.1-0.6,0.1-1.1,0.1c-1.3,0-1.7-0.5-1.7-1.8c0-1.2,0.3-1.9,1.5-1.9c0.5,0,0.8,0.1,1,0.1
		l-0.1-0.4v-0.9c0-0.1,0-0.1,0.1-0.1l0.5-0.1c0.1,0,0.1,0,0.1,0.1v4.4C-488.3,1.4-488.3,1.6-488.7,1.7L-488.7,1.7z M-489-1.2
		c-0.1,0-0.4-0.1-0.7-0.1c-0.6,0-0.9,0.2-0.9,1.3c0,1.2,0.3,1.3,0.9,1.3c0.3,0,0.7-0.1,0.7-0.1V-1.2L-489-1.2z"/>
	<path class="st8" d="M-486.2,1.9c-0.6,0-1.1-0.2-1.2-0.2c0,0-0.1,0-0.1-0.1l0.1-0.4c0,0,0-0.1,0.1-0.1l0,0c0.1,0,0.5,0.2,1,0.2
		c0.4,0,0.7-0.1,0.7-0.5s-0.3-0.4-0.8-0.5s-1.2-0.2-1.2-1c0-0.9,0.8-1.1,1.4-1.1c0.6,0,1,0.1,1.1,0.1s0.1,0,0.1,0.1l-0.1,0.4
		c0,0,0,0.1-0.1,0.1c-0.1,0-0.5-0.1-0.9-0.1s-0.7,0.1-0.7,0.5s0.4,0.4,0.8,0.5c0.6,0.1,1.2,0.2,1.2,1.1
		C-484.7,1.6-485.4,1.9-486.2,1.9L-486.2,1.9z"/>
	<path class="st9" d="M-563.8-24.5c0,0,0.4-0.6,1.1-0.6h4.8c0,0,0.7,0,1.1,0.6l2.4,4.1c0,0,0.4,0.6,0,1.3l-2.4,4.1
		c0,0-0.4,0.6-1.1,0.6h-4.8c0,0-0.7,0-1.1-0.6l-2.4-4.1c0,0-0.4-0.6,0-1.3L-563.8-24.5L-563.8-24.5z"/>
	<path class="st9" d="M-563.8-37c0,0,0.4-0.6,1.1-0.6h4.8c0,0,0.7,0,1.1,0.6l2.4,4.1c0,0,0.4,0.6,0,1.3l-2.4,4.1
		c0,0-0.4,0.6-1.1,0.6h-4.8c0,0-0.7,0-1.1-0.6l-2.4-4.1c0,0-0.4-0.6,0-1.3L-563.8-37L-563.8-37z"/>
</g>
<path class="st10" d="M-256,133.2c-26.6,0-48.2,21.6-48.2,48.2s21.6,48.2,48.2,48.2s48.2-21.6,48.2-48.2S-229.5,133.2-256,133.2z
	 M-256,218.3c-8.1,0-15.7-2.7-21.8-7.1l15.8-15.8h-16l-7.8,7.8c-4.5-6.1-7.1-13.6-7.1-21.8c0-20.4,16.6-36.9,36.9-36.9
	c8.1,0,15.7,2.7,21.8,7.1l-15.8,15.8h15.9l7.8-7.8c4.5,6.1,7.1,13.6,7.1,21.8C-219.1,201.7-235.7,218.3-256,218.3z"/>
<path class="st11" d="M-514.9,64.2h-86.2v20.1c0,3.1,2.6,5.7,5.7,5.7h55.6C-512.6,90-514.9,68-514.9,64.2 M-510.1,64.2v-33
	c0-5-4.1-9.1-9.1-9.1h-77.5c-5,0-9.1,4.1-9.1,9.1v33v21.2c0,5,4.1,9.1,9.1,9.1h55.5c11,0,20.3-3.3,25-9.1
	C-512,80.2-510.1,73-510.1,64.2z"/>
<g id="XMLID_186_">
	<g id="XMLID_189_">
		<path id="XMLID_190_" class="st12" d="M-600.1,333.7c-0.1,0-0.1,0-0.2,0c-0.4-0.1-0.6-0.5-0.5-0.9c3.3-10.4,1.8-21.7-4-30.9
			c-5.1-8.2-13.2-14-22.6-16.4c-0.4-0.1-0.6-0.5-0.5-0.9c0.1-0.4,0.5-0.6,0.9-0.5c9.8,2.4,18.1,8.5,23.4,17c6,9.6,7.5,21.3,4.1,32.1
			C-599.6,333.5-599.8,333.7-600.1,333.7z"/>
	</g>
	<g id="XMLID_187_">
		<path id="XMLID_188_" class="st12" d="M-672.8,333.4c-0.3,0-0.6-0.2-0.7-0.5c-3.9-13-0.7-27.3,8.4-37.3c0.3-0.3,0.7-0.3,1,0
			c0.3,0.3,0.3,0.7,0,1c-8.8,9.7-11.9,23.4-8.1,35.9C-672.1,332.9-672.3,333.3-672.8,333.4C-672.6,333.4-672.7,333.4-672.8,333.4z"
			/>
	</g>
</g>
<g>
	<path class="st13" d="M-665.9,340.7c0-0.1,0-0.1,0-0.2l-0.4-0.9c0-0.1-0.1-0.1-0.2-0.1l-4.4,0.3l2.7-3.5c0-0.1,0.1-0.2,0-0.2
		l-0.4-0.9c0-0.1-0.1-0.1-0.2-0.1c-0.1,0-0.1,0-0.2,0.1l-4.3,5.5c-0.1,0.1-0.1,0.2,0,0.2v0.1c0,0.1,0.1,0.1,0.2,0.1l0,0l7-0.4
		C-666,340.8-666,340.8-665.9,340.7z"/>
	<path class="st13" d="M-666.5,344.2l1.1-0.9l1.7,2.2c0.1,0.1,0.2,0.1,0.3,0l0.6-0.5c0.1-0.1,0.1-0.2,0-0.3l-2.4-3
		c0,0-0.1-0.1-0.2-0.1c-0.1,0-0.1,0-0.2,0l-4.9,3.8c0,0-0.1,0.1-0.1,0.2s0,0.1,0,0.2l2.4,3c0,0.1,0.1,0.1,0.2,0.1l0,0
		c0.1,0,0.1,0,0.1,0l0.6-0.5c0,0,0.1-0.1,0.1-0.2s0-0.1,0-0.2l-1.7-2.2l1.2-0.9l1.4,1.8c0.1,0.1,0.2,0.1,0.3,0l0.6-0.5
		c0.1-0.1,0.1-0.2,0-0.3L-666.5,344.2z"/>
	<path class="st13" d="M-659.8,352.2c0-0.1,0-0.1-0.1-0.2l-1.4-1.2c0,0-0.1-0.1-0.2-0.1s-0.1,0-0.2,0.1l-0.5,0.6
		c0,0-0.1,0.1-0.1,0.2s0,0.1,0.1,0.2l0.5,0.5l-0.5,0.5c-0.2-0.1-0.6-0.2-0.9-0.6c-0.9-0.8-0.9-2.1-0.1-3c0.8-0.9,2.1-1,3-0.2
		c0.4,0.3,0.6,0.8,0.7,1.3c0,0.1,0.1,0.2,0.2,0.2l0.8-0.1c0.1,0,0.1,0,0.2-0.1c0,0,0.1-0.1,0.1-0.2c-0.1-0.9-0.5-1.7-1.2-2.2
		c-0.7-0.6-1.6-0.9-2.5-0.9c-0.9,0.1-1.8,0.5-2.4,1.2s-0.9,1.6-0.9,2.5c0.1,0.9,0.5,1.8,1.2,2.4c1,0.9,2.2,1.1,2.2,1.1l0,0
		c0.1,0,0.1,0,0.2-0.1l1.6-1.8C-659.8,352.3-659.7,352.2-659.8,352.2z"/>
	<path class="st13" d="M-654.1,351.6c-0.1,0-0.1-0.1-0.2,0l-5.8,4c-0.1,0-0.1,0.1-0.1,0.2s0,0.1,0.1,0.2l0.7,0.4
		c0.1,0.1,0.3,0.1,0.4,0l0.9-0.6l2.4,1.4l-0.1,1.1c0,0.2,0,0.3,0.2,0.4l0.7,0.4h0.1h0.1c0.1,0,0.1-0.1,0.1-0.2l0.7-7
		C-653.9,351.8-653.9,351.7-654.1,351.6L-654.1,351.6z M-655.4,353.8l-0.2,2.1l-1.5-0.9L-655.4,353.8z"/>
	<path class="st13" d="M-645.2,355.6c0-0.1-0.1-0.1-0.1-0.1l-0.8-0.3c-0.1,0-0.1,0-0.2,0c-0.1,0-0.1,0.1-0.1,0.1l-1.2,3.6l-2.3-5.1
		l-0.2-0.1c-0.1,0-0.1,0-0.2,0c-0.1,0-0.1,0.1-0.1,0.1l-2.1,6c0,0.1,0,0.3,0.1,0.3l0.8,0.3c0.1,0,0.3,0,0.3-0.1l1.3-3.7l2.3,5.3l0,0
		l0.2,0.1h0.1h0.1c0.1,0,0.1-0.1,0.1-0.1l2.1-6C-645.2,355.8-645.2,355.7-645.2,355.6z"/>
</g>
<g>
	<path class="st13" d="M-636.5,356.6l-3.8-0.3c-0.1,0-0.2,0.1-0.2,0.2l-0.4,6.2c0,0.1,0,0.1,0.1,0.2c0,0,0.1,0.1,0.2,0.1l0.9,0.1
		l0,0c0.1,0,0.1,0,0.2-0.1c0,0,0.1-0.1,0.1-0.2l0.2-2.3l2.3,0.2c0.1,0,0.1,0,0.2-0.1c0,0,0.1-0.1,0.1-0.2l0.1-0.8
		c0-0.1,0-0.1-0.1-0.2c0,0-0.1-0.1-0.2-0.1l-2.3-0.2l0.1-1.7l2.7,0.2c0.1,0,0.1,0,0.2-0.1c0,0,0.1-0.1,0.1-0.2l0.1-0.8
		C-636.3,356.8-636.4,356.6-636.5,356.6z"/>
	<path class="st13" d="M-630.9,360.2c0.8-0.5,1.3-1.2,1.2-2.1c-0.1-1.1-1.2-2-2.3-1.8l-2.7,0.3c-0.1,0-0.2,0.1-0.2,0.3l0.7,6.2
		c0,0.1,0,0.1,0.1,0.2l0.1,0.1l0,0l0.9-0.1c0.1,0,0.2-0.1,0.2-0.3l-0.3-2.3l1-0.1l1.5,2.3c0,0,0.1,0.1,0.2,0.1l1-0.1
		c0.1,0,0.2-0.1,0.2-0.1c0-0.1,0-0.2,0-0.2L-630.9,360.2z M-631.1,358.3c0.1,0.5-0.3,0.9-0.8,1l-1.5,0.2l-0.2-1.8l1.5-0.2
		C-631.6,357.5-631.1,357.8-631.1,358.3z"/>
	<path class="st13" d="M-627.1,355.4c-0.1,0-0.1,0-0.2,0l-0.9,0.2c-0.1,0-0.2,0.2-0.2,0.3l1.6,6.1c0,0.1,0.1,0.1,0.1,0.1h0.1
		c0,0,0,0,0.1,0l0.9-0.2c0.1,0,0.1-0.1,0.1-0.1c0-0.1,0-0.1,0-0.2L-627.1,355.4C-627,355.5-627.1,355.4-627.1,355.4z"/>
	<path class="st13" d="M-619,358.4c0-0.1-0.1-0.1-0.1-0.1c-0.1,0-0.1,0-0.2,0l-2.5,1l-0.6-1.4l2.1-0.9c0.1,0,0.2-0.2,0.1-0.3
		l-0.3-0.7c0-0.1-0.2-0.2-0.3-0.1l-2.1,0.9l-0.5-1.3l2.5-1c0.1,0,0.2-0.2,0.1-0.3l-0.3-0.7c0-0.1-0.2-0.2-0.3-0.1l-3.6,1.4
		c-0.1,0-0.2,0.2-0.1,0.3l2.4,5.8c0,0.1,0.1,0.1,0.1,0.1h0.1h0.1l3.6-1.4c0.1,0,0.1-0.1,0.1-0.1c0-0.1,0-0.1,0-0.2L-619,358.4z"/>
</g>
<g>
	<path class="st13" d="M-614.9,349.6l-0.1-0.1c-0.1,0-0.1,0-0.2,0l-0.7,0.5c-0.1,0.1-0.1,0.2-0.1,0.3l2.1,3.2l-5.5-1.3l0,0l-0.2,0.1
		l-0.1,0.1c0,0.1,0,0.1,0,0.2l3.5,5.3l0.1,0.1c0,0,0,0,0.1,0h0.1l0.7-0.5c0.1-0.1,0.1-0.2,0.1-0.3l-2.2-3.3l5.6,1.4l0,0l0.2-0.1
		c0.1-0.1,0.1-0.2,0.1-0.3L-614.9,349.6z"/>
	<path class="st13" d="M-609.5,345.5L-609.5,345.5c-0.9,0-1.8,0.4-2.4,1l-1.6,1.6c0,0-0.1,0.1-0.1,0.2s0,0.1,0.1,0.2l4.4,4.4
		c0,0,0.1,0.1,0.2,0.1c0.1,0,0.1,0,0.2-0.1l1.6-1.6c0.6-0.6,1-1.5,1-2.4s-0.4-1.7-1-2.4C-607.7,345.8-608.6,345.5-609.5,345.5z
		 M-608.1,350.4l-0.7,0.7l-3-3l0.7-0.7c0.8-0.8,2.1-0.8,3,0C-607.2,348.3-607.2,349.5-608.1,350.4z"/>
	<path class="st13" d="M-601.7,342.9c-0.1-0.1-0.3,0-0.3,0.1l-1.3,1.9l-4.3-3c0,0-0.1,0-0.2,0c-0.1,0-0.1,0-0.1,0.1l-0.5,0.7
		c0,0.1,0,0.1,0,0.2s0,0.1,0.1,0.1l5.1,3.6h0.1l0,0c0.1,0,0.1,0,0.1-0.1l2-2.8c0-0.1,0-0.1,0-0.2s0-0.1-0.1-0.2L-601.7,342.9z"/>
	<path class="st13" d="M-599.1,339.5l-2.7-1.3l-1.8-3.3c0-0.1-0.1-0.1-0.2-0.1c-0.1,0-0.2,0.1-0.2,0.1l-0.4,0.9c0,0.1,0,0.1,0,0.2
		l1.2,2.3l-2.5,0.4c-0.1,0-0.1,0.1-0.2,0.1l-0.4,0.9c0,0.1,0,0.2,0,0.2c0,0.1,0.1,0.1,0.2,0.1l3.8-0.5l2.7,1.3h0.1
		c0.1,0,0.2,0,0.2-0.1l0.4-0.8C-598.9,339.7-599,339.6-599.1,339.5z"/>
</g>
<g id="XMLID_5_">
	<path id="XMLID_97_" class="st13" d="M-655,269.3c-0.6,16.7-10.2,24.4-4.3,47.9c4.9,19.3,19.8,29,26.6,32.5
		c0.2-32.5-17.5-66.1-17.5-66.1c18.1,29.5,22.9,53.5,24.1,63c4.5-7.1,11.4-21.8,6.9-39.5C-625.2,283.5-653.4,269.2-655,269.3z"/>
</g>
<g>
	<path class="st14" d="M-269.1,182c0,6-4.2,9.7-9.7,9.7c-6.2,0-10.7-4.6-10.7-10.3s4.5-10.3,10.4-10.3c3.8,0,7,1.9,8.6,4.5l-3.8,2.2
		c-0.8-1.3-2.6-2.3-4.8-2.3c-3.3,0-5.8,2.5-5.8,5.9s2.4,5.8,6.2,5.8c2.6,0,4.4-1.2,5.1-3.1h-5.4v-4h9.9V182z"/>
	<path class="st14" d="M-246.7,191.3h-4.5v-11.5l-5.1,8.4h-0.5l-5.1-8.4v11.5h-4.5v-19.8h4.5l5.4,8.8l5.4-8.8h4.5L-246.7,191.3
		L-246.7,191.3z"/>
	<path class="st14" d="M-244.2,181.4c0-5.8,4.6-10.3,10.3-10.3s10.3,4.5,10.3,10.3s-4.6,10.3-10.3,10.3
		C-239.6,191.7-244.2,187.2-244.2,181.4z M-228.1,181.4c0-3.5-2.5-5.9-5.8-5.9s-5.8,2.3-5.8,5.9c0,3.5,2.5,5.9,5.8,5.9
		S-228.1,184.9-228.1,181.4z"/>
</g>
<g>
	<path class="st15" d="M-585.9,71.6v11.6h-2l-4.5-6.3v6.3h-2.7V71.6h2l4.5,6.3v-6.3H-585.9z"/>
	<path class="st15" d="M-577.1,81.3h-4.3l-0.6,1.8h-2.9l3.9-11.6h3.4l3.9,11.6h-2.9L-577.1,81.3z M-577.9,78.9l-1.4-4.3l-1.4,4.3
		H-577.9z"/>
	<path class="st15" d="M-565.6,74.1h-3v9.1h-2.7v-9.1h-3v-2.6h8.6v2.6H-565.6z"/>
	<path class="st15" d="M-564.6,79.4v-7.9h2.7v7.6c0,0.9,0.4,1.6,1.8,1.6c1.4,0,1.8-0.7,1.8-1.6v-7.6h2.7v7.9c0,2.5-1.9,4-4.5,4
		C-562.7,83.4-564.6,81.9-564.6,79.4z"/>
	<path class="st15" d="M-549.8,79.4h-1.2v3.8h-2.7V71.6h4.6c2.2,0,4,1.8,4,4c0,1.4-0.9,2.7-2.1,3.4l2.5,4.3h-2.9L-549.8,79.4z
		 M-551,77h2c0.7,0,1.3-0.6,1.3-1.5s-0.6-1.5-1.3-1.5h-2V77z"/>
	<path class="st15" d="M-536.7,81.3h-4.3l-0.6,1.8h-2.9l3.9-11.6h3.4l3.9,11.6h-2.9L-536.7,81.3z M-537.5,78.9l-1.4-4.3l-1.4,4.3
		H-537.5z"/>
	<path class="st15" d="M-525.4,80.6v2.6h-6.8V71.6h2.7v9.1L-525.4,80.6L-525.4,80.6z"/>
</g>
<g>
	<path class="st1" d="M-588.4,33.1v23.3h-5.3V38.7l-4.1,1.1l-1.3-4.6l6.1-2.2h4.6V33.1z"/>
	<path class="st1" d="M-585.1,44.7c0-7.2,3.5-12.1,9.5-12.1s9.5,4.9,9.5,12.1s-3.5,12.1-9.5,12.1C-581.6,56.9-585.1,51.9-585.1,44.7
		z M-571.4,44.7c0-4.5-1.4-6.9-4.2-6.9c-2.8,0-4.2,2.4-4.2,6.9s1.4,6.9,4.2,6.9C-572.7,51.7-571.4,49.2-571.4,44.7z"/>
	<path class="st1" d="M-564,44.7c0-7.2,3.5-12.1,9.5-12.1s9.5,4.9,9.5,12.1s-3.5,12.1-9.5,12.1C-560.6,56.9-564,51.9-564,44.7z
		 M-550.4,44.7c0-4.5-1.4-6.9-4.2-6.9s-4.2,2.4-4.2,6.9s1.4,6.9,4.2,6.9S-550.4,49.2-550.4,44.7z"/>
	<path class="st1" d="M-543.3,38.3c0-3.1,2.5-5.7,5.8-5.7s5.8,2.4,5.8,5.7c0,3.1-2.5,5.7-5.8,5.7C-540.9,43.9-543.3,41.4-543.3,38.3
		z M-525.5,36.1l2.2,1.3l-15.1,16.7l-2.2-1.3L-525.5,36.1z M-535.8,38.3c0-1-0.7-1.8-1.8-1.8c-1,0-1.8,0.8-1.8,1.8s0.7,1.8,1.8,1.8
		C-536.5,40.1-535.8,39.2-535.8,38.3z M-531.4,51.1c0-3.1,2.5-5.7,5.8-5.7c3.3,0,5.8,2.5,5.8,5.7c0,3.1-2.5,5.7-5.8,5.7
		C-529,56.8-531.4,54.3-531.4,51.1z M-523.9,51.1c0-1-0.7-1.8-1.8-1.8c-1,0-1.8,0.8-1.8,1.8s0.7,1.8,1.8,1.8
		C-524.6,53-523.9,52.1-523.9,51.1z"/>
</g>
<g>
	<path class="st16" d="M-468.5,183.1c-1.5,0-2.9,0-4.3,0c0-12.9,0-25.7,0-38.5c0.2,0,0.4-0.1,0.5-0.1c13.1,0,26.3-0.1,39.4,0
		c6.8,0.1,12.2,3.1,16.1,8.8c1.2,1.8,2,3.8,2.5,5.9c0,0.2,0.1,0.4,0.2,0.8c0.4-0.7,0.8-1.2,1.1-1.7c2.7-4.4,5.3-8.7,8-13.1
		c0.1-0.2,0.4-0.4,0.6-0.4c1.5,0,3.1,0,4.8,0c-0.8,1.4-1.5,2.6-2.3,3.8c-2.6,4.3-5.1,8.6-7.7,12.9c-2.5,4.2-4.9,8.5-7.6,12.6
		c-2.6,4.1-6.3,7-11.1,8.3c-1.6,0.4-3.4,0.7-5.1,0.7c-4.6,0.1-9.1,0-13.7,0c-0.7,0-0.9-0.1-0.9-0.8c0-3.8,0-7.7,0-11.5
		c0-3.2,0-6.3-0.1-9.5c0-0.6,0.1-1,0.9-0.9c0.9,0.1,1.9,0,2.8,0c0.7,0,0.9,0.2,0.9,0.9c0,5.4,0,10.9,0,16.3c0,1.1,0,1.1,1.2,1.1
		c3,0,6,0.1,9,0c6.4-0.1,11.1-3.1,13.8-8.9c3-6.6,0.7-14.3-5.4-18.4c-2.6-1.8-5.5-2.6-8.7-2.6c-11.2,0-22.4,0-33.5,0
		c-1.4,0-1.4,0-1.4,1.5c0,10.6,0,21.2,0,31.8C-468.5,182.4-468.5,182.7-468.5,183.1z"/>
	<path class="st16" d="M-449.3,150.7c5.5,0,10.9-0.1,16.4,0c5.1,0.1,9.5,2.9,11.7,7.8c2.3,5.1,1,11-2.9,14.8
		c-2.4,2.3-5.3,3.5-8.7,3.6c-2.7,0.1-5.3,0-8,0c-0.5,0-0.7-0.2-0.7-0.7c0-5,0-10.1,0-15.1c0-0.6,0.2-0.7,0.7-0.7c1,0,2,0,3,0
		c0.6,0,0.8,0.2,0.8,0.8c0,3.5,0,6.9,0,10.4c0,0.8,0.2,1,1,0.9c1.2-0.1,2.4,0,3.6-0.1c3.7-0.3,6.9-3.2,7.7-6.8
		c1.1-4.7-2.5-10.4-8.6-10.5c-9.3,0-18.6,0-28,0c-1.1,0-1,0-1,1.1s0,2.3,0,3.4c0,0.6,0.2,0.8,0.8,0.8c3.6,0,7.2,0,10.7,0
		c0.7,0,0.9,0.2,0.9,0.9c-0.1,1,0,2,0,3c0,0.5-0.1,0.6-0.6,0.6c-5.2,0-10.4,0-15.5,0c-0.5,0-0.6-0.2-0.6-0.6c0-4.3,0-8.5,0-12.8
		c0-0.6,0.2-0.8,0.8-0.8C-460.3,150.7-454.8,150.7-449.3,150.7L-449.3,150.7z"/>
	<path class="st16" d="M-420.2,183.1c6.9-11.5,13.7-22.9,20.7-34.4c5.7,9.4,11.3,18.7,17,28.1c-0.3,0-0.5,0-0.7,0
		c-7.3,0-14.5,0-21.8,0c-0.8,0-1-0.2-0.9-1c0.1-1.1,0-2.2,0-3.4c5.1,0,10.1,0,15.3,0c-3-5-5.9-9.9-8.9-14.8
		c-0.2,0.3-0.4,0.5-0.5,0.7c-4.6,8.1-9.2,16.1-13.8,24.2c-0.1,0.2-0.4,0.5-0.6,0.5C-416.2,183.1-418.1,183.1-420.2,183.1z"/>
	<path class="st16" d="M-399.4,144.7c1.7,0,3.3,0,4.8,0c0.2,0,0.5,0.3,0.6,0.5c2.4,3.8,4.7,7.7,7.1,11.5c3.3,5.5,6.7,10.9,10,16.4
		c0.4,0.6,0.5,1.1,0,1.7c-0.8,1.2-1.5,2.4-2.3,3.8C-385.9,167.3-392.6,156.1-399.4,144.7z"/>
	<path class="st16" d="M-462.4,183.1c-1.4,0-2.8,0-4.2,0c0-0.3,0-0.6,0-0.9c0-4.8,0-9.7,0-14.5c0-0.7,0.2-0.9,0.9-0.9
		c5,0,10.1,0,15.1,0c0.6,0,0.8,0.2,0.8,0.7c0,1,0,2,0,3c0,0.6-0.2,0.8-0.8,0.8c-3.3,0-6.7,0-10,0c-0.1,0-0.2,0-0.3,0
		c-1.3,0-1.3,0-1.3,1.2c0,3.4,0,6.7,0,10.1C-462.4,182.8-462.4,182.9-462.4,183.1z"/>
	<path class="st16" d="M-379.3,178.8c-0.8,1.3-1.5,2.5-2.2,3.7c-0.3,0.5-0.6,0.7-1.1,0.7c-7.5,0-15,0-22.5,0c-0.2,0-0.4,0-0.7,0
		c0-1.3,0-2.6,0-3.9c0-0.1,0.2-0.3,0.3-0.3c0.1-0.1,0.3,0,0.5,0c8.3,0,16.5,0,24.8,0C-380.1,178.8-379.8,178.8-379.3,178.8z"/>
</g>
<path class="st17" d="M-338.8-111.1c0.2-0.9,1.5-8.5,10.9-2.8c2.4,1.4,4.9,2.6,7.8,1.9l-1.9,3.5c0,0-3.9-0.5-7.9,1.2
	c-13.1,4.6-14.6-0.4-13.7-11.3c0,0-0.4,15.8-17,15.2c-0.5,0-0.8-0.5,0.1-0.7c10.8-1.7,14.8-10.1,16.3-22.4c0.2-1.3,1.9-1.6,2.1,0
	c0,0-0.4,11.5,1.9,16.7c0.8,1,2,2.5,11.1-0.4c0,0-5.1-3.6-8.5-0.6C-338.2-110.2-338.9-110.3-338.8-111.1L-338.8-111.1z
	 M-356.6-125.1c0,0,8.4,3.6,8,12.1c0,1-0.4,1.2-0.7,0.1c-0.3-1.4-1.5-4.7-5.5-6C-355.4-119.1-358.4-120.5-356.6-125.1L-356.6-125.1z
	 M-360.2-129.8c0.2,0.6,0.6,1.2,1.5,1.9c0.3,0.2,1.1,1.2-0.6,2.3c0,0,0.9,12.9,0.9,15.4c-0.4,7.5-13.4,9.1-15.3,2.8
	c-0.4-1.5-0.2-3.8,2.1-7.2c0.5-0.6,0.6-0.1,0.4,0.4c-3.1,9.7,10.4,8.1,10.6,3.2c0-1.3-0.6-12.9-1.2-14.5c-0.4-0.3-1.8-2.7,0.4-4.6
	C-360.9-130.5-360.3-130.8-360.2-129.8L-360.2-129.8z"/>
<path class="st18" d="M-612.7,124.3h-8.3c-4.6,0-8.5,3.8-8.5,8.5v12.7l-9,9c-3.3,3.3-3.3,8.7,0,12l9,9v12.7c0,4.6,3.8,8.5,8.5,8.5
	h12.7l9,9c3.3,3.3,8.7,3.3,12,0l9-9h12.7c4.6,0,8.5-3.8,8.5-8.5v-11.9c5.6-6.6,8.9-15.2,8.9-24.5c0-21.1-17.1-38.1-38.1-38.1
	C-596.5,113.6-605.8,117.7-612.7,124.3L-612.7,124.3z"/>
<path class="st1" d="M-586.2,117.8c-18.8,0-34,15.2-34,34s15.2,34,34,34c18.8,0,34-15.2,34-34S-567.5,117.8-586.2,117.8
	L-586.2,117.8z"/>
<path class="st18" d="M-577.1,145.2c0.2-0.9,1.5-8.5,10.9-2.8c2.4,1.4,4.9,2.6,7.8,1.9l-1.9,3.5c0,0-3.9-0.5-7.9,1.2
	c-13.1,4.6-14.6-0.4-13.7-11.3c0,0-0.4,15.8-17,15.2c-0.5,0-0.8-0.5,0.1-0.7c10.8-1.7,14.8-10.1,16.3-22.4c0.2-1.3,1.9-1.6,2.1,0
	c0,0-0.4,11.5,1.9,16.7c0.8,1,2,2.5,11.1-0.4c0,0-5.1-3.6-8.5-0.6C-576.6,146.1-577.2,146.1-577.1,145.2L-577.1,145.2z
	 M-594.9,131.3c0,0,8.4,3.6,8,12.1c0,1-0.4,1.2-0.7,0.1c-0.3-1.4-1.5-4.7-5.5-6C-593.7,137.2-596.7,135.8-594.9,131.3L-594.9,131.3z
	 M-598.5,126.5c0.2,0.6,0.6,1.2,1.5,1.9c0.3,0.2,1.1,1.2-0.6,2.3c0,0,0.9,12.9,0.9,15.4c-0.4,7.5-13.4,9.1-15.3,2.8
	c-0.4-1.5-0.2-3.8,2.1-7.2c0.5-0.6,0.6-0.1,0.4,0.4c-3.1,9.7,10.4,8.1,10.6,3.2c0-1.3-0.6-12.9-1.2-14.5c-0.4-0.3-1.8-2.7,0.4-4.6
	C-599.2,125.8-598.6,125.6-598.5,126.5L-598.5,126.5z"/>
<path class="st18" d="M-609.4,166.5V157h2.2v3.5h3.7V157h2.2v9.5h-2.2v-4h-3.7v4H-609.4L-609.4,166.5z M-595.9,163.4h2.5l-1.2-3
	L-595.9,163.4L-595.9,163.4z M-599.4,166.5l4.8-9.8h0.1l4.7,9.8h-2.4l-0.6-1.4h-3.9l-0.6,1.4H-599.4L-599.4,166.5z M-587.8,166.5
	V157h2.3v7.5h3.7v2H-587.8L-587.8,166.5z M-576.7,163.4h2.5l-1.2-3L-576.7,163.4L-576.7,163.4z M-580.2,166.5l4.8-9.8h0.1l4.7,9.8
	h-2.4l-0.6-1.4h-3.9l-0.6,1.4H-580.2L-580.2,166.5z M-568.7,166.5V157h2.3v7.5h3.7v2H-568.7L-568.7,166.5z"/>
<path class="st18" d="M-597,177.7v-6.1h-1.3l0.2-1.3h2.7v7.4L-597,177.7L-597,177.7z M-591.5,174c0,0.7,0.1,1.3,0.3,1.7
	c0.2,0.4,0.4,0.6,0.7,0.6s0.5-0.2,0.7-0.6c0.2-0.4,0.3-1,0.3-1.7s-0.1-1.3-0.3-1.7s-0.4-0.6-0.7-0.6s-0.5,0.2-0.7,0.6
	C-591.4,172.6-591.5,173.2-591.5,174L-591.5,174z M-593.1,174c0-1.2,0.2-2.2,0.7-2.9s1.1-1,1.9-1s1.5,0.3,2,1s0.7,1.7,0.7,2.9
	s-0.2,2.2-0.7,2.9s-1.1,1-2,1c-0.8,0-1.5-0.3-1.9-1C-592.9,176.2-593.1,175.2-593.1,174L-593.1,174z M-585.5,174
	c0,0.7,0.1,1.3,0.3,1.7c0.2,0.4,0.4,0.6,0.7,0.6s0.5-0.2,0.7-0.6c0.2-0.4,0.3-1,0.3-1.7s-0.1-1.3-0.3-1.7s-0.4-0.6-0.7-0.6
	s-0.5,0.2-0.7,0.6C-585.5,172.6-585.5,173.2-585.5,174L-585.5,174z M-587.2,174c0-1.2,0.2-2.2,0.7-2.9s1.1-1,1.9-1s1.5,0.3,2,1
	s0.7,1.7,0.7,2.9s-0.2,2.2-0.7,2.9s-1.1,1-2,1c-0.8,0-1.5-0.3-1.9-1C-587,176.2-587.2,175.2-587.2,174L-587.2,174z M-575.6,170h0.8
	l-4.7,7.9h-0.8L-575.6,170L-575.6,170z M-576.4,176c0,0.2,0.1,0.4,0.2,0.6c0.2,0.2,0.3,0.2,0.6,0.2c0.2,0,0.4-0.1,0.6-0.2
	c0.2-0.2,0.2-0.4,0.2-0.6c0-0.2-0.1-0.4-0.2-0.6c-0.2-0.2-0.4-0.2-0.6-0.2c-0.2,0-0.4,0.1-0.6,0.2
	C-576.3,175.6-576.4,175.8-576.4,176L-576.4,176z M-577.5,176c0-0.5,0.2-1,0.6-1.3c0.4-0.4,0.8-0.6,1.3-0.6s1,0.2,1.3,0.5
	s0.6,0.8,0.6,1.3s-0.2,1-0.6,1.3c-0.4,0.4-0.8,0.6-1.3,0.6s-1-0.2-1.3-0.6C-577.3,177-577.5,176.5-577.5,176L-577.5,176z
	 M-580.4,171.9c0,0.2,0.1,0.4,0.2,0.6c0.2,0.2,0.3,0.2,0.6,0.2c0.2,0,0.4-0.1,0.6-0.2c0.2-0.2,0.2-0.4,0.2-0.6
	c0-0.2-0.1-0.4-0.2-0.6c-0.2-0.2-0.3-0.2-0.6-0.2c-0.2,0-0.4,0.1-0.6,0.2C-580.4,171.5-580.4,171.7-580.4,171.9L-580.4,171.9z
	 M-581.5,171.9c0-0.5,0.2-1,0.5-1.3c0.4-0.4,0.8-0.5,1.3-0.5s1,0.2,1.3,0.5c0.4,0.4,0.5,0.8,0.5,1.3s-0.2,1-0.6,1.3
	c-0.4,0.4-0.8,0.5-1.3,0.5s-1-0.2-1.3-0.5C-581.3,172.9-581.5,172.4-581.5,171.9L-581.5,171.9z"/>
<path id="SVGID_x5F_1_x5F_" class="st19" d="M-546.8,168.3c9.3-21.7-0.9-46.9-22.6-56.1c-21.7-9.2-46.9,0.9-56.1,22.6
	c-9.3,21.7,0.9,46.9,22.6,56.1C-581.2,200.2-556,190-546.8,168.3z"/>
<text transform="matrix(1 0 0 1 -583.8262 194.2779)" class="st20 st21"> </text>
<text transform="matrix(1 0 0 1 -580.4958 194.0143)" class="st1" style="font-family:'Gilroy-ExtraBold'; font-size:8.1663px; letter-spacing:24;">H</text>
<text transform="matrix(1 0 0 1 -554.1453 180.0488)" class="st1" style="font-family:'Gilroy-ExtraBold'; font-size:8.1663px; letter-spacing:24;">A</text>
<path class="st18" d="M-418.3-132.2c19.7,0,35.8,15,37.5,34.2c1.5,0.4,3,0.5,4.6,0.1l2.5-0.5c2.3-0.5,2.9,0.7,1.5,3.2l-4.8,8.9
	l-1.9-0.2c-0.8-0.1-1.6-0.1-2.5-0.1c-0.3,1.5-0.7,3-1.2,4.5h3.6v8.8h4.4v6.2h-17.7c-6.8,6.4-15.9,10.4-25.9,10.4
	c-15.2,0-28.3-9-34.2-21.9c-5.1-0.5-9.6-3.2-11.1-8.2c-1.4-4.7,1.1-10,3.7-13.8l0.1-0.1l0.1-0.1c1-1.3,2.6-2.1,4.2-1.3
	c0.2,0.1,0.3,0.2,0.4,0.3c1.4-6.8,4.6-13,9.1-17.9c-0.1-2.5,1.1-4.7,2.9-6.3c1.7-1.5,3.8-1.6,5.2-0.4
	C-432.2-130.2-425.5-132.2-418.3-132.2L-418.3-132.2z M-385.6-75.8L-385.6-75.8L-385.6-75.8L-385.6-75.8L-385.6-75.8z"/>
<path class="st1" d="M-405.3-93.7c0.3-1.4,2.4-13.5,17.4-4.4c3.8,2.2,7.7,4.1,12.4,3.1l-3.1,5.6c0,0-6.3-0.8-12.6,1.9
	c-20.9,7.3-23.3-0.6-21.9-18c0,0-0.7,25.1-27.1,24.3c-0.7,0.1-1.2-0.8,0.2-1.1c17.2-2.8,23.6-16,26-35.7c0.3-2.1,3.1-2.5,3.3,0
	c0,0-0.6,18.3,3,26.6c1.2,1.7,3.2,4,17.6-0.6c0,0-8.2-5.7-13.5-1C-404.5-92.3-405.4-92.3-405.3-93.7L-405.3-93.7z M-433.8-116
	c0,0,13.4,5.7,12.7,19.2c-0.1,1.6-0.7,2-1.1,0.2c-0.5-2.3-2.5-7.5-8.8-9.6C-431.9-106.5-436.5-108.6-433.8-116L-433.8-116z
	 M-439.4-123.5c0.3,1,0.9,2,2.4,3.1c0.4,0.3,1.7,1.9-1,3.6c0,0,1.4,20.5,1.5,24.6c-0.6,11.9-21.4,14.5-24.4,4.4
	c-0.7-2.4-0.3-6,3.3-11.5c0.8-1,1-0.2,0.6,0.7c-4.9,15.5,16.6,12.9,16.9,5c-0.1-2.1-0.9-20.5-2-23.2c-0.7-0.5-2.9-4.2,0.7-7.3
	C-440.6-124.7-439.7-125.1-439.4-123.5L-439.4-123.5z"/>
<path class="st1" d="M-426.2-69.1v-11.2h2.6v4.1h4.3v-4.1h2.6v11.2h-2.6v-4.7h-4.3v4.7H-426.2L-426.2-69.1z M-411.6-72.7h2.9
	l-1.4-3.5L-411.6-72.7L-411.6-72.7z M-415.8-69.1l5.7-11.5h0.2l5.6,11.5h-2.8l-0.7-1.6h-4.5l-0.7,1.6H-415.8L-415.8-69.1z
	 M-403.5-69.1v-11.2h2.7v8.8h4.4v2.4H-403.5L-403.5-69.1z M-391.7-72.7h2.9l-1.4-3.5L-391.7-72.7L-391.7-72.7z M-395.9-69.1
	l5.7-11.5h0.2l5.6,11.5h-2.8l-0.8-1.6h-4.5l-0.7,1.6L-395.9-69.1L-395.9-69.1z M-383.7-69.1v-11.2h2.7v8.8h4.4v2.4H-383.7
	L-383.7-69.1z"/>
<g>
	<path class="st18" d="M-443-61.7l-4.4,4.5l-1-1l1.7-1.8l-1.3-1.4l-1.7,1.8l-1-1l4.4-4.5l1,1l-1.7,1.7l1.4,1.4l1.7-1.7L-443-61.7z"
		/>
	<path class="st18" d="M-442.3-54.7l-1.9-1.4l-0.8,0.7l-1.3-0.9l5.4-3.9l1.5,1.1l-1.9,6.3l-1.3-0.9L-442.3-54.7z M-441.8-56l0.7-2.3
		l-1.9,1.4L-441.8-56z"/>
	<path class="st18" d="M-436.3-51.6l-0.7,1.2l-3.2-1.7l3-5.5l1.3,0.7l-2.3,4.3L-436.3-51.6z"/>
	<path class="st18" d="M-431.7-49.3l-2.2-0.8l-0.6,0.8l-1.5-0.6l4.2-5.1l1.7,0.7l-0.2,6.6l-1.5-0.6L-431.7-49.3z M-431.7-50.8
		l0.1-2.4l-1.4,1.9L-431.7-50.8z"/>
	<path class="st18" d="M-425.2-47.9l-0.3,1.3l-3.6-0.9l1.5-6.1l1.4,0.3l-1.1,4.8L-425.2-47.9z"/>
	<path class="st18" d="M-419.8-50.8l-0.1,1.2l2.3,0.2l-0.1,1.4l-2.3-0.2l-0.2,2.3l-1.4-0.1l0.4-6.3l3.8,0.3l-0.1,1.4L-419.8-50.8z"
		/>
	<path class="st18" d="M-414.2-47.9h-0.7l0.1,2.1l-1.4,0.1l-0.3-6.3l2.5-0.1c1.2-0.1,2.2,0.8,2.3,2c0,0.8-0.4,1.5-1.1,1.9l1.5,2.2
		l-1.5,0.1L-414.2-47.9z M-415-49.1l1.1-0.1c0.4,0,0.7-0.4,0.7-0.8c0-0.5-0.4-0.8-0.8-0.8l-1,0.1V-49.1z"/>
	<path class="st18" d="M-409.6-52.6l0.9,6.2l-1.4,0.2l-0.9-6.2L-409.6-52.6z"/>
	<path class="st18" d="M-403.5-49l0.3,1.3l-3.8,1l-1.5-6.1l3.8-0.9l0.3,1.3l-2.4,0.6l0.2,1l2.2-0.5l0.3,1.3l-2.2,0.5l0.3,1.1
		L-403.5-49z"/>
	<path class="st18" d="M-399.4-55.7l2.3,5.8l-1,0.4l-3.5-2.3l1.2,3.2l-1.3,0.5l-2.3-5.8l1-0.4l3.5,2.3l-1.2-3.2L-399.4-55.7z"/>
	<path class="st18" d="M-392.1-56.2c0.9,1.5,0.4,3.4-1.1,4.2l-2.2,1.3l-3.1-5.4l2.2-1.3C-394.8-58.3-393-57.7-392.1-56.2z
		 M-393.3-55.5c-0.5-0.9-1.5-1.2-2.3-0.7l-0.9,0.5l1.8,3l0.9-0.5C-393-53.6-392.8-54.6-393.3-55.5z"/>
	<path class="st18" d="M-387.2-57.8l0.8,1.1l-2.9,2.2l-3.8-5l1.1-0.9l3,3.9L-387.2-57.8z"/>
	<path class="st18" d="M-385.5-60.8l1.7,1.8l-1,1l-1.7-1.8l-4.2-1.4l1.2-1.1l2.5,1l-0.8-2.6l1.2-1.1L-385.5-60.8z"/>
</g>
<text transform="matrix(1 0 0 1 -1.220703e-04 -1.265462e-04)" class="st20 st21"> </text>
<text transform="matrix(1 0 0 1 -454 -27.3334)" class="st20 st21"> </text>
<path class="st22" d="M-403.4-23.2c1.3,0.8,2.5,1.5,3.8,2.3c0.2,0.1,0.4,0,0.7,0c1.3-0.4,2.6-0.9,3.9-1.2c0.3-0.1,0.7,0,0.9,0.2
	c0.9,0.8,1.8,1.6,2.7,2.4c0.2,0.2,0.6,0.3,1,0.3c1.3-0.1,2.7-0.2,4-0.3c0.3,0,0.7,0.2,0.8,0.4c0.8,0.9,1.5,1.9,2.2,2.9
	c0.2,0.2,0.6,0.5,0.9,0.5c1.3,0.2,2.6,0.3,3.9,0.5c0.4,0,0.7,0.2,0.9,0.6c0.5,1.1,1,2.1,1.6,3.2c0.1,0.3,0.4,0.5,0.7,0.6
	c1.2,0.4,2.5,0.9,3.8,1.2c0.5,0.1,0.7,0.4,0.8,0.9c0.3,1.1,0.5,2.2,0.9,3.3c0.1,0.3,0.4,0.7,0.7,0.9c1.1,0.7,2.3,1.3,3.5,1.9
	c0.4,0.2,0.5,0.4,0.5,0.8c0.1,1.2,0.1,2.4,0.2,3.5c0,0.3,0.2,0.7,0.4,0.9c1,0.9,2,1.8,3.1,2.6c0.3,0.3,0.4,0.5,0.4,0.9
	c-0.2,1.1-0.3,2.3-0.5,3.4c-0.1,0.5,0,0.8,0.3,1.2c0.8,1,1.6,2,2.4,3c0.3,0.4,0.3,0.7,0.2,1.1c-0.4,1.1-0.8,2.2-1.1,3.3
	c-0.1,0.3-0.1,0.7,0.1,1c0.5,1.1,1.1,2.2,1.7,3.3c0.3,0.5,0.3,0.9,0,1.4c-0.6,0.9-1.1,1.9-1.6,2.8c-0.2,0.3-0.2,0.8-0.1,1.1
	c0.3,1.3,0.7,2.5,1.1,3.7c0.1,0.4,0.1,0.7-0.2,1c-0.8,0.9-1.6,1.8-2.3,2.7c-0.2,0.2-0.3,0.6-0.3,0.9c0.1,1.3,0.2,2.7,0.3,4
	c0,0.4-0.1,0.7-0.4,1c-1,0.7-1.9,1.4-2.9,2.2c-0.2,0.2-0.4,0.5-0.4,0.7c-0.2,1.4-0.3,2.8-0.5,4.2c0,0.2-0.3,0.5-0.5,0.6
	c-1.1,0.6-2.2,1.1-3.3,1.6c-0.3,0.1-0.5,0.4-0.6,0.7c-0.4,1.3-0.9,2.5-1.2,3.8c-0.1,0.4-0.3,0.6-0.7,0.7c-1.2,0.3-2.3,0.6-3.5,0.9
	c-0.3,0.1-0.6,0.3-0.8,0.6c-0.7,1.1-1.3,2.2-1.9,3.3c-0.3,0.5-0.6,0.7-1.2,0.7c-1.1,0-2.2,0.1-3.3,0.2c-0.3,0-0.7,0.2-0.9,0.5
	c-0.9,1-1.8,2.1-2.7,3.1c-0.2,0.2-0.5,0.3-0.8,0.3c-1.2-0.1-2.5-0.3-3.7-0.5c-0.3,0-0.6,0.1-0.8,0.2c-1.1,0.8-2.1,1.7-3.2,2.5
	c-0.2,0.2-0.6,0.2-0.9,0.2c-1.1-0.3-2.2-0.8-3.4-1.1c-0.3-0.1-0.8-0.1-1.1,0.1c-1.2,0.5-2.3,1.1-3.5,1.8c-0.4,0.2-0.7,0.2-1.1,0
	c-1-0.6-2-1.1-2.9-1.7c-0.4-0.2-0.8-0.3-1.2-0.2c-1.2,0.4-2.5,0.7-3.7,1.1c-0.4,0.1-0.7,0-1-0.3c-0.9-0.8-1.8-1.6-2.7-2.4
	c-0.2-0.2-0.6-0.3-0.8-0.3c-1.4,0.1-2.8,0.2-4.2,0.3c-0.3,0-0.6-0.1-0.8-0.3c-0.8-1-1.5-2-2.3-2.9c-0.2-0.2-0.5-0.4-0.8-0.5
	c-1.3-0.2-2.6-0.3-3.9-0.5c-0.5,0-0.7-0.2-0.9-0.7c-0.5-1-1-2-1.5-3.1c-0.2-0.4-0.4-0.6-0.9-0.8c-1.2-0.4-2.5-0.8-3.7-1.2
	c-0.4-0.1-0.7-0.4-0.8-0.8c-0.3-1.1-0.6-2.2-0.8-3.3c-0.1-0.4-0.3-0.7-0.7-0.9c-1.2-0.6-2.4-1.3-3.5-2c-0.2-0.1-0.4-0.5-0.4-0.7
	c-0.1-1.2-0.2-2.5-0.3-3.7c0-0.3-0.2-0.6-0.4-0.8c-1-0.9-2-1.7-3-2.6c-0.3-0.3-0.5-0.6-0.4-1c0.2-1.1,0.4-2.3,0.5-3.4
	c0-0.3-0.1-0.8-0.3-1c-0.8-1.1-1.6-2.1-2.5-3.2c-0.2-0.3-0.3-0.6-0.2-0.9c0.4-1.1,0.8-2.2,1.2-3.3c0.2-0.4,0.1-0.8-0.1-1.2
	c-0.6-1.2-1.2-2.4-1.8-3.5c-0.2-0.3-0.2-0.6,0-0.9c0.6-1,1.3-2.1,1.9-3.2c0.1-0.2,0.2-0.6,0.1-0.9c-0.3-1.3-0.7-2.6-1.1-3.9
	c-0.7,0.1-0.7-0.2-0.3-0.6c0.8-0.9,1.6-1.8,2.4-2.7c0.1-0.2,0.3-0.6,0.2-0.9c-0.1-1.3-0.2-2.7-0.3-4c0-0.4,0.1-0.6,0.4-0.9
	c1-0.7,1.9-1.4,2.9-2.2c0.2-0.2,0.5-0.6,0.5-0.9c0.2-1.3,0.3-2.6,0.5-3.9c0-0.4,0.2-0.7,0.6-0.9c1-0.5,2-1,3-1.4
	c0.5-0.2,0.7-0.5,0.9-1c0.4-1.2,0.8-2.5,1.2-3.7c0.1-0.3,0.4-0.5,0.7-0.6c1.2-0.4,2.3-0.6,3.5-1c0.3-0.1,0.6-0.3,0.8-0.6
	c0.7-1.2,1.3-2.4,2-3.6c0.1-0.2,0.5-0.4,0.8-0.5c1.2-0.1,2.4-0.1,3.6-0.3c0.3,0,0.7-0.2,0.9-0.5c0.9-1,1.7-2,2.6-3
	c0.3-0.3,0.5-0.4,0.9-0.4c1.1,0.2,2.3,0.4,3.4,0.5c0.4,0,0.8-0.1,1.1-0.3c1.1-0.8,2.1-1.6,3.1-2.4c0.3-0.3,0.6-0.3,1-0.2
	c1.2,0.4,2.3,0.8,3.5,1.2c0.2,0.1,0.5,0.1,0.6,0c1.4-0.7,2.9-1.5,4.3-2.2C-403.5-23.2-403.4-23.2-403.4-23.2z M-361.4,22.9
	c0-23.4-19-42.4-42.4-42.5c-23.5,0-42.5,19-42.6,42.5c0,23.5,19,42.5,42.5,42.5S-361.4,46.3-361.4,22.9z"/>
<path class="st1" d="M-361.4,22.9c0,23.4-19,42.5-42.5,42.5s-42.5-19-42.5-42.5s19-42.5,42.5-42.5C-380.4-19.5-361.4-0.5-361.4,22.9
	z M-403.9,64.8c23.1,0,41.8-18.7,41.9-41.8c0-23.1-18.7-41.9-41.8-42s-41.9,18.7-42,41.8C-445.8,46-427.1,64.7-403.9,64.8z"/>
<path class="st22" d="M-403.9,64.8c-23.2,0-41.9-18.8-41.8-42c0-23.1,18.9-41.8,42-41.8c23,0.1,41.7,18.9,41.7,41.9
	C-362.1,46.1-380.8,64.8-403.9,64.8z"/>
<path d="M-435.2,22.9c0,17.3,14,31.3,31.3,31.3c17.2,0,31.3-14,31.3-31.3s-14-31.3-31.3-31.3C-421.2-8.4-435.2,5.6-435.2,22.9z"/>
<path class="st1" d="M-435.2,22.9c0-17.3,14-31.3,31.3-31.3c17.3,0,31.3,14,31.3,31.3c0,17.2-14,31.3-31.3,31.3
	C-421.2,54.2-435.2,40.2-435.2,22.9z M-425.5,17.3c-0.3,0.8-0.6,1.6-0.9,2.3c-1.1,3.1-2,6.3-1.8,9.7c0.1,3.4,1.9,5.5,5,6
	c1.1,0.2,2.3,0.1,3.4,0c2.9-0.2,5.2-1.4,6.3-4.4c0.1-0.2,0.4-0.4,0.7-0.4c1.5-0.1,3-0.2,4.4-0.3c3.5-0.2,5.9-1.9,7.1-5.2
	c0.7-2,1.3-4,1.9-6c0-0.1,0.1-0.3,0.2-0.6c0.1,2,0.2,3.8,0.4,5.7c0.1,1.4,0.4,2.8,1.1,4c0.5,0.8,1.1,1.2,2.1,1.2
	c5.7,0,11.5,0,17.2,0c0.2,0,0.4,0,0.7,0c0-1.3,0-2.5,0-3.8c-0.9,0.3-1.5-0.3-2-0.8c-1.3-1.6-2.6-3.2-4-4.7c-0.9-1-1.9-1.9-2.9-2.8
	c-0.7-0.5-1.5-0.8-2.4-0.7c-1.7,0.1-3.3,1.9-3.5,4c0.1,0,0.3,0,0.4,0c1.7-0.3,3.4,0.1,4.7,1.1c1.5,1.2,2.8,2.5,4.1,3.8
	c0,0,0,0.1,0,0.2c-4.2,0-8.4,0-12.5,0c-0.3,0-0.6-0.2-0.8-0.4c-0.2-0.5-0.4-1-0.5-1.5c-0.3-1.5-0.5-3.1-0.7-4.7
	c-0.5-4.5-0.9-9-1.3-13.5c-0.1-0.9-0.2-1.8-0.3-2.7c-0.4,1-0.7,1.9-1,2.9c-0.1,0.3-0.1,0.6,0,0.9c0.4,2.8,0.7,5.5,0.6,8.3
	c-0.2,4.3-1.9,7.8-5.3,10.4c-2.4,1.9-5.2,3.1-8,4.3c0,0-0.1,0,0,0c0.5-7.5-0.8-14.9-1.4-22.4c0.3,0.1,0.6,0.2,1,0.3
	c0.1-1.1,0.2-2.2,0.3-3.2c0.1-0.7-0.1-1.2-0.7-1.5c-1-0.5-1.9-1.2-1.8-2.5h-0.1l-0.1,0.1c-0.6,1.6-0.8,3.3-0.8,5
	c0,0.1,0.1,0.4,0.2,0.4c0.6,0.3,0.6,0.9,0.6,1.5c0.4,3.1,0.7,6.2,1,9.4s0.5,6.4,0.8,9.7c0.1,1.4-0.5,2.5-1.6,3.3
	c-2.1,1.5-4.4,2.1-7,1.8c-2.1-0.2-3.6-1.3-4-3.4c-0.3-1.2-0.3-2.5-0.2-3.8c0.2-2.2,1-4.2,1.8-6.2C-425,17.7-425,17.5-425.5,17.3z
	 M-401.8,19.2c0.3-1.5,0.2-2.8-0.2-4.1c-1.4-5-4.5-8.6-8.7-11.4c-0.2-0.1-0.4-0.2-0.7-0.3c-0.9-0.3-1.3-0.1-1.3,0.9
	c-0.1,2.9,1.1,5.1,3.3,6.8c0.7,0.5,1,0.5,1.4-0.3c0.3-0.5,0.6-0.6,1-0.3s0.9,0.7,1.2,1.2c1.5,2,2.7,4.3,3.6,6.6
	C-402,18.5-401.9,18.8-401.8,19.2z M-418.8,45.4c1.2,0,2.4,0,3.6,0c-0.9-0.1-0.9-0.6-0.9-1.3c0-1.2,0-2.5,0-3.7c0-0.6,0-1.2,0.9-1.2
	c-1.2,0-2.4,0-3.4,0c0.2,0.2,0.6,0.4,0.6,0.6c0.1,0.7,0,1.4,0,2.2c-0.9,0-1.8,0-2.7,0c0-0.6,0-1.1,0-1.6c0-0.7,0.1-1.1,0.9-1.2
	c-1.2,0-2.4,0-3.5,0c0.7,0,0.9,0.5,0.9,1.1c0,1.3,0,2.5,0,3.8c0,0.7,0,1.3-0.9,1.4c1.2,0,2.4,0,3.4,0c-0.2-0.2-0.6-0.5-0.7-0.8
	c-0.1-0.7,0-1.4,0-2.2c0.9,0,1.8,0,2.7,0c0,0.6,0,1.1,0,1.7C-417.8,44.8-417.9,45.3-418.8,45.4z M-406,45.3c2.1,0,4.3,0,6.4,0
	c0.1-0.7,0.2-1.4,0.3-2.2c-0.4,0.6-0.7,1.3-1.1,1.5c-0.6,0.3-1.3,0.4-2,0.4c-0.9,0.1-1-0.1-1-1c0-1.2,0-2.5,0-3.7c0-1,0-1,1.1-1.2
	c-1.3,0-2.5,0-3.7,0c0.7,0.1,0.8,0.5,0.8,1.2c0,1.3,0,2.6,0,3.9C-405.2,44.8-405.3,45.3-406,45.3z M-396.3,45.4
	c-1.1-0.4-1.2-0.6-0.7-1.4c0.1-0.2,0.4-0.3,0.6-0.3c0.6,0,1.2,0,1.8,0c0.4,0,1,0.6,1,1.2c0,0.2-0.3,0.4-0.5,0.6c0.9,0,2,0,3,0
	c-0.3-0.4-0.7-0.9-1-1.4c-0.9-1.6-1.8-3.3-2.7-5.1c-0.9,1.6-1.7,3.2-2.6,4.7c-0.4,0.6-0.8,1.2-1.2,1.8
	C-397.9,45.4-397.2,45.4-396.3,45.4z M-406.9,45.4c-0.3-0.4-0.6-0.7-0.9-1.1c-0.5-0.9-1-1.8-1.5-2.8c-0.4-0.8-0.9-1.7-1.4-2.6
	c-0.9,1.6-1.7,3.2-2.5,4.6c-0.4,0.7-0.9,1.3-1.2,1.8c0.5,0,1.2,0,2,0c-1-0.4-1.1-0.7-0.5-1.5c0.1-0.2,0.4-0.3,0.5-0.3
	c0.6,0,1.2,0,1.8,0c0.9-0.1,0.9,0.7,1.1,1.2c0.1,0.1-0.4,0.5-0.5,0.6C-409,45.4-407.9,45.4-406.9,45.4z M-383.4,43.3h-0.1
	c-0.3,0.4-0.5,0.9-0.8,1.2c-0.6,0.7-1.4,0.6-2.2,0.6c-0.9,0-0.9-0.1-0.9-0.9c0-1.3,0-2.5,0-3.8c0-0.7,0.1-1.2,0.9-1.2
	c-1.2,0-2.4,0-3.6,0c0.7,0.1,0.9,0.5,0.9,1.1c0,1.3,0,2.5,0,3.8c0,0.6,0,1.3-0.9,1.3c2.2,0,4.3,0,6.5,0
	C-383.6,44.6-383.5,44-383.4,43.3z"/>
<path class="st22" d="M-425.5,17.3c0.5,0.2,0.5,0.4,0.4,0.9c-0.8,2-1.6,4-1.8,6.2c-0.1,1.3-0.1,2.6,0.2,3.8c0.5,2.1,2,3.2,4,3.4
	c2.5,0.3,4.9-0.3,7-1.8c1.1-0.8,1.7-1.9,1.6-3.3c-0.3-3.2-0.5-6.5-0.8-9.7c-0.3-3.1-0.7-6.2-1-9.4c-0.1-0.5,0-1.2-0.6-1.5
	c-0.1-0.1-0.2-0.3-0.2-0.4c0-1.7,0.2-3.4,0.8-5c0-0.1,0.1-0.1,0.1-0.1c0.1,0,0.1,0,0.1,0c0,1.3,0.8,1.9,1.8,2.5
	c0.6,0.3,0.8,0.8,0.7,1.5c-0.1,1.1-0.2,2.1-0.3,3.2c-0.4-0.1-0.6-0.2-1-0.3c0.6,7.5,1.9,14.9,1.4,22.4l0,0c2.8-1.2,5.6-2.4,8-4.3
	c3.4-2.7,5.1-6.2,5.3-10.4c0.1-2.8-0.2-5.5-0.6-8.3c0-0.3,0-0.6,0-0.9c0.3-1,0.5-2,1-2.9c0.1,0.9,0.3,1.8,0.3,2.7
	c0.4,4.5,0.8,9,1.3,13.5c0.2,1.6,0.4,3.1,0.7,4.7c0.1,0.5,0.3,1,0.6,1.4c0.1,0.2,0.5,0.4,0.8,0.4c4.2,0,8.3,0,12.5,0
	c0-0.1,0-0.2,0-0.2c-1.4-1.3-2.7-2.6-4.1-3.8c-1.3-1.1-3-1.4-4.7-1.1c-0.1,0-0.3,0-0.4,0c0.2-2,1.8-3.8,3.5-4
	c0.9-0.1,1.7,0.2,2.4,0.7c1,0.9,2,1.8,2.9,2.8c1.4,1.5,2.6,3.1,4,4.7c0.5,0.6,1.1,1.1,2,0.8c0,1.3,0,2.5,0,3.8c-0.2,0-0.4,0-0.7,0
	c-5.7,0-11.5,0-17.2,0c-1,0-1.6-0.4-2.1-1.2c-0.7-1.3-1-2.6-1.1-4c-0.2-1.8-0.2-3.6-0.4-5.7c-0.1,0.3-0.2,0.4-0.2,0.6
	c-0.6,2-1.2,4.1-1.9,6c-1.2,3.3-3.6,5-7.1,5.2c-1.5,0.1-3,0.1-4.4,0.3c-0.2,0-0.6,0.2-0.7,0.4c-1.1,3-3.4,4.2-6.3,4.4
	c-1.1,0.1-2.3,0.1-3.4,0c-3.1-0.5-4.9-2.7-5-6c-0.1-3.4,0.7-6.5,1.8-9.7C-426.1,18.9-425.8,18.1-425.5,17.3z"/>
<path class="st22" d="M-401.8,19.2c-0.2-0.4-0.3-0.6-0.3-0.9c-0.9-2.4-2.1-4.6-3.6-6.6c-0.3-0.4-0.8-0.8-1.2-1.2
	c-0.4-0.3-0.8-0.2-1,0.3c-0.4,0.8-0.6,0.9-1.4,0.3c-2.3-1.7-3.5-3.9-3.3-6.8c0-0.9,0.4-1.2,1.3-0.9c0.2,0.1,0.5,0.2,0.7,0.3
	c4.3,2.7,7.4,6.4,8.7,11.4C-401.6,16.4-401.5,17.7-401.8,19.2z"/>
<g>
	<path class="st22" d="M-418.8,45.4c0.9-0.1,1-0.6,0.9-1.3c0-0.5,0-1.1,0-1.7c-0.9,0-1.8,0-2.7,0c0,0.8-0.1,1.5,0,2.2
		c0.1,0.3,0.5,0.6,0.7,0.8c-1,0-2.2,0-3.4,0c0.9,0,0.9-0.7,0.9-1.4c0-1.3,0-2.5,0-3.8c0-0.6-0.1-1.1-0.9-1.1c1.2,0,2.4,0,3.5,0
		c-0.8,0-0.9,0.5-0.9,1.2c0,0.5,0,1,0,1.6c0.9,0,1.8,0,2.7,0c0-0.7,0.1-1.5,0-2.2c0-0.3-0.5-0.5-0.6-0.6c1,0,2.2,0,3.4,0
		c-0.8,0-0.9,0.6-0.9,1.2c0,1.2,0,2.5,0,3.7c0,0.7,0,1.3,0.9,1.3C-416.4,45.4-417.6,45.4-418.8,45.4z"/>
	<path class="st22" d="M-406,45.3c0.7-0.1,0.8-0.6,0.8-1.2c0-1.3,0-2.6,0-3.9c0-0.6-0.1-1.1-0.8-1.2c1.2,0,2.4,0,3.7,0
		c-1,0.2-1.1,0.3-1.1,1.2c0,1.2,0,2.5,0,3.7c0,0.9,0.1,1,1,1c0.7,0,1.4-0.1,2-0.4c0.4-0.2,0.7-0.9,1.1-1.5c-0.1,0.8-0.2,1.5-0.3,2.2
		C-401.8,45.3-403.9,45.3-406,45.3z"/>
	<path class="st22" d="M-396.3,45.4c-0.9,0-1.6,0-2.2,0c0.4-0.5,0.9-1.1,1.2-1.8c0.9-1.5,1.7-3.1,2.6-4.7c0.9,1.8,1.8,3.4,2.7,5.1
		c0.3,0.5,0.6,0.9,1,1.4c-1,0-2,0-3,0c0.1-0.2,0.5-0.4,0.5-0.6c0-0.6-0.6-1.2-1-1.2c-0.6,0-1.2,0-1.8,0c-0.2,0-0.5,0.2-0.6,0.3
		C-397.5,44.7-397.4,45-396.3,45.4z M-395.4,41c-0.4,0.8-0.8,1.5-1.2,2.2c0.8,0,1.5,0,2.3,0C-394.7,42.5-395,41.8-395.4,41z"/>
	<path class="st22" d="M-406.9,45.4c-1,0-2.1,0-3.1,0c0.2-0.2,0.6-0.5,0.5-0.6c-0.2-0.5-0.2-1.2-1.1-1.2c-0.6,0-1.2,0-1.8,0
		c-0.2,0-0.4,0.1-0.5,0.3c-0.6,0.8-0.5,1.1,0.5,1.5c-0.8,0-1.5,0-2,0c0.4-0.5,0.9-1.1,1.2-1.8c0.8-1.5,1.6-3,2.5-4.6
		c0.5,0.9,0.9,1.8,1.4,2.6c0.5,0.9,1,1.9,1.5,2.8C-407.5,44.7-407.2,45-406.9,45.4z M-412.5,43.2c0.8,0,1.5,0,2.3,0
		c-0.4-0.7-0.7-1.4-1.1-2.2C-411.8,41.8-412.1,42.5-412.5,43.2z"/>
	<path class="st22" d="M-383.4,43.3c-0.1,0.7-0.2,1.4-0.3,2.1c-2.2,0-4.4,0-6.5,0c0.9,0,0.9-0.7,0.9-1.3c0-1.3,0-2.5,0-3.8
		c0-0.6-0.1-1.1-0.9-1.1c1.2,0,2.4,0,3.6,0c-0.8,0-1,0.5-0.9,1.2c0,1.3,0,2.5,0,3.8c0,0.8,0.1,0.9,0.9,0.9c0.8,0,1.6,0.1,2.2-0.6
		c0.3-0.4,0.5-0.8,0.8-1.2C-383.5,43.3-383.5,43.3-383.4,43.3z"/>
</g>
<path class="st1" d="M-395.4,41c0.4,0.8,0.8,1.5,1.1,2.2c-0.8,0-1.5,0-2.3,0C-396.2,42.5-395.9,41.8-395.4,41z"/>
<path class="st1" d="M-412.5,43.2c0.4-0.8,0.8-1.4,1.2-2.2c0.4,0.8,0.8,1.4,1.1,2.2C-411,43.2-411.7,43.2-412.5,43.2z"/>
<path class="st23" d="M-123.4,157.1c-3.8,4.8-8.3,8.6-13.6,11.3c-0.2,0.1-0.4,0.2-0.6,0.3c-0.1,0-0.1,0.1-0.2,0.1l-0.1,0
	c-0.2,0.1-0.3,0.2-0.5,0.2c-0.1,0-0.2,0.1-0.3,0.1c-0.2,0.1-0.3,0.1-0.5,0.2l-0.1,0c-0.1,0-0.1,0.1-0.2,0.1
	c-0.2,0.1-0.4,0.2-0.6,0.3l-0.1,0l-0.5,0.2l-0.6-0.3c-0.2-0.1-0.4-0.2-0.6-0.3c-0.1,0-0.1-0.1-0.2-0.1l-0.1,0
	c-0.2-0.1-0.3-0.1-0.5-0.2c-0.1,0-0.2-0.1-0.3-0.1c-0.2-0.1-0.3-0.2-0.5-0.2l-0.1,0c-0.1,0-0.1-0.1-0.2-0.1
	c-0.2-0.1-0.4-0.2-0.6-0.3c-10.3-5.4-17.9-14.8-22.3-27.5c0,0,0,0,0,0c-0.6-1.8-1.1-3.6-1.6-5.5c-0.1-0.2-0.1-0.5-0.2-0.7l0-0.2
	c-1-4.1-1.7-8.5-2-13c-0.5-6.8-0.2-11.5-0.1-11.7l0.1-1.2h1.2l0.1,0c13.4,0,25.5-4.9,27.8-5.9c0.2-0.1,0.2-0.1,0.3-0.1l0.5-0.2
	l0.5,0.2c0,0,0.1,0,0.2,0.1c1.8,0.8,18.9,5.1,18.9,5c2.8,0.4,5.8,0.7,8.8,0.7l0.1,0h1.2l0.1,1.2c0,0.2,0.3,3.5,0.1,8.5h4.3
	c0.1-1.5,0.1-2.8,0.1-4c0-2.9-0.2-4.7-0.2-4.9l-0.4-5.1h-5.1c-0.1,0-0.1,0-0.2,0l-0.1,0c-12.2-0.1-23.5-4.6-25.7-5.5
	c-0.2-0.1-0.3-0.1-0.3-0.1l-2.3-1l0,0l0,0l-2.3,1c0,0-0.1,0.1-0.3,0.1c-1.7,0.7-9.1,3.7-18.1,4.9c0.1,0-4.8,0.8-7.5,0.8l-0.1,0
	c-0.1,0-0.1,0-0.2,0h-5.1l-0.4,5.1c0,0.2-0.2,2-0.2,4.9c0,1.5,0,3.4,0.2,5.4c0,0,0,0-0.1,0.1c0.3,4.4,0.9,9.8,2.3,15.5
	c0.1,0.2,0.1,0.5,0.2,0.7c0,0.2,0.1,0.4,0.1,0.6l0,0.1c0.4,1.6,0.9,3.2,1.4,4.8c0,0,0,0,0,0.1c0,0,0,0,0,0c2,6.1,4.8,11.6,8.2,16.4
	c0.1,0.2,0.3,0.3,0.4,0.5c0,0,0,0.1,0,0.1c4.3,5.8,9.5,10.4,15.6,13.7c0,0,0,0,0,0c0.3,0.2,0.6,0.3,0.9,0.5l0,0
	c0.3,0.2,0.6,0.3,0.9,0.5l0.1,0c0.3,0.1,0.5,0.2,0.8,0.4c0.1,0,0.2,0.1,0.2,0.1c0.3,0.1,0.6,0.3,0.8,0.4l2.2,0.9l2.2-0.9l0,0
	c0.3-0.1,0.5-0.2,0.8-0.4c0.1,0,0.2-0.1,0.2-0.1c0.3-0.1,0.5-0.3,0.8-0.4l0.1,0c0.3-0.1,0.6-0.3,0.9-0.5l0,0
	c0.3-0.2,0.6-0.3,0.9-0.5c0,0,0,0,0,0c6.2-3.4,11.6-8.1,15.9-14c0.2-0.3,0.5-0.7,0.7-1H-123.4z"/>
<text transform="matrix(1 0 0 1 -111.042 137.606)"><tspan x="0" y="0" class="st25" style="font-family:'Gilroy-ExtraBold'; font-size:18px;">IMMUNE</tspan><tspan x="0" y="14" class="st25" style="font-family:'Gilroy-ExtraBold'; font-size:15.5px;">SUPPORT</tspan></text>
<path class="st24" d="M-143.1,149.3l-9.1-11.1c-0.5-0.6-0.4-1.4,0.2-1.9l0,0c0.6-0.5,1.4-0.4,1.9,0.2l7.1,8.7c0.5,0.6,1.5,0.6,2,0
	l16.9-20.3c0.5-0.6,1.3-0.6,1.9-0.2l0,0c0.6,0.5,0.6,1.3,0.2,1.9l-19,22.7C-141.6,149.9-142.6,149.9-143.1,149.3z"/>
<path class="st25" d="M-247.9-1.8l-0.5-6.2l-6.5,0c-12.5-0.1-24.1-4.7-26.3-5.7l-2.7-1.2l-0.4-0.2l-3.1,1.4
	c-1.6,0.7-17.5,5.1-18.3,5.3c-2.8,0.4-5.1,0.6-8,0.6l-6.5,0l-0.5,6.2c0,0.2-0.2,2.1-0.2,5.2c0,1.6,0.1,5.2,0.1,5.2l0,0.6
	c0.3,5.6,1.1,11.1,2.4,16.3c0.1,0.3,0.1,0.5,0.2,0.8l0.2,0.7c0.4,1.6,0.9,3.3,1.5,5.1c2.2,6.5,5.1,12.3,8.6,17.3c0,0,0,0,0,0l0,0.1
	l0.4,0.5c4.5,6.1,10.1,11,16.6,14.5c0.3,0.2,0.6,0.3,1,0.5c0.3,0.2,0.7,0.3,1.1,0.5c0.3,0.1,0.6,0.3,0.8,0.4l0.2,0.1
	c0.3,0.1,0.6,0.3,0.9,0.4l2.7,1.1l2.7-1.1c0.3-0.1,0.6-0.2,0.9-0.4l0.2-0.1c0.3-0.1,0.6-0.3,0.9-0.4c0.3-0.2,0.7-0.3,1-0.5
	c0.3-0.2,0.6-0.3,1-0.5c6.6-3.6,12.3-8.6,16.9-14.9c0.2-0.2,0.3-0.5,0.5-0.7l1.3-1.9h-8.2l-0.3,0.4c-3.9,4.9-8.5,8.7-13.9,11.5
	l-2.3,1.1c-0.2,0.1-0.4,0.2-0.6,0.3l-0.2,0.1l-0.2-0.1c-0.2-0.1-0.4-0.2-0.6-0.3l-1.5-0.7l-0.1-0.1l-0.1-0.1
	c-0.2-0.1-0.4-0.2-0.6-0.3c-10.2-5.3-17.9-14.7-22.4-27.2l-0.3-0.8c-0.6-1.8-1.2-3.7-1.7-5.6l-0.2-0.9c-1-4.2-1.7-8.7-2.1-13.4
	c-0.6-7.1-0.1-12-0.1-12l0-0.3h0.4c14.1,0,26.9-5.2,29.3-6.3l0.4-0.2l0.4,0.2c1.9,0.8,17.9,4.8,19.7,5.3l0.1,0
	c3.3,0.5,6.5,0.7,9.5,0.7h0.3l0,0.3c0,0.1,0.3,3.5,0.1,8.7l0,1h6.4l0-0.9c0.1-1.5,0.1-2.9,0.1-4.2C-247.7,0.1-247.9-1.8-247.9-1.8z"
	/>
<g>
	<path class="st25" d="M-251.3,14.6v13.1h-3V14.6H-251.3z"/>
	<path class="st25" d="M-236,27.8h-3v-7.6l-3.4,5.6h-0.3l-3.4-5.6v7.6h-3V14.6h3l3.6,5.8l3.6-5.8h3V27.8z"/>
	<path class="st25" d="M-220.6,27.8h-3v-7.6l-3.4,5.6h-0.3l-3.4-5.6v7.6h-3V14.6h3l3.6,5.8l3.6-5.8h3V27.8z"/>
	<path class="st25" d="M-218.4,23.5v-8.9h3v8.6c0,1,0.5,1.8,2.1,1.8s2.1-0.8,2.1-1.8v-8.6h3v8.9c0,2.8-2.2,4.5-5.1,4.5
		C-216.3,28-218.4,26.3-218.4,23.5z"/>
	<path class="st25" d="M-195.8,14.6v13.1h-2.3l-5.1-7.1v7.1h-3V14.6h2.3l5.1,7.1v-7.1H-195.8z"/>
	<path class="st25" d="M-185.3,24.9v2.9h-8.3V14.6h8.2v2.9h-5.2v2.2h4.7v2.8h-4.7v2.3H-185.3z"/>
	<path class="st25" d="M-255,39.8l2.2-1.3c0.4,0.9,1.1,1.6,2.4,1.6c1.2,0,1.5-0.5,1.5-0.9c0-0.7-0.6-1-2.3-1.4
		c-1.7-0.5-3.3-1.3-3.3-3.4c0-2.2,1.8-3.4,3.8-3.4c1.9,0,3.3,0.9,4.1,2.6l-2.2,1.3c-0.4-0.8-0.9-1.3-2-1.3c-0.8,0-1.2,0.4-1.2,0.9
		c0,0.5,0.3,0.9,2,1.4c1.7,0.5,3.6,1.1,3.6,3.5c0,2.2-1.7,3.5-4.2,3.5C-252.9,42.6-254.4,41.4-255,39.8z"/>
	<path class="st25" d="M-245.1,38.7V31h2.6v7.4c0,0.9,0.4,1.6,1.8,1.6c1.4,0,1.8-0.7,1.8-1.6V31h2.6v7.7c0,2.4-1.9,3.9-4.4,3.9
		C-243.2,42.6-245.1,41.1-245.1,38.7z"/>
	<path class="st25" d="M-226.3,34.9c0,2.1-1.7,3.9-4,3.9h-1.7v3.6h-2.6V31h4.3C-228,31-226.3,32.8-226.3,34.9z M-228.9,34.9
		c0-0.8-0.6-1.5-1.4-1.5h-1.7v2.9h1.7C-229.5,36.4-228.9,35.7-228.9,34.9z"/>
	<path class="st25" d="M-216.8,34.9c0,2.1-1.7,3.9-4,3.9h-1.7v3.6h-2.6V31h4.3C-218.5,31-216.8,32.8-216.8,34.9z M-219.4,34.9
		c0-0.8-0.6-1.5-1.4-1.5h-1.7v2.9h1.7C-220,36.4-219.4,35.7-219.4,34.9z"/>
	<path class="st25" d="M-216.1,36.7c0-3.3,2.6-5.9,5.9-5.9s5.9,2.6,5.9,5.9s-2.6,5.9-5.9,5.9S-216.1,40-216.1,36.7z M-206.9,36.7
		c0-2-1.5-3.4-3.3-3.4s-3.3,1.3-3.3,3.4c0,2,1.5,3.4,3.3,3.4S-206.9,38.7-206.9,36.7z"/>
	<path class="st25" d="M-199,38.6h-1.2v3.7h-2.6V31h4.5c2.1,0,3.9,1.7,3.9,3.9c0,1.4-0.8,2.6-2.1,3.3l2.4,4.1h-2.8L-199,38.6z
		 M-200.3,36.4h1.9c0.7,0,1.3-0.6,1.3-1.5c0-0.8-0.6-1.5-1.3-1.5h-1.9V36.4z"/>
	<path class="st25" d="M-185.6,33.5h-2.9v8.8h-2.6v-8.8h-2.9V31h8.4V33.5z"/>
</g>
<path class="st25" d="M-263.6,12.1c-0.6-0.5-1.3-0.7-2.1-0.7c-0.8,0.1-1.5,0.4-2,1l-17.5,21l-7.3-8.9c-1-1.2-2.8-1.4-4-0.4
	c-1.2,1-1.4,2.8-0.4,4l9.5,11.6c0.5,0.7,1.3,1,2.2,1c0,0,0,0,0,0c0.8,0,1.6-0.4,2.2-1l19.7-23.6C-262.2,15-262.4,13.2-263.6,12.1z"
	/>
<path d="M96.7,49.6c0.1,12.2-3.9,22.3-11.7,30.9C79,87.2,71.6,91.6,62.9,94c-4.6,1.2-9.3,1.8-14,1.5C38.8,95,29.8,91.6,22,85.2
	C13.6,78.3,8.2,69.5,6.1,58.8c-0.5-2.4-0.8-4.8-0.7-7.2c0.1-2.6,0.1-5.1,0.3-7.7c0.4-4,1.5-7.8,3.1-11.5
	c4.8-11.1,12.8-19.1,23.9-24.1c4.5-2,9.2-3.2,14.2-3.6c9.6-0.9,18.6,1,27,5.8c11.7,6.8,19.1,16.9,22.1,30.2c0.3,1.2,0.5,2.4,0.6,3.6
	C96.6,46.3,96.6,48.2,96.7,49.6z M14.3,50.1c0.1,1.2,0.1,2.5,0.2,3.7c0.5,5.1,2,9.9,4.5,14.4c7.5,13.6,22.9,21,38.1,18.3
	c9.1-1.6,16.6-6,22.3-13.2c6.9-8.6,9.4-18.5,7.7-29.3c-1.1-6.9-3.9-13.1-8.6-18.3c-7.8-8.8-17.6-13-29.3-12.6c-4.2,0.1-8.1,1-12,2.6
	C23.4,21.4,14.3,35,14.3,50.1z"/>
<path d="M30.1,27.5c3.4,0,6.7,0,10.1,0c0,0.3,0,0.5,0,0.7c0,9.9,0,19.8,0,29.7c0,2.1,0.2,4.2,1,6.2c1.4,3.5,4,5.3,7.6,5.8
	c2.1,0.3,4.1,0.2,6.2-0.4c3.7-1.1,5.8-3.7,6.7-7.3c0.4-1.5,0.5-3.2,0.5-4.8c0-9.7,0-19.4,0-29c0-0.3,0-0.5,0-0.9c3.4,0,6.7,0,10,0
	c0,0.2,0,0.3,0,0.5c0,10.6,0.1,21.2-0.1,31.8c-0.1,5.9-2.3,10.9-7.2,14.4c-2.7,2-5.8,3-9.1,3.5c-4.1,0.6-8.2,0.5-12.2-0.4
	c-7-1.5-12.2-6.9-13.1-14.1c-0.2-1.7-0.4-3.5-0.4-5.3c0-9.9,0-19.9,0-29.8C30.1,28.1,30.1,27.8,30.1,27.5z"/>
</svg>
